G04 #@! TF.GenerationSoftware,KiCad,Pcbnew,(5.0-dev-4115-gdd04bcb)*
G04 #@! TF.CreationDate,2018-03-07T01:09:18-08:00*
G04 #@! TF.ProjectId,Thermocouple Data Logger,546865726D6F636F75706C6520446174,1*
G04 #@! TF.SameCoordinates,Original*
G04 #@! TF.FileFunction,Soldermask,Bot*
G04 #@! TF.FilePolarity,Negative*
%FSLAX46Y46*%
G04 Gerber Fmt 4.6, Leading zero omitted, Abs format (unit mm)*
G04 Created by KiCad (PCBNEW (5.0-dev-4115-gdd04bcb)) date Wednesday, March 07, 2018 at 01:09:18 AM*
%MOMM*%
%LPD*%
G01*
G04 APERTURE LIST*
%ADD10R,1.500000X1.500000*%
%ADD11C,1.500000*%
%ADD12C,2.250000*%
%ADD13R,2.250000X2.250000*%
%ADD14O,1.700000X1.700000*%
%ADD15R,1.700000X1.700000*%
%ADD16C,0.900000*%
%ADD17C,1.000000*%
%ADD18C,3.200000*%
%ADD19C,0.800000*%
%ADD20C,6.400000*%
G04 APERTURE END LIST*
D10*
X119650000Y-99900000D03*
D11*
X122190000Y-99900000D03*
X124730000Y-99900000D03*
X127270000Y-99900000D03*
X129810000Y-99900000D03*
X132350000Y-99900000D03*
X134890000Y-99900000D03*
X137430000Y-99900000D03*
X139970000Y-99900000D03*
X139970000Y-84660000D03*
X137430000Y-84660000D03*
X134890000Y-84660000D03*
X132350000Y-84660000D03*
X129810000Y-84660000D03*
X127270000Y-84660000D03*
X124730000Y-84660000D03*
X122190000Y-84660000D03*
X119650000Y-84660000D03*
D12*
X122575000Y-55275000D03*
D13*
X126075000Y-55275000D03*
X141075000Y-55225000D03*
D12*
X137575000Y-55225000D03*
D13*
X156075000Y-55275000D03*
D12*
X152575000Y-55275000D03*
X167575000Y-55275000D03*
D13*
X171075000Y-55275000D03*
D14*
X123920000Y-131540000D03*
X123920000Y-129000000D03*
X126460000Y-131540000D03*
X126460000Y-129000000D03*
X129000000Y-131540000D03*
D15*
X129000000Y-129000000D03*
D16*
X181500000Y-81100000D03*
X181500000Y-87900000D03*
X111500000Y-88100000D03*
X111500000Y-94900000D03*
D10*
X144900000Y-99900000D03*
D11*
X147440000Y-99900000D03*
X149980000Y-99900000D03*
X152520000Y-99900000D03*
X155060000Y-99900000D03*
X157600000Y-99900000D03*
X160140000Y-99900000D03*
X162680000Y-99900000D03*
X165220000Y-99900000D03*
X165220000Y-84660000D03*
X162680000Y-84660000D03*
X160140000Y-84660000D03*
X157600000Y-84660000D03*
X155060000Y-84660000D03*
X152520000Y-84660000D03*
X149980000Y-84660000D03*
X147440000Y-84660000D03*
X144900000Y-84660000D03*
D17*
X130800000Y-119500000D03*
X132700000Y-119500000D03*
D18*
X179000000Y-56500000D03*
X114000000Y-56500000D03*
D19*
X115697056Y-127402944D03*
X114000000Y-126700000D03*
X112302944Y-127402944D03*
X111600000Y-129100000D03*
X112302944Y-130797056D03*
X114000000Y-131500000D03*
X115697056Y-130797056D03*
X116400000Y-129100000D03*
D20*
X114000000Y-129100000D03*
X179000000Y-129100000D03*
D19*
X181400000Y-129100000D03*
X180697056Y-130797056D03*
X179000000Y-131500000D03*
X177302944Y-130797056D03*
X176600000Y-129100000D03*
X177302944Y-127402944D03*
X179000000Y-126700000D03*
X180697056Y-127402944D03*
M02*
