G04 #@! TF.GenerationSoftware,KiCad,Pcbnew,(5.0-dev-4115-gdd04bcb)*
G04 #@! TF.CreationDate,2018-04-28T02:22:02-07:00*
G04 #@! TF.ProjectId,Thermocouple Data Logger,546865726D6F636F75706C6520446174,1*
G04 #@! TF.SameCoordinates,Original*
G04 #@! TF.FileFunction,Copper,L1,Top,Signal*
G04 #@! TF.FilePolarity,Positive*
%FSLAX46Y46*%
G04 Gerber Fmt 4.6, Leading zero omitted, Abs format (unit mm)*
G04 Created by KiCad (PCBNEW (5.0-dev-4115-gdd04bcb)) date Saturday, April 28, 2018 at 02:22:02 AM*
%MOMM*%
%LPD*%
G01*
G04 APERTURE LIST*
%ADD10R,1.200000X1.800000*%
%ADD11R,0.550000X1.500000*%
%ADD12R,1.500000X0.550000*%
%ADD13C,0.200000*%
%ADD14C,0.100000*%
%ADD15R,0.800000X1.200000*%
%ADD16R,0.500000X0.500000*%
%ADD17R,1.400000X0.700000*%
%ADD18R,1.200000X0.700000*%
%ADD19R,3.200000X1.200000*%
%ADD20R,1.200000X1.200000*%
%ADD21R,1.400000X1.000000*%
%ADD22R,1.900000X1.500000*%
%ADD23R,1.500000X1.500000*%
%ADD24C,1.500000*%
%ADD25R,0.450000X1.500000*%
%ADD26R,0.500000X0.600000*%
%ADD27C,1.000000*%
%ADD28R,0.600000X0.500000*%
%ADD29R,1.000000X2.500000*%
%ADD30R,1.600000X1.000000*%
%ADD31R,0.800000X0.800000*%
%ADD32R,0.600000X0.450000*%
%ADD33R,0.450000X0.600000*%
%ADD34R,3.400000X1.500000*%
%ADD35R,3.500000X1.000000*%
%ADD36C,2.250000*%
%ADD37R,2.250000X2.250000*%
%ADD38O,1.700000X1.700000*%
%ADD39R,1.700000X1.700000*%
%ADD40R,0.500000X0.900000*%
%ADD41R,0.700000X1.300000*%
%ADD42R,1.300000X0.700000*%
%ADD43R,0.400000X0.600000*%
%ADD44R,0.600000X0.400000*%
%ADD45R,2.500000X1.250000*%
%ADD46R,1.550000X1.300000*%
%ADD47R,0.760000X1.600000*%
%ADD48R,1.550000X0.600000*%
%ADD49R,0.450000X1.450000*%
%ADD50C,0.800000*%
%ADD51C,6.400000*%
%ADD52R,1.000000X1.250000*%
%ADD53C,0.600000*%
%ADD54C,0.250000*%
%ADD55C,0.500000*%
G04 APERTURE END LIST*
D10*
X151700000Y-122000000D03*
X151700000Y-118000000D03*
X154100000Y-118000000D03*
X154100000Y-122000000D03*
D11*
X146500000Y-129500000D03*
X145700000Y-129500000D03*
X144900000Y-129500000D03*
X144100000Y-129500000D03*
X143300000Y-129500000D03*
X142500000Y-129500000D03*
X141700000Y-129500000D03*
X140900000Y-129500000D03*
X140100000Y-129500000D03*
X139300000Y-129500000D03*
X138500000Y-129500000D03*
D12*
X136800000Y-127800000D03*
X136800000Y-127000000D03*
X136800000Y-126200000D03*
X136800000Y-125400000D03*
X136800000Y-124600000D03*
X136800000Y-123800000D03*
X136800000Y-123000000D03*
X136800000Y-122200000D03*
X136800000Y-121400000D03*
X136800000Y-120600000D03*
X136800000Y-119800000D03*
D11*
X138500000Y-118100000D03*
X139300000Y-118100000D03*
X140100000Y-118100000D03*
X140900000Y-118100000D03*
X141700000Y-118100000D03*
X142500000Y-118100000D03*
X143300000Y-118100000D03*
X144100000Y-118100000D03*
X144900000Y-118100000D03*
X145700000Y-118100000D03*
X146500000Y-118100000D03*
D12*
X148200000Y-119800000D03*
X148200000Y-120600000D03*
X148200000Y-121400000D03*
X148200000Y-122200000D03*
X148200000Y-123000000D03*
X148200000Y-123800000D03*
X148200000Y-124600000D03*
X148200000Y-125400000D03*
X148200000Y-126200000D03*
X148200000Y-127000000D03*
X148200000Y-127800000D03*
D13*
X110250000Y-110450000D03*
D14*
G36*
X110108579Y-110450000D02*
X110250000Y-110308579D01*
X110391421Y-110450000D01*
X110250000Y-110591421D01*
X110108579Y-110450000D01*
X110108579Y-110450000D01*
G37*
D15*
X115300000Y-123000000D03*
D16*
X110000000Y-110700000D03*
D17*
X125700000Y-121200000D03*
X125700000Y-120100000D03*
X125700000Y-119000000D03*
X125700000Y-117900000D03*
X125700000Y-116800000D03*
X125700000Y-115700000D03*
X125700000Y-114600000D03*
D18*
X125800000Y-122150000D03*
D19*
X111700000Y-123000000D03*
D20*
X121500000Y-123000000D03*
D21*
X125700000Y-111600000D03*
D22*
X110700000Y-109700000D03*
D17*
X125700000Y-113500000D03*
D23*
X119650000Y-99900000D03*
D24*
X122190000Y-99900000D03*
X124730000Y-99900000D03*
X127270000Y-99900000D03*
X129810000Y-99900000D03*
X132350000Y-99900000D03*
X134890000Y-99900000D03*
X137430000Y-99900000D03*
X139970000Y-99900000D03*
X139970000Y-84660000D03*
X137430000Y-84660000D03*
X134890000Y-84660000D03*
X132350000Y-84660000D03*
X129810000Y-84660000D03*
X127270000Y-84660000D03*
X124730000Y-84660000D03*
X122190000Y-84660000D03*
X119650000Y-84660000D03*
D25*
X139275000Y-113450000D03*
X138625000Y-113450000D03*
X137975000Y-113450000D03*
X137325000Y-113450000D03*
X136675000Y-113450000D03*
X136025000Y-113450000D03*
X135375000Y-113450000D03*
X134725000Y-113450000D03*
X134725000Y-107550000D03*
X135375000Y-107550000D03*
X136025000Y-107550000D03*
X136675000Y-107550000D03*
X137325000Y-107550000D03*
X137975000Y-107550000D03*
X138625000Y-107550000D03*
X139275000Y-107550000D03*
D26*
X135450000Y-126250000D03*
X135450000Y-125150000D03*
D27*
X114000000Y-64500000D03*
D26*
X133900000Y-114400000D03*
X133900000Y-115500000D03*
X129500000Y-114500000D03*
X129500000Y-113400000D03*
X155450000Y-119950000D03*
X155450000Y-121050000D03*
X150350000Y-118000000D03*
X150350000Y-116900000D03*
D28*
X120975000Y-65775000D03*
X122075000Y-65775000D03*
X127675000Y-65775000D03*
X126575000Y-65775000D03*
X135975000Y-65775000D03*
X137075000Y-65775000D03*
X142675000Y-65775000D03*
X141575000Y-65775000D03*
X150975000Y-65775000D03*
X152075000Y-65775000D03*
X157675000Y-65775000D03*
X156575000Y-65775000D03*
X167075000Y-65775000D03*
X165975000Y-65775000D03*
X171575000Y-65775000D03*
X172675000Y-65775000D03*
X174300000Y-114900000D03*
X175400000Y-114900000D03*
D29*
X176700000Y-106450000D03*
X179700000Y-106450000D03*
D30*
X171110000Y-112590000D03*
X171110000Y-109590000D03*
D31*
X159200000Y-122500000D03*
X160800000Y-122500000D03*
X160800000Y-117500000D03*
X159200000Y-117500000D03*
X173700000Y-90000000D03*
X175300000Y-90000000D03*
X175300000Y-94000000D03*
X173700000Y-94000000D03*
X173600000Y-98000000D03*
X175200000Y-98000000D03*
X175300000Y-102000000D03*
X173700000Y-102000000D03*
X180700000Y-94000000D03*
X182300000Y-94000000D03*
X182200000Y-97990000D03*
X180600000Y-97990000D03*
X180700000Y-102000000D03*
X182300000Y-102000000D03*
D32*
X137450000Y-131850000D03*
X139550000Y-131850000D03*
X147200000Y-131850000D03*
X145100000Y-131850000D03*
D33*
X152050000Y-128800000D03*
X152050000Y-126700000D03*
D34*
X181500000Y-70300000D03*
X181500000Y-77000000D03*
D35*
X175750000Y-72650000D03*
X175750000Y-74650000D03*
D36*
X122575000Y-55275000D03*
D37*
X126075000Y-55275000D03*
X141075000Y-55225000D03*
D36*
X137575000Y-55225000D03*
D37*
X156075000Y-55275000D03*
D36*
X152575000Y-55275000D03*
X167575000Y-55275000D03*
D37*
X171075000Y-55275000D03*
D38*
X123920000Y-131540000D03*
X123920000Y-129000000D03*
X126460000Y-131540000D03*
X126460000Y-129000000D03*
X129000000Y-131540000D03*
D39*
X129000000Y-129000000D03*
D40*
X121825000Y-63400000D03*
X123325000Y-63400000D03*
X125325000Y-63400000D03*
X126825000Y-63400000D03*
X136825000Y-63350000D03*
X138325000Y-63350000D03*
X140325000Y-63350000D03*
X141825000Y-63350000D03*
X151825000Y-63400000D03*
X153325000Y-63400000D03*
X155325000Y-63400000D03*
X156825000Y-63400000D03*
X168325000Y-63400000D03*
X166825000Y-63400000D03*
X171825000Y-63400000D03*
X170325000Y-63400000D03*
D41*
X156050000Y-122500000D03*
X157950000Y-122500000D03*
X150547056Y-131937056D03*
X152447056Y-131937056D03*
X156050000Y-117500000D03*
X157950000Y-117500000D03*
D42*
X124740000Y-81950000D03*
X124740000Y-80050000D03*
X127275000Y-80050000D03*
X127275000Y-81950000D03*
X124730000Y-104510000D03*
X124730000Y-102610000D03*
X122190000Y-104510000D03*
X122190000Y-102610000D03*
X119650000Y-104510000D03*
X119650000Y-102610000D03*
X119650000Y-81950000D03*
X119650000Y-80050000D03*
X122190000Y-81950000D03*
X122190000Y-80050000D03*
X127270000Y-102610000D03*
X127270000Y-104510000D03*
X137420000Y-80050000D03*
X137420000Y-81950000D03*
X139970000Y-81950000D03*
X139970000Y-80050000D03*
X137420000Y-104510000D03*
X137420000Y-102610000D03*
X132350000Y-104510000D03*
X132350000Y-102610000D03*
X129810000Y-102610000D03*
X129810000Y-104510000D03*
X134890000Y-80050000D03*
X134890000Y-81950000D03*
X134890000Y-104510000D03*
X134890000Y-102610000D03*
X139970000Y-102610000D03*
X139970000Y-104510000D03*
X149980000Y-80050000D03*
X149980000Y-81950000D03*
X152510000Y-81950000D03*
X152510000Y-80050000D03*
X149970000Y-104510000D03*
X149970000Y-102610000D03*
X147440000Y-102610000D03*
X147440000Y-104510000D03*
X144900000Y-104510000D03*
X144900000Y-102610000D03*
X144900000Y-81950000D03*
X144900000Y-80050000D03*
X147450000Y-80050000D03*
X147450000Y-81950000D03*
X152525000Y-102610000D03*
X152525000Y-104510000D03*
X162680000Y-81950000D03*
X162680000Y-80050000D03*
X165220000Y-81950000D03*
X165220000Y-80050000D03*
X162680000Y-104500000D03*
X162680000Y-102600000D03*
X157600000Y-102610000D03*
X157600000Y-104510000D03*
X155060000Y-104510000D03*
X155060000Y-102610000D03*
X160140000Y-81950000D03*
X160140000Y-80050000D03*
X160150000Y-104510000D03*
X160150000Y-102610000D03*
X165220000Y-104510000D03*
X165220000Y-102610000D03*
D41*
X170600000Y-90000000D03*
X172500000Y-90000000D03*
X172500000Y-94000000D03*
X170600000Y-94000000D03*
X170500000Y-98000000D03*
X172400000Y-98000000D03*
X172500000Y-102000000D03*
X170600000Y-102000000D03*
X177600000Y-94000000D03*
X179500000Y-94000000D03*
X179400000Y-98000000D03*
X177500000Y-98000000D03*
X177600000Y-102000000D03*
X179500000Y-102000000D03*
D43*
X163950000Y-127500000D03*
X164850000Y-127500000D03*
X164450000Y-118100000D03*
X163550000Y-118100000D03*
X160450000Y-121000000D03*
X159550000Y-121000000D03*
X151450000Y-130000000D03*
X150550000Y-130000000D03*
X137450000Y-115250000D03*
X136550000Y-115250000D03*
D44*
X164000000Y-129400000D03*
X164000000Y-128500000D03*
X162800000Y-119100000D03*
X162800000Y-120000000D03*
D43*
X136975000Y-77050000D03*
X136075000Y-77050000D03*
X151050000Y-77050000D03*
X151950000Y-77050000D03*
X166950000Y-77050000D03*
X166050000Y-77050000D03*
D45*
X178750000Y-82000000D03*
X178750000Y-84500000D03*
X178750000Y-87000000D03*
X114250000Y-89000000D03*
X114250000Y-91500000D03*
X114250000Y-94000000D03*
D46*
X162177056Y-131947056D03*
X162177056Y-127447056D03*
X154217056Y-127447056D03*
X154217056Y-131947056D03*
X166000000Y-132000000D03*
X166000000Y-127500000D03*
X173960000Y-127500000D03*
X173960000Y-132000000D03*
X173960000Y-122500000D03*
X173960000Y-118000000D03*
X166000000Y-118000000D03*
X166000000Y-122500000D03*
D47*
X170595000Y-79960000D03*
X174405000Y-85040000D03*
X171865000Y-79960000D03*
X173135000Y-85040000D03*
X173135000Y-79960000D03*
X171865000Y-85040000D03*
X174405000Y-79960000D03*
X170595000Y-85040000D03*
D48*
X179700000Y-109595000D03*
X179700000Y-110865000D03*
X179700000Y-112135000D03*
X179700000Y-113405000D03*
X174300000Y-113405000D03*
X174300000Y-112135000D03*
X174300000Y-110865000D03*
X174300000Y-109595000D03*
D49*
X125950000Y-68550000D03*
X125300000Y-68550000D03*
X124650000Y-68550000D03*
X124000000Y-68550000D03*
X123350000Y-68550000D03*
X122700000Y-68550000D03*
X122050000Y-68550000D03*
X122050000Y-74450000D03*
X122700000Y-74450000D03*
X123350000Y-74450000D03*
X124000000Y-74450000D03*
X124650000Y-74450000D03*
X125300000Y-74450000D03*
X125950000Y-74450000D03*
X140950000Y-68550000D03*
X140300000Y-68550000D03*
X139650000Y-68550000D03*
X139000000Y-68550000D03*
X138350000Y-68550000D03*
X137700000Y-68550000D03*
X137050000Y-68550000D03*
X137050000Y-74450000D03*
X137700000Y-74450000D03*
X138350000Y-74450000D03*
X139000000Y-74450000D03*
X139650000Y-74450000D03*
X140300000Y-74450000D03*
X140950000Y-74450000D03*
X155950000Y-74450000D03*
X155300000Y-74450000D03*
X154650000Y-74450000D03*
X154000000Y-74450000D03*
X153350000Y-74450000D03*
X152700000Y-74450000D03*
X152050000Y-74450000D03*
X152050000Y-68550000D03*
X152700000Y-68550000D03*
X153350000Y-68550000D03*
X154000000Y-68550000D03*
X154650000Y-68550000D03*
X155300000Y-68550000D03*
X155950000Y-68550000D03*
X170950000Y-74450000D03*
X170300000Y-74450000D03*
X169650000Y-74450000D03*
X169000000Y-74450000D03*
X168350000Y-74450000D03*
X167700000Y-74450000D03*
X167050000Y-74450000D03*
X167050000Y-68550000D03*
X167700000Y-68550000D03*
X168350000Y-68550000D03*
X169000000Y-68550000D03*
X169650000Y-68550000D03*
X170300000Y-68550000D03*
X170950000Y-68550000D03*
D25*
X146275000Y-113450000D03*
X145625000Y-113450000D03*
X144975000Y-113450000D03*
X144325000Y-113450000D03*
X143675000Y-113450000D03*
X143025000Y-113450000D03*
X142375000Y-113450000D03*
X141725000Y-113450000D03*
X141725000Y-107550000D03*
X142375000Y-107550000D03*
X143025000Y-107550000D03*
X143675000Y-107550000D03*
X144325000Y-107550000D03*
X144975000Y-107550000D03*
X145625000Y-107550000D03*
X146275000Y-107550000D03*
X153275000Y-107550000D03*
X152625000Y-107550000D03*
X151975000Y-107550000D03*
X151325000Y-107550000D03*
X150675000Y-107550000D03*
X150025000Y-107550000D03*
X149375000Y-107550000D03*
X148725000Y-107550000D03*
X148725000Y-113450000D03*
X149375000Y-113450000D03*
X150025000Y-113450000D03*
X150675000Y-113450000D03*
X151325000Y-113450000D03*
X151975000Y-113450000D03*
X152625000Y-113450000D03*
X153275000Y-113450000D03*
X160275000Y-107550000D03*
X159625000Y-107550000D03*
X158975000Y-107550000D03*
X158325000Y-107550000D03*
X157675000Y-107550000D03*
X157025000Y-107550000D03*
X156375000Y-107550000D03*
X155725000Y-107550000D03*
X155725000Y-113450000D03*
X156375000Y-113450000D03*
X157025000Y-113450000D03*
X157675000Y-113450000D03*
X158325000Y-113450000D03*
X158975000Y-113450000D03*
X159625000Y-113450000D03*
X160275000Y-113450000D03*
X167275000Y-113450000D03*
X166625000Y-113450000D03*
X165975000Y-113450000D03*
X165325000Y-113450000D03*
X164675000Y-113450000D03*
X164025000Y-113450000D03*
X163375000Y-113450000D03*
X162725000Y-113450000D03*
X162725000Y-107550000D03*
X163375000Y-107550000D03*
X164025000Y-107550000D03*
X164675000Y-107550000D03*
X165325000Y-107550000D03*
X165975000Y-107550000D03*
X166625000Y-107550000D03*
X167275000Y-107550000D03*
D23*
X144900000Y-99900000D03*
D24*
X147440000Y-99900000D03*
X149980000Y-99900000D03*
X152520000Y-99900000D03*
X155060000Y-99900000D03*
X157600000Y-99900000D03*
X160140000Y-99900000D03*
X162680000Y-99900000D03*
X165220000Y-99900000D03*
X165220000Y-84660000D03*
X162680000Y-84660000D03*
X160140000Y-84660000D03*
X157600000Y-84660000D03*
X155060000Y-84660000D03*
X152520000Y-84660000D03*
X149980000Y-84660000D03*
X147440000Y-84660000D03*
X144900000Y-84660000D03*
D25*
X134025000Y-123950000D03*
X133375000Y-123950000D03*
X132725000Y-123950000D03*
X132075000Y-123950000D03*
X131425000Y-123950000D03*
X130775000Y-123950000D03*
X130125000Y-123950000D03*
X129475000Y-123950000D03*
X129475000Y-118050000D03*
X130125000Y-118050000D03*
X130775000Y-118050000D03*
X131425000Y-118050000D03*
X132075000Y-118050000D03*
X132725000Y-118050000D03*
X133375000Y-118050000D03*
X134025000Y-118050000D03*
D27*
X130800000Y-114500000D03*
X132700000Y-114500000D03*
D50*
X115697056Y-127402944D03*
X114000000Y-126700000D03*
X112302944Y-127402944D03*
X111600000Y-129100000D03*
X112302944Y-130797056D03*
X114000000Y-131500000D03*
X115697056Y-130797056D03*
X116400000Y-129100000D03*
D51*
X114000000Y-129100000D03*
X179000000Y-129100000D03*
D50*
X181400000Y-129100000D03*
X180697056Y-130797056D03*
X179000000Y-131500000D03*
X177302944Y-130797056D03*
X176600000Y-129100000D03*
X177302944Y-127402944D03*
X179000000Y-126700000D03*
X180697056Y-127402944D03*
D27*
X179000000Y-121500000D03*
D52*
X125325000Y-65775000D03*
X123325000Y-65775000D03*
X138325000Y-65775000D03*
X140325000Y-65775000D03*
X155325000Y-65775000D03*
X153325000Y-65775000D03*
X170325000Y-65775000D03*
X168325000Y-65775000D03*
D26*
X150550000Y-127700000D03*
X150550000Y-128800000D03*
X164450000Y-130900000D03*
X164450000Y-132000000D03*
X164000000Y-120600000D03*
X164000000Y-119500000D03*
D28*
X141700000Y-130850000D03*
X142800000Y-130850000D03*
X142500000Y-116650000D03*
X141400000Y-116650000D03*
D26*
X149850000Y-124600000D03*
X149850000Y-123500000D03*
X135450000Y-123000000D03*
X135450000Y-124100000D03*
D28*
X123350000Y-67200000D03*
X122250000Y-67200000D03*
X120950000Y-75800000D03*
X122050000Y-75800000D03*
X137250000Y-67200000D03*
X138350000Y-67200000D03*
X137075000Y-75800000D03*
X135975000Y-75800000D03*
X153350000Y-67200000D03*
X152250000Y-67200000D03*
X150950000Y-75800000D03*
X152050000Y-75800000D03*
X168350000Y-67200000D03*
X167250000Y-67200000D03*
X165950000Y-75800000D03*
X167050000Y-75800000D03*
D26*
X135100000Y-119150000D03*
X135100000Y-118050000D03*
X127413702Y-116787292D03*
X127413702Y-115687292D03*
D28*
X140375000Y-114900000D03*
X139275000Y-114900000D03*
X147375000Y-114900000D03*
X146275000Y-114900000D03*
X154375000Y-114900000D03*
X153275000Y-114900000D03*
X160275000Y-114900000D03*
X161375000Y-114900000D03*
X167275000Y-114900000D03*
X168375000Y-114900000D03*
D53*
X110174990Y-108550000D03*
X148137060Y-114875233D03*
X135403912Y-76999913D03*
X135144979Y-115865534D03*
X129263061Y-112736939D03*
X137258046Y-116024993D03*
X137300000Y-114574990D03*
X140250000Y-115950000D03*
X152258025Y-123513114D03*
X156350000Y-119950000D03*
X146541949Y-124208051D03*
X135100000Y-120050000D03*
X128750000Y-118000000D03*
X149600000Y-116550000D03*
X154400000Y-116550000D03*
X148050000Y-131900000D03*
X141750000Y-119400000D03*
X150650000Y-123800000D03*
X143600000Y-131400000D03*
X142550000Y-128200000D03*
X134700000Y-126550000D03*
X129625000Y-125250000D03*
X130800000Y-125250000D03*
X132750000Y-125300000D03*
X134750002Y-124450000D03*
X138100000Y-123800000D03*
X128113702Y-115187292D03*
X165150000Y-76000000D03*
X165350000Y-76825000D03*
X151300000Y-114600000D03*
X135200000Y-75224990D03*
X120149891Y-75654269D03*
X141200000Y-114700000D03*
X164000000Y-130000000D03*
X175800000Y-104900000D03*
X175699998Y-106450000D03*
X175850000Y-108050000D03*
X165200000Y-65800000D03*
X166500000Y-67200000D03*
X171600000Y-68500000D03*
X171200000Y-75600000D03*
X173400000Y-65800000D03*
X156600000Y-68500000D03*
X141600000Y-68500000D03*
X126600000Y-68500000D03*
X158400000Y-65700000D03*
X150200000Y-65700000D03*
X151500000Y-67150000D03*
X156125000Y-75600000D03*
X150228867Y-77053837D03*
X150199992Y-75800000D03*
X136500000Y-67200000D03*
X135300000Y-65800000D03*
X143400000Y-65800000D03*
X141000000Y-75600000D03*
X120200000Y-65800000D03*
X121500000Y-67200000D03*
X128400000Y-65800000D03*
X125900000Y-75600000D03*
X121500000Y-124000000D03*
X126800000Y-119000000D03*
X126800000Y-111600000D03*
X162100000Y-107300000D03*
X155200000Y-107300000D03*
X148100000Y-107300000D03*
X141100000Y-107300000D03*
X134100000Y-107300000D03*
X162800000Y-120600000D03*
X156300000Y-118650000D03*
X171100000Y-113500000D03*
X175500000Y-112150000D03*
X178500000Y-110850000D03*
X178500000Y-112100000D03*
X111600000Y-124000000D03*
X150550000Y-127000000D03*
X162200000Y-126400000D03*
X154250000Y-126400000D03*
X155300000Y-122700000D03*
X169100000Y-114850000D03*
X165300000Y-114600000D03*
X162200000Y-114900000D03*
X155100000Y-114900004D03*
X158350000Y-114600000D03*
X144300000Y-114600000D03*
X177200000Y-75550000D03*
X173600000Y-74650000D03*
X174300000Y-75550000D03*
X175750000Y-75550000D03*
X177900000Y-74650000D03*
X134150000Y-120300001D03*
X150700000Y-124600000D03*
X121150000Y-74850000D03*
X143152486Y-116782838D03*
X134850000Y-122250000D03*
X141450000Y-131600000D03*
X136550000Y-132000000D03*
X128113702Y-116287292D03*
X112550000Y-92450000D03*
X112550000Y-90450000D03*
X112450000Y-91500000D03*
X152050000Y-129950000D03*
X152050000Y-126000000D03*
X172100000Y-108750000D03*
X170100000Y-108750000D03*
X171100000Y-108700000D03*
X176100000Y-115000000D03*
X170800000Y-86250000D03*
X172100000Y-86250000D03*
X173250000Y-86250000D03*
X174500000Y-86250000D03*
X123300000Y-69700000D03*
X131400000Y-120600000D03*
X149750000Y-125600000D03*
X153250000Y-123449999D03*
X149500000Y-120000000D03*
X147525013Y-118350000D03*
X136050000Y-114775010D03*
X135157257Y-114715523D03*
X166550000Y-114950000D03*
X117574990Y-94650000D03*
X117574990Y-93350000D03*
X117574990Y-94000000D03*
X139250000Y-112300000D03*
X142350000Y-112250000D03*
X145600000Y-114900000D03*
X149350000Y-114600000D03*
X156400000Y-114600000D03*
X152600000Y-114900000D03*
X159550000Y-114900000D03*
X163150000Y-114600000D03*
X163950000Y-114800000D03*
X167100000Y-89150000D03*
X167100000Y-88350000D03*
X152250000Y-119550000D03*
X150643769Y-119643769D03*
X140400000Y-128100000D03*
X146250000Y-127950000D03*
X146550000Y-125075000D03*
X146550000Y-112250000D03*
X146250003Y-109050000D03*
X137736059Y-75894461D03*
X170050000Y-78600000D03*
X138300000Y-69650000D03*
X138450000Y-76700000D03*
X134050000Y-74500000D03*
X112600000Y-75700000D03*
X135700000Y-132375000D03*
X153350000Y-69650000D03*
X171350000Y-78600000D03*
X153250000Y-76700000D03*
X152800004Y-76100000D03*
X142350000Y-131700001D03*
X152319069Y-130703395D03*
X152950000Y-128700000D03*
X168350000Y-69700000D03*
X172650000Y-78600000D03*
X168200000Y-76700000D03*
X167750000Y-76100000D03*
X133250000Y-122500000D03*
X140550000Y-130900000D03*
X160800000Y-123500000D03*
X182200000Y-92100000D03*
X183150001Y-103999999D03*
X127575000Y-120675000D03*
X132872554Y-116899988D03*
X148150000Y-128750000D03*
X127050000Y-121350000D03*
X146800000Y-126825010D03*
X132500000Y-119800000D03*
X144390699Y-131278354D03*
X144150000Y-132550000D03*
X133650000Y-98100000D03*
X138300000Y-110775010D03*
X132300000Y-80150000D03*
X138640731Y-105303186D03*
X138358732Y-109558732D03*
X137691268Y-108741268D03*
X134426078Y-110198630D03*
X136200000Y-109250000D03*
X134750000Y-86650000D03*
X136650000Y-106425000D03*
X145550000Y-109050000D03*
X138750000Y-80050000D03*
X144499988Y-108895176D03*
X137300000Y-105300000D03*
X140250011Y-106150000D03*
X138300000Y-105950000D03*
X148861728Y-109150011D03*
X146100000Y-80250000D03*
X151400000Y-104500000D03*
X149350000Y-105960011D03*
X161400000Y-80100000D03*
X157650000Y-106300000D03*
X160150000Y-104510000D03*
X157000000Y-105610017D03*
X164100000Y-104500000D03*
X163900000Y-105610001D03*
X169275011Y-109663713D03*
X169850000Y-90050000D03*
X143550000Y-115650000D03*
X145100000Y-123800000D03*
X136747992Y-111000031D03*
X164600000Y-110750000D03*
X143700000Y-110750000D03*
X150700000Y-110750000D03*
X157650000Y-110750000D03*
X142850076Y-115638904D03*
X144600000Y-123300000D03*
X136008465Y-111000031D03*
X143000000Y-110575021D03*
X150000000Y-110100000D03*
X164000000Y-110100000D03*
X157000000Y-110100000D03*
X144300000Y-122550000D03*
X138106908Y-114746930D03*
X114840012Y-72475010D03*
X143350000Y-121500000D03*
X138250000Y-124900000D03*
X133950000Y-125900000D03*
X128250000Y-125600000D03*
X121950000Y-72800000D03*
X151900000Y-70575000D03*
X122249999Y-71800000D03*
X112650000Y-77200000D03*
X128250000Y-126550000D03*
X135350000Y-127100000D03*
X139050000Y-123700000D03*
X141978768Y-122078768D03*
X150600000Y-125600003D03*
X153600000Y-125600000D03*
X162700000Y-76600000D03*
X129078756Y-111421234D03*
X137700000Y-117775010D03*
X122696581Y-76892823D03*
X137904310Y-116506827D03*
X122650000Y-77750000D03*
X138596625Y-116403375D03*
X122700000Y-78450000D03*
X139466506Y-115788329D03*
X148575676Y-115544288D03*
X148075010Y-112850000D03*
X155800000Y-78525000D03*
X146808425Y-109484340D03*
X148150000Y-116100000D03*
X147850000Y-111900000D03*
X147599998Y-109600000D03*
X155100000Y-79250000D03*
X166250000Y-68500000D03*
X144250000Y-119450000D03*
X152900000Y-72750000D03*
X145993769Y-119293769D03*
X168250000Y-72750000D03*
X138200000Y-72750000D03*
X123300000Y-72700000D03*
X124400000Y-71625010D03*
X154300000Y-71625010D03*
X139200000Y-71625010D03*
X146424990Y-116821239D03*
X124141268Y-75841268D03*
X169550000Y-70800000D03*
X153736994Y-72040993D03*
X123754520Y-71895883D03*
X138716060Y-72130796D03*
X149000000Y-119000000D03*
X169050000Y-81500000D03*
X168850000Y-71800000D03*
X142423111Y-111512434D03*
X152000000Y-111350000D03*
X165400000Y-111650000D03*
X156500000Y-111650000D03*
X116150000Y-84050000D03*
X141050000Y-120600000D03*
D54*
X135824999Y-117819997D02*
X135824999Y-121055001D01*
X134796952Y-116791950D02*
X135824999Y-117819997D01*
X134056948Y-116791950D02*
X134796952Y-116791950D01*
X136169998Y-121400000D02*
X136800000Y-121400000D01*
X132700000Y-115435002D02*
X134056948Y-116791950D01*
X132700000Y-114500000D02*
X132700000Y-115435002D01*
X135824999Y-121055001D02*
X136169998Y-121400000D01*
X132700000Y-114500000D02*
X133900000Y-114500000D01*
X110700000Y-108700000D02*
X110550000Y-108550000D01*
X110700000Y-109700000D02*
X110700000Y-108700000D01*
X110550000Y-108550000D02*
X110174990Y-108550000D01*
X148112293Y-114900000D02*
X148137060Y-114875233D01*
X147375000Y-114900000D02*
X148112293Y-114900000D01*
X135453999Y-77050000D02*
X135403912Y-76999913D01*
X136075000Y-77050000D02*
X135453999Y-77050000D01*
X134779445Y-115500000D02*
X134844980Y-115565535D01*
X133900000Y-115500000D02*
X134779445Y-115500000D01*
X134844980Y-115565535D02*
X135144979Y-115865534D01*
X129386939Y-112736939D02*
X129263061Y-112736939D01*
X129500000Y-113400000D02*
X129500000Y-112850000D01*
X129500000Y-112850000D02*
X129386939Y-112736939D01*
X137325000Y-114549990D02*
X137300000Y-114574990D01*
X137258046Y-115541954D02*
X137258046Y-115600729D01*
X137258046Y-115600729D02*
X137258046Y-116024993D01*
X137475000Y-115325000D02*
X137258046Y-115541954D01*
X137325000Y-113450000D02*
X137325000Y-114549990D01*
X140250000Y-115950000D02*
X140600000Y-116300000D01*
X140600000Y-116300000D02*
X141050000Y-116300000D01*
X141050000Y-116300000D02*
X141400000Y-116650000D01*
X151700000Y-122000000D02*
X151700000Y-123150000D01*
X151700000Y-123150000D02*
X152063114Y-123513114D01*
X152063114Y-123513114D02*
X152258025Y-123513114D01*
X155450000Y-119950000D02*
X156350000Y-119950000D01*
X146950000Y-123800000D02*
X146841948Y-123908052D01*
X148200000Y-123800000D02*
X146950000Y-123800000D01*
X146841948Y-123908052D02*
X146541949Y-124208051D01*
X135100000Y-119150000D02*
X135100000Y-120050000D01*
X129475000Y-118050000D02*
X128800000Y-118050000D01*
X128800000Y-118050000D02*
X128750000Y-118000000D01*
X150350000Y-116900000D02*
X149950000Y-116900000D01*
X149950000Y-116900000D02*
X149600000Y-116550000D01*
X154100000Y-118000000D02*
X154100000Y-116850000D01*
X154100000Y-116850000D02*
X154400000Y-116550000D01*
X147200000Y-131850000D02*
X148000000Y-131850000D01*
X148000000Y-131850000D02*
X148050000Y-131900000D01*
X141700000Y-118100000D02*
X141700000Y-119350000D01*
X141700000Y-119350000D02*
X141750000Y-119400000D01*
X149850000Y-123500000D02*
X150350000Y-123500000D01*
X150350000Y-123500000D02*
X150650000Y-123800000D01*
X142800000Y-130850000D02*
X143050000Y-130850000D01*
X143050000Y-130850000D02*
X143600000Y-131400000D01*
X142500000Y-129500000D02*
X142500000Y-128250000D01*
X142500000Y-128250000D02*
X142550000Y-128200000D01*
X135450000Y-126250000D02*
X135000000Y-126250000D01*
X135000000Y-126250000D02*
X134700000Y-126550000D01*
X129475000Y-123950000D02*
X129475000Y-125100000D01*
X129475000Y-125100000D02*
X129625000Y-125250000D01*
X130775000Y-123950000D02*
X130775000Y-125225000D01*
X130775000Y-125225000D02*
X130800000Y-125250000D01*
X132725000Y-123950000D02*
X132725000Y-125275000D01*
X132725000Y-125275000D02*
X132750000Y-125300000D01*
X135450000Y-124100000D02*
X135100002Y-124100000D01*
X135100002Y-124100000D02*
X134750002Y-124450000D01*
X136800000Y-123800000D02*
X138100000Y-123800000D01*
X127413702Y-115687292D02*
X127613702Y-115687292D01*
X127613702Y-115687292D02*
X128113702Y-115187292D01*
X165950000Y-75800000D02*
X165350000Y-75800000D01*
X165350000Y-75800000D02*
X165150000Y-76000000D01*
X166050000Y-77050000D02*
X165575000Y-77050000D01*
X165575000Y-77050000D02*
X165350000Y-76825000D01*
X151325000Y-114575000D02*
X151300000Y-114600000D01*
X151325000Y-113450000D02*
X151325000Y-114575000D01*
X135975000Y-75800000D02*
X135925000Y-75800000D01*
X135349990Y-75224990D02*
X135200000Y-75224990D01*
X135925000Y-75800000D02*
X135349990Y-75224990D01*
X120295622Y-75800000D02*
X120149891Y-75654269D01*
X120950000Y-75800000D02*
X120295622Y-75800000D01*
X141000000Y-114900000D02*
X141200000Y-114700000D01*
X140375000Y-114900000D02*
X141000000Y-114900000D01*
X164000000Y-129400000D02*
X164000000Y-130000000D01*
X176700000Y-106450000D02*
X176700000Y-105800000D01*
X176700000Y-105800000D02*
X175800000Y-104900000D01*
X176700000Y-106450000D02*
X175699998Y-106450000D01*
X176700000Y-106450000D02*
X176700000Y-107200000D01*
X176700000Y-107200000D02*
X175850000Y-108050000D01*
X165975000Y-65775000D02*
X165225000Y-65775000D01*
X165225000Y-65775000D02*
X165200000Y-65800000D01*
X167250000Y-67200000D02*
X166500000Y-67200000D01*
X170950000Y-68550000D02*
X171550000Y-68550000D01*
X171550000Y-68550000D02*
X171600000Y-68500000D01*
X170950000Y-74450000D02*
X170950000Y-75350000D01*
X170950000Y-75350000D02*
X171200000Y-75600000D01*
X172675000Y-65775000D02*
X173375000Y-65775000D01*
X173375000Y-65775000D02*
X173400000Y-65800000D01*
X156550000Y-68550000D02*
X156600000Y-68500000D01*
X155950000Y-68550000D02*
X156550000Y-68550000D01*
X141550000Y-68550000D02*
X141600000Y-68500000D01*
X140950000Y-68550000D02*
X141550000Y-68550000D01*
X126550000Y-68550000D02*
X126600000Y-68500000D01*
X125950000Y-68550000D02*
X126550000Y-68550000D01*
X157675000Y-65775000D02*
X158325000Y-65775000D01*
X158325000Y-65775000D02*
X158400000Y-65700000D01*
X150975000Y-65775000D02*
X150275000Y-65775000D01*
X150275000Y-65775000D02*
X150200000Y-65700000D01*
X152250000Y-67200000D02*
X151550000Y-67200000D01*
X151550000Y-67200000D02*
X151500000Y-67150000D01*
X155950000Y-74450000D02*
X155950000Y-75425000D01*
X155950000Y-75425000D02*
X156125000Y-75600000D01*
X151050000Y-77050000D02*
X150232704Y-77050000D01*
X150232704Y-77050000D02*
X150228867Y-77053837D01*
X150950000Y-75800000D02*
X150199992Y-75800000D01*
X137250000Y-67200000D02*
X136500000Y-67200000D01*
X135975000Y-65775000D02*
X135325000Y-65775000D01*
X135325000Y-65775000D02*
X135300000Y-65800000D01*
X142675000Y-65775000D02*
X143375000Y-65775000D01*
X143375000Y-65775000D02*
X143400000Y-65800000D01*
X140950000Y-74450000D02*
X140950000Y-75550000D01*
X140950000Y-75550000D02*
X141000000Y-75600000D01*
X120975000Y-65775000D02*
X120225000Y-65775000D01*
X120225000Y-65775000D02*
X120200000Y-65800000D01*
X122250000Y-67200000D02*
X121500000Y-67200000D01*
X127675000Y-65775000D02*
X128375000Y-65775000D01*
X128375000Y-65775000D02*
X128400000Y-65800000D01*
X125950000Y-74450000D02*
X125950000Y-75550000D01*
X125950000Y-75550000D02*
X125900000Y-75600000D01*
X121500000Y-123000000D02*
X121500000Y-124000000D01*
X125700000Y-119000000D02*
X126800000Y-119000000D01*
X125700000Y-111600000D02*
X126800000Y-111600000D01*
X162725000Y-107550000D02*
X162350000Y-107550000D01*
X162350000Y-107550000D02*
X162100000Y-107300000D01*
X155725000Y-107550000D02*
X155450000Y-107550000D01*
X155450000Y-107550000D02*
X155200000Y-107300000D01*
X148725000Y-107550000D02*
X148350000Y-107550000D01*
X148350000Y-107550000D02*
X148100000Y-107300000D01*
X141725000Y-107550000D02*
X141350000Y-107550000D01*
X141350000Y-107550000D02*
X141100000Y-107300000D01*
X134725000Y-107550000D02*
X134350000Y-107550000D01*
X134350000Y-107550000D02*
X134100000Y-107300000D01*
X162800000Y-120000000D02*
X162800000Y-120600000D01*
X156050000Y-117550000D02*
X156050000Y-118400000D01*
X156050000Y-118400000D02*
X156300000Y-118650000D01*
X171110000Y-112590000D02*
X171110000Y-113490000D01*
X171110000Y-113490000D02*
X171100000Y-113500000D01*
X174300000Y-112135000D02*
X175485000Y-112135000D01*
X175485000Y-112135000D02*
X175500000Y-112150000D01*
X178515000Y-110865000D02*
X178500000Y-110850000D01*
X179700000Y-110865000D02*
X178515000Y-110865000D01*
X178535000Y-112135000D02*
X178500000Y-112100000D01*
X179700000Y-112135000D02*
X178535000Y-112135000D01*
X111700000Y-123000000D02*
X111700000Y-123900000D01*
X111700000Y-123900000D02*
X111600000Y-124000000D01*
X150550000Y-127700000D02*
X150550000Y-127000000D01*
X162177056Y-127447056D02*
X162177056Y-126422944D01*
X162177056Y-126422944D02*
X162200000Y-126400000D01*
X154217056Y-127447056D02*
X154217056Y-126432944D01*
X154217056Y-126432944D02*
X154250000Y-126400000D01*
X156050000Y-122500000D02*
X155500000Y-122500000D01*
X155500000Y-122500000D02*
X155300000Y-122700000D01*
X168375000Y-114900000D02*
X169050000Y-114900000D01*
X169050000Y-114900000D02*
X169100000Y-114850000D01*
X165325000Y-113450000D02*
X165325000Y-114575000D01*
X165325000Y-114575000D02*
X165300000Y-114600000D01*
X161375000Y-114900000D02*
X162200000Y-114900000D01*
X155099996Y-114900000D02*
X155100000Y-114900004D01*
X154375000Y-114900000D02*
X155099996Y-114900000D01*
X158325000Y-113450000D02*
X158325000Y-114575000D01*
X158325000Y-114575000D02*
X158350000Y-114600000D01*
X144325000Y-113450000D02*
X144325000Y-114575000D01*
X144325000Y-114575000D02*
X144300000Y-114600000D01*
X177900000Y-74650000D02*
X175750000Y-74650000D01*
X175750000Y-74650000D02*
X176300000Y-74650000D01*
X176300000Y-74650000D02*
X177200000Y-75550000D01*
X175750000Y-75550000D02*
X175750000Y-74650000D01*
X173600000Y-74650000D02*
X175750000Y-74650000D01*
X175750000Y-74650000D02*
X175200000Y-74650000D01*
X175200000Y-74650000D02*
X174300000Y-75550000D01*
X134150000Y-120300001D02*
X134449999Y-120600000D01*
X134449999Y-120600000D02*
X134569998Y-120600000D01*
X134569998Y-120600000D02*
X136169998Y-122200000D01*
X136169998Y-122200000D02*
X136800000Y-122200000D01*
X129500000Y-114500000D02*
X130800000Y-114500000D01*
X154100000Y-122000000D02*
X153785002Y-122000000D01*
X153785002Y-122000000D02*
X152560001Y-120774999D01*
X152560001Y-120774999D02*
X150839999Y-120774999D01*
X150839999Y-120774999D02*
X149175001Y-122439997D01*
X149175001Y-122439997D02*
X149175001Y-122655001D01*
X149175001Y-122655001D02*
X148830002Y-123000000D01*
X148830002Y-123000000D02*
X148200000Y-123000000D01*
X155450000Y-121050000D02*
X155050000Y-121050000D01*
X155050000Y-121050000D02*
X154100000Y-122000000D01*
X151700000Y-118000000D02*
X151700000Y-119330002D01*
X151700000Y-119330002D02*
X148830002Y-122200000D01*
X148830002Y-122200000D02*
X148200000Y-122200000D01*
X150350000Y-118000000D02*
X151700000Y-118000000D01*
X152075000Y-65775000D02*
X153325000Y-65775000D01*
X153325000Y-65775000D02*
X153325000Y-63400000D01*
X154000000Y-68550000D02*
X154000000Y-66450000D01*
X154000000Y-66450000D02*
X153325000Y-65775000D01*
X155325000Y-65775000D02*
X156575000Y-65775000D01*
X155325000Y-65775000D02*
X155325000Y-63400000D01*
X154650000Y-68550000D02*
X154650000Y-66450000D01*
X154650000Y-66450000D02*
X155325000Y-65775000D01*
X135450000Y-125150000D02*
X136000000Y-124600000D01*
X136000000Y-124600000D02*
X136800000Y-124600000D01*
X168325000Y-65775000D02*
X168325000Y-63400000D01*
X167075000Y-65775000D02*
X168325000Y-65775000D01*
X169000000Y-68550000D02*
X169000000Y-66450000D01*
X169000000Y-66450000D02*
X168325000Y-65775000D01*
X170325000Y-65775000D02*
X170325000Y-63400000D01*
X170325000Y-65775000D02*
X171575000Y-65775000D01*
X169650000Y-68550000D02*
X169650000Y-66450000D01*
X169650000Y-66450000D02*
X170325000Y-65775000D01*
X174300000Y-113405000D02*
X174300000Y-114900000D01*
X149850000Y-124600000D02*
X150700000Y-124600000D01*
X121150000Y-74950000D02*
X121150000Y-74850000D01*
X122000000Y-75800000D02*
X121150000Y-74950000D01*
X122050000Y-75800000D02*
X122000000Y-75800000D01*
X143050000Y-116650000D02*
X143152486Y-116752486D01*
X143152486Y-116752486D02*
X143152486Y-116782838D01*
X142500000Y-116650000D02*
X143050000Y-116650000D01*
X135450000Y-123000000D02*
X135450000Y-122950000D01*
X135450000Y-122950000D02*
X134850000Y-122350000D01*
X134850000Y-122350000D02*
X134850000Y-122250000D01*
X141700000Y-130850000D02*
X141700000Y-131350000D01*
X141700000Y-131350000D02*
X141450000Y-131600000D01*
X137450000Y-131850000D02*
X136700000Y-131850000D01*
X136700000Y-131850000D02*
X136550000Y-132000000D01*
X142500000Y-116650000D02*
X142500000Y-118100000D01*
X148200000Y-124600000D02*
X149850000Y-124600000D01*
X141700000Y-130850000D02*
X141700000Y-129500000D01*
X135450000Y-123000000D02*
X136800000Y-123000000D01*
X125700000Y-116800000D02*
X127400994Y-116800000D01*
X127400994Y-116800000D02*
X127413702Y-116787292D01*
X127413702Y-116787292D02*
X127613702Y-116787292D01*
X127613702Y-116787292D02*
X128113702Y-116287292D01*
X114250000Y-91500000D02*
X113500000Y-91500000D01*
X113500000Y-91500000D02*
X112550000Y-92450000D01*
X114250000Y-91500000D02*
X113600000Y-91500000D01*
X113600000Y-91500000D02*
X112550000Y-90450000D01*
X114250000Y-91500000D02*
X112450000Y-91500000D01*
X151450000Y-130000000D02*
X152000000Y-130000000D01*
X152000000Y-130000000D02*
X152050000Y-129950000D01*
X152050000Y-126700000D02*
X152050000Y-126000000D01*
X171110000Y-109590000D02*
X171260000Y-109590000D01*
X171260000Y-109590000D02*
X172100000Y-108750000D01*
X171110000Y-109590000D02*
X170940000Y-109590000D01*
X170940000Y-109590000D02*
X170100000Y-108750000D01*
X171110000Y-109590000D02*
X171110000Y-108710000D01*
X171110000Y-108710000D02*
X171100000Y-108700000D01*
X174300000Y-110865000D02*
X171635000Y-110865000D01*
X171635000Y-110865000D02*
X171110000Y-110340000D01*
X171110000Y-110340000D02*
X171110000Y-109590000D01*
X174295000Y-109590000D02*
X174300000Y-109595000D01*
X171110000Y-109590000D02*
X174295000Y-109590000D01*
X175400000Y-114900000D02*
X176000000Y-114900000D01*
X176000000Y-114900000D02*
X176100000Y-115000000D01*
X170595000Y-85040000D02*
X170595000Y-86045000D01*
X170595000Y-86045000D02*
X170800000Y-86250000D01*
X171865000Y-85040000D02*
X171865000Y-86015000D01*
X171865000Y-86015000D02*
X172100000Y-86250000D01*
X173135000Y-85040000D02*
X173135000Y-86135000D01*
X173135000Y-86135000D02*
X173250000Y-86250000D01*
X174405000Y-85040000D02*
X174405000Y-86155000D01*
X174405000Y-86155000D02*
X174500000Y-86250000D01*
X123350000Y-68550000D02*
X123350000Y-69650000D01*
X123350000Y-69650000D02*
X123300000Y-69700000D01*
X122050000Y-75800000D02*
X122050000Y-74450000D01*
X123350000Y-67200000D02*
X123350000Y-68550000D01*
X123325000Y-65775000D02*
X123325000Y-65900000D01*
X124000000Y-66575000D02*
X124000000Y-68550000D01*
X123325000Y-65900000D02*
X124000000Y-66575000D01*
X122075000Y-65775000D02*
X123325000Y-65775000D01*
X123325000Y-65775000D02*
X123325000Y-63400000D01*
X130775000Y-118050000D02*
X130775000Y-119975000D01*
X131100001Y-120300001D02*
X131400000Y-120600000D01*
X130775000Y-119975000D02*
X131100001Y-120300001D01*
X149750000Y-125600000D02*
X149750000Y-128500000D01*
X149750000Y-128500000D02*
X150050000Y-128800000D01*
X150050000Y-128800000D02*
X150550000Y-128800000D01*
X149750000Y-125600000D02*
X148400000Y-125600000D01*
X148400000Y-125600000D02*
X148200000Y-125400000D01*
X150550000Y-128800000D02*
X150550000Y-128775000D01*
X150550000Y-130000000D02*
X150550000Y-128800000D01*
X150550000Y-128800000D02*
X152050000Y-128800000D01*
X150547056Y-131937056D02*
X150547056Y-130002944D01*
X150547056Y-130002944D02*
X150550000Y-130000000D01*
X153549999Y-123749998D02*
X153250000Y-123449999D01*
X158300001Y-128500000D02*
X153549999Y-123749998D01*
X164000000Y-128500000D02*
X158300001Y-128500000D01*
X148200000Y-120600000D02*
X148900000Y-120600000D01*
X148900000Y-120600000D02*
X149500000Y-120000000D01*
X164000000Y-128500000D02*
X164185002Y-128500000D01*
X164185002Y-128500000D02*
X164950000Y-129264998D01*
X164950000Y-129264998D02*
X164950000Y-130350000D01*
X164950000Y-130350000D02*
X164450000Y-130850000D01*
X164450000Y-130850000D02*
X164450000Y-130900000D01*
X164000000Y-128500000D02*
X164000000Y-127550000D01*
X164000000Y-127550000D02*
X163950000Y-127500000D01*
X147525013Y-118774264D02*
X147525013Y-118350000D01*
X147525013Y-118999977D02*
X147525013Y-118774264D01*
X145700000Y-129500000D02*
X145700000Y-120824990D01*
X145700000Y-120824990D02*
X147525013Y-118999977D01*
X135375000Y-114497780D02*
X135157257Y-114715523D01*
X136050000Y-115199274D02*
X136050000Y-114775010D01*
X136100000Y-115250000D02*
X136050000Y-115200000D01*
X136550000Y-115250000D02*
X136100000Y-115250000D01*
X136050000Y-115200000D02*
X136050000Y-115199274D01*
X135375000Y-113450000D02*
X135375000Y-114497780D01*
X167275000Y-114900000D02*
X166600000Y-114900000D01*
X166600000Y-114900000D02*
X166550000Y-114950000D01*
X115900000Y-93350000D02*
X117574990Y-93350000D01*
X115900000Y-94650000D02*
X117574990Y-94650000D01*
X114250000Y-94000000D02*
X117574990Y-94000000D01*
X115250000Y-94000000D02*
X115900000Y-93350000D01*
X115250000Y-94000000D02*
X115900000Y-94650000D01*
X139275000Y-113450000D02*
X139275000Y-112325000D01*
X139275000Y-112325000D02*
X139250000Y-112300000D01*
X139275000Y-113450000D02*
X139275000Y-114900000D01*
X142375000Y-113450000D02*
X142375000Y-112275000D01*
X142375000Y-112275000D02*
X142350000Y-112250000D01*
X146275000Y-114900000D02*
X145600000Y-114900000D01*
X146275000Y-114900000D02*
X146275000Y-113450000D01*
X149375000Y-113450000D02*
X149375000Y-114575000D01*
X149375000Y-114575000D02*
X149350000Y-114600000D01*
X156375000Y-113450000D02*
X156375000Y-114575000D01*
X156375000Y-114575000D02*
X156400000Y-114600000D01*
X153275000Y-114900000D02*
X152600000Y-114900000D01*
X153275000Y-113450000D02*
X153275000Y-114900000D01*
X160275000Y-114900000D02*
X159550000Y-114900000D01*
X160275000Y-114900000D02*
X160275000Y-113450000D01*
X163375000Y-113450000D02*
X163375000Y-114375000D01*
X163375000Y-114375000D02*
X163150000Y-114600000D01*
X167275000Y-113450000D02*
X167275000Y-114900000D01*
X166000000Y-122500000D02*
X166000000Y-120605000D01*
X166000000Y-120605000D02*
X163975001Y-118580001D01*
X163975001Y-118580001D02*
X163975001Y-114825001D01*
X163975001Y-114825001D02*
X163950000Y-114800000D01*
X164000000Y-120600000D02*
X164000000Y-120650000D01*
X164000000Y-120650000D02*
X165850000Y-122500000D01*
X165850000Y-122500000D02*
X166000000Y-122500000D01*
X164450000Y-132000000D02*
X166000000Y-132000000D01*
X173960000Y-132000000D02*
X173960000Y-131100000D01*
X173960000Y-131100000D02*
X174960001Y-130099999D01*
X174960001Y-130099999D02*
X174960001Y-124400001D01*
X174960001Y-124400001D02*
X173960000Y-123400000D01*
X173960000Y-123400000D02*
X173960000Y-122500000D01*
X166000000Y-122500000D02*
X173960000Y-122500000D01*
X166000000Y-132000000D02*
X173960000Y-132000000D01*
X175300000Y-90000000D02*
X175300000Y-89350000D01*
X175300000Y-89350000D02*
X175074999Y-89124999D01*
X175074999Y-89124999D02*
X167125001Y-89124999D01*
X167125001Y-89124999D02*
X167100000Y-89150000D01*
X182300000Y-93350000D02*
X177250000Y-88300000D01*
X177250000Y-88300000D02*
X167150000Y-88300000D01*
X167150000Y-88300000D02*
X167100000Y-88350000D01*
X182300000Y-94000000D02*
X182300000Y-93350000D01*
X175300000Y-94000000D02*
X175300000Y-90000000D01*
X175300000Y-98000000D02*
X175300000Y-94000000D01*
X175300000Y-102000000D02*
X175300000Y-98000000D01*
X182300000Y-98000000D02*
X182300000Y-94000000D01*
X182300000Y-102000000D02*
X182300000Y-98000000D01*
X114250000Y-94000000D02*
X115300000Y-94000000D01*
X114250000Y-94000000D02*
X115250000Y-94000000D01*
X152250000Y-119550000D02*
X152674264Y-119550000D01*
X152674264Y-119550000D02*
X152949263Y-119275001D01*
X152949263Y-119275001D02*
X162074999Y-119275001D01*
X162074999Y-119275001D02*
X162250000Y-119100000D01*
X162250000Y-119100000D02*
X162800000Y-119100000D01*
X148200000Y-121400000D02*
X148887538Y-121400000D01*
X148887538Y-121400000D02*
X150643769Y-119643769D01*
X162800000Y-119100000D02*
X163600000Y-119100000D01*
X163600000Y-119100000D02*
X164000000Y-119500000D01*
X162800000Y-119100000D02*
X162800000Y-118850000D01*
X162800000Y-118850000D02*
X163550000Y-118100000D01*
X140400000Y-128100000D02*
X140200000Y-128300000D01*
X140200000Y-128300000D02*
X140200000Y-129400000D01*
X140200000Y-129400000D02*
X140100000Y-129500000D01*
X146550000Y-125075000D02*
X146250001Y-125374999D01*
X146250001Y-127949999D02*
X146250000Y-127950000D01*
X146250001Y-125374999D02*
X146250001Y-127949999D01*
X146075001Y-109100000D02*
X146075001Y-111869999D01*
X146455002Y-112250000D02*
X146550000Y-112250000D01*
X146075001Y-111869999D02*
X146455002Y-112250000D01*
X137075000Y-75800000D02*
X137641598Y-75800000D01*
X137641598Y-75800000D02*
X137736059Y-75894461D01*
X170595000Y-79960000D02*
X170595000Y-79145000D01*
X170595000Y-79145000D02*
X170050000Y-78600000D01*
X138350000Y-68550000D02*
X138350000Y-69600000D01*
X138350000Y-69600000D02*
X138300000Y-69650000D01*
X138100000Y-77050000D02*
X138450000Y-76700000D01*
X136975000Y-77050000D02*
X138100000Y-77050000D01*
X137075000Y-75800000D02*
X137075000Y-74475000D01*
X137075000Y-74475000D02*
X137050000Y-74450000D01*
X138350000Y-68550000D02*
X138350000Y-67200000D01*
X133750001Y-74200001D02*
X134050000Y-74500000D01*
X122596991Y-70547999D02*
X123874999Y-70547999D01*
X129824999Y-70274999D02*
X133750001Y-74200001D01*
X124147999Y-70274999D02*
X129824999Y-70274999D01*
X123874999Y-70547999D02*
X124147999Y-70274999D01*
X117444990Y-75700000D02*
X122596991Y-70547999D01*
X112600000Y-75700000D02*
X117444990Y-75700000D01*
X139300000Y-129500000D02*
X139300000Y-128869998D01*
X138955001Y-128524999D02*
X138044999Y-128524999D01*
X135700000Y-130869998D02*
X135700000Y-132375000D01*
X138044999Y-128524999D02*
X135700000Y-130869998D01*
X139300000Y-128869998D02*
X138955001Y-128524999D01*
X153350000Y-68550000D02*
X153350000Y-69650000D01*
X171865000Y-79960000D02*
X171865000Y-79115000D01*
X171865000Y-79115000D02*
X171350000Y-78600000D01*
X151950000Y-77050000D02*
X152900000Y-77050000D01*
X152900000Y-77050000D02*
X153250000Y-76700000D01*
X152600000Y-75800000D02*
X152800004Y-76000004D01*
X152050000Y-75800000D02*
X152600000Y-75800000D01*
X152800004Y-76000004D02*
X152800004Y-76100000D01*
X152050000Y-75800000D02*
X152050000Y-74450000D01*
X153350000Y-67200000D02*
X153350000Y-68550000D01*
X142350000Y-131700001D02*
X141825000Y-132225001D01*
X141825000Y-132225001D02*
X140855003Y-132225001D01*
X140855003Y-132225001D02*
X139105003Y-130475001D01*
X139105003Y-130475001D02*
X138844999Y-130475001D01*
X138844999Y-130475001D02*
X138500000Y-130130002D01*
X138500000Y-130130002D02*
X138500000Y-129500000D01*
X152950000Y-128700000D02*
X152950000Y-130072464D01*
X152950000Y-130072464D02*
X152319069Y-130703395D01*
X168350000Y-68550000D02*
X168350000Y-69700000D01*
X173135000Y-79960000D02*
X173135000Y-79085000D01*
X173135000Y-79085000D02*
X172650000Y-78600000D01*
X166950000Y-77050000D02*
X167850000Y-77050000D01*
X167850000Y-77050000D02*
X168200000Y-76700000D01*
X167750000Y-75950000D02*
X167750000Y-76100000D01*
X167600000Y-75800000D02*
X167750000Y-75950000D01*
X167050000Y-75800000D02*
X167600000Y-75800000D01*
X167050000Y-75800000D02*
X167050000Y-74450000D01*
X168350000Y-67200000D02*
X168350000Y-68550000D01*
X134025000Y-118050000D02*
X134025000Y-119647999D01*
X134025000Y-119647999D02*
X133624999Y-120048000D01*
X133624999Y-120048000D02*
X133624999Y-122125001D01*
X133624999Y-122125001D02*
X133250000Y-122500000D01*
X140900000Y-129500000D02*
X140900000Y-130550000D01*
X140900000Y-130550000D02*
X140550000Y-130900000D01*
X134025000Y-118050000D02*
X135100000Y-118050000D01*
X160800000Y-122500000D02*
X160800000Y-121350000D01*
X160800000Y-121350000D02*
X160450000Y-121000000D01*
X160800000Y-123500000D02*
X160800000Y-122500000D01*
X175110001Y-81715001D02*
X175110001Y-85640003D01*
X175110001Y-85640003D02*
X181569998Y-92100000D01*
X174405000Y-81010000D02*
X175110001Y-81715001D01*
X181569998Y-92100000D02*
X182200000Y-92100000D01*
X174405000Y-79960000D02*
X174405000Y-81010000D01*
D55*
X179700000Y-113405000D02*
X180175000Y-113405000D01*
X180175000Y-113405000D02*
X180975000Y-112605000D01*
X180975000Y-112605000D02*
X180975000Y-110395000D01*
X180975000Y-110395000D02*
X180175000Y-109595000D01*
X180175000Y-109595000D02*
X179700000Y-109595000D01*
X179700000Y-106450000D02*
X179700000Y-109595000D01*
X178750000Y-82000000D02*
X179375000Y-82000000D01*
X179375000Y-82000000D02*
X183150001Y-85775001D01*
X183150001Y-85775001D02*
X183150001Y-103999999D01*
X183150001Y-103999999D02*
X180700000Y-106450000D01*
X180700000Y-106450000D02*
X179700000Y-106450000D01*
D54*
X159200000Y-122500000D02*
X159200000Y-121350000D01*
X159200000Y-121350000D02*
X159550000Y-121000000D01*
X157950000Y-122500000D02*
X159200000Y-122500000D01*
X149102005Y-115924999D02*
X147000001Y-118027003D01*
X159874999Y-115924999D02*
X149102005Y-115924999D01*
X147000001Y-119030001D02*
X138230002Y-127800000D01*
X138230002Y-127800000D02*
X137800000Y-127800000D01*
X160800000Y-116850000D02*
X159874999Y-115924999D01*
X137800000Y-127800000D02*
X136800000Y-127800000D01*
X160800000Y-117500000D02*
X160800000Y-116850000D01*
X147000001Y-118027003D02*
X147000001Y-119030001D01*
X157950000Y-117500000D02*
X159200000Y-117500000D01*
X172500000Y-90000000D02*
X173700000Y-90000000D01*
X172500000Y-94000000D02*
X173700000Y-94000000D01*
X172400000Y-98000000D02*
X173700000Y-98000000D01*
X172500000Y-102000000D02*
X173700000Y-102000000D01*
X179500000Y-94000000D02*
X180700000Y-94000000D01*
X179400000Y-98000000D02*
X180700000Y-98000000D01*
X179500000Y-102000000D02*
X180700000Y-102000000D01*
X145100000Y-131850000D02*
X144075002Y-131850000D01*
X143175002Y-132750000D02*
X140650000Y-132750000D01*
X144075002Y-131850000D02*
X143175002Y-132750000D01*
X140650000Y-132750000D02*
X139750000Y-131850000D01*
X139750000Y-131850000D02*
X139550000Y-131850000D01*
X148200000Y-127000000D02*
X147569998Y-127000000D01*
X147000001Y-127569997D02*
X147000001Y-130499999D01*
X147569998Y-127000000D02*
X147000001Y-127569997D01*
X147000001Y-130499999D02*
X145650000Y-131850000D01*
X145650000Y-131850000D02*
X145100000Y-131850000D01*
X132099002Y-132900000D02*
X137950000Y-132900000D01*
X137950000Y-132900000D02*
X139000000Y-131850000D01*
X139000000Y-131850000D02*
X139550000Y-131850000D01*
X129000000Y-129000000D02*
X129000000Y-129800998D01*
X129000000Y-129800998D02*
X132099002Y-132900000D01*
X125700000Y-120100000D02*
X127000000Y-120100000D01*
X127000000Y-120100000D02*
X127575000Y-120675000D01*
D55*
X175750000Y-72650000D02*
X178000000Y-72650000D01*
X178650001Y-73300001D02*
X178650001Y-79414997D01*
X178000000Y-72650000D02*
X178650001Y-73300001D01*
X178650001Y-79414997D02*
X177000000Y-81064998D01*
X177000000Y-81064998D02*
X177000000Y-83375000D01*
X177000000Y-83375000D02*
X178125000Y-84500000D01*
X178125000Y-84500000D02*
X178750000Y-84500000D01*
D54*
X133224988Y-116899988D02*
X132872554Y-116899988D01*
X133375000Y-118050000D02*
X133375000Y-117050000D01*
X133375000Y-117050000D02*
X133224988Y-116899988D01*
X148150000Y-128750000D02*
X148150000Y-127850000D01*
X148150000Y-127850000D02*
X148200000Y-127800000D01*
X125700000Y-121200000D02*
X126900000Y-121200000D01*
X126900000Y-121200000D02*
X127050000Y-121350000D01*
X148200000Y-126200000D02*
X147200000Y-126200000D01*
X147200000Y-126200000D02*
X146800000Y-126600000D01*
X146800000Y-126600000D02*
X146800000Y-126825010D01*
X132500000Y-119475000D02*
X132500000Y-119800000D01*
X132075000Y-118050000D02*
X132075000Y-119050000D01*
X132075000Y-119050000D02*
X132500000Y-119475000D01*
X125700000Y-117900000D02*
X127924998Y-117900000D01*
X127924998Y-117900000D02*
X128849999Y-116974999D01*
X128849999Y-116974999D02*
X131999999Y-116974999D01*
X131999999Y-116974999D02*
X132075000Y-117050000D01*
X132075000Y-117050000D02*
X132075000Y-118050000D01*
X144390699Y-131278354D02*
X145194052Y-130475001D01*
X145194052Y-130475001D02*
X146155001Y-130475001D01*
X146155001Y-130475001D02*
X146500000Y-130130002D01*
X146500000Y-130130002D02*
X146500000Y-129500000D01*
X125350000Y-114600000D02*
X122844999Y-117105001D01*
X122844999Y-117105001D02*
X122844999Y-129516001D01*
X123403999Y-130075001D02*
X124436001Y-130075001D01*
X125700000Y-114600000D02*
X125350000Y-114600000D01*
X122844999Y-129516001D02*
X123403999Y-130075001D01*
X124436001Y-130075001D02*
X125384999Y-131023999D01*
X125384999Y-131023999D02*
X125384999Y-132056001D01*
X125384999Y-132056001D02*
X126579008Y-133250010D01*
X126579008Y-133250010D02*
X143449990Y-133250010D01*
X143449990Y-133250010D02*
X144150000Y-132550000D01*
X125300000Y-68550000D02*
X125300000Y-67174998D01*
X126150001Y-66660001D02*
X126150001Y-66650000D01*
X128475002Y-66650000D02*
X129025001Y-66100001D01*
X127325000Y-63400000D02*
X126825000Y-63400000D01*
X125300000Y-67174998D02*
X125749997Y-66725001D01*
X125749997Y-66725001D02*
X126085001Y-66725001D01*
X126085001Y-66725001D02*
X126150001Y-66660001D01*
X126150001Y-66650000D02*
X128475002Y-66650000D01*
X129025001Y-66100001D02*
X129025001Y-65100001D01*
X129025001Y-65100001D02*
X127325000Y-63400000D01*
D55*
X126825000Y-63400000D02*
X126825000Y-56025000D01*
X126825000Y-56025000D02*
X126075000Y-55275000D01*
X121825000Y-63400000D02*
X121825000Y-56025000D01*
X121825000Y-56025000D02*
X122575000Y-55275000D01*
X136825000Y-63350000D02*
X136825000Y-55975000D01*
X136825000Y-55975000D02*
X137575000Y-55225000D01*
D54*
X140300000Y-68550000D02*
X140300000Y-67575000D01*
X140274998Y-67549998D02*
X140274998Y-67099998D01*
X140274998Y-67099998D02*
X140599998Y-66774998D01*
X143350003Y-66774999D02*
X144025001Y-66100001D01*
X140599998Y-66774998D02*
X143350003Y-66774999D01*
X144025001Y-66100001D02*
X144025001Y-65050001D01*
X144025001Y-65050001D02*
X142325000Y-63350000D01*
X142325000Y-63350000D02*
X141825000Y-63350000D01*
X140300000Y-67575000D02*
X140274998Y-67549998D01*
D55*
X141825000Y-63350000D02*
X141825000Y-55975000D01*
X141825000Y-55975000D02*
X141075000Y-55225000D01*
X151825000Y-63400000D02*
X151825000Y-56025000D01*
X151825000Y-56025000D02*
X152575000Y-55275000D01*
D54*
X155300000Y-68550000D02*
X155300000Y-67575000D01*
X155300000Y-67575000D02*
X156524999Y-66350001D01*
X156524999Y-66350001D02*
X158675001Y-66350001D01*
X158675001Y-66350001D02*
X159025001Y-66000001D01*
X159025001Y-66000001D02*
X159025001Y-65100001D01*
X159025001Y-65100001D02*
X157325000Y-63400000D01*
X157325000Y-63400000D02*
X156825000Y-63400000D01*
D55*
X156825000Y-63400000D02*
X156825000Y-56025000D01*
X156825000Y-56025000D02*
X156075000Y-55275000D01*
D54*
X170300000Y-68550000D02*
X170300000Y-67575000D01*
X174025001Y-66100001D02*
X174025001Y-65100001D01*
X170300000Y-67575000D02*
X171449999Y-66425001D01*
X171449999Y-66425001D02*
X173700001Y-66425001D01*
X174025001Y-65100001D02*
X172325000Y-63400000D01*
X173700001Y-66425001D02*
X174025001Y-66100001D01*
X172325000Y-63400000D02*
X171825000Y-63400000D01*
D55*
X171825000Y-63400000D02*
X171825000Y-56025000D01*
X171825000Y-56025000D02*
X171075000Y-55275000D01*
X166825000Y-63400000D02*
X166825000Y-56025000D01*
X166825000Y-56025000D02*
X167575000Y-55275000D01*
D54*
X123920000Y-129000000D02*
X123920000Y-125380000D01*
X123920000Y-125380000D02*
X130125000Y-119175000D01*
X130125000Y-119175000D02*
X130125000Y-119050000D01*
X130125000Y-119050000D02*
X130125000Y-118050000D01*
X126460000Y-131540000D02*
X127660009Y-130339991D01*
X127660009Y-124889991D02*
X128924999Y-123625001D01*
X127660009Y-130339991D02*
X127660009Y-124889991D01*
X128924999Y-122953033D02*
X129903021Y-121975011D01*
X128924999Y-123625001D02*
X128924999Y-122953033D01*
X129903021Y-121975011D02*
X131696981Y-121975011D01*
X131696981Y-121975011D02*
X133150000Y-120521992D01*
X133150000Y-120521992D02*
X133150000Y-119475000D01*
X133150000Y-119475000D02*
X132725000Y-119050000D01*
X132725000Y-119050000D02*
X132725000Y-118050000D01*
X131425000Y-119797998D02*
X131425000Y-119050000D01*
X126460000Y-124867002D02*
X129702001Y-121625001D01*
X129702001Y-121625001D02*
X131402001Y-121625001D01*
X126460000Y-129000000D02*
X126460000Y-124867002D01*
X131425000Y-119050000D02*
X131425000Y-118050000D01*
X131402001Y-121625001D02*
X132025001Y-121002001D01*
X132025001Y-121002001D02*
X132025001Y-120397999D01*
X132025001Y-120397999D02*
X131425000Y-119797998D01*
X154217056Y-131947056D02*
X162177056Y-131947056D01*
X152447056Y-131937056D02*
X154207056Y-131937056D01*
X154207056Y-131937056D02*
X154217056Y-131947056D01*
X124740000Y-81950000D02*
X124740000Y-84650000D01*
X124740000Y-84650000D02*
X124730000Y-84660000D01*
X125705001Y-84538003D02*
X125705001Y-80715001D01*
X125040000Y-80050000D02*
X124740000Y-80050000D01*
X133650000Y-92483002D02*
X125705001Y-84538003D01*
X125705001Y-80715001D02*
X125040000Y-80050000D01*
X133650000Y-98100000D02*
X133650000Y-92483002D01*
X138625000Y-111100010D02*
X138300000Y-110775010D01*
X138625000Y-113450000D02*
X138625000Y-111100010D01*
X132300000Y-80150000D02*
X127375000Y-80150000D01*
X127375000Y-80150000D02*
X127275000Y-80050000D01*
X139275000Y-107550000D02*
X139275000Y-105937455D01*
X139275000Y-105937455D02*
X138640731Y-105303186D01*
X127275000Y-81950000D02*
X127275000Y-84655000D01*
X127275000Y-84655000D02*
X127270000Y-84660000D01*
X137722999Y-109452001D02*
X136925001Y-109452001D01*
X136925001Y-109452001D02*
X136602002Y-109775000D01*
X138625000Y-107550000D02*
X138625000Y-108550000D01*
X135274440Y-109775000D02*
X134823058Y-109323618D01*
X128943618Y-109323618D02*
X124730000Y-105110000D01*
X124730000Y-105110000D02*
X124730000Y-104510000D01*
X134823058Y-109323618D02*
X128943618Y-109323618D01*
X138625000Y-108550000D02*
X137722999Y-109452001D01*
X136602002Y-109775000D02*
X135274440Y-109775000D01*
X124730000Y-102610000D02*
X124730000Y-99900000D01*
X135129461Y-110125011D02*
X134678079Y-109673629D01*
X138358732Y-109558732D02*
X138067474Y-109849990D01*
X128253629Y-109673629D02*
X123090000Y-104510000D01*
X134678079Y-109673629D02*
X128253629Y-109673629D01*
X123090000Y-104510000D02*
X122190000Y-104510000D01*
X138067474Y-109849990D02*
X137122002Y-109849990D01*
X136846981Y-110125011D02*
X135129461Y-110125011D01*
X137122002Y-109849990D02*
X136846981Y-110125011D01*
X137975000Y-107550000D02*
X137975000Y-108457536D01*
X137975000Y-108457536D02*
X137691268Y-108741268D01*
X122190000Y-102610000D02*
X122190000Y-99900000D01*
X119650000Y-104510000D02*
X120550000Y-104510000D01*
X126238630Y-110198630D02*
X134001814Y-110198630D01*
X134001814Y-110198630D02*
X134426078Y-110198630D01*
X120550000Y-104510000D02*
X126238630Y-110198630D01*
X137325000Y-107550000D02*
X137325000Y-108225000D01*
X136599999Y-108950001D02*
X136499999Y-108950001D01*
X137325000Y-108225000D02*
X136599999Y-108950001D01*
X136499999Y-108950001D02*
X136200000Y-109250000D01*
X119650000Y-102610000D02*
X119650000Y-99900000D01*
X119650000Y-81950000D02*
X119650000Y-84660000D01*
X134750000Y-86650000D02*
X133325001Y-85225001D01*
X133325001Y-84025001D02*
X129925001Y-80625001D01*
X133325001Y-85225001D02*
X133325001Y-84025001D01*
X129925001Y-80625001D02*
X126444999Y-80625001D01*
X126444999Y-80625001D02*
X125615001Y-79795003D01*
X125615001Y-79795003D02*
X125615001Y-79519999D01*
X125615001Y-79519999D02*
X125570001Y-79474999D01*
X125570001Y-79474999D02*
X121125001Y-79474999D01*
X121125001Y-79474999D02*
X120550000Y-80050000D01*
X120550000Y-80050000D02*
X119650000Y-80050000D01*
X136675000Y-107550000D02*
X136675000Y-106450000D01*
X136675000Y-106450000D02*
X136650000Y-106425000D01*
X122190000Y-81950000D02*
X122190000Y-84660000D01*
X136025000Y-107550000D02*
X136025000Y-108280002D01*
X136025000Y-108280002D02*
X135680001Y-108625001D01*
X135680001Y-108625001D02*
X129369989Y-108625001D01*
X129369989Y-108625001D02*
X125705001Y-104960013D01*
X125705001Y-104960013D02*
X125705001Y-87655001D01*
X125705001Y-87655001D02*
X123165001Y-85115001D01*
X123165001Y-85115001D02*
X123165001Y-80725001D01*
X123165001Y-80725001D02*
X122490000Y-80050000D01*
X122490000Y-80050000D02*
X122190000Y-80050000D01*
X127270000Y-102610000D02*
X127270000Y-99900000D01*
X127270000Y-104510000D02*
X127270000Y-105110000D01*
X127270000Y-105110000D02*
X128634999Y-106474999D01*
X128634999Y-106474999D02*
X135299999Y-106474999D01*
X135299999Y-106474999D02*
X135375000Y-106550000D01*
X135375000Y-106550000D02*
X135375000Y-107550000D01*
X145625000Y-113450000D02*
X145625000Y-109125000D01*
X145625000Y-109125000D02*
X145550000Y-109050000D01*
X138750000Y-80050000D02*
X137420000Y-80050000D01*
X137420000Y-81950000D02*
X137420000Y-84650000D01*
X137420000Y-84650000D02*
X137430000Y-84660000D01*
X139970000Y-81950000D02*
X139970000Y-84660000D01*
X146275000Y-107550000D02*
X146275000Y-106819998D01*
X144890013Y-105435011D02*
X143925021Y-105435011D01*
X146275000Y-106819998D02*
X144890013Y-105435011D01*
X143925021Y-105435011D02*
X140945001Y-102454991D01*
X140945001Y-102454991D02*
X140945001Y-80725001D01*
X140945001Y-80725001D02*
X140270000Y-80050000D01*
X140270000Y-80050000D02*
X139970000Y-80050000D01*
X145625000Y-107550000D02*
X145625000Y-108197996D01*
X140950000Y-109700000D02*
X139725001Y-108475001D01*
X138320000Y-104510000D02*
X137420000Y-104510000D01*
X139725001Y-105670003D02*
X139094999Y-105040001D01*
X138710000Y-104510000D02*
X138320000Y-104510000D01*
X139094999Y-105040001D02*
X139094999Y-104894999D01*
X144627000Y-109700000D02*
X140950000Y-109700000D01*
X145625000Y-108197996D02*
X145024998Y-108797998D01*
X139725001Y-108475001D02*
X139725001Y-105670003D01*
X145024998Y-108797998D02*
X145024998Y-109302002D01*
X145024998Y-109302002D02*
X144627000Y-109700000D01*
X139094999Y-104894999D02*
X138710000Y-104510000D01*
X137420000Y-102610000D02*
X137420000Y-99910000D01*
X137420000Y-99910000D02*
X137430000Y-99900000D01*
X144499988Y-108828018D02*
X144499988Y-108895176D01*
X144975000Y-107550000D02*
X144975000Y-108353006D01*
X144975000Y-108353006D02*
X144499988Y-108828018D01*
X134040000Y-105300000D02*
X137300000Y-105300000D01*
X133250000Y-104510000D02*
X134040000Y-105300000D01*
X132350000Y-104510000D02*
X133250000Y-104510000D01*
X132350000Y-102610000D02*
X132350000Y-99900000D01*
X129810000Y-102610000D02*
X129810000Y-99900000D01*
X140250011Y-106574264D02*
X140250011Y-106150000D01*
X140250011Y-107635013D02*
X140250011Y-106574264D01*
X143568162Y-109050000D02*
X141664998Y-109050000D01*
X141664998Y-109050000D02*
X140250011Y-107635013D01*
X144325000Y-107550000D02*
X144325000Y-108293162D01*
X144325000Y-108293162D02*
X143568162Y-109050000D01*
X129810000Y-104510000D02*
X130710000Y-104510000D01*
X130710000Y-104510000D02*
X132100000Y-105900000D01*
X132100000Y-105900000D02*
X138250000Y-105900000D01*
X138250000Y-105900000D02*
X138300000Y-105950000D01*
X143675000Y-107550000D02*
X143675000Y-106315010D01*
X143675000Y-106315010D02*
X140544991Y-103185001D01*
X140544991Y-103185001D02*
X139139999Y-103185001D01*
X139139999Y-103185001D02*
X138405001Y-102450003D01*
X138405001Y-102450003D02*
X138405001Y-87078003D01*
X138405001Y-87078003D02*
X135865001Y-84538003D01*
X135865001Y-84538003D02*
X135865001Y-80725001D01*
X135865001Y-80725001D02*
X135190000Y-80050000D01*
X135190000Y-80050000D02*
X134890000Y-80050000D01*
X134890000Y-81950000D02*
X134890000Y-84660000D01*
X140775002Y-103910000D02*
X135790000Y-103910000D01*
X143025000Y-106159998D02*
X140775002Y-103910000D01*
X135190000Y-104510000D02*
X134890000Y-104510000D01*
X135790000Y-103910000D02*
X135190000Y-104510000D01*
X143025000Y-107550000D02*
X143025000Y-106159998D01*
X134890000Y-102610000D02*
X134890000Y-99900000D01*
X139970000Y-102610000D02*
X139970000Y-99900000D01*
X142375000Y-107550000D02*
X142375000Y-106615000D01*
X142375000Y-106615000D02*
X140270000Y-104510000D01*
X140270000Y-104510000D02*
X139970000Y-104510000D01*
X150880000Y-80050000D02*
X149980000Y-80050000D01*
X154100000Y-80234998D02*
X153340001Y-79474999D01*
X154100000Y-107019990D02*
X153834989Y-106754979D01*
X154100000Y-85143002D02*
X154084999Y-85128001D01*
X154084999Y-85128001D02*
X154084999Y-84191999D01*
X152625000Y-112450000D02*
X154100000Y-110975000D01*
X154084999Y-99431999D02*
X154100000Y-99416998D01*
X154100000Y-99416998D02*
X154100000Y-85143002D01*
X154084999Y-100368001D02*
X154084999Y-99431999D01*
X154100000Y-84176998D02*
X154100000Y-80234998D01*
X153834989Y-103835019D02*
X154100000Y-103570008D01*
X153834989Y-106754979D02*
X153834989Y-103835019D01*
X153340001Y-79474999D02*
X151455001Y-79474999D01*
X154100000Y-100383002D02*
X154084999Y-100368001D01*
X154100000Y-103570008D02*
X154100000Y-100383002D01*
X154100000Y-110975000D02*
X154100000Y-107019990D01*
X151455001Y-79474999D02*
X150880000Y-80050000D01*
X152625000Y-113450000D02*
X152625000Y-112450000D01*
X154084999Y-84191999D02*
X154100000Y-84176998D01*
X149980000Y-81950000D02*
X149980000Y-84660000D01*
X152510000Y-81950000D02*
X152510000Y-84650000D01*
X152510000Y-84650000D02*
X152520000Y-84660000D01*
X153275000Y-107550000D02*
X153275000Y-106550000D01*
X153275000Y-106550000D02*
X153400001Y-106424999D01*
X153400001Y-106424999D02*
X153400001Y-100463001D01*
X153400001Y-100463001D02*
X153495001Y-100368001D01*
X152810000Y-80050000D02*
X152510000Y-80050000D01*
X153495001Y-100368001D02*
X153495001Y-80735001D01*
X153495001Y-80735001D02*
X152810000Y-80050000D01*
X152625000Y-107550000D02*
X152625000Y-106865000D01*
X152625000Y-106865000D02*
X150270000Y-104510000D01*
X150270000Y-104510000D02*
X149970000Y-104510000D01*
X149970000Y-102610000D02*
X149970000Y-99910000D01*
X149970000Y-99910000D02*
X149980000Y-99900000D01*
X147440000Y-102610000D02*
X147440000Y-99900000D01*
X151975000Y-107550000D02*
X151975000Y-106819998D01*
X151975000Y-106819998D02*
X150240003Y-105085001D01*
X150240003Y-105085001D02*
X148915001Y-105085001D01*
X148915001Y-105085001D02*
X148340000Y-104510000D01*
X148340000Y-104510000D02*
X147440000Y-104510000D01*
X151325000Y-107550000D02*
X151325000Y-106819998D01*
X151325000Y-106819998D02*
X149940013Y-105435011D01*
X149940013Y-105435011D02*
X146725011Y-105435011D01*
X146725011Y-105435011D02*
X145800000Y-104510000D01*
X145800000Y-104510000D02*
X144900000Y-104510000D01*
X144900000Y-102610000D02*
X144900000Y-99900000D01*
X144900000Y-81950000D02*
X144900000Y-84660000D01*
X150074989Y-109150011D02*
X148861728Y-109150011D01*
X150675000Y-107550000D02*
X150675000Y-108550000D01*
X150675000Y-108550000D02*
X150074989Y-109150011D01*
X146100000Y-80250000D02*
X145100000Y-80250000D01*
X145100000Y-80250000D02*
X144900000Y-80050000D01*
X146464999Y-80735001D02*
X147150000Y-80050000D01*
X143924999Y-87625001D02*
X146464999Y-85085001D01*
X150025000Y-108550000D02*
X149949999Y-108625001D01*
X144069999Y-105085001D02*
X143924999Y-104940001D01*
X146725001Y-106619999D02*
X145190003Y-105085001D01*
X145190003Y-105085001D02*
X144069999Y-105085001D01*
X148239999Y-108625001D02*
X146725001Y-107110003D01*
X146464999Y-85085001D02*
X146464999Y-80735001D01*
X147150000Y-80050000D02*
X147450000Y-80050000D01*
X149949999Y-108625001D02*
X148239999Y-108625001D01*
X150025000Y-107550000D02*
X150025000Y-108550000D01*
X143924999Y-104940001D02*
X143924999Y-87625001D01*
X146725001Y-107110003D02*
X146725001Y-106619999D01*
X147450000Y-81950000D02*
X147450000Y-84650000D01*
X147450000Y-84650000D02*
X147440000Y-84660000D01*
X152525000Y-102610000D02*
X152525000Y-99905000D01*
X152525000Y-99905000D02*
X152520000Y-99900000D01*
X151400000Y-104500000D02*
X152515000Y-104500000D01*
X152515000Y-104500000D02*
X152525000Y-104510000D01*
X149375000Y-107550000D02*
X149375000Y-105985011D01*
X149375000Y-105985011D02*
X149350000Y-105960011D01*
X162680000Y-81950000D02*
X162680000Y-84660000D01*
X161704999Y-80725001D02*
X162380000Y-80050000D01*
X159625000Y-109025000D02*
X159475012Y-108875012D01*
X159625000Y-113450000D02*
X159625000Y-109025000D01*
X154200000Y-105085001D02*
X154229999Y-105085001D01*
X154229999Y-105085001D02*
X154184999Y-105040001D01*
X159475012Y-108875012D02*
X155490010Y-108875012D01*
X154200000Y-106625000D02*
X154200000Y-105085001D01*
X154184999Y-103979999D02*
X154229999Y-103934999D01*
X161704999Y-84538003D02*
X161704999Y-80725001D01*
X155490010Y-108875012D02*
X154574999Y-107960001D01*
X154574999Y-107960001D02*
X154574999Y-106999999D01*
X154574999Y-106999999D02*
X154200000Y-106625000D01*
X154184999Y-105040001D02*
X154184999Y-103979999D01*
X154229999Y-103934999D02*
X155140003Y-103934999D01*
X156624999Y-102450003D02*
X156624999Y-89618003D01*
X155140003Y-103934999D02*
X156624999Y-102450003D01*
X156624999Y-89618003D02*
X161704999Y-84538003D01*
X162380000Y-80050000D02*
X162680000Y-80050000D01*
X165220000Y-81950000D02*
X165220000Y-84660000D01*
X160275000Y-107550000D02*
X160275000Y-107025000D01*
X160275000Y-107025000D02*
X162214999Y-105085001D01*
X162214999Y-105085001D02*
X166050001Y-105085001D01*
X166050001Y-105085001D02*
X166195001Y-104940001D01*
X166195001Y-104940001D02*
X166195001Y-80725001D01*
X166195001Y-80725001D02*
X165520000Y-80050000D01*
X165520000Y-80050000D02*
X165220000Y-80050000D01*
X159625000Y-107550000D02*
X159625000Y-106550000D01*
X159625000Y-106550000D02*
X161675000Y-104500000D01*
X161675000Y-104500000D02*
X162680000Y-104500000D01*
X162680000Y-102600000D02*
X162680000Y-99900000D01*
X157600000Y-102610000D02*
X157600000Y-99900000D01*
X158975000Y-107550000D02*
X158975000Y-105585000D01*
X157900000Y-104510000D02*
X157600000Y-104510000D01*
X158975000Y-105585000D02*
X157900000Y-104510000D01*
X155960000Y-104510000D02*
X155060000Y-104510000D01*
X158325000Y-107550000D02*
X158325000Y-105725000D01*
X156535001Y-105085001D02*
X155960000Y-104510000D01*
X157685001Y-105085001D02*
X156535001Y-105085001D01*
X158325000Y-105725000D02*
X157685001Y-105085001D01*
X155060000Y-102610000D02*
X155060000Y-99900000D01*
X160140000Y-81950000D02*
X160140000Y-84660000D01*
X161400000Y-80100000D02*
X160190000Y-80100000D01*
X160190000Y-80100000D02*
X160140000Y-80050000D01*
X157675000Y-107550000D02*
X157675000Y-106325000D01*
X157675000Y-106325000D02*
X157650000Y-106300000D01*
X157025000Y-107550000D02*
X157025000Y-105635017D01*
X157025000Y-105635017D02*
X157000000Y-105610017D01*
X160150000Y-102610000D02*
X160150000Y-99910000D01*
X160150000Y-99910000D02*
X160140000Y-99900000D01*
X162864997Y-105610001D02*
X163900000Y-105610001D01*
X160624999Y-108525001D02*
X161474999Y-107675001D01*
X156375000Y-108280002D02*
X156619999Y-108525001D01*
X156375000Y-107550000D02*
X156375000Y-108280002D01*
X156619999Y-108525001D02*
X160624999Y-108525001D01*
X161474999Y-106999999D02*
X162864997Y-105610001D01*
X161474999Y-107675001D02*
X161474999Y-106999999D01*
X164100000Y-104500000D02*
X165210000Y-104500000D01*
X165210000Y-104500000D02*
X165220000Y-104510000D01*
X165220000Y-102610000D02*
X165220000Y-99900000D01*
X166625000Y-112313724D02*
X168975012Y-109963712D01*
X166625000Y-113450000D02*
X166625000Y-112313724D01*
X168975012Y-109963712D02*
X169275011Y-109663713D01*
X169850000Y-90050000D02*
X170550000Y-90050000D01*
X170550000Y-90050000D02*
X170600000Y-90000000D01*
X167275000Y-107550000D02*
X167275000Y-96725000D01*
X170000000Y-94000000D02*
X170600000Y-94000000D01*
X167275000Y-96725000D02*
X170000000Y-94000000D01*
X166625000Y-108280002D02*
X166869999Y-108525001D01*
X170024999Y-99375001D02*
X170500000Y-98900000D01*
X170024999Y-105535021D02*
X170024999Y-99375001D01*
X166869999Y-108525001D02*
X167680001Y-108525001D01*
X167725001Y-108480001D02*
X167725002Y-107935018D01*
X170500000Y-98900000D02*
X170500000Y-98000000D01*
X170024996Y-105635024D02*
X170024999Y-105535021D01*
X167725002Y-107935018D02*
X170024996Y-105635024D01*
X166625000Y-107550000D02*
X166625000Y-108280002D01*
X167680001Y-108525001D02*
X167725001Y-108480001D01*
X165975000Y-108550000D02*
X166300010Y-108875010D01*
X165975000Y-107550000D02*
X165975000Y-108550000D01*
X170600000Y-105555010D02*
X170600000Y-102000000D01*
X168075011Y-108624979D02*
X168075012Y-108079998D01*
X167824981Y-108875011D02*
X168075011Y-108624979D01*
X168075012Y-108079998D02*
X170600000Y-105555010D01*
X166300010Y-108875010D02*
X167824981Y-108875011D01*
X165325000Y-107550000D02*
X165325000Y-108550000D01*
X165325000Y-108550000D02*
X166000020Y-109225020D01*
X166000020Y-109225020D02*
X167969962Y-109225021D01*
X173805010Y-102850000D02*
X175655000Y-102850000D01*
X175655000Y-102850000D02*
X176100000Y-102405000D01*
X167969962Y-109225021D02*
X168425022Y-108769957D01*
X176100000Y-102405000D02*
X176100000Y-96400000D01*
X168425022Y-108769957D02*
X168425022Y-108229988D01*
X168425022Y-108229988D02*
X173805010Y-102850000D01*
X176100000Y-96400000D02*
X177600000Y-94900000D01*
X177600000Y-94900000D02*
X177600000Y-94000000D01*
X173949989Y-103200011D02*
X175799980Y-103200010D01*
X177024999Y-99375001D02*
X177500000Y-98900000D01*
X177500000Y-98900000D02*
X177500000Y-98000000D01*
X175799980Y-103200010D02*
X177024999Y-101974991D01*
X165700031Y-109575031D02*
X168114943Y-109575031D01*
X164675000Y-107550000D02*
X164675000Y-108550000D01*
X168775033Y-108914936D02*
X168775033Y-108374967D01*
X177024999Y-101974991D02*
X177024999Y-99375001D01*
X168775033Y-108374967D02*
X173949989Y-103200011D01*
X168114943Y-109575031D02*
X168775033Y-108914936D01*
X164675000Y-108550000D02*
X165700031Y-109575031D01*
X176349980Y-103550020D02*
X177600000Y-102300000D01*
X174374978Y-103550020D02*
X176349980Y-103550020D01*
X168259924Y-109925041D02*
X168424634Y-109760330D01*
X168424634Y-109760330D02*
X169250000Y-108934962D01*
X165400041Y-109925041D02*
X168259924Y-109925041D01*
X164025000Y-107550000D02*
X164025000Y-108550000D01*
X164025000Y-108550000D02*
X165400041Y-109925041D01*
X169250000Y-108674998D02*
X174374978Y-103550020D01*
X169250000Y-108934962D02*
X169250000Y-108674998D01*
X177600000Y-102300000D02*
X177600000Y-102000000D01*
X164850000Y-127500000D02*
X166000000Y-127500000D01*
X166000000Y-127500000D02*
X173960000Y-127500000D01*
X166000000Y-118000000D02*
X173960000Y-118000000D01*
X164450000Y-118100000D02*
X165900000Y-118100000D01*
X165900000Y-118100000D02*
X166000000Y-118000000D01*
X143675000Y-115525000D02*
X143550000Y-115650000D01*
X143675000Y-113450000D02*
X143675000Y-115525000D01*
X145100000Y-123800000D02*
X144800000Y-124100000D01*
X144800000Y-124100000D02*
X144800000Y-129400000D01*
X144800000Y-129400000D02*
X144900000Y-129500000D01*
X150675000Y-113450000D02*
X150675000Y-110775000D01*
X136675000Y-113450000D02*
X136675000Y-111073023D01*
X136675000Y-111073023D02*
X136747992Y-111000031D01*
X164675000Y-113450000D02*
X164675000Y-110825000D01*
X164675000Y-110825000D02*
X164600000Y-110750000D01*
X143675000Y-113450000D02*
X143675000Y-110775000D01*
X143675000Y-110775000D02*
X143700000Y-110750000D01*
X150675000Y-110775000D02*
X150700000Y-110750000D01*
X157675000Y-113450000D02*
X157675000Y-110775000D01*
X157675000Y-110775000D02*
X157650000Y-110750000D01*
X143025000Y-113450000D02*
X143025000Y-115463980D01*
X143025000Y-115463980D02*
X142850076Y-115638904D01*
X144600000Y-123300000D02*
X144100000Y-123800000D01*
X144100000Y-123800000D02*
X144100000Y-129500000D01*
X136025000Y-111016566D02*
X136008465Y-111000031D01*
X136025000Y-113450000D02*
X136025000Y-111016566D01*
X143025000Y-110600021D02*
X143000000Y-110575021D01*
X143025000Y-113450000D02*
X143025000Y-110600021D01*
X150025000Y-113450000D02*
X150025000Y-110125000D01*
X150025000Y-110125000D02*
X150000000Y-110100000D01*
X164025000Y-113450000D02*
X164025000Y-110125000D01*
X164025000Y-110125000D02*
X164000000Y-110100000D01*
X157025000Y-113450000D02*
X157025000Y-110125000D01*
X157025000Y-110125000D02*
X157000000Y-110100000D01*
X143300000Y-123550000D02*
X144000001Y-122849999D01*
X143300000Y-129500000D02*
X143300000Y-123550000D01*
X144000001Y-122849999D02*
X144300000Y-122550000D01*
X137975000Y-113450000D02*
X137975000Y-114615022D01*
X137975000Y-114615022D02*
X138106908Y-114746930D01*
X122050000Y-68550000D02*
X122050000Y-70600000D01*
X122050000Y-70600000D02*
X120474989Y-72175011D01*
X120474989Y-72175011D02*
X115140011Y-72175011D01*
X115140011Y-72175011D02*
X114840012Y-72475010D01*
X136800000Y-127000000D02*
X137800000Y-127000000D01*
X137800000Y-127000000D02*
X143300000Y-121500000D01*
X143300000Y-121500000D02*
X143350000Y-121500000D01*
X138250000Y-124900000D02*
X137750000Y-125400000D01*
X137750000Y-125400000D02*
X136800000Y-125400000D01*
X128250000Y-125600000D02*
X128575001Y-125925001D01*
X128575001Y-125925001D02*
X133924999Y-125925001D01*
X133924999Y-125925001D02*
X133950000Y-125900000D01*
X122700000Y-74450000D02*
X122700000Y-73550000D01*
X122700000Y-73550000D02*
X121950000Y-72800000D01*
X151900000Y-70575000D02*
X151900000Y-72527002D01*
X151900000Y-72527002D02*
X152700000Y-73327002D01*
X152700000Y-73327002D02*
X152700000Y-73475000D01*
X152700000Y-73475000D02*
X152700000Y-74450000D01*
X112650000Y-77200000D02*
X116772998Y-77200000D01*
X116772998Y-77200000D02*
X122172998Y-71800000D01*
X122172998Y-71800000D02*
X122249999Y-71800000D01*
X135350000Y-127100000D02*
X135050001Y-127399999D01*
X135050001Y-127399999D02*
X129099999Y-127399999D01*
X129099999Y-127399999D02*
X128250000Y-126550000D01*
X136800000Y-120600000D02*
X137800000Y-120600000D01*
X137800000Y-120600000D02*
X139050000Y-121850000D01*
X139050000Y-121850000D02*
X139050000Y-123700000D01*
X136800000Y-119800000D02*
X141027002Y-119800000D01*
X141027002Y-119800000D02*
X141978768Y-120751766D01*
X141978768Y-120751766D02*
X141978768Y-122078768D01*
X153600000Y-125600000D02*
X153300001Y-125300001D01*
X153300001Y-125300001D02*
X151025001Y-125300001D01*
X151025001Y-125300001D02*
X150724999Y-125600003D01*
X150724999Y-125600003D02*
X150600000Y-125600003D01*
X155300000Y-74450000D02*
X155300000Y-73475000D01*
X155375001Y-73399999D02*
X159499999Y-73399999D01*
X155300000Y-73475000D02*
X155375001Y-73399999D01*
X159499999Y-73399999D02*
X162700000Y-76600000D01*
X123754999Y-99431999D02*
X123754999Y-102450003D01*
X118774999Y-80580001D02*
X118819999Y-80625001D01*
X128778757Y-111121235D02*
X129078756Y-111421234D01*
X120694978Y-96371978D02*
X123754999Y-99431999D01*
X128382522Y-110725000D02*
X128778757Y-111121235D01*
X124459998Y-110725000D02*
X128382522Y-110725000D01*
X123754999Y-102450003D02*
X122305002Y-103900000D01*
X118774999Y-103979999D02*
X118774999Y-105040001D01*
X118819999Y-80625001D02*
X120480001Y-80625001D01*
X118774999Y-79519999D02*
X118774999Y-80580001D01*
X119194987Y-79100011D02*
X118774999Y-79519999D01*
X118854998Y-103900000D02*
X118774999Y-103979999D01*
X141024989Y-79100011D02*
X119194987Y-79100011D01*
X120694978Y-80839978D02*
X120694978Y-96371978D01*
X151575000Y-68550000D02*
X141024989Y-79100011D01*
X152050000Y-68550000D02*
X151575000Y-68550000D01*
X120480001Y-80625001D02*
X120694978Y-80839978D01*
X122305002Y-103900000D02*
X118854998Y-103900000D01*
X118774999Y-105040001D02*
X124459998Y-110725000D01*
X137700000Y-117825000D02*
X137700000Y-117775010D01*
X137975000Y-118100000D02*
X137700000Y-117825000D01*
X138500000Y-118100000D02*
X137975000Y-118100000D01*
X123120845Y-76892823D02*
X122696581Y-76892823D01*
X137455001Y-73499999D02*
X135999989Y-73499999D01*
X132607165Y-76892823D02*
X123120845Y-76892823D01*
X137700000Y-73744998D02*
X137455001Y-73499999D01*
X137700000Y-74450000D02*
X137700000Y-73744998D01*
X135999989Y-73499999D02*
X132607165Y-76892823D01*
X139300000Y-118100000D02*
X139300000Y-117469998D01*
X139300000Y-117469998D02*
X138955001Y-117124999D01*
X138955001Y-117124999D02*
X138522482Y-117124999D01*
X138522482Y-117124999D02*
X137904310Y-116506827D01*
X123074264Y-77750000D02*
X122650000Y-77750000D01*
X138550000Y-77750000D02*
X123074264Y-77750000D01*
X140300000Y-76000000D02*
X138550000Y-77750000D01*
X140300000Y-74450000D02*
X140300000Y-76000000D01*
X140100000Y-118100000D02*
X140100000Y-117469998D01*
X140100000Y-117469998D02*
X139033377Y-116403375D01*
X139033377Y-116403375D02*
X138596625Y-116403375D01*
X122700000Y-78450000D02*
X139075002Y-78450000D01*
X139075002Y-78450000D02*
X141625001Y-75900001D01*
X141625001Y-75900001D02*
X141625001Y-72447999D01*
X141625001Y-72447999D02*
X139352003Y-70175001D01*
X139352003Y-70175001D02*
X137700001Y-70175001D01*
X137700001Y-70175001D02*
X137050000Y-69525000D01*
X137050000Y-69525000D02*
X137050000Y-68550000D01*
X140900000Y-118100000D02*
X140900000Y-117525002D01*
X140900000Y-117525002D02*
X139466506Y-116091508D01*
X139466506Y-116091508D02*
X139466506Y-115788329D01*
X137000000Y-68500000D02*
X137050000Y-68550000D01*
X145288010Y-115544288D02*
X148151412Y-115544288D01*
X148151412Y-115544288D02*
X148575676Y-115544288D01*
X143300000Y-118100000D02*
X143300000Y-117532298D01*
X143300000Y-117532298D02*
X145288010Y-115544288D01*
X147775011Y-112550001D02*
X148075010Y-112850000D01*
X147725011Y-112550001D02*
X147775011Y-112550001D01*
X146808425Y-109484340D02*
X146808425Y-111633415D01*
X146808425Y-111633415D02*
X147725011Y-112550001D01*
X155800000Y-78525000D02*
X161619998Y-78525000D01*
X161619998Y-78525000D02*
X166644999Y-73499999D01*
X166644999Y-73499999D02*
X167455001Y-73499999D01*
X167455001Y-73499999D02*
X167700000Y-73744998D01*
X167700000Y-73744998D02*
X167700000Y-74450000D01*
X146800000Y-109492765D02*
X146808425Y-109484340D01*
X145300000Y-116100000D02*
X147725736Y-116100000D01*
X147725736Y-116100000D02*
X148150000Y-116100000D01*
X144100000Y-118100000D02*
X144100000Y-117300000D01*
X144100000Y-117300000D02*
X145300000Y-116100000D01*
X147850000Y-111900000D02*
X147850000Y-109850002D01*
X147850000Y-109850002D02*
X147599998Y-109600000D01*
X147600004Y-109600006D02*
X147599998Y-109600000D01*
X155100000Y-79250000D02*
X166022998Y-79250000D01*
X168797999Y-82025001D02*
X169302001Y-82025001D01*
X169524999Y-79624999D02*
X169524999Y-77236092D01*
X169302001Y-82025001D02*
X169600000Y-81727002D01*
X169600000Y-79700000D02*
X169524999Y-79624999D01*
X170300000Y-75425000D02*
X170300000Y-74450000D01*
X169600000Y-81727002D02*
X169600000Y-79700000D01*
X166022998Y-79250000D02*
X168797999Y-82025001D01*
X169524999Y-77236092D02*
X170334090Y-76427001D01*
X170334090Y-76427001D02*
X170334090Y-75459090D01*
X170334090Y-75459090D02*
X170300000Y-75425000D01*
X166250000Y-68500000D02*
X167000000Y-68500000D01*
X167000000Y-68500000D02*
X167050000Y-68550000D01*
X144900000Y-118100000D02*
X144900000Y-118800000D01*
X144900000Y-118800000D02*
X144250000Y-119450000D01*
X153350000Y-74450000D02*
X153350000Y-73200000D01*
X153350000Y-73200000D02*
X152900000Y-72750000D01*
X145700000Y-118100000D02*
X145700000Y-119000000D01*
X145700000Y-119000000D02*
X145993769Y-119293769D01*
X168350000Y-74450000D02*
X168350000Y-72850000D01*
X168350000Y-72850000D02*
X168250000Y-72750000D01*
X138350000Y-72950000D02*
X138200000Y-72800000D01*
X138200000Y-72800000D02*
X138200000Y-72750000D01*
X138350000Y-74450000D02*
X138350000Y-72950000D01*
X123350000Y-74450000D02*
X123350000Y-72750000D01*
X123350000Y-72750000D02*
X123300000Y-72700000D01*
X124650000Y-71875010D02*
X124400000Y-71625010D01*
X139650000Y-72075010D02*
X139499999Y-71925009D01*
X139650000Y-74450000D02*
X139650000Y-72075010D01*
X154650000Y-71975010D02*
X154599999Y-71925009D01*
X154599999Y-71925009D02*
X154300000Y-71625010D01*
X154650000Y-74450000D02*
X154650000Y-71975010D01*
X139499999Y-71925009D02*
X139200000Y-71625010D01*
X124650000Y-74450000D02*
X124650000Y-71875010D01*
X146500000Y-116896249D02*
X146424990Y-116821239D01*
X146500000Y-118100000D02*
X146500000Y-116896249D01*
X124141268Y-75841268D02*
X124650000Y-75332536D01*
X124650000Y-75332536D02*
X124650000Y-74450000D01*
X169809089Y-74609089D02*
X169650000Y-74450000D01*
X169650000Y-74450000D02*
X169650000Y-70900000D01*
X169650000Y-70900000D02*
X169550000Y-70800000D01*
X124000000Y-74450000D02*
X124000000Y-72141363D01*
X139000000Y-72414736D02*
X138716060Y-72130796D01*
X124000000Y-72141363D02*
X123754520Y-71895883D01*
X139000000Y-74450000D02*
X139000000Y-72414736D01*
X154000000Y-74450000D02*
X154000000Y-72303999D01*
X154000000Y-72303999D02*
X153736994Y-72040993D01*
X148200000Y-119800000D02*
X149000000Y-119000000D01*
X169000000Y-81450000D02*
X169050000Y-81500000D01*
X169000000Y-74450000D02*
X169000000Y-81450000D01*
X169000000Y-74450000D02*
X169000000Y-71950000D01*
X169000000Y-71950000D02*
X168850000Y-71800000D01*
X134725000Y-113450000D02*
X134725000Y-111058063D01*
X135308041Y-110475022D02*
X136991960Y-110475022D01*
X140655032Y-110200000D02*
X140805021Y-110050011D01*
X144975000Y-111247998D02*
X144975000Y-113450000D01*
X140805021Y-110050011D02*
X143777013Y-110050011D01*
X134725000Y-111058063D02*
X135308041Y-110475022D01*
X137266981Y-110200001D02*
X140655032Y-110200000D01*
X136991960Y-110475022D02*
X137266981Y-110200001D01*
X143777013Y-110050011D02*
X144975000Y-111247998D01*
X141725000Y-111786281D02*
X141998847Y-111512434D01*
X141725000Y-113450000D02*
X141725000Y-111786281D01*
X141998847Y-111512434D02*
X142423111Y-111512434D01*
X152000000Y-111350000D02*
X152000000Y-113425000D01*
X152000000Y-113425000D02*
X151975000Y-113450000D01*
X158975000Y-114450000D02*
X158975000Y-113450000D01*
X148800012Y-114525012D02*
X148800012Y-114827014D01*
X148800012Y-114827014D02*
X149498003Y-115525005D01*
X148725000Y-114450000D02*
X148800012Y-114525012D01*
X148725000Y-113450000D02*
X148725000Y-114450000D01*
X158975000Y-114900002D02*
X158975000Y-114450000D01*
X158349997Y-115525005D02*
X158975000Y-114900002D01*
X149498003Y-115525005D02*
X158349997Y-115525005D01*
X165400000Y-111650000D02*
X165975000Y-112225000D01*
X165975000Y-112225000D02*
X165975000Y-113450000D01*
X155725000Y-113450000D02*
X155725000Y-112425000D01*
X155725000Y-112425000D02*
X156500000Y-111650000D01*
X125325000Y-65775000D02*
X126575000Y-65775000D01*
X124650000Y-68550000D02*
X124650000Y-66450000D01*
X124650000Y-66450000D02*
X125325000Y-65775000D01*
X125325000Y-65775000D02*
X125325000Y-63400000D01*
X137075000Y-65775000D02*
X138325000Y-65775000D01*
X138325000Y-65775000D02*
X138325000Y-63350000D01*
X139000000Y-68550000D02*
X139000000Y-66450000D01*
X139000000Y-66450000D02*
X138325000Y-65775000D01*
X140325000Y-65775000D02*
X141575000Y-65775000D01*
X140325000Y-65775000D02*
X140325000Y-63350000D01*
X139650000Y-68550000D02*
X139650000Y-66450000D01*
X139650000Y-66450000D02*
X140325000Y-65775000D01*
X116150000Y-84050000D02*
X116150000Y-80750000D01*
X116150000Y-80750000D02*
X120524999Y-76375001D01*
X122675001Y-76275172D02*
X122918126Y-76275172D01*
X122575172Y-76375001D02*
X122675001Y-76275172D01*
X120524999Y-76375001D02*
X122575172Y-76375001D01*
X122918126Y-76275172D02*
X123017951Y-76374997D01*
X124350003Y-76374997D02*
X125300000Y-75425000D01*
X125300000Y-75425000D02*
X125300000Y-74450000D01*
X123017951Y-76374997D02*
X124350003Y-76374997D01*
X141050000Y-122950000D02*
X141050000Y-120600000D01*
X136800000Y-126200000D02*
X137800000Y-126200000D01*
X137800000Y-126200000D02*
X141050000Y-122950000D01*
X125195622Y-74554378D02*
X125300000Y-74450000D01*
M02*
