G04 #@! TF.GenerationSoftware,KiCad,Pcbnew,(5.0-dev-4115-gdd04bcb)*
G04 #@! TF.CreationDate,2018-04-28T02:22:02-07:00*
G04 #@! TF.ProjectId,Thermocouple Data Logger,546865726D6F636F75706C6520446174,1*
G04 #@! TF.SameCoordinates,Original*
G04 #@! TF.FileFunction,Paste,Top*
G04 #@! TF.FilePolarity,Positive*
%FSLAX46Y46*%
G04 Gerber Fmt 4.6, Leading zero omitted, Abs format (unit mm)*
G04 Created by KiCad (PCBNEW (5.0-dev-4115-gdd04bcb)) date Saturday, April 28, 2018 at 02:22:02 AM*
%MOMM*%
%LPD*%
G01*
G04 APERTURE LIST*
%ADD10R,1.200000X1.800000*%
%ADD11R,0.550000X1.500000*%
%ADD12R,1.500000X0.550000*%
%ADD13C,0.200000*%
%ADD14C,0.100000*%
%ADD15R,0.800000X1.200000*%
%ADD16R,0.500000X0.500000*%
%ADD17R,1.400000X0.700000*%
%ADD18R,1.200000X0.700000*%
%ADD19R,3.200000X1.200000*%
%ADD20R,1.200000X1.200000*%
%ADD21R,1.400000X1.000000*%
%ADD22R,1.900000X1.500000*%
%ADD23R,0.450000X1.500000*%
%ADD24R,0.500000X0.600000*%
%ADD25R,0.600000X0.500000*%
%ADD26R,1.000000X2.500000*%
%ADD27R,1.600000X1.000000*%
%ADD28R,0.800000X0.800000*%
%ADD29R,0.600000X0.450000*%
%ADD30R,0.450000X0.600000*%
%ADD31R,3.400000X1.500000*%
%ADD32R,3.500000X1.000000*%
%ADD33R,0.500000X0.900000*%
%ADD34R,0.700000X1.300000*%
%ADD35R,1.300000X0.700000*%
%ADD36R,0.400000X0.600000*%
%ADD37R,0.600000X0.400000*%
%ADD38R,2.500000X1.250000*%
%ADD39R,1.550000X1.300000*%
%ADD40R,0.760000X1.600000*%
%ADD41R,1.550000X0.600000*%
%ADD42R,0.450000X1.450000*%
%ADD43R,1.000000X1.250000*%
G04 APERTURE END LIST*
D10*
X151700000Y-122000000D03*
X151700000Y-118000000D03*
X154100000Y-118000000D03*
X154100000Y-122000000D03*
D11*
X146500000Y-129500000D03*
X145700000Y-129500000D03*
X144900000Y-129500000D03*
X144100000Y-129500000D03*
X143300000Y-129500000D03*
X142500000Y-129500000D03*
X141700000Y-129500000D03*
X140900000Y-129500000D03*
X140100000Y-129500000D03*
X139300000Y-129500000D03*
X138500000Y-129500000D03*
D12*
X136800000Y-127800000D03*
X136800000Y-127000000D03*
X136800000Y-126200000D03*
X136800000Y-125400000D03*
X136800000Y-124600000D03*
X136800000Y-123800000D03*
X136800000Y-123000000D03*
X136800000Y-122200000D03*
X136800000Y-121400000D03*
X136800000Y-120600000D03*
X136800000Y-119800000D03*
D11*
X138500000Y-118100000D03*
X139300000Y-118100000D03*
X140100000Y-118100000D03*
X140900000Y-118100000D03*
X141700000Y-118100000D03*
X142500000Y-118100000D03*
X143300000Y-118100000D03*
X144100000Y-118100000D03*
X144900000Y-118100000D03*
X145700000Y-118100000D03*
X146500000Y-118100000D03*
D12*
X148200000Y-119800000D03*
X148200000Y-120600000D03*
X148200000Y-121400000D03*
X148200000Y-122200000D03*
X148200000Y-123000000D03*
X148200000Y-123800000D03*
X148200000Y-124600000D03*
X148200000Y-125400000D03*
X148200000Y-126200000D03*
X148200000Y-127000000D03*
X148200000Y-127800000D03*
D13*
X110250000Y-110450000D03*
D14*
G36*
X110108579Y-110450000D02*
X110250000Y-110308579D01*
X110391421Y-110450000D01*
X110250000Y-110591421D01*
X110108579Y-110450000D01*
X110108579Y-110450000D01*
G37*
D15*
X115300000Y-123000000D03*
D16*
X110000000Y-110700000D03*
D17*
X125700000Y-121200000D03*
X125700000Y-120100000D03*
X125700000Y-119000000D03*
X125700000Y-117900000D03*
X125700000Y-116800000D03*
X125700000Y-115700000D03*
X125700000Y-114600000D03*
D18*
X125800000Y-122150000D03*
D19*
X111700000Y-123000000D03*
D20*
X121500000Y-123000000D03*
D21*
X125700000Y-111600000D03*
D22*
X110700000Y-109700000D03*
D17*
X125700000Y-113500000D03*
D23*
X139275000Y-113450000D03*
X138625000Y-113450000D03*
X137975000Y-113450000D03*
X137325000Y-113450000D03*
X136675000Y-113450000D03*
X136025000Y-113450000D03*
X135375000Y-113450000D03*
X134725000Y-113450000D03*
X134725000Y-107550000D03*
X135375000Y-107550000D03*
X136025000Y-107550000D03*
X136675000Y-107550000D03*
X137325000Y-107550000D03*
X137975000Y-107550000D03*
X138625000Y-107550000D03*
X139275000Y-107550000D03*
D24*
X135450000Y-126250000D03*
X135450000Y-125150000D03*
X133900000Y-114400000D03*
X133900000Y-115500000D03*
X129500000Y-114500000D03*
X129500000Y-113400000D03*
X155450000Y-119950000D03*
X155450000Y-121050000D03*
X150350000Y-118000000D03*
X150350000Y-116900000D03*
D25*
X120975000Y-65775000D03*
X122075000Y-65775000D03*
X127675000Y-65775000D03*
X126575000Y-65775000D03*
X135975000Y-65775000D03*
X137075000Y-65775000D03*
X142675000Y-65775000D03*
X141575000Y-65775000D03*
X150975000Y-65775000D03*
X152075000Y-65775000D03*
X157675000Y-65775000D03*
X156575000Y-65775000D03*
X167075000Y-65775000D03*
X165975000Y-65775000D03*
X171575000Y-65775000D03*
X172675000Y-65775000D03*
X174300000Y-114900000D03*
X175400000Y-114900000D03*
D26*
X176700000Y-106450000D03*
X179700000Y-106450000D03*
D27*
X171110000Y-112590000D03*
X171110000Y-109590000D03*
D28*
X159200000Y-122500000D03*
X160800000Y-122500000D03*
X160800000Y-117500000D03*
X159200000Y-117500000D03*
X173700000Y-90000000D03*
X175300000Y-90000000D03*
X175300000Y-94000000D03*
X173700000Y-94000000D03*
X173600000Y-98000000D03*
X175200000Y-98000000D03*
X175300000Y-102000000D03*
X173700000Y-102000000D03*
X180700000Y-94000000D03*
X182300000Y-94000000D03*
X182200000Y-97990000D03*
X180600000Y-97990000D03*
X180700000Y-102000000D03*
X182300000Y-102000000D03*
D29*
X137450000Y-131850000D03*
X139550000Y-131850000D03*
X147200000Y-131850000D03*
X145100000Y-131850000D03*
D30*
X152050000Y-128800000D03*
X152050000Y-126700000D03*
D31*
X181500000Y-70300000D03*
X181500000Y-77000000D03*
D32*
X175750000Y-72650000D03*
X175750000Y-74650000D03*
D33*
X121825000Y-63400000D03*
X123325000Y-63400000D03*
X125325000Y-63400000D03*
X126825000Y-63400000D03*
X136825000Y-63350000D03*
X138325000Y-63350000D03*
X140325000Y-63350000D03*
X141825000Y-63350000D03*
X151825000Y-63400000D03*
X153325000Y-63400000D03*
X155325000Y-63400000D03*
X156825000Y-63400000D03*
X168325000Y-63400000D03*
X166825000Y-63400000D03*
X171825000Y-63400000D03*
X170325000Y-63400000D03*
D34*
X156050000Y-122500000D03*
X157950000Y-122500000D03*
X150547056Y-131937056D03*
X152447056Y-131937056D03*
X156050000Y-117500000D03*
X157950000Y-117500000D03*
D35*
X124740000Y-81950000D03*
X124740000Y-80050000D03*
X127275000Y-80050000D03*
X127275000Y-81950000D03*
X124730000Y-104510000D03*
X124730000Y-102610000D03*
X122190000Y-104510000D03*
X122190000Y-102610000D03*
X119650000Y-104510000D03*
X119650000Y-102610000D03*
X119650000Y-81950000D03*
X119650000Y-80050000D03*
X122190000Y-81950000D03*
X122190000Y-80050000D03*
X127270000Y-102610000D03*
X127270000Y-104510000D03*
X137420000Y-80050000D03*
X137420000Y-81950000D03*
X139970000Y-81950000D03*
X139970000Y-80050000D03*
X137420000Y-104510000D03*
X137420000Y-102610000D03*
X132350000Y-104510000D03*
X132350000Y-102610000D03*
X129810000Y-102610000D03*
X129810000Y-104510000D03*
X134890000Y-80050000D03*
X134890000Y-81950000D03*
X134890000Y-104510000D03*
X134890000Y-102610000D03*
X139970000Y-102610000D03*
X139970000Y-104510000D03*
X149980000Y-80050000D03*
X149980000Y-81950000D03*
X152510000Y-81950000D03*
X152510000Y-80050000D03*
X149970000Y-104510000D03*
X149970000Y-102610000D03*
X147440000Y-102610000D03*
X147440000Y-104510000D03*
X144900000Y-104510000D03*
X144900000Y-102610000D03*
X144900000Y-81950000D03*
X144900000Y-80050000D03*
X147450000Y-80050000D03*
X147450000Y-81950000D03*
X152525000Y-102610000D03*
X152525000Y-104510000D03*
X162680000Y-81950000D03*
X162680000Y-80050000D03*
X165220000Y-81950000D03*
X165220000Y-80050000D03*
X162680000Y-104500000D03*
X162680000Y-102600000D03*
X157600000Y-102610000D03*
X157600000Y-104510000D03*
X155060000Y-104510000D03*
X155060000Y-102610000D03*
X160140000Y-81950000D03*
X160140000Y-80050000D03*
X160150000Y-104510000D03*
X160150000Y-102610000D03*
X165220000Y-104510000D03*
X165220000Y-102610000D03*
D34*
X170600000Y-90000000D03*
X172500000Y-90000000D03*
X172500000Y-94000000D03*
X170600000Y-94000000D03*
X170500000Y-98000000D03*
X172400000Y-98000000D03*
X172500000Y-102000000D03*
X170600000Y-102000000D03*
X177600000Y-94000000D03*
X179500000Y-94000000D03*
X179400000Y-98000000D03*
X177500000Y-98000000D03*
X177600000Y-102000000D03*
X179500000Y-102000000D03*
D36*
X163950000Y-127500000D03*
X164850000Y-127500000D03*
X164450000Y-118100000D03*
X163550000Y-118100000D03*
X160450000Y-121000000D03*
X159550000Y-121000000D03*
X151450000Y-130000000D03*
X150550000Y-130000000D03*
X137450000Y-115250000D03*
X136550000Y-115250000D03*
D37*
X164000000Y-129400000D03*
X164000000Y-128500000D03*
X162800000Y-119100000D03*
X162800000Y-120000000D03*
D36*
X136975000Y-77050000D03*
X136075000Y-77050000D03*
X151050000Y-77050000D03*
X151950000Y-77050000D03*
X166950000Y-77050000D03*
X166050000Y-77050000D03*
D38*
X178750000Y-82000000D03*
X178750000Y-84500000D03*
X178750000Y-87000000D03*
X114250000Y-89000000D03*
X114250000Y-91500000D03*
X114250000Y-94000000D03*
D39*
X162177056Y-131947056D03*
X162177056Y-127447056D03*
X154217056Y-127447056D03*
X154217056Y-131947056D03*
X166000000Y-132000000D03*
X166000000Y-127500000D03*
X173960000Y-127500000D03*
X173960000Y-132000000D03*
X173960000Y-122500000D03*
X173960000Y-118000000D03*
X166000000Y-118000000D03*
X166000000Y-122500000D03*
D40*
X170595000Y-79960000D03*
X174405000Y-85040000D03*
X171865000Y-79960000D03*
X173135000Y-85040000D03*
X173135000Y-79960000D03*
X171865000Y-85040000D03*
X174405000Y-79960000D03*
X170595000Y-85040000D03*
D41*
X179700000Y-109595000D03*
X179700000Y-110865000D03*
X179700000Y-112135000D03*
X179700000Y-113405000D03*
X174300000Y-113405000D03*
X174300000Y-112135000D03*
X174300000Y-110865000D03*
X174300000Y-109595000D03*
D42*
X125950000Y-68550000D03*
X125300000Y-68550000D03*
X124650000Y-68550000D03*
X124000000Y-68550000D03*
X123350000Y-68550000D03*
X122700000Y-68550000D03*
X122050000Y-68550000D03*
X122050000Y-74450000D03*
X122700000Y-74450000D03*
X123350000Y-74450000D03*
X124000000Y-74450000D03*
X124650000Y-74450000D03*
X125300000Y-74450000D03*
X125950000Y-74450000D03*
X140950000Y-68550000D03*
X140300000Y-68550000D03*
X139650000Y-68550000D03*
X139000000Y-68550000D03*
X138350000Y-68550000D03*
X137700000Y-68550000D03*
X137050000Y-68550000D03*
X137050000Y-74450000D03*
X137700000Y-74450000D03*
X138350000Y-74450000D03*
X139000000Y-74450000D03*
X139650000Y-74450000D03*
X140300000Y-74450000D03*
X140950000Y-74450000D03*
X155950000Y-74450000D03*
X155300000Y-74450000D03*
X154650000Y-74450000D03*
X154000000Y-74450000D03*
X153350000Y-74450000D03*
X152700000Y-74450000D03*
X152050000Y-74450000D03*
X152050000Y-68550000D03*
X152700000Y-68550000D03*
X153350000Y-68550000D03*
X154000000Y-68550000D03*
X154650000Y-68550000D03*
X155300000Y-68550000D03*
X155950000Y-68550000D03*
X170950000Y-74450000D03*
X170300000Y-74450000D03*
X169650000Y-74450000D03*
X169000000Y-74450000D03*
X168350000Y-74450000D03*
X167700000Y-74450000D03*
X167050000Y-74450000D03*
X167050000Y-68550000D03*
X167700000Y-68550000D03*
X168350000Y-68550000D03*
X169000000Y-68550000D03*
X169650000Y-68550000D03*
X170300000Y-68550000D03*
X170950000Y-68550000D03*
D23*
X146275000Y-113450000D03*
X145625000Y-113450000D03*
X144975000Y-113450000D03*
X144325000Y-113450000D03*
X143675000Y-113450000D03*
X143025000Y-113450000D03*
X142375000Y-113450000D03*
X141725000Y-113450000D03*
X141725000Y-107550000D03*
X142375000Y-107550000D03*
X143025000Y-107550000D03*
X143675000Y-107550000D03*
X144325000Y-107550000D03*
X144975000Y-107550000D03*
X145625000Y-107550000D03*
X146275000Y-107550000D03*
X153275000Y-107550000D03*
X152625000Y-107550000D03*
X151975000Y-107550000D03*
X151325000Y-107550000D03*
X150675000Y-107550000D03*
X150025000Y-107550000D03*
X149375000Y-107550000D03*
X148725000Y-107550000D03*
X148725000Y-113450000D03*
X149375000Y-113450000D03*
X150025000Y-113450000D03*
X150675000Y-113450000D03*
X151325000Y-113450000D03*
X151975000Y-113450000D03*
X152625000Y-113450000D03*
X153275000Y-113450000D03*
X160275000Y-107550000D03*
X159625000Y-107550000D03*
X158975000Y-107550000D03*
X158325000Y-107550000D03*
X157675000Y-107550000D03*
X157025000Y-107550000D03*
X156375000Y-107550000D03*
X155725000Y-107550000D03*
X155725000Y-113450000D03*
X156375000Y-113450000D03*
X157025000Y-113450000D03*
X157675000Y-113450000D03*
X158325000Y-113450000D03*
X158975000Y-113450000D03*
X159625000Y-113450000D03*
X160275000Y-113450000D03*
X167275000Y-113450000D03*
X166625000Y-113450000D03*
X165975000Y-113450000D03*
X165325000Y-113450000D03*
X164675000Y-113450000D03*
X164025000Y-113450000D03*
X163375000Y-113450000D03*
X162725000Y-113450000D03*
X162725000Y-107550000D03*
X163375000Y-107550000D03*
X164025000Y-107550000D03*
X164675000Y-107550000D03*
X165325000Y-107550000D03*
X165975000Y-107550000D03*
X166625000Y-107550000D03*
X167275000Y-107550000D03*
X134025000Y-123950000D03*
X133375000Y-123950000D03*
X132725000Y-123950000D03*
X132075000Y-123950000D03*
X131425000Y-123950000D03*
X130775000Y-123950000D03*
X130125000Y-123950000D03*
X129475000Y-123950000D03*
X129475000Y-118050000D03*
X130125000Y-118050000D03*
X130775000Y-118050000D03*
X131425000Y-118050000D03*
X132075000Y-118050000D03*
X132725000Y-118050000D03*
X133375000Y-118050000D03*
X134025000Y-118050000D03*
D43*
X125325000Y-65775000D03*
X123325000Y-65775000D03*
X138325000Y-65775000D03*
X140325000Y-65775000D03*
X155325000Y-65775000D03*
X153325000Y-65775000D03*
X170325000Y-65775000D03*
X168325000Y-65775000D03*
D24*
X150550000Y-127700000D03*
X150550000Y-128800000D03*
X164450000Y-130900000D03*
X164450000Y-132000000D03*
X164000000Y-120600000D03*
X164000000Y-119500000D03*
D25*
X141700000Y-130850000D03*
X142800000Y-130850000D03*
X142500000Y-116650000D03*
X141400000Y-116650000D03*
D24*
X149850000Y-124600000D03*
X149850000Y-123500000D03*
X135450000Y-123000000D03*
X135450000Y-124100000D03*
D25*
X123350000Y-67200000D03*
X122250000Y-67200000D03*
X120950000Y-75800000D03*
X122050000Y-75800000D03*
X137250000Y-67200000D03*
X138350000Y-67200000D03*
X137075000Y-75800000D03*
X135975000Y-75800000D03*
X153350000Y-67200000D03*
X152250000Y-67200000D03*
X150950000Y-75800000D03*
X152050000Y-75800000D03*
X168350000Y-67200000D03*
X167250000Y-67200000D03*
X165950000Y-75800000D03*
X167050000Y-75800000D03*
D24*
X135100000Y-119150000D03*
X135100000Y-118050000D03*
X127413702Y-116787292D03*
X127413702Y-115687292D03*
D25*
X140375000Y-114900000D03*
X139275000Y-114900000D03*
X147375000Y-114900000D03*
X146275000Y-114900000D03*
X154375000Y-114900000D03*
X153275000Y-114900000D03*
X160275000Y-114900000D03*
X161375000Y-114900000D03*
X167275000Y-114900000D03*
X168375000Y-114900000D03*
M02*
