M48
;DRILL file {KiCad (5.0-dev-4115-gdd04bcb)} date Saturday, April 28, 2018 at 02:22:06 AM
;FORMAT={-:-/ absolute / inch / decimal}
FMAT,2
INCH,TZ
T1C0.0118
T2C0.0197
T3C0.0394
T4C0.0492
T5C0.1260
%
G90
G05
M72
T1
X4.3376Y-4.2736
X4.3937Y-4.8819
X4.4272Y-3.6024
X4.4311Y-3.561
X4.4311Y-3.6398
X4.4331Y-2.9803
X4.435Y-3.0394
X4.5213Y-2.8533
X4.5728Y-3.3091
X4.6289Y-3.6752
X4.6289Y-3.7008
X4.6289Y-3.7264
X4.7303Y-2.9785
X4.7323Y-2.5906
X4.7697Y-2.9469
X4.7835Y-2.6457
X4.7835Y-4.8819
X4.8012Y-2.8661
X4.813Y-2.8268
X4.8287Y-3.061
X4.8306Y-3.0273
X4.8307Y-3.0886
X4.8543Y-2.7441
X4.8543Y-2.8622
X4.8722Y-2.8305
X4.8875Y-2.9859
X4.8976Y-2.8199
X4.9567Y-2.9764
X4.9843Y-2.6969
X4.9921Y-4.3937
X4.9921Y-4.685
X5.002Y-4.7776
X5.0226Y-4.751
X5.0438Y-4.5349
X5.0438Y-4.5782
X5.0492Y-4.9449
X5.0492Y-4.9823
X5.0551Y-2.5906
X5.0689Y-4.6457
X5.0818Y-4.3867
X5.0891Y-4.4385
X5.1033Y-4.9311
X5.1496Y-4.9311
X5.1732Y-4.748
X5.2087Y-3.1555
X5.2165Y-4.7165
X5.2264Y-4.9331
X5.2312Y-4.6024
X5.2461Y-4.8228
X5.2618Y-3.8622
X5.2736Y-4.9567
X5.2776Y-2.9331
X5.2795Y-4.2244
X5.2815Y-4.7362
X5.2924Y-4.3385
X5.3031Y-4.9823
X5.3051Y-3.4114
X5.3051Y-4.8996
X5.3091Y-4.813
X5.3189Y-4.7264
X5.3207Y-4.5616
X5.3212Y-4.5164
X5.3228Y-2.9616
X5.3268Y-2.5906
X5.3287Y-5.0039
X5.3309Y-3.0315
X5.3425Y-5.2116
X5.3547Y-4.3701
X5.3563Y-4.5187
X5.3622Y-4.3012
X5.374Y-2.6457
X5.376Y-5.1969
X5.3799Y-4.19
X5.3838Y-4.3701
X5.4039Y-4.5679
X5.4055Y-4.1457
X5.4055Y-4.5108
X5.4209Y-4.2812
X5.4213Y-4.6368
X5.4227Y-2.988
X5.4293Y-4.5869
X5.437Y-4.874
X5.4373Y-4.5176
X5.4409Y-2.8642
X5.4429Y-4.9173
X5.4449Y-2.7421
X5.4449Y-4.1713
X5.4449Y-4.3612
X5.4472Y-4.3133
X5.4508Y-3.0197
X5.4566Y-4.5828
X5.4583Y-4.1458
X5.4613Y-2.8398
X5.4626Y-3.1516
X5.4744Y-4.8701
X5.4803Y-2.8199
X5.4823Y-4.4213
X5.4908Y-4.5586
X5.5217Y-4.565
X5.5217Y-4.1791
X5.5276Y-5.0433
X5.5335Y-5.1535
X5.5512Y-2.9764
X5.5531Y-4.748
X5.5551Y-4.2244
X5.5591Y-4.5157
X5.5689Y-5.1811
X5.5748Y-2.6969
X5.5807Y-4.7008
X5.5897Y-4.8063
X5.6043Y-4.4193
X5.6043Y-5.185
X5.6072Y-4.3903
X5.6122Y-5.0472
X5.624Y-4.5527
X5.6299Y-4.3533
X5.6359Y-4.5977
X5.6437Y-4.7835
X5.6457Y-2.5906
X5.6516Y-4.5531
X5.6535Y-5.1732
X5.6575Y-4.3602
X5.6752Y-5.2185
X5.6791Y-4.7028
X5.6811Y-4.5118
X5.6811Y-4.8248
X5.6847Y-5.1684
X5.689Y-4.2872
X5.6929Y-4.8543
X5.7126Y-4.874
X5.7303Y-4.2933
X5.7323Y-4.5236
X5.7478Y-4.6966
X5.752Y-3.1594
X5.7579Y-5.0374
X5.7579Y-4.2933
X5.7648Y-4.5993
X5.7694Y-4.8901
X5.7697Y-4.4193
X5.7697Y-4.9242
X5.7795Y-4.9931
X5.7799Y-4.3104
X5.8081Y-4.6594
X5.811Y-4.315
X5.8209Y-4.4055
X5.8287Y-5.1929
X5.8297Y-4.4429
X5.8307Y-4.2244
X5.8322Y-4.5226
X5.8327Y-4.5709
X5.8327Y-5.0689
X5.8494Y-4.549
X5.8607Y-4.2972
X5.8661Y-4.685
X5.8799Y-4.1717
X5.8799Y-4.5118
X5.8858Y-4.7244
X5.8898Y-4.5886
X5.8957Y-4.9449
X5.9055Y-4.3346
X5.9134Y-2.9843
X5.9134Y-2.5866
X5.9145Y-3.0336
X5.9272Y-5.
X5.9291Y-4.9449
X5.9309Y-4.7104
X5.9311Y-4.874
X5.9331Y-4.3602
X5.9331Y-4.9055
X5.9567Y-4.5118
X5.9606Y-4.1142
X5.9646Y-2.6437
X5.9803Y-2.7785
X5.9843Y-4.3839
X5.9862Y-4.9606
X5.9862Y-5.1161
X5.9941Y-4.7067
X5.9944Y-4.8627
X5.9968Y-5.1458
X6.0079Y-4.5236
X6.0157Y-2.9961
X6.0197Y-2.8642
X6.0217Y-5.0669
X6.0335Y-3.0197
X6.0335Y-4.8602
X6.0374Y-2.7421
X6.0472Y-4.9449
X6.0526Y-2.8363
X6.0728Y-4.9764
X6.0748Y-2.8199
X6.0787Y-4.5886
X6.1063Y-3.1201
X6.1063Y-4.5236
X6.1102Y-4.2244
X6.1142Y-4.8307
X6.1339Y-3.0915
X6.1467Y-2.9764
X6.1535Y-4.6713
X6.1555Y-4.7224
X6.1575Y-4.5118
X6.1614Y-4.3957
X6.1654Y-2.6969
X6.1811Y-4.1579
X6.1811Y-4.3346
X6.2067Y-4.185
X6.2067Y-4.3602
X6.2343Y-4.5118
X6.2362Y-2.5866
X6.2815Y-4.5236
X6.3051Y-4.1146
X6.3307Y-4.8622
X6.3543Y-3.1535
X6.3819Y-4.2244
X6.3858Y-4.5236
X6.3858Y-4.9764
X6.4055Y-3.0157
X6.4094Y-4.748
X6.4232Y-4.5118
X6.4528Y-4.1579
X6.4547Y-4.5197
X6.4567Y-4.3346
X6.4567Y-5.1181
X6.4606Y-4.1142
X6.4803Y-4.3602
X6.502Y-2.9921
X6.5039Y-2.5906
X6.5079Y-4.5118
X6.5098Y-3.0246
X6.5118Y-4.3957
X6.5453Y-2.6969
X6.5551Y-2.6457
X6.5571Y-4.5256
X6.5787Y-3.4783
X6.5787Y-3.5098
X6.6043Y-2.9961
X6.622Y-3.0197
X6.624Y-2.8642
X6.628Y-2.7441
X6.6476Y-2.8268
X6.6555Y-3.2087
X6.6575Y-4.5217
X6.6644Y-4.3175
X6.6752Y-2.7874
X6.687Y-3.5453
X6.6949Y-3.0945
X6.6969Y-4.2815
X6.7244Y-3.3957
X6.7362Y-4.2795
X6.7362Y-4.4685
X6.7402Y-2.9764
X6.7461Y-3.0945
X6.7559Y-2.6969
X6.7756Y-3.3957
X6.7756Y-4.2815
X6.7972Y-3.0945
X6.8209Y-3.3957
X6.8268Y-2.5906
X6.8346Y-2.939
X6.8622Y-2.9744
X6.8701Y-3.3957
X6.9094Y-4.4154
X6.9173Y-4.1909
X6.9193Y-2.9744
X6.9213Y-4.1299
X6.9232Y-4.2539
X6.9331Y-4.5276
X6.9764Y-2.9744
X7.0039Y-2.939
X7.0276Y-4.3642
X7.0276Y-4.4134
X7.1732Y-3.626
X7.2106Y-4.0945
T2
X6.9528Y-5.0827
X6.9804Y-5.0159
X6.9804Y-5.1495
X7.0472Y-4.9882
X7.0472Y-5.1772
X7.1141Y-5.0159
X7.1141Y-5.1495
X7.1417Y-5.0827
X5.1496Y-4.5079
X5.2244Y-4.5079
X4.3937Y-5.0827
X4.4214Y-5.0159
X4.4214Y-5.1495
X4.4882Y-4.9882
X4.4882Y-5.1772
X4.555Y-5.0159
X4.555Y-5.1495
X4.5827Y-5.0827
T3
X5.7047Y-3.3331
X5.7047Y-3.9331
X5.8047Y-3.3331
X5.8047Y-3.9331
X5.9047Y-3.3331
X5.9047Y-3.9331
X6.0047Y-3.3331
X6.0047Y-3.9331
X6.1047Y-3.3331
X6.1047Y-3.9331
X6.2047Y-3.3331
X6.2047Y-3.9331
X6.3047Y-3.3331
X6.3047Y-3.9331
X6.4047Y-3.3331
X6.4047Y-3.9331
X6.5047Y-3.3331
X6.5047Y-3.9331
X4.7106Y-3.3331
X4.7106Y-3.9331
X4.8106Y-3.3331
X4.8106Y-3.9331
X4.9106Y-3.3331
X4.9106Y-3.9331
X5.0106Y-3.3331
X5.0106Y-3.9331
X5.1106Y-3.3331
X5.1106Y-3.9331
X5.2106Y-3.3331
X5.2106Y-3.9331
X5.3106Y-3.3331
X5.3106Y-3.9331
X5.4106Y-3.3331
X5.4106Y-3.9331
X5.5106Y-3.3331
X5.5106Y-3.9331
X4.8787Y-5.0787
X4.8787Y-5.1787
X4.9787Y-5.0787
X4.9787Y-5.1787
X5.0787Y-5.0787
X5.0787Y-5.1787
T4
X6.5974Y-2.1762
X6.7352Y-2.1762
X6.0069Y-2.1762
X6.1447Y-2.1762
X5.4163Y-2.1742
X5.5541Y-2.1742
X4.8258Y-2.1762
X4.9636Y-2.1762
T5
X7.0472Y-5.0827
X4.4882Y-5.0827
T0
M30
