G04 #@! TF.GenerationSoftware,KiCad,Pcbnew,(5.0-dev-4115-gdd04bcb)*
G04 #@! TF.CreationDate,2018-04-28T02:22:02-07:00*
G04 #@! TF.ProjectId,Thermocouple Data Logger,546865726D6F636F75706C6520446174,1*
G04 #@! TF.SameCoordinates,Original*
G04 #@! TF.FileFunction,Copper,L4,Bot,Signal*
G04 #@! TF.FilePolarity,Positive*
%FSLAX46Y46*%
G04 Gerber Fmt 4.6, Leading zero omitted, Abs format (unit mm)*
G04 Created by KiCad (PCBNEW (5.0-dev-4115-gdd04bcb)) date Saturday, April 28, 2018 at 02:22:02 AM*
%MOMM*%
%LPD*%
G01*
G04 APERTURE LIST*
%ADD10R,1.500000X1.500000*%
%ADD11C,1.500000*%
%ADD12C,2.250000*%
%ADD13R,2.250000X2.250000*%
%ADD14O,1.700000X1.700000*%
%ADD15R,1.700000X1.700000*%
%ADD16C,1.000000*%
%ADD17C,0.800000*%
%ADD18C,6.400000*%
%ADD19C,0.600000*%
%ADD20C,0.250000*%
%ADD21C,0.500000*%
G04 APERTURE END LIST*
D10*
X119650000Y-99900000D03*
D11*
X122190000Y-99900000D03*
X124730000Y-99900000D03*
X127270000Y-99900000D03*
X129810000Y-99900000D03*
X132350000Y-99900000D03*
X134890000Y-99900000D03*
X137430000Y-99900000D03*
X139970000Y-99900000D03*
X139970000Y-84660000D03*
X137430000Y-84660000D03*
X134890000Y-84660000D03*
X132350000Y-84660000D03*
X129810000Y-84660000D03*
X127270000Y-84660000D03*
X124730000Y-84660000D03*
X122190000Y-84660000D03*
X119650000Y-84660000D03*
D12*
X122575000Y-55275000D03*
D13*
X126075000Y-55275000D03*
X141075000Y-55225000D03*
D12*
X137575000Y-55225000D03*
D13*
X156075000Y-55275000D03*
D12*
X152575000Y-55275000D03*
X167575000Y-55275000D03*
D13*
X171075000Y-55275000D03*
D14*
X123920000Y-131540000D03*
X123920000Y-129000000D03*
X126460000Y-131540000D03*
X126460000Y-129000000D03*
X129000000Y-131540000D03*
D15*
X129000000Y-129000000D03*
D10*
X144900000Y-99900000D03*
D11*
X147440000Y-99900000D03*
X149980000Y-99900000D03*
X152520000Y-99900000D03*
X155060000Y-99900000D03*
X157600000Y-99900000D03*
X160140000Y-99900000D03*
X162680000Y-99900000D03*
X165220000Y-99900000D03*
X165220000Y-84660000D03*
X162680000Y-84660000D03*
X160140000Y-84660000D03*
X157600000Y-84660000D03*
X155060000Y-84660000D03*
X152520000Y-84660000D03*
X149980000Y-84660000D03*
X147440000Y-84660000D03*
X144900000Y-84660000D03*
D16*
X130800000Y-114500000D03*
X132700000Y-114500000D03*
D17*
X115697056Y-127402944D03*
X114000000Y-126700000D03*
X112302944Y-127402944D03*
X111600000Y-129100000D03*
X112302944Y-130797056D03*
X114000000Y-131500000D03*
X115697056Y-130797056D03*
X116400000Y-129100000D03*
D18*
X114000000Y-129100000D03*
X179000000Y-129100000D03*
D17*
X181400000Y-129100000D03*
X180697056Y-130797056D03*
X179000000Y-131500000D03*
X177302944Y-130797056D03*
X176600000Y-129100000D03*
X177302944Y-127402944D03*
X179000000Y-126700000D03*
X180697056Y-127402944D03*
D19*
X110174990Y-108550000D03*
X148137060Y-114875233D03*
X135403912Y-76999913D03*
X135144979Y-115865534D03*
X129263061Y-112736939D03*
X137258046Y-116024993D03*
X137300000Y-114574990D03*
X140250000Y-115950000D03*
X152258025Y-123513114D03*
X156350000Y-119950000D03*
X146541949Y-124208051D03*
X135100000Y-120050000D03*
X128750000Y-118000000D03*
X149600000Y-116550000D03*
X154400000Y-116550000D03*
X148050000Y-131900000D03*
X141750000Y-119400000D03*
X150650000Y-123800000D03*
X143600000Y-131400000D03*
X142550000Y-128200000D03*
X134700000Y-126550000D03*
X129625000Y-125250000D03*
X130800000Y-125250000D03*
X132750000Y-125300000D03*
X134750002Y-124450000D03*
X138100000Y-123800000D03*
X128113702Y-115187292D03*
X165150000Y-76000000D03*
X165350000Y-76825000D03*
X151300000Y-114600000D03*
X135200000Y-75224990D03*
X120149891Y-75654269D03*
X141200000Y-114700000D03*
X164000000Y-130000000D03*
X175800000Y-104900000D03*
X175699998Y-106450000D03*
X175850000Y-108050000D03*
X165200000Y-65800000D03*
X166500000Y-67200000D03*
X171600000Y-68500000D03*
X171200000Y-75600000D03*
X173400000Y-65800000D03*
X156600000Y-68500000D03*
X141600000Y-68500000D03*
X126600000Y-68500000D03*
X158400000Y-65700000D03*
X150200000Y-65700000D03*
X151500000Y-67150000D03*
X156125000Y-75600000D03*
X150228867Y-77053837D03*
X150199992Y-75800000D03*
X136500000Y-67200000D03*
X135300000Y-65800000D03*
X143400000Y-65800000D03*
X141000000Y-75600000D03*
X120200000Y-65800000D03*
X121500000Y-67200000D03*
X128400000Y-65800000D03*
X125900000Y-75600000D03*
X121500000Y-124000000D03*
X126800000Y-119000000D03*
X126800000Y-111600000D03*
X162100000Y-107300000D03*
X155200000Y-107300000D03*
X148100000Y-107300000D03*
X141100000Y-107300000D03*
X134100000Y-107300000D03*
X162800000Y-120600000D03*
X156300000Y-118650000D03*
X171100000Y-113500000D03*
X175500000Y-112150000D03*
X178500000Y-110850000D03*
X178500000Y-112100000D03*
X111600000Y-124000000D03*
X150550000Y-127000000D03*
X162200000Y-126400000D03*
X154250000Y-126400000D03*
X155300000Y-122700000D03*
X169100000Y-114850000D03*
X165300000Y-114600000D03*
X162200000Y-114900000D03*
X155100000Y-114900004D03*
X158350000Y-114600000D03*
X144300000Y-114600000D03*
X177200000Y-75550000D03*
X173600000Y-74650000D03*
X174300000Y-75550000D03*
X175750000Y-75550000D03*
X177900000Y-74650000D03*
X134150000Y-120300001D03*
X150700000Y-124600000D03*
X121150000Y-74850000D03*
X143152486Y-116782838D03*
X134850000Y-122250000D03*
X141450000Y-131600000D03*
X136550000Y-132000000D03*
X128113702Y-116287292D03*
X112550000Y-92450000D03*
X112550000Y-90450000D03*
X112450000Y-91500000D03*
X152050000Y-129950000D03*
X152050000Y-126000000D03*
X172100000Y-108750000D03*
X170100000Y-108750000D03*
X171100000Y-108700000D03*
X176100000Y-115000000D03*
X170800000Y-86250000D03*
X172100000Y-86250000D03*
X173250000Y-86250000D03*
X174500000Y-86250000D03*
X123300000Y-69700000D03*
X131400000Y-120600000D03*
X149750000Y-125600000D03*
X153250000Y-123449999D03*
X149500000Y-120000000D03*
X147525013Y-118350000D03*
X136050000Y-114775010D03*
X135157257Y-114715523D03*
X166550000Y-114950000D03*
X117574990Y-94650000D03*
X117574990Y-93350000D03*
X117574990Y-94000000D03*
X139250000Y-112300000D03*
X142350000Y-112250000D03*
X145600000Y-114900000D03*
X149350000Y-114600000D03*
X156400000Y-114600000D03*
X152600000Y-114900000D03*
X159550000Y-114900000D03*
X163150000Y-114600000D03*
X163950000Y-114800000D03*
X167100000Y-89150000D03*
X167100000Y-88350000D03*
X152250000Y-119550000D03*
X150643769Y-119643769D03*
X140400000Y-128100000D03*
X146250000Y-127950000D03*
X146550000Y-125075000D03*
X146550000Y-112250000D03*
X146250003Y-109050000D03*
X137736059Y-75894461D03*
X170050000Y-78600000D03*
X138300000Y-69650000D03*
X138450000Y-76700000D03*
X134050000Y-74500000D03*
X112600000Y-75700000D03*
X135700000Y-132375000D03*
X153350000Y-69650000D03*
X171350000Y-78600000D03*
X153250000Y-76700000D03*
X152800004Y-76100000D03*
X142350000Y-131700001D03*
X152319069Y-130703395D03*
X152950000Y-128700000D03*
X168350000Y-69700000D03*
X172650000Y-78600000D03*
X168200000Y-76700000D03*
X167750000Y-76100000D03*
X133250000Y-122500000D03*
X140550000Y-130900000D03*
X160800000Y-123500000D03*
X182200000Y-92100000D03*
X183150001Y-103999999D03*
X127575000Y-120675000D03*
X132872554Y-116899988D03*
X148150000Y-128750000D03*
X127050000Y-121350000D03*
X146800000Y-126825010D03*
X132500000Y-119800000D03*
X144390699Y-131278354D03*
X144150000Y-132550000D03*
X133650000Y-98100000D03*
X138300000Y-110775010D03*
X132300000Y-80150000D03*
X138640731Y-105303186D03*
X138358732Y-109558732D03*
X137691268Y-108741268D03*
X134426078Y-110198630D03*
X136200000Y-109250000D03*
X134750000Y-86650000D03*
X136650000Y-106425000D03*
X145550000Y-109050000D03*
X138750000Y-80050000D03*
X144499988Y-108895176D03*
X137300000Y-105300000D03*
X140250011Y-106150000D03*
X138300000Y-105950000D03*
X148861728Y-109150011D03*
X146100000Y-80250000D03*
X151400000Y-104500000D03*
X149350000Y-105960011D03*
X161400000Y-80100000D03*
X157650000Y-106300000D03*
X160150000Y-104510000D03*
X157000000Y-105610017D03*
X164100000Y-104500000D03*
X163900000Y-105610001D03*
X169275011Y-109663713D03*
X169850000Y-90050000D03*
X143550000Y-115650000D03*
X145100000Y-123800000D03*
X136747992Y-111000031D03*
X164600000Y-110750000D03*
X143700000Y-110750000D03*
X150700000Y-110750000D03*
X157650000Y-110750000D03*
X142850076Y-115638904D03*
X144600000Y-123300000D03*
X136008465Y-111000031D03*
X143000000Y-110575021D03*
X150000000Y-110100000D03*
X164000000Y-110100000D03*
X157000000Y-110100000D03*
X144300000Y-122550000D03*
X138106908Y-114746930D03*
X114840012Y-72475010D03*
X143350000Y-121500000D03*
X138250000Y-124900000D03*
X133950000Y-125900000D03*
X128250000Y-125600000D03*
X121950000Y-72800000D03*
X151900000Y-70575000D03*
X122249999Y-71800000D03*
X112650000Y-77200000D03*
X128250000Y-126550000D03*
X135350000Y-127100000D03*
X139050000Y-123700000D03*
X141978768Y-122078768D03*
X150600000Y-125600003D03*
X153600000Y-125600000D03*
X162700000Y-76600000D03*
X129078756Y-111421234D03*
X137700000Y-117775010D03*
X122696581Y-76892823D03*
X137904310Y-116506827D03*
X122650000Y-77750000D03*
X138596625Y-116403375D03*
X122700000Y-78450000D03*
X139466506Y-115788329D03*
X148575676Y-115544288D03*
X148075010Y-112850000D03*
X155800000Y-78525000D03*
X146808425Y-109484340D03*
X148150000Y-116100000D03*
X147850000Y-111900000D03*
X147599998Y-109600000D03*
X155100000Y-79250000D03*
X166250000Y-68500000D03*
X144250000Y-119450000D03*
X152900000Y-72750000D03*
X145993769Y-119293769D03*
X168250000Y-72750000D03*
X138200000Y-72750000D03*
X123300000Y-72700000D03*
X124400000Y-71625010D03*
X154300000Y-71625010D03*
X139200000Y-71625010D03*
X146424990Y-116821239D03*
X124141268Y-75841268D03*
X169550000Y-70800000D03*
X153736994Y-72040993D03*
X123754520Y-71895883D03*
X138716060Y-72130796D03*
X149000000Y-119000000D03*
X169050000Y-81500000D03*
X168850000Y-71800000D03*
X142423111Y-111512434D03*
X152000000Y-111350000D03*
X165400000Y-111650000D03*
X156500000Y-111650000D03*
X116150000Y-84050000D03*
X141050000Y-120600000D03*
D20*
X134150000Y-117434970D02*
X134150000Y-119875737D01*
X130800000Y-114500000D02*
X132334937Y-116034937D01*
X132749968Y-116034938D02*
X134150000Y-117434970D01*
X134150000Y-119875737D02*
X134150000Y-120300001D01*
X132334937Y-116034937D02*
X132749968Y-116034938D01*
X149750000Y-125600000D02*
X149050000Y-126300000D01*
X149050000Y-126300000D02*
X144600000Y-126300000D01*
X144600000Y-126300000D02*
X139450000Y-121150000D01*
X139450000Y-121150000D02*
X131950000Y-121150000D01*
X131950000Y-121150000D02*
X131699999Y-120899999D01*
X131699999Y-120899999D02*
X131400000Y-120600000D01*
X149799999Y-120299999D02*
X150100000Y-120299999D01*
X150100000Y-120299999D02*
X152950001Y-123150000D01*
X149500000Y-120000000D02*
X149799999Y-120299999D01*
X152950001Y-123150000D02*
X153250000Y-123449999D01*
X145600000Y-114900000D02*
X145600000Y-115250000D01*
X146950000Y-117250000D02*
X147525013Y-117825013D01*
X147525013Y-117825013D02*
X147525013Y-118350000D01*
X145600000Y-115250000D02*
X146950000Y-116600000D01*
X146950000Y-116600000D02*
X146950000Y-117250000D01*
X150643769Y-119643769D02*
X152156231Y-119643769D01*
X152156231Y-119643769D02*
X152250000Y-119550000D01*
X146250000Y-127950000D02*
X145874999Y-127574999D01*
X145874999Y-127574999D02*
X140925001Y-127574999D01*
X140925001Y-127574999D02*
X140400000Y-128100000D01*
X146550000Y-115705012D02*
X148050014Y-117205026D01*
X148050014Y-123624988D02*
X146600002Y-125075000D01*
X146550000Y-112250000D02*
X146550000Y-115705012D01*
X146600002Y-125075000D02*
X146550000Y-125075000D01*
X148050014Y-117205026D02*
X148050014Y-123624988D01*
X138450000Y-76700000D02*
X140945001Y-79195001D01*
X140945001Y-79195001D02*
X140945001Y-103667999D01*
X140945001Y-103667999D02*
X146075001Y-108797999D01*
X146075001Y-108797999D02*
X146075001Y-109100000D01*
X135700000Y-132375000D02*
X133675000Y-130350000D01*
X133675000Y-130350000D02*
X128000000Y-130350000D01*
X110624998Y-91450000D02*
X110850000Y-91224998D01*
X110850000Y-88449002D02*
X110824999Y-88424001D01*
X110800000Y-110845000D02*
X110800000Y-91625002D01*
X127700000Y-130050000D02*
X127700000Y-127745000D01*
X110800000Y-91625002D02*
X110624998Y-91450000D01*
X128000000Y-130350000D02*
X127700000Y-130050000D01*
X110850000Y-91224998D02*
X110850000Y-88449002D01*
X127700000Y-127745000D02*
X110800000Y-110845000D01*
X110824999Y-88424001D02*
X110824999Y-87775999D01*
X110824999Y-87775999D02*
X110850000Y-87750998D01*
X110850000Y-87750998D02*
X110850000Y-77450000D01*
X110850000Y-77450000D02*
X112600000Y-75700000D01*
X134050000Y-74500000D02*
X140825002Y-74500000D01*
X140825002Y-74500000D02*
X142753838Y-76428836D01*
X142753838Y-76428836D02*
X152471168Y-76428836D01*
X152471168Y-76428836D02*
X152500005Y-76399999D01*
X152500005Y-76399999D02*
X152800004Y-76100000D01*
X152319069Y-130703395D02*
X143346606Y-130703395D01*
X143346606Y-130703395D02*
X142350000Y-131700001D01*
X155924993Y-115924999D02*
X151297999Y-115924999D01*
X151297999Y-115924999D02*
X148474999Y-118747999D01*
X168200000Y-111375000D02*
X165600001Y-113974999D01*
X168200000Y-76700000D02*
X168200000Y-111375000D01*
X165600001Y-113974999D02*
X157874993Y-113974999D01*
X157874993Y-113974999D02*
X155924993Y-115924999D01*
X148474999Y-118747999D02*
X148474999Y-120655090D01*
X148474999Y-120655090D02*
X152950000Y-125130091D01*
X152950000Y-125130091D02*
X152950000Y-128700000D01*
X133250000Y-122500000D02*
X133250000Y-123725002D01*
X133250000Y-123725002D02*
X132124999Y-124850003D01*
X132124999Y-124850003D02*
X132124999Y-125600001D01*
X132124999Y-125600001D02*
X137424998Y-130900000D01*
X137424998Y-130900000D02*
X140125736Y-130900000D01*
X140125736Y-130900000D02*
X140550000Y-130900000D01*
X160800000Y-123500000D02*
X155024999Y-129275001D01*
X155024999Y-129275001D02*
X148119987Y-129275001D01*
X148119987Y-129275001D02*
X147994979Y-129400009D01*
X147994979Y-129400009D02*
X142049991Y-129400009D01*
X142049991Y-129400009D02*
X140849999Y-130600001D01*
X140849999Y-130600001D02*
X140550000Y-130900000D01*
X180800000Y-123950000D02*
X161250000Y-123950000D01*
X161250000Y-123950000D02*
X160800000Y-123500000D01*
X182200000Y-122550000D02*
X180800000Y-123950000D01*
X182200000Y-92100000D02*
X182200000Y-122550000D01*
D21*
X129000000Y-131540000D02*
X130880990Y-133420990D01*
X130880990Y-133420990D02*
X182879010Y-133420990D01*
X182879010Y-133420990D02*
X183420990Y-132879010D01*
X183420990Y-104270988D02*
X183150001Y-103999999D01*
X183420990Y-132879010D02*
X183420990Y-104270988D01*
D20*
X127575000Y-120675000D02*
X129000000Y-122100000D01*
X129000000Y-122100000D02*
X129000000Y-129000000D01*
X147850001Y-128450001D02*
X148150000Y-128750000D01*
X144510032Y-127200012D02*
X146397998Y-127200012D01*
X140135021Y-122825001D02*
X144510032Y-127200012D01*
X135300001Y-122825001D02*
X140135021Y-122825001D01*
X130000002Y-121900000D02*
X133574998Y-121900000D01*
X135250001Y-122875001D02*
X135300001Y-122825001D01*
X146397998Y-127200012D02*
X147647987Y-128450001D01*
X133574998Y-121900000D02*
X134549999Y-122875001D01*
X128250001Y-120149999D02*
X130000002Y-121900000D01*
X147647987Y-128450001D02*
X147850001Y-128450001D01*
X134549999Y-122875001D02*
X135250001Y-122875001D01*
X132572555Y-117199987D02*
X132872554Y-116899988D01*
X129622543Y-120149999D02*
X132572555Y-117199987D01*
X128250001Y-120149999D02*
X129622543Y-120149999D01*
X127050000Y-121350000D02*
X127050000Y-120422998D01*
X127322999Y-120149999D02*
X128250001Y-120149999D01*
X127050000Y-120422998D02*
X127322999Y-120149999D01*
X139305021Y-121500011D02*
X144630020Y-126825010D01*
X144630020Y-126825010D02*
X146375736Y-126825010D01*
X146375736Y-126825010D02*
X146800000Y-126825010D01*
X130874999Y-120347999D02*
X130874999Y-120852001D01*
X132500000Y-119800000D02*
X131422998Y-119800000D01*
X131422998Y-119800000D02*
X130874999Y-120347999D01*
X131523009Y-121500011D02*
X139305021Y-121500011D01*
X130874999Y-120852001D02*
X131523009Y-121500011D01*
X144150000Y-132550000D02*
X144390699Y-132309301D01*
X144390699Y-132309301D02*
X144390699Y-131278354D01*
X137025002Y-108897998D02*
X137025002Y-109500012D01*
X133650000Y-105522996D02*
X137025002Y-108897998D01*
X137025002Y-109500012D02*
X138300000Y-110775010D01*
X133650000Y-98100000D02*
X133650000Y-105522996D01*
X138640731Y-105303186D02*
X136450000Y-103112455D01*
X136450000Y-103112455D02*
X136450000Y-84300000D01*
X136450000Y-84300000D02*
X132300000Y-80150000D01*
X137691268Y-108741268D02*
X137691268Y-108891268D01*
X137691268Y-108891268D02*
X138358732Y-109558732D01*
X134726077Y-109898631D02*
X134426078Y-110198630D01*
X135374708Y-109250000D02*
X134726077Y-109898631D01*
X136200000Y-109250000D02*
X135374708Y-109250000D01*
X136650000Y-106425000D02*
X136099990Y-105874990D01*
X136099990Y-105874990D02*
X136099990Y-87999990D01*
X136099990Y-87999990D02*
X134750000Y-86650000D01*
X145250001Y-108750001D02*
X145550000Y-109050000D01*
X138750000Y-80050000D02*
X138750000Y-102250000D01*
X138750000Y-102250000D02*
X145250001Y-108750001D01*
X140470912Y-108895176D02*
X144075724Y-108895176D01*
X137300000Y-105724264D02*
X140470912Y-108895176D01*
X137300000Y-105300000D02*
X137300000Y-105724264D01*
X144075724Y-108895176D02*
X144499988Y-108895176D01*
X140050011Y-105950000D02*
X140250011Y-106150000D01*
X138300000Y-105950000D02*
X140050011Y-105950000D01*
X146100000Y-80250000D02*
X146100000Y-106388283D01*
X146100000Y-106388283D02*
X148861728Y-109150011D01*
X149350000Y-105960011D02*
X149939989Y-105960011D01*
X149939989Y-105960011D02*
X151400000Y-104500000D01*
X157650000Y-106300000D02*
X160450000Y-106300000D01*
X160450000Y-106300000D02*
X161400000Y-105350000D01*
X161400000Y-105350000D02*
X161400000Y-80100000D01*
X159689983Y-105610017D02*
X160150000Y-105150000D01*
X160150000Y-105150000D02*
X160150000Y-104510000D01*
X157000000Y-105610017D02*
X159689983Y-105610017D01*
X163900000Y-105610001D02*
X163900000Y-104700000D01*
X163900000Y-104700000D02*
X164100000Y-104500000D01*
X169275011Y-109239449D02*
X169275011Y-109663713D01*
X169275011Y-90624989D02*
X169275011Y-109239449D01*
X169850000Y-90050000D02*
X169275011Y-90624989D01*
X145399999Y-123500001D02*
X145399999Y-117075735D01*
X145100000Y-123800000D02*
X145399999Y-123500001D01*
X143974264Y-115650000D02*
X143550000Y-115650000D01*
X145399999Y-117075735D02*
X143974264Y-115650000D01*
X150275736Y-110750000D02*
X150700000Y-110750000D01*
X150237667Y-110788069D02*
X150275736Y-110750000D01*
X144162333Y-110788069D02*
X150237667Y-110788069D01*
X144124264Y-110750000D02*
X144162333Y-110788069D01*
X143700000Y-110750000D02*
X144124264Y-110750000D01*
X139572002Y-110775000D02*
X138696980Y-111650022D01*
X143602023Y-110750000D02*
X143252001Y-111100022D01*
X137397983Y-111650022D02*
X136747992Y-111000031D01*
X143252001Y-111100022D02*
X142747999Y-111100022D01*
X142422977Y-110775000D02*
X139572002Y-110775000D01*
X138696980Y-111650022D02*
X137397983Y-111650022D01*
X142747999Y-111100022D02*
X142422977Y-110775000D01*
X143700000Y-110750000D02*
X143602023Y-110750000D01*
X157650000Y-110750000D02*
X164600000Y-110750000D01*
X150700000Y-110750000D02*
X157650000Y-110750000D01*
X164575000Y-110775000D02*
X164600000Y-110750000D01*
X142850076Y-115727080D02*
X142850076Y-115638904D01*
X144899999Y-123000001D02*
X144899999Y-117484359D01*
X143590643Y-116175003D02*
X143297998Y-116175002D01*
X143297998Y-116175002D02*
X142850076Y-115727080D01*
X144899999Y-117484359D02*
X143590643Y-116175003D01*
X144600000Y-123300000D02*
X144899999Y-123000001D01*
X146322998Y-110100000D02*
X143475021Y-110100000D01*
X143475021Y-110100000D02*
X143000000Y-110575021D01*
X146661056Y-110438058D02*
X146322998Y-110100000D01*
X150000000Y-110100000D02*
X149661942Y-110438058D01*
X149661942Y-110438058D02*
X146661056Y-110438058D01*
X136922999Y-110175011D02*
X136409221Y-110175011D01*
X138552001Y-111300011D02*
X138047999Y-111300011D01*
X138047999Y-111300011D02*
X136922999Y-110175011D01*
X136409221Y-110175011D02*
X136008465Y-110575767D01*
X142700001Y-110275022D02*
X139576990Y-110275022D01*
X143000000Y-110575021D02*
X142700001Y-110275022D01*
X139576990Y-110275022D02*
X138552001Y-111300011D01*
X136008465Y-110575767D02*
X136008465Y-111000031D01*
X157000000Y-110100000D02*
X164000000Y-110100000D01*
X150000000Y-110100000D02*
X157000000Y-110100000D01*
X144300000Y-122125736D02*
X144300000Y-122550000D01*
X138106908Y-114746930D02*
X138106908Y-115171194D01*
X138106908Y-115171194D02*
X140160715Y-117225001D01*
X140160715Y-117225001D02*
X140584979Y-117225001D01*
X140584979Y-117225001D02*
X144300000Y-120940022D01*
X144300000Y-120940022D02*
X144300000Y-122125736D01*
X118805040Y-101950022D02*
X116700000Y-99844982D01*
X116700000Y-99844982D02*
X116700000Y-74334998D01*
X133775011Y-114007019D02*
X121718014Y-101950022D01*
X115140011Y-72775009D02*
X114840012Y-72475010D01*
X135450000Y-117250000D02*
X133775011Y-115575011D01*
X138674998Y-117250000D02*
X135450000Y-117250000D01*
X133775011Y-115575011D02*
X133775011Y-114007019D01*
X142924998Y-121500000D02*
X138674998Y-117250000D01*
X143350000Y-121500000D02*
X142924998Y-121500000D01*
X116700000Y-74334998D02*
X115140011Y-72775009D01*
X121718014Y-101950022D02*
X118805040Y-101950022D01*
X114100000Y-71950000D02*
X113249990Y-72800010D01*
X121950000Y-72800000D02*
X121100000Y-71950000D01*
X121100000Y-71950000D02*
X114100000Y-71950000D01*
X113249990Y-72800010D02*
X113249990Y-110599990D01*
X113249990Y-110599990D02*
X128250000Y-125600000D01*
X133950000Y-125900000D02*
X137250000Y-125900000D01*
X137250000Y-125900000D02*
X138250000Y-124900000D01*
X122249999Y-71800000D02*
X122249999Y-71375736D01*
X122249999Y-71375736D02*
X123050735Y-70575000D01*
X123050735Y-70575000D02*
X151900000Y-70575000D01*
X128250000Y-126550000D02*
X112249999Y-110549999D01*
X112249999Y-110549999D02*
X112249999Y-93075001D01*
X111824999Y-92650001D02*
X111824999Y-90249999D01*
X112249999Y-93075001D02*
X111824999Y-92650001D01*
X111824999Y-90249999D02*
X112650000Y-89424998D01*
X112650000Y-89424998D02*
X112650000Y-77200000D01*
X139050000Y-123700000D02*
X139050000Y-124877002D01*
X139050000Y-124877002D02*
X136827002Y-127100000D01*
X136827002Y-127100000D02*
X135350000Y-127100000D01*
X141978768Y-122078768D02*
X145500001Y-125600001D01*
X145500001Y-125600001D02*
X148972997Y-125600001D01*
X148972997Y-125600001D02*
X149497999Y-125074999D01*
X149497999Y-125074999D02*
X150074996Y-125074999D01*
X150074996Y-125074999D02*
X150300001Y-125300004D01*
X150300001Y-125300004D02*
X150600000Y-125600003D01*
X162700000Y-76600000D02*
X167224999Y-81124999D01*
X167224999Y-81124999D02*
X167224999Y-75847999D01*
X167224999Y-75847999D02*
X167497999Y-75574999D01*
X167497999Y-75574999D02*
X168002001Y-75574999D01*
X168002001Y-75574999D02*
X168797999Y-76370997D01*
X168797999Y-76370997D02*
X168797999Y-80470997D01*
X168797999Y-80470997D02*
X170102001Y-81774999D01*
X170102001Y-81774999D02*
X170102001Y-89524999D01*
X170102001Y-89524999D02*
X172725001Y-92147999D01*
X172725001Y-92147999D02*
X172725001Y-109552001D01*
X172725001Y-109552001D02*
X156677002Y-125600000D01*
X156677002Y-125600000D02*
X153600000Y-125600000D01*
X133199990Y-115073012D02*
X133425001Y-114848001D01*
X133048001Y-113774999D02*
X131680008Y-113774998D01*
X133199989Y-115494979D02*
X133199990Y-115073012D01*
X129326244Y-111421234D02*
X129078756Y-111421234D01*
X135480020Y-117775010D02*
X133199989Y-115494979D01*
X133425001Y-114848001D02*
X133425001Y-114151999D01*
X137700000Y-117775010D02*
X135480020Y-117775010D01*
X133425001Y-114151999D02*
X133048001Y-113774999D01*
X131680008Y-113774998D02*
X129326244Y-111421234D01*
X122272317Y-76892823D02*
X122696581Y-76892823D01*
X134905256Y-115240524D02*
X134632256Y-114967524D01*
X134632256Y-114327246D02*
X121905021Y-101600011D01*
X137604311Y-116806826D02*
X136975560Y-116806826D01*
X121905021Y-101600011D02*
X118950018Y-101600010D01*
X118099990Y-99005020D02*
X118099990Y-81065150D01*
X118099989Y-100749981D02*
X118099990Y-99005020D01*
X118099990Y-81065150D02*
X122272317Y-76892823D01*
X118950018Y-101600010D02*
X118099989Y-100749981D01*
X135409258Y-115240524D02*
X134905256Y-115240524D01*
X134632256Y-114967524D02*
X134632256Y-114327246D01*
X136975560Y-116806826D02*
X135409258Y-115240524D01*
X137904310Y-116506827D02*
X137604311Y-116806826D01*
X135400000Y-114250000D02*
X122400000Y-101250000D01*
X118550000Y-100705002D02*
X118550000Y-81850000D01*
X137393241Y-115199991D02*
X136999999Y-115199991D01*
X136674999Y-114874991D02*
X136674999Y-114524999D01*
X118550000Y-81850000D02*
X122350001Y-78049999D01*
X138596625Y-116403375D02*
X137393241Y-115199991D01*
X119094998Y-101250000D02*
X118550000Y-100705002D01*
X136674999Y-114524999D02*
X136400000Y-114250000D01*
X122400000Y-101250000D02*
X119094998Y-101250000D01*
X136999999Y-115199991D02*
X136674999Y-114874991D01*
X122350001Y-78049999D02*
X122650000Y-77750000D01*
X136400000Y-114250000D02*
X135400000Y-114250000D01*
X139466506Y-115788329D02*
X139466506Y-115364065D01*
X137977472Y-113875031D02*
X135658031Y-113875031D01*
X135658031Y-113875031D02*
X122658001Y-100875001D01*
X139466506Y-115364065D02*
X137977472Y-113875031D01*
X122658001Y-100875001D02*
X121721999Y-100875001D01*
X121721999Y-100875001D02*
X121214999Y-100368001D01*
X121214999Y-100368001D02*
X121214999Y-79935001D01*
X121214999Y-79935001D02*
X122700000Y-78450000D01*
X148075010Y-112850000D02*
X148810505Y-113585495D01*
X148810505Y-113585495D02*
X148810505Y-115309459D01*
X148810505Y-115309459D02*
X148575676Y-115544288D01*
X146808425Y-109484340D02*
X146808425Y-108453413D01*
X146808425Y-108453413D02*
X143574989Y-105219977D01*
X143574989Y-105219977D02*
X143574989Y-81503021D01*
X143574989Y-81503021D02*
X146553010Y-78525000D01*
X146553010Y-78525000D02*
X155800000Y-78525000D01*
X147512059Y-112237941D02*
X147512059Y-115462059D01*
X147512059Y-115462059D02*
X147850001Y-115800001D01*
X147850000Y-111900000D02*
X147512059Y-112237941D01*
X147850001Y-115800001D02*
X148150000Y-116100000D01*
X143924999Y-81647999D02*
X143924999Y-105074999D01*
X147299999Y-108449999D02*
X147299999Y-109300001D01*
X146322998Y-79250000D02*
X143924999Y-81647999D01*
X143924999Y-105074999D02*
X147299999Y-108449999D01*
X155100000Y-79250000D02*
X146322998Y-79250000D01*
X147299999Y-109300001D02*
X147599998Y-109600000D01*
X144250000Y-119450000D02*
X144250000Y-119025736D01*
X122774999Y-73094251D02*
X122774999Y-71647999D01*
X136020011Y-113525021D02*
X123225001Y-100730011D01*
X144250000Y-119025736D02*
X138749285Y-113525021D01*
X138749285Y-113525021D02*
X136020011Y-113525021D01*
X123225001Y-100730011D02*
X123225001Y-73544253D01*
X123225001Y-73544253D02*
X122774999Y-73094251D01*
X122774999Y-71647999D02*
X123322998Y-71100000D01*
X123322998Y-71100000D02*
X163650000Y-71100000D01*
X163650000Y-71100000D02*
X165950001Y-68799999D01*
X165950001Y-68799999D02*
X166250000Y-68500000D01*
X138200000Y-72750000D02*
X152900000Y-72750000D01*
X152900000Y-72750000D02*
X168250000Y-72750000D01*
X123599999Y-100610019D02*
X123599999Y-72999999D01*
X140600013Y-113175011D02*
X136164990Y-113175010D01*
X142538905Y-115113903D02*
X140600013Y-113175011D01*
X123599999Y-72999999D02*
X123300000Y-72700000D01*
X145993769Y-117174517D02*
X143933155Y-115113903D01*
X136164990Y-113175010D02*
X123599999Y-100610019D01*
X143933155Y-115113903D02*
X142538905Y-115113903D01*
X145993769Y-119293769D02*
X145993769Y-117174517D01*
X169575001Y-78902003D02*
X169524999Y-78852001D01*
X169524999Y-78852001D02*
X169524999Y-78200003D01*
X169524999Y-78200003D02*
X170334090Y-77390912D01*
X170334090Y-77390912D02*
X170334090Y-74834090D01*
X170334090Y-74834090D02*
X168250000Y-72750000D01*
X124874264Y-71575010D02*
X139150000Y-71575010D01*
X124824264Y-71625010D02*
X124874264Y-71575010D01*
X163619980Y-71625010D02*
X154724264Y-71625010D01*
X139150000Y-71575010D02*
X139200000Y-71625010D01*
X154125001Y-71450011D02*
X154300000Y-71625010D01*
X139624264Y-71625010D02*
X139799263Y-71450011D01*
X154724264Y-71625010D02*
X154300000Y-71625010D01*
X139799263Y-71450011D02*
X154125001Y-71450011D01*
X169550000Y-70800000D02*
X164444990Y-70800000D01*
X139200000Y-71625010D02*
X139624264Y-71625010D01*
X124400000Y-71625010D02*
X124824264Y-71625010D01*
X164444990Y-70800000D02*
X163619980Y-71625010D01*
X146124991Y-116521240D02*
X146424990Y-116821239D01*
X131374999Y-107890029D02*
X136309970Y-112825000D01*
X143798001Y-112825001D02*
X145074999Y-114101999D01*
X145074999Y-114101999D02*
X145074999Y-115471248D01*
X136309970Y-112825000D02*
X143798001Y-112825001D01*
X145074999Y-115471248D02*
X146124991Y-116521240D01*
X131374999Y-83074999D02*
X131374999Y-107890029D01*
X124141268Y-75841268D02*
X131374999Y-83074999D01*
X138226710Y-72195882D02*
X124054519Y-72195882D01*
X138291796Y-72130796D02*
X138226710Y-72195882D01*
X153736994Y-72040993D02*
X153312730Y-72040993D01*
X124054519Y-72195882D02*
X123754520Y-71895883D01*
X153203711Y-72150012D02*
X138735276Y-72150012D01*
X168499988Y-72150012D02*
X153846013Y-72150012D01*
X153312730Y-72040993D02*
X153203711Y-72150012D01*
X153846013Y-72150012D02*
X153736994Y-72040993D01*
X138716060Y-72130796D02*
X138291796Y-72130796D01*
X138735276Y-72150012D02*
X138716060Y-72130796D01*
X168850000Y-71800000D02*
X168499988Y-72150012D01*
X168750001Y-81799999D02*
X169050000Y-81500000D01*
X166024999Y-114797999D02*
X166024999Y-114697999D01*
X166024999Y-114697999D02*
X168750001Y-111972997D01*
X163647997Y-117175001D02*
X166024999Y-114797999D01*
X168750001Y-111972997D02*
X168750001Y-81799999D01*
X149000000Y-119000000D02*
X150824999Y-117175001D01*
X150824999Y-117175001D02*
X163647997Y-117175001D01*
X146360564Y-111512434D02*
X142423111Y-111512434D01*
X147402001Y-111324999D02*
X146547999Y-111324999D01*
X146547999Y-111324999D02*
X146360564Y-111512434D01*
X152000000Y-111350000D02*
X147427002Y-111350000D01*
X147427002Y-111350000D02*
X147402001Y-111324999D01*
X131535028Y-114125008D02*
X129356256Y-111946236D01*
X116150000Y-84474264D02*
X116150000Y-84050000D01*
X132435021Y-115225001D02*
X132351999Y-115225001D01*
X128306264Y-111946236D02*
X116150000Y-99789972D01*
X131535028Y-114408030D02*
X131535028Y-114125008D01*
X129356256Y-111946236D02*
X128306264Y-111946236D01*
X137810020Y-120600000D02*
X132435021Y-115225001D01*
X132351999Y-115225001D02*
X131535028Y-114408030D01*
X141050000Y-120600000D02*
X137810020Y-120600000D01*
X116150000Y-99789972D02*
X116150000Y-84474264D01*
X123300000Y-72700000D02*
X138150000Y-72700000D01*
X138150000Y-72700000D02*
X138200000Y-72750000D01*
X156500000Y-111650000D02*
X165400000Y-111650000D01*
M02*
