G04 #@! TF.GenerationSoftware,KiCad,Pcbnew,(5.0-dev-4115-gdd04bcb)*
G04 #@! TF.CreationDate,2018-03-06T13:39:24-08:00*
G04 #@! TF.ProjectId,Thermocouple Data Logger,546865726D6F636F75706C6520446174,rev?*
G04 #@! TF.SameCoordinates,Original*
G04 #@! TF.FileFunction,Copper,L3,Inr,Plane*
G04 #@! TF.FilePolarity,Positive*
%FSLAX46Y46*%
G04 Gerber Fmt 4.6, Leading zero omitted, Abs format (unit mm)*
G04 Created by KiCad (PCBNEW (5.0-dev-4115-gdd04bcb)) date Tuesday, March 06, 2018 at 01:39:24 PM*
%MOMM*%
%LPD*%
G01*
G04 APERTURE LIST*
%ADD10R,1.500000X1.500000*%
%ADD11C,1.500000*%
%ADD12C,2.250000*%
%ADD13R,2.250000X2.250000*%
%ADD14O,1.700000X1.700000*%
%ADD15R,1.700000X1.700000*%
%ADD16C,1.000000*%
%ADD17C,0.800000*%
%ADD18C,6.400000*%
%ADD19C,0.600000*%
%ADD20C,0.250000*%
%ADD21C,0.254000*%
G04 APERTURE END LIST*
D10*
X119650000Y-99900000D03*
D11*
X122190000Y-99900000D03*
X124730000Y-99900000D03*
X127270000Y-99900000D03*
X129810000Y-99900000D03*
X132350000Y-99900000D03*
X134890000Y-99900000D03*
X137430000Y-99900000D03*
X139970000Y-99900000D03*
X139970000Y-84660000D03*
X137430000Y-84660000D03*
X134890000Y-84660000D03*
X132350000Y-84660000D03*
X129810000Y-84660000D03*
X127270000Y-84660000D03*
X124730000Y-84660000D03*
X122190000Y-84660000D03*
X119650000Y-84660000D03*
D12*
X122575000Y-55275000D03*
D13*
X126075000Y-55275000D03*
X141075000Y-55225000D03*
D12*
X137575000Y-55225000D03*
D13*
X156075000Y-55275000D03*
D12*
X152575000Y-55275000D03*
X167575000Y-55275000D03*
D13*
X171075000Y-55275000D03*
D14*
X123920000Y-131540000D03*
X123920000Y-129000000D03*
X126460000Y-131540000D03*
X126460000Y-129000000D03*
X129000000Y-131540000D03*
D15*
X129000000Y-129000000D03*
D10*
X144900000Y-99900000D03*
D11*
X147440000Y-99900000D03*
X149980000Y-99900000D03*
X152520000Y-99900000D03*
X155060000Y-99900000D03*
X157600000Y-99900000D03*
X160140000Y-99900000D03*
X162680000Y-99900000D03*
X165220000Y-99900000D03*
X165220000Y-84660000D03*
X162680000Y-84660000D03*
X160140000Y-84660000D03*
X157600000Y-84660000D03*
X155060000Y-84660000D03*
X152520000Y-84660000D03*
X149980000Y-84660000D03*
X147440000Y-84660000D03*
X144900000Y-84660000D03*
D16*
X130800000Y-119500000D03*
X132700000Y-119500000D03*
D17*
X115697056Y-127402944D03*
X114000000Y-126700000D03*
X112302944Y-127402944D03*
X111600000Y-129100000D03*
X112302944Y-130797056D03*
X114000000Y-131500000D03*
X115697056Y-130797056D03*
X116400000Y-129100000D03*
D18*
X114000000Y-129100000D03*
X179000000Y-129100000D03*
D17*
X181400000Y-129100000D03*
X180697056Y-130797056D03*
X179000000Y-131500000D03*
X177302944Y-130797056D03*
X176600000Y-129100000D03*
X177302944Y-127402944D03*
X179000000Y-126700000D03*
X180697056Y-127402944D03*
D19*
X141449992Y-116800000D03*
X165150000Y-76000000D03*
X165350000Y-76825000D03*
X143168778Y-115459043D03*
X152123866Y-117804635D03*
X151300000Y-114600000D03*
X150249019Y-118009522D03*
X135400000Y-76874990D03*
X135200000Y-75224990D03*
X120149891Y-75654269D03*
X141650002Y-116050000D03*
X141200000Y-114700000D03*
X144224998Y-129800032D03*
X144200000Y-131650000D03*
X142625000Y-127025000D03*
X136000000Y-121525000D03*
X136000000Y-120875010D03*
X129300000Y-116750000D03*
X129450000Y-117550000D03*
X133900000Y-117550000D03*
X164000000Y-130000000D03*
X175800000Y-104900000D03*
X175699998Y-106450000D03*
X175850000Y-108050000D03*
X165200000Y-65800000D03*
X166500000Y-67200000D03*
X171600000Y-68500000D03*
X171200000Y-75600000D03*
X173400000Y-65800000D03*
X156600000Y-68500000D03*
X141600000Y-68500000D03*
X126600000Y-68500000D03*
X158400000Y-65700000D03*
X150200000Y-65700000D03*
X151500000Y-67150000D03*
X156125000Y-75600000D03*
X150228867Y-77053837D03*
X150199992Y-75800000D03*
X136500000Y-67200000D03*
X135300000Y-65800000D03*
X143400000Y-65800000D03*
X141000000Y-75600000D03*
X120200000Y-65800000D03*
X121500000Y-67200000D03*
X128400000Y-65800000D03*
X125900000Y-75600000D03*
X121500000Y-124000000D03*
X126800000Y-119000000D03*
X126800000Y-111600000D03*
X162100000Y-107300000D03*
X155200000Y-107300000D03*
X148100000Y-107300000D03*
X141100000Y-107300000D03*
X134100000Y-107300000D03*
X162800000Y-120600000D03*
X156300000Y-118650000D03*
X136010000Y-122210000D03*
X148950000Y-123050000D03*
X147900000Y-121250000D03*
X147100000Y-121174998D03*
X142650000Y-126250000D03*
X135850000Y-132600000D03*
X144150000Y-132600000D03*
X171100000Y-113500000D03*
X175500000Y-112150000D03*
X178500000Y-110850000D03*
X178500000Y-112100000D03*
X111050000Y-108550000D03*
X111600000Y-124000000D03*
X135000000Y-126900000D03*
X148250000Y-131900000D03*
X150550000Y-127000000D03*
X162200000Y-126400000D03*
X154250000Y-126400000D03*
X155300000Y-122700000D03*
X153950000Y-122250000D03*
X169100000Y-114850000D03*
X165300000Y-114600000D03*
X162200000Y-114900000D03*
X155100000Y-114900004D03*
X158350000Y-114600000D03*
X148100000Y-114950000D03*
X144300000Y-114600000D03*
X137450000Y-116050000D03*
X137300000Y-114600000D03*
X177200000Y-75550000D03*
X173600000Y-74650000D03*
X174300000Y-75550000D03*
X175750000Y-75550000D03*
X177900000Y-74650000D03*
X153175000Y-119950000D03*
X148721995Y-120266698D03*
X142978128Y-116762979D03*
X137400000Y-120150000D03*
X121950355Y-75654269D03*
X127900000Y-117500000D03*
X147400000Y-122650000D03*
X141196037Y-126480773D03*
X112550000Y-92450000D03*
X112550000Y-90450000D03*
X112450000Y-91500000D03*
X146000000Y-131250000D03*
X152050000Y-129950000D03*
X152050000Y-126000000D03*
X172100000Y-108750000D03*
X170100000Y-108750000D03*
X171100000Y-108700000D03*
X176100000Y-115000000D03*
X170800000Y-86250000D03*
X172100000Y-86250000D03*
X173250000Y-86250000D03*
X174500000Y-86250000D03*
X123300000Y-69700000D03*
X141359023Y-129721919D03*
X149750000Y-127975000D03*
X135950000Y-115050000D03*
X135450000Y-114550000D03*
X117574990Y-94650000D03*
X117574990Y-93350000D03*
X117574990Y-94000000D03*
X157050000Y-114750000D03*
X144900000Y-125581288D03*
X139250000Y-112300000D03*
X142350000Y-112250000D03*
X145600000Y-114900000D03*
X149350000Y-114600000D03*
X156400000Y-114600000D03*
X152600000Y-114900000D03*
X159550000Y-114900000D03*
X166550000Y-114900000D03*
X163150000Y-114600000D03*
X163950000Y-114800000D03*
X167100000Y-89150000D03*
X167100000Y-88350000D03*
X161774999Y-119275001D03*
X148224999Y-119600000D03*
X170050000Y-78600000D03*
X140020231Y-126729769D03*
X138300000Y-69650000D03*
X138450000Y-76700000D03*
X137800000Y-76200000D03*
X139691711Y-125777086D03*
X153350000Y-69650000D03*
X171350000Y-78600000D03*
X153250000Y-76700000D03*
X152800004Y-76100000D03*
X139025000Y-125350000D03*
X168350000Y-69700000D03*
X172650000Y-78600000D03*
X168200000Y-76700000D03*
X167750000Y-76100000D03*
X141175000Y-127900004D03*
X138400000Y-128150000D03*
X160800000Y-123500000D03*
X182200000Y-92100000D03*
X183150001Y-103999999D03*
X145309741Y-127709739D03*
X155300000Y-123500001D03*
X127575000Y-120675000D03*
X145261447Y-128408083D03*
X139802954Y-128797292D03*
X140922092Y-129175012D03*
X147325000Y-127400000D03*
X145281250Y-126225000D03*
X137708083Y-125799999D03*
X132100000Y-120875000D03*
X131756173Y-119713710D03*
X133650000Y-98100000D03*
X138300000Y-110775010D03*
X132300000Y-80150000D03*
X138640731Y-105303186D03*
X138358732Y-109558732D03*
X137691268Y-108741268D03*
X136200000Y-109250000D03*
X134249718Y-110374990D03*
X134750000Y-86650000D03*
X136650000Y-106425000D03*
X138750000Y-80050000D03*
X145950001Y-108950000D03*
X137300000Y-105300000D03*
X144900000Y-108850000D03*
X140250011Y-106150000D03*
X138300000Y-105950000D03*
X148861728Y-109150011D03*
X146100000Y-80250000D03*
X151400000Y-104500000D03*
X149350000Y-105960011D03*
X161400000Y-80100000D03*
X157650000Y-106300000D03*
X160150000Y-104510000D03*
X157000000Y-105610017D03*
X164100000Y-104500000D03*
X163900000Y-105610001D03*
X169850000Y-90050000D03*
X169263713Y-109663713D03*
X150675000Y-112200000D03*
X144441283Y-126110048D03*
X136747992Y-111000031D03*
X164600000Y-110750000D03*
X143700000Y-110750000D03*
X150700000Y-110750000D03*
X157650000Y-110750000D03*
X150050000Y-115000005D03*
X144200000Y-127000000D03*
X136008465Y-111000031D03*
X143000000Y-110575021D03*
X150000000Y-110100000D03*
X164000000Y-110100000D03*
X157000000Y-110100000D03*
X146250000Y-116600000D03*
X143450000Y-126950000D03*
X121000000Y-68550000D03*
X137900000Y-125050000D03*
X124750000Y-77450000D03*
X136450000Y-123450000D03*
X131200000Y-76725000D03*
X140045731Y-116350063D03*
X139850000Y-76175000D03*
X140745666Y-116339711D03*
X135750000Y-68500000D03*
X131800000Y-70850000D03*
X131000000Y-78225000D03*
X155800000Y-78525000D03*
X146808425Y-109484340D03*
X146800000Y-111900000D03*
X147599998Y-109600000D03*
X147600004Y-111950000D03*
X155100000Y-79250000D03*
X144721655Y-115814118D03*
X148376109Y-109913056D03*
X148302356Y-112203865D03*
X159950000Y-75400000D03*
X145123606Y-116387213D03*
X159082725Y-109482737D03*
X158850000Y-112175000D03*
X153400000Y-116250000D03*
X150900002Y-116650000D03*
X169809089Y-76175000D03*
X154650000Y-109400000D03*
X154650000Y-111275000D03*
X155400000Y-111300000D03*
X150820536Y-117449711D03*
X155400000Y-109450000D03*
X169050000Y-81500000D03*
X138883404Y-71859074D03*
X125195622Y-75979280D03*
X137000000Y-124600000D03*
X138350000Y-117000000D03*
X143938354Y-115836077D03*
X168250000Y-72750000D03*
X153100000Y-72750000D03*
X138200000Y-72750000D03*
X123300000Y-72700000D03*
X169550000Y-70800000D03*
X154650000Y-70800000D03*
X139200000Y-70800000D03*
X124400000Y-70800000D03*
X168850000Y-71800000D03*
X153950000Y-71800000D03*
X123900000Y-71800000D03*
X142423111Y-111512434D03*
X152000000Y-111350000D03*
X165400000Y-111650000D03*
X156500000Y-111650000D03*
D20*
X112450000Y-91500000D02*
X114150000Y-91500000D01*
X146150000Y-78000000D02*
X144850000Y-76700000D01*
X169625736Y-78600000D02*
X169025736Y-78000000D01*
X169025736Y-78000000D02*
X146150000Y-78000000D01*
X144850000Y-76700000D02*
X138450000Y-76700000D01*
X170050000Y-78600000D02*
X169625736Y-78600000D01*
X159100000Y-77450000D02*
X158350000Y-76700000D01*
X171350000Y-78600000D02*
X170200000Y-77450000D01*
X158350000Y-76700000D02*
X153250000Y-76700000D01*
X170200000Y-77450000D02*
X159100000Y-77450000D01*
X172650000Y-78600000D02*
X170750000Y-76700000D01*
X170750000Y-76700000D02*
X168200000Y-76700000D01*
D21*
G36*
X146873000Y-76873000D02*
X140474290Y-76873000D01*
X140642655Y-76704635D01*
X140727725Y-76499257D01*
X140814017Y-76535000D01*
X141185983Y-76535000D01*
X141529635Y-76392655D01*
X141792655Y-76129635D01*
X141935000Y-75785983D01*
X141935000Y-75414017D01*
X141792655Y-75070365D01*
X141529635Y-74807345D01*
X141185983Y-74665000D01*
X140814017Y-74665000D01*
X140470365Y-74807345D01*
X140207345Y-75070365D01*
X140122275Y-75275743D01*
X140035983Y-75240000D01*
X139664017Y-75240000D01*
X139320365Y-75382345D01*
X139057345Y-75645365D01*
X138915000Y-75989017D01*
X138915000Y-76360983D01*
X139057345Y-76704635D01*
X139225710Y-76873000D01*
X136335000Y-76873000D01*
X136335000Y-76689007D01*
X136192655Y-76345355D01*
X135929635Y-76082335D01*
X135742471Y-76004809D01*
X135992655Y-75754625D01*
X136135000Y-75410973D01*
X136135000Y-75039007D01*
X135992655Y-74695355D01*
X135729635Y-74432335D01*
X135385983Y-74289990D01*
X135014017Y-74289990D01*
X134670365Y-74432335D01*
X134407345Y-74695355D01*
X134265000Y-75039007D01*
X134265000Y-75410973D01*
X134407345Y-75754625D01*
X134670365Y-76017645D01*
X134857529Y-76095171D01*
X134607345Y-76345355D01*
X134465000Y-76689007D01*
X134465000Y-76873000D01*
X132627000Y-76873000D01*
X132627000Y-72564017D01*
X137265000Y-72564017D01*
X137265000Y-72935983D01*
X137407345Y-73279635D01*
X137670365Y-73542655D01*
X138014017Y-73685000D01*
X138385983Y-73685000D01*
X138729635Y-73542655D01*
X138992655Y-73279635D01*
X139135000Y-72935983D01*
X139135000Y-72766896D01*
X139413039Y-72651729D01*
X139676059Y-72388709D01*
X139818404Y-72045057D01*
X139818404Y-71673091D01*
X139768845Y-71553445D01*
X139992655Y-71329635D01*
X140135000Y-70985983D01*
X140135000Y-70614017D01*
X139992655Y-70270365D01*
X139729635Y-70007345D01*
X139385983Y-69865000D01*
X139014017Y-69865000D01*
X138670365Y-70007345D01*
X138407345Y-70270365D01*
X138265000Y-70614017D01*
X138265000Y-70985983D01*
X138314559Y-71105629D01*
X138090749Y-71329439D01*
X137948404Y-71673091D01*
X137948404Y-71842178D01*
X137670365Y-71957345D01*
X137407345Y-72220365D01*
X137265000Y-72564017D01*
X132627000Y-72564017D01*
X132627000Y-71296719D01*
X132735000Y-71035983D01*
X132735000Y-70664017D01*
X132627000Y-70403281D01*
X132627000Y-65614017D01*
X134365000Y-65614017D01*
X134365000Y-65985983D01*
X134507345Y-66329635D01*
X134770365Y-66592655D01*
X135114017Y-66735000D01*
X135485983Y-66735000D01*
X135753532Y-66624178D01*
X135707345Y-66670365D01*
X135565000Y-67014017D01*
X135565000Y-67385983D01*
X135639151Y-67565000D01*
X135564017Y-67565000D01*
X135220365Y-67707345D01*
X134957345Y-67970365D01*
X134815000Y-68314017D01*
X134815000Y-68685983D01*
X134957345Y-69029635D01*
X135220365Y-69292655D01*
X135564017Y-69435000D01*
X135935983Y-69435000D01*
X136279635Y-69292655D01*
X136542655Y-69029635D01*
X136685000Y-68685983D01*
X136685000Y-68314017D01*
X140665000Y-68314017D01*
X140665000Y-68685983D01*
X140807345Y-69029635D01*
X141070365Y-69292655D01*
X141414017Y-69435000D01*
X141785983Y-69435000D01*
X142129635Y-69292655D01*
X142392655Y-69029635D01*
X142535000Y-68685983D01*
X142535000Y-68314017D01*
X142392655Y-67970365D01*
X142129635Y-67707345D01*
X141785983Y-67565000D01*
X141414017Y-67565000D01*
X141070365Y-67707345D01*
X140807345Y-67970365D01*
X140665000Y-68314017D01*
X136685000Y-68314017D01*
X136610849Y-68135000D01*
X136685983Y-68135000D01*
X137029635Y-67992655D01*
X137292655Y-67729635D01*
X137435000Y-67385983D01*
X137435000Y-67014017D01*
X137292655Y-66670365D01*
X137029635Y-66407345D01*
X136685983Y-66265000D01*
X136314017Y-66265000D01*
X136046468Y-66375822D01*
X136092655Y-66329635D01*
X136235000Y-65985983D01*
X136235000Y-65614017D01*
X142465000Y-65614017D01*
X142465000Y-65985983D01*
X142607345Y-66329635D01*
X142870365Y-66592655D01*
X143214017Y-66735000D01*
X143585983Y-66735000D01*
X143929635Y-66592655D01*
X144192655Y-66329635D01*
X144335000Y-65985983D01*
X144335000Y-65614017D01*
X144192655Y-65270365D01*
X143929635Y-65007345D01*
X143585983Y-64865000D01*
X143214017Y-64865000D01*
X142870365Y-65007345D01*
X142607345Y-65270365D01*
X142465000Y-65614017D01*
X136235000Y-65614017D01*
X136092655Y-65270365D01*
X135829635Y-65007345D01*
X135485983Y-64865000D01*
X135114017Y-64865000D01*
X134770365Y-65007345D01*
X134507345Y-65270365D01*
X134365000Y-65614017D01*
X132627000Y-65614017D01*
X132627000Y-54874914D01*
X135815000Y-54874914D01*
X135815000Y-55575086D01*
X136082944Y-56221960D01*
X136578040Y-56717056D01*
X137224914Y-56985000D01*
X137925086Y-56985000D01*
X138571960Y-56717056D01*
X139067056Y-56221960D01*
X139302560Y-55653403D01*
X139302560Y-56350000D01*
X139351843Y-56597765D01*
X139492191Y-56807809D01*
X139702235Y-56948157D01*
X139950000Y-56997440D01*
X142200000Y-56997440D01*
X142447765Y-56948157D01*
X142657809Y-56807809D01*
X142798157Y-56597765D01*
X142847440Y-56350000D01*
X142847440Y-54100000D01*
X142798157Y-53852235D01*
X142657809Y-53642191D01*
X142447765Y-53501843D01*
X142200000Y-53452560D01*
X139950000Y-53452560D01*
X139702235Y-53501843D01*
X139492191Y-53642191D01*
X139351843Y-53852235D01*
X139302560Y-54100000D01*
X139302560Y-54796597D01*
X139067056Y-54228040D01*
X138571960Y-53732944D01*
X137925086Y-53465000D01*
X137224914Y-53465000D01*
X136578040Y-53732944D01*
X136082944Y-54228040D01*
X135815000Y-54874914D01*
X132627000Y-54874914D01*
X132627000Y-49710000D01*
X146873000Y-49710000D01*
X146873000Y-76873000D01*
X146873000Y-76873000D01*
G37*
X146873000Y-76873000D02*
X140474290Y-76873000D01*
X140642655Y-76704635D01*
X140727725Y-76499257D01*
X140814017Y-76535000D01*
X141185983Y-76535000D01*
X141529635Y-76392655D01*
X141792655Y-76129635D01*
X141935000Y-75785983D01*
X141935000Y-75414017D01*
X141792655Y-75070365D01*
X141529635Y-74807345D01*
X141185983Y-74665000D01*
X140814017Y-74665000D01*
X140470365Y-74807345D01*
X140207345Y-75070365D01*
X140122275Y-75275743D01*
X140035983Y-75240000D01*
X139664017Y-75240000D01*
X139320365Y-75382345D01*
X139057345Y-75645365D01*
X138915000Y-75989017D01*
X138915000Y-76360983D01*
X139057345Y-76704635D01*
X139225710Y-76873000D01*
X136335000Y-76873000D01*
X136335000Y-76689007D01*
X136192655Y-76345355D01*
X135929635Y-76082335D01*
X135742471Y-76004809D01*
X135992655Y-75754625D01*
X136135000Y-75410973D01*
X136135000Y-75039007D01*
X135992655Y-74695355D01*
X135729635Y-74432335D01*
X135385983Y-74289990D01*
X135014017Y-74289990D01*
X134670365Y-74432335D01*
X134407345Y-74695355D01*
X134265000Y-75039007D01*
X134265000Y-75410973D01*
X134407345Y-75754625D01*
X134670365Y-76017645D01*
X134857529Y-76095171D01*
X134607345Y-76345355D01*
X134465000Y-76689007D01*
X134465000Y-76873000D01*
X132627000Y-76873000D01*
X132627000Y-72564017D01*
X137265000Y-72564017D01*
X137265000Y-72935983D01*
X137407345Y-73279635D01*
X137670365Y-73542655D01*
X138014017Y-73685000D01*
X138385983Y-73685000D01*
X138729635Y-73542655D01*
X138992655Y-73279635D01*
X139135000Y-72935983D01*
X139135000Y-72766896D01*
X139413039Y-72651729D01*
X139676059Y-72388709D01*
X139818404Y-72045057D01*
X139818404Y-71673091D01*
X139768845Y-71553445D01*
X139992655Y-71329635D01*
X140135000Y-70985983D01*
X140135000Y-70614017D01*
X139992655Y-70270365D01*
X139729635Y-70007345D01*
X139385983Y-69865000D01*
X139014017Y-69865000D01*
X138670365Y-70007345D01*
X138407345Y-70270365D01*
X138265000Y-70614017D01*
X138265000Y-70985983D01*
X138314559Y-71105629D01*
X138090749Y-71329439D01*
X137948404Y-71673091D01*
X137948404Y-71842178D01*
X137670365Y-71957345D01*
X137407345Y-72220365D01*
X137265000Y-72564017D01*
X132627000Y-72564017D01*
X132627000Y-71296719D01*
X132735000Y-71035983D01*
X132735000Y-70664017D01*
X132627000Y-70403281D01*
X132627000Y-65614017D01*
X134365000Y-65614017D01*
X134365000Y-65985983D01*
X134507345Y-66329635D01*
X134770365Y-66592655D01*
X135114017Y-66735000D01*
X135485983Y-66735000D01*
X135753532Y-66624178D01*
X135707345Y-66670365D01*
X135565000Y-67014017D01*
X135565000Y-67385983D01*
X135639151Y-67565000D01*
X135564017Y-67565000D01*
X135220365Y-67707345D01*
X134957345Y-67970365D01*
X134815000Y-68314017D01*
X134815000Y-68685983D01*
X134957345Y-69029635D01*
X135220365Y-69292655D01*
X135564017Y-69435000D01*
X135935983Y-69435000D01*
X136279635Y-69292655D01*
X136542655Y-69029635D01*
X136685000Y-68685983D01*
X136685000Y-68314017D01*
X140665000Y-68314017D01*
X140665000Y-68685983D01*
X140807345Y-69029635D01*
X141070365Y-69292655D01*
X141414017Y-69435000D01*
X141785983Y-69435000D01*
X142129635Y-69292655D01*
X142392655Y-69029635D01*
X142535000Y-68685983D01*
X142535000Y-68314017D01*
X142392655Y-67970365D01*
X142129635Y-67707345D01*
X141785983Y-67565000D01*
X141414017Y-67565000D01*
X141070365Y-67707345D01*
X140807345Y-67970365D01*
X140665000Y-68314017D01*
X136685000Y-68314017D01*
X136610849Y-68135000D01*
X136685983Y-68135000D01*
X137029635Y-67992655D01*
X137292655Y-67729635D01*
X137435000Y-67385983D01*
X137435000Y-67014017D01*
X137292655Y-66670365D01*
X137029635Y-66407345D01*
X136685983Y-66265000D01*
X136314017Y-66265000D01*
X136046468Y-66375822D01*
X136092655Y-66329635D01*
X136235000Y-65985983D01*
X136235000Y-65614017D01*
X142465000Y-65614017D01*
X142465000Y-65985983D01*
X142607345Y-66329635D01*
X142870365Y-66592655D01*
X143214017Y-66735000D01*
X143585983Y-66735000D01*
X143929635Y-66592655D01*
X144192655Y-66329635D01*
X144335000Y-65985983D01*
X144335000Y-65614017D01*
X144192655Y-65270365D01*
X143929635Y-65007345D01*
X143585983Y-64865000D01*
X143214017Y-64865000D01*
X142870365Y-65007345D01*
X142607345Y-65270365D01*
X142465000Y-65614017D01*
X136235000Y-65614017D01*
X136092655Y-65270365D01*
X135829635Y-65007345D01*
X135485983Y-64865000D01*
X135114017Y-64865000D01*
X134770365Y-65007345D01*
X134507345Y-65270365D01*
X134365000Y-65614017D01*
X132627000Y-65614017D01*
X132627000Y-54874914D01*
X135815000Y-54874914D01*
X135815000Y-55575086D01*
X136082944Y-56221960D01*
X136578040Y-56717056D01*
X137224914Y-56985000D01*
X137925086Y-56985000D01*
X138571960Y-56717056D01*
X139067056Y-56221960D01*
X139302560Y-55653403D01*
X139302560Y-56350000D01*
X139351843Y-56597765D01*
X139492191Y-56807809D01*
X139702235Y-56948157D01*
X139950000Y-56997440D01*
X142200000Y-56997440D01*
X142447765Y-56948157D01*
X142657809Y-56807809D01*
X142798157Y-56597765D01*
X142847440Y-56350000D01*
X142847440Y-54100000D01*
X142798157Y-53852235D01*
X142657809Y-53642191D01*
X142447765Y-53501843D01*
X142200000Y-53452560D01*
X139950000Y-53452560D01*
X139702235Y-53501843D01*
X139492191Y-53642191D01*
X139351843Y-53852235D01*
X139302560Y-54100000D01*
X139302560Y-54796597D01*
X139067056Y-54228040D01*
X138571960Y-53732944D01*
X137925086Y-53465000D01*
X137224914Y-53465000D01*
X136578040Y-53732944D01*
X136082944Y-54228040D01*
X135815000Y-54874914D01*
X132627000Y-54874914D01*
X132627000Y-49710000D01*
X146873000Y-49710000D01*
X146873000Y-76873000D01*
G36*
X161873000Y-76873000D02*
X151163867Y-76873000D01*
X151163867Y-76867854D01*
X151021522Y-76524202D01*
X150909801Y-76412481D01*
X150992647Y-76329635D01*
X151134992Y-75985983D01*
X151134992Y-75614017D01*
X151052150Y-75414017D01*
X155190000Y-75414017D01*
X155190000Y-75785983D01*
X155332345Y-76129635D01*
X155595365Y-76392655D01*
X155939017Y-76535000D01*
X156310983Y-76535000D01*
X156654635Y-76392655D01*
X156917655Y-76129635D01*
X157060000Y-75785983D01*
X157060000Y-75414017D01*
X156977158Y-75214017D01*
X159015000Y-75214017D01*
X159015000Y-75585983D01*
X159157345Y-75929635D01*
X159420365Y-76192655D01*
X159764017Y-76335000D01*
X160135983Y-76335000D01*
X160479635Y-76192655D01*
X160742655Y-75929635D01*
X160885000Y-75585983D01*
X160885000Y-75214017D01*
X160742655Y-74870365D01*
X160479635Y-74607345D01*
X160135983Y-74465000D01*
X159764017Y-74465000D01*
X159420365Y-74607345D01*
X159157345Y-74870365D01*
X159015000Y-75214017D01*
X156977158Y-75214017D01*
X156917655Y-75070365D01*
X156654635Y-74807345D01*
X156310983Y-74665000D01*
X155939017Y-74665000D01*
X155595365Y-74807345D01*
X155332345Y-75070365D01*
X155190000Y-75414017D01*
X151052150Y-75414017D01*
X150992647Y-75270365D01*
X150729627Y-75007345D01*
X150385975Y-74865000D01*
X150014009Y-74865000D01*
X149670357Y-75007345D01*
X149407337Y-75270365D01*
X149264992Y-75614017D01*
X149264992Y-75985983D01*
X149407337Y-76329635D01*
X149519058Y-76441356D01*
X149436212Y-76524202D01*
X149293867Y-76867854D01*
X149293867Y-76873000D01*
X148127000Y-76873000D01*
X148127000Y-72564017D01*
X152165000Y-72564017D01*
X152165000Y-72935983D01*
X152307345Y-73279635D01*
X152570365Y-73542655D01*
X152914017Y-73685000D01*
X153285983Y-73685000D01*
X153629635Y-73542655D01*
X153892655Y-73279635D01*
X154035000Y-72935983D01*
X154035000Y-72735000D01*
X154135983Y-72735000D01*
X154479635Y-72592655D01*
X154742655Y-72329635D01*
X154885000Y-71985983D01*
X154885000Y-71714697D01*
X155179635Y-71592655D01*
X155442655Y-71329635D01*
X155585000Y-70985983D01*
X155585000Y-70614017D01*
X155442655Y-70270365D01*
X155179635Y-70007345D01*
X154835983Y-69865000D01*
X154464017Y-69865000D01*
X154120365Y-70007345D01*
X153857345Y-70270365D01*
X153715000Y-70614017D01*
X153715000Y-70885303D01*
X153420365Y-71007345D01*
X153157345Y-71270365D01*
X153015000Y-71614017D01*
X153015000Y-71815000D01*
X152914017Y-71815000D01*
X152570365Y-71957345D01*
X152307345Y-72220365D01*
X152165000Y-72564017D01*
X148127000Y-72564017D01*
X148127000Y-68314017D01*
X155665000Y-68314017D01*
X155665000Y-68685983D01*
X155807345Y-69029635D01*
X156070365Y-69292655D01*
X156414017Y-69435000D01*
X156785983Y-69435000D01*
X157129635Y-69292655D01*
X157392655Y-69029635D01*
X157535000Y-68685983D01*
X157535000Y-68314017D01*
X157392655Y-67970365D01*
X157129635Y-67707345D01*
X156785983Y-67565000D01*
X156414017Y-67565000D01*
X156070365Y-67707345D01*
X155807345Y-67970365D01*
X155665000Y-68314017D01*
X148127000Y-68314017D01*
X148127000Y-66964017D01*
X150565000Y-66964017D01*
X150565000Y-67335983D01*
X150707345Y-67679635D01*
X150970365Y-67942655D01*
X151314017Y-68085000D01*
X151685983Y-68085000D01*
X152029635Y-67942655D01*
X152292655Y-67679635D01*
X152435000Y-67335983D01*
X152435000Y-66964017D01*
X152292655Y-66620365D01*
X152029635Y-66357345D01*
X151685983Y-66215000D01*
X151314017Y-66215000D01*
X150970365Y-66357345D01*
X150707345Y-66620365D01*
X150565000Y-66964017D01*
X148127000Y-66964017D01*
X148127000Y-65514017D01*
X149265000Y-65514017D01*
X149265000Y-65885983D01*
X149407345Y-66229635D01*
X149670365Y-66492655D01*
X150014017Y-66635000D01*
X150385983Y-66635000D01*
X150729635Y-66492655D01*
X150992655Y-66229635D01*
X151135000Y-65885983D01*
X151135000Y-65514017D01*
X157465000Y-65514017D01*
X157465000Y-65885983D01*
X157607345Y-66229635D01*
X157870365Y-66492655D01*
X158214017Y-66635000D01*
X158585983Y-66635000D01*
X158929635Y-66492655D01*
X159192655Y-66229635D01*
X159335000Y-65885983D01*
X159335000Y-65514017D01*
X159192655Y-65170365D01*
X158929635Y-64907345D01*
X158585983Y-64765000D01*
X158214017Y-64765000D01*
X157870365Y-64907345D01*
X157607345Y-65170365D01*
X157465000Y-65514017D01*
X151135000Y-65514017D01*
X150992655Y-65170365D01*
X150729635Y-64907345D01*
X150385983Y-64765000D01*
X150014017Y-64765000D01*
X149670365Y-64907345D01*
X149407345Y-65170365D01*
X149265000Y-65514017D01*
X148127000Y-65514017D01*
X148127000Y-54924914D01*
X150815000Y-54924914D01*
X150815000Y-55625086D01*
X151082944Y-56271960D01*
X151578040Y-56767056D01*
X152224914Y-57035000D01*
X152925086Y-57035000D01*
X153571960Y-56767056D01*
X154067056Y-56271960D01*
X154302560Y-55703403D01*
X154302560Y-56400000D01*
X154351843Y-56647765D01*
X154492191Y-56857809D01*
X154702235Y-56998157D01*
X154950000Y-57047440D01*
X157200000Y-57047440D01*
X157447765Y-56998157D01*
X157657809Y-56857809D01*
X157798157Y-56647765D01*
X157847440Y-56400000D01*
X157847440Y-54150000D01*
X157798157Y-53902235D01*
X157657809Y-53692191D01*
X157447765Y-53551843D01*
X157200000Y-53502560D01*
X154950000Y-53502560D01*
X154702235Y-53551843D01*
X154492191Y-53692191D01*
X154351843Y-53902235D01*
X154302560Y-54150000D01*
X154302560Y-54846597D01*
X154067056Y-54278040D01*
X153571960Y-53782944D01*
X152925086Y-53515000D01*
X152224914Y-53515000D01*
X151578040Y-53782944D01*
X151082944Y-54278040D01*
X150815000Y-54924914D01*
X148127000Y-54924914D01*
X148127000Y-49710000D01*
X161873000Y-49710000D01*
X161873000Y-76873000D01*
X161873000Y-76873000D01*
G37*
X161873000Y-76873000D02*
X151163867Y-76873000D01*
X151163867Y-76867854D01*
X151021522Y-76524202D01*
X150909801Y-76412481D01*
X150992647Y-76329635D01*
X151134992Y-75985983D01*
X151134992Y-75614017D01*
X151052150Y-75414017D01*
X155190000Y-75414017D01*
X155190000Y-75785983D01*
X155332345Y-76129635D01*
X155595365Y-76392655D01*
X155939017Y-76535000D01*
X156310983Y-76535000D01*
X156654635Y-76392655D01*
X156917655Y-76129635D01*
X157060000Y-75785983D01*
X157060000Y-75414017D01*
X156977158Y-75214017D01*
X159015000Y-75214017D01*
X159015000Y-75585983D01*
X159157345Y-75929635D01*
X159420365Y-76192655D01*
X159764017Y-76335000D01*
X160135983Y-76335000D01*
X160479635Y-76192655D01*
X160742655Y-75929635D01*
X160885000Y-75585983D01*
X160885000Y-75214017D01*
X160742655Y-74870365D01*
X160479635Y-74607345D01*
X160135983Y-74465000D01*
X159764017Y-74465000D01*
X159420365Y-74607345D01*
X159157345Y-74870365D01*
X159015000Y-75214017D01*
X156977158Y-75214017D01*
X156917655Y-75070365D01*
X156654635Y-74807345D01*
X156310983Y-74665000D01*
X155939017Y-74665000D01*
X155595365Y-74807345D01*
X155332345Y-75070365D01*
X155190000Y-75414017D01*
X151052150Y-75414017D01*
X150992647Y-75270365D01*
X150729627Y-75007345D01*
X150385975Y-74865000D01*
X150014009Y-74865000D01*
X149670357Y-75007345D01*
X149407337Y-75270365D01*
X149264992Y-75614017D01*
X149264992Y-75985983D01*
X149407337Y-76329635D01*
X149519058Y-76441356D01*
X149436212Y-76524202D01*
X149293867Y-76867854D01*
X149293867Y-76873000D01*
X148127000Y-76873000D01*
X148127000Y-72564017D01*
X152165000Y-72564017D01*
X152165000Y-72935983D01*
X152307345Y-73279635D01*
X152570365Y-73542655D01*
X152914017Y-73685000D01*
X153285983Y-73685000D01*
X153629635Y-73542655D01*
X153892655Y-73279635D01*
X154035000Y-72935983D01*
X154035000Y-72735000D01*
X154135983Y-72735000D01*
X154479635Y-72592655D01*
X154742655Y-72329635D01*
X154885000Y-71985983D01*
X154885000Y-71714697D01*
X155179635Y-71592655D01*
X155442655Y-71329635D01*
X155585000Y-70985983D01*
X155585000Y-70614017D01*
X155442655Y-70270365D01*
X155179635Y-70007345D01*
X154835983Y-69865000D01*
X154464017Y-69865000D01*
X154120365Y-70007345D01*
X153857345Y-70270365D01*
X153715000Y-70614017D01*
X153715000Y-70885303D01*
X153420365Y-71007345D01*
X153157345Y-71270365D01*
X153015000Y-71614017D01*
X153015000Y-71815000D01*
X152914017Y-71815000D01*
X152570365Y-71957345D01*
X152307345Y-72220365D01*
X152165000Y-72564017D01*
X148127000Y-72564017D01*
X148127000Y-68314017D01*
X155665000Y-68314017D01*
X155665000Y-68685983D01*
X155807345Y-69029635D01*
X156070365Y-69292655D01*
X156414017Y-69435000D01*
X156785983Y-69435000D01*
X157129635Y-69292655D01*
X157392655Y-69029635D01*
X157535000Y-68685983D01*
X157535000Y-68314017D01*
X157392655Y-67970365D01*
X157129635Y-67707345D01*
X156785983Y-67565000D01*
X156414017Y-67565000D01*
X156070365Y-67707345D01*
X155807345Y-67970365D01*
X155665000Y-68314017D01*
X148127000Y-68314017D01*
X148127000Y-66964017D01*
X150565000Y-66964017D01*
X150565000Y-67335983D01*
X150707345Y-67679635D01*
X150970365Y-67942655D01*
X151314017Y-68085000D01*
X151685983Y-68085000D01*
X152029635Y-67942655D01*
X152292655Y-67679635D01*
X152435000Y-67335983D01*
X152435000Y-66964017D01*
X152292655Y-66620365D01*
X152029635Y-66357345D01*
X151685983Y-66215000D01*
X151314017Y-66215000D01*
X150970365Y-66357345D01*
X150707345Y-66620365D01*
X150565000Y-66964017D01*
X148127000Y-66964017D01*
X148127000Y-65514017D01*
X149265000Y-65514017D01*
X149265000Y-65885983D01*
X149407345Y-66229635D01*
X149670365Y-66492655D01*
X150014017Y-66635000D01*
X150385983Y-66635000D01*
X150729635Y-66492655D01*
X150992655Y-66229635D01*
X151135000Y-65885983D01*
X151135000Y-65514017D01*
X157465000Y-65514017D01*
X157465000Y-65885983D01*
X157607345Y-66229635D01*
X157870365Y-66492655D01*
X158214017Y-66635000D01*
X158585983Y-66635000D01*
X158929635Y-66492655D01*
X159192655Y-66229635D01*
X159335000Y-65885983D01*
X159335000Y-65514017D01*
X159192655Y-65170365D01*
X158929635Y-64907345D01*
X158585983Y-64765000D01*
X158214017Y-64765000D01*
X157870365Y-64907345D01*
X157607345Y-65170365D01*
X157465000Y-65514017D01*
X151135000Y-65514017D01*
X150992655Y-65170365D01*
X150729635Y-64907345D01*
X150385983Y-64765000D01*
X150014017Y-64765000D01*
X149670365Y-64907345D01*
X149407345Y-65170365D01*
X149265000Y-65514017D01*
X148127000Y-65514017D01*
X148127000Y-54924914D01*
X150815000Y-54924914D01*
X150815000Y-55625086D01*
X151082944Y-56271960D01*
X151578040Y-56767056D01*
X152224914Y-57035000D01*
X152925086Y-57035000D01*
X153571960Y-56767056D01*
X154067056Y-56271960D01*
X154302560Y-55703403D01*
X154302560Y-56400000D01*
X154351843Y-56647765D01*
X154492191Y-56857809D01*
X154702235Y-56998157D01*
X154950000Y-57047440D01*
X157200000Y-57047440D01*
X157447765Y-56998157D01*
X157657809Y-56857809D01*
X157798157Y-56647765D01*
X157847440Y-56400000D01*
X157847440Y-54150000D01*
X157798157Y-53902235D01*
X157657809Y-53692191D01*
X157447765Y-53551843D01*
X157200000Y-53502560D01*
X154950000Y-53502560D01*
X154702235Y-53551843D01*
X154492191Y-53692191D01*
X154351843Y-53902235D01*
X154302560Y-54150000D01*
X154302560Y-54846597D01*
X154067056Y-54278040D01*
X153571960Y-53782944D01*
X152925086Y-53515000D01*
X152224914Y-53515000D01*
X151578040Y-53782944D01*
X151082944Y-54278040D01*
X150815000Y-54924914D01*
X148127000Y-54924914D01*
X148127000Y-49710000D01*
X161873000Y-49710000D01*
X161873000Y-76873000D01*
G36*
X174373000Y-55318320D02*
X174273000Y-55559741D01*
X174273000Y-57440259D01*
X174373000Y-57681680D01*
X174373000Y-74100710D01*
X174129635Y-73857345D01*
X173785983Y-73715000D01*
X173414017Y-73715000D01*
X173070365Y-73857345D01*
X172807345Y-74120365D01*
X172665000Y-74464017D01*
X172665000Y-74835983D01*
X172807345Y-75179635D01*
X173070365Y-75442655D01*
X173365000Y-75564697D01*
X173365000Y-75735983D01*
X173507345Y-76079635D01*
X173770365Y-76342655D01*
X174114017Y-76485000D01*
X174373000Y-76485000D01*
X174373000Y-76873000D01*
X170704421Y-76873000D01*
X170541943Y-76764436D01*
X170601744Y-76704635D01*
X170722095Y-76414082D01*
X171014017Y-76535000D01*
X171385983Y-76535000D01*
X171729635Y-76392655D01*
X171992655Y-76129635D01*
X172135000Y-75785983D01*
X172135000Y-75414017D01*
X171992655Y-75070365D01*
X171729635Y-74807345D01*
X171385983Y-74665000D01*
X171014017Y-74665000D01*
X170670365Y-74807345D01*
X170407345Y-75070365D01*
X170286994Y-75360918D01*
X169995072Y-75240000D01*
X169623106Y-75240000D01*
X169279454Y-75382345D01*
X169016434Y-75645365D01*
X168874089Y-75989017D01*
X168874089Y-76360983D01*
X169010372Y-76690000D01*
X163127000Y-76690000D01*
X163127000Y-72564017D01*
X167315000Y-72564017D01*
X167315000Y-72935983D01*
X167457345Y-73279635D01*
X167720365Y-73542655D01*
X168064017Y-73685000D01*
X168435983Y-73685000D01*
X168779635Y-73542655D01*
X169042655Y-73279635D01*
X169185000Y-72935983D01*
X169185000Y-72673275D01*
X169379635Y-72592655D01*
X169642655Y-72329635D01*
X169785000Y-71985983D01*
X169785000Y-71714697D01*
X170079635Y-71592655D01*
X170342655Y-71329635D01*
X170485000Y-70985983D01*
X170485000Y-70614017D01*
X170342655Y-70270365D01*
X170079635Y-70007345D01*
X169735983Y-69865000D01*
X169364017Y-69865000D01*
X169020365Y-70007345D01*
X168757345Y-70270365D01*
X168615000Y-70614017D01*
X168615000Y-70885303D01*
X168320365Y-71007345D01*
X168057345Y-71270365D01*
X167915000Y-71614017D01*
X167915000Y-71876725D01*
X167720365Y-71957345D01*
X167457345Y-72220365D01*
X167315000Y-72564017D01*
X163127000Y-72564017D01*
X163127000Y-68314017D01*
X170665000Y-68314017D01*
X170665000Y-68685983D01*
X170807345Y-69029635D01*
X171070365Y-69292655D01*
X171414017Y-69435000D01*
X171785983Y-69435000D01*
X172129635Y-69292655D01*
X172392655Y-69029635D01*
X172535000Y-68685983D01*
X172535000Y-68314017D01*
X172392655Y-67970365D01*
X172129635Y-67707345D01*
X171785983Y-67565000D01*
X171414017Y-67565000D01*
X171070365Y-67707345D01*
X170807345Y-67970365D01*
X170665000Y-68314017D01*
X163127000Y-68314017D01*
X163127000Y-67014017D01*
X165565000Y-67014017D01*
X165565000Y-67385983D01*
X165707345Y-67729635D01*
X165970365Y-67992655D01*
X166314017Y-68135000D01*
X166685983Y-68135000D01*
X167029635Y-67992655D01*
X167292655Y-67729635D01*
X167435000Y-67385983D01*
X167435000Y-67014017D01*
X167292655Y-66670365D01*
X167029635Y-66407345D01*
X166685983Y-66265000D01*
X166314017Y-66265000D01*
X165970365Y-66407345D01*
X165707345Y-66670365D01*
X165565000Y-67014017D01*
X163127000Y-67014017D01*
X163127000Y-65614017D01*
X164265000Y-65614017D01*
X164265000Y-65985983D01*
X164407345Y-66329635D01*
X164670365Y-66592655D01*
X165014017Y-66735000D01*
X165385983Y-66735000D01*
X165729635Y-66592655D01*
X165992655Y-66329635D01*
X166135000Y-65985983D01*
X166135000Y-65614017D01*
X172465000Y-65614017D01*
X172465000Y-65985983D01*
X172607345Y-66329635D01*
X172870365Y-66592655D01*
X173214017Y-66735000D01*
X173585983Y-66735000D01*
X173929635Y-66592655D01*
X174192655Y-66329635D01*
X174335000Y-65985983D01*
X174335000Y-65614017D01*
X174192655Y-65270365D01*
X173929635Y-65007345D01*
X173585983Y-64865000D01*
X173214017Y-64865000D01*
X172870365Y-65007345D01*
X172607345Y-65270365D01*
X172465000Y-65614017D01*
X166135000Y-65614017D01*
X165992655Y-65270365D01*
X165729635Y-65007345D01*
X165385983Y-64865000D01*
X165014017Y-64865000D01*
X164670365Y-65007345D01*
X164407345Y-65270365D01*
X164265000Y-65614017D01*
X163127000Y-65614017D01*
X163127000Y-54924914D01*
X165815000Y-54924914D01*
X165815000Y-55625086D01*
X166082944Y-56271960D01*
X166578040Y-56767056D01*
X167224914Y-57035000D01*
X167925086Y-57035000D01*
X168571960Y-56767056D01*
X169067056Y-56271960D01*
X169302560Y-55703403D01*
X169302560Y-56400000D01*
X169351843Y-56647765D01*
X169492191Y-56857809D01*
X169702235Y-56998157D01*
X169950000Y-57047440D01*
X172200000Y-57047440D01*
X172447765Y-56998157D01*
X172657809Y-56857809D01*
X172798157Y-56647765D01*
X172847440Y-56400000D01*
X172847440Y-54150000D01*
X172798157Y-53902235D01*
X172657809Y-53692191D01*
X172447765Y-53551843D01*
X172200000Y-53502560D01*
X169950000Y-53502560D01*
X169702235Y-53551843D01*
X169492191Y-53692191D01*
X169351843Y-53902235D01*
X169302560Y-54150000D01*
X169302560Y-54846597D01*
X169067056Y-54278040D01*
X168571960Y-53782944D01*
X167925086Y-53515000D01*
X167224914Y-53515000D01*
X166578040Y-53782944D01*
X166082944Y-54278040D01*
X165815000Y-54924914D01*
X163127000Y-54924914D01*
X163127000Y-49710000D01*
X174373000Y-49710000D01*
X174373000Y-55318320D01*
X174373000Y-55318320D01*
G37*
X174373000Y-55318320D02*
X174273000Y-55559741D01*
X174273000Y-57440259D01*
X174373000Y-57681680D01*
X174373000Y-74100710D01*
X174129635Y-73857345D01*
X173785983Y-73715000D01*
X173414017Y-73715000D01*
X173070365Y-73857345D01*
X172807345Y-74120365D01*
X172665000Y-74464017D01*
X172665000Y-74835983D01*
X172807345Y-75179635D01*
X173070365Y-75442655D01*
X173365000Y-75564697D01*
X173365000Y-75735983D01*
X173507345Y-76079635D01*
X173770365Y-76342655D01*
X174114017Y-76485000D01*
X174373000Y-76485000D01*
X174373000Y-76873000D01*
X170704421Y-76873000D01*
X170541943Y-76764436D01*
X170601744Y-76704635D01*
X170722095Y-76414082D01*
X171014017Y-76535000D01*
X171385983Y-76535000D01*
X171729635Y-76392655D01*
X171992655Y-76129635D01*
X172135000Y-75785983D01*
X172135000Y-75414017D01*
X171992655Y-75070365D01*
X171729635Y-74807345D01*
X171385983Y-74665000D01*
X171014017Y-74665000D01*
X170670365Y-74807345D01*
X170407345Y-75070365D01*
X170286994Y-75360918D01*
X169995072Y-75240000D01*
X169623106Y-75240000D01*
X169279454Y-75382345D01*
X169016434Y-75645365D01*
X168874089Y-75989017D01*
X168874089Y-76360983D01*
X169010372Y-76690000D01*
X163127000Y-76690000D01*
X163127000Y-72564017D01*
X167315000Y-72564017D01*
X167315000Y-72935983D01*
X167457345Y-73279635D01*
X167720365Y-73542655D01*
X168064017Y-73685000D01*
X168435983Y-73685000D01*
X168779635Y-73542655D01*
X169042655Y-73279635D01*
X169185000Y-72935983D01*
X169185000Y-72673275D01*
X169379635Y-72592655D01*
X169642655Y-72329635D01*
X169785000Y-71985983D01*
X169785000Y-71714697D01*
X170079635Y-71592655D01*
X170342655Y-71329635D01*
X170485000Y-70985983D01*
X170485000Y-70614017D01*
X170342655Y-70270365D01*
X170079635Y-70007345D01*
X169735983Y-69865000D01*
X169364017Y-69865000D01*
X169020365Y-70007345D01*
X168757345Y-70270365D01*
X168615000Y-70614017D01*
X168615000Y-70885303D01*
X168320365Y-71007345D01*
X168057345Y-71270365D01*
X167915000Y-71614017D01*
X167915000Y-71876725D01*
X167720365Y-71957345D01*
X167457345Y-72220365D01*
X167315000Y-72564017D01*
X163127000Y-72564017D01*
X163127000Y-68314017D01*
X170665000Y-68314017D01*
X170665000Y-68685983D01*
X170807345Y-69029635D01*
X171070365Y-69292655D01*
X171414017Y-69435000D01*
X171785983Y-69435000D01*
X172129635Y-69292655D01*
X172392655Y-69029635D01*
X172535000Y-68685983D01*
X172535000Y-68314017D01*
X172392655Y-67970365D01*
X172129635Y-67707345D01*
X171785983Y-67565000D01*
X171414017Y-67565000D01*
X171070365Y-67707345D01*
X170807345Y-67970365D01*
X170665000Y-68314017D01*
X163127000Y-68314017D01*
X163127000Y-67014017D01*
X165565000Y-67014017D01*
X165565000Y-67385983D01*
X165707345Y-67729635D01*
X165970365Y-67992655D01*
X166314017Y-68135000D01*
X166685983Y-68135000D01*
X167029635Y-67992655D01*
X167292655Y-67729635D01*
X167435000Y-67385983D01*
X167435000Y-67014017D01*
X167292655Y-66670365D01*
X167029635Y-66407345D01*
X166685983Y-66265000D01*
X166314017Y-66265000D01*
X165970365Y-66407345D01*
X165707345Y-66670365D01*
X165565000Y-67014017D01*
X163127000Y-67014017D01*
X163127000Y-65614017D01*
X164265000Y-65614017D01*
X164265000Y-65985983D01*
X164407345Y-66329635D01*
X164670365Y-66592655D01*
X165014017Y-66735000D01*
X165385983Y-66735000D01*
X165729635Y-66592655D01*
X165992655Y-66329635D01*
X166135000Y-65985983D01*
X166135000Y-65614017D01*
X172465000Y-65614017D01*
X172465000Y-65985983D01*
X172607345Y-66329635D01*
X172870365Y-66592655D01*
X173214017Y-66735000D01*
X173585983Y-66735000D01*
X173929635Y-66592655D01*
X174192655Y-66329635D01*
X174335000Y-65985983D01*
X174335000Y-65614017D01*
X174192655Y-65270365D01*
X173929635Y-65007345D01*
X173585983Y-64865000D01*
X173214017Y-64865000D01*
X172870365Y-65007345D01*
X172607345Y-65270365D01*
X172465000Y-65614017D01*
X166135000Y-65614017D01*
X165992655Y-65270365D01*
X165729635Y-65007345D01*
X165385983Y-64865000D01*
X165014017Y-64865000D01*
X164670365Y-65007345D01*
X164407345Y-65270365D01*
X164265000Y-65614017D01*
X163127000Y-65614017D01*
X163127000Y-54924914D01*
X165815000Y-54924914D01*
X165815000Y-55625086D01*
X166082944Y-56271960D01*
X166578040Y-56767056D01*
X167224914Y-57035000D01*
X167925086Y-57035000D01*
X168571960Y-56767056D01*
X169067056Y-56271960D01*
X169302560Y-55703403D01*
X169302560Y-56400000D01*
X169351843Y-56647765D01*
X169492191Y-56857809D01*
X169702235Y-56998157D01*
X169950000Y-57047440D01*
X172200000Y-57047440D01*
X172447765Y-56998157D01*
X172657809Y-56857809D01*
X172798157Y-56647765D01*
X172847440Y-56400000D01*
X172847440Y-54150000D01*
X172798157Y-53902235D01*
X172657809Y-53692191D01*
X172447765Y-53551843D01*
X172200000Y-53502560D01*
X169950000Y-53502560D01*
X169702235Y-53551843D01*
X169492191Y-53692191D01*
X169351843Y-53902235D01*
X169302560Y-54150000D01*
X169302560Y-54846597D01*
X169067056Y-54278040D01*
X168571960Y-53782944D01*
X167925086Y-53515000D01*
X167224914Y-53515000D01*
X166578040Y-53782944D01*
X166082944Y-54278040D01*
X165815000Y-54924914D01*
X163127000Y-54924914D01*
X163127000Y-49710000D01*
X174373000Y-49710000D01*
X174373000Y-55318320D01*
G36*
X167873000Y-115373000D02*
X165849290Y-115373000D01*
X166092655Y-115129635D01*
X166235000Y-114785983D01*
X166235000Y-114414017D01*
X166092655Y-114070365D01*
X165829635Y-113807345D01*
X165485983Y-113665000D01*
X165114017Y-113665000D01*
X164770365Y-113807345D01*
X164507345Y-114070365D01*
X164365000Y-114414017D01*
X164365000Y-114785983D01*
X164507345Y-115129635D01*
X164750710Y-115373000D01*
X163016114Y-115373000D01*
X163135000Y-115085983D01*
X163135000Y-114714017D01*
X162992655Y-114370365D01*
X162729635Y-114107345D01*
X162385983Y-113965000D01*
X162014017Y-113965000D01*
X161670365Y-114107345D01*
X161407345Y-114370365D01*
X161265000Y-114714017D01*
X161265000Y-115085983D01*
X161383886Y-115373000D01*
X158899290Y-115373000D01*
X159142655Y-115129635D01*
X159285000Y-114785983D01*
X159285000Y-114414017D01*
X159142655Y-114070365D01*
X158879635Y-113807345D01*
X158535983Y-113665000D01*
X158164017Y-113665000D01*
X157820365Y-113807345D01*
X157557345Y-114070365D01*
X157415000Y-114414017D01*
X157415000Y-114785983D01*
X157557345Y-115129635D01*
X157800710Y-115373000D01*
X155916116Y-115373000D01*
X156035000Y-115085987D01*
X156035000Y-114714021D01*
X155892655Y-114370369D01*
X155629635Y-114107349D01*
X155285983Y-113965004D01*
X154914017Y-113965004D01*
X154570365Y-114107349D01*
X154307345Y-114370369D01*
X154165000Y-114714021D01*
X154165000Y-115085987D01*
X154283884Y-115373000D01*
X153726008Y-115373000D01*
X153585983Y-115315000D01*
X153214017Y-115315000D01*
X153073992Y-115373000D01*
X151849290Y-115373000D01*
X152092655Y-115129635D01*
X152235000Y-114785983D01*
X152235000Y-114414017D01*
X152092655Y-114070365D01*
X151829635Y-113807345D01*
X151485983Y-113665000D01*
X151114017Y-113665000D01*
X150770365Y-113807345D01*
X150507345Y-114070365D01*
X150469500Y-114161731D01*
X150235983Y-114065005D01*
X149864017Y-114065005D01*
X149520365Y-114207350D01*
X149257345Y-114470370D01*
X149115000Y-114814022D01*
X149115000Y-115185988D01*
X149192463Y-115373000D01*
X148936825Y-115373000D01*
X149035000Y-115135983D01*
X149035000Y-114764017D01*
X148892655Y-114420365D01*
X148629635Y-114157345D01*
X148285983Y-114015000D01*
X147914017Y-114015000D01*
X147570365Y-114157345D01*
X147307345Y-114420365D01*
X147165000Y-114764017D01*
X147165000Y-115135983D01*
X147263175Y-115373000D01*
X145550975Y-115373000D01*
X145514310Y-115284483D01*
X145251290Y-115021463D01*
X145154131Y-114981219D01*
X145235000Y-114785983D01*
X145235000Y-114414017D01*
X145092655Y-114070365D01*
X144829635Y-113807345D01*
X144485983Y-113665000D01*
X144114017Y-113665000D01*
X143770365Y-113807345D01*
X143507345Y-114070365D01*
X143365000Y-114414017D01*
X143365000Y-114528284D01*
X143354761Y-114524043D01*
X142982795Y-114524043D01*
X142639143Y-114666388D01*
X142376123Y-114929408D01*
X142233778Y-115273060D01*
X142233778Y-115311486D01*
X142179637Y-115257345D01*
X142010241Y-115187179D01*
X142135000Y-114885983D01*
X142135000Y-114514017D01*
X141992655Y-114170365D01*
X141729635Y-113907345D01*
X141385983Y-113765000D01*
X141014017Y-113765000D01*
X140670365Y-113907345D01*
X140407345Y-114170365D01*
X140265000Y-114514017D01*
X140265000Y-114885983D01*
X140407345Y-115229635D01*
X140550710Y-115373000D01*
X138095290Y-115373000D01*
X137979635Y-115257345D01*
X137969248Y-115253042D01*
X138092655Y-115129635D01*
X138235000Y-114785983D01*
X138235000Y-114414017D01*
X138092655Y-114070365D01*
X137829635Y-113807345D01*
X137485983Y-113665000D01*
X137114017Y-113665000D01*
X136770365Y-113807345D01*
X136507345Y-114070365D01*
X136365000Y-114414017D01*
X136365000Y-114785983D01*
X136507345Y-115129635D01*
X136750710Y-115373000D01*
X133127000Y-115373000D01*
X133127000Y-110189007D01*
X133314718Y-110189007D01*
X133314718Y-110560973D01*
X133457063Y-110904625D01*
X133720083Y-111167645D01*
X134063735Y-111309990D01*
X134435701Y-111309990D01*
X134779353Y-111167645D01*
X135042373Y-110904625D01*
X135073465Y-110829562D01*
X135073465Y-111186014D01*
X135215810Y-111529666D01*
X135478830Y-111792686D01*
X135822482Y-111935031D01*
X136194448Y-111935031D01*
X136378229Y-111858907D01*
X136562009Y-111935031D01*
X136933975Y-111935031D01*
X137277627Y-111792686D01*
X137540647Y-111529666D01*
X137596800Y-111394100D01*
X137770365Y-111567665D01*
X138114017Y-111710010D01*
X138485983Y-111710010D01*
X138829635Y-111567665D01*
X139070849Y-111326451D01*
X141488111Y-111326451D01*
X141488111Y-111698417D01*
X141630456Y-112042069D01*
X141893476Y-112305089D01*
X142237128Y-112447434D01*
X142609094Y-112447434D01*
X142952746Y-112305089D01*
X143215766Y-112042069D01*
X143351649Y-111714017D01*
X145865000Y-111714017D01*
X145865000Y-112085983D01*
X146007345Y-112429635D01*
X146270365Y-112692655D01*
X146614017Y-112835000D01*
X146985983Y-112835000D01*
X147139647Y-112771351D01*
X147414021Y-112885000D01*
X147661201Y-112885000D01*
X147772721Y-112996520D01*
X148116373Y-113138865D01*
X148488339Y-113138865D01*
X148831991Y-112996520D01*
X149095011Y-112733500D01*
X149237356Y-112389848D01*
X149237356Y-112017882D01*
X149095011Y-111674230D01*
X148831991Y-111411210D01*
X148488339Y-111268865D01*
X148241159Y-111268865D01*
X148129639Y-111157345D01*
X147785987Y-111015000D01*
X147414021Y-111015000D01*
X147260357Y-111078649D01*
X146985983Y-110965000D01*
X146614017Y-110965000D01*
X146270365Y-111107345D01*
X146007345Y-111370365D01*
X145865000Y-111714017D01*
X143351649Y-111714017D01*
X143358111Y-111698417D01*
X143358111Y-111620422D01*
X143514017Y-111685000D01*
X143885983Y-111685000D01*
X144229635Y-111542655D01*
X144492655Y-111279635D01*
X144635000Y-110935983D01*
X144635000Y-110564017D01*
X144492655Y-110220365D01*
X144229635Y-109957345D01*
X143885983Y-109815000D01*
X143562269Y-109815000D01*
X143529635Y-109782366D01*
X143185983Y-109640021D01*
X142814017Y-109640021D01*
X142470365Y-109782366D01*
X142207345Y-110045386D01*
X142065000Y-110389038D01*
X142065000Y-110648732D01*
X141893476Y-110719779D01*
X141630456Y-110982799D01*
X141488111Y-111326451D01*
X139070849Y-111326451D01*
X139092655Y-111304645D01*
X139235000Y-110960993D01*
X139235000Y-110589027D01*
X139092655Y-110245375D01*
X139043517Y-110196237D01*
X139151387Y-110088367D01*
X139293732Y-109744715D01*
X139293732Y-109372749D01*
X139151387Y-109029097D01*
X138888367Y-108766077D01*
X138641973Y-108664017D01*
X143965000Y-108664017D01*
X143965000Y-109035983D01*
X144107345Y-109379635D01*
X144370365Y-109642655D01*
X144714017Y-109785000D01*
X145085983Y-109785000D01*
X145352370Y-109674659D01*
X145420366Y-109742655D01*
X145764018Y-109885000D01*
X145962347Y-109885000D01*
X146015770Y-110013975D01*
X146278790Y-110276995D01*
X146622442Y-110419340D01*
X146994408Y-110419340D01*
X147066985Y-110389277D01*
X147070363Y-110392655D01*
X147414015Y-110535000D01*
X147675763Y-110535000D01*
X147846474Y-110705711D01*
X148190126Y-110848056D01*
X148562092Y-110848056D01*
X148905744Y-110705711D01*
X149141290Y-110470165D01*
X149207345Y-110629635D01*
X149470365Y-110892655D01*
X149804357Y-111030999D01*
X149907345Y-111279635D01*
X150090210Y-111462500D01*
X149882345Y-111670365D01*
X149740000Y-112014017D01*
X149740000Y-112385983D01*
X149882345Y-112729635D01*
X150145365Y-112992655D01*
X150489017Y-113135000D01*
X150860983Y-113135000D01*
X151204635Y-112992655D01*
X151467655Y-112729635D01*
X151610000Y-112385983D01*
X151610000Y-112200494D01*
X151814017Y-112285000D01*
X152185983Y-112285000D01*
X152529635Y-112142655D01*
X152792655Y-111879635D01*
X152935000Y-111535983D01*
X152935000Y-111164017D01*
X152792655Y-110820365D01*
X152529635Y-110557345D01*
X152185983Y-110415000D01*
X151814017Y-110415000D01*
X151608531Y-110500115D01*
X151492655Y-110220365D01*
X151229635Y-109957345D01*
X150895643Y-109819001D01*
X150792655Y-109570365D01*
X150529635Y-109307345D01*
X150304321Y-109214017D01*
X153715000Y-109214017D01*
X153715000Y-109585983D01*
X153857345Y-109929635D01*
X154120365Y-110192655D01*
X154464017Y-110335000D01*
X154835983Y-110335000D01*
X154964645Y-110281707D01*
X155189875Y-110375000D01*
X155055178Y-110430793D01*
X154835983Y-110340000D01*
X154464017Y-110340000D01*
X154120365Y-110482345D01*
X153857345Y-110745365D01*
X153715000Y-111089017D01*
X153715000Y-111460983D01*
X153857345Y-111804635D01*
X154120365Y-112067655D01*
X154464017Y-112210000D01*
X154835983Y-112210000D01*
X154994822Y-112144207D01*
X155214017Y-112235000D01*
X155585983Y-112235000D01*
X155710948Y-112183238D01*
X155970365Y-112442655D01*
X156314017Y-112585000D01*
X156685983Y-112585000D01*
X157029635Y-112442655D01*
X157292655Y-112179635D01*
X157435000Y-111835983D01*
X157435000Y-111672981D01*
X157464017Y-111685000D01*
X157835983Y-111685000D01*
X158146210Y-111556500D01*
X158057345Y-111645365D01*
X157915000Y-111989017D01*
X157915000Y-112360983D01*
X158057345Y-112704635D01*
X158320365Y-112967655D01*
X158664017Y-113110000D01*
X159035983Y-113110000D01*
X159379635Y-112967655D01*
X159642655Y-112704635D01*
X159785000Y-112360983D01*
X159785000Y-111989017D01*
X159642655Y-111645365D01*
X159379635Y-111382345D01*
X159035983Y-111240000D01*
X158664017Y-111240000D01*
X158353790Y-111368500D01*
X158442655Y-111279635D01*
X158585000Y-110935983D01*
X158585000Y-110564017D01*
X158442655Y-110220365D01*
X158179635Y-109957345D01*
X157905999Y-109844001D01*
X157792655Y-109570365D01*
X157529635Y-109307345D01*
X157504067Y-109296754D01*
X158147725Y-109296754D01*
X158147725Y-109668720D01*
X158290070Y-110012372D01*
X158553090Y-110275392D01*
X158896742Y-110417737D01*
X159268708Y-110417737D01*
X159612360Y-110275392D01*
X159875380Y-110012372D01*
X159916119Y-109914017D01*
X163065000Y-109914017D01*
X163065000Y-110285983D01*
X163207345Y-110629635D01*
X163470365Y-110892655D01*
X163683646Y-110980999D01*
X163807345Y-111279635D01*
X164070365Y-111542655D01*
X164414017Y-111685000D01*
X164465000Y-111685000D01*
X164465000Y-111835983D01*
X164607345Y-112179635D01*
X164870365Y-112442655D01*
X165214017Y-112585000D01*
X165585983Y-112585000D01*
X165929635Y-112442655D01*
X166192655Y-112179635D01*
X166335000Y-111835983D01*
X166335000Y-111464017D01*
X166192655Y-111120365D01*
X165929635Y-110857345D01*
X165585983Y-110715000D01*
X165535000Y-110715000D01*
X165535000Y-110564017D01*
X165392655Y-110220365D01*
X165129635Y-109957345D01*
X164916354Y-109869001D01*
X164792655Y-109570365D01*
X164529635Y-109307345D01*
X164185983Y-109165000D01*
X163814017Y-109165000D01*
X163470365Y-109307345D01*
X163207345Y-109570365D01*
X163065000Y-109914017D01*
X159916119Y-109914017D01*
X160017725Y-109668720D01*
X160017725Y-109296754D01*
X159875380Y-108953102D01*
X159612360Y-108690082D01*
X159268708Y-108547737D01*
X158896742Y-108547737D01*
X158553090Y-108690082D01*
X158290070Y-108953102D01*
X158147725Y-109296754D01*
X157504067Y-109296754D01*
X157185983Y-109165000D01*
X156814017Y-109165000D01*
X156470365Y-109307345D01*
X156335000Y-109442710D01*
X156335000Y-109264017D01*
X156192655Y-108920365D01*
X155929635Y-108657345D01*
X155585983Y-108515000D01*
X155214017Y-108515000D01*
X155085355Y-108568293D01*
X154835983Y-108465000D01*
X154464017Y-108465000D01*
X154120365Y-108607345D01*
X153857345Y-108870365D01*
X153715000Y-109214017D01*
X150304321Y-109214017D01*
X150185983Y-109165000D01*
X149814017Y-109165000D01*
X149796728Y-109172161D01*
X149796728Y-108964028D01*
X149654383Y-108620376D01*
X149391363Y-108357356D01*
X149047711Y-108215011D01*
X148675745Y-108215011D01*
X148332093Y-108357356D01*
X148069073Y-108620376D01*
X148011838Y-108758553D01*
X147785981Y-108665000D01*
X147414015Y-108665000D01*
X147341438Y-108695063D01*
X147338060Y-108691685D01*
X146994408Y-108549340D01*
X146796079Y-108549340D01*
X146742656Y-108420365D01*
X146479636Y-108157345D01*
X146135984Y-108015000D01*
X145764018Y-108015000D01*
X145497631Y-108125341D01*
X145429635Y-108057345D01*
X145085983Y-107915000D01*
X144714017Y-107915000D01*
X144370365Y-108057345D01*
X144107345Y-108320365D01*
X143965000Y-108664017D01*
X138641973Y-108664017D01*
X138626268Y-108657512D01*
X138626268Y-108555285D01*
X138483923Y-108211633D01*
X138220903Y-107948613D01*
X137877251Y-107806268D01*
X137505285Y-107806268D01*
X137161633Y-107948613D01*
X136898613Y-108211633D01*
X136777153Y-108504863D01*
X136729635Y-108457345D01*
X136385983Y-108315000D01*
X136014017Y-108315000D01*
X135670365Y-108457345D01*
X135407345Y-108720365D01*
X135265000Y-109064017D01*
X135265000Y-109435983D01*
X135407345Y-109779635D01*
X135670365Y-110042655D01*
X135773434Y-110085347D01*
X135478830Y-110207376D01*
X135215810Y-110470396D01*
X135184718Y-110545459D01*
X135184718Y-110189007D01*
X135042373Y-109845355D01*
X134779353Y-109582335D01*
X134435701Y-109439990D01*
X134063735Y-109439990D01*
X133720083Y-109582335D01*
X133457063Y-109845355D01*
X133314718Y-110189007D01*
X133127000Y-110189007D01*
X133127000Y-107114017D01*
X133165000Y-107114017D01*
X133165000Y-107485983D01*
X133307345Y-107829635D01*
X133570365Y-108092655D01*
X133914017Y-108235000D01*
X134285983Y-108235000D01*
X134629635Y-108092655D01*
X134892655Y-107829635D01*
X135035000Y-107485983D01*
X135035000Y-107114017D01*
X134892655Y-106770365D01*
X134629635Y-106507345D01*
X134285983Y-106365000D01*
X133914017Y-106365000D01*
X133570365Y-106507345D01*
X133307345Y-106770365D01*
X133165000Y-107114017D01*
X133127000Y-107114017D01*
X133127000Y-106500000D01*
X133117333Y-106451399D01*
X133089803Y-106410197D01*
X133048601Y-106382667D01*
X133000000Y-106373000D01*
X117127000Y-106373000D01*
X117127000Y-106239017D01*
X135715000Y-106239017D01*
X135715000Y-106610983D01*
X135857345Y-106954635D01*
X136120365Y-107217655D01*
X136464017Y-107360000D01*
X136835983Y-107360000D01*
X137179635Y-107217655D01*
X137442655Y-106954635D01*
X137585000Y-106610983D01*
X137585000Y-106557290D01*
X137770365Y-106742655D01*
X138114017Y-106885000D01*
X138485983Y-106885000D01*
X138829635Y-106742655D01*
X139092655Y-106479635D01*
X139235000Y-106135983D01*
X139235000Y-106031207D01*
X139324077Y-105942130D01*
X139315011Y-105964017D01*
X139315011Y-106335983D01*
X139457356Y-106679635D01*
X139720376Y-106942655D01*
X140064028Y-107085000D01*
X140177019Y-107085000D01*
X140165000Y-107114017D01*
X140165000Y-107485983D01*
X140307345Y-107829635D01*
X140570365Y-108092655D01*
X140914017Y-108235000D01*
X141285983Y-108235000D01*
X141629635Y-108092655D01*
X141892655Y-107829635D01*
X142035000Y-107485983D01*
X142035000Y-107114017D01*
X147165000Y-107114017D01*
X147165000Y-107485983D01*
X147307345Y-107829635D01*
X147570365Y-108092655D01*
X147914017Y-108235000D01*
X148285983Y-108235000D01*
X148629635Y-108092655D01*
X148892655Y-107829635D01*
X149035000Y-107485983D01*
X149035000Y-107114017D01*
X154265000Y-107114017D01*
X154265000Y-107485983D01*
X154407345Y-107829635D01*
X154670365Y-108092655D01*
X155014017Y-108235000D01*
X155385983Y-108235000D01*
X155729635Y-108092655D01*
X155992655Y-107829635D01*
X156135000Y-107485983D01*
X156135000Y-107114017D01*
X155992655Y-106770365D01*
X155729635Y-106507345D01*
X155385983Y-106365000D01*
X155014017Y-106365000D01*
X154670365Y-106507345D01*
X154407345Y-106770365D01*
X154265000Y-107114017D01*
X149035000Y-107114017D01*
X148898777Y-106785145D01*
X149164017Y-106895011D01*
X149535983Y-106895011D01*
X149879635Y-106752666D01*
X150142655Y-106489646D01*
X150285000Y-106145994D01*
X150285000Y-105774028D01*
X150142655Y-105430376D01*
X149879635Y-105167356D01*
X149535983Y-105025011D01*
X149164017Y-105025011D01*
X148820365Y-105167356D01*
X148557345Y-105430376D01*
X148415000Y-105774028D01*
X148415000Y-106145994D01*
X148551223Y-106474866D01*
X148285983Y-106365000D01*
X147914017Y-106365000D01*
X147570365Y-106507345D01*
X147307345Y-106770365D01*
X147165000Y-107114017D01*
X142035000Y-107114017D01*
X141892655Y-106770365D01*
X141629635Y-106507345D01*
X141285983Y-106365000D01*
X141172992Y-106365000D01*
X141185011Y-106335983D01*
X141185011Y-105964017D01*
X141042666Y-105620365D01*
X140779646Y-105357345D01*
X140435994Y-105215000D01*
X140064028Y-105215000D01*
X139720376Y-105357345D01*
X139566665Y-105511056D01*
X139575731Y-105489169D01*
X139575731Y-105117203D01*
X139433386Y-104773551D01*
X139170366Y-104510531D01*
X138826714Y-104368186D01*
X138454748Y-104368186D01*
X138111096Y-104510531D01*
X137971959Y-104649669D01*
X137829635Y-104507345D01*
X137485983Y-104365000D01*
X137114017Y-104365000D01*
X136770365Y-104507345D01*
X136507345Y-104770365D01*
X136365000Y-105114017D01*
X136365000Y-105485983D01*
X136380921Y-105524419D01*
X136120365Y-105632345D01*
X135857345Y-105895365D01*
X135715000Y-106239017D01*
X117127000Y-106239017D01*
X117127000Y-104314017D01*
X150465000Y-104314017D01*
X150465000Y-104685983D01*
X150607345Y-105029635D01*
X150870365Y-105292655D01*
X151214017Y-105435000D01*
X151585983Y-105435000D01*
X151612457Y-105424034D01*
X156065000Y-105424034D01*
X156065000Y-105796000D01*
X156207345Y-106139652D01*
X156470365Y-106402672D01*
X156724010Y-106507735D01*
X156857345Y-106829635D01*
X157120365Y-107092655D01*
X157464017Y-107235000D01*
X157835983Y-107235000D01*
X158128062Y-107114017D01*
X161165000Y-107114017D01*
X161165000Y-107485983D01*
X161307345Y-107829635D01*
X161570365Y-108092655D01*
X161914017Y-108235000D01*
X162285983Y-108235000D01*
X162629635Y-108092655D01*
X162892655Y-107829635D01*
X163035000Y-107485983D01*
X163035000Y-107114017D01*
X162892655Y-106770365D01*
X162629635Y-106507345D01*
X162285983Y-106365000D01*
X161914017Y-106365000D01*
X161570365Y-106507345D01*
X161307345Y-106770365D01*
X161165000Y-107114017D01*
X158128062Y-107114017D01*
X158179635Y-107092655D01*
X158442655Y-106829635D01*
X158585000Y-106485983D01*
X158585000Y-106114017D01*
X158442655Y-105770365D01*
X158179635Y-105507345D01*
X157925990Y-105402282D01*
X157792655Y-105080382D01*
X157529635Y-104817362D01*
X157185983Y-104675017D01*
X156814017Y-104675017D01*
X156470365Y-104817362D01*
X156207345Y-105080382D01*
X156065000Y-105424034D01*
X151612457Y-105424034D01*
X151929635Y-105292655D01*
X152192655Y-105029635D01*
X152335000Y-104685983D01*
X152335000Y-104324017D01*
X159215000Y-104324017D01*
X159215000Y-104695983D01*
X159357345Y-105039635D01*
X159620365Y-105302655D01*
X159964017Y-105445000D01*
X160335983Y-105445000D01*
X160386638Y-105424018D01*
X162965000Y-105424018D01*
X162965000Y-105795984D01*
X163107345Y-106139636D01*
X163370365Y-106402656D01*
X163714017Y-106545001D01*
X164085983Y-106545001D01*
X164429635Y-106402656D01*
X164692655Y-106139636D01*
X164835000Y-105795984D01*
X164835000Y-105424018D01*
X164736375Y-105185915D01*
X164892655Y-105029635D01*
X165035000Y-104685983D01*
X165035000Y-104314017D01*
X164892655Y-103970365D01*
X164629635Y-103707345D01*
X164285983Y-103565000D01*
X163914017Y-103565000D01*
X163570365Y-103707345D01*
X163307345Y-103970365D01*
X163165000Y-104314017D01*
X163165000Y-104685983D01*
X163263625Y-104924086D01*
X163107345Y-105080366D01*
X162965000Y-105424018D01*
X160386638Y-105424018D01*
X160679635Y-105302655D01*
X160942655Y-105039635D01*
X161085000Y-104695983D01*
X161085000Y-104324017D01*
X160942655Y-103980365D01*
X160679635Y-103717345D01*
X160335983Y-103575000D01*
X159964017Y-103575000D01*
X159620365Y-103717345D01*
X159357345Y-103980365D01*
X159215000Y-104324017D01*
X152335000Y-104324017D01*
X152335000Y-104314017D01*
X152192655Y-103970365D01*
X151929635Y-103707345D01*
X151585983Y-103565000D01*
X151214017Y-103565000D01*
X150870365Y-103707345D01*
X150607345Y-103970365D01*
X150465000Y-104314017D01*
X117127000Y-104314017D01*
X117127000Y-99150000D01*
X118252560Y-99150000D01*
X118252560Y-100650000D01*
X118301843Y-100897765D01*
X118442191Y-101107809D01*
X118652235Y-101248157D01*
X118900000Y-101297440D01*
X120400000Y-101297440D01*
X120647765Y-101248157D01*
X120857809Y-101107809D01*
X120998157Y-100897765D01*
X121036469Y-100705156D01*
X121405460Y-101074147D01*
X121914506Y-101285000D01*
X122465494Y-101285000D01*
X122974540Y-101074147D01*
X123364147Y-100684540D01*
X123460000Y-100453130D01*
X123555853Y-100684540D01*
X123945460Y-101074147D01*
X124454506Y-101285000D01*
X125005494Y-101285000D01*
X125514540Y-101074147D01*
X125904147Y-100684540D01*
X126000000Y-100453130D01*
X126095853Y-100684540D01*
X126485460Y-101074147D01*
X126994506Y-101285000D01*
X127545494Y-101285000D01*
X128054540Y-101074147D01*
X128444147Y-100684540D01*
X128540000Y-100453130D01*
X128635853Y-100684540D01*
X129025460Y-101074147D01*
X129534506Y-101285000D01*
X130085494Y-101285000D01*
X130594540Y-101074147D01*
X130984147Y-100684540D01*
X131080000Y-100453130D01*
X131175853Y-100684540D01*
X131565460Y-101074147D01*
X132074506Y-101285000D01*
X132625494Y-101285000D01*
X133134540Y-101074147D01*
X133524147Y-100684540D01*
X133620000Y-100453130D01*
X133715853Y-100684540D01*
X134105460Y-101074147D01*
X134614506Y-101285000D01*
X135165494Y-101285000D01*
X135674540Y-101074147D01*
X136064147Y-100684540D01*
X136160000Y-100453130D01*
X136255853Y-100684540D01*
X136645460Y-101074147D01*
X137154506Y-101285000D01*
X137705494Y-101285000D01*
X138214540Y-101074147D01*
X138604147Y-100684540D01*
X138700000Y-100453130D01*
X138795853Y-100684540D01*
X139185460Y-101074147D01*
X139694506Y-101285000D01*
X140245494Y-101285000D01*
X140754540Y-101074147D01*
X141144147Y-100684540D01*
X141355000Y-100175494D01*
X141355000Y-99624506D01*
X141158454Y-99150000D01*
X143502560Y-99150000D01*
X143502560Y-100650000D01*
X143551843Y-100897765D01*
X143692191Y-101107809D01*
X143902235Y-101248157D01*
X144150000Y-101297440D01*
X145650000Y-101297440D01*
X145897765Y-101248157D01*
X146107809Y-101107809D01*
X146248157Y-100897765D01*
X146286469Y-100705156D01*
X146655460Y-101074147D01*
X147164506Y-101285000D01*
X147715494Y-101285000D01*
X148224540Y-101074147D01*
X148614147Y-100684540D01*
X148710000Y-100453130D01*
X148805853Y-100684540D01*
X149195460Y-101074147D01*
X149704506Y-101285000D01*
X150255494Y-101285000D01*
X150764540Y-101074147D01*
X151154147Y-100684540D01*
X151250000Y-100453130D01*
X151345853Y-100684540D01*
X151735460Y-101074147D01*
X152244506Y-101285000D01*
X152795494Y-101285000D01*
X153304540Y-101074147D01*
X153694147Y-100684540D01*
X153790000Y-100453130D01*
X153885853Y-100684540D01*
X154275460Y-101074147D01*
X154784506Y-101285000D01*
X155335494Y-101285000D01*
X155844540Y-101074147D01*
X156234147Y-100684540D01*
X156330000Y-100453130D01*
X156425853Y-100684540D01*
X156815460Y-101074147D01*
X157324506Y-101285000D01*
X157875494Y-101285000D01*
X158384540Y-101074147D01*
X158774147Y-100684540D01*
X158870000Y-100453130D01*
X158965853Y-100684540D01*
X159355460Y-101074147D01*
X159864506Y-101285000D01*
X160415494Y-101285000D01*
X160924540Y-101074147D01*
X161314147Y-100684540D01*
X161410000Y-100453130D01*
X161505853Y-100684540D01*
X161895460Y-101074147D01*
X162404506Y-101285000D01*
X162955494Y-101285000D01*
X163464540Y-101074147D01*
X163854147Y-100684540D01*
X163950000Y-100453130D01*
X164045853Y-100684540D01*
X164435460Y-101074147D01*
X164944506Y-101285000D01*
X165495494Y-101285000D01*
X166004540Y-101074147D01*
X166394147Y-100684540D01*
X166605000Y-100175494D01*
X166605000Y-99624506D01*
X166394147Y-99115460D01*
X166004540Y-98725853D01*
X165495494Y-98515000D01*
X164944506Y-98515000D01*
X164435460Y-98725853D01*
X164045853Y-99115460D01*
X163950000Y-99346870D01*
X163854147Y-99115460D01*
X163464540Y-98725853D01*
X162955494Y-98515000D01*
X162404506Y-98515000D01*
X161895460Y-98725853D01*
X161505853Y-99115460D01*
X161410000Y-99346870D01*
X161314147Y-99115460D01*
X160924540Y-98725853D01*
X160415494Y-98515000D01*
X159864506Y-98515000D01*
X159355460Y-98725853D01*
X158965853Y-99115460D01*
X158870000Y-99346870D01*
X158774147Y-99115460D01*
X158384540Y-98725853D01*
X157875494Y-98515000D01*
X157324506Y-98515000D01*
X156815460Y-98725853D01*
X156425853Y-99115460D01*
X156330000Y-99346870D01*
X156234147Y-99115460D01*
X155844540Y-98725853D01*
X155335494Y-98515000D01*
X154784506Y-98515000D01*
X154275460Y-98725853D01*
X153885853Y-99115460D01*
X153790000Y-99346870D01*
X153694147Y-99115460D01*
X153304540Y-98725853D01*
X152795494Y-98515000D01*
X152244506Y-98515000D01*
X151735460Y-98725853D01*
X151345853Y-99115460D01*
X151250000Y-99346870D01*
X151154147Y-99115460D01*
X150764540Y-98725853D01*
X150255494Y-98515000D01*
X149704506Y-98515000D01*
X149195460Y-98725853D01*
X148805853Y-99115460D01*
X148710000Y-99346870D01*
X148614147Y-99115460D01*
X148224540Y-98725853D01*
X147715494Y-98515000D01*
X147164506Y-98515000D01*
X146655460Y-98725853D01*
X146286469Y-99094844D01*
X146248157Y-98902235D01*
X146107809Y-98692191D01*
X145897765Y-98551843D01*
X145650000Y-98502560D01*
X144150000Y-98502560D01*
X143902235Y-98551843D01*
X143692191Y-98692191D01*
X143551843Y-98902235D01*
X143502560Y-99150000D01*
X141158454Y-99150000D01*
X141144147Y-99115460D01*
X140754540Y-98725853D01*
X140245494Y-98515000D01*
X139694506Y-98515000D01*
X139185460Y-98725853D01*
X138795853Y-99115460D01*
X138700000Y-99346870D01*
X138604147Y-99115460D01*
X138214540Y-98725853D01*
X137705494Y-98515000D01*
X137154506Y-98515000D01*
X136645460Y-98725853D01*
X136255853Y-99115460D01*
X136160000Y-99346870D01*
X136064147Y-99115460D01*
X135674540Y-98725853D01*
X135165494Y-98515000D01*
X134614506Y-98515000D01*
X134464381Y-98577184D01*
X134585000Y-98285983D01*
X134585000Y-97914017D01*
X134442655Y-97570365D01*
X134179635Y-97307345D01*
X133835983Y-97165000D01*
X133464017Y-97165000D01*
X133120365Y-97307345D01*
X132857345Y-97570365D01*
X132715000Y-97914017D01*
X132715000Y-98285983D01*
X132848045Y-98607183D01*
X132625494Y-98515000D01*
X132074506Y-98515000D01*
X131565460Y-98725853D01*
X131175853Y-99115460D01*
X131080000Y-99346870D01*
X130984147Y-99115460D01*
X130594540Y-98725853D01*
X130085494Y-98515000D01*
X129534506Y-98515000D01*
X129025460Y-98725853D01*
X128635853Y-99115460D01*
X128540000Y-99346870D01*
X128444147Y-99115460D01*
X128054540Y-98725853D01*
X127545494Y-98515000D01*
X126994506Y-98515000D01*
X126485460Y-98725853D01*
X126095853Y-99115460D01*
X126000000Y-99346870D01*
X125904147Y-99115460D01*
X125514540Y-98725853D01*
X125005494Y-98515000D01*
X124454506Y-98515000D01*
X123945460Y-98725853D01*
X123555853Y-99115460D01*
X123460000Y-99346870D01*
X123364147Y-99115460D01*
X122974540Y-98725853D01*
X122465494Y-98515000D01*
X121914506Y-98515000D01*
X121405460Y-98725853D01*
X121036469Y-99094844D01*
X120998157Y-98902235D01*
X120857809Y-98692191D01*
X120647765Y-98551843D01*
X120400000Y-98502560D01*
X118900000Y-98502560D01*
X118652235Y-98551843D01*
X118442191Y-98692191D01*
X118301843Y-98902235D01*
X118252560Y-99150000D01*
X117127000Y-99150000D01*
X117127000Y-86047221D01*
X128950280Y-86047221D01*
X129008449Y-86397827D01*
X129734501Y-86572284D01*
X130472047Y-86455613D01*
X130611551Y-86397827D01*
X130669720Y-86047221D01*
X131490280Y-86047221D01*
X131548449Y-86397827D01*
X132274501Y-86572284D01*
X133012047Y-86455613D01*
X133151551Y-86397827D01*
X133209720Y-86047221D01*
X132350000Y-85187502D01*
X131490280Y-86047221D01*
X130669720Y-86047221D01*
X129810000Y-85187502D01*
X128950280Y-86047221D01*
X117127000Y-86047221D01*
X117127000Y-84384506D01*
X118265000Y-84384506D01*
X118265000Y-84935494D01*
X118475853Y-85444540D01*
X118865460Y-85834147D01*
X119374506Y-86045000D01*
X119925494Y-86045000D01*
X120434540Y-85834147D01*
X120824147Y-85444540D01*
X120920000Y-85213130D01*
X121015853Y-85444540D01*
X121405460Y-85834147D01*
X121914506Y-86045000D01*
X122465494Y-86045000D01*
X122974540Y-85834147D01*
X123364147Y-85444540D01*
X123460000Y-85213130D01*
X123555853Y-85444540D01*
X123945460Y-85834147D01*
X124454506Y-86045000D01*
X125005494Y-86045000D01*
X125514540Y-85834147D01*
X125904147Y-85444540D01*
X126000000Y-85213130D01*
X126095853Y-85444540D01*
X126485460Y-85834147D01*
X126994506Y-86045000D01*
X127545494Y-86045000D01*
X128054540Y-85834147D01*
X128376624Y-85512063D01*
X128422779Y-85519720D01*
X129282498Y-84660000D01*
X130337502Y-84660000D01*
X130470735Y-84793233D01*
X130554387Y-85322047D01*
X130612173Y-85461551D01*
X130962779Y-85519720D01*
X131080000Y-85402499D01*
X131197221Y-85519720D01*
X131547827Y-85461551D01*
X131714467Y-84768031D01*
X131822498Y-84660000D01*
X132877502Y-84660000D01*
X133737221Y-85519720D01*
X133783376Y-85512063D01*
X134105460Y-85834147D01*
X134203114Y-85874596D01*
X133957345Y-86120365D01*
X133815000Y-86464017D01*
X133815000Y-86835983D01*
X133957345Y-87179635D01*
X134220365Y-87442655D01*
X134564017Y-87585000D01*
X134935983Y-87585000D01*
X135279635Y-87442655D01*
X135542655Y-87179635D01*
X135685000Y-86835983D01*
X135685000Y-86464017D01*
X135542655Y-86120365D01*
X135469511Y-86047221D01*
X154200280Y-86047221D01*
X154258449Y-86397827D01*
X154984501Y-86572284D01*
X155722047Y-86455613D01*
X155861551Y-86397827D01*
X155919720Y-86047221D01*
X156740280Y-86047221D01*
X156798449Y-86397827D01*
X157524501Y-86572284D01*
X158262047Y-86455613D01*
X158401551Y-86397827D01*
X158459720Y-86047221D01*
X157600000Y-85187502D01*
X156740280Y-86047221D01*
X155919720Y-86047221D01*
X155060000Y-85187502D01*
X154200280Y-86047221D01*
X135469511Y-86047221D01*
X135378896Y-85956606D01*
X135674540Y-85834147D01*
X136064147Y-85444540D01*
X136160000Y-85213130D01*
X136255853Y-85444540D01*
X136645460Y-85834147D01*
X137154506Y-86045000D01*
X137705494Y-86045000D01*
X138214540Y-85834147D01*
X138604147Y-85444540D01*
X138700000Y-85213130D01*
X138795853Y-85444540D01*
X139185460Y-85834147D01*
X139694506Y-86045000D01*
X140245494Y-86045000D01*
X140754540Y-85834147D01*
X141144147Y-85444540D01*
X141355000Y-84935494D01*
X141355000Y-84384506D01*
X143515000Y-84384506D01*
X143515000Y-84935494D01*
X143725853Y-85444540D01*
X144115460Y-85834147D01*
X144624506Y-86045000D01*
X145175494Y-86045000D01*
X145684540Y-85834147D01*
X146074147Y-85444540D01*
X146170000Y-85213130D01*
X146265853Y-85444540D01*
X146655460Y-85834147D01*
X147164506Y-86045000D01*
X147715494Y-86045000D01*
X148224540Y-85834147D01*
X148614147Y-85444540D01*
X148710000Y-85213130D01*
X148805853Y-85444540D01*
X149195460Y-85834147D01*
X149704506Y-86045000D01*
X150255494Y-86045000D01*
X150764540Y-85834147D01*
X151154147Y-85444540D01*
X151250000Y-85213130D01*
X151345853Y-85444540D01*
X151735460Y-85834147D01*
X152244506Y-86045000D01*
X152795494Y-86045000D01*
X153304540Y-85834147D01*
X153626624Y-85512063D01*
X153672779Y-85519720D01*
X154532498Y-84660000D01*
X155587502Y-84660000D01*
X155720735Y-84793233D01*
X155804387Y-85322047D01*
X155862173Y-85461551D01*
X156212779Y-85519720D01*
X156330000Y-85402499D01*
X156447221Y-85519720D01*
X156797827Y-85461551D01*
X156964467Y-84768031D01*
X157072498Y-84660000D01*
X158127502Y-84660000D01*
X158987221Y-85519720D01*
X159033376Y-85512063D01*
X159355460Y-85834147D01*
X159864506Y-86045000D01*
X160415494Y-86045000D01*
X160924540Y-85834147D01*
X161314147Y-85444540D01*
X161410000Y-85213130D01*
X161505853Y-85444540D01*
X161895460Y-85834147D01*
X162404506Y-86045000D01*
X162955494Y-86045000D01*
X163464540Y-85834147D01*
X163854147Y-85444540D01*
X163950000Y-85213130D01*
X164045853Y-85444540D01*
X164435460Y-85834147D01*
X164944506Y-86045000D01*
X165495494Y-86045000D01*
X166004540Y-85834147D01*
X166394147Y-85444540D01*
X166605000Y-84935494D01*
X166605000Y-84384506D01*
X166394147Y-83875460D01*
X166004540Y-83485853D01*
X165495494Y-83275000D01*
X164944506Y-83275000D01*
X164435460Y-83485853D01*
X164045853Y-83875460D01*
X163950000Y-84106870D01*
X163854147Y-83875460D01*
X163464540Y-83485853D01*
X162955494Y-83275000D01*
X162404506Y-83275000D01*
X161895460Y-83485853D01*
X161505853Y-83875460D01*
X161410000Y-84106870D01*
X161314147Y-83875460D01*
X160924540Y-83485853D01*
X160415494Y-83275000D01*
X159864506Y-83275000D01*
X159355460Y-83485853D01*
X159033376Y-83807937D01*
X158987221Y-83800280D01*
X158127502Y-84660000D01*
X157072498Y-84660000D01*
X156939265Y-84526767D01*
X156855613Y-83997953D01*
X156797827Y-83858449D01*
X156447221Y-83800280D01*
X156330000Y-83917501D01*
X156212779Y-83800280D01*
X155862173Y-83858449D01*
X155695533Y-84551969D01*
X155587502Y-84660000D01*
X154532498Y-84660000D01*
X153672779Y-83800280D01*
X153626624Y-83807937D01*
X153304540Y-83485853D01*
X152795494Y-83275000D01*
X152244506Y-83275000D01*
X151735460Y-83485853D01*
X151345853Y-83875460D01*
X151250000Y-84106870D01*
X151154147Y-83875460D01*
X150764540Y-83485853D01*
X150255494Y-83275000D01*
X149704506Y-83275000D01*
X149195460Y-83485853D01*
X148805853Y-83875460D01*
X148710000Y-84106870D01*
X148614147Y-83875460D01*
X148224540Y-83485853D01*
X147715494Y-83275000D01*
X147164506Y-83275000D01*
X146655460Y-83485853D01*
X146265853Y-83875460D01*
X146170000Y-84106870D01*
X146074147Y-83875460D01*
X145684540Y-83485853D01*
X145175494Y-83275000D01*
X144624506Y-83275000D01*
X144115460Y-83485853D01*
X143725853Y-83875460D01*
X143515000Y-84384506D01*
X141355000Y-84384506D01*
X141144147Y-83875460D01*
X140754540Y-83485853D01*
X140245494Y-83275000D01*
X139694506Y-83275000D01*
X139185460Y-83485853D01*
X138795853Y-83875460D01*
X138700000Y-84106870D01*
X138604147Y-83875460D01*
X138214540Y-83485853D01*
X137705494Y-83275000D01*
X137154506Y-83275000D01*
X136645460Y-83485853D01*
X136255853Y-83875460D01*
X136160000Y-84106870D01*
X136064147Y-83875460D01*
X135674540Y-83485853D01*
X135165494Y-83275000D01*
X134614506Y-83275000D01*
X134105460Y-83485853D01*
X133783376Y-83807937D01*
X133737221Y-83800280D01*
X132877502Y-84660000D01*
X131822498Y-84660000D01*
X131689265Y-84526767D01*
X131605613Y-83997953D01*
X131547827Y-83858449D01*
X131197221Y-83800280D01*
X131080000Y-83917501D01*
X130962779Y-83800280D01*
X130612173Y-83858449D01*
X130445533Y-84551969D01*
X130337502Y-84660000D01*
X129282498Y-84660000D01*
X128422779Y-83800280D01*
X128376624Y-83807937D01*
X128054540Y-83485853D01*
X127545494Y-83275000D01*
X126994506Y-83275000D01*
X126485460Y-83485853D01*
X126095853Y-83875460D01*
X126000000Y-84106870D01*
X125904147Y-83875460D01*
X125514540Y-83485853D01*
X125005494Y-83275000D01*
X124454506Y-83275000D01*
X123945460Y-83485853D01*
X123555853Y-83875460D01*
X123460000Y-84106870D01*
X123364147Y-83875460D01*
X122974540Y-83485853D01*
X122465494Y-83275000D01*
X121914506Y-83275000D01*
X121405460Y-83485853D01*
X121015853Y-83875460D01*
X120920000Y-84106870D01*
X120824147Y-83875460D01*
X120434540Y-83485853D01*
X119925494Y-83275000D01*
X119374506Y-83275000D01*
X118865460Y-83485853D01*
X118475853Y-83875460D01*
X118265000Y-84384506D01*
X117127000Y-84384506D01*
X117127000Y-83272779D01*
X128950280Y-83272779D01*
X129810000Y-84132498D01*
X130669720Y-83272779D01*
X131490280Y-83272779D01*
X132350000Y-84132498D01*
X133209720Y-83272779D01*
X154200280Y-83272779D01*
X155060000Y-84132498D01*
X155919720Y-83272779D01*
X156740280Y-83272779D01*
X157600000Y-84132498D01*
X158459720Y-83272779D01*
X158401551Y-82922173D01*
X157675499Y-82747716D01*
X156937953Y-82864387D01*
X156798449Y-82922173D01*
X156740280Y-83272779D01*
X155919720Y-83272779D01*
X155861551Y-82922173D01*
X155135499Y-82747716D01*
X154397953Y-82864387D01*
X154258449Y-82922173D01*
X154200280Y-83272779D01*
X133209720Y-83272779D01*
X133151551Y-82922173D01*
X132425499Y-82747716D01*
X131687953Y-82864387D01*
X131548449Y-82922173D01*
X131490280Y-83272779D01*
X130669720Y-83272779D01*
X130611551Y-82922173D01*
X129885499Y-82747716D01*
X129147953Y-82864387D01*
X129008449Y-82922173D01*
X128950280Y-83272779D01*
X117127000Y-83272779D01*
X117127000Y-81627000D01*
X167873000Y-81627000D01*
X167873000Y-115373000D01*
X167873000Y-115373000D01*
G37*
X167873000Y-115373000D02*
X165849290Y-115373000D01*
X166092655Y-115129635D01*
X166235000Y-114785983D01*
X166235000Y-114414017D01*
X166092655Y-114070365D01*
X165829635Y-113807345D01*
X165485983Y-113665000D01*
X165114017Y-113665000D01*
X164770365Y-113807345D01*
X164507345Y-114070365D01*
X164365000Y-114414017D01*
X164365000Y-114785983D01*
X164507345Y-115129635D01*
X164750710Y-115373000D01*
X163016114Y-115373000D01*
X163135000Y-115085983D01*
X163135000Y-114714017D01*
X162992655Y-114370365D01*
X162729635Y-114107345D01*
X162385983Y-113965000D01*
X162014017Y-113965000D01*
X161670365Y-114107345D01*
X161407345Y-114370365D01*
X161265000Y-114714017D01*
X161265000Y-115085983D01*
X161383886Y-115373000D01*
X158899290Y-115373000D01*
X159142655Y-115129635D01*
X159285000Y-114785983D01*
X159285000Y-114414017D01*
X159142655Y-114070365D01*
X158879635Y-113807345D01*
X158535983Y-113665000D01*
X158164017Y-113665000D01*
X157820365Y-113807345D01*
X157557345Y-114070365D01*
X157415000Y-114414017D01*
X157415000Y-114785983D01*
X157557345Y-115129635D01*
X157800710Y-115373000D01*
X155916116Y-115373000D01*
X156035000Y-115085987D01*
X156035000Y-114714021D01*
X155892655Y-114370369D01*
X155629635Y-114107349D01*
X155285983Y-113965004D01*
X154914017Y-113965004D01*
X154570365Y-114107349D01*
X154307345Y-114370369D01*
X154165000Y-114714021D01*
X154165000Y-115085987D01*
X154283884Y-115373000D01*
X153726008Y-115373000D01*
X153585983Y-115315000D01*
X153214017Y-115315000D01*
X153073992Y-115373000D01*
X151849290Y-115373000D01*
X152092655Y-115129635D01*
X152235000Y-114785983D01*
X152235000Y-114414017D01*
X152092655Y-114070365D01*
X151829635Y-113807345D01*
X151485983Y-113665000D01*
X151114017Y-113665000D01*
X150770365Y-113807345D01*
X150507345Y-114070365D01*
X150469500Y-114161731D01*
X150235983Y-114065005D01*
X149864017Y-114065005D01*
X149520365Y-114207350D01*
X149257345Y-114470370D01*
X149115000Y-114814022D01*
X149115000Y-115185988D01*
X149192463Y-115373000D01*
X148936825Y-115373000D01*
X149035000Y-115135983D01*
X149035000Y-114764017D01*
X148892655Y-114420365D01*
X148629635Y-114157345D01*
X148285983Y-114015000D01*
X147914017Y-114015000D01*
X147570365Y-114157345D01*
X147307345Y-114420365D01*
X147165000Y-114764017D01*
X147165000Y-115135983D01*
X147263175Y-115373000D01*
X145550975Y-115373000D01*
X145514310Y-115284483D01*
X145251290Y-115021463D01*
X145154131Y-114981219D01*
X145235000Y-114785983D01*
X145235000Y-114414017D01*
X145092655Y-114070365D01*
X144829635Y-113807345D01*
X144485983Y-113665000D01*
X144114017Y-113665000D01*
X143770365Y-113807345D01*
X143507345Y-114070365D01*
X143365000Y-114414017D01*
X143365000Y-114528284D01*
X143354761Y-114524043D01*
X142982795Y-114524043D01*
X142639143Y-114666388D01*
X142376123Y-114929408D01*
X142233778Y-115273060D01*
X142233778Y-115311486D01*
X142179637Y-115257345D01*
X142010241Y-115187179D01*
X142135000Y-114885983D01*
X142135000Y-114514017D01*
X141992655Y-114170365D01*
X141729635Y-113907345D01*
X141385983Y-113765000D01*
X141014017Y-113765000D01*
X140670365Y-113907345D01*
X140407345Y-114170365D01*
X140265000Y-114514017D01*
X140265000Y-114885983D01*
X140407345Y-115229635D01*
X140550710Y-115373000D01*
X138095290Y-115373000D01*
X137979635Y-115257345D01*
X137969248Y-115253042D01*
X138092655Y-115129635D01*
X138235000Y-114785983D01*
X138235000Y-114414017D01*
X138092655Y-114070365D01*
X137829635Y-113807345D01*
X137485983Y-113665000D01*
X137114017Y-113665000D01*
X136770365Y-113807345D01*
X136507345Y-114070365D01*
X136365000Y-114414017D01*
X136365000Y-114785983D01*
X136507345Y-115129635D01*
X136750710Y-115373000D01*
X133127000Y-115373000D01*
X133127000Y-110189007D01*
X133314718Y-110189007D01*
X133314718Y-110560973D01*
X133457063Y-110904625D01*
X133720083Y-111167645D01*
X134063735Y-111309990D01*
X134435701Y-111309990D01*
X134779353Y-111167645D01*
X135042373Y-110904625D01*
X135073465Y-110829562D01*
X135073465Y-111186014D01*
X135215810Y-111529666D01*
X135478830Y-111792686D01*
X135822482Y-111935031D01*
X136194448Y-111935031D01*
X136378229Y-111858907D01*
X136562009Y-111935031D01*
X136933975Y-111935031D01*
X137277627Y-111792686D01*
X137540647Y-111529666D01*
X137596800Y-111394100D01*
X137770365Y-111567665D01*
X138114017Y-111710010D01*
X138485983Y-111710010D01*
X138829635Y-111567665D01*
X139070849Y-111326451D01*
X141488111Y-111326451D01*
X141488111Y-111698417D01*
X141630456Y-112042069D01*
X141893476Y-112305089D01*
X142237128Y-112447434D01*
X142609094Y-112447434D01*
X142952746Y-112305089D01*
X143215766Y-112042069D01*
X143351649Y-111714017D01*
X145865000Y-111714017D01*
X145865000Y-112085983D01*
X146007345Y-112429635D01*
X146270365Y-112692655D01*
X146614017Y-112835000D01*
X146985983Y-112835000D01*
X147139647Y-112771351D01*
X147414021Y-112885000D01*
X147661201Y-112885000D01*
X147772721Y-112996520D01*
X148116373Y-113138865D01*
X148488339Y-113138865D01*
X148831991Y-112996520D01*
X149095011Y-112733500D01*
X149237356Y-112389848D01*
X149237356Y-112017882D01*
X149095011Y-111674230D01*
X148831991Y-111411210D01*
X148488339Y-111268865D01*
X148241159Y-111268865D01*
X148129639Y-111157345D01*
X147785987Y-111015000D01*
X147414021Y-111015000D01*
X147260357Y-111078649D01*
X146985983Y-110965000D01*
X146614017Y-110965000D01*
X146270365Y-111107345D01*
X146007345Y-111370365D01*
X145865000Y-111714017D01*
X143351649Y-111714017D01*
X143358111Y-111698417D01*
X143358111Y-111620422D01*
X143514017Y-111685000D01*
X143885983Y-111685000D01*
X144229635Y-111542655D01*
X144492655Y-111279635D01*
X144635000Y-110935983D01*
X144635000Y-110564017D01*
X144492655Y-110220365D01*
X144229635Y-109957345D01*
X143885983Y-109815000D01*
X143562269Y-109815000D01*
X143529635Y-109782366D01*
X143185983Y-109640021D01*
X142814017Y-109640021D01*
X142470365Y-109782366D01*
X142207345Y-110045386D01*
X142065000Y-110389038D01*
X142065000Y-110648732D01*
X141893476Y-110719779D01*
X141630456Y-110982799D01*
X141488111Y-111326451D01*
X139070849Y-111326451D01*
X139092655Y-111304645D01*
X139235000Y-110960993D01*
X139235000Y-110589027D01*
X139092655Y-110245375D01*
X139043517Y-110196237D01*
X139151387Y-110088367D01*
X139293732Y-109744715D01*
X139293732Y-109372749D01*
X139151387Y-109029097D01*
X138888367Y-108766077D01*
X138641973Y-108664017D01*
X143965000Y-108664017D01*
X143965000Y-109035983D01*
X144107345Y-109379635D01*
X144370365Y-109642655D01*
X144714017Y-109785000D01*
X145085983Y-109785000D01*
X145352370Y-109674659D01*
X145420366Y-109742655D01*
X145764018Y-109885000D01*
X145962347Y-109885000D01*
X146015770Y-110013975D01*
X146278790Y-110276995D01*
X146622442Y-110419340D01*
X146994408Y-110419340D01*
X147066985Y-110389277D01*
X147070363Y-110392655D01*
X147414015Y-110535000D01*
X147675763Y-110535000D01*
X147846474Y-110705711D01*
X148190126Y-110848056D01*
X148562092Y-110848056D01*
X148905744Y-110705711D01*
X149141290Y-110470165D01*
X149207345Y-110629635D01*
X149470365Y-110892655D01*
X149804357Y-111030999D01*
X149907345Y-111279635D01*
X150090210Y-111462500D01*
X149882345Y-111670365D01*
X149740000Y-112014017D01*
X149740000Y-112385983D01*
X149882345Y-112729635D01*
X150145365Y-112992655D01*
X150489017Y-113135000D01*
X150860983Y-113135000D01*
X151204635Y-112992655D01*
X151467655Y-112729635D01*
X151610000Y-112385983D01*
X151610000Y-112200494D01*
X151814017Y-112285000D01*
X152185983Y-112285000D01*
X152529635Y-112142655D01*
X152792655Y-111879635D01*
X152935000Y-111535983D01*
X152935000Y-111164017D01*
X152792655Y-110820365D01*
X152529635Y-110557345D01*
X152185983Y-110415000D01*
X151814017Y-110415000D01*
X151608531Y-110500115D01*
X151492655Y-110220365D01*
X151229635Y-109957345D01*
X150895643Y-109819001D01*
X150792655Y-109570365D01*
X150529635Y-109307345D01*
X150304321Y-109214017D01*
X153715000Y-109214017D01*
X153715000Y-109585983D01*
X153857345Y-109929635D01*
X154120365Y-110192655D01*
X154464017Y-110335000D01*
X154835983Y-110335000D01*
X154964645Y-110281707D01*
X155189875Y-110375000D01*
X155055178Y-110430793D01*
X154835983Y-110340000D01*
X154464017Y-110340000D01*
X154120365Y-110482345D01*
X153857345Y-110745365D01*
X153715000Y-111089017D01*
X153715000Y-111460983D01*
X153857345Y-111804635D01*
X154120365Y-112067655D01*
X154464017Y-112210000D01*
X154835983Y-112210000D01*
X154994822Y-112144207D01*
X155214017Y-112235000D01*
X155585983Y-112235000D01*
X155710948Y-112183238D01*
X155970365Y-112442655D01*
X156314017Y-112585000D01*
X156685983Y-112585000D01*
X157029635Y-112442655D01*
X157292655Y-112179635D01*
X157435000Y-111835983D01*
X157435000Y-111672981D01*
X157464017Y-111685000D01*
X157835983Y-111685000D01*
X158146210Y-111556500D01*
X158057345Y-111645365D01*
X157915000Y-111989017D01*
X157915000Y-112360983D01*
X158057345Y-112704635D01*
X158320365Y-112967655D01*
X158664017Y-113110000D01*
X159035983Y-113110000D01*
X159379635Y-112967655D01*
X159642655Y-112704635D01*
X159785000Y-112360983D01*
X159785000Y-111989017D01*
X159642655Y-111645365D01*
X159379635Y-111382345D01*
X159035983Y-111240000D01*
X158664017Y-111240000D01*
X158353790Y-111368500D01*
X158442655Y-111279635D01*
X158585000Y-110935983D01*
X158585000Y-110564017D01*
X158442655Y-110220365D01*
X158179635Y-109957345D01*
X157905999Y-109844001D01*
X157792655Y-109570365D01*
X157529635Y-109307345D01*
X157504067Y-109296754D01*
X158147725Y-109296754D01*
X158147725Y-109668720D01*
X158290070Y-110012372D01*
X158553090Y-110275392D01*
X158896742Y-110417737D01*
X159268708Y-110417737D01*
X159612360Y-110275392D01*
X159875380Y-110012372D01*
X159916119Y-109914017D01*
X163065000Y-109914017D01*
X163065000Y-110285983D01*
X163207345Y-110629635D01*
X163470365Y-110892655D01*
X163683646Y-110980999D01*
X163807345Y-111279635D01*
X164070365Y-111542655D01*
X164414017Y-111685000D01*
X164465000Y-111685000D01*
X164465000Y-111835983D01*
X164607345Y-112179635D01*
X164870365Y-112442655D01*
X165214017Y-112585000D01*
X165585983Y-112585000D01*
X165929635Y-112442655D01*
X166192655Y-112179635D01*
X166335000Y-111835983D01*
X166335000Y-111464017D01*
X166192655Y-111120365D01*
X165929635Y-110857345D01*
X165585983Y-110715000D01*
X165535000Y-110715000D01*
X165535000Y-110564017D01*
X165392655Y-110220365D01*
X165129635Y-109957345D01*
X164916354Y-109869001D01*
X164792655Y-109570365D01*
X164529635Y-109307345D01*
X164185983Y-109165000D01*
X163814017Y-109165000D01*
X163470365Y-109307345D01*
X163207345Y-109570365D01*
X163065000Y-109914017D01*
X159916119Y-109914017D01*
X160017725Y-109668720D01*
X160017725Y-109296754D01*
X159875380Y-108953102D01*
X159612360Y-108690082D01*
X159268708Y-108547737D01*
X158896742Y-108547737D01*
X158553090Y-108690082D01*
X158290070Y-108953102D01*
X158147725Y-109296754D01*
X157504067Y-109296754D01*
X157185983Y-109165000D01*
X156814017Y-109165000D01*
X156470365Y-109307345D01*
X156335000Y-109442710D01*
X156335000Y-109264017D01*
X156192655Y-108920365D01*
X155929635Y-108657345D01*
X155585983Y-108515000D01*
X155214017Y-108515000D01*
X155085355Y-108568293D01*
X154835983Y-108465000D01*
X154464017Y-108465000D01*
X154120365Y-108607345D01*
X153857345Y-108870365D01*
X153715000Y-109214017D01*
X150304321Y-109214017D01*
X150185983Y-109165000D01*
X149814017Y-109165000D01*
X149796728Y-109172161D01*
X149796728Y-108964028D01*
X149654383Y-108620376D01*
X149391363Y-108357356D01*
X149047711Y-108215011D01*
X148675745Y-108215011D01*
X148332093Y-108357356D01*
X148069073Y-108620376D01*
X148011838Y-108758553D01*
X147785981Y-108665000D01*
X147414015Y-108665000D01*
X147341438Y-108695063D01*
X147338060Y-108691685D01*
X146994408Y-108549340D01*
X146796079Y-108549340D01*
X146742656Y-108420365D01*
X146479636Y-108157345D01*
X146135984Y-108015000D01*
X145764018Y-108015000D01*
X145497631Y-108125341D01*
X145429635Y-108057345D01*
X145085983Y-107915000D01*
X144714017Y-107915000D01*
X144370365Y-108057345D01*
X144107345Y-108320365D01*
X143965000Y-108664017D01*
X138641973Y-108664017D01*
X138626268Y-108657512D01*
X138626268Y-108555285D01*
X138483923Y-108211633D01*
X138220903Y-107948613D01*
X137877251Y-107806268D01*
X137505285Y-107806268D01*
X137161633Y-107948613D01*
X136898613Y-108211633D01*
X136777153Y-108504863D01*
X136729635Y-108457345D01*
X136385983Y-108315000D01*
X136014017Y-108315000D01*
X135670365Y-108457345D01*
X135407345Y-108720365D01*
X135265000Y-109064017D01*
X135265000Y-109435983D01*
X135407345Y-109779635D01*
X135670365Y-110042655D01*
X135773434Y-110085347D01*
X135478830Y-110207376D01*
X135215810Y-110470396D01*
X135184718Y-110545459D01*
X135184718Y-110189007D01*
X135042373Y-109845355D01*
X134779353Y-109582335D01*
X134435701Y-109439990D01*
X134063735Y-109439990D01*
X133720083Y-109582335D01*
X133457063Y-109845355D01*
X133314718Y-110189007D01*
X133127000Y-110189007D01*
X133127000Y-107114017D01*
X133165000Y-107114017D01*
X133165000Y-107485983D01*
X133307345Y-107829635D01*
X133570365Y-108092655D01*
X133914017Y-108235000D01*
X134285983Y-108235000D01*
X134629635Y-108092655D01*
X134892655Y-107829635D01*
X135035000Y-107485983D01*
X135035000Y-107114017D01*
X134892655Y-106770365D01*
X134629635Y-106507345D01*
X134285983Y-106365000D01*
X133914017Y-106365000D01*
X133570365Y-106507345D01*
X133307345Y-106770365D01*
X133165000Y-107114017D01*
X133127000Y-107114017D01*
X133127000Y-106500000D01*
X133117333Y-106451399D01*
X133089803Y-106410197D01*
X133048601Y-106382667D01*
X133000000Y-106373000D01*
X117127000Y-106373000D01*
X117127000Y-106239017D01*
X135715000Y-106239017D01*
X135715000Y-106610983D01*
X135857345Y-106954635D01*
X136120365Y-107217655D01*
X136464017Y-107360000D01*
X136835983Y-107360000D01*
X137179635Y-107217655D01*
X137442655Y-106954635D01*
X137585000Y-106610983D01*
X137585000Y-106557290D01*
X137770365Y-106742655D01*
X138114017Y-106885000D01*
X138485983Y-106885000D01*
X138829635Y-106742655D01*
X139092655Y-106479635D01*
X139235000Y-106135983D01*
X139235000Y-106031207D01*
X139324077Y-105942130D01*
X139315011Y-105964017D01*
X139315011Y-106335983D01*
X139457356Y-106679635D01*
X139720376Y-106942655D01*
X140064028Y-107085000D01*
X140177019Y-107085000D01*
X140165000Y-107114017D01*
X140165000Y-107485983D01*
X140307345Y-107829635D01*
X140570365Y-108092655D01*
X140914017Y-108235000D01*
X141285983Y-108235000D01*
X141629635Y-108092655D01*
X141892655Y-107829635D01*
X142035000Y-107485983D01*
X142035000Y-107114017D01*
X147165000Y-107114017D01*
X147165000Y-107485983D01*
X147307345Y-107829635D01*
X147570365Y-108092655D01*
X147914017Y-108235000D01*
X148285983Y-108235000D01*
X148629635Y-108092655D01*
X148892655Y-107829635D01*
X149035000Y-107485983D01*
X149035000Y-107114017D01*
X154265000Y-107114017D01*
X154265000Y-107485983D01*
X154407345Y-107829635D01*
X154670365Y-108092655D01*
X155014017Y-108235000D01*
X155385983Y-108235000D01*
X155729635Y-108092655D01*
X155992655Y-107829635D01*
X156135000Y-107485983D01*
X156135000Y-107114017D01*
X155992655Y-106770365D01*
X155729635Y-106507345D01*
X155385983Y-106365000D01*
X155014017Y-106365000D01*
X154670365Y-106507345D01*
X154407345Y-106770365D01*
X154265000Y-107114017D01*
X149035000Y-107114017D01*
X148898777Y-106785145D01*
X149164017Y-106895011D01*
X149535983Y-106895011D01*
X149879635Y-106752666D01*
X150142655Y-106489646D01*
X150285000Y-106145994D01*
X150285000Y-105774028D01*
X150142655Y-105430376D01*
X149879635Y-105167356D01*
X149535983Y-105025011D01*
X149164017Y-105025011D01*
X148820365Y-105167356D01*
X148557345Y-105430376D01*
X148415000Y-105774028D01*
X148415000Y-106145994D01*
X148551223Y-106474866D01*
X148285983Y-106365000D01*
X147914017Y-106365000D01*
X147570365Y-106507345D01*
X147307345Y-106770365D01*
X147165000Y-107114017D01*
X142035000Y-107114017D01*
X141892655Y-106770365D01*
X141629635Y-106507345D01*
X141285983Y-106365000D01*
X141172992Y-106365000D01*
X141185011Y-106335983D01*
X141185011Y-105964017D01*
X141042666Y-105620365D01*
X140779646Y-105357345D01*
X140435994Y-105215000D01*
X140064028Y-105215000D01*
X139720376Y-105357345D01*
X139566665Y-105511056D01*
X139575731Y-105489169D01*
X139575731Y-105117203D01*
X139433386Y-104773551D01*
X139170366Y-104510531D01*
X138826714Y-104368186D01*
X138454748Y-104368186D01*
X138111096Y-104510531D01*
X137971959Y-104649669D01*
X137829635Y-104507345D01*
X137485983Y-104365000D01*
X137114017Y-104365000D01*
X136770365Y-104507345D01*
X136507345Y-104770365D01*
X136365000Y-105114017D01*
X136365000Y-105485983D01*
X136380921Y-105524419D01*
X136120365Y-105632345D01*
X135857345Y-105895365D01*
X135715000Y-106239017D01*
X117127000Y-106239017D01*
X117127000Y-104314017D01*
X150465000Y-104314017D01*
X150465000Y-104685983D01*
X150607345Y-105029635D01*
X150870365Y-105292655D01*
X151214017Y-105435000D01*
X151585983Y-105435000D01*
X151612457Y-105424034D01*
X156065000Y-105424034D01*
X156065000Y-105796000D01*
X156207345Y-106139652D01*
X156470365Y-106402672D01*
X156724010Y-106507735D01*
X156857345Y-106829635D01*
X157120365Y-107092655D01*
X157464017Y-107235000D01*
X157835983Y-107235000D01*
X158128062Y-107114017D01*
X161165000Y-107114017D01*
X161165000Y-107485983D01*
X161307345Y-107829635D01*
X161570365Y-108092655D01*
X161914017Y-108235000D01*
X162285983Y-108235000D01*
X162629635Y-108092655D01*
X162892655Y-107829635D01*
X163035000Y-107485983D01*
X163035000Y-107114017D01*
X162892655Y-106770365D01*
X162629635Y-106507345D01*
X162285983Y-106365000D01*
X161914017Y-106365000D01*
X161570365Y-106507345D01*
X161307345Y-106770365D01*
X161165000Y-107114017D01*
X158128062Y-107114017D01*
X158179635Y-107092655D01*
X158442655Y-106829635D01*
X158585000Y-106485983D01*
X158585000Y-106114017D01*
X158442655Y-105770365D01*
X158179635Y-105507345D01*
X157925990Y-105402282D01*
X157792655Y-105080382D01*
X157529635Y-104817362D01*
X157185983Y-104675017D01*
X156814017Y-104675017D01*
X156470365Y-104817362D01*
X156207345Y-105080382D01*
X156065000Y-105424034D01*
X151612457Y-105424034D01*
X151929635Y-105292655D01*
X152192655Y-105029635D01*
X152335000Y-104685983D01*
X152335000Y-104324017D01*
X159215000Y-104324017D01*
X159215000Y-104695983D01*
X159357345Y-105039635D01*
X159620365Y-105302655D01*
X159964017Y-105445000D01*
X160335983Y-105445000D01*
X160386638Y-105424018D01*
X162965000Y-105424018D01*
X162965000Y-105795984D01*
X163107345Y-106139636D01*
X163370365Y-106402656D01*
X163714017Y-106545001D01*
X164085983Y-106545001D01*
X164429635Y-106402656D01*
X164692655Y-106139636D01*
X164835000Y-105795984D01*
X164835000Y-105424018D01*
X164736375Y-105185915D01*
X164892655Y-105029635D01*
X165035000Y-104685983D01*
X165035000Y-104314017D01*
X164892655Y-103970365D01*
X164629635Y-103707345D01*
X164285983Y-103565000D01*
X163914017Y-103565000D01*
X163570365Y-103707345D01*
X163307345Y-103970365D01*
X163165000Y-104314017D01*
X163165000Y-104685983D01*
X163263625Y-104924086D01*
X163107345Y-105080366D01*
X162965000Y-105424018D01*
X160386638Y-105424018D01*
X160679635Y-105302655D01*
X160942655Y-105039635D01*
X161085000Y-104695983D01*
X161085000Y-104324017D01*
X160942655Y-103980365D01*
X160679635Y-103717345D01*
X160335983Y-103575000D01*
X159964017Y-103575000D01*
X159620365Y-103717345D01*
X159357345Y-103980365D01*
X159215000Y-104324017D01*
X152335000Y-104324017D01*
X152335000Y-104314017D01*
X152192655Y-103970365D01*
X151929635Y-103707345D01*
X151585983Y-103565000D01*
X151214017Y-103565000D01*
X150870365Y-103707345D01*
X150607345Y-103970365D01*
X150465000Y-104314017D01*
X117127000Y-104314017D01*
X117127000Y-99150000D01*
X118252560Y-99150000D01*
X118252560Y-100650000D01*
X118301843Y-100897765D01*
X118442191Y-101107809D01*
X118652235Y-101248157D01*
X118900000Y-101297440D01*
X120400000Y-101297440D01*
X120647765Y-101248157D01*
X120857809Y-101107809D01*
X120998157Y-100897765D01*
X121036469Y-100705156D01*
X121405460Y-101074147D01*
X121914506Y-101285000D01*
X122465494Y-101285000D01*
X122974540Y-101074147D01*
X123364147Y-100684540D01*
X123460000Y-100453130D01*
X123555853Y-100684540D01*
X123945460Y-101074147D01*
X124454506Y-101285000D01*
X125005494Y-101285000D01*
X125514540Y-101074147D01*
X125904147Y-100684540D01*
X126000000Y-100453130D01*
X126095853Y-100684540D01*
X126485460Y-101074147D01*
X126994506Y-101285000D01*
X127545494Y-101285000D01*
X128054540Y-101074147D01*
X128444147Y-100684540D01*
X128540000Y-100453130D01*
X128635853Y-100684540D01*
X129025460Y-101074147D01*
X129534506Y-101285000D01*
X130085494Y-101285000D01*
X130594540Y-101074147D01*
X130984147Y-100684540D01*
X131080000Y-100453130D01*
X131175853Y-100684540D01*
X131565460Y-101074147D01*
X132074506Y-101285000D01*
X132625494Y-101285000D01*
X133134540Y-101074147D01*
X133524147Y-100684540D01*
X133620000Y-100453130D01*
X133715853Y-100684540D01*
X134105460Y-101074147D01*
X134614506Y-101285000D01*
X135165494Y-101285000D01*
X135674540Y-101074147D01*
X136064147Y-100684540D01*
X136160000Y-100453130D01*
X136255853Y-100684540D01*
X136645460Y-101074147D01*
X137154506Y-101285000D01*
X137705494Y-101285000D01*
X138214540Y-101074147D01*
X138604147Y-100684540D01*
X138700000Y-100453130D01*
X138795853Y-100684540D01*
X139185460Y-101074147D01*
X139694506Y-101285000D01*
X140245494Y-101285000D01*
X140754540Y-101074147D01*
X141144147Y-100684540D01*
X141355000Y-100175494D01*
X141355000Y-99624506D01*
X141158454Y-99150000D01*
X143502560Y-99150000D01*
X143502560Y-100650000D01*
X143551843Y-100897765D01*
X143692191Y-101107809D01*
X143902235Y-101248157D01*
X144150000Y-101297440D01*
X145650000Y-101297440D01*
X145897765Y-101248157D01*
X146107809Y-101107809D01*
X146248157Y-100897765D01*
X146286469Y-100705156D01*
X146655460Y-101074147D01*
X147164506Y-101285000D01*
X147715494Y-101285000D01*
X148224540Y-101074147D01*
X148614147Y-100684540D01*
X148710000Y-100453130D01*
X148805853Y-100684540D01*
X149195460Y-101074147D01*
X149704506Y-101285000D01*
X150255494Y-101285000D01*
X150764540Y-101074147D01*
X151154147Y-100684540D01*
X151250000Y-100453130D01*
X151345853Y-100684540D01*
X151735460Y-101074147D01*
X152244506Y-101285000D01*
X152795494Y-101285000D01*
X153304540Y-101074147D01*
X153694147Y-100684540D01*
X153790000Y-100453130D01*
X153885853Y-100684540D01*
X154275460Y-101074147D01*
X154784506Y-101285000D01*
X155335494Y-101285000D01*
X155844540Y-101074147D01*
X156234147Y-100684540D01*
X156330000Y-100453130D01*
X156425853Y-100684540D01*
X156815460Y-101074147D01*
X157324506Y-101285000D01*
X157875494Y-101285000D01*
X158384540Y-101074147D01*
X158774147Y-100684540D01*
X158870000Y-100453130D01*
X158965853Y-100684540D01*
X159355460Y-101074147D01*
X159864506Y-101285000D01*
X160415494Y-101285000D01*
X160924540Y-101074147D01*
X161314147Y-100684540D01*
X161410000Y-100453130D01*
X161505853Y-100684540D01*
X161895460Y-101074147D01*
X162404506Y-101285000D01*
X162955494Y-101285000D01*
X163464540Y-101074147D01*
X163854147Y-100684540D01*
X163950000Y-100453130D01*
X164045853Y-100684540D01*
X164435460Y-101074147D01*
X164944506Y-101285000D01*
X165495494Y-101285000D01*
X166004540Y-101074147D01*
X166394147Y-100684540D01*
X166605000Y-100175494D01*
X166605000Y-99624506D01*
X166394147Y-99115460D01*
X166004540Y-98725853D01*
X165495494Y-98515000D01*
X164944506Y-98515000D01*
X164435460Y-98725853D01*
X164045853Y-99115460D01*
X163950000Y-99346870D01*
X163854147Y-99115460D01*
X163464540Y-98725853D01*
X162955494Y-98515000D01*
X162404506Y-98515000D01*
X161895460Y-98725853D01*
X161505853Y-99115460D01*
X161410000Y-99346870D01*
X161314147Y-99115460D01*
X160924540Y-98725853D01*
X160415494Y-98515000D01*
X159864506Y-98515000D01*
X159355460Y-98725853D01*
X158965853Y-99115460D01*
X158870000Y-99346870D01*
X158774147Y-99115460D01*
X158384540Y-98725853D01*
X157875494Y-98515000D01*
X157324506Y-98515000D01*
X156815460Y-98725853D01*
X156425853Y-99115460D01*
X156330000Y-99346870D01*
X156234147Y-99115460D01*
X155844540Y-98725853D01*
X155335494Y-98515000D01*
X154784506Y-98515000D01*
X154275460Y-98725853D01*
X153885853Y-99115460D01*
X153790000Y-99346870D01*
X153694147Y-99115460D01*
X153304540Y-98725853D01*
X152795494Y-98515000D01*
X152244506Y-98515000D01*
X151735460Y-98725853D01*
X151345853Y-99115460D01*
X151250000Y-99346870D01*
X151154147Y-99115460D01*
X150764540Y-98725853D01*
X150255494Y-98515000D01*
X149704506Y-98515000D01*
X149195460Y-98725853D01*
X148805853Y-99115460D01*
X148710000Y-99346870D01*
X148614147Y-99115460D01*
X148224540Y-98725853D01*
X147715494Y-98515000D01*
X147164506Y-98515000D01*
X146655460Y-98725853D01*
X146286469Y-99094844D01*
X146248157Y-98902235D01*
X146107809Y-98692191D01*
X145897765Y-98551843D01*
X145650000Y-98502560D01*
X144150000Y-98502560D01*
X143902235Y-98551843D01*
X143692191Y-98692191D01*
X143551843Y-98902235D01*
X143502560Y-99150000D01*
X141158454Y-99150000D01*
X141144147Y-99115460D01*
X140754540Y-98725853D01*
X140245494Y-98515000D01*
X139694506Y-98515000D01*
X139185460Y-98725853D01*
X138795853Y-99115460D01*
X138700000Y-99346870D01*
X138604147Y-99115460D01*
X138214540Y-98725853D01*
X137705494Y-98515000D01*
X137154506Y-98515000D01*
X136645460Y-98725853D01*
X136255853Y-99115460D01*
X136160000Y-99346870D01*
X136064147Y-99115460D01*
X135674540Y-98725853D01*
X135165494Y-98515000D01*
X134614506Y-98515000D01*
X134464381Y-98577184D01*
X134585000Y-98285983D01*
X134585000Y-97914017D01*
X134442655Y-97570365D01*
X134179635Y-97307345D01*
X133835983Y-97165000D01*
X133464017Y-97165000D01*
X133120365Y-97307345D01*
X132857345Y-97570365D01*
X132715000Y-97914017D01*
X132715000Y-98285983D01*
X132848045Y-98607183D01*
X132625494Y-98515000D01*
X132074506Y-98515000D01*
X131565460Y-98725853D01*
X131175853Y-99115460D01*
X131080000Y-99346870D01*
X130984147Y-99115460D01*
X130594540Y-98725853D01*
X130085494Y-98515000D01*
X129534506Y-98515000D01*
X129025460Y-98725853D01*
X128635853Y-99115460D01*
X128540000Y-99346870D01*
X128444147Y-99115460D01*
X128054540Y-98725853D01*
X127545494Y-98515000D01*
X126994506Y-98515000D01*
X126485460Y-98725853D01*
X126095853Y-99115460D01*
X126000000Y-99346870D01*
X125904147Y-99115460D01*
X125514540Y-98725853D01*
X125005494Y-98515000D01*
X124454506Y-98515000D01*
X123945460Y-98725853D01*
X123555853Y-99115460D01*
X123460000Y-99346870D01*
X123364147Y-99115460D01*
X122974540Y-98725853D01*
X122465494Y-98515000D01*
X121914506Y-98515000D01*
X121405460Y-98725853D01*
X121036469Y-99094844D01*
X120998157Y-98902235D01*
X120857809Y-98692191D01*
X120647765Y-98551843D01*
X120400000Y-98502560D01*
X118900000Y-98502560D01*
X118652235Y-98551843D01*
X118442191Y-98692191D01*
X118301843Y-98902235D01*
X118252560Y-99150000D01*
X117127000Y-99150000D01*
X117127000Y-86047221D01*
X128950280Y-86047221D01*
X129008449Y-86397827D01*
X129734501Y-86572284D01*
X130472047Y-86455613D01*
X130611551Y-86397827D01*
X130669720Y-86047221D01*
X131490280Y-86047221D01*
X131548449Y-86397827D01*
X132274501Y-86572284D01*
X133012047Y-86455613D01*
X133151551Y-86397827D01*
X133209720Y-86047221D01*
X132350000Y-85187502D01*
X131490280Y-86047221D01*
X130669720Y-86047221D01*
X129810000Y-85187502D01*
X128950280Y-86047221D01*
X117127000Y-86047221D01*
X117127000Y-84384506D01*
X118265000Y-84384506D01*
X118265000Y-84935494D01*
X118475853Y-85444540D01*
X118865460Y-85834147D01*
X119374506Y-86045000D01*
X119925494Y-86045000D01*
X120434540Y-85834147D01*
X120824147Y-85444540D01*
X120920000Y-85213130D01*
X121015853Y-85444540D01*
X121405460Y-85834147D01*
X121914506Y-86045000D01*
X122465494Y-86045000D01*
X122974540Y-85834147D01*
X123364147Y-85444540D01*
X123460000Y-85213130D01*
X123555853Y-85444540D01*
X123945460Y-85834147D01*
X124454506Y-86045000D01*
X125005494Y-86045000D01*
X125514540Y-85834147D01*
X125904147Y-85444540D01*
X126000000Y-85213130D01*
X126095853Y-85444540D01*
X126485460Y-85834147D01*
X126994506Y-86045000D01*
X127545494Y-86045000D01*
X128054540Y-85834147D01*
X128376624Y-85512063D01*
X128422779Y-85519720D01*
X129282498Y-84660000D01*
X130337502Y-84660000D01*
X130470735Y-84793233D01*
X130554387Y-85322047D01*
X130612173Y-85461551D01*
X130962779Y-85519720D01*
X131080000Y-85402499D01*
X131197221Y-85519720D01*
X131547827Y-85461551D01*
X131714467Y-84768031D01*
X131822498Y-84660000D01*
X132877502Y-84660000D01*
X133737221Y-85519720D01*
X133783376Y-85512063D01*
X134105460Y-85834147D01*
X134203114Y-85874596D01*
X133957345Y-86120365D01*
X133815000Y-86464017D01*
X133815000Y-86835983D01*
X133957345Y-87179635D01*
X134220365Y-87442655D01*
X134564017Y-87585000D01*
X134935983Y-87585000D01*
X135279635Y-87442655D01*
X135542655Y-87179635D01*
X135685000Y-86835983D01*
X135685000Y-86464017D01*
X135542655Y-86120365D01*
X135469511Y-86047221D01*
X154200280Y-86047221D01*
X154258449Y-86397827D01*
X154984501Y-86572284D01*
X155722047Y-86455613D01*
X155861551Y-86397827D01*
X155919720Y-86047221D01*
X156740280Y-86047221D01*
X156798449Y-86397827D01*
X157524501Y-86572284D01*
X158262047Y-86455613D01*
X158401551Y-86397827D01*
X158459720Y-86047221D01*
X157600000Y-85187502D01*
X156740280Y-86047221D01*
X155919720Y-86047221D01*
X155060000Y-85187502D01*
X154200280Y-86047221D01*
X135469511Y-86047221D01*
X135378896Y-85956606D01*
X135674540Y-85834147D01*
X136064147Y-85444540D01*
X136160000Y-85213130D01*
X136255853Y-85444540D01*
X136645460Y-85834147D01*
X137154506Y-86045000D01*
X137705494Y-86045000D01*
X138214540Y-85834147D01*
X138604147Y-85444540D01*
X138700000Y-85213130D01*
X138795853Y-85444540D01*
X139185460Y-85834147D01*
X139694506Y-86045000D01*
X140245494Y-86045000D01*
X140754540Y-85834147D01*
X141144147Y-85444540D01*
X141355000Y-84935494D01*
X141355000Y-84384506D01*
X143515000Y-84384506D01*
X143515000Y-84935494D01*
X143725853Y-85444540D01*
X144115460Y-85834147D01*
X144624506Y-86045000D01*
X145175494Y-86045000D01*
X145684540Y-85834147D01*
X146074147Y-85444540D01*
X146170000Y-85213130D01*
X146265853Y-85444540D01*
X146655460Y-85834147D01*
X147164506Y-86045000D01*
X147715494Y-86045000D01*
X148224540Y-85834147D01*
X148614147Y-85444540D01*
X148710000Y-85213130D01*
X148805853Y-85444540D01*
X149195460Y-85834147D01*
X149704506Y-86045000D01*
X150255494Y-86045000D01*
X150764540Y-85834147D01*
X151154147Y-85444540D01*
X151250000Y-85213130D01*
X151345853Y-85444540D01*
X151735460Y-85834147D01*
X152244506Y-86045000D01*
X152795494Y-86045000D01*
X153304540Y-85834147D01*
X153626624Y-85512063D01*
X153672779Y-85519720D01*
X154532498Y-84660000D01*
X155587502Y-84660000D01*
X155720735Y-84793233D01*
X155804387Y-85322047D01*
X155862173Y-85461551D01*
X156212779Y-85519720D01*
X156330000Y-85402499D01*
X156447221Y-85519720D01*
X156797827Y-85461551D01*
X156964467Y-84768031D01*
X157072498Y-84660000D01*
X158127502Y-84660000D01*
X158987221Y-85519720D01*
X159033376Y-85512063D01*
X159355460Y-85834147D01*
X159864506Y-86045000D01*
X160415494Y-86045000D01*
X160924540Y-85834147D01*
X161314147Y-85444540D01*
X161410000Y-85213130D01*
X161505853Y-85444540D01*
X161895460Y-85834147D01*
X162404506Y-86045000D01*
X162955494Y-86045000D01*
X163464540Y-85834147D01*
X163854147Y-85444540D01*
X163950000Y-85213130D01*
X164045853Y-85444540D01*
X164435460Y-85834147D01*
X164944506Y-86045000D01*
X165495494Y-86045000D01*
X166004540Y-85834147D01*
X166394147Y-85444540D01*
X166605000Y-84935494D01*
X166605000Y-84384506D01*
X166394147Y-83875460D01*
X166004540Y-83485853D01*
X165495494Y-83275000D01*
X164944506Y-83275000D01*
X164435460Y-83485853D01*
X164045853Y-83875460D01*
X163950000Y-84106870D01*
X163854147Y-83875460D01*
X163464540Y-83485853D01*
X162955494Y-83275000D01*
X162404506Y-83275000D01*
X161895460Y-83485853D01*
X161505853Y-83875460D01*
X161410000Y-84106870D01*
X161314147Y-83875460D01*
X160924540Y-83485853D01*
X160415494Y-83275000D01*
X159864506Y-83275000D01*
X159355460Y-83485853D01*
X159033376Y-83807937D01*
X158987221Y-83800280D01*
X158127502Y-84660000D01*
X157072498Y-84660000D01*
X156939265Y-84526767D01*
X156855613Y-83997953D01*
X156797827Y-83858449D01*
X156447221Y-83800280D01*
X156330000Y-83917501D01*
X156212779Y-83800280D01*
X155862173Y-83858449D01*
X155695533Y-84551969D01*
X155587502Y-84660000D01*
X154532498Y-84660000D01*
X153672779Y-83800280D01*
X153626624Y-83807937D01*
X153304540Y-83485853D01*
X152795494Y-83275000D01*
X152244506Y-83275000D01*
X151735460Y-83485853D01*
X151345853Y-83875460D01*
X151250000Y-84106870D01*
X151154147Y-83875460D01*
X150764540Y-83485853D01*
X150255494Y-83275000D01*
X149704506Y-83275000D01*
X149195460Y-83485853D01*
X148805853Y-83875460D01*
X148710000Y-84106870D01*
X148614147Y-83875460D01*
X148224540Y-83485853D01*
X147715494Y-83275000D01*
X147164506Y-83275000D01*
X146655460Y-83485853D01*
X146265853Y-83875460D01*
X146170000Y-84106870D01*
X146074147Y-83875460D01*
X145684540Y-83485853D01*
X145175494Y-83275000D01*
X144624506Y-83275000D01*
X144115460Y-83485853D01*
X143725853Y-83875460D01*
X143515000Y-84384506D01*
X141355000Y-84384506D01*
X141144147Y-83875460D01*
X140754540Y-83485853D01*
X140245494Y-83275000D01*
X139694506Y-83275000D01*
X139185460Y-83485853D01*
X138795853Y-83875460D01*
X138700000Y-84106870D01*
X138604147Y-83875460D01*
X138214540Y-83485853D01*
X137705494Y-83275000D01*
X137154506Y-83275000D01*
X136645460Y-83485853D01*
X136255853Y-83875460D01*
X136160000Y-84106870D01*
X136064147Y-83875460D01*
X135674540Y-83485853D01*
X135165494Y-83275000D01*
X134614506Y-83275000D01*
X134105460Y-83485853D01*
X133783376Y-83807937D01*
X133737221Y-83800280D01*
X132877502Y-84660000D01*
X131822498Y-84660000D01*
X131689265Y-84526767D01*
X131605613Y-83997953D01*
X131547827Y-83858449D01*
X131197221Y-83800280D01*
X131080000Y-83917501D01*
X130962779Y-83800280D01*
X130612173Y-83858449D01*
X130445533Y-84551969D01*
X130337502Y-84660000D01*
X129282498Y-84660000D01*
X128422779Y-83800280D01*
X128376624Y-83807937D01*
X128054540Y-83485853D01*
X127545494Y-83275000D01*
X126994506Y-83275000D01*
X126485460Y-83485853D01*
X126095853Y-83875460D01*
X126000000Y-84106870D01*
X125904147Y-83875460D01*
X125514540Y-83485853D01*
X125005494Y-83275000D01*
X124454506Y-83275000D01*
X123945460Y-83485853D01*
X123555853Y-83875460D01*
X123460000Y-84106870D01*
X123364147Y-83875460D01*
X122974540Y-83485853D01*
X122465494Y-83275000D01*
X121914506Y-83275000D01*
X121405460Y-83485853D01*
X121015853Y-83875460D01*
X120920000Y-84106870D01*
X120824147Y-83875460D01*
X120434540Y-83485853D01*
X119925494Y-83275000D01*
X119374506Y-83275000D01*
X118865460Y-83485853D01*
X118475853Y-83875460D01*
X118265000Y-84384506D01*
X117127000Y-84384506D01*
X117127000Y-83272779D01*
X128950280Y-83272779D01*
X129810000Y-84132498D01*
X130669720Y-83272779D01*
X131490280Y-83272779D01*
X132350000Y-84132498D01*
X133209720Y-83272779D01*
X154200280Y-83272779D01*
X155060000Y-84132498D01*
X155919720Y-83272779D01*
X156740280Y-83272779D01*
X157600000Y-84132498D01*
X158459720Y-83272779D01*
X158401551Y-82922173D01*
X157675499Y-82747716D01*
X156937953Y-82864387D01*
X156798449Y-82922173D01*
X156740280Y-83272779D01*
X155919720Y-83272779D01*
X155861551Y-82922173D01*
X155135499Y-82747716D01*
X154397953Y-82864387D01*
X154258449Y-82922173D01*
X154200280Y-83272779D01*
X133209720Y-83272779D01*
X133151551Y-82922173D01*
X132425499Y-82747716D01*
X131687953Y-82864387D01*
X131548449Y-82922173D01*
X131490280Y-83272779D01*
X130669720Y-83272779D01*
X130611551Y-82922173D01*
X129885499Y-82747716D01*
X129147953Y-82864387D01*
X129008449Y-82922173D01*
X128950280Y-83272779D01*
X117127000Y-83272779D01*
X117127000Y-81627000D01*
X167873000Y-81627000D01*
X167873000Y-115373000D01*
G36*
X131373000Y-70014832D02*
X131270365Y-70057345D01*
X131007345Y-70320365D01*
X130865000Y-70664017D01*
X130865000Y-71035983D01*
X131007345Y-71379635D01*
X131270365Y-71642655D01*
X131373000Y-71685168D01*
X131373000Y-75790000D01*
X131014017Y-75790000D01*
X130670365Y-75932345D01*
X130407345Y-76195365D01*
X130265000Y-76539017D01*
X130265000Y-76910983D01*
X130407345Y-77254635D01*
X130551463Y-77398753D01*
X130470365Y-77432345D01*
X130207345Y-77695365D01*
X130065000Y-78039017D01*
X130065000Y-78410983D01*
X130207345Y-78754635D01*
X130470365Y-79017655D01*
X130814017Y-79160000D01*
X131185983Y-79160000D01*
X131373000Y-79082535D01*
X131373000Y-79944703D01*
X131365000Y-79964017D01*
X131365000Y-80335983D01*
X131373000Y-80355297D01*
X131373000Y-80373000D01*
X116000000Y-80373000D01*
X115951399Y-80382667D01*
X115910197Y-80410197D01*
X115882667Y-80451399D01*
X115873000Y-80500000D01*
X115873000Y-107500000D01*
X115882667Y-107548601D01*
X115910197Y-107589803D01*
X115951399Y-107617333D01*
X116000000Y-107627000D01*
X131873000Y-107627000D01*
X131873000Y-116500000D01*
X131882667Y-116548601D01*
X131910197Y-116589803D01*
X131951399Y-116617333D01*
X132000000Y-116627000D01*
X133685046Y-116627000D01*
X133370365Y-116757345D01*
X133107345Y-117020365D01*
X132965000Y-117364017D01*
X132965000Y-117735983D01*
X133107345Y-118079635D01*
X133370365Y-118342655D01*
X133714017Y-118485000D01*
X134085983Y-118485000D01*
X134429635Y-118342655D01*
X134692655Y-118079635D01*
X134835000Y-117735983D01*
X134835000Y-117364017D01*
X134692655Y-117020365D01*
X134429635Y-116757345D01*
X134114954Y-116627000D01*
X136704710Y-116627000D01*
X136920365Y-116842655D01*
X137264017Y-116985000D01*
X137415000Y-116985000D01*
X137415000Y-117185983D01*
X137557345Y-117529635D01*
X137820365Y-117792655D01*
X138164017Y-117935000D01*
X138535983Y-117935000D01*
X138879635Y-117792655D01*
X139142655Y-117529635D01*
X139285000Y-117185983D01*
X139285000Y-116907290D01*
X139520365Y-117142655D01*
X139864017Y-117285000D01*
X140235983Y-117285000D01*
X140385548Y-117223048D01*
X140641017Y-117328867D01*
X140836315Y-117328867D01*
X140857345Y-117379637D01*
X141120365Y-117642657D01*
X141464017Y-117785002D01*
X141835983Y-117785002D01*
X142179635Y-117642657D01*
X142442655Y-117379637D01*
X142585000Y-117035985D01*
X142585000Y-116664019D01*
X142569666Y-116627000D01*
X143406987Y-116627000D01*
X143408719Y-116628732D01*
X143752371Y-116771077D01*
X144124337Y-116771077D01*
X144249155Y-116719376D01*
X144330951Y-116916848D01*
X144593971Y-117179868D01*
X144937623Y-117322213D01*
X145309589Y-117322213D01*
X145550242Y-117222532D01*
X145720365Y-117392655D01*
X146064017Y-117535000D01*
X146435983Y-117535000D01*
X146779635Y-117392655D01*
X147042655Y-117129635D01*
X147185000Y-116785983D01*
X147185000Y-116627000D01*
X149965002Y-116627000D01*
X149965002Y-116835983D01*
X150013858Y-116953931D01*
X149943377Y-117124086D01*
X149719384Y-117216867D01*
X149456364Y-117479887D01*
X149314019Y-117823539D01*
X149314019Y-118195505D01*
X149456364Y-118539157D01*
X149719384Y-118802177D01*
X150063036Y-118944522D01*
X150435002Y-118944522D01*
X150778654Y-118802177D01*
X151041674Y-118539157D01*
X151126178Y-118335147D01*
X151301495Y-118262528D01*
X151331211Y-118334270D01*
X151594231Y-118597290D01*
X151937883Y-118739635D01*
X152309849Y-118739635D01*
X152653501Y-118597290D01*
X152786774Y-118464017D01*
X155365000Y-118464017D01*
X155365000Y-118835983D01*
X155507345Y-119179635D01*
X155770365Y-119442655D01*
X156114017Y-119585000D01*
X156485983Y-119585000D01*
X156829635Y-119442655D01*
X157092655Y-119179635D01*
X157130189Y-119089018D01*
X160839999Y-119089018D01*
X160839999Y-119460984D01*
X160982344Y-119804636D01*
X161245364Y-120067656D01*
X161589016Y-120210001D01*
X161949506Y-120210001D01*
X161865000Y-120414017D01*
X161865000Y-120785983D01*
X162007345Y-121129635D01*
X162270365Y-121392655D01*
X162614017Y-121535000D01*
X162985983Y-121535000D01*
X163329635Y-121392655D01*
X163592655Y-121129635D01*
X163735000Y-120785983D01*
X163735000Y-120414017D01*
X163592655Y-120070365D01*
X163329635Y-119807345D01*
X162985983Y-119665000D01*
X162625493Y-119665000D01*
X162709999Y-119460984D01*
X162709999Y-119089018D01*
X162567654Y-118745366D01*
X162304634Y-118482346D01*
X161960982Y-118340001D01*
X161589016Y-118340001D01*
X161245364Y-118482346D01*
X160982344Y-118745366D01*
X160839999Y-119089018D01*
X157130189Y-119089018D01*
X157235000Y-118835983D01*
X157235000Y-118464017D01*
X157092655Y-118120365D01*
X156829635Y-117857345D01*
X156485983Y-117715000D01*
X156114017Y-117715000D01*
X155770365Y-117857345D01*
X155507345Y-118120365D01*
X155365000Y-118464017D01*
X152786774Y-118464017D01*
X152916521Y-118334270D01*
X153058866Y-117990618D01*
X153058866Y-117618652D01*
X152916521Y-117275000D01*
X152653501Y-117011980D01*
X152309849Y-116869635D01*
X151937883Y-116869635D01*
X151796869Y-116928045D01*
X151835002Y-116835983D01*
X151835002Y-116627000D01*
X152544122Y-116627000D01*
X152607345Y-116779635D01*
X152870365Y-117042655D01*
X153214017Y-117185000D01*
X153585983Y-117185000D01*
X153929635Y-117042655D01*
X154192655Y-116779635D01*
X154255878Y-116627000D01*
X169000000Y-116627000D01*
X169048601Y-116617333D01*
X169089803Y-116589803D01*
X169117333Y-116548601D01*
X169127000Y-116500000D01*
X169127000Y-115785000D01*
X169285983Y-115785000D01*
X169629635Y-115642655D01*
X169892655Y-115379635D01*
X170035000Y-115035983D01*
X170035000Y-114664017D01*
X169892655Y-114320365D01*
X169629635Y-114057345D01*
X169285983Y-113915000D01*
X169127000Y-113915000D01*
X169127000Y-113314017D01*
X170165000Y-113314017D01*
X170165000Y-113685983D01*
X170307345Y-114029635D01*
X170570365Y-114292655D01*
X170914017Y-114435000D01*
X171285983Y-114435000D01*
X171629635Y-114292655D01*
X171892655Y-114029635D01*
X172035000Y-113685983D01*
X172035000Y-113314017D01*
X171892655Y-112970365D01*
X171629635Y-112707345D01*
X171285983Y-112565000D01*
X170914017Y-112565000D01*
X170570365Y-112707345D01*
X170307345Y-112970365D01*
X170165000Y-113314017D01*
X169127000Y-113314017D01*
X169127000Y-111964017D01*
X174565000Y-111964017D01*
X174565000Y-112335983D01*
X174707345Y-112679635D01*
X174970365Y-112942655D01*
X175314017Y-113085000D01*
X175685983Y-113085000D01*
X176029635Y-112942655D01*
X176292655Y-112679635D01*
X176435000Y-112335983D01*
X176435000Y-111964017D01*
X176292655Y-111620365D01*
X176029635Y-111357345D01*
X175685983Y-111215000D01*
X175314017Y-111215000D01*
X174970365Y-111357345D01*
X174707345Y-111620365D01*
X174565000Y-111964017D01*
X169127000Y-111964017D01*
X169127000Y-110664017D01*
X177565000Y-110664017D01*
X177565000Y-111035983D01*
X177707345Y-111379635D01*
X177802710Y-111475000D01*
X177707345Y-111570365D01*
X177565000Y-111914017D01*
X177565000Y-112285983D01*
X177707345Y-112629635D01*
X177970365Y-112892655D01*
X178314017Y-113035000D01*
X178685983Y-113035000D01*
X179029635Y-112892655D01*
X179292655Y-112629635D01*
X179435000Y-112285983D01*
X179435000Y-111914017D01*
X179292655Y-111570365D01*
X179197290Y-111475000D01*
X179292655Y-111379635D01*
X179435000Y-111035983D01*
X179435000Y-110664017D01*
X179292655Y-110320365D01*
X179029635Y-110057345D01*
X178685983Y-109915000D01*
X178314017Y-109915000D01*
X177970365Y-110057345D01*
X177707345Y-110320365D01*
X177565000Y-110664017D01*
X169127000Y-110664017D01*
X169127000Y-110598713D01*
X169449696Y-110598713D01*
X169793348Y-110456368D01*
X170056368Y-110193348D01*
X170198713Y-109849696D01*
X170198713Y-109477730D01*
X170056368Y-109134078D01*
X169793348Y-108871058D01*
X169449696Y-108728713D01*
X169127000Y-108728713D01*
X169127000Y-106264017D01*
X174764998Y-106264017D01*
X174764998Y-106635983D01*
X174907343Y-106979635D01*
X175170363Y-107242655D01*
X175286818Y-107290892D01*
X175057345Y-107520365D01*
X174915000Y-107864017D01*
X174915000Y-108235983D01*
X175057345Y-108579635D01*
X175320365Y-108842655D01*
X175664017Y-108985000D01*
X176035983Y-108985000D01*
X176379635Y-108842655D01*
X176642655Y-108579635D01*
X176785000Y-108235983D01*
X176785000Y-107864017D01*
X176642655Y-107520365D01*
X176379635Y-107257345D01*
X176263180Y-107209108D01*
X176492653Y-106979635D01*
X176634998Y-106635983D01*
X176634998Y-106264017D01*
X176492653Y-105920365D01*
X176283891Y-105711603D01*
X176329635Y-105692655D01*
X176592655Y-105429635D01*
X176735000Y-105085983D01*
X176735000Y-104714017D01*
X176592655Y-104370365D01*
X176329635Y-104107345D01*
X175985983Y-103965000D01*
X175614017Y-103965000D01*
X175270365Y-104107345D01*
X175007345Y-104370365D01*
X174865000Y-104714017D01*
X174865000Y-105085983D01*
X175007345Y-105429635D01*
X175216107Y-105638397D01*
X175170363Y-105657345D01*
X174907343Y-105920365D01*
X174764998Y-106264017D01*
X169127000Y-106264017D01*
X169127000Y-91914017D01*
X181265000Y-91914017D01*
X181265000Y-92285983D01*
X181407345Y-92629635D01*
X181670365Y-92892655D01*
X182014017Y-93035000D01*
X182385983Y-93035000D01*
X182729635Y-92892655D01*
X182992655Y-92629635D01*
X183135000Y-92285983D01*
X183135000Y-91914017D01*
X182992655Y-91570365D01*
X182729635Y-91307345D01*
X182385983Y-91165000D01*
X182014017Y-91165000D01*
X181670365Y-91307345D01*
X181407345Y-91570365D01*
X181265000Y-91914017D01*
X169127000Y-91914017D01*
X169127000Y-90649290D01*
X169320365Y-90842655D01*
X169664017Y-90985000D01*
X170035983Y-90985000D01*
X170379635Y-90842655D01*
X170642655Y-90579635D01*
X170785000Y-90235983D01*
X170785000Y-89864017D01*
X170642655Y-89520365D01*
X170379635Y-89257345D01*
X170035983Y-89115000D01*
X169664017Y-89115000D01*
X169320365Y-89257345D01*
X169127000Y-89450710D01*
X169127000Y-87684180D01*
X180415000Y-87684180D01*
X180415000Y-88115820D01*
X180580182Y-88514603D01*
X180885397Y-88819818D01*
X181284180Y-88985000D01*
X181715820Y-88985000D01*
X182114603Y-88819818D01*
X182419818Y-88514603D01*
X182585000Y-88115820D01*
X182585000Y-87684180D01*
X182419818Y-87285397D01*
X182114603Y-86980182D01*
X181715820Y-86815000D01*
X181284180Y-86815000D01*
X180885397Y-86980182D01*
X180580182Y-87285397D01*
X180415000Y-87684180D01*
X169127000Y-87684180D01*
X169127000Y-82627000D01*
X183290000Y-82627000D01*
X183290000Y-103064999D01*
X182964018Y-103064999D01*
X182620366Y-103207344D01*
X182357346Y-103470364D01*
X182215001Y-103814016D01*
X182215001Y-104185982D01*
X182357346Y-104529634D01*
X182620366Y-104792654D01*
X182964018Y-104934999D01*
X183290000Y-104934999D01*
X183290000Y-133290000D01*
X144782290Y-133290000D01*
X144942655Y-133129635D01*
X145085000Y-132785983D01*
X145085000Y-132414017D01*
X144989304Y-132182986D01*
X144992655Y-132179635D01*
X145135000Y-131835983D01*
X145135000Y-131714017D01*
X147315000Y-131714017D01*
X147315000Y-132085983D01*
X147457345Y-132429635D01*
X147720365Y-132692655D01*
X148064017Y-132835000D01*
X148435983Y-132835000D01*
X148779635Y-132692655D01*
X149042655Y-132429635D01*
X149185000Y-132085983D01*
X149185000Y-131714017D01*
X149042655Y-131370365D01*
X148779635Y-131107345D01*
X148435983Y-130965000D01*
X148064017Y-130965000D01*
X147720365Y-131107345D01*
X147457345Y-131370365D01*
X147315000Y-131714017D01*
X145135000Y-131714017D01*
X145135000Y-131464017D01*
X144992655Y-131120365D01*
X144729635Y-130857345D01*
X144422663Y-130730193D01*
X144754633Y-130592687D01*
X145017653Y-130329667D01*
X145159998Y-129986015D01*
X145159998Y-129814017D01*
X163065000Y-129814017D01*
X163065000Y-130185983D01*
X163207345Y-130529635D01*
X163470365Y-130792655D01*
X163814017Y-130935000D01*
X164185983Y-130935000D01*
X164529635Y-130792655D01*
X164792655Y-130529635D01*
X164935000Y-130185983D01*
X164935000Y-129814017D01*
X164792655Y-129470365D01*
X164529635Y-129207345D01*
X164185983Y-129065000D01*
X163814017Y-129065000D01*
X163470365Y-129207345D01*
X163207345Y-129470365D01*
X163065000Y-129814017D01*
X145159998Y-129814017D01*
X145159998Y-129614049D01*
X145042023Y-129329231D01*
X145075464Y-129343083D01*
X145447430Y-129343083D01*
X145791082Y-129200738D01*
X146054102Y-128937718D01*
X146196447Y-128594066D01*
X146196447Y-128222100D01*
X146152999Y-128117207D01*
X146244741Y-127895722D01*
X146244741Y-127523756D01*
X146116444Y-127214017D01*
X146390000Y-127214017D01*
X146390000Y-127585983D01*
X146532345Y-127929635D01*
X146795365Y-128192655D01*
X147139017Y-128335000D01*
X147510983Y-128335000D01*
X147854635Y-128192655D01*
X148117655Y-127929635D01*
X148175900Y-127789017D01*
X148815000Y-127789017D01*
X148815000Y-128160983D01*
X148957345Y-128504635D01*
X149220365Y-128767655D01*
X149564017Y-128910000D01*
X149935983Y-128910000D01*
X150279635Y-128767655D01*
X150542655Y-128504635D01*
X150612020Y-128337171D01*
X175165000Y-128337171D01*
X175165000Y-129862829D01*
X175748844Y-131272353D01*
X176827647Y-132351156D01*
X178237171Y-132935000D01*
X179762829Y-132935000D01*
X181172353Y-132351156D01*
X182251156Y-131272353D01*
X182835000Y-129862829D01*
X182835000Y-128337171D01*
X182251156Y-126927647D01*
X181172353Y-125848844D01*
X179762829Y-125265000D01*
X178237171Y-125265000D01*
X176827647Y-125848844D01*
X175748844Y-126927647D01*
X175165000Y-128337171D01*
X150612020Y-128337171D01*
X150685000Y-128160983D01*
X150685000Y-127935000D01*
X150735983Y-127935000D01*
X151079635Y-127792655D01*
X151342655Y-127529635D01*
X151485000Y-127185983D01*
X151485000Y-126814017D01*
X151342655Y-126470365D01*
X151086307Y-126214017D01*
X153315000Y-126214017D01*
X153315000Y-126585983D01*
X153457345Y-126929635D01*
X153720365Y-127192655D01*
X154064017Y-127335000D01*
X154435983Y-127335000D01*
X154779635Y-127192655D01*
X155042655Y-126929635D01*
X155185000Y-126585983D01*
X155185000Y-126214017D01*
X161265000Y-126214017D01*
X161265000Y-126585983D01*
X161407345Y-126929635D01*
X161670365Y-127192655D01*
X162014017Y-127335000D01*
X162385983Y-127335000D01*
X162729635Y-127192655D01*
X162992655Y-126929635D01*
X163135000Y-126585983D01*
X163135000Y-126214017D01*
X162992655Y-125870365D01*
X162729635Y-125607345D01*
X162385983Y-125465000D01*
X162014017Y-125465000D01*
X161670365Y-125607345D01*
X161407345Y-125870365D01*
X161265000Y-126214017D01*
X155185000Y-126214017D01*
X155042655Y-125870365D01*
X154779635Y-125607345D01*
X154435983Y-125465000D01*
X154064017Y-125465000D01*
X153720365Y-125607345D01*
X153457345Y-125870365D01*
X153315000Y-126214017D01*
X151086307Y-126214017D01*
X151079635Y-126207345D01*
X150735983Y-126065000D01*
X150364017Y-126065000D01*
X150020365Y-126207345D01*
X149757345Y-126470365D01*
X149615000Y-126814017D01*
X149615000Y-127040000D01*
X149564017Y-127040000D01*
X149220365Y-127182345D01*
X148957345Y-127445365D01*
X148815000Y-127789017D01*
X148175900Y-127789017D01*
X148260000Y-127585983D01*
X148260000Y-127214017D01*
X148117655Y-126870365D01*
X147854635Y-126607345D01*
X147510983Y-126465000D01*
X147139017Y-126465000D01*
X146795365Y-126607345D01*
X146532345Y-126870365D01*
X146390000Y-127214017D01*
X146116444Y-127214017D01*
X146102396Y-127180104D01*
X145875416Y-126953124D01*
X146073905Y-126754635D01*
X146216250Y-126410983D01*
X146216250Y-126039017D01*
X146073905Y-125695365D01*
X145835000Y-125456460D01*
X145835000Y-125395305D01*
X145692655Y-125051653D01*
X145429635Y-124788633D01*
X145085983Y-124646288D01*
X144714017Y-124646288D01*
X144370365Y-124788633D01*
X144107345Y-125051653D01*
X144015005Y-125274581D01*
X143911648Y-125317393D01*
X143648628Y-125580413D01*
X143516657Y-125899021D01*
X143442655Y-125720365D01*
X143179635Y-125457345D01*
X142835983Y-125315000D01*
X142464017Y-125315000D01*
X142120365Y-125457345D01*
X141857345Y-125720365D01*
X141715000Y-126064017D01*
X141715000Y-126435983D01*
X141785971Y-126607322D01*
X141690000Y-126839017D01*
X141690000Y-127101287D01*
X141360983Y-126965004D01*
X140989017Y-126965004D01*
X140923608Y-126992097D01*
X140955231Y-126915752D01*
X140955231Y-126543786D01*
X140812886Y-126200134D01*
X140611806Y-125999054D01*
X140626711Y-125963069D01*
X140626711Y-125591103D01*
X140484366Y-125247451D01*
X140221346Y-124984431D01*
X139877694Y-124842086D01*
X139826652Y-124842086D01*
X139817655Y-124820365D01*
X139554635Y-124557345D01*
X139210983Y-124415000D01*
X138839017Y-124415000D01*
X138661019Y-124488729D01*
X138429635Y-124257345D01*
X138085983Y-124115000D01*
X137811143Y-124115000D01*
X137792655Y-124070365D01*
X137529635Y-123807345D01*
X137345596Y-123731114D01*
X137385000Y-123635983D01*
X137385000Y-123264017D01*
X137242655Y-122920365D01*
X137186307Y-122864017D01*
X148015000Y-122864017D01*
X148015000Y-123235983D01*
X148157345Y-123579635D01*
X148420365Y-123842655D01*
X148764017Y-123985000D01*
X149135983Y-123985000D01*
X149479635Y-123842655D01*
X149742655Y-123579635D01*
X149885000Y-123235983D01*
X149885000Y-122864017D01*
X149742655Y-122520365D01*
X149479635Y-122257345D01*
X149135983Y-122115000D01*
X148764017Y-122115000D01*
X148420365Y-122257345D01*
X148157345Y-122520365D01*
X148015000Y-122864017D01*
X137186307Y-122864017D01*
X136979635Y-122657345D01*
X136857667Y-122606824D01*
X136945000Y-122395983D01*
X136945000Y-122024017D01*
X136875169Y-121855429D01*
X136935000Y-121710983D01*
X136935000Y-121339017D01*
X136877419Y-121200005D01*
X136935000Y-121060993D01*
X136935000Y-120989015D01*
X146165000Y-120989015D01*
X146165000Y-121360981D01*
X146307345Y-121704633D01*
X146570365Y-121967653D01*
X146914017Y-122109998D01*
X147285983Y-122109998D01*
X147409464Y-122058850D01*
X147714017Y-122185000D01*
X148085983Y-122185000D01*
X148378062Y-122064017D01*
X153015000Y-122064017D01*
X153015000Y-122435983D01*
X153157345Y-122779635D01*
X153420365Y-123042655D01*
X153764017Y-123185000D01*
X154135983Y-123185000D01*
X154437180Y-123060241D01*
X154453649Y-123100001D01*
X154365000Y-123314018D01*
X154365000Y-123685984D01*
X154507345Y-124029636D01*
X154770365Y-124292656D01*
X155114017Y-124435001D01*
X155485983Y-124435001D01*
X155829635Y-124292656D01*
X156092655Y-124029636D01*
X156235000Y-123685984D01*
X156235000Y-123314018D01*
X156235000Y-123314017D01*
X159865000Y-123314017D01*
X159865000Y-123685983D01*
X160007345Y-124029635D01*
X160270365Y-124292655D01*
X160614017Y-124435000D01*
X160985983Y-124435000D01*
X161329635Y-124292655D01*
X161592655Y-124029635D01*
X161735000Y-123685983D01*
X161735000Y-123314017D01*
X161592655Y-122970365D01*
X161329635Y-122707345D01*
X160985983Y-122565000D01*
X160614017Y-122565000D01*
X160270365Y-122707345D01*
X160007345Y-122970365D01*
X159865000Y-123314017D01*
X156235000Y-123314017D01*
X156146351Y-123100001D01*
X156235000Y-122885983D01*
X156235000Y-122514017D01*
X156092655Y-122170365D01*
X155829635Y-121907345D01*
X155485983Y-121765000D01*
X155114017Y-121765000D01*
X154812820Y-121889759D01*
X154742655Y-121720365D01*
X154479635Y-121457345D01*
X154135983Y-121315000D01*
X153764017Y-121315000D01*
X153420365Y-121457345D01*
X153157345Y-121720365D01*
X153015000Y-122064017D01*
X148378062Y-122064017D01*
X148429635Y-122042655D01*
X148692655Y-121779635D01*
X148835000Y-121435983D01*
X148835000Y-121201698D01*
X148907978Y-121201698D01*
X149251630Y-121059353D01*
X149514650Y-120796333D01*
X149656995Y-120452681D01*
X149656995Y-120080715D01*
X149525815Y-119764017D01*
X152240000Y-119764017D01*
X152240000Y-120135983D01*
X152382345Y-120479635D01*
X152645365Y-120742655D01*
X152989017Y-120885000D01*
X153360983Y-120885000D01*
X153704635Y-120742655D01*
X153967655Y-120479635D01*
X154110000Y-120135983D01*
X154110000Y-119764017D01*
X153967655Y-119420365D01*
X153704635Y-119157345D01*
X153360983Y-119015000D01*
X152989017Y-119015000D01*
X152645365Y-119157345D01*
X152382345Y-119420365D01*
X152240000Y-119764017D01*
X149525815Y-119764017D01*
X149514650Y-119737063D01*
X149251630Y-119474043D01*
X149159999Y-119436088D01*
X149159999Y-119414017D01*
X149017654Y-119070365D01*
X148754634Y-118807345D01*
X148410982Y-118665000D01*
X148039016Y-118665000D01*
X147695364Y-118807345D01*
X147432344Y-119070365D01*
X147289999Y-119414017D01*
X147289999Y-119785983D01*
X147432344Y-120129635D01*
X147645917Y-120343208D01*
X147590536Y-120366148D01*
X147285983Y-120239998D01*
X146914017Y-120239998D01*
X146570365Y-120382343D01*
X146307345Y-120645363D01*
X146165000Y-120989015D01*
X136935000Y-120989015D01*
X136935000Y-120689027D01*
X136792655Y-120345375D01*
X136529635Y-120082355D01*
X136185983Y-119940010D01*
X135814017Y-119940010D01*
X135470365Y-120082355D01*
X135207345Y-120345375D01*
X135065000Y-120689027D01*
X135065000Y-121060993D01*
X135122581Y-121200005D01*
X135065000Y-121339017D01*
X135065000Y-121710983D01*
X135134831Y-121879571D01*
X135075000Y-122024017D01*
X135075000Y-122395983D01*
X135217345Y-122739635D01*
X135480365Y-123002655D01*
X135602333Y-123053176D01*
X135515000Y-123264017D01*
X135515000Y-123635983D01*
X135657345Y-123979635D01*
X135920365Y-124242655D01*
X136104404Y-124318886D01*
X136065000Y-124414017D01*
X136065000Y-124785983D01*
X136207345Y-125129635D01*
X136470365Y-125392655D01*
X136807014Y-125532099D01*
X136773083Y-125614016D01*
X136773083Y-125985982D01*
X136915428Y-126329634D01*
X137178448Y-126592654D01*
X137522100Y-126734999D01*
X137894066Y-126734999D01*
X138237718Y-126592654D01*
X138500738Y-126329634D01*
X138566058Y-126171937D01*
X138839017Y-126285000D01*
X138890059Y-126285000D01*
X138899056Y-126306721D01*
X139100136Y-126507801D01*
X139085231Y-126543786D01*
X139085231Y-126915752D01*
X139227576Y-127259404D01*
X139490596Y-127522424D01*
X139834248Y-127664769D01*
X140206214Y-127664769D01*
X140271623Y-127637676D01*
X140240000Y-127714021D01*
X140240000Y-127966285D01*
X139988937Y-127862292D01*
X139616971Y-127862292D01*
X139335000Y-127979088D01*
X139335000Y-127964017D01*
X139192655Y-127620365D01*
X138929635Y-127357345D01*
X138585983Y-127215000D01*
X138214017Y-127215000D01*
X137870365Y-127357345D01*
X137607345Y-127620365D01*
X137465000Y-127964017D01*
X137465000Y-128335983D01*
X137607345Y-128679635D01*
X137870365Y-128942655D01*
X138214017Y-129085000D01*
X138585983Y-129085000D01*
X138867954Y-128968204D01*
X138867954Y-128983275D01*
X139010299Y-129326927D01*
X139273319Y-129589947D01*
X139616971Y-129732292D01*
X139988937Y-129732292D01*
X140118635Y-129678569D01*
X140129437Y-129704647D01*
X140392457Y-129967667D01*
X140460443Y-129995828D01*
X140566368Y-130251554D01*
X140829388Y-130514574D01*
X141173040Y-130656919D01*
X141545006Y-130656919D01*
X141888658Y-130514574D01*
X142151678Y-130251554D01*
X142294023Y-129907902D01*
X142294023Y-129535936D01*
X142151678Y-129192284D01*
X141888658Y-128929264D01*
X141820672Y-128901103D01*
X141725634Y-128671660D01*
X141967655Y-128429639D01*
X142110000Y-128085987D01*
X142110000Y-127823717D01*
X142439017Y-127960000D01*
X142810983Y-127960000D01*
X143128033Y-127828674D01*
X143264017Y-127885000D01*
X143635983Y-127885000D01*
X143764645Y-127831707D01*
X144014017Y-127935000D01*
X144385983Y-127935000D01*
X144390274Y-127933223D01*
X144418189Y-128000615D01*
X144326447Y-128222100D01*
X144326447Y-128594066D01*
X144444422Y-128878884D01*
X144410981Y-128865032D01*
X144039015Y-128865032D01*
X143695363Y-129007377D01*
X143432343Y-129270397D01*
X143289998Y-129614049D01*
X143289998Y-129986015D01*
X143432343Y-130329667D01*
X143695363Y-130592687D01*
X144002335Y-130719839D01*
X143670365Y-130857345D01*
X143407345Y-131120365D01*
X143265000Y-131464017D01*
X143265000Y-131835983D01*
X143360696Y-132067014D01*
X143357345Y-132070365D01*
X143215000Y-132414017D01*
X143215000Y-132785983D01*
X143357345Y-133129635D01*
X143517710Y-133290000D01*
X136482290Y-133290000D01*
X136642655Y-133129635D01*
X136785000Y-132785983D01*
X136785000Y-132414017D01*
X136642655Y-132070365D01*
X136379635Y-131807345D01*
X136035983Y-131665000D01*
X135664017Y-131665000D01*
X135320365Y-131807345D01*
X135057345Y-132070365D01*
X134915000Y-132414017D01*
X134915000Y-132785983D01*
X135057345Y-133129635D01*
X135217710Y-133290000D01*
X109710000Y-133290000D01*
X109710000Y-128337171D01*
X110165000Y-128337171D01*
X110165000Y-129862829D01*
X110748844Y-131272353D01*
X111827647Y-132351156D01*
X113237171Y-132935000D01*
X114762829Y-132935000D01*
X116172353Y-132351156D01*
X117251156Y-131272353D01*
X117835000Y-129862829D01*
X117835000Y-129000000D01*
X122405908Y-129000000D01*
X122521161Y-129579418D01*
X122849375Y-130070625D01*
X123147761Y-130270000D01*
X122849375Y-130469375D01*
X122521161Y-130960582D01*
X122405908Y-131540000D01*
X122521161Y-132119418D01*
X122849375Y-132610625D01*
X123340582Y-132938839D01*
X123773744Y-133025000D01*
X124066256Y-133025000D01*
X124499418Y-132938839D01*
X124990625Y-132610625D01*
X125190000Y-132312239D01*
X125389375Y-132610625D01*
X125880582Y-132938839D01*
X126313744Y-133025000D01*
X126606256Y-133025000D01*
X127039418Y-132938839D01*
X127530625Y-132610625D01*
X127730000Y-132312239D01*
X127929375Y-132610625D01*
X128420582Y-132938839D01*
X128853744Y-133025000D01*
X129146256Y-133025000D01*
X129579418Y-132938839D01*
X130070625Y-132610625D01*
X130398839Y-132119418D01*
X130514092Y-131540000D01*
X130398839Y-130960582D01*
X130070625Y-130469375D01*
X130052381Y-130457184D01*
X130097765Y-130448157D01*
X130307809Y-130307809D01*
X130448157Y-130097765D01*
X130497440Y-129850000D01*
X130497440Y-128150000D01*
X130448157Y-127902235D01*
X130307809Y-127692191D01*
X130097765Y-127551843D01*
X129850000Y-127502560D01*
X128150000Y-127502560D01*
X127902235Y-127551843D01*
X127692191Y-127692191D01*
X127551843Y-127902235D01*
X127542816Y-127947619D01*
X127530625Y-127929375D01*
X127039418Y-127601161D01*
X126606256Y-127515000D01*
X126313744Y-127515000D01*
X125880582Y-127601161D01*
X125389375Y-127929375D01*
X125190000Y-128227761D01*
X124990625Y-127929375D01*
X124499418Y-127601161D01*
X124066256Y-127515000D01*
X123773744Y-127515000D01*
X123340582Y-127601161D01*
X122849375Y-127929375D01*
X122521161Y-128420582D01*
X122405908Y-129000000D01*
X117835000Y-129000000D01*
X117835000Y-128337171D01*
X117251156Y-126927647D01*
X117037526Y-126714017D01*
X134065000Y-126714017D01*
X134065000Y-127085983D01*
X134207345Y-127429635D01*
X134470365Y-127692655D01*
X134814017Y-127835000D01*
X135185983Y-127835000D01*
X135529635Y-127692655D01*
X135792655Y-127429635D01*
X135935000Y-127085983D01*
X135935000Y-126714017D01*
X135792655Y-126370365D01*
X135529635Y-126107345D01*
X135185983Y-125965000D01*
X134814017Y-125965000D01*
X134470365Y-126107345D01*
X134207345Y-126370365D01*
X134065000Y-126714017D01*
X117037526Y-126714017D01*
X116172353Y-125848844D01*
X114762829Y-125265000D01*
X113237171Y-125265000D01*
X111827647Y-125848844D01*
X110748844Y-126927647D01*
X110165000Y-128337171D01*
X109710000Y-128337171D01*
X109710000Y-123814017D01*
X110665000Y-123814017D01*
X110665000Y-124185983D01*
X110807345Y-124529635D01*
X111070365Y-124792655D01*
X111414017Y-124935000D01*
X111785983Y-124935000D01*
X112129635Y-124792655D01*
X112392655Y-124529635D01*
X112535000Y-124185983D01*
X112535000Y-123814017D01*
X120565000Y-123814017D01*
X120565000Y-124185983D01*
X120707345Y-124529635D01*
X120970365Y-124792655D01*
X121314017Y-124935000D01*
X121685983Y-124935000D01*
X122029635Y-124792655D01*
X122292655Y-124529635D01*
X122435000Y-124185983D01*
X122435000Y-123814017D01*
X122292655Y-123470365D01*
X122029635Y-123207345D01*
X121685983Y-123065000D01*
X121314017Y-123065000D01*
X120970365Y-123207345D01*
X120707345Y-123470365D01*
X120565000Y-123814017D01*
X112535000Y-123814017D01*
X112392655Y-123470365D01*
X112129635Y-123207345D01*
X111785983Y-123065000D01*
X111414017Y-123065000D01*
X111070365Y-123207345D01*
X110807345Y-123470365D01*
X110665000Y-123814017D01*
X109710000Y-123814017D01*
X109710000Y-118814017D01*
X125865000Y-118814017D01*
X125865000Y-119185983D01*
X126007345Y-119529635D01*
X126270365Y-119792655D01*
X126614017Y-119935000D01*
X126985983Y-119935000D01*
X126997467Y-119930243D01*
X126782345Y-120145365D01*
X126640000Y-120489017D01*
X126640000Y-120860983D01*
X126782345Y-121204635D01*
X127045365Y-121467655D01*
X127389017Y-121610000D01*
X127760983Y-121610000D01*
X128104635Y-121467655D01*
X128367655Y-121204635D01*
X128510000Y-120860983D01*
X128510000Y-120489017D01*
X128367655Y-120145365D01*
X128104635Y-119882345D01*
X127760983Y-119740000D01*
X127389017Y-119740000D01*
X127377533Y-119744757D01*
X127592655Y-119529635D01*
X127698445Y-119274234D01*
X129665000Y-119274234D01*
X129665000Y-119725766D01*
X129837793Y-120142926D01*
X130157074Y-120462207D01*
X130574234Y-120635000D01*
X131025766Y-120635000D01*
X131220845Y-120554196D01*
X131165000Y-120689017D01*
X131165000Y-121060983D01*
X131307345Y-121404635D01*
X131570365Y-121667655D01*
X131914017Y-121810000D01*
X132285983Y-121810000D01*
X132629635Y-121667655D01*
X132892655Y-121404635D01*
X133035000Y-121060983D01*
X133035000Y-120689017D01*
X132999905Y-120604291D01*
X133342926Y-120462207D01*
X133662207Y-120142926D01*
X133835000Y-119725766D01*
X133835000Y-119274234D01*
X133662207Y-118857074D01*
X133342926Y-118537793D01*
X132925766Y-118365000D01*
X132474234Y-118365000D01*
X132057074Y-118537793D01*
X131816157Y-118778710D01*
X131683843Y-118778710D01*
X131442926Y-118537793D01*
X131025766Y-118365000D01*
X130574234Y-118365000D01*
X130157074Y-118537793D01*
X129837793Y-118857074D01*
X129665000Y-119274234D01*
X127698445Y-119274234D01*
X127735000Y-119185983D01*
X127735000Y-118814017D01*
X127592655Y-118470365D01*
X127329635Y-118207345D01*
X126985983Y-118065000D01*
X126614017Y-118065000D01*
X126270365Y-118207345D01*
X126007345Y-118470365D01*
X125865000Y-118814017D01*
X109710000Y-118814017D01*
X109710000Y-116564017D01*
X128365000Y-116564017D01*
X128365000Y-116935983D01*
X128507345Y-117279635D01*
X128537473Y-117309763D01*
X128515000Y-117364017D01*
X128515000Y-117735983D01*
X128657345Y-118079635D01*
X128920365Y-118342655D01*
X129264017Y-118485000D01*
X129635983Y-118485000D01*
X129979635Y-118342655D01*
X130242655Y-118079635D01*
X130385000Y-117735983D01*
X130385000Y-117364017D01*
X130242655Y-117020365D01*
X130212527Y-116990237D01*
X130235000Y-116935983D01*
X130235000Y-116564017D01*
X130092655Y-116220365D01*
X129829635Y-115957345D01*
X129485983Y-115815000D01*
X129114017Y-115815000D01*
X128770365Y-115957345D01*
X128507345Y-116220365D01*
X128365000Y-116564017D01*
X109710000Y-116564017D01*
X109710000Y-111414017D01*
X125865000Y-111414017D01*
X125865000Y-111785983D01*
X126007345Y-112129635D01*
X126270365Y-112392655D01*
X126614017Y-112535000D01*
X126985983Y-112535000D01*
X127329635Y-112392655D01*
X127592655Y-112129635D01*
X127735000Y-111785983D01*
X127735000Y-111414017D01*
X127592655Y-111070365D01*
X127329635Y-110807345D01*
X126985983Y-110665000D01*
X126614017Y-110665000D01*
X126270365Y-110807345D01*
X126007345Y-111070365D01*
X125865000Y-111414017D01*
X109710000Y-111414017D01*
X109710000Y-108364017D01*
X110115000Y-108364017D01*
X110115000Y-108735983D01*
X110257345Y-109079635D01*
X110520365Y-109342655D01*
X110864017Y-109485000D01*
X111235983Y-109485000D01*
X111579635Y-109342655D01*
X111842655Y-109079635D01*
X111985000Y-108735983D01*
X111985000Y-108364017D01*
X111842655Y-108020365D01*
X111579635Y-107757345D01*
X111235983Y-107615000D01*
X110864017Y-107615000D01*
X110520365Y-107757345D01*
X110257345Y-108020365D01*
X110115000Y-108364017D01*
X109710000Y-108364017D01*
X109710000Y-94684180D01*
X110415000Y-94684180D01*
X110415000Y-95115820D01*
X110580182Y-95514603D01*
X110885397Y-95819818D01*
X111284180Y-95985000D01*
X111715820Y-95985000D01*
X112114603Y-95819818D01*
X112419818Y-95514603D01*
X112585000Y-95115820D01*
X112585000Y-94684180D01*
X112419818Y-94285397D01*
X112114603Y-93980182D01*
X111715820Y-93815000D01*
X111284180Y-93815000D01*
X110885397Y-93980182D01*
X110580182Y-94285397D01*
X110415000Y-94684180D01*
X109710000Y-94684180D01*
X109710000Y-87884180D01*
X110415000Y-87884180D01*
X110415000Y-88315820D01*
X110580182Y-88714603D01*
X110885397Y-89019818D01*
X111284180Y-89185000D01*
X111715820Y-89185000D01*
X112114603Y-89019818D01*
X112419818Y-88714603D01*
X112585000Y-88315820D01*
X112585000Y-87884180D01*
X112419818Y-87485397D01*
X112114603Y-87180182D01*
X111715820Y-87015000D01*
X111284180Y-87015000D01*
X110885397Y-87180182D01*
X110580182Y-87485397D01*
X110415000Y-87884180D01*
X109710000Y-87884180D01*
X109710000Y-77264017D01*
X123815000Y-77264017D01*
X123815000Y-77635983D01*
X123957345Y-77979635D01*
X124220365Y-78242655D01*
X124564017Y-78385000D01*
X124935983Y-78385000D01*
X125279635Y-78242655D01*
X125542655Y-77979635D01*
X125685000Y-77635983D01*
X125685000Y-77264017D01*
X125542655Y-76920365D01*
X125491182Y-76868892D01*
X125725257Y-76771935D01*
X125962192Y-76535000D01*
X126085983Y-76535000D01*
X126429635Y-76392655D01*
X126692655Y-76129635D01*
X126835000Y-75785983D01*
X126835000Y-75414017D01*
X126692655Y-75070365D01*
X126429635Y-74807345D01*
X126085983Y-74665000D01*
X125714017Y-74665000D01*
X125370365Y-74807345D01*
X125133430Y-75044280D01*
X125009639Y-75044280D01*
X124665987Y-75186625D01*
X124402967Y-75449645D01*
X124260622Y-75793297D01*
X124260622Y-76165263D01*
X124402967Y-76508915D01*
X124454440Y-76560388D01*
X124220365Y-76657345D01*
X123957345Y-76920365D01*
X123815000Y-77264017D01*
X109710000Y-77264017D01*
X109710000Y-75468286D01*
X119214891Y-75468286D01*
X119214891Y-75840252D01*
X119357236Y-76183904D01*
X119620256Y-76446924D01*
X119963908Y-76589269D01*
X120335874Y-76589269D01*
X120679526Y-76446924D01*
X120942546Y-76183904D01*
X121084891Y-75840252D01*
X121084891Y-75468286D01*
X120942546Y-75124634D01*
X120679526Y-74861614D01*
X120335874Y-74719269D01*
X119963908Y-74719269D01*
X119620256Y-74861614D01*
X119357236Y-75124634D01*
X119214891Y-75468286D01*
X109710000Y-75468286D01*
X109710000Y-72514017D01*
X122365000Y-72514017D01*
X122365000Y-72885983D01*
X122507345Y-73229635D01*
X122770365Y-73492655D01*
X123114017Y-73635000D01*
X123485983Y-73635000D01*
X123829635Y-73492655D01*
X124092655Y-73229635D01*
X124235000Y-72885983D01*
X124235000Y-72673275D01*
X124429635Y-72592655D01*
X124692655Y-72329635D01*
X124835000Y-71985983D01*
X124835000Y-71631854D01*
X124929635Y-71592655D01*
X125192655Y-71329635D01*
X125335000Y-70985983D01*
X125335000Y-70614017D01*
X125192655Y-70270365D01*
X124929635Y-70007345D01*
X124585983Y-69865000D01*
X124214017Y-69865000D01*
X123870365Y-70007345D01*
X123607345Y-70270365D01*
X123465000Y-70614017D01*
X123465000Y-70968146D01*
X123370365Y-71007345D01*
X123107345Y-71270365D01*
X122965000Y-71614017D01*
X122965000Y-71826725D01*
X122770365Y-71907345D01*
X122507345Y-72170365D01*
X122365000Y-72514017D01*
X109710000Y-72514017D01*
X109710000Y-68364017D01*
X120065000Y-68364017D01*
X120065000Y-68735983D01*
X120207345Y-69079635D01*
X120470365Y-69342655D01*
X120814017Y-69485000D01*
X121185983Y-69485000D01*
X121529635Y-69342655D01*
X121792655Y-69079635D01*
X121935000Y-68735983D01*
X121935000Y-68364017D01*
X121914290Y-68314017D01*
X125665000Y-68314017D01*
X125665000Y-68685983D01*
X125807345Y-69029635D01*
X126070365Y-69292655D01*
X126414017Y-69435000D01*
X126785983Y-69435000D01*
X127129635Y-69292655D01*
X127392655Y-69029635D01*
X127535000Y-68685983D01*
X127535000Y-68314017D01*
X127392655Y-67970365D01*
X127129635Y-67707345D01*
X126785983Y-67565000D01*
X126414017Y-67565000D01*
X126070365Y-67707345D01*
X125807345Y-67970365D01*
X125665000Y-68314017D01*
X121914290Y-68314017D01*
X121817563Y-68080498D01*
X122029635Y-67992655D01*
X122292655Y-67729635D01*
X122435000Y-67385983D01*
X122435000Y-67014017D01*
X122292655Y-66670365D01*
X122029635Y-66407345D01*
X121685983Y-66265000D01*
X121314017Y-66265000D01*
X120970365Y-66407345D01*
X120707345Y-66670365D01*
X120565000Y-67014017D01*
X120565000Y-67385983D01*
X120682437Y-67669502D01*
X120470365Y-67757345D01*
X120207345Y-68020365D01*
X120065000Y-68364017D01*
X109710000Y-68364017D01*
X109710000Y-65614017D01*
X119265000Y-65614017D01*
X119265000Y-65985983D01*
X119407345Y-66329635D01*
X119670365Y-66592655D01*
X120014017Y-66735000D01*
X120385983Y-66735000D01*
X120729635Y-66592655D01*
X120992655Y-66329635D01*
X121135000Y-65985983D01*
X121135000Y-65614017D01*
X127465000Y-65614017D01*
X127465000Y-65985983D01*
X127607345Y-66329635D01*
X127870365Y-66592655D01*
X128214017Y-66735000D01*
X128585983Y-66735000D01*
X128929635Y-66592655D01*
X129192655Y-66329635D01*
X129335000Y-65985983D01*
X129335000Y-65614017D01*
X129192655Y-65270365D01*
X128929635Y-65007345D01*
X128585983Y-64865000D01*
X128214017Y-64865000D01*
X127870365Y-65007345D01*
X127607345Y-65270365D01*
X127465000Y-65614017D01*
X121135000Y-65614017D01*
X120992655Y-65270365D01*
X120729635Y-65007345D01*
X120385983Y-64865000D01*
X120014017Y-64865000D01*
X119670365Y-65007345D01*
X119407345Y-65270365D01*
X119265000Y-65614017D01*
X109710000Y-65614017D01*
X109710000Y-58495270D01*
X109992643Y-59177630D01*
X111322370Y-60507357D01*
X113059741Y-61227000D01*
X114940259Y-61227000D01*
X116677630Y-60507357D01*
X118007357Y-59177630D01*
X118727000Y-57440259D01*
X118727000Y-55559741D01*
X118464046Y-54924914D01*
X120815000Y-54924914D01*
X120815000Y-55625086D01*
X121082944Y-56271960D01*
X121578040Y-56767056D01*
X122224914Y-57035000D01*
X122925086Y-57035000D01*
X123571960Y-56767056D01*
X124067056Y-56271960D01*
X124302560Y-55703403D01*
X124302560Y-56400000D01*
X124351843Y-56647765D01*
X124492191Y-56857809D01*
X124702235Y-56998157D01*
X124950000Y-57047440D01*
X127200000Y-57047440D01*
X127447765Y-56998157D01*
X127657809Y-56857809D01*
X127798157Y-56647765D01*
X127847440Y-56400000D01*
X127847440Y-54150000D01*
X127798157Y-53902235D01*
X127657809Y-53692191D01*
X127447765Y-53551843D01*
X127200000Y-53502560D01*
X124950000Y-53502560D01*
X124702235Y-53551843D01*
X124492191Y-53692191D01*
X124351843Y-53902235D01*
X124302560Y-54150000D01*
X124302560Y-54846597D01*
X124067056Y-54278040D01*
X123571960Y-53782944D01*
X122925086Y-53515000D01*
X122224914Y-53515000D01*
X121578040Y-53782944D01*
X121082944Y-54278040D01*
X120815000Y-54924914D01*
X118464046Y-54924914D01*
X118007357Y-53822370D01*
X116677630Y-52492643D01*
X114940259Y-51773000D01*
X113059741Y-51773000D01*
X111322370Y-52492643D01*
X109992643Y-53822370D01*
X109710000Y-54504730D01*
X109710000Y-49710000D01*
X131373000Y-49710000D01*
X131373000Y-70014832D01*
X131373000Y-70014832D01*
G37*
X131373000Y-70014832D02*
X131270365Y-70057345D01*
X131007345Y-70320365D01*
X130865000Y-70664017D01*
X130865000Y-71035983D01*
X131007345Y-71379635D01*
X131270365Y-71642655D01*
X131373000Y-71685168D01*
X131373000Y-75790000D01*
X131014017Y-75790000D01*
X130670365Y-75932345D01*
X130407345Y-76195365D01*
X130265000Y-76539017D01*
X130265000Y-76910983D01*
X130407345Y-77254635D01*
X130551463Y-77398753D01*
X130470365Y-77432345D01*
X130207345Y-77695365D01*
X130065000Y-78039017D01*
X130065000Y-78410983D01*
X130207345Y-78754635D01*
X130470365Y-79017655D01*
X130814017Y-79160000D01*
X131185983Y-79160000D01*
X131373000Y-79082535D01*
X131373000Y-79944703D01*
X131365000Y-79964017D01*
X131365000Y-80335983D01*
X131373000Y-80355297D01*
X131373000Y-80373000D01*
X116000000Y-80373000D01*
X115951399Y-80382667D01*
X115910197Y-80410197D01*
X115882667Y-80451399D01*
X115873000Y-80500000D01*
X115873000Y-107500000D01*
X115882667Y-107548601D01*
X115910197Y-107589803D01*
X115951399Y-107617333D01*
X116000000Y-107627000D01*
X131873000Y-107627000D01*
X131873000Y-116500000D01*
X131882667Y-116548601D01*
X131910197Y-116589803D01*
X131951399Y-116617333D01*
X132000000Y-116627000D01*
X133685046Y-116627000D01*
X133370365Y-116757345D01*
X133107345Y-117020365D01*
X132965000Y-117364017D01*
X132965000Y-117735983D01*
X133107345Y-118079635D01*
X133370365Y-118342655D01*
X133714017Y-118485000D01*
X134085983Y-118485000D01*
X134429635Y-118342655D01*
X134692655Y-118079635D01*
X134835000Y-117735983D01*
X134835000Y-117364017D01*
X134692655Y-117020365D01*
X134429635Y-116757345D01*
X134114954Y-116627000D01*
X136704710Y-116627000D01*
X136920365Y-116842655D01*
X137264017Y-116985000D01*
X137415000Y-116985000D01*
X137415000Y-117185983D01*
X137557345Y-117529635D01*
X137820365Y-117792655D01*
X138164017Y-117935000D01*
X138535983Y-117935000D01*
X138879635Y-117792655D01*
X139142655Y-117529635D01*
X139285000Y-117185983D01*
X139285000Y-116907290D01*
X139520365Y-117142655D01*
X139864017Y-117285000D01*
X140235983Y-117285000D01*
X140385548Y-117223048D01*
X140641017Y-117328867D01*
X140836315Y-117328867D01*
X140857345Y-117379637D01*
X141120365Y-117642657D01*
X141464017Y-117785002D01*
X141835983Y-117785002D01*
X142179635Y-117642657D01*
X142442655Y-117379637D01*
X142585000Y-117035985D01*
X142585000Y-116664019D01*
X142569666Y-116627000D01*
X143406987Y-116627000D01*
X143408719Y-116628732D01*
X143752371Y-116771077D01*
X144124337Y-116771077D01*
X144249155Y-116719376D01*
X144330951Y-116916848D01*
X144593971Y-117179868D01*
X144937623Y-117322213D01*
X145309589Y-117322213D01*
X145550242Y-117222532D01*
X145720365Y-117392655D01*
X146064017Y-117535000D01*
X146435983Y-117535000D01*
X146779635Y-117392655D01*
X147042655Y-117129635D01*
X147185000Y-116785983D01*
X147185000Y-116627000D01*
X149965002Y-116627000D01*
X149965002Y-116835983D01*
X150013858Y-116953931D01*
X149943377Y-117124086D01*
X149719384Y-117216867D01*
X149456364Y-117479887D01*
X149314019Y-117823539D01*
X149314019Y-118195505D01*
X149456364Y-118539157D01*
X149719384Y-118802177D01*
X150063036Y-118944522D01*
X150435002Y-118944522D01*
X150778654Y-118802177D01*
X151041674Y-118539157D01*
X151126178Y-118335147D01*
X151301495Y-118262528D01*
X151331211Y-118334270D01*
X151594231Y-118597290D01*
X151937883Y-118739635D01*
X152309849Y-118739635D01*
X152653501Y-118597290D01*
X152786774Y-118464017D01*
X155365000Y-118464017D01*
X155365000Y-118835983D01*
X155507345Y-119179635D01*
X155770365Y-119442655D01*
X156114017Y-119585000D01*
X156485983Y-119585000D01*
X156829635Y-119442655D01*
X157092655Y-119179635D01*
X157130189Y-119089018D01*
X160839999Y-119089018D01*
X160839999Y-119460984D01*
X160982344Y-119804636D01*
X161245364Y-120067656D01*
X161589016Y-120210001D01*
X161949506Y-120210001D01*
X161865000Y-120414017D01*
X161865000Y-120785983D01*
X162007345Y-121129635D01*
X162270365Y-121392655D01*
X162614017Y-121535000D01*
X162985983Y-121535000D01*
X163329635Y-121392655D01*
X163592655Y-121129635D01*
X163735000Y-120785983D01*
X163735000Y-120414017D01*
X163592655Y-120070365D01*
X163329635Y-119807345D01*
X162985983Y-119665000D01*
X162625493Y-119665000D01*
X162709999Y-119460984D01*
X162709999Y-119089018D01*
X162567654Y-118745366D01*
X162304634Y-118482346D01*
X161960982Y-118340001D01*
X161589016Y-118340001D01*
X161245364Y-118482346D01*
X160982344Y-118745366D01*
X160839999Y-119089018D01*
X157130189Y-119089018D01*
X157235000Y-118835983D01*
X157235000Y-118464017D01*
X157092655Y-118120365D01*
X156829635Y-117857345D01*
X156485983Y-117715000D01*
X156114017Y-117715000D01*
X155770365Y-117857345D01*
X155507345Y-118120365D01*
X155365000Y-118464017D01*
X152786774Y-118464017D01*
X152916521Y-118334270D01*
X153058866Y-117990618D01*
X153058866Y-117618652D01*
X152916521Y-117275000D01*
X152653501Y-117011980D01*
X152309849Y-116869635D01*
X151937883Y-116869635D01*
X151796869Y-116928045D01*
X151835002Y-116835983D01*
X151835002Y-116627000D01*
X152544122Y-116627000D01*
X152607345Y-116779635D01*
X152870365Y-117042655D01*
X153214017Y-117185000D01*
X153585983Y-117185000D01*
X153929635Y-117042655D01*
X154192655Y-116779635D01*
X154255878Y-116627000D01*
X169000000Y-116627000D01*
X169048601Y-116617333D01*
X169089803Y-116589803D01*
X169117333Y-116548601D01*
X169127000Y-116500000D01*
X169127000Y-115785000D01*
X169285983Y-115785000D01*
X169629635Y-115642655D01*
X169892655Y-115379635D01*
X170035000Y-115035983D01*
X170035000Y-114664017D01*
X169892655Y-114320365D01*
X169629635Y-114057345D01*
X169285983Y-113915000D01*
X169127000Y-113915000D01*
X169127000Y-113314017D01*
X170165000Y-113314017D01*
X170165000Y-113685983D01*
X170307345Y-114029635D01*
X170570365Y-114292655D01*
X170914017Y-114435000D01*
X171285983Y-114435000D01*
X171629635Y-114292655D01*
X171892655Y-114029635D01*
X172035000Y-113685983D01*
X172035000Y-113314017D01*
X171892655Y-112970365D01*
X171629635Y-112707345D01*
X171285983Y-112565000D01*
X170914017Y-112565000D01*
X170570365Y-112707345D01*
X170307345Y-112970365D01*
X170165000Y-113314017D01*
X169127000Y-113314017D01*
X169127000Y-111964017D01*
X174565000Y-111964017D01*
X174565000Y-112335983D01*
X174707345Y-112679635D01*
X174970365Y-112942655D01*
X175314017Y-113085000D01*
X175685983Y-113085000D01*
X176029635Y-112942655D01*
X176292655Y-112679635D01*
X176435000Y-112335983D01*
X176435000Y-111964017D01*
X176292655Y-111620365D01*
X176029635Y-111357345D01*
X175685983Y-111215000D01*
X175314017Y-111215000D01*
X174970365Y-111357345D01*
X174707345Y-111620365D01*
X174565000Y-111964017D01*
X169127000Y-111964017D01*
X169127000Y-110664017D01*
X177565000Y-110664017D01*
X177565000Y-111035983D01*
X177707345Y-111379635D01*
X177802710Y-111475000D01*
X177707345Y-111570365D01*
X177565000Y-111914017D01*
X177565000Y-112285983D01*
X177707345Y-112629635D01*
X177970365Y-112892655D01*
X178314017Y-113035000D01*
X178685983Y-113035000D01*
X179029635Y-112892655D01*
X179292655Y-112629635D01*
X179435000Y-112285983D01*
X179435000Y-111914017D01*
X179292655Y-111570365D01*
X179197290Y-111475000D01*
X179292655Y-111379635D01*
X179435000Y-111035983D01*
X179435000Y-110664017D01*
X179292655Y-110320365D01*
X179029635Y-110057345D01*
X178685983Y-109915000D01*
X178314017Y-109915000D01*
X177970365Y-110057345D01*
X177707345Y-110320365D01*
X177565000Y-110664017D01*
X169127000Y-110664017D01*
X169127000Y-110598713D01*
X169449696Y-110598713D01*
X169793348Y-110456368D01*
X170056368Y-110193348D01*
X170198713Y-109849696D01*
X170198713Y-109477730D01*
X170056368Y-109134078D01*
X169793348Y-108871058D01*
X169449696Y-108728713D01*
X169127000Y-108728713D01*
X169127000Y-106264017D01*
X174764998Y-106264017D01*
X174764998Y-106635983D01*
X174907343Y-106979635D01*
X175170363Y-107242655D01*
X175286818Y-107290892D01*
X175057345Y-107520365D01*
X174915000Y-107864017D01*
X174915000Y-108235983D01*
X175057345Y-108579635D01*
X175320365Y-108842655D01*
X175664017Y-108985000D01*
X176035983Y-108985000D01*
X176379635Y-108842655D01*
X176642655Y-108579635D01*
X176785000Y-108235983D01*
X176785000Y-107864017D01*
X176642655Y-107520365D01*
X176379635Y-107257345D01*
X176263180Y-107209108D01*
X176492653Y-106979635D01*
X176634998Y-106635983D01*
X176634998Y-106264017D01*
X176492653Y-105920365D01*
X176283891Y-105711603D01*
X176329635Y-105692655D01*
X176592655Y-105429635D01*
X176735000Y-105085983D01*
X176735000Y-104714017D01*
X176592655Y-104370365D01*
X176329635Y-104107345D01*
X175985983Y-103965000D01*
X175614017Y-103965000D01*
X175270365Y-104107345D01*
X175007345Y-104370365D01*
X174865000Y-104714017D01*
X174865000Y-105085983D01*
X175007345Y-105429635D01*
X175216107Y-105638397D01*
X175170363Y-105657345D01*
X174907343Y-105920365D01*
X174764998Y-106264017D01*
X169127000Y-106264017D01*
X169127000Y-91914017D01*
X181265000Y-91914017D01*
X181265000Y-92285983D01*
X181407345Y-92629635D01*
X181670365Y-92892655D01*
X182014017Y-93035000D01*
X182385983Y-93035000D01*
X182729635Y-92892655D01*
X182992655Y-92629635D01*
X183135000Y-92285983D01*
X183135000Y-91914017D01*
X182992655Y-91570365D01*
X182729635Y-91307345D01*
X182385983Y-91165000D01*
X182014017Y-91165000D01*
X181670365Y-91307345D01*
X181407345Y-91570365D01*
X181265000Y-91914017D01*
X169127000Y-91914017D01*
X169127000Y-90649290D01*
X169320365Y-90842655D01*
X169664017Y-90985000D01*
X170035983Y-90985000D01*
X170379635Y-90842655D01*
X170642655Y-90579635D01*
X170785000Y-90235983D01*
X170785000Y-89864017D01*
X170642655Y-89520365D01*
X170379635Y-89257345D01*
X170035983Y-89115000D01*
X169664017Y-89115000D01*
X169320365Y-89257345D01*
X169127000Y-89450710D01*
X169127000Y-87684180D01*
X180415000Y-87684180D01*
X180415000Y-88115820D01*
X180580182Y-88514603D01*
X180885397Y-88819818D01*
X181284180Y-88985000D01*
X181715820Y-88985000D01*
X182114603Y-88819818D01*
X182419818Y-88514603D01*
X182585000Y-88115820D01*
X182585000Y-87684180D01*
X182419818Y-87285397D01*
X182114603Y-86980182D01*
X181715820Y-86815000D01*
X181284180Y-86815000D01*
X180885397Y-86980182D01*
X180580182Y-87285397D01*
X180415000Y-87684180D01*
X169127000Y-87684180D01*
X169127000Y-82627000D01*
X183290000Y-82627000D01*
X183290000Y-103064999D01*
X182964018Y-103064999D01*
X182620366Y-103207344D01*
X182357346Y-103470364D01*
X182215001Y-103814016D01*
X182215001Y-104185982D01*
X182357346Y-104529634D01*
X182620366Y-104792654D01*
X182964018Y-104934999D01*
X183290000Y-104934999D01*
X183290000Y-133290000D01*
X144782290Y-133290000D01*
X144942655Y-133129635D01*
X145085000Y-132785983D01*
X145085000Y-132414017D01*
X144989304Y-132182986D01*
X144992655Y-132179635D01*
X145135000Y-131835983D01*
X145135000Y-131714017D01*
X147315000Y-131714017D01*
X147315000Y-132085983D01*
X147457345Y-132429635D01*
X147720365Y-132692655D01*
X148064017Y-132835000D01*
X148435983Y-132835000D01*
X148779635Y-132692655D01*
X149042655Y-132429635D01*
X149185000Y-132085983D01*
X149185000Y-131714017D01*
X149042655Y-131370365D01*
X148779635Y-131107345D01*
X148435983Y-130965000D01*
X148064017Y-130965000D01*
X147720365Y-131107345D01*
X147457345Y-131370365D01*
X147315000Y-131714017D01*
X145135000Y-131714017D01*
X145135000Y-131464017D01*
X144992655Y-131120365D01*
X144729635Y-130857345D01*
X144422663Y-130730193D01*
X144754633Y-130592687D01*
X145017653Y-130329667D01*
X145159998Y-129986015D01*
X145159998Y-129814017D01*
X163065000Y-129814017D01*
X163065000Y-130185983D01*
X163207345Y-130529635D01*
X163470365Y-130792655D01*
X163814017Y-130935000D01*
X164185983Y-130935000D01*
X164529635Y-130792655D01*
X164792655Y-130529635D01*
X164935000Y-130185983D01*
X164935000Y-129814017D01*
X164792655Y-129470365D01*
X164529635Y-129207345D01*
X164185983Y-129065000D01*
X163814017Y-129065000D01*
X163470365Y-129207345D01*
X163207345Y-129470365D01*
X163065000Y-129814017D01*
X145159998Y-129814017D01*
X145159998Y-129614049D01*
X145042023Y-129329231D01*
X145075464Y-129343083D01*
X145447430Y-129343083D01*
X145791082Y-129200738D01*
X146054102Y-128937718D01*
X146196447Y-128594066D01*
X146196447Y-128222100D01*
X146152999Y-128117207D01*
X146244741Y-127895722D01*
X146244741Y-127523756D01*
X146116444Y-127214017D01*
X146390000Y-127214017D01*
X146390000Y-127585983D01*
X146532345Y-127929635D01*
X146795365Y-128192655D01*
X147139017Y-128335000D01*
X147510983Y-128335000D01*
X147854635Y-128192655D01*
X148117655Y-127929635D01*
X148175900Y-127789017D01*
X148815000Y-127789017D01*
X148815000Y-128160983D01*
X148957345Y-128504635D01*
X149220365Y-128767655D01*
X149564017Y-128910000D01*
X149935983Y-128910000D01*
X150279635Y-128767655D01*
X150542655Y-128504635D01*
X150612020Y-128337171D01*
X175165000Y-128337171D01*
X175165000Y-129862829D01*
X175748844Y-131272353D01*
X176827647Y-132351156D01*
X178237171Y-132935000D01*
X179762829Y-132935000D01*
X181172353Y-132351156D01*
X182251156Y-131272353D01*
X182835000Y-129862829D01*
X182835000Y-128337171D01*
X182251156Y-126927647D01*
X181172353Y-125848844D01*
X179762829Y-125265000D01*
X178237171Y-125265000D01*
X176827647Y-125848844D01*
X175748844Y-126927647D01*
X175165000Y-128337171D01*
X150612020Y-128337171D01*
X150685000Y-128160983D01*
X150685000Y-127935000D01*
X150735983Y-127935000D01*
X151079635Y-127792655D01*
X151342655Y-127529635D01*
X151485000Y-127185983D01*
X151485000Y-126814017D01*
X151342655Y-126470365D01*
X151086307Y-126214017D01*
X153315000Y-126214017D01*
X153315000Y-126585983D01*
X153457345Y-126929635D01*
X153720365Y-127192655D01*
X154064017Y-127335000D01*
X154435983Y-127335000D01*
X154779635Y-127192655D01*
X155042655Y-126929635D01*
X155185000Y-126585983D01*
X155185000Y-126214017D01*
X161265000Y-126214017D01*
X161265000Y-126585983D01*
X161407345Y-126929635D01*
X161670365Y-127192655D01*
X162014017Y-127335000D01*
X162385983Y-127335000D01*
X162729635Y-127192655D01*
X162992655Y-126929635D01*
X163135000Y-126585983D01*
X163135000Y-126214017D01*
X162992655Y-125870365D01*
X162729635Y-125607345D01*
X162385983Y-125465000D01*
X162014017Y-125465000D01*
X161670365Y-125607345D01*
X161407345Y-125870365D01*
X161265000Y-126214017D01*
X155185000Y-126214017D01*
X155042655Y-125870365D01*
X154779635Y-125607345D01*
X154435983Y-125465000D01*
X154064017Y-125465000D01*
X153720365Y-125607345D01*
X153457345Y-125870365D01*
X153315000Y-126214017D01*
X151086307Y-126214017D01*
X151079635Y-126207345D01*
X150735983Y-126065000D01*
X150364017Y-126065000D01*
X150020365Y-126207345D01*
X149757345Y-126470365D01*
X149615000Y-126814017D01*
X149615000Y-127040000D01*
X149564017Y-127040000D01*
X149220365Y-127182345D01*
X148957345Y-127445365D01*
X148815000Y-127789017D01*
X148175900Y-127789017D01*
X148260000Y-127585983D01*
X148260000Y-127214017D01*
X148117655Y-126870365D01*
X147854635Y-126607345D01*
X147510983Y-126465000D01*
X147139017Y-126465000D01*
X146795365Y-126607345D01*
X146532345Y-126870365D01*
X146390000Y-127214017D01*
X146116444Y-127214017D01*
X146102396Y-127180104D01*
X145875416Y-126953124D01*
X146073905Y-126754635D01*
X146216250Y-126410983D01*
X146216250Y-126039017D01*
X146073905Y-125695365D01*
X145835000Y-125456460D01*
X145835000Y-125395305D01*
X145692655Y-125051653D01*
X145429635Y-124788633D01*
X145085983Y-124646288D01*
X144714017Y-124646288D01*
X144370365Y-124788633D01*
X144107345Y-125051653D01*
X144015005Y-125274581D01*
X143911648Y-125317393D01*
X143648628Y-125580413D01*
X143516657Y-125899021D01*
X143442655Y-125720365D01*
X143179635Y-125457345D01*
X142835983Y-125315000D01*
X142464017Y-125315000D01*
X142120365Y-125457345D01*
X141857345Y-125720365D01*
X141715000Y-126064017D01*
X141715000Y-126435983D01*
X141785971Y-126607322D01*
X141690000Y-126839017D01*
X141690000Y-127101287D01*
X141360983Y-126965004D01*
X140989017Y-126965004D01*
X140923608Y-126992097D01*
X140955231Y-126915752D01*
X140955231Y-126543786D01*
X140812886Y-126200134D01*
X140611806Y-125999054D01*
X140626711Y-125963069D01*
X140626711Y-125591103D01*
X140484366Y-125247451D01*
X140221346Y-124984431D01*
X139877694Y-124842086D01*
X139826652Y-124842086D01*
X139817655Y-124820365D01*
X139554635Y-124557345D01*
X139210983Y-124415000D01*
X138839017Y-124415000D01*
X138661019Y-124488729D01*
X138429635Y-124257345D01*
X138085983Y-124115000D01*
X137811143Y-124115000D01*
X137792655Y-124070365D01*
X137529635Y-123807345D01*
X137345596Y-123731114D01*
X137385000Y-123635983D01*
X137385000Y-123264017D01*
X137242655Y-122920365D01*
X137186307Y-122864017D01*
X148015000Y-122864017D01*
X148015000Y-123235983D01*
X148157345Y-123579635D01*
X148420365Y-123842655D01*
X148764017Y-123985000D01*
X149135983Y-123985000D01*
X149479635Y-123842655D01*
X149742655Y-123579635D01*
X149885000Y-123235983D01*
X149885000Y-122864017D01*
X149742655Y-122520365D01*
X149479635Y-122257345D01*
X149135983Y-122115000D01*
X148764017Y-122115000D01*
X148420365Y-122257345D01*
X148157345Y-122520365D01*
X148015000Y-122864017D01*
X137186307Y-122864017D01*
X136979635Y-122657345D01*
X136857667Y-122606824D01*
X136945000Y-122395983D01*
X136945000Y-122024017D01*
X136875169Y-121855429D01*
X136935000Y-121710983D01*
X136935000Y-121339017D01*
X136877419Y-121200005D01*
X136935000Y-121060993D01*
X136935000Y-120989015D01*
X146165000Y-120989015D01*
X146165000Y-121360981D01*
X146307345Y-121704633D01*
X146570365Y-121967653D01*
X146914017Y-122109998D01*
X147285983Y-122109998D01*
X147409464Y-122058850D01*
X147714017Y-122185000D01*
X148085983Y-122185000D01*
X148378062Y-122064017D01*
X153015000Y-122064017D01*
X153015000Y-122435983D01*
X153157345Y-122779635D01*
X153420365Y-123042655D01*
X153764017Y-123185000D01*
X154135983Y-123185000D01*
X154437180Y-123060241D01*
X154453649Y-123100001D01*
X154365000Y-123314018D01*
X154365000Y-123685984D01*
X154507345Y-124029636D01*
X154770365Y-124292656D01*
X155114017Y-124435001D01*
X155485983Y-124435001D01*
X155829635Y-124292656D01*
X156092655Y-124029636D01*
X156235000Y-123685984D01*
X156235000Y-123314018D01*
X156235000Y-123314017D01*
X159865000Y-123314017D01*
X159865000Y-123685983D01*
X160007345Y-124029635D01*
X160270365Y-124292655D01*
X160614017Y-124435000D01*
X160985983Y-124435000D01*
X161329635Y-124292655D01*
X161592655Y-124029635D01*
X161735000Y-123685983D01*
X161735000Y-123314017D01*
X161592655Y-122970365D01*
X161329635Y-122707345D01*
X160985983Y-122565000D01*
X160614017Y-122565000D01*
X160270365Y-122707345D01*
X160007345Y-122970365D01*
X159865000Y-123314017D01*
X156235000Y-123314017D01*
X156146351Y-123100001D01*
X156235000Y-122885983D01*
X156235000Y-122514017D01*
X156092655Y-122170365D01*
X155829635Y-121907345D01*
X155485983Y-121765000D01*
X155114017Y-121765000D01*
X154812820Y-121889759D01*
X154742655Y-121720365D01*
X154479635Y-121457345D01*
X154135983Y-121315000D01*
X153764017Y-121315000D01*
X153420365Y-121457345D01*
X153157345Y-121720365D01*
X153015000Y-122064017D01*
X148378062Y-122064017D01*
X148429635Y-122042655D01*
X148692655Y-121779635D01*
X148835000Y-121435983D01*
X148835000Y-121201698D01*
X148907978Y-121201698D01*
X149251630Y-121059353D01*
X149514650Y-120796333D01*
X149656995Y-120452681D01*
X149656995Y-120080715D01*
X149525815Y-119764017D01*
X152240000Y-119764017D01*
X152240000Y-120135983D01*
X152382345Y-120479635D01*
X152645365Y-120742655D01*
X152989017Y-120885000D01*
X153360983Y-120885000D01*
X153704635Y-120742655D01*
X153967655Y-120479635D01*
X154110000Y-120135983D01*
X154110000Y-119764017D01*
X153967655Y-119420365D01*
X153704635Y-119157345D01*
X153360983Y-119015000D01*
X152989017Y-119015000D01*
X152645365Y-119157345D01*
X152382345Y-119420365D01*
X152240000Y-119764017D01*
X149525815Y-119764017D01*
X149514650Y-119737063D01*
X149251630Y-119474043D01*
X149159999Y-119436088D01*
X149159999Y-119414017D01*
X149017654Y-119070365D01*
X148754634Y-118807345D01*
X148410982Y-118665000D01*
X148039016Y-118665000D01*
X147695364Y-118807345D01*
X147432344Y-119070365D01*
X147289999Y-119414017D01*
X147289999Y-119785983D01*
X147432344Y-120129635D01*
X147645917Y-120343208D01*
X147590536Y-120366148D01*
X147285983Y-120239998D01*
X146914017Y-120239998D01*
X146570365Y-120382343D01*
X146307345Y-120645363D01*
X146165000Y-120989015D01*
X136935000Y-120989015D01*
X136935000Y-120689027D01*
X136792655Y-120345375D01*
X136529635Y-120082355D01*
X136185983Y-119940010D01*
X135814017Y-119940010D01*
X135470365Y-120082355D01*
X135207345Y-120345375D01*
X135065000Y-120689027D01*
X135065000Y-121060993D01*
X135122581Y-121200005D01*
X135065000Y-121339017D01*
X135065000Y-121710983D01*
X135134831Y-121879571D01*
X135075000Y-122024017D01*
X135075000Y-122395983D01*
X135217345Y-122739635D01*
X135480365Y-123002655D01*
X135602333Y-123053176D01*
X135515000Y-123264017D01*
X135515000Y-123635983D01*
X135657345Y-123979635D01*
X135920365Y-124242655D01*
X136104404Y-124318886D01*
X136065000Y-124414017D01*
X136065000Y-124785983D01*
X136207345Y-125129635D01*
X136470365Y-125392655D01*
X136807014Y-125532099D01*
X136773083Y-125614016D01*
X136773083Y-125985982D01*
X136915428Y-126329634D01*
X137178448Y-126592654D01*
X137522100Y-126734999D01*
X137894066Y-126734999D01*
X138237718Y-126592654D01*
X138500738Y-126329634D01*
X138566058Y-126171937D01*
X138839017Y-126285000D01*
X138890059Y-126285000D01*
X138899056Y-126306721D01*
X139100136Y-126507801D01*
X139085231Y-126543786D01*
X139085231Y-126915752D01*
X139227576Y-127259404D01*
X139490596Y-127522424D01*
X139834248Y-127664769D01*
X140206214Y-127664769D01*
X140271623Y-127637676D01*
X140240000Y-127714021D01*
X140240000Y-127966285D01*
X139988937Y-127862292D01*
X139616971Y-127862292D01*
X139335000Y-127979088D01*
X139335000Y-127964017D01*
X139192655Y-127620365D01*
X138929635Y-127357345D01*
X138585983Y-127215000D01*
X138214017Y-127215000D01*
X137870365Y-127357345D01*
X137607345Y-127620365D01*
X137465000Y-127964017D01*
X137465000Y-128335983D01*
X137607345Y-128679635D01*
X137870365Y-128942655D01*
X138214017Y-129085000D01*
X138585983Y-129085000D01*
X138867954Y-128968204D01*
X138867954Y-128983275D01*
X139010299Y-129326927D01*
X139273319Y-129589947D01*
X139616971Y-129732292D01*
X139988937Y-129732292D01*
X140118635Y-129678569D01*
X140129437Y-129704647D01*
X140392457Y-129967667D01*
X140460443Y-129995828D01*
X140566368Y-130251554D01*
X140829388Y-130514574D01*
X141173040Y-130656919D01*
X141545006Y-130656919D01*
X141888658Y-130514574D01*
X142151678Y-130251554D01*
X142294023Y-129907902D01*
X142294023Y-129535936D01*
X142151678Y-129192284D01*
X141888658Y-128929264D01*
X141820672Y-128901103D01*
X141725634Y-128671660D01*
X141967655Y-128429639D01*
X142110000Y-128085987D01*
X142110000Y-127823717D01*
X142439017Y-127960000D01*
X142810983Y-127960000D01*
X143128033Y-127828674D01*
X143264017Y-127885000D01*
X143635983Y-127885000D01*
X143764645Y-127831707D01*
X144014017Y-127935000D01*
X144385983Y-127935000D01*
X144390274Y-127933223D01*
X144418189Y-128000615D01*
X144326447Y-128222100D01*
X144326447Y-128594066D01*
X144444422Y-128878884D01*
X144410981Y-128865032D01*
X144039015Y-128865032D01*
X143695363Y-129007377D01*
X143432343Y-129270397D01*
X143289998Y-129614049D01*
X143289998Y-129986015D01*
X143432343Y-130329667D01*
X143695363Y-130592687D01*
X144002335Y-130719839D01*
X143670365Y-130857345D01*
X143407345Y-131120365D01*
X143265000Y-131464017D01*
X143265000Y-131835983D01*
X143360696Y-132067014D01*
X143357345Y-132070365D01*
X143215000Y-132414017D01*
X143215000Y-132785983D01*
X143357345Y-133129635D01*
X143517710Y-133290000D01*
X136482290Y-133290000D01*
X136642655Y-133129635D01*
X136785000Y-132785983D01*
X136785000Y-132414017D01*
X136642655Y-132070365D01*
X136379635Y-131807345D01*
X136035983Y-131665000D01*
X135664017Y-131665000D01*
X135320365Y-131807345D01*
X135057345Y-132070365D01*
X134915000Y-132414017D01*
X134915000Y-132785983D01*
X135057345Y-133129635D01*
X135217710Y-133290000D01*
X109710000Y-133290000D01*
X109710000Y-128337171D01*
X110165000Y-128337171D01*
X110165000Y-129862829D01*
X110748844Y-131272353D01*
X111827647Y-132351156D01*
X113237171Y-132935000D01*
X114762829Y-132935000D01*
X116172353Y-132351156D01*
X117251156Y-131272353D01*
X117835000Y-129862829D01*
X117835000Y-129000000D01*
X122405908Y-129000000D01*
X122521161Y-129579418D01*
X122849375Y-130070625D01*
X123147761Y-130270000D01*
X122849375Y-130469375D01*
X122521161Y-130960582D01*
X122405908Y-131540000D01*
X122521161Y-132119418D01*
X122849375Y-132610625D01*
X123340582Y-132938839D01*
X123773744Y-133025000D01*
X124066256Y-133025000D01*
X124499418Y-132938839D01*
X124990625Y-132610625D01*
X125190000Y-132312239D01*
X125389375Y-132610625D01*
X125880582Y-132938839D01*
X126313744Y-133025000D01*
X126606256Y-133025000D01*
X127039418Y-132938839D01*
X127530625Y-132610625D01*
X127730000Y-132312239D01*
X127929375Y-132610625D01*
X128420582Y-132938839D01*
X128853744Y-133025000D01*
X129146256Y-133025000D01*
X129579418Y-132938839D01*
X130070625Y-132610625D01*
X130398839Y-132119418D01*
X130514092Y-131540000D01*
X130398839Y-130960582D01*
X130070625Y-130469375D01*
X130052381Y-130457184D01*
X130097765Y-130448157D01*
X130307809Y-130307809D01*
X130448157Y-130097765D01*
X130497440Y-129850000D01*
X130497440Y-128150000D01*
X130448157Y-127902235D01*
X130307809Y-127692191D01*
X130097765Y-127551843D01*
X129850000Y-127502560D01*
X128150000Y-127502560D01*
X127902235Y-127551843D01*
X127692191Y-127692191D01*
X127551843Y-127902235D01*
X127542816Y-127947619D01*
X127530625Y-127929375D01*
X127039418Y-127601161D01*
X126606256Y-127515000D01*
X126313744Y-127515000D01*
X125880582Y-127601161D01*
X125389375Y-127929375D01*
X125190000Y-128227761D01*
X124990625Y-127929375D01*
X124499418Y-127601161D01*
X124066256Y-127515000D01*
X123773744Y-127515000D01*
X123340582Y-127601161D01*
X122849375Y-127929375D01*
X122521161Y-128420582D01*
X122405908Y-129000000D01*
X117835000Y-129000000D01*
X117835000Y-128337171D01*
X117251156Y-126927647D01*
X117037526Y-126714017D01*
X134065000Y-126714017D01*
X134065000Y-127085983D01*
X134207345Y-127429635D01*
X134470365Y-127692655D01*
X134814017Y-127835000D01*
X135185983Y-127835000D01*
X135529635Y-127692655D01*
X135792655Y-127429635D01*
X135935000Y-127085983D01*
X135935000Y-126714017D01*
X135792655Y-126370365D01*
X135529635Y-126107345D01*
X135185983Y-125965000D01*
X134814017Y-125965000D01*
X134470365Y-126107345D01*
X134207345Y-126370365D01*
X134065000Y-126714017D01*
X117037526Y-126714017D01*
X116172353Y-125848844D01*
X114762829Y-125265000D01*
X113237171Y-125265000D01*
X111827647Y-125848844D01*
X110748844Y-126927647D01*
X110165000Y-128337171D01*
X109710000Y-128337171D01*
X109710000Y-123814017D01*
X110665000Y-123814017D01*
X110665000Y-124185983D01*
X110807345Y-124529635D01*
X111070365Y-124792655D01*
X111414017Y-124935000D01*
X111785983Y-124935000D01*
X112129635Y-124792655D01*
X112392655Y-124529635D01*
X112535000Y-124185983D01*
X112535000Y-123814017D01*
X120565000Y-123814017D01*
X120565000Y-124185983D01*
X120707345Y-124529635D01*
X120970365Y-124792655D01*
X121314017Y-124935000D01*
X121685983Y-124935000D01*
X122029635Y-124792655D01*
X122292655Y-124529635D01*
X122435000Y-124185983D01*
X122435000Y-123814017D01*
X122292655Y-123470365D01*
X122029635Y-123207345D01*
X121685983Y-123065000D01*
X121314017Y-123065000D01*
X120970365Y-123207345D01*
X120707345Y-123470365D01*
X120565000Y-123814017D01*
X112535000Y-123814017D01*
X112392655Y-123470365D01*
X112129635Y-123207345D01*
X111785983Y-123065000D01*
X111414017Y-123065000D01*
X111070365Y-123207345D01*
X110807345Y-123470365D01*
X110665000Y-123814017D01*
X109710000Y-123814017D01*
X109710000Y-118814017D01*
X125865000Y-118814017D01*
X125865000Y-119185983D01*
X126007345Y-119529635D01*
X126270365Y-119792655D01*
X126614017Y-119935000D01*
X126985983Y-119935000D01*
X126997467Y-119930243D01*
X126782345Y-120145365D01*
X126640000Y-120489017D01*
X126640000Y-120860983D01*
X126782345Y-121204635D01*
X127045365Y-121467655D01*
X127389017Y-121610000D01*
X127760983Y-121610000D01*
X128104635Y-121467655D01*
X128367655Y-121204635D01*
X128510000Y-120860983D01*
X128510000Y-120489017D01*
X128367655Y-120145365D01*
X128104635Y-119882345D01*
X127760983Y-119740000D01*
X127389017Y-119740000D01*
X127377533Y-119744757D01*
X127592655Y-119529635D01*
X127698445Y-119274234D01*
X129665000Y-119274234D01*
X129665000Y-119725766D01*
X129837793Y-120142926D01*
X130157074Y-120462207D01*
X130574234Y-120635000D01*
X131025766Y-120635000D01*
X131220845Y-120554196D01*
X131165000Y-120689017D01*
X131165000Y-121060983D01*
X131307345Y-121404635D01*
X131570365Y-121667655D01*
X131914017Y-121810000D01*
X132285983Y-121810000D01*
X132629635Y-121667655D01*
X132892655Y-121404635D01*
X133035000Y-121060983D01*
X133035000Y-120689017D01*
X132999905Y-120604291D01*
X133342926Y-120462207D01*
X133662207Y-120142926D01*
X133835000Y-119725766D01*
X133835000Y-119274234D01*
X133662207Y-118857074D01*
X133342926Y-118537793D01*
X132925766Y-118365000D01*
X132474234Y-118365000D01*
X132057074Y-118537793D01*
X131816157Y-118778710D01*
X131683843Y-118778710D01*
X131442926Y-118537793D01*
X131025766Y-118365000D01*
X130574234Y-118365000D01*
X130157074Y-118537793D01*
X129837793Y-118857074D01*
X129665000Y-119274234D01*
X127698445Y-119274234D01*
X127735000Y-119185983D01*
X127735000Y-118814017D01*
X127592655Y-118470365D01*
X127329635Y-118207345D01*
X126985983Y-118065000D01*
X126614017Y-118065000D01*
X126270365Y-118207345D01*
X126007345Y-118470365D01*
X125865000Y-118814017D01*
X109710000Y-118814017D01*
X109710000Y-116564017D01*
X128365000Y-116564017D01*
X128365000Y-116935983D01*
X128507345Y-117279635D01*
X128537473Y-117309763D01*
X128515000Y-117364017D01*
X128515000Y-117735983D01*
X128657345Y-118079635D01*
X128920365Y-118342655D01*
X129264017Y-118485000D01*
X129635983Y-118485000D01*
X129979635Y-118342655D01*
X130242655Y-118079635D01*
X130385000Y-117735983D01*
X130385000Y-117364017D01*
X130242655Y-117020365D01*
X130212527Y-116990237D01*
X130235000Y-116935983D01*
X130235000Y-116564017D01*
X130092655Y-116220365D01*
X129829635Y-115957345D01*
X129485983Y-115815000D01*
X129114017Y-115815000D01*
X128770365Y-115957345D01*
X128507345Y-116220365D01*
X128365000Y-116564017D01*
X109710000Y-116564017D01*
X109710000Y-111414017D01*
X125865000Y-111414017D01*
X125865000Y-111785983D01*
X126007345Y-112129635D01*
X126270365Y-112392655D01*
X126614017Y-112535000D01*
X126985983Y-112535000D01*
X127329635Y-112392655D01*
X127592655Y-112129635D01*
X127735000Y-111785983D01*
X127735000Y-111414017D01*
X127592655Y-111070365D01*
X127329635Y-110807345D01*
X126985983Y-110665000D01*
X126614017Y-110665000D01*
X126270365Y-110807345D01*
X126007345Y-111070365D01*
X125865000Y-111414017D01*
X109710000Y-111414017D01*
X109710000Y-108364017D01*
X110115000Y-108364017D01*
X110115000Y-108735983D01*
X110257345Y-109079635D01*
X110520365Y-109342655D01*
X110864017Y-109485000D01*
X111235983Y-109485000D01*
X111579635Y-109342655D01*
X111842655Y-109079635D01*
X111985000Y-108735983D01*
X111985000Y-108364017D01*
X111842655Y-108020365D01*
X111579635Y-107757345D01*
X111235983Y-107615000D01*
X110864017Y-107615000D01*
X110520365Y-107757345D01*
X110257345Y-108020365D01*
X110115000Y-108364017D01*
X109710000Y-108364017D01*
X109710000Y-94684180D01*
X110415000Y-94684180D01*
X110415000Y-95115820D01*
X110580182Y-95514603D01*
X110885397Y-95819818D01*
X111284180Y-95985000D01*
X111715820Y-95985000D01*
X112114603Y-95819818D01*
X112419818Y-95514603D01*
X112585000Y-95115820D01*
X112585000Y-94684180D01*
X112419818Y-94285397D01*
X112114603Y-93980182D01*
X111715820Y-93815000D01*
X111284180Y-93815000D01*
X110885397Y-93980182D01*
X110580182Y-94285397D01*
X110415000Y-94684180D01*
X109710000Y-94684180D01*
X109710000Y-87884180D01*
X110415000Y-87884180D01*
X110415000Y-88315820D01*
X110580182Y-88714603D01*
X110885397Y-89019818D01*
X111284180Y-89185000D01*
X111715820Y-89185000D01*
X112114603Y-89019818D01*
X112419818Y-88714603D01*
X112585000Y-88315820D01*
X112585000Y-87884180D01*
X112419818Y-87485397D01*
X112114603Y-87180182D01*
X111715820Y-87015000D01*
X111284180Y-87015000D01*
X110885397Y-87180182D01*
X110580182Y-87485397D01*
X110415000Y-87884180D01*
X109710000Y-87884180D01*
X109710000Y-77264017D01*
X123815000Y-77264017D01*
X123815000Y-77635983D01*
X123957345Y-77979635D01*
X124220365Y-78242655D01*
X124564017Y-78385000D01*
X124935983Y-78385000D01*
X125279635Y-78242655D01*
X125542655Y-77979635D01*
X125685000Y-77635983D01*
X125685000Y-77264017D01*
X125542655Y-76920365D01*
X125491182Y-76868892D01*
X125725257Y-76771935D01*
X125962192Y-76535000D01*
X126085983Y-76535000D01*
X126429635Y-76392655D01*
X126692655Y-76129635D01*
X126835000Y-75785983D01*
X126835000Y-75414017D01*
X126692655Y-75070365D01*
X126429635Y-74807345D01*
X126085983Y-74665000D01*
X125714017Y-74665000D01*
X125370365Y-74807345D01*
X125133430Y-75044280D01*
X125009639Y-75044280D01*
X124665987Y-75186625D01*
X124402967Y-75449645D01*
X124260622Y-75793297D01*
X124260622Y-76165263D01*
X124402967Y-76508915D01*
X124454440Y-76560388D01*
X124220365Y-76657345D01*
X123957345Y-76920365D01*
X123815000Y-77264017D01*
X109710000Y-77264017D01*
X109710000Y-75468286D01*
X119214891Y-75468286D01*
X119214891Y-75840252D01*
X119357236Y-76183904D01*
X119620256Y-76446924D01*
X119963908Y-76589269D01*
X120335874Y-76589269D01*
X120679526Y-76446924D01*
X120942546Y-76183904D01*
X121084891Y-75840252D01*
X121084891Y-75468286D01*
X120942546Y-75124634D01*
X120679526Y-74861614D01*
X120335874Y-74719269D01*
X119963908Y-74719269D01*
X119620256Y-74861614D01*
X119357236Y-75124634D01*
X119214891Y-75468286D01*
X109710000Y-75468286D01*
X109710000Y-72514017D01*
X122365000Y-72514017D01*
X122365000Y-72885983D01*
X122507345Y-73229635D01*
X122770365Y-73492655D01*
X123114017Y-73635000D01*
X123485983Y-73635000D01*
X123829635Y-73492655D01*
X124092655Y-73229635D01*
X124235000Y-72885983D01*
X124235000Y-72673275D01*
X124429635Y-72592655D01*
X124692655Y-72329635D01*
X124835000Y-71985983D01*
X124835000Y-71631854D01*
X124929635Y-71592655D01*
X125192655Y-71329635D01*
X125335000Y-70985983D01*
X125335000Y-70614017D01*
X125192655Y-70270365D01*
X124929635Y-70007345D01*
X124585983Y-69865000D01*
X124214017Y-69865000D01*
X123870365Y-70007345D01*
X123607345Y-70270365D01*
X123465000Y-70614017D01*
X123465000Y-70968146D01*
X123370365Y-71007345D01*
X123107345Y-71270365D01*
X122965000Y-71614017D01*
X122965000Y-71826725D01*
X122770365Y-71907345D01*
X122507345Y-72170365D01*
X122365000Y-72514017D01*
X109710000Y-72514017D01*
X109710000Y-68364017D01*
X120065000Y-68364017D01*
X120065000Y-68735983D01*
X120207345Y-69079635D01*
X120470365Y-69342655D01*
X120814017Y-69485000D01*
X121185983Y-69485000D01*
X121529635Y-69342655D01*
X121792655Y-69079635D01*
X121935000Y-68735983D01*
X121935000Y-68364017D01*
X121914290Y-68314017D01*
X125665000Y-68314017D01*
X125665000Y-68685983D01*
X125807345Y-69029635D01*
X126070365Y-69292655D01*
X126414017Y-69435000D01*
X126785983Y-69435000D01*
X127129635Y-69292655D01*
X127392655Y-69029635D01*
X127535000Y-68685983D01*
X127535000Y-68314017D01*
X127392655Y-67970365D01*
X127129635Y-67707345D01*
X126785983Y-67565000D01*
X126414017Y-67565000D01*
X126070365Y-67707345D01*
X125807345Y-67970365D01*
X125665000Y-68314017D01*
X121914290Y-68314017D01*
X121817563Y-68080498D01*
X122029635Y-67992655D01*
X122292655Y-67729635D01*
X122435000Y-67385983D01*
X122435000Y-67014017D01*
X122292655Y-66670365D01*
X122029635Y-66407345D01*
X121685983Y-66265000D01*
X121314017Y-66265000D01*
X120970365Y-66407345D01*
X120707345Y-66670365D01*
X120565000Y-67014017D01*
X120565000Y-67385983D01*
X120682437Y-67669502D01*
X120470365Y-67757345D01*
X120207345Y-68020365D01*
X120065000Y-68364017D01*
X109710000Y-68364017D01*
X109710000Y-65614017D01*
X119265000Y-65614017D01*
X119265000Y-65985983D01*
X119407345Y-66329635D01*
X119670365Y-66592655D01*
X120014017Y-66735000D01*
X120385983Y-66735000D01*
X120729635Y-66592655D01*
X120992655Y-66329635D01*
X121135000Y-65985983D01*
X121135000Y-65614017D01*
X127465000Y-65614017D01*
X127465000Y-65985983D01*
X127607345Y-66329635D01*
X127870365Y-66592655D01*
X128214017Y-66735000D01*
X128585983Y-66735000D01*
X128929635Y-66592655D01*
X129192655Y-66329635D01*
X129335000Y-65985983D01*
X129335000Y-65614017D01*
X129192655Y-65270365D01*
X128929635Y-65007345D01*
X128585983Y-64865000D01*
X128214017Y-64865000D01*
X127870365Y-65007345D01*
X127607345Y-65270365D01*
X127465000Y-65614017D01*
X121135000Y-65614017D01*
X120992655Y-65270365D01*
X120729635Y-65007345D01*
X120385983Y-64865000D01*
X120014017Y-64865000D01*
X119670365Y-65007345D01*
X119407345Y-65270365D01*
X119265000Y-65614017D01*
X109710000Y-65614017D01*
X109710000Y-58495270D01*
X109992643Y-59177630D01*
X111322370Y-60507357D01*
X113059741Y-61227000D01*
X114940259Y-61227000D01*
X116677630Y-60507357D01*
X118007357Y-59177630D01*
X118727000Y-57440259D01*
X118727000Y-55559741D01*
X118464046Y-54924914D01*
X120815000Y-54924914D01*
X120815000Y-55625086D01*
X121082944Y-56271960D01*
X121578040Y-56767056D01*
X122224914Y-57035000D01*
X122925086Y-57035000D01*
X123571960Y-56767056D01*
X124067056Y-56271960D01*
X124302560Y-55703403D01*
X124302560Y-56400000D01*
X124351843Y-56647765D01*
X124492191Y-56857809D01*
X124702235Y-56998157D01*
X124950000Y-57047440D01*
X127200000Y-57047440D01*
X127447765Y-56998157D01*
X127657809Y-56857809D01*
X127798157Y-56647765D01*
X127847440Y-56400000D01*
X127847440Y-54150000D01*
X127798157Y-53902235D01*
X127657809Y-53692191D01*
X127447765Y-53551843D01*
X127200000Y-53502560D01*
X124950000Y-53502560D01*
X124702235Y-53551843D01*
X124492191Y-53692191D01*
X124351843Y-53902235D01*
X124302560Y-54150000D01*
X124302560Y-54846597D01*
X124067056Y-54278040D01*
X123571960Y-53782944D01*
X122925086Y-53515000D01*
X122224914Y-53515000D01*
X121578040Y-53782944D01*
X121082944Y-54278040D01*
X120815000Y-54924914D01*
X118464046Y-54924914D01*
X118007357Y-53822370D01*
X116677630Y-52492643D01*
X114940259Y-51773000D01*
X113059741Y-51773000D01*
X111322370Y-52492643D01*
X109992643Y-53822370D01*
X109710000Y-54504730D01*
X109710000Y-49710000D01*
X131373000Y-49710000D01*
X131373000Y-70014832D01*
M02*
