G04 #@! TF.GenerationSoftware,KiCad,Pcbnew,(5.0-dev-4115-gdd04bcb)*
G04 #@! TF.CreationDate,2018-03-06T13:39:24-08:00*
G04 #@! TF.ProjectId,Thermocouple Data Logger,546865726D6F636F75706C6520446174,rev?*
G04 #@! TF.SameCoordinates,Original*
G04 #@! TF.FileFunction,Legend,Top*
G04 #@! TF.FilePolarity,Positive*
%FSLAX46Y46*%
G04 Gerber Fmt 4.6, Leading zero omitted, Abs format (unit mm)*
G04 Created by KiCad (PCBNEW (5.0-dev-4115-gdd04bcb)) date Tuesday, March 06, 2018 at 01:39:24 PM*
%MOMM*%
%LPD*%
G01*
G04 APERTURE LIST*
%ADD10C,0.120000*%
%ADD11C,0.150000*%
G04 APERTURE END LIST*
D10*
X125960000Y-112900000D02*
X125960000Y-112350000D01*
X125960000Y-122750000D02*
X125960000Y-123260000D01*
X125960000Y-109290000D02*
X125960000Y-110850000D01*
X125960000Y-123260000D02*
X122350000Y-123260000D01*
X125960000Y-109290000D02*
X111900000Y-109290000D01*
X120650000Y-123260000D02*
X115950000Y-123260000D01*
X114650000Y-123260000D02*
X113550000Y-123260000D01*
X110740000Y-122140000D02*
X110740000Y-114110000D01*
X110740000Y-114110000D02*
X110290000Y-114110000D01*
X109790000Y-111200000D02*
X109790000Y-113600000D01*
X109800000Y-113610000D02*
X110290000Y-114110000D01*
X110740000Y-122140000D02*
X110290000Y-122140000D01*
X116940000Y-102180000D02*
X116940000Y-99900000D01*
X116940000Y-102180000D02*
X119650000Y-102180000D01*
X117190000Y-101925000D02*
X117190000Y-82635000D01*
X117190000Y-82635000D02*
X142440000Y-82635000D01*
X142440000Y-82635000D02*
X142440000Y-101925000D01*
X142440000Y-101925000D02*
X117190000Y-101925000D01*
D11*
X139800000Y-106725000D02*
X139800000Y-112700000D01*
X134275000Y-108300000D02*
X134275000Y-112700000D01*
X138781250Y-125056250D02*
X138781250Y-124281250D01*
X146031250Y-117806250D02*
X146031250Y-118581250D01*
X138781250Y-117806250D02*
X138781250Y-118581250D01*
X146031250Y-125056250D02*
X145256250Y-125056250D01*
X146031250Y-117806250D02*
X145256250Y-117806250D01*
X138781250Y-117806250D02*
X139556250Y-117806250D01*
X138781250Y-125056250D02*
X139556250Y-125056250D01*
D10*
X137610000Y-121540000D02*
X137110000Y-121540000D01*
X137110000Y-122480000D02*
X137610000Y-122480000D01*
X133430000Y-118700000D02*
X133430000Y-119200000D01*
X134370000Y-119200000D02*
X134370000Y-118700000D01*
X129030000Y-118700000D02*
X129030000Y-119200000D01*
X129970000Y-119200000D02*
X129970000Y-118700000D01*
X149925000Y-121905000D02*
X149425000Y-121905000D01*
X149425000Y-122845000D02*
X149925000Y-122845000D01*
X153000000Y-117695000D02*
X153500000Y-117695000D01*
X153500000Y-116755000D02*
X153000000Y-116755000D01*
X121775000Y-65305000D02*
X121275000Y-65305000D01*
X121275000Y-66245000D02*
X121775000Y-66245000D01*
X126875000Y-66245000D02*
X127375000Y-66245000D01*
X127375000Y-65305000D02*
X126875000Y-65305000D01*
X136775000Y-65305000D02*
X136275000Y-65305000D01*
X136275000Y-66245000D02*
X136775000Y-66245000D01*
X141875000Y-66245000D02*
X142375000Y-66245000D01*
X142375000Y-65305000D02*
X141875000Y-65305000D01*
X151775000Y-65305000D02*
X151275000Y-65305000D01*
X151275000Y-66245000D02*
X151775000Y-66245000D01*
X156875000Y-66245000D02*
X157375000Y-66245000D01*
X157375000Y-65305000D02*
X156875000Y-65305000D01*
X166275000Y-66245000D02*
X166775000Y-66245000D01*
X166775000Y-65305000D02*
X166275000Y-65305000D01*
X172375000Y-65305000D02*
X171875000Y-65305000D01*
X171875000Y-66245000D02*
X172375000Y-66245000D01*
X175100000Y-114430000D02*
X174600000Y-114430000D01*
X174600000Y-115370000D02*
X175100000Y-115370000D01*
X179200000Y-104970000D02*
X177200000Y-104970000D01*
X177200000Y-107930000D02*
X179200000Y-107930000D01*
X170090000Y-110090000D02*
X170090000Y-112090000D01*
X172130000Y-112090000D02*
X172130000Y-110090000D01*
X158700000Y-122000000D02*
X160800000Y-122000000D01*
X158700000Y-123000000D02*
X160800000Y-123000000D01*
X158700000Y-122000000D02*
X158700000Y-123000000D01*
X158700000Y-117000000D02*
X158700000Y-118000000D01*
X158700000Y-118000000D02*
X160800000Y-118000000D01*
X158700000Y-117000000D02*
X160800000Y-117000000D01*
X173200000Y-89500000D02*
X175300000Y-89500000D01*
X173200000Y-90500000D02*
X175300000Y-90500000D01*
X173200000Y-89500000D02*
X173200000Y-90500000D01*
X173200000Y-93500000D02*
X173200000Y-94500000D01*
X173200000Y-94500000D02*
X175300000Y-94500000D01*
X173200000Y-93500000D02*
X175300000Y-93500000D01*
X173200000Y-97500000D02*
X175300000Y-97500000D01*
X173200000Y-98500000D02*
X175300000Y-98500000D01*
X173200000Y-97500000D02*
X173200000Y-98500000D01*
X173200000Y-101500000D02*
X173200000Y-102500000D01*
X173200000Y-102500000D02*
X175300000Y-102500000D01*
X173200000Y-101500000D02*
X175300000Y-101500000D01*
X180200000Y-93500000D02*
X182300000Y-93500000D01*
X180200000Y-94500000D02*
X182300000Y-94500000D01*
X180200000Y-93500000D02*
X180200000Y-94500000D01*
X180200000Y-97500000D02*
X180200000Y-98500000D01*
X180200000Y-98500000D02*
X182300000Y-98500000D01*
X180200000Y-97500000D02*
X182300000Y-97500000D01*
X180200000Y-101500000D02*
X182300000Y-101500000D01*
X180200000Y-102500000D02*
X182300000Y-102500000D01*
X180200000Y-101500000D02*
X180200000Y-102500000D01*
X144501461Y-131678780D02*
X146201461Y-131678780D01*
X146201461Y-131678780D02*
X146201461Y-129128780D01*
X144501461Y-131678780D02*
X144501461Y-129128780D01*
X149091461Y-128638780D02*
X149091461Y-131188780D01*
X147391461Y-128638780D02*
X147391461Y-131188780D01*
X149091461Y-128638780D02*
X147391461Y-128638780D01*
X152900000Y-126250000D02*
X152900000Y-128800000D01*
X151200000Y-126250000D02*
X151200000Y-128800000D01*
X152900000Y-126250000D02*
X151200000Y-126250000D01*
X176900000Y-75425000D02*
X174000000Y-75425000D01*
X183100000Y-75975000D02*
X183100000Y-71325000D01*
X176900000Y-70600000D02*
X176900000Y-71875000D01*
X175300000Y-70600000D02*
X176900000Y-70600000D01*
X175300000Y-69600000D02*
X175300000Y-70600000D01*
X179525000Y-69600000D02*
X175300000Y-69600000D01*
X175300000Y-77700000D02*
X179525000Y-77700000D01*
X175300000Y-76700000D02*
X175300000Y-77700000D01*
X176900000Y-76700000D02*
X175300000Y-76700000D01*
X176900000Y-75425000D02*
X176900000Y-76700000D01*
D11*
X128825000Y-62575000D02*
X128825000Y-50575000D01*
X120825000Y-50575000D02*
X120825000Y-62575000D01*
X124325000Y-62575000D02*
X124325000Y-50575000D01*
X127825000Y-50575000D02*
X127825000Y-62575000D01*
X120825000Y-50575000D02*
X128825000Y-50575000D01*
X128825000Y-62575000D02*
X120825000Y-62575000D01*
X143825000Y-62525000D02*
X135825000Y-62525000D01*
X135825000Y-50525000D02*
X143825000Y-50525000D01*
X142825000Y-50525000D02*
X142825000Y-62525000D01*
X139325000Y-62525000D02*
X139325000Y-50525000D01*
X135825000Y-50525000D02*
X135825000Y-62525000D01*
X143825000Y-62525000D02*
X143825000Y-50525000D01*
X158825000Y-62575000D02*
X150825000Y-62575000D01*
X150825000Y-50575000D02*
X158825000Y-50575000D01*
X157825000Y-50575000D02*
X157825000Y-62575000D01*
X154325000Y-62575000D02*
X154325000Y-50575000D01*
X150825000Y-50575000D02*
X150825000Y-62575000D01*
X158825000Y-62575000D02*
X158825000Y-50575000D01*
X173825000Y-62575000D02*
X173825000Y-50575000D01*
X165825000Y-50575000D02*
X165825000Y-62575000D01*
X169325000Y-62575000D02*
X169325000Y-50575000D01*
X172825000Y-50575000D02*
X172825000Y-62575000D01*
X165825000Y-50575000D02*
X173825000Y-50575000D01*
X173825000Y-62575000D02*
X165825000Y-62575000D01*
D10*
X130330000Y-127670000D02*
X130330000Y-129000000D01*
X129000000Y-127670000D02*
X130330000Y-127670000D01*
X130330000Y-130270000D02*
X130330000Y-132870000D01*
X127730000Y-130270000D02*
X130330000Y-130270000D01*
X127730000Y-127670000D02*
X127730000Y-130270000D01*
X130330000Y-132870000D02*
X122590000Y-132870000D01*
X127730000Y-127670000D02*
X122590000Y-127670000D01*
X122590000Y-127670000D02*
X122590000Y-132870000D01*
X123075000Y-64080000D02*
X122075000Y-64080000D01*
X122075000Y-62720000D02*
X123075000Y-62720000D01*
X126575000Y-64080000D02*
X125575000Y-64080000D01*
X125575000Y-62720000D02*
X126575000Y-62720000D01*
X138075000Y-64030000D02*
X137075000Y-64030000D01*
X137075000Y-62670000D02*
X138075000Y-62670000D01*
X141575000Y-64030000D02*
X140575000Y-64030000D01*
X140575000Y-62670000D02*
X141575000Y-62670000D01*
X153075000Y-64080000D02*
X152075000Y-64080000D01*
X152075000Y-62720000D02*
X153075000Y-62720000D01*
X156575000Y-64080000D02*
X155575000Y-64080000D01*
X155575000Y-62720000D02*
X156575000Y-62720000D01*
X167075000Y-62720000D02*
X168075000Y-62720000D01*
X168075000Y-64080000D02*
X167075000Y-64080000D01*
X170575000Y-62720000D02*
X171575000Y-62720000D01*
X171575000Y-64080000D02*
X170575000Y-64080000D01*
X157600000Y-123380000D02*
X156400000Y-123380000D01*
X156400000Y-121620000D02*
X157600000Y-121620000D01*
X152097056Y-132817056D02*
X150897056Y-132817056D01*
X150897056Y-131057056D02*
X152097056Y-131057056D01*
X157600000Y-118380000D02*
X156400000Y-118380000D01*
X156400000Y-116620000D02*
X157600000Y-116620000D01*
X125620000Y-80400000D02*
X125620000Y-81600000D01*
X123860000Y-81600000D02*
X123860000Y-80400000D01*
X126395000Y-81600000D02*
X126395000Y-80400000D01*
X128155000Y-80400000D02*
X128155000Y-81600000D01*
X125610000Y-102960000D02*
X125610000Y-104160000D01*
X123850000Y-104160000D02*
X123850000Y-102960000D01*
X123070000Y-102960000D02*
X123070000Y-104160000D01*
X121310000Y-104160000D02*
X121310000Y-102960000D01*
X120530000Y-102960000D02*
X120530000Y-104160000D01*
X118770000Y-104160000D02*
X118770000Y-102960000D01*
X120530000Y-80400000D02*
X120530000Y-81600000D01*
X118770000Y-81600000D02*
X118770000Y-80400000D01*
X123070000Y-80400000D02*
X123070000Y-81600000D01*
X121310000Y-81600000D02*
X121310000Y-80400000D01*
X126390000Y-104160000D02*
X126390000Y-102960000D01*
X128150000Y-102960000D02*
X128150000Y-104160000D01*
X136540000Y-81600000D02*
X136540000Y-80400000D01*
X138300000Y-80400000D02*
X138300000Y-81600000D01*
X140850000Y-80400000D02*
X140850000Y-81600000D01*
X139090000Y-81600000D02*
X139090000Y-80400000D01*
X138300000Y-102960000D02*
X138300000Y-104160000D01*
X136540000Y-104160000D02*
X136540000Y-102960000D01*
X133230000Y-102960000D02*
X133230000Y-104160000D01*
X131470000Y-104160000D02*
X131470000Y-102960000D01*
X128930000Y-104160000D02*
X128930000Y-102960000D01*
X130690000Y-102960000D02*
X130690000Y-104160000D01*
X134010000Y-81600000D02*
X134010000Y-80400000D01*
X135770000Y-80400000D02*
X135770000Y-81600000D01*
X135770000Y-102960000D02*
X135770000Y-104160000D01*
X134010000Y-104160000D02*
X134010000Y-102960000D01*
X139090000Y-104160000D02*
X139090000Y-102960000D01*
X140850000Y-102960000D02*
X140850000Y-104160000D01*
X149100000Y-81600000D02*
X149100000Y-80400000D01*
X150860000Y-80400000D02*
X150860000Y-81600000D01*
X153390000Y-80400000D02*
X153390000Y-81600000D01*
X151630000Y-81600000D02*
X151630000Y-80400000D01*
X150850000Y-102960000D02*
X150850000Y-104160000D01*
X149090000Y-104160000D02*
X149090000Y-102960000D01*
X146560000Y-104160000D02*
X146560000Y-102960000D01*
X148320000Y-102960000D02*
X148320000Y-104160000D01*
X145780000Y-102960000D02*
X145780000Y-104160000D01*
X144020000Y-104160000D02*
X144020000Y-102960000D01*
X145780000Y-80400000D02*
X145780000Y-81600000D01*
X144020000Y-81600000D02*
X144020000Y-80400000D01*
X146570000Y-81600000D02*
X146570000Y-80400000D01*
X148330000Y-80400000D02*
X148330000Y-81600000D01*
X151645000Y-104160000D02*
X151645000Y-102960000D01*
X153405000Y-102960000D02*
X153405000Y-104160000D01*
X163560000Y-80400000D02*
X163560000Y-81600000D01*
X161800000Y-81600000D02*
X161800000Y-80400000D01*
X166100000Y-80400000D02*
X166100000Y-81600000D01*
X164340000Y-81600000D02*
X164340000Y-80400000D01*
X163560000Y-102950000D02*
X163560000Y-104150000D01*
X161800000Y-104150000D02*
X161800000Y-102950000D01*
X156720000Y-104160000D02*
X156720000Y-102960000D01*
X158480000Y-102960000D02*
X158480000Y-104160000D01*
X155940000Y-102960000D02*
X155940000Y-104160000D01*
X154180000Y-104160000D02*
X154180000Y-102960000D01*
X161020000Y-80400000D02*
X161020000Y-81600000D01*
X159260000Y-81600000D02*
X159260000Y-80400000D01*
X161030000Y-102960000D02*
X161030000Y-104160000D01*
X159270000Y-104160000D02*
X159270000Y-102960000D01*
X166100000Y-102960000D02*
X166100000Y-104160000D01*
X164340000Y-104160000D02*
X164340000Y-102960000D01*
X172150000Y-90880000D02*
X170950000Y-90880000D01*
X170950000Y-89120000D02*
X172150000Y-89120000D01*
X170950000Y-93120000D02*
X172150000Y-93120000D01*
X172150000Y-94880000D02*
X170950000Y-94880000D01*
X172050000Y-98880000D02*
X170850000Y-98880000D01*
X170850000Y-97120000D02*
X172050000Y-97120000D01*
X170950000Y-101120000D02*
X172150000Y-101120000D01*
X172150000Y-102880000D02*
X170950000Y-102880000D01*
X179150000Y-94880000D02*
X177950000Y-94880000D01*
X177950000Y-93120000D02*
X179150000Y-93120000D01*
X177850000Y-97120000D02*
X179050000Y-97120000D01*
X179050000Y-98880000D02*
X177850000Y-98880000D01*
X179150000Y-102880000D02*
X177950000Y-102880000D01*
X177950000Y-101120000D02*
X179150000Y-101120000D01*
X164650000Y-126970000D02*
X164150000Y-126970000D01*
X164150000Y-128030000D02*
X164650000Y-128030000D01*
X163750000Y-118630000D02*
X164250000Y-118630000D01*
X164250000Y-117570000D02*
X163750000Y-117570000D01*
X159750000Y-121530000D02*
X160250000Y-121530000D01*
X160250000Y-120470000D02*
X159750000Y-120470000D01*
X150750000Y-130530000D02*
X151250000Y-130530000D01*
X151250000Y-129470000D02*
X150750000Y-129470000D01*
X136750000Y-115780000D02*
X137250000Y-115780000D01*
X137250000Y-114720000D02*
X136750000Y-114720000D01*
X163470000Y-128700000D02*
X163470000Y-129200000D01*
X164530000Y-129200000D02*
X164530000Y-128700000D01*
X163330000Y-119800000D02*
X163330000Y-119300000D01*
X162270000Y-119300000D02*
X162270000Y-119800000D01*
X136275000Y-77580000D02*
X136775000Y-77580000D01*
X136775000Y-76520000D02*
X136275000Y-76520000D01*
X151750000Y-76520000D02*
X151250000Y-76520000D01*
X151250000Y-77580000D02*
X151750000Y-77580000D01*
X166250000Y-77580000D02*
X166750000Y-77580000D01*
X166750000Y-76520000D02*
X166250000Y-76520000D01*
X185300000Y-84900000D02*
X185300000Y-84900000D01*
X185300000Y-84100000D02*
X185300000Y-84900000D01*
X185300000Y-83800000D02*
X185300000Y-83800000D01*
X185300000Y-83300000D02*
X185300000Y-83800000D01*
X185300000Y-85200000D02*
X185300000Y-85200000D01*
X185300000Y-85700000D02*
X185300000Y-85200000D01*
X184000000Y-86500000D02*
X184000000Y-86500000D01*
X184500000Y-86500000D02*
X184000000Y-86500000D01*
X184000000Y-82500000D02*
X184000000Y-82500000D01*
X184500000Y-82500000D02*
X184000000Y-82500000D01*
X184800000Y-82500000D02*
X184800000Y-82500000D01*
X185300000Y-82500000D02*
X184800000Y-82500000D01*
X185300000Y-83000000D02*
X185300000Y-83000000D01*
X185300000Y-82500000D02*
X185300000Y-83000000D01*
X185300000Y-86000000D02*
X185300000Y-86000000D01*
X185300000Y-86500000D02*
X185300000Y-86000000D01*
X184800000Y-86500000D02*
X184800000Y-86500000D01*
X185300000Y-86500000D02*
X184800000Y-86500000D01*
X183400000Y-89100000D02*
X183400000Y-89100000D01*
X183400000Y-87400000D02*
X183400000Y-89100000D01*
X183700000Y-87400000D02*
X183400000Y-87400000D01*
X183700000Y-86600000D02*
X183700000Y-87400000D01*
X183400000Y-86600000D02*
X183700000Y-86600000D01*
X183400000Y-84900000D02*
X183400000Y-86600000D01*
X183700000Y-84900000D02*
X183400000Y-84900000D01*
X183700000Y-84100000D02*
X183700000Y-84900000D01*
X183400000Y-84100000D02*
X183700000Y-84100000D01*
X183400000Y-82400000D02*
X183400000Y-84100000D01*
X183700000Y-82400000D02*
X183400000Y-82400000D01*
X183700000Y-81600000D02*
X183700000Y-82400000D01*
X183400000Y-81600000D02*
X183700000Y-81600000D01*
X183400000Y-79900000D02*
X183400000Y-81600000D01*
X179600000Y-86300000D02*
X179600000Y-86300000D01*
X179600000Y-85200000D02*
X179600000Y-86300000D01*
X179600000Y-83800000D02*
X179600000Y-83800000D01*
X179600000Y-82700000D02*
X179600000Y-83800000D01*
X179600000Y-89100000D02*
X179600000Y-87700000D01*
X183400000Y-89100000D02*
X179600000Y-89100000D01*
X179600000Y-79900000D02*
X183400000Y-79900000D01*
X179600000Y-81300000D02*
X179600000Y-79900000D01*
X113400000Y-94700000D02*
X113400000Y-96100000D01*
X113400000Y-96100000D02*
X109600000Y-96100000D01*
X109600000Y-86900000D02*
X113400000Y-86900000D01*
X113400000Y-86900000D02*
X113400000Y-88300000D01*
X113400000Y-93300000D02*
X113400000Y-92200000D01*
X113400000Y-92200000D02*
X113400000Y-92200000D01*
X113400000Y-90800000D02*
X113400000Y-89700000D01*
X113400000Y-89700000D02*
X113400000Y-89700000D01*
X109600000Y-96100000D02*
X109600000Y-94400000D01*
X109600000Y-94400000D02*
X109300000Y-94400000D01*
X109300000Y-94400000D02*
X109300000Y-93600000D01*
X109300000Y-93600000D02*
X109600000Y-93600000D01*
X109600000Y-93600000D02*
X109600000Y-91900000D01*
X109600000Y-91900000D02*
X109300000Y-91900000D01*
X109300000Y-91900000D02*
X109300000Y-91100000D01*
X109300000Y-91100000D02*
X109600000Y-91100000D01*
X109600000Y-91100000D02*
X109600000Y-89400000D01*
X109600000Y-89400000D02*
X109300000Y-89400000D01*
X109300000Y-89400000D02*
X109300000Y-88600000D01*
X109300000Y-88600000D02*
X109600000Y-88600000D01*
X109600000Y-88600000D02*
X109600000Y-86900000D01*
X109600000Y-86900000D02*
X109600000Y-86900000D01*
X107700000Y-89500000D02*
X108200000Y-89500000D01*
X108200000Y-89500000D02*
X108200000Y-89500000D01*
X107700000Y-89500000D02*
X107700000Y-90000000D01*
X107700000Y-90000000D02*
X107700000Y-90000000D01*
X107700000Y-93500000D02*
X107700000Y-93000000D01*
X107700000Y-93000000D02*
X107700000Y-93000000D01*
X107700000Y-93500000D02*
X108200000Y-93500000D01*
X108200000Y-93500000D02*
X108200000Y-93500000D01*
X108500000Y-93500000D02*
X109000000Y-93500000D01*
X109000000Y-93500000D02*
X109000000Y-93500000D01*
X108500000Y-89500000D02*
X109000000Y-89500000D01*
X109000000Y-89500000D02*
X109000000Y-89500000D01*
X107700000Y-90300000D02*
X107700000Y-90800000D01*
X107700000Y-90800000D02*
X107700000Y-90800000D01*
X107700000Y-92700000D02*
X107700000Y-92200000D01*
X107700000Y-92200000D02*
X107700000Y-92200000D01*
X107700000Y-91900000D02*
X107700000Y-91100000D01*
X107700000Y-91100000D02*
X107700000Y-91100000D01*
X154967056Y-132927056D02*
X161427056Y-132927056D01*
X154967056Y-128397056D02*
X154967056Y-130997056D01*
X154967056Y-126467056D02*
X161427056Y-126467056D01*
X161427056Y-128397056D02*
X161427056Y-130997056D01*
X154967056Y-126497056D02*
X154967056Y-126467056D01*
X154967056Y-132927056D02*
X154967056Y-132897056D01*
X161427056Y-132927056D02*
X161427056Y-132897056D01*
X161427056Y-126467056D02*
X161427056Y-126497056D01*
X173210000Y-126520000D02*
X173210000Y-126550000D01*
X173210000Y-132980000D02*
X173210000Y-132950000D01*
X166750000Y-132980000D02*
X166750000Y-132950000D01*
X166750000Y-126550000D02*
X166750000Y-126520000D01*
X173210000Y-128450000D02*
X173210000Y-131050000D01*
X166750000Y-126520000D02*
X173210000Y-126520000D01*
X166750000Y-128450000D02*
X166750000Y-131050000D01*
X166750000Y-132980000D02*
X173210000Y-132980000D01*
X166750000Y-123480000D02*
X173210000Y-123480000D01*
X166750000Y-118950000D02*
X166750000Y-121550000D01*
X166750000Y-117020000D02*
X173210000Y-117020000D01*
X173210000Y-118950000D02*
X173210000Y-121550000D01*
X166750000Y-117050000D02*
X166750000Y-117020000D01*
X166750000Y-123480000D02*
X166750000Y-123450000D01*
X173210000Y-123480000D02*
X173210000Y-123450000D01*
X173210000Y-117020000D02*
X173210000Y-117050000D01*
X175735000Y-85200000D02*
X175735000Y-79800000D01*
X169265000Y-85840000D02*
X169265000Y-79800000D01*
D11*
X174925000Y-108975000D02*
X173525000Y-108975000D01*
X174925000Y-114075000D02*
X179075000Y-114075000D01*
X174925000Y-108925000D02*
X179075000Y-108925000D01*
X174925000Y-114075000D02*
X174925000Y-113930000D01*
X179075000Y-114075000D02*
X179075000Y-113930000D01*
X179075000Y-108925000D02*
X179075000Y-109070000D01*
X174925000Y-108925000D02*
X174925000Y-108975000D01*
X126625000Y-69175000D02*
X126500000Y-69175000D01*
X126625000Y-73825000D02*
X126400000Y-73825000D01*
X121375000Y-73825000D02*
X121600000Y-73825000D01*
X121375000Y-69175000D02*
X121600000Y-69175000D01*
X126625000Y-69175000D02*
X126625000Y-73825000D01*
X121375000Y-69175000D02*
X121375000Y-73825000D01*
X126500000Y-69175000D02*
X126500000Y-67825000D01*
X141625000Y-69175000D02*
X141500000Y-69175000D01*
X141625000Y-73825000D02*
X141400000Y-73825000D01*
X136375000Y-73825000D02*
X136600000Y-73825000D01*
X136375000Y-69175000D02*
X136600000Y-69175000D01*
X141625000Y-69175000D02*
X141625000Y-73825000D01*
X136375000Y-69175000D02*
X136375000Y-73825000D01*
X141500000Y-69175000D02*
X141500000Y-67825000D01*
X156500000Y-69175000D02*
X156500000Y-67825000D01*
X151375000Y-69175000D02*
X151375000Y-73825000D01*
X156625000Y-69175000D02*
X156625000Y-73825000D01*
X151375000Y-69175000D02*
X151600000Y-69175000D01*
X151375000Y-73825000D02*
X151600000Y-73825000D01*
X156625000Y-73825000D02*
X156400000Y-73825000D01*
X156625000Y-69175000D02*
X156500000Y-69175000D01*
X171500000Y-69175000D02*
X171500000Y-67825000D01*
X166375000Y-69175000D02*
X166375000Y-73825000D01*
X171625000Y-69175000D02*
X171625000Y-73825000D01*
X166375000Y-69175000D02*
X166600000Y-69175000D01*
X166375000Y-73825000D02*
X166600000Y-73825000D01*
X171625000Y-73825000D02*
X171400000Y-73825000D01*
X171625000Y-69175000D02*
X171500000Y-69175000D01*
X146800000Y-106725000D02*
X146800000Y-112700000D01*
X141275000Y-108300000D02*
X141275000Y-112700000D01*
X148275000Y-108300000D02*
X148275000Y-112700000D01*
X153800000Y-106725000D02*
X153800000Y-112700000D01*
X155275000Y-108300000D02*
X155275000Y-112700000D01*
X160800000Y-106725000D02*
X160800000Y-112700000D01*
X167800000Y-106725000D02*
X167800000Y-112700000D01*
X162275000Y-108300000D02*
X162275000Y-112700000D01*
D10*
X142190000Y-102180000D02*
X142190000Y-99900000D01*
X142190000Y-102180000D02*
X144900000Y-102180000D01*
X142440000Y-101925000D02*
X142440000Y-82635000D01*
X142440000Y-82635000D02*
X167690000Y-82635000D01*
X167690000Y-82635000D02*
X167690000Y-101925000D01*
X167690000Y-101925000D02*
X142440000Y-101925000D01*
D11*
X137800000Y-133225000D02*
X142200000Y-133225000D01*
X136225000Y-127700000D02*
X142200000Y-127700000D01*
D10*
X151075000Y-121825000D02*
X151075000Y-122065000D01*
X152875000Y-121825000D02*
X151075000Y-121825000D01*
X151075000Y-118225000D02*
X152875000Y-118225000D01*
X154675000Y-119625000D02*
X154675000Y-120425000D01*
X149275000Y-120425000D02*
X149275000Y-119625000D01*
X148875000Y-120425000D02*
X149275000Y-120425000D01*
X130800000Y-118600000D02*
X130800000Y-118800000D01*
X131400000Y-117700000D02*
X130800000Y-118600000D01*
X132700000Y-118600000D02*
X132700000Y-118800000D01*
X132100000Y-117700000D02*
X132700000Y-118600000D01*
X130550000Y-117700000D02*
X132950000Y-117700000D01*
X130550000Y-111300000D02*
X130550000Y-117700000D01*
X132950000Y-111300000D02*
X130550000Y-111300000D01*
X132950000Y-117700000D02*
X132950000Y-111300000D01*
X123825000Y-66625000D02*
X124825000Y-66625000D01*
X124825000Y-64925000D02*
X123825000Y-64925000D01*
X139825000Y-64925000D02*
X138825000Y-64925000D01*
X138825000Y-66625000D02*
X139825000Y-66625000D01*
X153825000Y-66625000D02*
X154825000Y-66625000D01*
X154825000Y-64925000D02*
X153825000Y-64925000D01*
X168825000Y-66625000D02*
X169825000Y-66625000D01*
X169825000Y-64925000D02*
X168825000Y-64925000D01*
X151020000Y-128500000D02*
X151020000Y-128000000D01*
X150080000Y-128000000D02*
X150080000Y-128500000D01*
X164920000Y-131700000D02*
X164920000Y-131200000D01*
X163980000Y-131200000D02*
X163980000Y-131700000D01*
X163530000Y-119800000D02*
X163530000Y-120300000D01*
X164470000Y-120300000D02*
X164470000Y-119800000D01*
X142370000Y-126725000D02*
X142370000Y-126225000D01*
X141430000Y-126225000D02*
X141430000Y-126725000D01*
X141930000Y-116150000D02*
X141930000Y-116650000D01*
X142870000Y-116650000D02*
X142870000Y-116150000D01*
X147700000Y-121455000D02*
X147200000Y-121455000D01*
X147200000Y-122395000D02*
X147700000Y-122395000D01*
X137100000Y-121320000D02*
X137600000Y-121320000D01*
X137600000Y-120380000D02*
X137100000Y-120380000D01*
X122550000Y-67670000D02*
X123050000Y-67670000D01*
X123050000Y-66730000D02*
X122550000Y-66730000D01*
X121750000Y-75330000D02*
X121250000Y-75330000D01*
X121250000Y-76270000D02*
X121750000Y-76270000D01*
X138050000Y-66730000D02*
X137550000Y-66730000D01*
X137550000Y-67670000D02*
X138050000Y-67670000D01*
X136275000Y-76270000D02*
X136775000Y-76270000D01*
X136775000Y-75330000D02*
X136275000Y-75330000D01*
X152550000Y-67670000D02*
X153050000Y-67670000D01*
X153050000Y-66730000D02*
X152550000Y-66730000D01*
X151750000Y-75330000D02*
X151250000Y-75330000D01*
X151250000Y-76270000D02*
X151750000Y-76270000D01*
X167550000Y-67670000D02*
X168050000Y-67670000D01*
X168050000Y-66730000D02*
X167550000Y-66730000D01*
X166750000Y-75330000D02*
X166250000Y-75330000D01*
X166250000Y-76270000D02*
X166750000Y-76270000D01*
X136500000Y-126430000D02*
X136000000Y-126430000D01*
X136000000Y-127370000D02*
X136500000Y-127370000D01*
X128200000Y-116330000D02*
X127700000Y-116330000D01*
X127700000Y-117270000D02*
X128200000Y-117270000D01*
X139575000Y-115370000D02*
X140075000Y-115370000D01*
X140075000Y-114430000D02*
X139575000Y-114430000D01*
X146575000Y-115370000D02*
X147075000Y-115370000D01*
X147075000Y-114430000D02*
X146575000Y-114430000D01*
X153575000Y-115370000D02*
X154075000Y-115370000D01*
X154075000Y-114430000D02*
X153575000Y-114430000D01*
X161075000Y-114430000D02*
X160575000Y-114430000D01*
X160575000Y-115370000D02*
X161075000Y-115370000D01*
X168075000Y-114430000D02*
X167575000Y-114430000D01*
X167575000Y-115370000D02*
X168075000Y-115370000D01*
D11*
X127052380Y-117033333D02*
X127766666Y-117033333D01*
X127909523Y-117080952D01*
X128004761Y-117176190D01*
X128052380Y-117319047D01*
X128052380Y-117414285D01*
X128052380Y-116033333D02*
X128052380Y-116604761D01*
X128052380Y-116319047D02*
X127052380Y-116319047D01*
X127195238Y-116414285D01*
X127290476Y-116509523D01*
X127338095Y-116604761D01*
X115552380Y-100908095D02*
X116361904Y-100908095D01*
X116457142Y-100860476D01*
X116504761Y-100812857D01*
X116552380Y-100717619D01*
X116552380Y-100527142D01*
X116504761Y-100431904D01*
X116457142Y-100384285D01*
X116361904Y-100336666D01*
X115552380Y-100336666D01*
X116552380Y-99336666D02*
X116552380Y-99908095D01*
X116552380Y-99622380D02*
X115552380Y-99622380D01*
X115695238Y-99717619D01*
X115790476Y-99812857D01*
X115838095Y-99908095D01*
X116552380Y-98384285D02*
X116552380Y-98955714D01*
X116552380Y-98670000D02*
X115552380Y-98670000D01*
X115695238Y-98765238D01*
X115790476Y-98860476D01*
X115838095Y-98955714D01*
X140002380Y-111261904D02*
X140811904Y-111261904D01*
X140907142Y-111214285D01*
X140954761Y-111166666D01*
X141002380Y-111071428D01*
X141002380Y-110880952D01*
X140954761Y-110785714D01*
X140907142Y-110738095D01*
X140811904Y-110690476D01*
X140002380Y-110690476D01*
X140002380Y-109785714D02*
X140002380Y-109976190D01*
X140050000Y-110071428D01*
X140097619Y-110119047D01*
X140240476Y-110214285D01*
X140430952Y-110261904D01*
X140811904Y-110261904D01*
X140907142Y-110214285D01*
X140954761Y-110166666D01*
X141002380Y-110071428D01*
X141002380Y-109880952D01*
X140954761Y-109785714D01*
X140907142Y-109738095D01*
X140811904Y-109690476D01*
X140573809Y-109690476D01*
X140478571Y-109738095D01*
X140430952Y-109785714D01*
X140383333Y-109880952D01*
X140383333Y-110071428D01*
X140430952Y-110166666D01*
X140478571Y-110214285D01*
X140573809Y-110261904D01*
X141644345Y-125633630D02*
X141644345Y-126443154D01*
X141691964Y-126538392D01*
X141739583Y-126586011D01*
X141834821Y-126633630D01*
X142025297Y-126633630D01*
X142120535Y-126586011D01*
X142168154Y-126538392D01*
X142215773Y-126443154D01*
X142215773Y-125633630D01*
X142882440Y-125633630D02*
X142977678Y-125633630D01*
X143072916Y-125681250D01*
X143120535Y-125728869D01*
X143168154Y-125824107D01*
X143215773Y-126014583D01*
X143215773Y-126252678D01*
X143168154Y-126443154D01*
X143120535Y-126538392D01*
X143072916Y-126586011D01*
X142977678Y-126633630D01*
X142882440Y-126633630D01*
X142787202Y-126586011D01*
X142739583Y-126538392D01*
X142691964Y-126443154D01*
X142644345Y-126252678D01*
X142644345Y-126014583D01*
X142691964Y-125824107D01*
X142739583Y-125728869D01*
X142787202Y-125681250D01*
X142882440Y-125633630D01*
X136717142Y-123637142D02*
X136669523Y-123684761D01*
X136526666Y-123732380D01*
X136431428Y-123732380D01*
X136288571Y-123684761D01*
X136193333Y-123589523D01*
X136145714Y-123494285D01*
X136098095Y-123303809D01*
X136098095Y-123160952D01*
X136145714Y-122970476D01*
X136193333Y-122875238D01*
X136288571Y-122780000D01*
X136431428Y-122732380D01*
X136526666Y-122732380D01*
X136669523Y-122780000D01*
X136717142Y-122827619D01*
X137669523Y-123732380D02*
X137098095Y-123732380D01*
X137383809Y-123732380D02*
X137383809Y-122732380D01*
X137288571Y-122875238D01*
X137193333Y-122970476D01*
X137098095Y-123018095D01*
X138002857Y-122732380D02*
X138669523Y-122732380D01*
X138240952Y-123732380D01*
X116066666Y-65652380D02*
X115733333Y-65176190D01*
X115495238Y-65652380D02*
X115495238Y-64652380D01*
X115876190Y-64652380D01*
X115971428Y-64700000D01*
X116019047Y-64747619D01*
X116066666Y-64842857D01*
X116066666Y-64985714D01*
X116019047Y-65080952D01*
X115971428Y-65128571D01*
X115876190Y-65176190D01*
X115495238Y-65176190D01*
X116495238Y-65128571D02*
X116828571Y-65128571D01*
X116971428Y-65652380D02*
X116495238Y-65652380D01*
X116495238Y-64652380D01*
X116971428Y-64652380D01*
X117733333Y-65128571D02*
X117400000Y-65128571D01*
X117400000Y-65652380D02*
X117400000Y-64652380D01*
X117876190Y-64652380D01*
X118400000Y-64652380D02*
X118400000Y-64890476D01*
X118161904Y-64795238D02*
X118400000Y-64890476D01*
X118638095Y-64795238D01*
X118257142Y-65080952D02*
X118400000Y-64890476D01*
X118542857Y-65080952D01*
X119161904Y-64652380D02*
X119161904Y-64890476D01*
X118923809Y-64795238D02*
X119161904Y-64890476D01*
X119400000Y-64795238D01*
X119019047Y-65080952D02*
X119161904Y-64890476D01*
X119304761Y-65080952D01*
X132987142Y-119116666D02*
X133034761Y-119164285D01*
X133082380Y-119307142D01*
X133082380Y-119402380D01*
X133034761Y-119545238D01*
X132939523Y-119640476D01*
X132844285Y-119688095D01*
X132653809Y-119735714D01*
X132510952Y-119735714D01*
X132320476Y-119688095D01*
X132225238Y-119640476D01*
X132130000Y-119545238D01*
X132082380Y-119402380D01*
X132082380Y-119307142D01*
X132130000Y-119164285D01*
X132177619Y-119116666D01*
X132082380Y-118497619D02*
X132082380Y-118402380D01*
X132130000Y-118307142D01*
X132177619Y-118259523D01*
X132272857Y-118211904D01*
X132463333Y-118164285D01*
X132701428Y-118164285D01*
X132891904Y-118211904D01*
X132987142Y-118259523D01*
X133034761Y-118307142D01*
X133082380Y-118402380D01*
X133082380Y-118497619D01*
X133034761Y-118592857D01*
X132987142Y-118640476D01*
X132891904Y-118688095D01*
X132701428Y-118735714D01*
X132463333Y-118735714D01*
X132272857Y-118688095D01*
X132177619Y-118640476D01*
X132130000Y-118592857D01*
X132082380Y-118497619D01*
X131127142Y-119116666D02*
X131174761Y-119164285D01*
X131222380Y-119307142D01*
X131222380Y-119402380D01*
X131174761Y-119545238D01*
X131079523Y-119640476D01*
X130984285Y-119688095D01*
X130793809Y-119735714D01*
X130650952Y-119735714D01*
X130460476Y-119688095D01*
X130365238Y-119640476D01*
X130270000Y-119545238D01*
X130222380Y-119402380D01*
X130222380Y-119307142D01*
X130270000Y-119164285D01*
X130317619Y-119116666D01*
X131222380Y-118164285D02*
X131222380Y-118735714D01*
X131222380Y-118450000D02*
X130222380Y-118450000D01*
X130365238Y-118545238D01*
X130460476Y-118640476D01*
X130508095Y-118735714D01*
X149508333Y-124002142D02*
X149460714Y-124049761D01*
X149317857Y-124097380D01*
X149222619Y-124097380D01*
X149079761Y-124049761D01*
X148984523Y-123954523D01*
X148936904Y-123859285D01*
X148889285Y-123668809D01*
X148889285Y-123525952D01*
X148936904Y-123335476D01*
X148984523Y-123240238D01*
X149079761Y-123145000D01*
X149222619Y-123097380D01*
X149317857Y-123097380D01*
X149460714Y-123145000D01*
X149508333Y-123192619D01*
X149889285Y-123192619D02*
X149936904Y-123145000D01*
X150032142Y-123097380D01*
X150270238Y-123097380D01*
X150365476Y-123145000D01*
X150413095Y-123192619D01*
X150460714Y-123287857D01*
X150460714Y-123383095D01*
X150413095Y-123525952D01*
X149841666Y-124097380D01*
X150460714Y-124097380D01*
X153083333Y-118852142D02*
X153035714Y-118899761D01*
X152892857Y-118947380D01*
X152797619Y-118947380D01*
X152654761Y-118899761D01*
X152559523Y-118804523D01*
X152511904Y-118709285D01*
X152464285Y-118518809D01*
X152464285Y-118375952D01*
X152511904Y-118185476D01*
X152559523Y-118090238D01*
X152654761Y-117995000D01*
X152797619Y-117947380D01*
X152892857Y-117947380D01*
X153035714Y-117995000D01*
X153083333Y-118042619D01*
X153416666Y-117947380D02*
X154035714Y-117947380D01*
X153702380Y-118328333D01*
X153845238Y-118328333D01*
X153940476Y-118375952D01*
X153988095Y-118423571D01*
X154035714Y-118518809D01*
X154035714Y-118756904D01*
X153988095Y-118852142D01*
X153940476Y-118899761D01*
X153845238Y-118947380D01*
X153559523Y-118947380D01*
X153464285Y-118899761D01*
X153416666Y-118852142D01*
X121358333Y-64862142D02*
X121310714Y-64909761D01*
X121167857Y-64957380D01*
X121072619Y-64957380D01*
X120929761Y-64909761D01*
X120834523Y-64814523D01*
X120786904Y-64719285D01*
X120739285Y-64528809D01*
X120739285Y-64385952D01*
X120786904Y-64195476D01*
X120834523Y-64100238D01*
X120929761Y-64005000D01*
X121072619Y-63957380D01*
X121167857Y-63957380D01*
X121310714Y-64005000D01*
X121358333Y-64052619D01*
X122215476Y-64290714D02*
X122215476Y-64957380D01*
X121977380Y-63909761D02*
X121739285Y-64624047D01*
X122358333Y-64624047D01*
X126958333Y-64862142D02*
X126910714Y-64909761D01*
X126767857Y-64957380D01*
X126672619Y-64957380D01*
X126529761Y-64909761D01*
X126434523Y-64814523D01*
X126386904Y-64719285D01*
X126339285Y-64528809D01*
X126339285Y-64385952D01*
X126386904Y-64195476D01*
X126434523Y-64100238D01*
X126529761Y-64005000D01*
X126672619Y-63957380D01*
X126767857Y-63957380D01*
X126910714Y-64005000D01*
X126958333Y-64052619D01*
X127863095Y-63957380D02*
X127386904Y-63957380D01*
X127339285Y-64433571D01*
X127386904Y-64385952D01*
X127482142Y-64338333D01*
X127720238Y-64338333D01*
X127815476Y-64385952D01*
X127863095Y-64433571D01*
X127910714Y-64528809D01*
X127910714Y-64766904D01*
X127863095Y-64862142D01*
X127815476Y-64909761D01*
X127720238Y-64957380D01*
X127482142Y-64957380D01*
X127386904Y-64909761D01*
X127339285Y-64862142D01*
X136358333Y-64862142D02*
X136310714Y-64909761D01*
X136167857Y-64957380D01*
X136072619Y-64957380D01*
X135929761Y-64909761D01*
X135834523Y-64814523D01*
X135786904Y-64719285D01*
X135739285Y-64528809D01*
X135739285Y-64385952D01*
X135786904Y-64195476D01*
X135834523Y-64100238D01*
X135929761Y-64005000D01*
X136072619Y-63957380D01*
X136167857Y-63957380D01*
X136310714Y-64005000D01*
X136358333Y-64052619D01*
X137215476Y-63957380D02*
X137025000Y-63957380D01*
X136929761Y-64005000D01*
X136882142Y-64052619D01*
X136786904Y-64195476D01*
X136739285Y-64385952D01*
X136739285Y-64766904D01*
X136786904Y-64862142D01*
X136834523Y-64909761D01*
X136929761Y-64957380D01*
X137120238Y-64957380D01*
X137215476Y-64909761D01*
X137263095Y-64862142D01*
X137310714Y-64766904D01*
X137310714Y-64528809D01*
X137263095Y-64433571D01*
X137215476Y-64385952D01*
X137120238Y-64338333D01*
X136929761Y-64338333D01*
X136834523Y-64385952D01*
X136786904Y-64433571D01*
X136739285Y-64528809D01*
X141958333Y-64862142D02*
X141910714Y-64909761D01*
X141767857Y-64957380D01*
X141672619Y-64957380D01*
X141529761Y-64909761D01*
X141434523Y-64814523D01*
X141386904Y-64719285D01*
X141339285Y-64528809D01*
X141339285Y-64385952D01*
X141386904Y-64195476D01*
X141434523Y-64100238D01*
X141529761Y-64005000D01*
X141672619Y-63957380D01*
X141767857Y-63957380D01*
X141910714Y-64005000D01*
X141958333Y-64052619D01*
X142291666Y-63957380D02*
X142958333Y-63957380D01*
X142529761Y-64957380D01*
X151358333Y-64862142D02*
X151310714Y-64909761D01*
X151167857Y-64957380D01*
X151072619Y-64957380D01*
X150929761Y-64909761D01*
X150834523Y-64814523D01*
X150786904Y-64719285D01*
X150739285Y-64528809D01*
X150739285Y-64385952D01*
X150786904Y-64195476D01*
X150834523Y-64100238D01*
X150929761Y-64005000D01*
X151072619Y-63957380D01*
X151167857Y-63957380D01*
X151310714Y-64005000D01*
X151358333Y-64052619D01*
X151929761Y-64385952D02*
X151834523Y-64338333D01*
X151786904Y-64290714D01*
X151739285Y-64195476D01*
X151739285Y-64147857D01*
X151786904Y-64052619D01*
X151834523Y-64005000D01*
X151929761Y-63957380D01*
X152120238Y-63957380D01*
X152215476Y-64005000D01*
X152263095Y-64052619D01*
X152310714Y-64147857D01*
X152310714Y-64195476D01*
X152263095Y-64290714D01*
X152215476Y-64338333D01*
X152120238Y-64385952D01*
X151929761Y-64385952D01*
X151834523Y-64433571D01*
X151786904Y-64481190D01*
X151739285Y-64576428D01*
X151739285Y-64766904D01*
X151786904Y-64862142D01*
X151834523Y-64909761D01*
X151929761Y-64957380D01*
X152120238Y-64957380D01*
X152215476Y-64909761D01*
X152263095Y-64862142D01*
X152310714Y-64766904D01*
X152310714Y-64576428D01*
X152263095Y-64481190D01*
X152215476Y-64433571D01*
X152120238Y-64385952D01*
X156958333Y-64862142D02*
X156910714Y-64909761D01*
X156767857Y-64957380D01*
X156672619Y-64957380D01*
X156529761Y-64909761D01*
X156434523Y-64814523D01*
X156386904Y-64719285D01*
X156339285Y-64528809D01*
X156339285Y-64385952D01*
X156386904Y-64195476D01*
X156434523Y-64100238D01*
X156529761Y-64005000D01*
X156672619Y-63957380D01*
X156767857Y-63957380D01*
X156910714Y-64005000D01*
X156958333Y-64052619D01*
X157434523Y-64957380D02*
X157625000Y-64957380D01*
X157720238Y-64909761D01*
X157767857Y-64862142D01*
X157863095Y-64719285D01*
X157910714Y-64528809D01*
X157910714Y-64147857D01*
X157863095Y-64052619D01*
X157815476Y-64005000D01*
X157720238Y-63957380D01*
X157529761Y-63957380D01*
X157434523Y-64005000D01*
X157386904Y-64052619D01*
X157339285Y-64147857D01*
X157339285Y-64385952D01*
X157386904Y-64481190D01*
X157434523Y-64528809D01*
X157529761Y-64576428D01*
X157720238Y-64576428D01*
X157815476Y-64528809D01*
X157863095Y-64481190D01*
X157910714Y-64385952D01*
X165882142Y-64862142D02*
X165834523Y-64909761D01*
X165691666Y-64957380D01*
X165596428Y-64957380D01*
X165453571Y-64909761D01*
X165358333Y-64814523D01*
X165310714Y-64719285D01*
X165263095Y-64528809D01*
X165263095Y-64385952D01*
X165310714Y-64195476D01*
X165358333Y-64100238D01*
X165453571Y-64005000D01*
X165596428Y-63957380D01*
X165691666Y-63957380D01*
X165834523Y-64005000D01*
X165882142Y-64052619D01*
X166834523Y-64957380D02*
X166263095Y-64957380D01*
X166548809Y-64957380D02*
X166548809Y-63957380D01*
X166453571Y-64100238D01*
X166358333Y-64195476D01*
X166263095Y-64243095D01*
X167453571Y-63957380D02*
X167548809Y-63957380D01*
X167644047Y-64005000D01*
X167691666Y-64052619D01*
X167739285Y-64147857D01*
X167786904Y-64338333D01*
X167786904Y-64576428D01*
X167739285Y-64766904D01*
X167691666Y-64862142D01*
X167644047Y-64909761D01*
X167548809Y-64957380D01*
X167453571Y-64957380D01*
X167358333Y-64909761D01*
X167310714Y-64862142D01*
X167263095Y-64766904D01*
X167215476Y-64576428D01*
X167215476Y-64338333D01*
X167263095Y-64147857D01*
X167310714Y-64052619D01*
X167358333Y-64005000D01*
X167453571Y-63957380D01*
X171482142Y-64862142D02*
X171434523Y-64909761D01*
X171291666Y-64957380D01*
X171196428Y-64957380D01*
X171053571Y-64909761D01*
X170958333Y-64814523D01*
X170910714Y-64719285D01*
X170863095Y-64528809D01*
X170863095Y-64385952D01*
X170910714Y-64195476D01*
X170958333Y-64100238D01*
X171053571Y-64005000D01*
X171196428Y-63957380D01*
X171291666Y-63957380D01*
X171434523Y-64005000D01*
X171482142Y-64052619D01*
X172434523Y-64957380D02*
X171863095Y-64957380D01*
X172148809Y-64957380D02*
X172148809Y-63957380D01*
X172053571Y-64100238D01*
X171958333Y-64195476D01*
X171863095Y-64243095D01*
X173386904Y-64957380D02*
X172815476Y-64957380D01*
X173101190Y-64957380D02*
X173101190Y-63957380D01*
X173005952Y-64100238D01*
X172910714Y-64195476D01*
X172815476Y-64243095D01*
X174207142Y-116527142D02*
X174159523Y-116574761D01*
X174016666Y-116622380D01*
X173921428Y-116622380D01*
X173778571Y-116574761D01*
X173683333Y-116479523D01*
X173635714Y-116384285D01*
X173588095Y-116193809D01*
X173588095Y-116050952D01*
X173635714Y-115860476D01*
X173683333Y-115765238D01*
X173778571Y-115670000D01*
X173921428Y-115622380D01*
X174016666Y-115622380D01*
X174159523Y-115670000D01*
X174207142Y-115717619D01*
X175159523Y-116622380D02*
X174588095Y-116622380D01*
X174873809Y-116622380D02*
X174873809Y-115622380D01*
X174778571Y-115765238D01*
X174683333Y-115860476D01*
X174588095Y-115908095D01*
X175540476Y-115717619D02*
X175588095Y-115670000D01*
X175683333Y-115622380D01*
X175921428Y-115622380D01*
X176016666Y-115670000D01*
X176064285Y-115717619D01*
X176111904Y-115812857D01*
X176111904Y-115908095D01*
X176064285Y-116050952D01*
X175492857Y-116622380D01*
X176111904Y-116622380D01*
X177557142Y-109057142D02*
X177509523Y-109104761D01*
X177366666Y-109152380D01*
X177271428Y-109152380D01*
X177128571Y-109104761D01*
X177033333Y-109009523D01*
X176985714Y-108914285D01*
X176938095Y-108723809D01*
X176938095Y-108580952D01*
X176985714Y-108390476D01*
X177033333Y-108295238D01*
X177128571Y-108200000D01*
X177271428Y-108152380D01*
X177366666Y-108152380D01*
X177509523Y-108200000D01*
X177557142Y-108247619D01*
X178414285Y-108485714D02*
X178414285Y-109152380D01*
X178176190Y-108104761D02*
X177938095Y-108819047D01*
X178557142Y-108819047D01*
X179128571Y-108152380D02*
X179223809Y-108152380D01*
X179319047Y-108200000D01*
X179366666Y-108247619D01*
X179414285Y-108342857D01*
X179461904Y-108533333D01*
X179461904Y-108771428D01*
X179414285Y-108961904D01*
X179366666Y-109057142D01*
X179319047Y-109104761D01*
X179223809Y-109152380D01*
X179128571Y-109152380D01*
X179033333Y-109104761D01*
X178985714Y-109057142D01*
X178938095Y-108961904D01*
X178890476Y-108771428D01*
X178890476Y-108533333D01*
X178938095Y-108342857D01*
X178985714Y-108247619D01*
X179033333Y-108200000D01*
X179128571Y-108152380D01*
X173217142Y-111732857D02*
X173264761Y-111780476D01*
X173312380Y-111923333D01*
X173312380Y-112018571D01*
X173264761Y-112161428D01*
X173169523Y-112256666D01*
X173074285Y-112304285D01*
X172883809Y-112351904D01*
X172740952Y-112351904D01*
X172550476Y-112304285D01*
X172455238Y-112256666D01*
X172360000Y-112161428D01*
X172312380Y-112018571D01*
X172312380Y-111923333D01*
X172360000Y-111780476D01*
X172407619Y-111732857D01*
X172645714Y-110875714D02*
X173312380Y-110875714D01*
X172264761Y-111113809D02*
X172979047Y-111351904D01*
X172979047Y-110732857D01*
X173312380Y-109828095D02*
X173312380Y-110399523D01*
X173312380Y-110113809D02*
X172312380Y-110113809D01*
X172455238Y-110209047D01*
X172550476Y-110304285D01*
X172598095Y-110399523D01*
X159261904Y-121702380D02*
X159261904Y-120702380D01*
X159500000Y-120702380D01*
X159642857Y-120750000D01*
X159738095Y-120845238D01*
X159785714Y-120940476D01*
X159833333Y-121130952D01*
X159833333Y-121273809D01*
X159785714Y-121464285D01*
X159738095Y-121559523D01*
X159642857Y-121654761D01*
X159500000Y-121702380D01*
X159261904Y-121702380D01*
X160452380Y-120702380D02*
X160547619Y-120702380D01*
X160642857Y-120750000D01*
X160690476Y-120797619D01*
X160738095Y-120892857D01*
X160785714Y-121083333D01*
X160785714Y-121321428D01*
X160738095Y-121511904D01*
X160690476Y-121607142D01*
X160642857Y-121654761D01*
X160547619Y-121702380D01*
X160452380Y-121702380D01*
X160357142Y-121654761D01*
X160309523Y-121607142D01*
X160261904Y-121511904D01*
X160214285Y-121321428D01*
X160214285Y-121083333D01*
X160261904Y-120892857D01*
X160309523Y-120797619D01*
X160357142Y-120750000D01*
X160452380Y-120702380D01*
X159261904Y-116702380D02*
X159261904Y-115702380D01*
X159500000Y-115702380D01*
X159642857Y-115750000D01*
X159738095Y-115845238D01*
X159785714Y-115940476D01*
X159833333Y-116130952D01*
X159833333Y-116273809D01*
X159785714Y-116464285D01*
X159738095Y-116559523D01*
X159642857Y-116654761D01*
X159500000Y-116702380D01*
X159261904Y-116702380D01*
X160785714Y-116702380D02*
X160214285Y-116702380D01*
X160500000Y-116702380D02*
X160500000Y-115702380D01*
X160404761Y-115845238D01*
X160309523Y-115940476D01*
X160214285Y-115988095D01*
X173761904Y-89202380D02*
X173761904Y-88202380D01*
X174000000Y-88202380D01*
X174142857Y-88250000D01*
X174238095Y-88345238D01*
X174285714Y-88440476D01*
X174333333Y-88630952D01*
X174333333Y-88773809D01*
X174285714Y-88964285D01*
X174238095Y-89059523D01*
X174142857Y-89154761D01*
X174000000Y-89202380D01*
X173761904Y-89202380D01*
X174714285Y-88297619D02*
X174761904Y-88250000D01*
X174857142Y-88202380D01*
X175095238Y-88202380D01*
X175190476Y-88250000D01*
X175238095Y-88297619D01*
X175285714Y-88392857D01*
X175285714Y-88488095D01*
X175238095Y-88630952D01*
X174666666Y-89202380D01*
X175285714Y-89202380D01*
X173761904Y-93202380D02*
X173761904Y-92202380D01*
X174000000Y-92202380D01*
X174142857Y-92250000D01*
X174238095Y-92345238D01*
X174285714Y-92440476D01*
X174333333Y-92630952D01*
X174333333Y-92773809D01*
X174285714Y-92964285D01*
X174238095Y-93059523D01*
X174142857Y-93154761D01*
X174000000Y-93202380D01*
X173761904Y-93202380D01*
X174666666Y-92202380D02*
X175285714Y-92202380D01*
X174952380Y-92583333D01*
X175095238Y-92583333D01*
X175190476Y-92630952D01*
X175238095Y-92678571D01*
X175285714Y-92773809D01*
X175285714Y-93011904D01*
X175238095Y-93107142D01*
X175190476Y-93154761D01*
X175095238Y-93202380D01*
X174809523Y-93202380D01*
X174714285Y-93154761D01*
X174666666Y-93107142D01*
X173761904Y-97202380D02*
X173761904Y-96202380D01*
X174000000Y-96202380D01*
X174142857Y-96250000D01*
X174238095Y-96345238D01*
X174285714Y-96440476D01*
X174333333Y-96630952D01*
X174333333Y-96773809D01*
X174285714Y-96964285D01*
X174238095Y-97059523D01*
X174142857Y-97154761D01*
X174000000Y-97202380D01*
X173761904Y-97202380D01*
X175190476Y-96535714D02*
X175190476Y-97202380D01*
X174952380Y-96154761D02*
X174714285Y-96869047D01*
X175333333Y-96869047D01*
X173761904Y-101202380D02*
X173761904Y-100202380D01*
X174000000Y-100202380D01*
X174142857Y-100250000D01*
X174238095Y-100345238D01*
X174285714Y-100440476D01*
X174333333Y-100630952D01*
X174333333Y-100773809D01*
X174285714Y-100964285D01*
X174238095Y-101059523D01*
X174142857Y-101154761D01*
X174000000Y-101202380D01*
X173761904Y-101202380D01*
X175238095Y-100202380D02*
X174761904Y-100202380D01*
X174714285Y-100678571D01*
X174761904Y-100630952D01*
X174857142Y-100583333D01*
X175095238Y-100583333D01*
X175190476Y-100630952D01*
X175238095Y-100678571D01*
X175285714Y-100773809D01*
X175285714Y-101011904D01*
X175238095Y-101107142D01*
X175190476Y-101154761D01*
X175095238Y-101202380D01*
X174857142Y-101202380D01*
X174761904Y-101154761D01*
X174714285Y-101107142D01*
X180761904Y-93202380D02*
X180761904Y-92202380D01*
X181000000Y-92202380D01*
X181142857Y-92250000D01*
X181238095Y-92345238D01*
X181285714Y-92440476D01*
X181333333Y-92630952D01*
X181333333Y-92773809D01*
X181285714Y-92964285D01*
X181238095Y-93059523D01*
X181142857Y-93154761D01*
X181000000Y-93202380D01*
X180761904Y-93202380D01*
X182190476Y-92202380D02*
X182000000Y-92202380D01*
X181904761Y-92250000D01*
X181857142Y-92297619D01*
X181761904Y-92440476D01*
X181714285Y-92630952D01*
X181714285Y-93011904D01*
X181761904Y-93107142D01*
X181809523Y-93154761D01*
X181904761Y-93202380D01*
X182095238Y-93202380D01*
X182190476Y-93154761D01*
X182238095Y-93107142D01*
X182285714Y-93011904D01*
X182285714Y-92773809D01*
X182238095Y-92678571D01*
X182190476Y-92630952D01*
X182095238Y-92583333D01*
X181904761Y-92583333D01*
X181809523Y-92630952D01*
X181761904Y-92678571D01*
X181714285Y-92773809D01*
X180761904Y-97202380D02*
X180761904Y-96202380D01*
X181000000Y-96202380D01*
X181142857Y-96250000D01*
X181238095Y-96345238D01*
X181285714Y-96440476D01*
X181333333Y-96630952D01*
X181333333Y-96773809D01*
X181285714Y-96964285D01*
X181238095Y-97059523D01*
X181142857Y-97154761D01*
X181000000Y-97202380D01*
X180761904Y-97202380D01*
X181666666Y-96202380D02*
X182333333Y-96202380D01*
X181904761Y-97202380D01*
X180761904Y-101202380D02*
X180761904Y-100202380D01*
X181000000Y-100202380D01*
X181142857Y-100250000D01*
X181238095Y-100345238D01*
X181285714Y-100440476D01*
X181333333Y-100630952D01*
X181333333Y-100773809D01*
X181285714Y-100964285D01*
X181238095Y-101059523D01*
X181142857Y-101154761D01*
X181000000Y-101202380D01*
X180761904Y-101202380D01*
X181904761Y-100630952D02*
X181809523Y-100583333D01*
X181761904Y-100535714D01*
X181714285Y-100440476D01*
X181714285Y-100392857D01*
X181761904Y-100297619D01*
X181809523Y-100250000D01*
X181904761Y-100202380D01*
X182095238Y-100202380D01*
X182190476Y-100250000D01*
X182238095Y-100297619D01*
X182285714Y-100392857D01*
X182285714Y-100440476D01*
X182238095Y-100535714D01*
X182190476Y-100583333D01*
X182095238Y-100630952D01*
X181904761Y-100630952D01*
X181809523Y-100678571D01*
X181761904Y-100726190D01*
X181714285Y-100821428D01*
X181714285Y-101011904D01*
X181761904Y-101107142D01*
X181809523Y-101154761D01*
X181904761Y-101202380D01*
X182095238Y-101202380D01*
X182190476Y-101154761D01*
X182238095Y-101107142D01*
X182285714Y-101011904D01*
X182285714Y-100821428D01*
X182238095Y-100726190D01*
X182190476Y-100678571D01*
X182095238Y-100630952D01*
X143953841Y-130916875D02*
X142953841Y-130916875D01*
X142953841Y-130678780D01*
X143001461Y-130535922D01*
X143096699Y-130440684D01*
X143191937Y-130393065D01*
X143382413Y-130345446D01*
X143525270Y-130345446D01*
X143715746Y-130393065D01*
X143810984Y-130440684D01*
X143906222Y-130535922D01*
X143953841Y-130678780D01*
X143953841Y-130916875D01*
X143953841Y-129869256D02*
X143953841Y-129678780D01*
X143906222Y-129583541D01*
X143858603Y-129535922D01*
X143715746Y-129440684D01*
X143525270Y-129393065D01*
X143144318Y-129393065D01*
X143049080Y-129440684D01*
X143001461Y-129488303D01*
X142953841Y-129583541D01*
X142953841Y-129774018D01*
X143001461Y-129869256D01*
X143049080Y-129916875D01*
X143144318Y-129964494D01*
X143382413Y-129964494D01*
X143477651Y-129916875D01*
X143525270Y-129869256D01*
X143572889Y-129774018D01*
X143572889Y-129583541D01*
X143525270Y-129488303D01*
X143477651Y-129440684D01*
X143382413Y-129393065D01*
X150543841Y-131353065D02*
X149543841Y-131353065D01*
X149543841Y-131114970D01*
X149591461Y-130972113D01*
X149686699Y-130876875D01*
X149781937Y-130829256D01*
X149972413Y-130781637D01*
X150115270Y-130781637D01*
X150305746Y-130829256D01*
X150400984Y-130876875D01*
X150496222Y-130972113D01*
X150543841Y-131114970D01*
X150543841Y-131353065D01*
X150543841Y-129829256D02*
X150543841Y-130400684D01*
X150543841Y-130114970D02*
X149543841Y-130114970D01*
X149686699Y-130210208D01*
X149781937Y-130305446D01*
X149829556Y-130400684D01*
X149543841Y-129210208D02*
X149543841Y-129114970D01*
X149591461Y-129019732D01*
X149639080Y-128972113D01*
X149734318Y-128924494D01*
X149924794Y-128876875D01*
X150162889Y-128876875D01*
X150353365Y-128924494D01*
X150448603Y-128972113D01*
X150496222Y-129019732D01*
X150543841Y-129114970D01*
X150543841Y-129210208D01*
X150496222Y-129305446D01*
X150448603Y-129353065D01*
X150353365Y-129400684D01*
X150162889Y-129448303D01*
X149924794Y-129448303D01*
X149734318Y-129400684D01*
X149639080Y-129353065D01*
X149591461Y-129305446D01*
X149543841Y-129210208D01*
X154352380Y-128964285D02*
X153352380Y-128964285D01*
X153352380Y-128726190D01*
X153400000Y-128583333D01*
X153495238Y-128488095D01*
X153590476Y-128440476D01*
X153780952Y-128392857D01*
X153923809Y-128392857D01*
X154114285Y-128440476D01*
X154209523Y-128488095D01*
X154304761Y-128583333D01*
X154352380Y-128726190D01*
X154352380Y-128964285D01*
X154352380Y-127440476D02*
X154352380Y-128011904D01*
X154352380Y-127726190D02*
X153352380Y-127726190D01*
X153495238Y-127821428D01*
X153590476Y-127916666D01*
X153638095Y-128011904D01*
X154352380Y-126488095D02*
X154352380Y-127059523D01*
X154352380Y-126773809D02*
X153352380Y-126773809D01*
X153495238Y-126869047D01*
X153590476Y-126964285D01*
X153638095Y-127059523D01*
X172452380Y-73983333D02*
X173166666Y-73983333D01*
X173309523Y-74030952D01*
X173404761Y-74126190D01*
X173452380Y-74269047D01*
X173452380Y-74364285D01*
X172452380Y-73316666D02*
X172452380Y-73221428D01*
X172500000Y-73126190D01*
X172547619Y-73078571D01*
X172642857Y-73030952D01*
X172833333Y-72983333D01*
X173071428Y-72983333D01*
X173261904Y-73030952D01*
X173357142Y-73078571D01*
X173404761Y-73126190D01*
X173452380Y-73221428D01*
X173452380Y-73316666D01*
X173404761Y-73411904D01*
X173357142Y-73459523D01*
X173261904Y-73507142D01*
X173071428Y-73554761D01*
X172833333Y-73554761D01*
X172642857Y-73507142D01*
X172547619Y-73459523D01*
X172500000Y-73411904D01*
X172452380Y-73316666D01*
X123991666Y-63127380D02*
X123991666Y-63841666D01*
X123944047Y-63984523D01*
X123848809Y-64079761D01*
X123705952Y-64127380D01*
X123610714Y-64127380D01*
X124420238Y-63222619D02*
X124467857Y-63175000D01*
X124563095Y-63127380D01*
X124801190Y-63127380D01*
X124896428Y-63175000D01*
X124944047Y-63222619D01*
X124991666Y-63317857D01*
X124991666Y-63413095D01*
X124944047Y-63555952D01*
X124372619Y-64127380D01*
X124991666Y-64127380D01*
X138991666Y-63077380D02*
X138991666Y-63791666D01*
X138944047Y-63934523D01*
X138848809Y-64029761D01*
X138705952Y-64077380D01*
X138610714Y-64077380D01*
X139372619Y-63077380D02*
X139991666Y-63077380D01*
X139658333Y-63458333D01*
X139801190Y-63458333D01*
X139896428Y-63505952D01*
X139944047Y-63553571D01*
X139991666Y-63648809D01*
X139991666Y-63886904D01*
X139944047Y-63982142D01*
X139896428Y-64029761D01*
X139801190Y-64077380D01*
X139515476Y-64077380D01*
X139420238Y-64029761D01*
X139372619Y-63982142D01*
X153991666Y-63127380D02*
X153991666Y-63841666D01*
X153944047Y-63984523D01*
X153848809Y-64079761D01*
X153705952Y-64127380D01*
X153610714Y-64127380D01*
X154896428Y-63460714D02*
X154896428Y-64127380D01*
X154658333Y-63079761D02*
X154420238Y-63794047D01*
X155039285Y-63794047D01*
X168991666Y-63127380D02*
X168991666Y-63841666D01*
X168944047Y-63984523D01*
X168848809Y-64079761D01*
X168705952Y-64127380D01*
X168610714Y-64127380D01*
X169944047Y-63127380D02*
X169467857Y-63127380D01*
X169420238Y-63603571D01*
X169467857Y-63555952D01*
X169563095Y-63508333D01*
X169801190Y-63508333D01*
X169896428Y-63555952D01*
X169944047Y-63603571D01*
X169991666Y-63698809D01*
X169991666Y-63936904D01*
X169944047Y-64032142D01*
X169896428Y-64079761D01*
X169801190Y-64127380D01*
X169563095Y-64127380D01*
X169467857Y-64079761D01*
X169420238Y-64032142D01*
X130782380Y-130603333D02*
X131496666Y-130603333D01*
X131639523Y-130650952D01*
X131734761Y-130746190D01*
X131782380Y-130889047D01*
X131782380Y-130984285D01*
X130782380Y-129698571D02*
X130782380Y-129889047D01*
X130830000Y-129984285D01*
X130877619Y-130031904D01*
X131020476Y-130127142D01*
X131210952Y-130174761D01*
X131591904Y-130174761D01*
X131687142Y-130127142D01*
X131734761Y-130079523D01*
X131782380Y-129984285D01*
X131782380Y-129793809D01*
X131734761Y-129698571D01*
X131687142Y-129650952D01*
X131591904Y-129603333D01*
X131353809Y-129603333D01*
X131258571Y-129650952D01*
X131210952Y-129698571D01*
X131163333Y-129793809D01*
X131163333Y-129984285D01*
X131210952Y-130079523D01*
X131258571Y-130127142D01*
X131353809Y-130174761D01*
X122408333Y-65302380D02*
X122075000Y-64826190D01*
X121836904Y-65302380D02*
X121836904Y-64302380D01*
X122217857Y-64302380D01*
X122313095Y-64350000D01*
X122360714Y-64397619D01*
X122408333Y-64492857D01*
X122408333Y-64635714D01*
X122360714Y-64730952D01*
X122313095Y-64778571D01*
X122217857Y-64826190D01*
X121836904Y-64826190D01*
X123027380Y-64302380D02*
X123122619Y-64302380D01*
X123217857Y-64350000D01*
X123265476Y-64397619D01*
X123313095Y-64492857D01*
X123360714Y-64683333D01*
X123360714Y-64921428D01*
X123313095Y-65111904D01*
X123265476Y-65207142D01*
X123217857Y-65254761D01*
X123122619Y-65302380D01*
X123027380Y-65302380D01*
X122932142Y-65254761D01*
X122884523Y-65207142D01*
X122836904Y-65111904D01*
X122789285Y-64921428D01*
X122789285Y-64683333D01*
X122836904Y-64492857D01*
X122884523Y-64397619D01*
X122932142Y-64350000D01*
X123027380Y-64302380D01*
X125908333Y-62402380D02*
X125575000Y-61926190D01*
X125336904Y-62402380D02*
X125336904Y-61402380D01*
X125717857Y-61402380D01*
X125813095Y-61450000D01*
X125860714Y-61497619D01*
X125908333Y-61592857D01*
X125908333Y-61735714D01*
X125860714Y-61830952D01*
X125813095Y-61878571D01*
X125717857Y-61926190D01*
X125336904Y-61926190D01*
X126860714Y-62402380D02*
X126289285Y-62402380D01*
X126575000Y-62402380D02*
X126575000Y-61402380D01*
X126479761Y-61545238D01*
X126384523Y-61640476D01*
X126289285Y-61688095D01*
X137408333Y-65252380D02*
X137075000Y-64776190D01*
X136836904Y-65252380D02*
X136836904Y-64252380D01*
X137217857Y-64252380D01*
X137313095Y-64300000D01*
X137360714Y-64347619D01*
X137408333Y-64442857D01*
X137408333Y-64585714D01*
X137360714Y-64680952D01*
X137313095Y-64728571D01*
X137217857Y-64776190D01*
X136836904Y-64776190D01*
X137789285Y-64347619D02*
X137836904Y-64300000D01*
X137932142Y-64252380D01*
X138170238Y-64252380D01*
X138265476Y-64300000D01*
X138313095Y-64347619D01*
X138360714Y-64442857D01*
X138360714Y-64538095D01*
X138313095Y-64680952D01*
X137741666Y-65252380D01*
X138360714Y-65252380D01*
X140908333Y-62352380D02*
X140575000Y-61876190D01*
X140336904Y-62352380D02*
X140336904Y-61352380D01*
X140717857Y-61352380D01*
X140813095Y-61400000D01*
X140860714Y-61447619D01*
X140908333Y-61542857D01*
X140908333Y-61685714D01*
X140860714Y-61780952D01*
X140813095Y-61828571D01*
X140717857Y-61876190D01*
X140336904Y-61876190D01*
X141241666Y-61352380D02*
X141860714Y-61352380D01*
X141527380Y-61733333D01*
X141670238Y-61733333D01*
X141765476Y-61780952D01*
X141813095Y-61828571D01*
X141860714Y-61923809D01*
X141860714Y-62161904D01*
X141813095Y-62257142D01*
X141765476Y-62304761D01*
X141670238Y-62352380D01*
X141384523Y-62352380D01*
X141289285Y-62304761D01*
X141241666Y-62257142D01*
X152408333Y-65302380D02*
X152075000Y-64826190D01*
X151836904Y-65302380D02*
X151836904Y-64302380D01*
X152217857Y-64302380D01*
X152313095Y-64350000D01*
X152360714Y-64397619D01*
X152408333Y-64492857D01*
X152408333Y-64635714D01*
X152360714Y-64730952D01*
X152313095Y-64778571D01*
X152217857Y-64826190D01*
X151836904Y-64826190D01*
X153265476Y-64635714D02*
X153265476Y-65302380D01*
X153027380Y-64254761D02*
X152789285Y-64969047D01*
X153408333Y-64969047D01*
X155908333Y-62402380D02*
X155575000Y-61926190D01*
X155336904Y-62402380D02*
X155336904Y-61402380D01*
X155717857Y-61402380D01*
X155813095Y-61450000D01*
X155860714Y-61497619D01*
X155908333Y-61592857D01*
X155908333Y-61735714D01*
X155860714Y-61830952D01*
X155813095Y-61878571D01*
X155717857Y-61926190D01*
X155336904Y-61926190D01*
X156813095Y-61402380D02*
X156336904Y-61402380D01*
X156289285Y-61878571D01*
X156336904Y-61830952D01*
X156432142Y-61783333D01*
X156670238Y-61783333D01*
X156765476Y-61830952D01*
X156813095Y-61878571D01*
X156860714Y-61973809D01*
X156860714Y-62211904D01*
X156813095Y-62307142D01*
X156765476Y-62354761D01*
X156670238Y-62402380D01*
X156432142Y-62402380D01*
X156336904Y-62354761D01*
X156289285Y-62307142D01*
X167408333Y-65302380D02*
X167075000Y-64826190D01*
X166836904Y-65302380D02*
X166836904Y-64302380D01*
X167217857Y-64302380D01*
X167313095Y-64350000D01*
X167360714Y-64397619D01*
X167408333Y-64492857D01*
X167408333Y-64635714D01*
X167360714Y-64730952D01*
X167313095Y-64778571D01*
X167217857Y-64826190D01*
X166836904Y-64826190D01*
X168265476Y-64302380D02*
X168075000Y-64302380D01*
X167979761Y-64350000D01*
X167932142Y-64397619D01*
X167836904Y-64540476D01*
X167789285Y-64730952D01*
X167789285Y-65111904D01*
X167836904Y-65207142D01*
X167884523Y-65254761D01*
X167979761Y-65302380D01*
X168170238Y-65302380D01*
X168265476Y-65254761D01*
X168313095Y-65207142D01*
X168360714Y-65111904D01*
X168360714Y-64873809D01*
X168313095Y-64778571D01*
X168265476Y-64730952D01*
X168170238Y-64683333D01*
X167979761Y-64683333D01*
X167884523Y-64730952D01*
X167836904Y-64778571D01*
X167789285Y-64873809D01*
X170908333Y-62402380D02*
X170575000Y-61926190D01*
X170336904Y-62402380D02*
X170336904Y-61402380D01*
X170717857Y-61402380D01*
X170813095Y-61450000D01*
X170860714Y-61497619D01*
X170908333Y-61592857D01*
X170908333Y-61735714D01*
X170860714Y-61830952D01*
X170813095Y-61878571D01*
X170717857Y-61926190D01*
X170336904Y-61926190D01*
X171241666Y-61402380D02*
X171908333Y-61402380D01*
X171479761Y-62402380D01*
X156833333Y-121302380D02*
X156500000Y-120826190D01*
X156261904Y-121302380D02*
X156261904Y-120302380D01*
X156642857Y-120302380D01*
X156738095Y-120350000D01*
X156785714Y-120397619D01*
X156833333Y-120492857D01*
X156833333Y-120635714D01*
X156785714Y-120730952D01*
X156738095Y-120778571D01*
X156642857Y-120826190D01*
X156261904Y-120826190D01*
X157404761Y-120730952D02*
X157309523Y-120683333D01*
X157261904Y-120635714D01*
X157214285Y-120540476D01*
X157214285Y-120492857D01*
X157261904Y-120397619D01*
X157309523Y-120350000D01*
X157404761Y-120302380D01*
X157595238Y-120302380D01*
X157690476Y-120350000D01*
X157738095Y-120397619D01*
X157785714Y-120492857D01*
X157785714Y-120540476D01*
X157738095Y-120635714D01*
X157690476Y-120683333D01*
X157595238Y-120730952D01*
X157404761Y-120730952D01*
X157309523Y-120778571D01*
X157261904Y-120826190D01*
X157214285Y-120921428D01*
X157214285Y-121111904D01*
X157261904Y-121207142D01*
X157309523Y-121254761D01*
X157404761Y-121302380D01*
X157595238Y-121302380D01*
X157690476Y-121254761D01*
X157738095Y-121207142D01*
X157785714Y-121111904D01*
X157785714Y-120921428D01*
X157738095Y-120826190D01*
X157690476Y-120778571D01*
X157595238Y-120730952D01*
X151330389Y-134039436D02*
X150997056Y-133563246D01*
X150758960Y-134039436D02*
X150758960Y-133039436D01*
X151139913Y-133039436D01*
X151235151Y-133087056D01*
X151282770Y-133134675D01*
X151330389Y-133229913D01*
X151330389Y-133372770D01*
X151282770Y-133468008D01*
X151235151Y-133515627D01*
X151139913Y-133563246D01*
X150758960Y-133563246D01*
X151806579Y-134039436D02*
X151997056Y-134039436D01*
X152092294Y-133991817D01*
X152139913Y-133944198D01*
X152235151Y-133801341D01*
X152282770Y-133610865D01*
X152282770Y-133229913D01*
X152235151Y-133134675D01*
X152187532Y-133087056D01*
X152092294Y-133039436D01*
X151901817Y-133039436D01*
X151806579Y-133087056D01*
X151758960Y-133134675D01*
X151711341Y-133229913D01*
X151711341Y-133468008D01*
X151758960Y-133563246D01*
X151806579Y-133610865D01*
X151901817Y-133658484D01*
X152092294Y-133658484D01*
X152187532Y-133610865D01*
X152235151Y-133563246D01*
X152282770Y-133468008D01*
X156357142Y-119602380D02*
X156023809Y-119126190D01*
X155785714Y-119602380D02*
X155785714Y-118602380D01*
X156166666Y-118602380D01*
X156261904Y-118650000D01*
X156309523Y-118697619D01*
X156357142Y-118792857D01*
X156357142Y-118935714D01*
X156309523Y-119030952D01*
X156261904Y-119078571D01*
X156166666Y-119126190D01*
X155785714Y-119126190D01*
X157309523Y-119602380D02*
X156738095Y-119602380D01*
X157023809Y-119602380D02*
X157023809Y-118602380D01*
X156928571Y-118745238D01*
X156833333Y-118840476D01*
X156738095Y-118888095D01*
X157928571Y-118602380D02*
X158023809Y-118602380D01*
X158119047Y-118650000D01*
X158166666Y-118697619D01*
X158214285Y-118792857D01*
X158261904Y-118983333D01*
X158261904Y-119221428D01*
X158214285Y-119411904D01*
X158166666Y-119507142D01*
X158119047Y-119554761D01*
X158023809Y-119602380D01*
X157928571Y-119602380D01*
X157833333Y-119554761D01*
X157785714Y-119507142D01*
X157738095Y-119411904D01*
X157690476Y-119221428D01*
X157690476Y-118983333D01*
X157738095Y-118792857D01*
X157785714Y-118697619D01*
X157833333Y-118650000D01*
X157928571Y-118602380D01*
X123542380Y-81642857D02*
X123066190Y-81976190D01*
X123542380Y-82214285D02*
X122542380Y-82214285D01*
X122542380Y-81833333D01*
X122590000Y-81738095D01*
X122637619Y-81690476D01*
X122732857Y-81642857D01*
X122875714Y-81642857D01*
X122970952Y-81690476D01*
X123018571Y-81738095D01*
X123066190Y-81833333D01*
X123066190Y-82214285D01*
X123542380Y-80690476D02*
X123542380Y-81261904D01*
X123542380Y-80976190D02*
X122542380Y-80976190D01*
X122685238Y-81071428D01*
X122780476Y-81166666D01*
X122828095Y-81261904D01*
X123542380Y-79738095D02*
X123542380Y-80309523D01*
X123542380Y-80023809D02*
X122542380Y-80023809D01*
X122685238Y-80119047D01*
X122780476Y-80214285D01*
X122828095Y-80309523D01*
X126077380Y-81642857D02*
X125601190Y-81976190D01*
X126077380Y-82214285D02*
X125077380Y-82214285D01*
X125077380Y-81833333D01*
X125125000Y-81738095D01*
X125172619Y-81690476D01*
X125267857Y-81642857D01*
X125410714Y-81642857D01*
X125505952Y-81690476D01*
X125553571Y-81738095D01*
X125601190Y-81833333D01*
X125601190Y-82214285D01*
X126077380Y-80690476D02*
X126077380Y-81261904D01*
X126077380Y-80976190D02*
X125077380Y-80976190D01*
X125220238Y-81071428D01*
X125315476Y-81166666D01*
X125363095Y-81261904D01*
X125172619Y-80309523D02*
X125125000Y-80261904D01*
X125077380Y-80166666D01*
X125077380Y-79928571D01*
X125125000Y-79833333D01*
X125172619Y-79785714D01*
X125267857Y-79738095D01*
X125363095Y-79738095D01*
X125505952Y-79785714D01*
X126077380Y-80357142D01*
X126077380Y-79738095D01*
X126832380Y-104202857D02*
X126356190Y-104536190D01*
X126832380Y-104774285D02*
X125832380Y-104774285D01*
X125832380Y-104393333D01*
X125880000Y-104298095D01*
X125927619Y-104250476D01*
X126022857Y-104202857D01*
X126165714Y-104202857D01*
X126260952Y-104250476D01*
X126308571Y-104298095D01*
X126356190Y-104393333D01*
X126356190Y-104774285D01*
X126832380Y-103250476D02*
X126832380Y-103821904D01*
X126832380Y-103536190D02*
X125832380Y-103536190D01*
X125975238Y-103631428D01*
X126070476Y-103726666D01*
X126118095Y-103821904D01*
X125832380Y-102917142D02*
X125832380Y-102298095D01*
X126213333Y-102631428D01*
X126213333Y-102488571D01*
X126260952Y-102393333D01*
X126308571Y-102345714D01*
X126403809Y-102298095D01*
X126641904Y-102298095D01*
X126737142Y-102345714D01*
X126784761Y-102393333D01*
X126832380Y-102488571D01*
X126832380Y-102774285D01*
X126784761Y-102869523D01*
X126737142Y-102917142D01*
X124292380Y-104202857D02*
X123816190Y-104536190D01*
X124292380Y-104774285D02*
X123292380Y-104774285D01*
X123292380Y-104393333D01*
X123340000Y-104298095D01*
X123387619Y-104250476D01*
X123482857Y-104202857D01*
X123625714Y-104202857D01*
X123720952Y-104250476D01*
X123768571Y-104298095D01*
X123816190Y-104393333D01*
X123816190Y-104774285D01*
X124292380Y-103250476D02*
X124292380Y-103821904D01*
X124292380Y-103536190D02*
X123292380Y-103536190D01*
X123435238Y-103631428D01*
X123530476Y-103726666D01*
X123578095Y-103821904D01*
X123625714Y-102393333D02*
X124292380Y-102393333D01*
X123244761Y-102631428D02*
X123959047Y-102869523D01*
X123959047Y-102250476D01*
X121752380Y-104202857D02*
X121276190Y-104536190D01*
X121752380Y-104774285D02*
X120752380Y-104774285D01*
X120752380Y-104393333D01*
X120800000Y-104298095D01*
X120847619Y-104250476D01*
X120942857Y-104202857D01*
X121085714Y-104202857D01*
X121180952Y-104250476D01*
X121228571Y-104298095D01*
X121276190Y-104393333D01*
X121276190Y-104774285D01*
X121752380Y-103250476D02*
X121752380Y-103821904D01*
X121752380Y-103536190D02*
X120752380Y-103536190D01*
X120895238Y-103631428D01*
X120990476Y-103726666D01*
X121038095Y-103821904D01*
X120752380Y-102345714D02*
X120752380Y-102821904D01*
X121228571Y-102869523D01*
X121180952Y-102821904D01*
X121133333Y-102726666D01*
X121133333Y-102488571D01*
X121180952Y-102393333D01*
X121228571Y-102345714D01*
X121323809Y-102298095D01*
X121561904Y-102298095D01*
X121657142Y-102345714D01*
X121704761Y-102393333D01*
X121752380Y-102488571D01*
X121752380Y-102726666D01*
X121704761Y-102821904D01*
X121657142Y-102869523D01*
X118452380Y-81642857D02*
X117976190Y-81976190D01*
X118452380Y-82214285D02*
X117452380Y-82214285D01*
X117452380Y-81833333D01*
X117500000Y-81738095D01*
X117547619Y-81690476D01*
X117642857Y-81642857D01*
X117785714Y-81642857D01*
X117880952Y-81690476D01*
X117928571Y-81738095D01*
X117976190Y-81833333D01*
X117976190Y-82214285D01*
X118452380Y-80690476D02*
X118452380Y-81261904D01*
X118452380Y-80976190D02*
X117452380Y-80976190D01*
X117595238Y-81071428D01*
X117690476Y-81166666D01*
X117738095Y-81261904D01*
X117452380Y-79833333D02*
X117452380Y-80023809D01*
X117500000Y-80119047D01*
X117547619Y-80166666D01*
X117690476Y-80261904D01*
X117880952Y-80309523D01*
X118261904Y-80309523D01*
X118357142Y-80261904D01*
X118404761Y-80214285D01*
X118452380Y-80119047D01*
X118452380Y-79928571D01*
X118404761Y-79833333D01*
X118357142Y-79785714D01*
X118261904Y-79738095D01*
X118023809Y-79738095D01*
X117928571Y-79785714D01*
X117880952Y-79833333D01*
X117833333Y-79928571D01*
X117833333Y-80119047D01*
X117880952Y-80214285D01*
X117928571Y-80261904D01*
X118023809Y-80309523D01*
X120992380Y-81642857D02*
X120516190Y-81976190D01*
X120992380Y-82214285D02*
X119992380Y-82214285D01*
X119992380Y-81833333D01*
X120040000Y-81738095D01*
X120087619Y-81690476D01*
X120182857Y-81642857D01*
X120325714Y-81642857D01*
X120420952Y-81690476D01*
X120468571Y-81738095D01*
X120516190Y-81833333D01*
X120516190Y-82214285D01*
X120992380Y-80690476D02*
X120992380Y-81261904D01*
X120992380Y-80976190D02*
X119992380Y-80976190D01*
X120135238Y-81071428D01*
X120230476Y-81166666D01*
X120278095Y-81261904D01*
X119992380Y-80357142D02*
X119992380Y-79690476D01*
X120992380Y-80119047D01*
X129372380Y-104202857D02*
X128896190Y-104536190D01*
X129372380Y-104774285D02*
X128372380Y-104774285D01*
X128372380Y-104393333D01*
X128420000Y-104298095D01*
X128467619Y-104250476D01*
X128562857Y-104202857D01*
X128705714Y-104202857D01*
X128800952Y-104250476D01*
X128848571Y-104298095D01*
X128896190Y-104393333D01*
X128896190Y-104774285D01*
X129372380Y-103250476D02*
X129372380Y-103821904D01*
X129372380Y-103536190D02*
X128372380Y-103536190D01*
X128515238Y-103631428D01*
X128610476Y-103726666D01*
X128658095Y-103821904D01*
X128800952Y-102679047D02*
X128753333Y-102774285D01*
X128705714Y-102821904D01*
X128610476Y-102869523D01*
X128562857Y-102869523D01*
X128467619Y-102821904D01*
X128420000Y-102774285D01*
X128372380Y-102679047D01*
X128372380Y-102488571D01*
X128420000Y-102393333D01*
X128467619Y-102345714D01*
X128562857Y-102298095D01*
X128610476Y-102298095D01*
X128705714Y-102345714D01*
X128753333Y-102393333D01*
X128800952Y-102488571D01*
X128800952Y-102679047D01*
X128848571Y-102774285D01*
X128896190Y-102821904D01*
X128991428Y-102869523D01*
X129181904Y-102869523D01*
X129277142Y-102821904D01*
X129324761Y-102774285D01*
X129372380Y-102679047D01*
X129372380Y-102488571D01*
X129324761Y-102393333D01*
X129277142Y-102345714D01*
X129181904Y-102298095D01*
X128991428Y-102298095D01*
X128896190Y-102345714D01*
X128848571Y-102393333D01*
X128800952Y-102488571D01*
X139522380Y-81642857D02*
X139046190Y-81976190D01*
X139522380Y-82214285D02*
X138522380Y-82214285D01*
X138522380Y-81833333D01*
X138570000Y-81738095D01*
X138617619Y-81690476D01*
X138712857Y-81642857D01*
X138855714Y-81642857D01*
X138950952Y-81690476D01*
X138998571Y-81738095D01*
X139046190Y-81833333D01*
X139046190Y-82214285D01*
X139522380Y-80690476D02*
X139522380Y-81261904D01*
X139522380Y-80976190D02*
X138522380Y-80976190D01*
X138665238Y-81071428D01*
X138760476Y-81166666D01*
X138808095Y-81261904D01*
X139522380Y-80214285D02*
X139522380Y-80023809D01*
X139474761Y-79928571D01*
X139427142Y-79880952D01*
X139284285Y-79785714D01*
X139093809Y-79738095D01*
X138712857Y-79738095D01*
X138617619Y-79785714D01*
X138570000Y-79833333D01*
X138522380Y-79928571D01*
X138522380Y-80119047D01*
X138570000Y-80214285D01*
X138617619Y-80261904D01*
X138712857Y-80309523D01*
X138950952Y-80309523D01*
X139046190Y-80261904D01*
X139093809Y-80214285D01*
X139141428Y-80119047D01*
X139141428Y-79928571D01*
X139093809Y-79833333D01*
X139046190Y-79785714D01*
X138950952Y-79738095D01*
X142072380Y-81642857D02*
X141596190Y-81976190D01*
X142072380Y-82214285D02*
X141072380Y-82214285D01*
X141072380Y-81833333D01*
X141120000Y-81738095D01*
X141167619Y-81690476D01*
X141262857Y-81642857D01*
X141405714Y-81642857D01*
X141500952Y-81690476D01*
X141548571Y-81738095D01*
X141596190Y-81833333D01*
X141596190Y-82214285D01*
X141167619Y-81261904D02*
X141120000Y-81214285D01*
X141072380Y-81119047D01*
X141072380Y-80880952D01*
X141120000Y-80785714D01*
X141167619Y-80738095D01*
X141262857Y-80690476D01*
X141358095Y-80690476D01*
X141500952Y-80738095D01*
X142072380Y-81309523D01*
X142072380Y-80690476D01*
X141072380Y-80071428D02*
X141072380Y-79976190D01*
X141120000Y-79880952D01*
X141167619Y-79833333D01*
X141262857Y-79785714D01*
X141453333Y-79738095D01*
X141691428Y-79738095D01*
X141881904Y-79785714D01*
X141977142Y-79833333D01*
X142024761Y-79880952D01*
X142072380Y-79976190D01*
X142072380Y-80071428D01*
X142024761Y-80166666D01*
X141977142Y-80214285D01*
X141881904Y-80261904D01*
X141691428Y-80309523D01*
X141453333Y-80309523D01*
X141262857Y-80261904D01*
X141167619Y-80214285D01*
X141120000Y-80166666D01*
X141072380Y-80071428D01*
X136222380Y-104202857D02*
X135746190Y-104536190D01*
X136222380Y-104774285D02*
X135222380Y-104774285D01*
X135222380Y-104393333D01*
X135270000Y-104298095D01*
X135317619Y-104250476D01*
X135412857Y-104202857D01*
X135555714Y-104202857D01*
X135650952Y-104250476D01*
X135698571Y-104298095D01*
X135746190Y-104393333D01*
X135746190Y-104774285D01*
X135317619Y-103821904D02*
X135270000Y-103774285D01*
X135222380Y-103679047D01*
X135222380Y-103440952D01*
X135270000Y-103345714D01*
X135317619Y-103298095D01*
X135412857Y-103250476D01*
X135508095Y-103250476D01*
X135650952Y-103298095D01*
X136222380Y-103869523D01*
X136222380Y-103250476D01*
X136222380Y-102298095D02*
X136222380Y-102869523D01*
X136222380Y-102583809D02*
X135222380Y-102583809D01*
X135365238Y-102679047D01*
X135460476Y-102774285D01*
X135508095Y-102869523D01*
X131152380Y-104202857D02*
X130676190Y-104536190D01*
X131152380Y-104774285D02*
X130152380Y-104774285D01*
X130152380Y-104393333D01*
X130200000Y-104298095D01*
X130247619Y-104250476D01*
X130342857Y-104202857D01*
X130485714Y-104202857D01*
X130580952Y-104250476D01*
X130628571Y-104298095D01*
X130676190Y-104393333D01*
X130676190Y-104774285D01*
X130247619Y-103821904D02*
X130200000Y-103774285D01*
X130152380Y-103679047D01*
X130152380Y-103440952D01*
X130200000Y-103345714D01*
X130247619Y-103298095D01*
X130342857Y-103250476D01*
X130438095Y-103250476D01*
X130580952Y-103298095D01*
X131152380Y-103869523D01*
X131152380Y-103250476D01*
X130247619Y-102869523D02*
X130200000Y-102821904D01*
X130152380Y-102726666D01*
X130152380Y-102488571D01*
X130200000Y-102393333D01*
X130247619Y-102345714D01*
X130342857Y-102298095D01*
X130438095Y-102298095D01*
X130580952Y-102345714D01*
X131152380Y-102917142D01*
X131152380Y-102298095D01*
X128612380Y-104202857D02*
X128136190Y-104536190D01*
X128612380Y-104774285D02*
X127612380Y-104774285D01*
X127612380Y-104393333D01*
X127660000Y-104298095D01*
X127707619Y-104250476D01*
X127802857Y-104202857D01*
X127945714Y-104202857D01*
X128040952Y-104250476D01*
X128088571Y-104298095D01*
X128136190Y-104393333D01*
X128136190Y-104774285D01*
X127707619Y-103821904D02*
X127660000Y-103774285D01*
X127612380Y-103679047D01*
X127612380Y-103440952D01*
X127660000Y-103345714D01*
X127707619Y-103298095D01*
X127802857Y-103250476D01*
X127898095Y-103250476D01*
X128040952Y-103298095D01*
X128612380Y-103869523D01*
X128612380Y-103250476D01*
X127612380Y-102917142D02*
X127612380Y-102298095D01*
X127993333Y-102631428D01*
X127993333Y-102488571D01*
X128040952Y-102393333D01*
X128088571Y-102345714D01*
X128183809Y-102298095D01*
X128421904Y-102298095D01*
X128517142Y-102345714D01*
X128564761Y-102393333D01*
X128612380Y-102488571D01*
X128612380Y-102774285D01*
X128564761Y-102869523D01*
X128517142Y-102917142D01*
X136992380Y-81642857D02*
X136516190Y-81976190D01*
X136992380Y-82214285D02*
X135992380Y-82214285D01*
X135992380Y-81833333D01*
X136040000Y-81738095D01*
X136087619Y-81690476D01*
X136182857Y-81642857D01*
X136325714Y-81642857D01*
X136420952Y-81690476D01*
X136468571Y-81738095D01*
X136516190Y-81833333D01*
X136516190Y-82214285D01*
X136087619Y-81261904D02*
X136040000Y-81214285D01*
X135992380Y-81119047D01*
X135992380Y-80880952D01*
X136040000Y-80785714D01*
X136087619Y-80738095D01*
X136182857Y-80690476D01*
X136278095Y-80690476D01*
X136420952Y-80738095D01*
X136992380Y-81309523D01*
X136992380Y-80690476D01*
X136325714Y-79833333D02*
X136992380Y-79833333D01*
X135944761Y-80071428D02*
X136659047Y-80309523D01*
X136659047Y-79690476D01*
X133692380Y-104202857D02*
X133216190Y-104536190D01*
X133692380Y-104774285D02*
X132692380Y-104774285D01*
X132692380Y-104393333D01*
X132740000Y-104298095D01*
X132787619Y-104250476D01*
X132882857Y-104202857D01*
X133025714Y-104202857D01*
X133120952Y-104250476D01*
X133168571Y-104298095D01*
X133216190Y-104393333D01*
X133216190Y-104774285D01*
X132787619Y-103821904D02*
X132740000Y-103774285D01*
X132692380Y-103679047D01*
X132692380Y-103440952D01*
X132740000Y-103345714D01*
X132787619Y-103298095D01*
X132882857Y-103250476D01*
X132978095Y-103250476D01*
X133120952Y-103298095D01*
X133692380Y-103869523D01*
X133692380Y-103250476D01*
X132692380Y-102345714D02*
X132692380Y-102821904D01*
X133168571Y-102869523D01*
X133120952Y-102821904D01*
X133073333Y-102726666D01*
X133073333Y-102488571D01*
X133120952Y-102393333D01*
X133168571Y-102345714D01*
X133263809Y-102298095D01*
X133501904Y-102298095D01*
X133597142Y-102345714D01*
X133644761Y-102393333D01*
X133692380Y-102488571D01*
X133692380Y-102726666D01*
X133644761Y-102821904D01*
X133597142Y-102869523D01*
X138772380Y-104202857D02*
X138296190Y-104536190D01*
X138772380Y-104774285D02*
X137772380Y-104774285D01*
X137772380Y-104393333D01*
X137820000Y-104298095D01*
X137867619Y-104250476D01*
X137962857Y-104202857D01*
X138105714Y-104202857D01*
X138200952Y-104250476D01*
X138248571Y-104298095D01*
X138296190Y-104393333D01*
X138296190Y-104774285D01*
X137867619Y-103821904D02*
X137820000Y-103774285D01*
X137772380Y-103679047D01*
X137772380Y-103440952D01*
X137820000Y-103345714D01*
X137867619Y-103298095D01*
X137962857Y-103250476D01*
X138058095Y-103250476D01*
X138200952Y-103298095D01*
X138772380Y-103869523D01*
X138772380Y-103250476D01*
X137772380Y-102393333D02*
X137772380Y-102583809D01*
X137820000Y-102679047D01*
X137867619Y-102726666D01*
X138010476Y-102821904D01*
X138200952Y-102869523D01*
X138581904Y-102869523D01*
X138677142Y-102821904D01*
X138724761Y-102774285D01*
X138772380Y-102679047D01*
X138772380Y-102488571D01*
X138724761Y-102393333D01*
X138677142Y-102345714D01*
X138581904Y-102298095D01*
X138343809Y-102298095D01*
X138248571Y-102345714D01*
X138200952Y-102393333D01*
X138153333Y-102488571D01*
X138153333Y-102679047D01*
X138200952Y-102774285D01*
X138248571Y-102821904D01*
X138343809Y-102869523D01*
X148782380Y-81642857D02*
X148306190Y-81976190D01*
X148782380Y-82214285D02*
X147782380Y-82214285D01*
X147782380Y-81833333D01*
X147830000Y-81738095D01*
X147877619Y-81690476D01*
X147972857Y-81642857D01*
X148115714Y-81642857D01*
X148210952Y-81690476D01*
X148258571Y-81738095D01*
X148306190Y-81833333D01*
X148306190Y-82214285D01*
X147877619Y-81261904D02*
X147830000Y-81214285D01*
X147782380Y-81119047D01*
X147782380Y-80880952D01*
X147830000Y-80785714D01*
X147877619Y-80738095D01*
X147972857Y-80690476D01*
X148068095Y-80690476D01*
X148210952Y-80738095D01*
X148782380Y-81309523D01*
X148782380Y-80690476D01*
X147782380Y-80357142D02*
X147782380Y-79690476D01*
X148782380Y-80119047D01*
X151312380Y-81642857D02*
X150836190Y-81976190D01*
X151312380Y-82214285D02*
X150312380Y-82214285D01*
X150312380Y-81833333D01*
X150360000Y-81738095D01*
X150407619Y-81690476D01*
X150502857Y-81642857D01*
X150645714Y-81642857D01*
X150740952Y-81690476D01*
X150788571Y-81738095D01*
X150836190Y-81833333D01*
X150836190Y-82214285D01*
X150407619Y-81261904D02*
X150360000Y-81214285D01*
X150312380Y-81119047D01*
X150312380Y-80880952D01*
X150360000Y-80785714D01*
X150407619Y-80738095D01*
X150502857Y-80690476D01*
X150598095Y-80690476D01*
X150740952Y-80738095D01*
X151312380Y-81309523D01*
X151312380Y-80690476D01*
X150740952Y-80119047D02*
X150693333Y-80214285D01*
X150645714Y-80261904D01*
X150550476Y-80309523D01*
X150502857Y-80309523D01*
X150407619Y-80261904D01*
X150360000Y-80214285D01*
X150312380Y-80119047D01*
X150312380Y-79928571D01*
X150360000Y-79833333D01*
X150407619Y-79785714D01*
X150502857Y-79738095D01*
X150550476Y-79738095D01*
X150645714Y-79785714D01*
X150693333Y-79833333D01*
X150740952Y-79928571D01*
X150740952Y-80119047D01*
X150788571Y-80214285D01*
X150836190Y-80261904D01*
X150931428Y-80309523D01*
X151121904Y-80309523D01*
X151217142Y-80261904D01*
X151264761Y-80214285D01*
X151312380Y-80119047D01*
X151312380Y-79928571D01*
X151264761Y-79833333D01*
X151217142Y-79785714D01*
X151121904Y-79738095D01*
X150931428Y-79738095D01*
X150836190Y-79785714D01*
X150788571Y-79833333D01*
X150740952Y-79928571D01*
X152072380Y-104202857D02*
X151596190Y-104536190D01*
X152072380Y-104774285D02*
X151072380Y-104774285D01*
X151072380Y-104393333D01*
X151120000Y-104298095D01*
X151167619Y-104250476D01*
X151262857Y-104202857D01*
X151405714Y-104202857D01*
X151500952Y-104250476D01*
X151548571Y-104298095D01*
X151596190Y-104393333D01*
X151596190Y-104774285D01*
X151167619Y-103821904D02*
X151120000Y-103774285D01*
X151072380Y-103679047D01*
X151072380Y-103440952D01*
X151120000Y-103345714D01*
X151167619Y-103298095D01*
X151262857Y-103250476D01*
X151358095Y-103250476D01*
X151500952Y-103298095D01*
X152072380Y-103869523D01*
X152072380Y-103250476D01*
X152072380Y-102774285D02*
X152072380Y-102583809D01*
X152024761Y-102488571D01*
X151977142Y-102440952D01*
X151834285Y-102345714D01*
X151643809Y-102298095D01*
X151262857Y-102298095D01*
X151167619Y-102345714D01*
X151120000Y-102393333D01*
X151072380Y-102488571D01*
X151072380Y-102679047D01*
X151120000Y-102774285D01*
X151167619Y-102821904D01*
X151262857Y-102869523D01*
X151500952Y-102869523D01*
X151596190Y-102821904D01*
X151643809Y-102774285D01*
X151691428Y-102679047D01*
X151691428Y-102488571D01*
X151643809Y-102393333D01*
X151596190Y-102345714D01*
X151500952Y-102298095D01*
X149542380Y-104202857D02*
X149066190Y-104536190D01*
X149542380Y-104774285D02*
X148542380Y-104774285D01*
X148542380Y-104393333D01*
X148590000Y-104298095D01*
X148637619Y-104250476D01*
X148732857Y-104202857D01*
X148875714Y-104202857D01*
X148970952Y-104250476D01*
X149018571Y-104298095D01*
X149066190Y-104393333D01*
X149066190Y-104774285D01*
X148542380Y-103869523D02*
X148542380Y-103250476D01*
X148923333Y-103583809D01*
X148923333Y-103440952D01*
X148970952Y-103345714D01*
X149018571Y-103298095D01*
X149113809Y-103250476D01*
X149351904Y-103250476D01*
X149447142Y-103298095D01*
X149494761Y-103345714D01*
X149542380Y-103440952D01*
X149542380Y-103726666D01*
X149494761Y-103821904D01*
X149447142Y-103869523D01*
X148542380Y-102631428D02*
X148542380Y-102536190D01*
X148590000Y-102440952D01*
X148637619Y-102393333D01*
X148732857Y-102345714D01*
X148923333Y-102298095D01*
X149161428Y-102298095D01*
X149351904Y-102345714D01*
X149447142Y-102393333D01*
X149494761Y-102440952D01*
X149542380Y-102536190D01*
X149542380Y-102631428D01*
X149494761Y-102726666D01*
X149447142Y-102774285D01*
X149351904Y-102821904D01*
X149161428Y-102869523D01*
X148923333Y-102869523D01*
X148732857Y-102821904D01*
X148637619Y-102774285D01*
X148590000Y-102726666D01*
X148542380Y-102631428D01*
X147002380Y-104202857D02*
X146526190Y-104536190D01*
X147002380Y-104774285D02*
X146002380Y-104774285D01*
X146002380Y-104393333D01*
X146050000Y-104298095D01*
X146097619Y-104250476D01*
X146192857Y-104202857D01*
X146335714Y-104202857D01*
X146430952Y-104250476D01*
X146478571Y-104298095D01*
X146526190Y-104393333D01*
X146526190Y-104774285D01*
X146002380Y-103869523D02*
X146002380Y-103250476D01*
X146383333Y-103583809D01*
X146383333Y-103440952D01*
X146430952Y-103345714D01*
X146478571Y-103298095D01*
X146573809Y-103250476D01*
X146811904Y-103250476D01*
X146907142Y-103298095D01*
X146954761Y-103345714D01*
X147002380Y-103440952D01*
X147002380Y-103726666D01*
X146954761Y-103821904D01*
X146907142Y-103869523D01*
X147002380Y-102298095D02*
X147002380Y-102869523D01*
X147002380Y-102583809D02*
X146002380Y-102583809D01*
X146145238Y-102679047D01*
X146240476Y-102774285D01*
X146288095Y-102869523D01*
X143702380Y-81642857D02*
X143226190Y-81976190D01*
X143702380Y-82214285D02*
X142702380Y-82214285D01*
X142702380Y-81833333D01*
X142750000Y-81738095D01*
X142797619Y-81690476D01*
X142892857Y-81642857D01*
X143035714Y-81642857D01*
X143130952Y-81690476D01*
X143178571Y-81738095D01*
X143226190Y-81833333D01*
X143226190Y-82214285D01*
X142702380Y-81309523D02*
X142702380Y-80690476D01*
X143083333Y-81023809D01*
X143083333Y-80880952D01*
X143130952Y-80785714D01*
X143178571Y-80738095D01*
X143273809Y-80690476D01*
X143511904Y-80690476D01*
X143607142Y-80738095D01*
X143654761Y-80785714D01*
X143702380Y-80880952D01*
X143702380Y-81166666D01*
X143654761Y-81261904D01*
X143607142Y-81309523D01*
X142797619Y-80309523D02*
X142750000Y-80261904D01*
X142702380Y-80166666D01*
X142702380Y-79928571D01*
X142750000Y-79833333D01*
X142797619Y-79785714D01*
X142892857Y-79738095D01*
X142988095Y-79738095D01*
X143130952Y-79785714D01*
X143702380Y-80357142D01*
X143702380Y-79738095D01*
X146252380Y-81642857D02*
X145776190Y-81976190D01*
X146252380Y-82214285D02*
X145252380Y-82214285D01*
X145252380Y-81833333D01*
X145300000Y-81738095D01*
X145347619Y-81690476D01*
X145442857Y-81642857D01*
X145585714Y-81642857D01*
X145680952Y-81690476D01*
X145728571Y-81738095D01*
X145776190Y-81833333D01*
X145776190Y-82214285D01*
X145252380Y-81309523D02*
X145252380Y-80690476D01*
X145633333Y-81023809D01*
X145633333Y-80880952D01*
X145680952Y-80785714D01*
X145728571Y-80738095D01*
X145823809Y-80690476D01*
X146061904Y-80690476D01*
X146157142Y-80738095D01*
X146204761Y-80785714D01*
X146252380Y-80880952D01*
X146252380Y-81166666D01*
X146204761Y-81261904D01*
X146157142Y-81309523D01*
X145252380Y-80357142D02*
X145252380Y-79738095D01*
X145633333Y-80071428D01*
X145633333Y-79928571D01*
X145680952Y-79833333D01*
X145728571Y-79785714D01*
X145823809Y-79738095D01*
X146061904Y-79738095D01*
X146157142Y-79785714D01*
X146204761Y-79833333D01*
X146252380Y-79928571D01*
X146252380Y-80214285D01*
X146204761Y-80309523D01*
X146157142Y-80357142D01*
X154627380Y-104202857D02*
X154151190Y-104536190D01*
X154627380Y-104774285D02*
X153627380Y-104774285D01*
X153627380Y-104393333D01*
X153675000Y-104298095D01*
X153722619Y-104250476D01*
X153817857Y-104202857D01*
X153960714Y-104202857D01*
X154055952Y-104250476D01*
X154103571Y-104298095D01*
X154151190Y-104393333D01*
X154151190Y-104774285D01*
X153627380Y-103869523D02*
X153627380Y-103250476D01*
X154008333Y-103583809D01*
X154008333Y-103440952D01*
X154055952Y-103345714D01*
X154103571Y-103298095D01*
X154198809Y-103250476D01*
X154436904Y-103250476D01*
X154532142Y-103298095D01*
X154579761Y-103345714D01*
X154627380Y-103440952D01*
X154627380Y-103726666D01*
X154579761Y-103821904D01*
X154532142Y-103869523D01*
X153960714Y-102393333D02*
X154627380Y-102393333D01*
X153579761Y-102631428D02*
X154294047Y-102869523D01*
X154294047Y-102250476D01*
X164782380Y-81642857D02*
X164306190Y-81976190D01*
X164782380Y-82214285D02*
X163782380Y-82214285D01*
X163782380Y-81833333D01*
X163830000Y-81738095D01*
X163877619Y-81690476D01*
X163972857Y-81642857D01*
X164115714Y-81642857D01*
X164210952Y-81690476D01*
X164258571Y-81738095D01*
X164306190Y-81833333D01*
X164306190Y-82214285D01*
X163782380Y-81309523D02*
X163782380Y-80690476D01*
X164163333Y-81023809D01*
X164163333Y-80880952D01*
X164210952Y-80785714D01*
X164258571Y-80738095D01*
X164353809Y-80690476D01*
X164591904Y-80690476D01*
X164687142Y-80738095D01*
X164734761Y-80785714D01*
X164782380Y-80880952D01*
X164782380Y-81166666D01*
X164734761Y-81261904D01*
X164687142Y-81309523D01*
X163782380Y-79785714D02*
X163782380Y-80261904D01*
X164258571Y-80309523D01*
X164210952Y-80261904D01*
X164163333Y-80166666D01*
X164163333Y-79928571D01*
X164210952Y-79833333D01*
X164258571Y-79785714D01*
X164353809Y-79738095D01*
X164591904Y-79738095D01*
X164687142Y-79785714D01*
X164734761Y-79833333D01*
X164782380Y-79928571D01*
X164782380Y-80166666D01*
X164734761Y-80261904D01*
X164687142Y-80309523D01*
X167322380Y-81642857D02*
X166846190Y-81976190D01*
X167322380Y-82214285D02*
X166322380Y-82214285D01*
X166322380Y-81833333D01*
X166370000Y-81738095D01*
X166417619Y-81690476D01*
X166512857Y-81642857D01*
X166655714Y-81642857D01*
X166750952Y-81690476D01*
X166798571Y-81738095D01*
X166846190Y-81833333D01*
X166846190Y-82214285D01*
X166322380Y-81309523D02*
X166322380Y-80690476D01*
X166703333Y-81023809D01*
X166703333Y-80880952D01*
X166750952Y-80785714D01*
X166798571Y-80738095D01*
X166893809Y-80690476D01*
X167131904Y-80690476D01*
X167227142Y-80738095D01*
X167274761Y-80785714D01*
X167322380Y-80880952D01*
X167322380Y-81166666D01*
X167274761Y-81261904D01*
X167227142Y-81309523D01*
X166322380Y-79833333D02*
X166322380Y-80023809D01*
X166370000Y-80119047D01*
X166417619Y-80166666D01*
X166560476Y-80261904D01*
X166750952Y-80309523D01*
X167131904Y-80309523D01*
X167227142Y-80261904D01*
X167274761Y-80214285D01*
X167322380Y-80119047D01*
X167322380Y-79928571D01*
X167274761Y-79833333D01*
X167227142Y-79785714D01*
X167131904Y-79738095D01*
X166893809Y-79738095D01*
X166798571Y-79785714D01*
X166750952Y-79833333D01*
X166703333Y-79928571D01*
X166703333Y-80119047D01*
X166750952Y-80214285D01*
X166798571Y-80261904D01*
X166893809Y-80309523D01*
X161482380Y-104192857D02*
X161006190Y-104526190D01*
X161482380Y-104764285D02*
X160482380Y-104764285D01*
X160482380Y-104383333D01*
X160530000Y-104288095D01*
X160577619Y-104240476D01*
X160672857Y-104192857D01*
X160815714Y-104192857D01*
X160910952Y-104240476D01*
X160958571Y-104288095D01*
X161006190Y-104383333D01*
X161006190Y-104764285D01*
X160482380Y-103859523D02*
X160482380Y-103240476D01*
X160863333Y-103573809D01*
X160863333Y-103430952D01*
X160910952Y-103335714D01*
X160958571Y-103288095D01*
X161053809Y-103240476D01*
X161291904Y-103240476D01*
X161387142Y-103288095D01*
X161434761Y-103335714D01*
X161482380Y-103430952D01*
X161482380Y-103716666D01*
X161434761Y-103811904D01*
X161387142Y-103859523D01*
X160482380Y-102907142D02*
X160482380Y-102240476D01*
X161482380Y-102669047D01*
X156402380Y-104202857D02*
X155926190Y-104536190D01*
X156402380Y-104774285D02*
X155402380Y-104774285D01*
X155402380Y-104393333D01*
X155450000Y-104298095D01*
X155497619Y-104250476D01*
X155592857Y-104202857D01*
X155735714Y-104202857D01*
X155830952Y-104250476D01*
X155878571Y-104298095D01*
X155926190Y-104393333D01*
X155926190Y-104774285D01*
X155402380Y-103869523D02*
X155402380Y-103250476D01*
X155783333Y-103583809D01*
X155783333Y-103440952D01*
X155830952Y-103345714D01*
X155878571Y-103298095D01*
X155973809Y-103250476D01*
X156211904Y-103250476D01*
X156307142Y-103298095D01*
X156354761Y-103345714D01*
X156402380Y-103440952D01*
X156402380Y-103726666D01*
X156354761Y-103821904D01*
X156307142Y-103869523D01*
X155830952Y-102679047D02*
X155783333Y-102774285D01*
X155735714Y-102821904D01*
X155640476Y-102869523D01*
X155592857Y-102869523D01*
X155497619Y-102821904D01*
X155450000Y-102774285D01*
X155402380Y-102679047D01*
X155402380Y-102488571D01*
X155450000Y-102393333D01*
X155497619Y-102345714D01*
X155592857Y-102298095D01*
X155640476Y-102298095D01*
X155735714Y-102345714D01*
X155783333Y-102393333D01*
X155830952Y-102488571D01*
X155830952Y-102679047D01*
X155878571Y-102774285D01*
X155926190Y-102821904D01*
X156021428Y-102869523D01*
X156211904Y-102869523D01*
X156307142Y-102821904D01*
X156354761Y-102774285D01*
X156402380Y-102679047D01*
X156402380Y-102488571D01*
X156354761Y-102393333D01*
X156307142Y-102345714D01*
X156211904Y-102298095D01*
X156021428Y-102298095D01*
X155926190Y-102345714D01*
X155878571Y-102393333D01*
X155830952Y-102488571D01*
X153862380Y-104202857D02*
X153386190Y-104536190D01*
X153862380Y-104774285D02*
X152862380Y-104774285D01*
X152862380Y-104393333D01*
X152910000Y-104298095D01*
X152957619Y-104250476D01*
X153052857Y-104202857D01*
X153195714Y-104202857D01*
X153290952Y-104250476D01*
X153338571Y-104298095D01*
X153386190Y-104393333D01*
X153386190Y-104774285D01*
X152862380Y-103869523D02*
X152862380Y-103250476D01*
X153243333Y-103583809D01*
X153243333Y-103440952D01*
X153290952Y-103345714D01*
X153338571Y-103298095D01*
X153433809Y-103250476D01*
X153671904Y-103250476D01*
X153767142Y-103298095D01*
X153814761Y-103345714D01*
X153862380Y-103440952D01*
X153862380Y-103726666D01*
X153814761Y-103821904D01*
X153767142Y-103869523D01*
X153862380Y-102774285D02*
X153862380Y-102583809D01*
X153814761Y-102488571D01*
X153767142Y-102440952D01*
X153624285Y-102345714D01*
X153433809Y-102298095D01*
X153052857Y-102298095D01*
X152957619Y-102345714D01*
X152910000Y-102393333D01*
X152862380Y-102488571D01*
X152862380Y-102679047D01*
X152910000Y-102774285D01*
X152957619Y-102821904D01*
X153052857Y-102869523D01*
X153290952Y-102869523D01*
X153386190Y-102821904D01*
X153433809Y-102774285D01*
X153481428Y-102679047D01*
X153481428Y-102488571D01*
X153433809Y-102393333D01*
X153386190Y-102345714D01*
X153290952Y-102298095D01*
X162242380Y-81642857D02*
X161766190Y-81976190D01*
X162242380Y-82214285D02*
X161242380Y-82214285D01*
X161242380Y-81833333D01*
X161290000Y-81738095D01*
X161337619Y-81690476D01*
X161432857Y-81642857D01*
X161575714Y-81642857D01*
X161670952Y-81690476D01*
X161718571Y-81738095D01*
X161766190Y-81833333D01*
X161766190Y-82214285D01*
X161575714Y-80785714D02*
X162242380Y-80785714D01*
X161194761Y-81023809D02*
X161909047Y-81261904D01*
X161909047Y-80642857D01*
X161242380Y-80071428D02*
X161242380Y-79976190D01*
X161290000Y-79880952D01*
X161337619Y-79833333D01*
X161432857Y-79785714D01*
X161623333Y-79738095D01*
X161861428Y-79738095D01*
X162051904Y-79785714D01*
X162147142Y-79833333D01*
X162194761Y-79880952D01*
X162242380Y-79976190D01*
X162242380Y-80071428D01*
X162194761Y-80166666D01*
X162147142Y-80214285D01*
X162051904Y-80261904D01*
X161861428Y-80309523D01*
X161623333Y-80309523D01*
X161432857Y-80261904D01*
X161337619Y-80214285D01*
X161290000Y-80166666D01*
X161242380Y-80071428D01*
X158952380Y-104202857D02*
X158476190Y-104536190D01*
X158952380Y-104774285D02*
X157952380Y-104774285D01*
X157952380Y-104393333D01*
X158000000Y-104298095D01*
X158047619Y-104250476D01*
X158142857Y-104202857D01*
X158285714Y-104202857D01*
X158380952Y-104250476D01*
X158428571Y-104298095D01*
X158476190Y-104393333D01*
X158476190Y-104774285D01*
X158285714Y-103345714D02*
X158952380Y-103345714D01*
X157904761Y-103583809D02*
X158619047Y-103821904D01*
X158619047Y-103202857D01*
X158952380Y-102298095D02*
X158952380Y-102869523D01*
X158952380Y-102583809D02*
X157952380Y-102583809D01*
X158095238Y-102679047D01*
X158190476Y-102774285D01*
X158238095Y-102869523D01*
X164022380Y-104202857D02*
X163546190Y-104536190D01*
X164022380Y-104774285D02*
X163022380Y-104774285D01*
X163022380Y-104393333D01*
X163070000Y-104298095D01*
X163117619Y-104250476D01*
X163212857Y-104202857D01*
X163355714Y-104202857D01*
X163450952Y-104250476D01*
X163498571Y-104298095D01*
X163546190Y-104393333D01*
X163546190Y-104774285D01*
X163355714Y-103345714D02*
X164022380Y-103345714D01*
X162974761Y-103583809D02*
X163689047Y-103821904D01*
X163689047Y-103202857D01*
X163117619Y-102869523D02*
X163070000Y-102821904D01*
X163022380Y-102726666D01*
X163022380Y-102488571D01*
X163070000Y-102393333D01*
X163117619Y-102345714D01*
X163212857Y-102298095D01*
X163308095Y-102298095D01*
X163450952Y-102345714D01*
X164022380Y-102917142D01*
X164022380Y-102298095D01*
X170907142Y-92102380D02*
X170573809Y-91626190D01*
X170335714Y-92102380D02*
X170335714Y-91102380D01*
X170716666Y-91102380D01*
X170811904Y-91150000D01*
X170859523Y-91197619D01*
X170907142Y-91292857D01*
X170907142Y-91435714D01*
X170859523Y-91530952D01*
X170811904Y-91578571D01*
X170716666Y-91626190D01*
X170335714Y-91626190D01*
X171764285Y-91435714D02*
X171764285Y-92102380D01*
X171526190Y-91054761D02*
X171288095Y-91769047D01*
X171907142Y-91769047D01*
X172192857Y-91102380D02*
X172811904Y-91102380D01*
X172478571Y-91483333D01*
X172621428Y-91483333D01*
X172716666Y-91530952D01*
X172764285Y-91578571D01*
X172811904Y-91673809D01*
X172811904Y-91911904D01*
X172764285Y-92007142D01*
X172716666Y-92054761D01*
X172621428Y-92102380D01*
X172335714Y-92102380D01*
X172240476Y-92054761D01*
X172192857Y-92007142D01*
X170907142Y-96102380D02*
X170573809Y-95626190D01*
X170335714Y-96102380D02*
X170335714Y-95102380D01*
X170716666Y-95102380D01*
X170811904Y-95150000D01*
X170859523Y-95197619D01*
X170907142Y-95292857D01*
X170907142Y-95435714D01*
X170859523Y-95530952D01*
X170811904Y-95578571D01*
X170716666Y-95626190D01*
X170335714Y-95626190D01*
X171764285Y-95435714D02*
X171764285Y-96102380D01*
X171526190Y-95054761D02*
X171288095Y-95769047D01*
X171907142Y-95769047D01*
X172716666Y-95435714D02*
X172716666Y-96102380D01*
X172478571Y-95054761D02*
X172240476Y-95769047D01*
X172859523Y-95769047D01*
X170807142Y-100102380D02*
X170473809Y-99626190D01*
X170235714Y-100102380D02*
X170235714Y-99102380D01*
X170616666Y-99102380D01*
X170711904Y-99150000D01*
X170759523Y-99197619D01*
X170807142Y-99292857D01*
X170807142Y-99435714D01*
X170759523Y-99530952D01*
X170711904Y-99578571D01*
X170616666Y-99626190D01*
X170235714Y-99626190D01*
X171664285Y-99435714D02*
X171664285Y-100102380D01*
X171426190Y-99054761D02*
X171188095Y-99769047D01*
X171807142Y-99769047D01*
X172664285Y-99102380D02*
X172188095Y-99102380D01*
X172140476Y-99578571D01*
X172188095Y-99530952D01*
X172283333Y-99483333D01*
X172521428Y-99483333D01*
X172616666Y-99530952D01*
X172664285Y-99578571D01*
X172711904Y-99673809D01*
X172711904Y-99911904D01*
X172664285Y-100007142D01*
X172616666Y-100054761D01*
X172521428Y-100102380D01*
X172283333Y-100102380D01*
X172188095Y-100054761D01*
X172140476Y-100007142D01*
X170907142Y-104102380D02*
X170573809Y-103626190D01*
X170335714Y-104102380D02*
X170335714Y-103102380D01*
X170716666Y-103102380D01*
X170811904Y-103150000D01*
X170859523Y-103197619D01*
X170907142Y-103292857D01*
X170907142Y-103435714D01*
X170859523Y-103530952D01*
X170811904Y-103578571D01*
X170716666Y-103626190D01*
X170335714Y-103626190D01*
X171764285Y-103435714D02*
X171764285Y-104102380D01*
X171526190Y-103054761D02*
X171288095Y-103769047D01*
X171907142Y-103769047D01*
X172716666Y-103102380D02*
X172526190Y-103102380D01*
X172430952Y-103150000D01*
X172383333Y-103197619D01*
X172288095Y-103340476D01*
X172240476Y-103530952D01*
X172240476Y-103911904D01*
X172288095Y-104007142D01*
X172335714Y-104054761D01*
X172430952Y-104102380D01*
X172621428Y-104102380D01*
X172716666Y-104054761D01*
X172764285Y-104007142D01*
X172811904Y-103911904D01*
X172811904Y-103673809D01*
X172764285Y-103578571D01*
X172716666Y-103530952D01*
X172621428Y-103483333D01*
X172430952Y-103483333D01*
X172335714Y-103530952D01*
X172288095Y-103578571D01*
X172240476Y-103673809D01*
X177907142Y-96102380D02*
X177573809Y-95626190D01*
X177335714Y-96102380D02*
X177335714Y-95102380D01*
X177716666Y-95102380D01*
X177811904Y-95150000D01*
X177859523Y-95197619D01*
X177907142Y-95292857D01*
X177907142Y-95435714D01*
X177859523Y-95530952D01*
X177811904Y-95578571D01*
X177716666Y-95626190D01*
X177335714Y-95626190D01*
X178764285Y-95435714D02*
X178764285Y-96102380D01*
X178526190Y-95054761D02*
X178288095Y-95769047D01*
X178907142Y-95769047D01*
X179192857Y-95102380D02*
X179859523Y-95102380D01*
X179430952Y-96102380D01*
X177807142Y-100102380D02*
X177473809Y-99626190D01*
X177235714Y-100102380D02*
X177235714Y-99102380D01*
X177616666Y-99102380D01*
X177711904Y-99150000D01*
X177759523Y-99197619D01*
X177807142Y-99292857D01*
X177807142Y-99435714D01*
X177759523Y-99530952D01*
X177711904Y-99578571D01*
X177616666Y-99626190D01*
X177235714Y-99626190D01*
X178664285Y-99435714D02*
X178664285Y-100102380D01*
X178426190Y-99054761D02*
X178188095Y-99769047D01*
X178807142Y-99769047D01*
X179330952Y-99530952D02*
X179235714Y-99483333D01*
X179188095Y-99435714D01*
X179140476Y-99340476D01*
X179140476Y-99292857D01*
X179188095Y-99197619D01*
X179235714Y-99150000D01*
X179330952Y-99102380D01*
X179521428Y-99102380D01*
X179616666Y-99150000D01*
X179664285Y-99197619D01*
X179711904Y-99292857D01*
X179711904Y-99340476D01*
X179664285Y-99435714D01*
X179616666Y-99483333D01*
X179521428Y-99530952D01*
X179330952Y-99530952D01*
X179235714Y-99578571D01*
X179188095Y-99626190D01*
X179140476Y-99721428D01*
X179140476Y-99911904D01*
X179188095Y-100007142D01*
X179235714Y-100054761D01*
X179330952Y-100102380D01*
X179521428Y-100102380D01*
X179616666Y-100054761D01*
X179664285Y-100007142D01*
X179711904Y-99911904D01*
X179711904Y-99721428D01*
X179664285Y-99626190D01*
X179616666Y-99578571D01*
X179521428Y-99530952D01*
X177907142Y-104102380D02*
X177573809Y-103626190D01*
X177335714Y-104102380D02*
X177335714Y-103102380D01*
X177716666Y-103102380D01*
X177811904Y-103150000D01*
X177859523Y-103197619D01*
X177907142Y-103292857D01*
X177907142Y-103435714D01*
X177859523Y-103530952D01*
X177811904Y-103578571D01*
X177716666Y-103626190D01*
X177335714Y-103626190D01*
X178764285Y-103435714D02*
X178764285Y-104102380D01*
X178526190Y-103054761D02*
X178288095Y-103769047D01*
X178907142Y-103769047D01*
X179335714Y-104102380D02*
X179526190Y-104102380D01*
X179621428Y-104054761D01*
X179669047Y-104007142D01*
X179764285Y-103864285D01*
X179811904Y-103673809D01*
X179811904Y-103292857D01*
X179764285Y-103197619D01*
X179716666Y-103150000D01*
X179621428Y-103102380D01*
X179430952Y-103102380D01*
X179335714Y-103150000D01*
X179288095Y-103197619D01*
X179240476Y-103292857D01*
X179240476Y-103530952D01*
X179288095Y-103626190D01*
X179335714Y-103673809D01*
X179430952Y-103721428D01*
X179621428Y-103721428D01*
X179716666Y-103673809D01*
X179764285Y-103626190D01*
X179811904Y-103530952D01*
X163757142Y-129302380D02*
X163423809Y-128826190D01*
X163185714Y-129302380D02*
X163185714Y-128302380D01*
X163566666Y-128302380D01*
X163661904Y-128350000D01*
X163709523Y-128397619D01*
X163757142Y-128492857D01*
X163757142Y-128635714D01*
X163709523Y-128730952D01*
X163661904Y-128778571D01*
X163566666Y-128826190D01*
X163185714Y-128826190D01*
X164661904Y-128302380D02*
X164185714Y-128302380D01*
X164138095Y-128778571D01*
X164185714Y-128730952D01*
X164280952Y-128683333D01*
X164519047Y-128683333D01*
X164614285Y-128730952D01*
X164661904Y-128778571D01*
X164709523Y-128873809D01*
X164709523Y-129111904D01*
X164661904Y-129207142D01*
X164614285Y-129254761D01*
X164519047Y-129302380D01*
X164280952Y-129302380D01*
X164185714Y-129254761D01*
X164138095Y-129207142D01*
X165328571Y-128302380D02*
X165423809Y-128302380D01*
X165519047Y-128350000D01*
X165566666Y-128397619D01*
X165614285Y-128492857D01*
X165661904Y-128683333D01*
X165661904Y-128921428D01*
X165614285Y-129111904D01*
X165566666Y-129207142D01*
X165519047Y-129254761D01*
X165423809Y-129302380D01*
X165328571Y-129302380D01*
X165233333Y-129254761D01*
X165185714Y-129207142D01*
X165138095Y-129111904D01*
X165090476Y-128921428D01*
X165090476Y-128683333D01*
X165138095Y-128492857D01*
X165185714Y-128397619D01*
X165233333Y-128350000D01*
X165328571Y-128302380D01*
X163357142Y-119902380D02*
X163023809Y-119426190D01*
X162785714Y-119902380D02*
X162785714Y-118902380D01*
X163166666Y-118902380D01*
X163261904Y-118950000D01*
X163309523Y-118997619D01*
X163357142Y-119092857D01*
X163357142Y-119235714D01*
X163309523Y-119330952D01*
X163261904Y-119378571D01*
X163166666Y-119426190D01*
X162785714Y-119426190D01*
X164261904Y-118902380D02*
X163785714Y-118902380D01*
X163738095Y-119378571D01*
X163785714Y-119330952D01*
X163880952Y-119283333D01*
X164119047Y-119283333D01*
X164214285Y-119330952D01*
X164261904Y-119378571D01*
X164309523Y-119473809D01*
X164309523Y-119711904D01*
X164261904Y-119807142D01*
X164214285Y-119854761D01*
X164119047Y-119902380D01*
X163880952Y-119902380D01*
X163785714Y-119854761D01*
X163738095Y-119807142D01*
X165261904Y-119902380D02*
X164690476Y-119902380D01*
X164976190Y-119902380D02*
X164976190Y-118902380D01*
X164880952Y-119045238D01*
X164785714Y-119140476D01*
X164690476Y-119188095D01*
X159357142Y-122802380D02*
X159023809Y-122326190D01*
X158785714Y-122802380D02*
X158785714Y-121802380D01*
X159166666Y-121802380D01*
X159261904Y-121850000D01*
X159309523Y-121897619D01*
X159357142Y-121992857D01*
X159357142Y-122135714D01*
X159309523Y-122230952D01*
X159261904Y-122278571D01*
X159166666Y-122326190D01*
X158785714Y-122326190D01*
X160261904Y-121802380D02*
X159785714Y-121802380D01*
X159738095Y-122278571D01*
X159785714Y-122230952D01*
X159880952Y-122183333D01*
X160119047Y-122183333D01*
X160214285Y-122230952D01*
X160261904Y-122278571D01*
X160309523Y-122373809D01*
X160309523Y-122611904D01*
X160261904Y-122707142D01*
X160214285Y-122754761D01*
X160119047Y-122802380D01*
X159880952Y-122802380D01*
X159785714Y-122754761D01*
X159738095Y-122707142D01*
X160690476Y-121897619D02*
X160738095Y-121850000D01*
X160833333Y-121802380D01*
X161071428Y-121802380D01*
X161166666Y-121850000D01*
X161214285Y-121897619D01*
X161261904Y-121992857D01*
X161261904Y-122088095D01*
X161214285Y-122230952D01*
X160642857Y-122802380D01*
X161261904Y-122802380D01*
X150357142Y-129102380D02*
X150023809Y-128626190D01*
X149785714Y-129102380D02*
X149785714Y-128102380D01*
X150166666Y-128102380D01*
X150261904Y-128150000D01*
X150309523Y-128197619D01*
X150357142Y-128292857D01*
X150357142Y-128435714D01*
X150309523Y-128530952D01*
X150261904Y-128578571D01*
X150166666Y-128626190D01*
X149785714Y-128626190D01*
X151261904Y-128102380D02*
X150785714Y-128102380D01*
X150738095Y-128578571D01*
X150785714Y-128530952D01*
X150880952Y-128483333D01*
X151119047Y-128483333D01*
X151214285Y-128530952D01*
X151261904Y-128578571D01*
X151309523Y-128673809D01*
X151309523Y-128911904D01*
X151261904Y-129007142D01*
X151214285Y-129054761D01*
X151119047Y-129102380D01*
X150880952Y-129102380D01*
X150785714Y-129054761D01*
X150738095Y-129007142D01*
X151642857Y-128102380D02*
X152261904Y-128102380D01*
X151928571Y-128483333D01*
X152071428Y-128483333D01*
X152166666Y-128530952D01*
X152214285Y-128578571D01*
X152261904Y-128673809D01*
X152261904Y-128911904D01*
X152214285Y-129007142D01*
X152166666Y-129054761D01*
X152071428Y-129102380D01*
X151785714Y-129102380D01*
X151690476Y-129054761D01*
X151642857Y-129007142D01*
X136357142Y-117052380D02*
X136023809Y-116576190D01*
X135785714Y-117052380D02*
X135785714Y-116052380D01*
X136166666Y-116052380D01*
X136261904Y-116100000D01*
X136309523Y-116147619D01*
X136357142Y-116242857D01*
X136357142Y-116385714D01*
X136309523Y-116480952D01*
X136261904Y-116528571D01*
X136166666Y-116576190D01*
X135785714Y-116576190D01*
X137261904Y-116052380D02*
X136785714Y-116052380D01*
X136738095Y-116528571D01*
X136785714Y-116480952D01*
X136880952Y-116433333D01*
X137119047Y-116433333D01*
X137214285Y-116480952D01*
X137261904Y-116528571D01*
X137309523Y-116623809D01*
X137309523Y-116861904D01*
X137261904Y-116957142D01*
X137214285Y-117004761D01*
X137119047Y-117052380D01*
X136880952Y-117052380D01*
X136785714Y-117004761D01*
X136738095Y-116957142D01*
X138166666Y-116385714D02*
X138166666Y-117052380D01*
X137928571Y-116004761D02*
X137690476Y-116719047D01*
X138309523Y-116719047D01*
X163102380Y-129592857D02*
X162626190Y-129926190D01*
X163102380Y-130164285D02*
X162102380Y-130164285D01*
X162102380Y-129783333D01*
X162150000Y-129688095D01*
X162197619Y-129640476D01*
X162292857Y-129592857D01*
X162435714Y-129592857D01*
X162530952Y-129640476D01*
X162578571Y-129688095D01*
X162626190Y-129783333D01*
X162626190Y-130164285D01*
X162102380Y-128688095D02*
X162102380Y-129164285D01*
X162578571Y-129211904D01*
X162530952Y-129164285D01*
X162483333Y-129069047D01*
X162483333Y-128830952D01*
X162530952Y-128735714D01*
X162578571Y-128688095D01*
X162673809Y-128640476D01*
X162911904Y-128640476D01*
X163007142Y-128688095D01*
X163054761Y-128735714D01*
X163102380Y-128830952D01*
X163102380Y-129069047D01*
X163054761Y-129164285D01*
X163007142Y-129211904D01*
X162102380Y-127735714D02*
X162102380Y-128211904D01*
X162578571Y-128259523D01*
X162530952Y-128211904D01*
X162483333Y-128116666D01*
X162483333Y-127878571D01*
X162530952Y-127783333D01*
X162578571Y-127735714D01*
X162673809Y-127688095D01*
X162911904Y-127688095D01*
X163007142Y-127735714D01*
X163054761Y-127783333D01*
X163102380Y-127878571D01*
X163102380Y-128116666D01*
X163054761Y-128211904D01*
X163007142Y-128259523D01*
X161902380Y-120192857D02*
X161426190Y-120526190D01*
X161902380Y-120764285D02*
X160902380Y-120764285D01*
X160902380Y-120383333D01*
X160950000Y-120288095D01*
X160997619Y-120240476D01*
X161092857Y-120192857D01*
X161235714Y-120192857D01*
X161330952Y-120240476D01*
X161378571Y-120288095D01*
X161426190Y-120383333D01*
X161426190Y-120764285D01*
X160902380Y-119288095D02*
X160902380Y-119764285D01*
X161378571Y-119811904D01*
X161330952Y-119764285D01*
X161283333Y-119669047D01*
X161283333Y-119430952D01*
X161330952Y-119335714D01*
X161378571Y-119288095D01*
X161473809Y-119240476D01*
X161711904Y-119240476D01*
X161807142Y-119288095D01*
X161854761Y-119335714D01*
X161902380Y-119430952D01*
X161902380Y-119669047D01*
X161854761Y-119764285D01*
X161807142Y-119811904D01*
X160902380Y-118383333D02*
X160902380Y-118573809D01*
X160950000Y-118669047D01*
X160997619Y-118716666D01*
X161140476Y-118811904D01*
X161330952Y-118859523D01*
X161711904Y-118859523D01*
X161807142Y-118811904D01*
X161854761Y-118764285D01*
X161902380Y-118669047D01*
X161902380Y-118478571D01*
X161854761Y-118383333D01*
X161807142Y-118335714D01*
X161711904Y-118288095D01*
X161473809Y-118288095D01*
X161378571Y-118335714D01*
X161330952Y-118383333D01*
X161283333Y-118478571D01*
X161283333Y-118669047D01*
X161330952Y-118764285D01*
X161378571Y-118811904D01*
X161473809Y-118859523D01*
X135882142Y-76152380D02*
X135548809Y-75676190D01*
X135310714Y-76152380D02*
X135310714Y-75152380D01*
X135691666Y-75152380D01*
X135786904Y-75200000D01*
X135834523Y-75247619D01*
X135882142Y-75342857D01*
X135882142Y-75485714D01*
X135834523Y-75580952D01*
X135786904Y-75628571D01*
X135691666Y-75676190D01*
X135310714Y-75676190D01*
X136786904Y-75152380D02*
X136310714Y-75152380D01*
X136263095Y-75628571D01*
X136310714Y-75580952D01*
X136405952Y-75533333D01*
X136644047Y-75533333D01*
X136739285Y-75580952D01*
X136786904Y-75628571D01*
X136834523Y-75723809D01*
X136834523Y-75961904D01*
X136786904Y-76057142D01*
X136739285Y-76104761D01*
X136644047Y-76152380D01*
X136405952Y-76152380D01*
X136310714Y-76104761D01*
X136263095Y-76057142D01*
X137167857Y-75152380D02*
X137834523Y-75152380D01*
X137405952Y-76152380D01*
X150857142Y-76152380D02*
X150523809Y-75676190D01*
X150285714Y-76152380D02*
X150285714Y-75152380D01*
X150666666Y-75152380D01*
X150761904Y-75200000D01*
X150809523Y-75247619D01*
X150857142Y-75342857D01*
X150857142Y-75485714D01*
X150809523Y-75580952D01*
X150761904Y-75628571D01*
X150666666Y-75676190D01*
X150285714Y-75676190D01*
X151761904Y-75152380D02*
X151285714Y-75152380D01*
X151238095Y-75628571D01*
X151285714Y-75580952D01*
X151380952Y-75533333D01*
X151619047Y-75533333D01*
X151714285Y-75580952D01*
X151761904Y-75628571D01*
X151809523Y-75723809D01*
X151809523Y-75961904D01*
X151761904Y-76057142D01*
X151714285Y-76104761D01*
X151619047Y-76152380D01*
X151380952Y-76152380D01*
X151285714Y-76104761D01*
X151238095Y-76057142D01*
X152380952Y-75580952D02*
X152285714Y-75533333D01*
X152238095Y-75485714D01*
X152190476Y-75390476D01*
X152190476Y-75342857D01*
X152238095Y-75247619D01*
X152285714Y-75200000D01*
X152380952Y-75152380D01*
X152571428Y-75152380D01*
X152666666Y-75200000D01*
X152714285Y-75247619D01*
X152761904Y-75342857D01*
X152761904Y-75390476D01*
X152714285Y-75485714D01*
X152666666Y-75533333D01*
X152571428Y-75580952D01*
X152380952Y-75580952D01*
X152285714Y-75628571D01*
X152238095Y-75676190D01*
X152190476Y-75771428D01*
X152190476Y-75961904D01*
X152238095Y-76057142D01*
X152285714Y-76104761D01*
X152380952Y-76152380D01*
X152571428Y-76152380D01*
X152666666Y-76104761D01*
X152714285Y-76057142D01*
X152761904Y-75961904D01*
X152761904Y-75771428D01*
X152714285Y-75676190D01*
X152666666Y-75628571D01*
X152571428Y-75580952D01*
X165857142Y-76152380D02*
X165523809Y-75676190D01*
X165285714Y-76152380D02*
X165285714Y-75152380D01*
X165666666Y-75152380D01*
X165761904Y-75200000D01*
X165809523Y-75247619D01*
X165857142Y-75342857D01*
X165857142Y-75485714D01*
X165809523Y-75580952D01*
X165761904Y-75628571D01*
X165666666Y-75676190D01*
X165285714Y-75676190D01*
X166761904Y-75152380D02*
X166285714Y-75152380D01*
X166238095Y-75628571D01*
X166285714Y-75580952D01*
X166380952Y-75533333D01*
X166619047Y-75533333D01*
X166714285Y-75580952D01*
X166761904Y-75628571D01*
X166809523Y-75723809D01*
X166809523Y-75961904D01*
X166761904Y-76057142D01*
X166714285Y-76104761D01*
X166619047Y-76152380D01*
X166380952Y-76152380D01*
X166285714Y-76104761D01*
X166238095Y-76057142D01*
X167285714Y-76152380D02*
X167476190Y-76152380D01*
X167571428Y-76104761D01*
X167619047Y-76057142D01*
X167714285Y-75914285D01*
X167761904Y-75723809D01*
X167761904Y-75342857D01*
X167714285Y-75247619D01*
X167666666Y-75200000D01*
X167571428Y-75152380D01*
X167380952Y-75152380D01*
X167285714Y-75200000D01*
X167238095Y-75247619D01*
X167190476Y-75342857D01*
X167190476Y-75580952D01*
X167238095Y-75676190D01*
X167285714Y-75723809D01*
X167380952Y-75771428D01*
X167571428Y-75771428D01*
X167666666Y-75723809D01*
X167714285Y-75676190D01*
X167761904Y-75580952D01*
X177104761Y-85833333D02*
X177152380Y-85690476D01*
X177152380Y-85452380D01*
X177104761Y-85357142D01*
X177057142Y-85309523D01*
X176961904Y-85261904D01*
X176866666Y-85261904D01*
X176771428Y-85309523D01*
X176723809Y-85357142D01*
X176676190Y-85452380D01*
X176628571Y-85642857D01*
X176580952Y-85738095D01*
X176533333Y-85785714D01*
X176438095Y-85833333D01*
X176342857Y-85833333D01*
X176247619Y-85785714D01*
X176200000Y-85738095D01*
X176152380Y-85642857D01*
X176152380Y-85404761D01*
X176200000Y-85261904D01*
X176152380Y-84928571D02*
X177152380Y-84690476D01*
X176438095Y-84500000D01*
X177152380Y-84309523D01*
X176152380Y-84071428D01*
X176152380Y-83500000D02*
X176152380Y-83404761D01*
X176200000Y-83309523D01*
X176247619Y-83261904D01*
X176342857Y-83214285D01*
X176533333Y-83166666D01*
X176771428Y-83166666D01*
X176961904Y-83214285D01*
X177057142Y-83261904D01*
X177104761Y-83309523D01*
X177152380Y-83404761D01*
X177152380Y-83500000D01*
X177104761Y-83595238D01*
X177057142Y-83642857D01*
X176961904Y-83690476D01*
X176771428Y-83738095D01*
X176533333Y-83738095D01*
X176342857Y-83690476D01*
X176247619Y-83642857D01*
X176200000Y-83595238D01*
X176152380Y-83500000D01*
X116704761Y-92833333D02*
X116752380Y-92690476D01*
X116752380Y-92452380D01*
X116704761Y-92357142D01*
X116657142Y-92309523D01*
X116561904Y-92261904D01*
X116466666Y-92261904D01*
X116371428Y-92309523D01*
X116323809Y-92357142D01*
X116276190Y-92452380D01*
X116228571Y-92642857D01*
X116180952Y-92738095D01*
X116133333Y-92785714D01*
X116038095Y-92833333D01*
X115942857Y-92833333D01*
X115847619Y-92785714D01*
X115800000Y-92738095D01*
X115752380Y-92642857D01*
X115752380Y-92404761D01*
X115800000Y-92261904D01*
X115752380Y-91928571D02*
X116752380Y-91690476D01*
X116038095Y-91500000D01*
X116752380Y-91309523D01*
X115752380Y-91071428D01*
X116752380Y-90166666D02*
X116752380Y-90738095D01*
X116752380Y-90452380D02*
X115752380Y-90452380D01*
X115895238Y-90547619D01*
X115990476Y-90642857D01*
X116038095Y-90738095D01*
X156863722Y-126051817D02*
X157006579Y-126099436D01*
X157244675Y-126099436D01*
X157339913Y-126051817D01*
X157387532Y-126004198D01*
X157435151Y-125908960D01*
X157435151Y-125813722D01*
X157387532Y-125718484D01*
X157339913Y-125670865D01*
X157244675Y-125623246D01*
X157054198Y-125575627D01*
X156958960Y-125528008D01*
X156911341Y-125480389D01*
X156863722Y-125385151D01*
X156863722Y-125289913D01*
X156911341Y-125194675D01*
X156958960Y-125147056D01*
X157054198Y-125099436D01*
X157292294Y-125099436D01*
X157435151Y-125147056D01*
X157768484Y-125099436D02*
X158006579Y-126099436D01*
X158197056Y-125385151D01*
X158387532Y-126099436D01*
X158625627Y-125099436D01*
X158958960Y-125194675D02*
X159006579Y-125147056D01*
X159101817Y-125099436D01*
X159339913Y-125099436D01*
X159435151Y-125147056D01*
X159482770Y-125194675D01*
X159530389Y-125289913D01*
X159530389Y-125385151D01*
X159482770Y-125528008D01*
X158911341Y-126099436D01*
X159530389Y-126099436D01*
X168646666Y-126104761D02*
X168789523Y-126152380D01*
X169027619Y-126152380D01*
X169122857Y-126104761D01*
X169170476Y-126057142D01*
X169218095Y-125961904D01*
X169218095Y-125866666D01*
X169170476Y-125771428D01*
X169122857Y-125723809D01*
X169027619Y-125676190D01*
X168837142Y-125628571D01*
X168741904Y-125580952D01*
X168694285Y-125533333D01*
X168646666Y-125438095D01*
X168646666Y-125342857D01*
X168694285Y-125247619D01*
X168741904Y-125200000D01*
X168837142Y-125152380D01*
X169075238Y-125152380D01*
X169218095Y-125200000D01*
X169551428Y-125152380D02*
X169789523Y-126152380D01*
X169980000Y-125438095D01*
X170170476Y-126152380D01*
X170408571Y-125152380D01*
X170694285Y-125152380D02*
X171313333Y-125152380D01*
X170980000Y-125533333D01*
X171122857Y-125533333D01*
X171218095Y-125580952D01*
X171265714Y-125628571D01*
X171313333Y-125723809D01*
X171313333Y-125961904D01*
X171265714Y-126057142D01*
X171218095Y-126104761D01*
X171122857Y-126152380D01*
X170837142Y-126152380D01*
X170741904Y-126104761D01*
X170694285Y-126057142D01*
X168646666Y-116604761D02*
X168789523Y-116652380D01*
X169027619Y-116652380D01*
X169122857Y-116604761D01*
X169170476Y-116557142D01*
X169218095Y-116461904D01*
X169218095Y-116366666D01*
X169170476Y-116271428D01*
X169122857Y-116223809D01*
X169027619Y-116176190D01*
X168837142Y-116128571D01*
X168741904Y-116080952D01*
X168694285Y-116033333D01*
X168646666Y-115938095D01*
X168646666Y-115842857D01*
X168694285Y-115747619D01*
X168741904Y-115700000D01*
X168837142Y-115652380D01*
X169075238Y-115652380D01*
X169218095Y-115700000D01*
X169551428Y-115652380D02*
X169789523Y-116652380D01*
X169980000Y-115938095D01*
X170170476Y-116652380D01*
X170408571Y-115652380D01*
X171218095Y-115985714D02*
X171218095Y-116652380D01*
X170980000Y-115604761D02*
X170741904Y-116319047D01*
X171360952Y-116319047D01*
X168669761Y-83833333D02*
X168717380Y-83690476D01*
X168717380Y-83452380D01*
X168669761Y-83357142D01*
X168622142Y-83309523D01*
X168526904Y-83261904D01*
X168431666Y-83261904D01*
X168336428Y-83309523D01*
X168288809Y-83357142D01*
X168241190Y-83452380D01*
X168193571Y-83642857D01*
X168145952Y-83738095D01*
X168098333Y-83785714D01*
X168003095Y-83833333D01*
X167907857Y-83833333D01*
X167812619Y-83785714D01*
X167765000Y-83738095D01*
X167717380Y-83642857D01*
X167717380Y-83404761D01*
X167765000Y-83261904D01*
X167717380Y-82928571D02*
X168717380Y-82690476D01*
X168003095Y-82500000D01*
X168717380Y-82309523D01*
X167717380Y-82071428D01*
X167717380Y-81214285D02*
X167717380Y-81690476D01*
X168193571Y-81738095D01*
X168145952Y-81690476D01*
X168098333Y-81595238D01*
X168098333Y-81357142D01*
X168145952Y-81261904D01*
X168193571Y-81214285D01*
X168288809Y-81166666D01*
X168526904Y-81166666D01*
X168622142Y-81214285D01*
X168669761Y-81261904D01*
X168717380Y-81357142D01*
X168717380Y-81595238D01*
X168669761Y-81690476D01*
X168622142Y-81738095D01*
X176238095Y-107452380D02*
X176238095Y-108261904D01*
X176285714Y-108357142D01*
X176333333Y-108404761D01*
X176428571Y-108452380D01*
X176619047Y-108452380D01*
X176714285Y-108404761D01*
X176761904Y-108357142D01*
X176809523Y-108261904D01*
X176809523Y-107452380D01*
X177809523Y-108452380D02*
X177238095Y-108452380D01*
X177523809Y-108452380D02*
X177523809Y-107452380D01*
X177428571Y-107595238D01*
X177333333Y-107690476D01*
X177238095Y-107738095D01*
X127002380Y-72261904D02*
X127811904Y-72261904D01*
X127907142Y-72214285D01*
X127954761Y-72166666D01*
X128002380Y-72071428D01*
X128002380Y-71880952D01*
X127954761Y-71785714D01*
X127907142Y-71738095D01*
X127811904Y-71690476D01*
X127002380Y-71690476D01*
X127097619Y-71261904D02*
X127050000Y-71214285D01*
X127002380Y-71119047D01*
X127002380Y-70880952D01*
X127050000Y-70785714D01*
X127097619Y-70738095D01*
X127192857Y-70690476D01*
X127288095Y-70690476D01*
X127430952Y-70738095D01*
X128002380Y-71309523D01*
X128002380Y-70690476D01*
X142002380Y-72261904D02*
X142811904Y-72261904D01*
X142907142Y-72214285D01*
X142954761Y-72166666D01*
X143002380Y-72071428D01*
X143002380Y-71880952D01*
X142954761Y-71785714D01*
X142907142Y-71738095D01*
X142811904Y-71690476D01*
X142002380Y-71690476D01*
X142002380Y-71309523D02*
X142002380Y-70690476D01*
X142383333Y-71023809D01*
X142383333Y-70880952D01*
X142430952Y-70785714D01*
X142478571Y-70738095D01*
X142573809Y-70690476D01*
X142811904Y-70690476D01*
X142907142Y-70738095D01*
X142954761Y-70785714D01*
X143002380Y-70880952D01*
X143002380Y-71166666D01*
X142954761Y-71261904D01*
X142907142Y-71309523D01*
X157002380Y-72261904D02*
X157811904Y-72261904D01*
X157907142Y-72214285D01*
X157954761Y-72166666D01*
X158002380Y-72071428D01*
X158002380Y-71880952D01*
X157954761Y-71785714D01*
X157907142Y-71738095D01*
X157811904Y-71690476D01*
X157002380Y-71690476D01*
X157335714Y-70785714D02*
X158002380Y-70785714D01*
X156954761Y-71023809D02*
X157669047Y-71261904D01*
X157669047Y-70642857D01*
X172002380Y-72261904D02*
X172811904Y-72261904D01*
X172907142Y-72214285D01*
X172954761Y-72166666D01*
X173002380Y-72071428D01*
X173002380Y-71880952D01*
X172954761Y-71785714D01*
X172907142Y-71738095D01*
X172811904Y-71690476D01*
X172002380Y-71690476D01*
X172002380Y-70738095D02*
X172002380Y-71214285D01*
X172478571Y-71261904D01*
X172430952Y-71214285D01*
X172383333Y-71119047D01*
X172383333Y-70880952D01*
X172430952Y-70785714D01*
X172478571Y-70738095D01*
X172573809Y-70690476D01*
X172811904Y-70690476D01*
X172907142Y-70738095D01*
X172954761Y-70785714D01*
X173002380Y-70880952D01*
X173002380Y-71119047D01*
X172954761Y-71214285D01*
X172907142Y-71261904D01*
X147002380Y-111261904D02*
X147811904Y-111261904D01*
X147907142Y-111214285D01*
X147954761Y-111166666D01*
X148002380Y-111071428D01*
X148002380Y-110880952D01*
X147954761Y-110785714D01*
X147907142Y-110738095D01*
X147811904Y-110690476D01*
X147002380Y-110690476D01*
X147002380Y-110309523D02*
X147002380Y-109642857D01*
X148002380Y-110071428D01*
X154002380Y-111261904D02*
X154811904Y-111261904D01*
X154907142Y-111214285D01*
X154954761Y-111166666D01*
X155002380Y-111071428D01*
X155002380Y-110880952D01*
X154954761Y-110785714D01*
X154907142Y-110738095D01*
X154811904Y-110690476D01*
X154002380Y-110690476D01*
X154430952Y-110071428D02*
X154383333Y-110166666D01*
X154335714Y-110214285D01*
X154240476Y-110261904D01*
X154192857Y-110261904D01*
X154097619Y-110214285D01*
X154050000Y-110166666D01*
X154002380Y-110071428D01*
X154002380Y-109880952D01*
X154050000Y-109785714D01*
X154097619Y-109738095D01*
X154192857Y-109690476D01*
X154240476Y-109690476D01*
X154335714Y-109738095D01*
X154383333Y-109785714D01*
X154430952Y-109880952D01*
X154430952Y-110071428D01*
X154478571Y-110166666D01*
X154526190Y-110214285D01*
X154621428Y-110261904D01*
X154811904Y-110261904D01*
X154907142Y-110214285D01*
X154954761Y-110166666D01*
X155002380Y-110071428D01*
X155002380Y-109880952D01*
X154954761Y-109785714D01*
X154907142Y-109738095D01*
X154811904Y-109690476D01*
X154621428Y-109690476D01*
X154526190Y-109738095D01*
X154478571Y-109785714D01*
X154430952Y-109880952D01*
X161002380Y-111261904D02*
X161811904Y-111261904D01*
X161907142Y-111214285D01*
X161954761Y-111166666D01*
X162002380Y-111071428D01*
X162002380Y-110880952D01*
X161954761Y-110785714D01*
X161907142Y-110738095D01*
X161811904Y-110690476D01*
X161002380Y-110690476D01*
X162002380Y-110166666D02*
X162002380Y-109976190D01*
X161954761Y-109880952D01*
X161907142Y-109833333D01*
X161764285Y-109738095D01*
X161573809Y-109690476D01*
X161192857Y-109690476D01*
X161097619Y-109738095D01*
X161050000Y-109785714D01*
X161002380Y-109880952D01*
X161002380Y-110071428D01*
X161050000Y-110166666D01*
X161097619Y-110214285D01*
X161192857Y-110261904D01*
X161430952Y-110261904D01*
X161526190Y-110214285D01*
X161573809Y-110166666D01*
X161621428Y-110071428D01*
X161621428Y-109880952D01*
X161573809Y-109785714D01*
X161526190Y-109738095D01*
X161430952Y-109690476D01*
X168002380Y-111738095D02*
X168811904Y-111738095D01*
X168907142Y-111690476D01*
X168954761Y-111642857D01*
X169002380Y-111547619D01*
X169002380Y-111357142D01*
X168954761Y-111261904D01*
X168907142Y-111214285D01*
X168811904Y-111166666D01*
X168002380Y-111166666D01*
X169002380Y-110166666D02*
X169002380Y-110738095D01*
X169002380Y-110452380D02*
X168002380Y-110452380D01*
X168145238Y-110547619D01*
X168240476Y-110642857D01*
X168288095Y-110738095D01*
X168002380Y-109547619D02*
X168002380Y-109452380D01*
X168050000Y-109357142D01*
X168097619Y-109309523D01*
X168192857Y-109261904D01*
X168383333Y-109214285D01*
X168621428Y-109214285D01*
X168811904Y-109261904D01*
X168907142Y-109309523D01*
X168954761Y-109357142D01*
X169002380Y-109452380D01*
X169002380Y-109547619D01*
X168954761Y-109642857D01*
X168907142Y-109690476D01*
X168811904Y-109738095D01*
X168621428Y-109785714D01*
X168383333Y-109785714D01*
X168192857Y-109738095D01*
X168097619Y-109690476D01*
X168050000Y-109642857D01*
X168002380Y-109547619D01*
X140802380Y-100908095D02*
X141611904Y-100908095D01*
X141707142Y-100860476D01*
X141754761Y-100812857D01*
X141802380Y-100717619D01*
X141802380Y-100527142D01*
X141754761Y-100431904D01*
X141707142Y-100384285D01*
X141611904Y-100336666D01*
X140802380Y-100336666D01*
X141802380Y-99336666D02*
X141802380Y-99908095D01*
X141802380Y-99622380D02*
X140802380Y-99622380D01*
X140945238Y-99717619D01*
X141040476Y-99812857D01*
X141088095Y-99908095D01*
X140897619Y-98955714D02*
X140850000Y-98908095D01*
X140802380Y-98812857D01*
X140802380Y-98574761D01*
X140850000Y-98479523D01*
X140897619Y-98431904D01*
X140992857Y-98384285D01*
X141088095Y-98384285D01*
X141230952Y-98431904D01*
X141802380Y-99003333D01*
X141802380Y-98384285D01*
X138761904Y-126402380D02*
X138761904Y-127211904D01*
X138809523Y-127307142D01*
X138857142Y-127354761D01*
X138952380Y-127402380D01*
X139142857Y-127402380D01*
X139238095Y-127354761D01*
X139285714Y-127307142D01*
X139333333Y-127211904D01*
X139333333Y-126402380D01*
X140333333Y-127402380D02*
X139761904Y-127402380D01*
X140047619Y-127402380D02*
X140047619Y-126402380D01*
X139952380Y-126545238D01*
X139857142Y-126640476D01*
X139761904Y-126688095D01*
X140666666Y-126402380D02*
X141285714Y-126402380D01*
X140952380Y-126783333D01*
X141095238Y-126783333D01*
X141190476Y-126830952D01*
X141238095Y-126878571D01*
X141285714Y-126973809D01*
X141285714Y-127211904D01*
X141238095Y-127307142D01*
X141190476Y-127354761D01*
X141095238Y-127402380D01*
X140809523Y-127402380D01*
X140714285Y-127354761D01*
X140666666Y-127307142D01*
X151498809Y-117201190D02*
X151498809Y-117677380D01*
X151165476Y-116677380D02*
X151498809Y-117201190D01*
X151832142Y-116677380D01*
X152355952Y-116677380D02*
X152451190Y-116677380D01*
X152546428Y-116725000D01*
X152594047Y-116772619D01*
X152641666Y-116867857D01*
X152689285Y-117058333D01*
X152689285Y-117296428D01*
X152641666Y-117486904D01*
X152594047Y-117582142D01*
X152546428Y-117629761D01*
X152451190Y-117677380D01*
X152355952Y-117677380D01*
X152260714Y-117629761D01*
X152213095Y-117582142D01*
X152165476Y-117486904D01*
X152117857Y-117296428D01*
X152117857Y-117058333D01*
X152165476Y-116867857D01*
X152213095Y-116772619D01*
X152260714Y-116725000D01*
X152355952Y-116677380D01*
X134246190Y-118351190D02*
X134722380Y-118351190D01*
X133722380Y-118684523D02*
X134246190Y-118351190D01*
X133722380Y-118017857D01*
X134722380Y-117160714D02*
X134722380Y-117732142D01*
X134722380Y-117446428D02*
X133722380Y-117446428D01*
X133865238Y-117541666D01*
X133960476Y-117636904D01*
X134008095Y-117732142D01*
X177690476Y-52752380D02*
X177690476Y-51752380D01*
X178023809Y-52466666D01*
X178357142Y-51752380D01*
X178357142Y-52752380D01*
X178833333Y-52752380D02*
X178833333Y-51752380D01*
X179404761Y-52752380D02*
X178976190Y-52180952D01*
X179404761Y-51752380D02*
X178833333Y-52323809D01*
X180357142Y-52752380D02*
X179785714Y-52752380D01*
X180071428Y-52752380D02*
X180071428Y-51752380D01*
X179976190Y-51895238D01*
X179880952Y-51990476D01*
X179785714Y-52038095D01*
X112690476Y-52752380D02*
X112690476Y-51752380D01*
X113023809Y-52466666D01*
X113357142Y-51752380D01*
X113357142Y-52752380D01*
X113833333Y-52752380D02*
X113833333Y-51752380D01*
X114404761Y-52752380D02*
X113976190Y-52180952D01*
X114404761Y-51752380D02*
X113833333Y-52323809D01*
X115023809Y-51752380D02*
X115119047Y-51752380D01*
X115214285Y-51800000D01*
X115261904Y-51847619D01*
X115309523Y-51942857D01*
X115357142Y-52133333D01*
X115357142Y-52371428D01*
X115309523Y-52561904D01*
X115261904Y-52657142D01*
X115214285Y-52704761D01*
X115119047Y-52752380D01*
X115023809Y-52752380D01*
X114928571Y-52704761D01*
X114880952Y-52657142D01*
X114833333Y-52561904D01*
X114785714Y-52371428D01*
X114785714Y-52133333D01*
X114833333Y-51942857D01*
X114880952Y-51847619D01*
X114928571Y-51800000D01*
X115023809Y-51752380D01*
X112690476Y-125352380D02*
X112690476Y-124352380D01*
X113023809Y-125066666D01*
X113357142Y-124352380D01*
X113357142Y-125352380D01*
X113833333Y-125352380D02*
X113833333Y-124352380D01*
X114404761Y-125352380D02*
X113976190Y-124780952D01*
X114404761Y-124352380D02*
X113833333Y-124923809D01*
X114785714Y-124447619D02*
X114833333Y-124400000D01*
X114928571Y-124352380D01*
X115166666Y-124352380D01*
X115261904Y-124400000D01*
X115309523Y-124447619D01*
X115357142Y-124542857D01*
X115357142Y-124638095D01*
X115309523Y-124780952D01*
X114738095Y-125352380D01*
X115357142Y-125352380D01*
X177690476Y-125352380D02*
X177690476Y-124352380D01*
X178023809Y-125066666D01*
X178357142Y-124352380D01*
X178357142Y-125352380D01*
X178833333Y-125352380D02*
X178833333Y-124352380D01*
X179404761Y-125352380D02*
X178976190Y-124780952D01*
X179404761Y-124352380D02*
X178833333Y-124923809D01*
X179738095Y-124352380D02*
X180357142Y-124352380D01*
X180023809Y-124733333D01*
X180166666Y-124733333D01*
X180261904Y-124780952D01*
X180309523Y-124828571D01*
X180357142Y-124923809D01*
X180357142Y-125161904D01*
X180309523Y-125257142D01*
X180261904Y-125304761D01*
X180166666Y-125352380D01*
X179880952Y-125352380D01*
X179785714Y-125304761D01*
X179738095Y-125257142D01*
X181066666Y-122652380D02*
X180733333Y-122176190D01*
X180495238Y-122652380D02*
X180495238Y-121652380D01*
X180876190Y-121652380D01*
X180971428Y-121700000D01*
X181019047Y-121747619D01*
X181066666Y-121842857D01*
X181066666Y-121985714D01*
X181019047Y-122080952D01*
X180971428Y-122128571D01*
X180876190Y-122176190D01*
X180495238Y-122176190D01*
X181495238Y-122128571D02*
X181828571Y-122128571D01*
X181971428Y-122652380D02*
X181495238Y-122652380D01*
X181495238Y-121652380D01*
X181971428Y-121652380D01*
X182733333Y-122128571D02*
X182400000Y-122128571D01*
X182400000Y-122652380D02*
X182400000Y-121652380D01*
X182876190Y-121652380D01*
X183400000Y-121652380D02*
X183400000Y-121890476D01*
X183161904Y-121795238D02*
X183400000Y-121890476D01*
X183638095Y-121795238D01*
X183257142Y-122080952D02*
X183400000Y-121890476D01*
X183542857Y-122080952D01*
X184161904Y-121652380D02*
X184161904Y-121890476D01*
X183923809Y-121795238D02*
X184161904Y-121890476D01*
X184400000Y-121795238D01*
X184019047Y-122080952D02*
X184161904Y-121890476D01*
X184304761Y-122080952D01*
X123682142Y-64632142D02*
X123634523Y-64679761D01*
X123491666Y-64727380D01*
X123396428Y-64727380D01*
X123253571Y-64679761D01*
X123158333Y-64584523D01*
X123110714Y-64489285D01*
X123063095Y-64298809D01*
X123063095Y-64155952D01*
X123110714Y-63965476D01*
X123158333Y-63870238D01*
X123253571Y-63775000D01*
X123396428Y-63727380D01*
X123491666Y-63727380D01*
X123634523Y-63775000D01*
X123682142Y-63822619D01*
X124634523Y-64727380D02*
X124063095Y-64727380D01*
X124348809Y-64727380D02*
X124348809Y-63727380D01*
X124253571Y-63870238D01*
X124158333Y-63965476D01*
X124063095Y-64013095D01*
X124967857Y-63727380D02*
X125586904Y-63727380D01*
X125253571Y-64108333D01*
X125396428Y-64108333D01*
X125491666Y-64155952D01*
X125539285Y-64203571D01*
X125586904Y-64298809D01*
X125586904Y-64536904D01*
X125539285Y-64632142D01*
X125491666Y-64679761D01*
X125396428Y-64727380D01*
X125110714Y-64727380D01*
X125015476Y-64679761D01*
X124967857Y-64632142D01*
X138682142Y-64632142D02*
X138634523Y-64679761D01*
X138491666Y-64727380D01*
X138396428Y-64727380D01*
X138253571Y-64679761D01*
X138158333Y-64584523D01*
X138110714Y-64489285D01*
X138063095Y-64298809D01*
X138063095Y-64155952D01*
X138110714Y-63965476D01*
X138158333Y-63870238D01*
X138253571Y-63775000D01*
X138396428Y-63727380D01*
X138491666Y-63727380D01*
X138634523Y-63775000D01*
X138682142Y-63822619D01*
X139634523Y-64727380D02*
X139063095Y-64727380D01*
X139348809Y-64727380D02*
X139348809Y-63727380D01*
X139253571Y-63870238D01*
X139158333Y-63965476D01*
X139063095Y-64013095D01*
X140491666Y-64060714D02*
X140491666Y-64727380D01*
X140253571Y-63679761D02*
X140015476Y-64394047D01*
X140634523Y-64394047D01*
X153682142Y-64632142D02*
X153634523Y-64679761D01*
X153491666Y-64727380D01*
X153396428Y-64727380D01*
X153253571Y-64679761D01*
X153158333Y-64584523D01*
X153110714Y-64489285D01*
X153063095Y-64298809D01*
X153063095Y-64155952D01*
X153110714Y-63965476D01*
X153158333Y-63870238D01*
X153253571Y-63775000D01*
X153396428Y-63727380D01*
X153491666Y-63727380D01*
X153634523Y-63775000D01*
X153682142Y-63822619D01*
X154634523Y-64727380D02*
X154063095Y-64727380D01*
X154348809Y-64727380D02*
X154348809Y-63727380D01*
X154253571Y-63870238D01*
X154158333Y-63965476D01*
X154063095Y-64013095D01*
X155539285Y-63727380D02*
X155063095Y-63727380D01*
X155015476Y-64203571D01*
X155063095Y-64155952D01*
X155158333Y-64108333D01*
X155396428Y-64108333D01*
X155491666Y-64155952D01*
X155539285Y-64203571D01*
X155586904Y-64298809D01*
X155586904Y-64536904D01*
X155539285Y-64632142D01*
X155491666Y-64679761D01*
X155396428Y-64727380D01*
X155158333Y-64727380D01*
X155063095Y-64679761D01*
X155015476Y-64632142D01*
X168682142Y-64632142D02*
X168634523Y-64679761D01*
X168491666Y-64727380D01*
X168396428Y-64727380D01*
X168253571Y-64679761D01*
X168158333Y-64584523D01*
X168110714Y-64489285D01*
X168063095Y-64298809D01*
X168063095Y-64155952D01*
X168110714Y-63965476D01*
X168158333Y-63870238D01*
X168253571Y-63775000D01*
X168396428Y-63727380D01*
X168491666Y-63727380D01*
X168634523Y-63775000D01*
X168682142Y-63822619D01*
X169634523Y-64727380D02*
X169063095Y-64727380D01*
X169348809Y-64727380D02*
X169348809Y-63727380D01*
X169253571Y-63870238D01*
X169158333Y-63965476D01*
X169063095Y-64013095D01*
X170491666Y-63727380D02*
X170301190Y-63727380D01*
X170205952Y-63775000D01*
X170158333Y-63822619D01*
X170063095Y-63965476D01*
X170015476Y-64155952D01*
X170015476Y-64536904D01*
X170063095Y-64632142D01*
X170110714Y-64679761D01*
X170205952Y-64727380D01*
X170396428Y-64727380D01*
X170491666Y-64679761D01*
X170539285Y-64632142D01*
X170586904Y-64536904D01*
X170586904Y-64298809D01*
X170539285Y-64203571D01*
X170491666Y-64155952D01*
X170396428Y-64108333D01*
X170205952Y-64108333D01*
X170110714Y-64155952D01*
X170063095Y-64203571D01*
X170015476Y-64298809D01*
X152177142Y-128892857D02*
X152224761Y-128940476D01*
X152272380Y-129083333D01*
X152272380Y-129178571D01*
X152224761Y-129321428D01*
X152129523Y-129416666D01*
X152034285Y-129464285D01*
X151843809Y-129511904D01*
X151700952Y-129511904D01*
X151510476Y-129464285D01*
X151415238Y-129416666D01*
X151320000Y-129321428D01*
X151272380Y-129178571D01*
X151272380Y-129083333D01*
X151320000Y-128940476D01*
X151367619Y-128892857D01*
X152272380Y-127940476D02*
X152272380Y-128511904D01*
X152272380Y-128226190D02*
X151272380Y-128226190D01*
X151415238Y-128321428D01*
X151510476Y-128416666D01*
X151558095Y-128511904D01*
X151700952Y-127369047D02*
X151653333Y-127464285D01*
X151605714Y-127511904D01*
X151510476Y-127559523D01*
X151462857Y-127559523D01*
X151367619Y-127511904D01*
X151320000Y-127464285D01*
X151272380Y-127369047D01*
X151272380Y-127178571D01*
X151320000Y-127083333D01*
X151367619Y-127035714D01*
X151462857Y-126988095D01*
X151510476Y-126988095D01*
X151605714Y-127035714D01*
X151653333Y-127083333D01*
X151700952Y-127178571D01*
X151700952Y-127369047D01*
X151748571Y-127464285D01*
X151796190Y-127511904D01*
X151891428Y-127559523D01*
X152081904Y-127559523D01*
X152177142Y-127511904D01*
X152224761Y-127464285D01*
X152272380Y-127369047D01*
X152272380Y-127178571D01*
X152224761Y-127083333D01*
X152177142Y-127035714D01*
X152081904Y-126988095D01*
X151891428Y-126988095D01*
X151796190Y-127035714D01*
X151748571Y-127083333D01*
X151700952Y-127178571D01*
X163537142Y-132092857D02*
X163584761Y-132140476D01*
X163632380Y-132283333D01*
X163632380Y-132378571D01*
X163584761Y-132521428D01*
X163489523Y-132616666D01*
X163394285Y-132664285D01*
X163203809Y-132711904D01*
X163060952Y-132711904D01*
X162870476Y-132664285D01*
X162775238Y-132616666D01*
X162680000Y-132521428D01*
X162632380Y-132378571D01*
X162632380Y-132283333D01*
X162680000Y-132140476D01*
X162727619Y-132092857D01*
X163632380Y-131140476D02*
X163632380Y-131711904D01*
X163632380Y-131426190D02*
X162632380Y-131426190D01*
X162775238Y-131521428D01*
X162870476Y-131616666D01*
X162918095Y-131711904D01*
X163632380Y-130664285D02*
X163632380Y-130473809D01*
X163584761Y-130378571D01*
X163537142Y-130330952D01*
X163394285Y-130235714D01*
X163203809Y-130188095D01*
X162822857Y-130188095D01*
X162727619Y-130235714D01*
X162680000Y-130283333D01*
X162632380Y-130378571D01*
X162632380Y-130569047D01*
X162680000Y-130664285D01*
X162727619Y-130711904D01*
X162822857Y-130759523D01*
X163060952Y-130759523D01*
X163156190Y-130711904D01*
X163203809Y-130664285D01*
X163251428Y-130569047D01*
X163251428Y-130378571D01*
X163203809Y-130283333D01*
X163156190Y-130235714D01*
X163060952Y-130188095D01*
X163087142Y-120692857D02*
X163134761Y-120740476D01*
X163182380Y-120883333D01*
X163182380Y-120978571D01*
X163134761Y-121121428D01*
X163039523Y-121216666D01*
X162944285Y-121264285D01*
X162753809Y-121311904D01*
X162610952Y-121311904D01*
X162420476Y-121264285D01*
X162325238Y-121216666D01*
X162230000Y-121121428D01*
X162182380Y-120978571D01*
X162182380Y-120883333D01*
X162230000Y-120740476D01*
X162277619Y-120692857D01*
X162277619Y-120311904D02*
X162230000Y-120264285D01*
X162182380Y-120169047D01*
X162182380Y-119930952D01*
X162230000Y-119835714D01*
X162277619Y-119788095D01*
X162372857Y-119740476D01*
X162468095Y-119740476D01*
X162610952Y-119788095D01*
X163182380Y-120359523D01*
X163182380Y-119740476D01*
X162182380Y-119121428D02*
X162182380Y-119026190D01*
X162230000Y-118930952D01*
X162277619Y-118883333D01*
X162372857Y-118835714D01*
X162563333Y-118788095D01*
X162801428Y-118788095D01*
X162991904Y-118835714D01*
X163087142Y-118883333D01*
X163134761Y-118930952D01*
X163182380Y-119026190D01*
X163182380Y-119121428D01*
X163134761Y-119216666D01*
X163087142Y-119264285D01*
X162991904Y-119311904D01*
X162801428Y-119359523D01*
X162563333Y-119359523D01*
X162372857Y-119311904D01*
X162277619Y-119264285D01*
X162230000Y-119216666D01*
X162182380Y-119121428D01*
X143527142Y-127117857D02*
X143574761Y-127165476D01*
X143622380Y-127308333D01*
X143622380Y-127403571D01*
X143574761Y-127546428D01*
X143479523Y-127641666D01*
X143384285Y-127689285D01*
X143193809Y-127736904D01*
X143050952Y-127736904D01*
X142860476Y-127689285D01*
X142765238Y-127641666D01*
X142670000Y-127546428D01*
X142622380Y-127403571D01*
X142622380Y-127308333D01*
X142670000Y-127165476D01*
X142717619Y-127117857D01*
X142717619Y-126736904D02*
X142670000Y-126689285D01*
X142622380Y-126594047D01*
X142622380Y-126355952D01*
X142670000Y-126260714D01*
X142717619Y-126213095D01*
X142812857Y-126165476D01*
X142908095Y-126165476D01*
X143050952Y-126213095D01*
X143622380Y-126784523D01*
X143622380Y-126165476D01*
X143622380Y-125213095D02*
X143622380Y-125784523D01*
X143622380Y-125498809D02*
X142622380Y-125498809D01*
X142765238Y-125594047D01*
X142860476Y-125689285D01*
X142908095Y-125784523D01*
X144027142Y-117042857D02*
X144074761Y-117090476D01*
X144122380Y-117233333D01*
X144122380Y-117328571D01*
X144074761Y-117471428D01*
X143979523Y-117566666D01*
X143884285Y-117614285D01*
X143693809Y-117661904D01*
X143550952Y-117661904D01*
X143360476Y-117614285D01*
X143265238Y-117566666D01*
X143170000Y-117471428D01*
X143122380Y-117328571D01*
X143122380Y-117233333D01*
X143170000Y-117090476D01*
X143217619Y-117042857D01*
X143217619Y-116661904D02*
X143170000Y-116614285D01*
X143122380Y-116519047D01*
X143122380Y-116280952D01*
X143170000Y-116185714D01*
X143217619Y-116138095D01*
X143312857Y-116090476D01*
X143408095Y-116090476D01*
X143550952Y-116138095D01*
X144122380Y-116709523D01*
X144122380Y-116090476D01*
X143217619Y-115709523D02*
X143170000Y-115661904D01*
X143122380Y-115566666D01*
X143122380Y-115328571D01*
X143170000Y-115233333D01*
X143217619Y-115185714D01*
X143312857Y-115138095D01*
X143408095Y-115138095D01*
X143550952Y-115185714D01*
X144122380Y-115757142D01*
X144122380Y-115138095D01*
X146807142Y-121012142D02*
X146759523Y-121059761D01*
X146616666Y-121107380D01*
X146521428Y-121107380D01*
X146378571Y-121059761D01*
X146283333Y-120964523D01*
X146235714Y-120869285D01*
X146188095Y-120678809D01*
X146188095Y-120535952D01*
X146235714Y-120345476D01*
X146283333Y-120250238D01*
X146378571Y-120155000D01*
X146521428Y-120107380D01*
X146616666Y-120107380D01*
X146759523Y-120155000D01*
X146807142Y-120202619D01*
X147188095Y-120202619D02*
X147235714Y-120155000D01*
X147330952Y-120107380D01*
X147569047Y-120107380D01*
X147664285Y-120155000D01*
X147711904Y-120202619D01*
X147759523Y-120297857D01*
X147759523Y-120393095D01*
X147711904Y-120535952D01*
X147140476Y-121107380D01*
X147759523Y-121107380D01*
X148092857Y-120107380D02*
X148711904Y-120107380D01*
X148378571Y-120488333D01*
X148521428Y-120488333D01*
X148616666Y-120535952D01*
X148664285Y-120583571D01*
X148711904Y-120678809D01*
X148711904Y-120916904D01*
X148664285Y-121012142D01*
X148616666Y-121059761D01*
X148521428Y-121107380D01*
X148235714Y-121107380D01*
X148140476Y-121059761D01*
X148092857Y-121012142D01*
X136707142Y-119937142D02*
X136659523Y-119984761D01*
X136516666Y-120032380D01*
X136421428Y-120032380D01*
X136278571Y-119984761D01*
X136183333Y-119889523D01*
X136135714Y-119794285D01*
X136088095Y-119603809D01*
X136088095Y-119460952D01*
X136135714Y-119270476D01*
X136183333Y-119175238D01*
X136278571Y-119080000D01*
X136421428Y-119032380D01*
X136516666Y-119032380D01*
X136659523Y-119080000D01*
X136707142Y-119127619D01*
X137088095Y-119127619D02*
X137135714Y-119080000D01*
X137230952Y-119032380D01*
X137469047Y-119032380D01*
X137564285Y-119080000D01*
X137611904Y-119127619D01*
X137659523Y-119222857D01*
X137659523Y-119318095D01*
X137611904Y-119460952D01*
X137040476Y-120032380D01*
X137659523Y-120032380D01*
X138516666Y-119365714D02*
X138516666Y-120032380D01*
X138278571Y-118984761D02*
X138040476Y-119699047D01*
X138659523Y-119699047D01*
X122157142Y-68827142D02*
X122109523Y-68874761D01*
X121966666Y-68922380D01*
X121871428Y-68922380D01*
X121728571Y-68874761D01*
X121633333Y-68779523D01*
X121585714Y-68684285D01*
X121538095Y-68493809D01*
X121538095Y-68350952D01*
X121585714Y-68160476D01*
X121633333Y-68065238D01*
X121728571Y-67970000D01*
X121871428Y-67922380D01*
X121966666Y-67922380D01*
X122109523Y-67970000D01*
X122157142Y-68017619D01*
X122538095Y-68017619D02*
X122585714Y-67970000D01*
X122680952Y-67922380D01*
X122919047Y-67922380D01*
X123014285Y-67970000D01*
X123061904Y-68017619D01*
X123109523Y-68112857D01*
X123109523Y-68208095D01*
X123061904Y-68350952D01*
X122490476Y-68922380D01*
X123109523Y-68922380D01*
X124014285Y-67922380D02*
X123538095Y-67922380D01*
X123490476Y-68398571D01*
X123538095Y-68350952D01*
X123633333Y-68303333D01*
X123871428Y-68303333D01*
X123966666Y-68350952D01*
X124014285Y-68398571D01*
X124061904Y-68493809D01*
X124061904Y-68731904D01*
X124014285Y-68827142D01*
X123966666Y-68874761D01*
X123871428Y-68922380D01*
X123633333Y-68922380D01*
X123538095Y-68874761D01*
X123490476Y-68827142D01*
X120857142Y-77427142D02*
X120809523Y-77474761D01*
X120666666Y-77522380D01*
X120571428Y-77522380D01*
X120428571Y-77474761D01*
X120333333Y-77379523D01*
X120285714Y-77284285D01*
X120238095Y-77093809D01*
X120238095Y-76950952D01*
X120285714Y-76760476D01*
X120333333Y-76665238D01*
X120428571Y-76570000D01*
X120571428Y-76522380D01*
X120666666Y-76522380D01*
X120809523Y-76570000D01*
X120857142Y-76617619D01*
X121238095Y-76617619D02*
X121285714Y-76570000D01*
X121380952Y-76522380D01*
X121619047Y-76522380D01*
X121714285Y-76570000D01*
X121761904Y-76617619D01*
X121809523Y-76712857D01*
X121809523Y-76808095D01*
X121761904Y-76950952D01*
X121190476Y-77522380D01*
X121809523Y-77522380D01*
X122666666Y-76522380D02*
X122476190Y-76522380D01*
X122380952Y-76570000D01*
X122333333Y-76617619D01*
X122238095Y-76760476D01*
X122190476Y-76950952D01*
X122190476Y-77331904D01*
X122238095Y-77427142D01*
X122285714Y-77474761D01*
X122380952Y-77522380D01*
X122571428Y-77522380D01*
X122666666Y-77474761D01*
X122714285Y-77427142D01*
X122761904Y-77331904D01*
X122761904Y-77093809D01*
X122714285Y-76998571D01*
X122666666Y-76950952D01*
X122571428Y-76903333D01*
X122380952Y-76903333D01*
X122285714Y-76950952D01*
X122238095Y-76998571D01*
X122190476Y-77093809D01*
X137157142Y-68827142D02*
X137109523Y-68874761D01*
X136966666Y-68922380D01*
X136871428Y-68922380D01*
X136728571Y-68874761D01*
X136633333Y-68779523D01*
X136585714Y-68684285D01*
X136538095Y-68493809D01*
X136538095Y-68350952D01*
X136585714Y-68160476D01*
X136633333Y-68065238D01*
X136728571Y-67970000D01*
X136871428Y-67922380D01*
X136966666Y-67922380D01*
X137109523Y-67970000D01*
X137157142Y-68017619D01*
X137538095Y-68017619D02*
X137585714Y-67970000D01*
X137680952Y-67922380D01*
X137919047Y-67922380D01*
X138014285Y-67970000D01*
X138061904Y-68017619D01*
X138109523Y-68112857D01*
X138109523Y-68208095D01*
X138061904Y-68350952D01*
X137490476Y-68922380D01*
X138109523Y-68922380D01*
X138442857Y-67922380D02*
X139109523Y-67922380D01*
X138680952Y-68922380D01*
X135882142Y-77427142D02*
X135834523Y-77474761D01*
X135691666Y-77522380D01*
X135596428Y-77522380D01*
X135453571Y-77474761D01*
X135358333Y-77379523D01*
X135310714Y-77284285D01*
X135263095Y-77093809D01*
X135263095Y-76950952D01*
X135310714Y-76760476D01*
X135358333Y-76665238D01*
X135453571Y-76570000D01*
X135596428Y-76522380D01*
X135691666Y-76522380D01*
X135834523Y-76570000D01*
X135882142Y-76617619D01*
X136263095Y-76617619D02*
X136310714Y-76570000D01*
X136405952Y-76522380D01*
X136644047Y-76522380D01*
X136739285Y-76570000D01*
X136786904Y-76617619D01*
X136834523Y-76712857D01*
X136834523Y-76808095D01*
X136786904Y-76950952D01*
X136215476Y-77522380D01*
X136834523Y-77522380D01*
X137405952Y-76950952D02*
X137310714Y-76903333D01*
X137263095Y-76855714D01*
X137215476Y-76760476D01*
X137215476Y-76712857D01*
X137263095Y-76617619D01*
X137310714Y-76570000D01*
X137405952Y-76522380D01*
X137596428Y-76522380D01*
X137691666Y-76570000D01*
X137739285Y-76617619D01*
X137786904Y-76712857D01*
X137786904Y-76760476D01*
X137739285Y-76855714D01*
X137691666Y-76903333D01*
X137596428Y-76950952D01*
X137405952Y-76950952D01*
X137310714Y-76998571D01*
X137263095Y-77046190D01*
X137215476Y-77141428D01*
X137215476Y-77331904D01*
X137263095Y-77427142D01*
X137310714Y-77474761D01*
X137405952Y-77522380D01*
X137596428Y-77522380D01*
X137691666Y-77474761D01*
X137739285Y-77427142D01*
X137786904Y-77331904D01*
X137786904Y-77141428D01*
X137739285Y-77046190D01*
X137691666Y-76998571D01*
X137596428Y-76950952D01*
X152157142Y-68827142D02*
X152109523Y-68874761D01*
X151966666Y-68922380D01*
X151871428Y-68922380D01*
X151728571Y-68874761D01*
X151633333Y-68779523D01*
X151585714Y-68684285D01*
X151538095Y-68493809D01*
X151538095Y-68350952D01*
X151585714Y-68160476D01*
X151633333Y-68065238D01*
X151728571Y-67970000D01*
X151871428Y-67922380D01*
X151966666Y-67922380D01*
X152109523Y-67970000D01*
X152157142Y-68017619D01*
X152538095Y-68017619D02*
X152585714Y-67970000D01*
X152680952Y-67922380D01*
X152919047Y-67922380D01*
X153014285Y-67970000D01*
X153061904Y-68017619D01*
X153109523Y-68112857D01*
X153109523Y-68208095D01*
X153061904Y-68350952D01*
X152490476Y-68922380D01*
X153109523Y-68922380D01*
X153585714Y-68922380D02*
X153776190Y-68922380D01*
X153871428Y-68874761D01*
X153919047Y-68827142D01*
X154014285Y-68684285D01*
X154061904Y-68493809D01*
X154061904Y-68112857D01*
X154014285Y-68017619D01*
X153966666Y-67970000D01*
X153871428Y-67922380D01*
X153680952Y-67922380D01*
X153585714Y-67970000D01*
X153538095Y-68017619D01*
X153490476Y-68112857D01*
X153490476Y-68350952D01*
X153538095Y-68446190D01*
X153585714Y-68493809D01*
X153680952Y-68541428D01*
X153871428Y-68541428D01*
X153966666Y-68493809D01*
X154014285Y-68446190D01*
X154061904Y-68350952D01*
X150857142Y-77427142D02*
X150809523Y-77474761D01*
X150666666Y-77522380D01*
X150571428Y-77522380D01*
X150428571Y-77474761D01*
X150333333Y-77379523D01*
X150285714Y-77284285D01*
X150238095Y-77093809D01*
X150238095Y-76950952D01*
X150285714Y-76760476D01*
X150333333Y-76665238D01*
X150428571Y-76570000D01*
X150571428Y-76522380D01*
X150666666Y-76522380D01*
X150809523Y-76570000D01*
X150857142Y-76617619D01*
X151190476Y-76522380D02*
X151809523Y-76522380D01*
X151476190Y-76903333D01*
X151619047Y-76903333D01*
X151714285Y-76950952D01*
X151761904Y-76998571D01*
X151809523Y-77093809D01*
X151809523Y-77331904D01*
X151761904Y-77427142D01*
X151714285Y-77474761D01*
X151619047Y-77522380D01*
X151333333Y-77522380D01*
X151238095Y-77474761D01*
X151190476Y-77427142D01*
X152428571Y-76522380D02*
X152523809Y-76522380D01*
X152619047Y-76570000D01*
X152666666Y-76617619D01*
X152714285Y-76712857D01*
X152761904Y-76903333D01*
X152761904Y-77141428D01*
X152714285Y-77331904D01*
X152666666Y-77427142D01*
X152619047Y-77474761D01*
X152523809Y-77522380D01*
X152428571Y-77522380D01*
X152333333Y-77474761D01*
X152285714Y-77427142D01*
X152238095Y-77331904D01*
X152190476Y-77141428D01*
X152190476Y-76903333D01*
X152238095Y-76712857D01*
X152285714Y-76617619D01*
X152333333Y-76570000D01*
X152428571Y-76522380D01*
X167157142Y-68827142D02*
X167109523Y-68874761D01*
X166966666Y-68922380D01*
X166871428Y-68922380D01*
X166728571Y-68874761D01*
X166633333Y-68779523D01*
X166585714Y-68684285D01*
X166538095Y-68493809D01*
X166538095Y-68350952D01*
X166585714Y-68160476D01*
X166633333Y-68065238D01*
X166728571Y-67970000D01*
X166871428Y-67922380D01*
X166966666Y-67922380D01*
X167109523Y-67970000D01*
X167157142Y-68017619D01*
X167490476Y-67922380D02*
X168109523Y-67922380D01*
X167776190Y-68303333D01*
X167919047Y-68303333D01*
X168014285Y-68350952D01*
X168061904Y-68398571D01*
X168109523Y-68493809D01*
X168109523Y-68731904D01*
X168061904Y-68827142D01*
X168014285Y-68874761D01*
X167919047Y-68922380D01*
X167633333Y-68922380D01*
X167538095Y-68874761D01*
X167490476Y-68827142D01*
X169061904Y-68922380D02*
X168490476Y-68922380D01*
X168776190Y-68922380D02*
X168776190Y-67922380D01*
X168680952Y-68065238D01*
X168585714Y-68160476D01*
X168490476Y-68208095D01*
X165857142Y-77427142D02*
X165809523Y-77474761D01*
X165666666Y-77522380D01*
X165571428Y-77522380D01*
X165428571Y-77474761D01*
X165333333Y-77379523D01*
X165285714Y-77284285D01*
X165238095Y-77093809D01*
X165238095Y-76950952D01*
X165285714Y-76760476D01*
X165333333Y-76665238D01*
X165428571Y-76570000D01*
X165571428Y-76522380D01*
X165666666Y-76522380D01*
X165809523Y-76570000D01*
X165857142Y-76617619D01*
X166190476Y-76522380D02*
X166809523Y-76522380D01*
X166476190Y-76903333D01*
X166619047Y-76903333D01*
X166714285Y-76950952D01*
X166761904Y-76998571D01*
X166809523Y-77093809D01*
X166809523Y-77331904D01*
X166761904Y-77427142D01*
X166714285Y-77474761D01*
X166619047Y-77522380D01*
X166333333Y-77522380D01*
X166238095Y-77474761D01*
X166190476Y-77427142D01*
X167190476Y-76617619D02*
X167238095Y-76570000D01*
X167333333Y-76522380D01*
X167571428Y-76522380D01*
X167666666Y-76570000D01*
X167714285Y-76617619D01*
X167761904Y-76712857D01*
X167761904Y-76808095D01*
X167714285Y-76950952D01*
X167142857Y-77522380D01*
X167761904Y-77522380D01*
X135607142Y-125987142D02*
X135559523Y-126034761D01*
X135416666Y-126082380D01*
X135321428Y-126082380D01*
X135178571Y-126034761D01*
X135083333Y-125939523D01*
X135035714Y-125844285D01*
X134988095Y-125653809D01*
X134988095Y-125510952D01*
X135035714Y-125320476D01*
X135083333Y-125225238D01*
X135178571Y-125130000D01*
X135321428Y-125082380D01*
X135416666Y-125082380D01*
X135559523Y-125130000D01*
X135607142Y-125177619D01*
X135940476Y-125082380D02*
X136559523Y-125082380D01*
X136226190Y-125463333D01*
X136369047Y-125463333D01*
X136464285Y-125510952D01*
X136511904Y-125558571D01*
X136559523Y-125653809D01*
X136559523Y-125891904D01*
X136511904Y-125987142D01*
X136464285Y-126034761D01*
X136369047Y-126082380D01*
X136083333Y-126082380D01*
X135988095Y-126034761D01*
X135940476Y-125987142D01*
X136892857Y-125082380D02*
X137511904Y-125082380D01*
X137178571Y-125463333D01*
X137321428Y-125463333D01*
X137416666Y-125510952D01*
X137464285Y-125558571D01*
X137511904Y-125653809D01*
X137511904Y-125891904D01*
X137464285Y-125987142D01*
X137416666Y-126034761D01*
X137321428Y-126082380D01*
X137035714Y-126082380D01*
X136940476Y-126034761D01*
X136892857Y-125987142D01*
X127307142Y-118427142D02*
X127259523Y-118474761D01*
X127116666Y-118522380D01*
X127021428Y-118522380D01*
X126878571Y-118474761D01*
X126783333Y-118379523D01*
X126735714Y-118284285D01*
X126688095Y-118093809D01*
X126688095Y-117950952D01*
X126735714Y-117760476D01*
X126783333Y-117665238D01*
X126878571Y-117570000D01*
X127021428Y-117522380D01*
X127116666Y-117522380D01*
X127259523Y-117570000D01*
X127307142Y-117617619D01*
X127640476Y-117522380D02*
X128259523Y-117522380D01*
X127926190Y-117903333D01*
X128069047Y-117903333D01*
X128164285Y-117950952D01*
X128211904Y-117998571D01*
X128259523Y-118093809D01*
X128259523Y-118331904D01*
X128211904Y-118427142D01*
X128164285Y-118474761D01*
X128069047Y-118522380D01*
X127783333Y-118522380D01*
X127688095Y-118474761D01*
X127640476Y-118427142D01*
X129116666Y-117855714D02*
X129116666Y-118522380D01*
X128878571Y-117474761D02*
X128640476Y-118189047D01*
X129259523Y-118189047D01*
X139182142Y-113987142D02*
X139134523Y-114034761D01*
X138991666Y-114082380D01*
X138896428Y-114082380D01*
X138753571Y-114034761D01*
X138658333Y-113939523D01*
X138610714Y-113844285D01*
X138563095Y-113653809D01*
X138563095Y-113510952D01*
X138610714Y-113320476D01*
X138658333Y-113225238D01*
X138753571Y-113130000D01*
X138896428Y-113082380D01*
X138991666Y-113082380D01*
X139134523Y-113130000D01*
X139182142Y-113177619D01*
X139515476Y-113082380D02*
X140134523Y-113082380D01*
X139801190Y-113463333D01*
X139944047Y-113463333D01*
X140039285Y-113510952D01*
X140086904Y-113558571D01*
X140134523Y-113653809D01*
X140134523Y-113891904D01*
X140086904Y-113987142D01*
X140039285Y-114034761D01*
X139944047Y-114082380D01*
X139658333Y-114082380D01*
X139563095Y-114034761D01*
X139515476Y-113987142D01*
X141039285Y-113082380D02*
X140563095Y-113082380D01*
X140515476Y-113558571D01*
X140563095Y-113510952D01*
X140658333Y-113463333D01*
X140896428Y-113463333D01*
X140991666Y-113510952D01*
X141039285Y-113558571D01*
X141086904Y-113653809D01*
X141086904Y-113891904D01*
X141039285Y-113987142D01*
X140991666Y-114034761D01*
X140896428Y-114082380D01*
X140658333Y-114082380D01*
X140563095Y-114034761D01*
X140515476Y-113987142D01*
X146182142Y-113987142D02*
X146134523Y-114034761D01*
X145991666Y-114082380D01*
X145896428Y-114082380D01*
X145753571Y-114034761D01*
X145658333Y-113939523D01*
X145610714Y-113844285D01*
X145563095Y-113653809D01*
X145563095Y-113510952D01*
X145610714Y-113320476D01*
X145658333Y-113225238D01*
X145753571Y-113130000D01*
X145896428Y-113082380D01*
X145991666Y-113082380D01*
X146134523Y-113130000D01*
X146182142Y-113177619D01*
X146515476Y-113082380D02*
X147134523Y-113082380D01*
X146801190Y-113463333D01*
X146944047Y-113463333D01*
X147039285Y-113510952D01*
X147086904Y-113558571D01*
X147134523Y-113653809D01*
X147134523Y-113891904D01*
X147086904Y-113987142D01*
X147039285Y-114034761D01*
X146944047Y-114082380D01*
X146658333Y-114082380D01*
X146563095Y-114034761D01*
X146515476Y-113987142D01*
X147991666Y-113082380D02*
X147801190Y-113082380D01*
X147705952Y-113130000D01*
X147658333Y-113177619D01*
X147563095Y-113320476D01*
X147515476Y-113510952D01*
X147515476Y-113891904D01*
X147563095Y-113987142D01*
X147610714Y-114034761D01*
X147705952Y-114082380D01*
X147896428Y-114082380D01*
X147991666Y-114034761D01*
X148039285Y-113987142D01*
X148086904Y-113891904D01*
X148086904Y-113653809D01*
X148039285Y-113558571D01*
X147991666Y-113510952D01*
X147896428Y-113463333D01*
X147705952Y-113463333D01*
X147610714Y-113510952D01*
X147563095Y-113558571D01*
X147515476Y-113653809D01*
X153182142Y-113987142D02*
X153134523Y-114034761D01*
X152991666Y-114082380D01*
X152896428Y-114082380D01*
X152753571Y-114034761D01*
X152658333Y-113939523D01*
X152610714Y-113844285D01*
X152563095Y-113653809D01*
X152563095Y-113510952D01*
X152610714Y-113320476D01*
X152658333Y-113225238D01*
X152753571Y-113130000D01*
X152896428Y-113082380D01*
X152991666Y-113082380D01*
X153134523Y-113130000D01*
X153182142Y-113177619D01*
X153515476Y-113082380D02*
X154134523Y-113082380D01*
X153801190Y-113463333D01*
X153944047Y-113463333D01*
X154039285Y-113510952D01*
X154086904Y-113558571D01*
X154134523Y-113653809D01*
X154134523Y-113891904D01*
X154086904Y-113987142D01*
X154039285Y-114034761D01*
X153944047Y-114082380D01*
X153658333Y-114082380D01*
X153563095Y-114034761D01*
X153515476Y-113987142D01*
X154467857Y-113082380D02*
X155134523Y-113082380D01*
X154705952Y-114082380D01*
X160182142Y-113987142D02*
X160134523Y-114034761D01*
X159991666Y-114082380D01*
X159896428Y-114082380D01*
X159753571Y-114034761D01*
X159658333Y-113939523D01*
X159610714Y-113844285D01*
X159563095Y-113653809D01*
X159563095Y-113510952D01*
X159610714Y-113320476D01*
X159658333Y-113225238D01*
X159753571Y-113130000D01*
X159896428Y-113082380D01*
X159991666Y-113082380D01*
X160134523Y-113130000D01*
X160182142Y-113177619D01*
X160515476Y-113082380D02*
X161134523Y-113082380D01*
X160801190Y-113463333D01*
X160944047Y-113463333D01*
X161039285Y-113510952D01*
X161086904Y-113558571D01*
X161134523Y-113653809D01*
X161134523Y-113891904D01*
X161086904Y-113987142D01*
X161039285Y-114034761D01*
X160944047Y-114082380D01*
X160658333Y-114082380D01*
X160563095Y-114034761D01*
X160515476Y-113987142D01*
X161705952Y-113510952D02*
X161610714Y-113463333D01*
X161563095Y-113415714D01*
X161515476Y-113320476D01*
X161515476Y-113272857D01*
X161563095Y-113177619D01*
X161610714Y-113130000D01*
X161705952Y-113082380D01*
X161896428Y-113082380D01*
X161991666Y-113130000D01*
X162039285Y-113177619D01*
X162086904Y-113272857D01*
X162086904Y-113320476D01*
X162039285Y-113415714D01*
X161991666Y-113463333D01*
X161896428Y-113510952D01*
X161705952Y-113510952D01*
X161610714Y-113558571D01*
X161563095Y-113606190D01*
X161515476Y-113701428D01*
X161515476Y-113891904D01*
X161563095Y-113987142D01*
X161610714Y-114034761D01*
X161705952Y-114082380D01*
X161896428Y-114082380D01*
X161991666Y-114034761D01*
X162039285Y-113987142D01*
X162086904Y-113891904D01*
X162086904Y-113701428D01*
X162039285Y-113606190D01*
X161991666Y-113558571D01*
X161896428Y-113510952D01*
X167182142Y-113987142D02*
X167134523Y-114034761D01*
X166991666Y-114082380D01*
X166896428Y-114082380D01*
X166753571Y-114034761D01*
X166658333Y-113939523D01*
X166610714Y-113844285D01*
X166563095Y-113653809D01*
X166563095Y-113510952D01*
X166610714Y-113320476D01*
X166658333Y-113225238D01*
X166753571Y-113130000D01*
X166896428Y-113082380D01*
X166991666Y-113082380D01*
X167134523Y-113130000D01*
X167182142Y-113177619D01*
X167515476Y-113082380D02*
X168134523Y-113082380D01*
X167801190Y-113463333D01*
X167944047Y-113463333D01*
X168039285Y-113510952D01*
X168086904Y-113558571D01*
X168134523Y-113653809D01*
X168134523Y-113891904D01*
X168086904Y-113987142D01*
X168039285Y-114034761D01*
X167944047Y-114082380D01*
X167658333Y-114082380D01*
X167563095Y-114034761D01*
X167515476Y-113987142D01*
X168610714Y-114082380D02*
X168801190Y-114082380D01*
X168896428Y-114034761D01*
X168944047Y-113987142D01*
X169039285Y-113844285D01*
X169086904Y-113653809D01*
X169086904Y-113272857D01*
X169039285Y-113177619D01*
X168991666Y-113130000D01*
X168896428Y-113082380D01*
X168705952Y-113082380D01*
X168610714Y-113130000D01*
X168563095Y-113177619D01*
X168515476Y-113272857D01*
X168515476Y-113510952D01*
X168563095Y-113606190D01*
X168610714Y-113653809D01*
X168705952Y-113701428D01*
X168896428Y-113701428D01*
X168991666Y-113653809D01*
X169039285Y-113606190D01*
X169086904Y-113510952D01*
M02*
