M48
;DRILL file {KiCad (5.0-dev-4115-gdd04bcb)} date Wednesday, March 07, 2018 at 01:09:20 AM
;FORMAT={-:-/ absolute / inch / decimal}
FMAT,2
INCH,TZ
T1C0.0118
T2C0.0197
T3C0.0394
T4C0.0492
T5C0.1260
%
G90
G05
M72
T1
X4.372Y-4.2736
X4.3937Y-4.8819
X4.4272Y-3.6024
X4.4311Y-3.561
X4.4311Y-3.6398
X4.6289Y-3.6752
X4.6289Y-3.7008
X4.6289Y-3.7264
X4.7303Y-2.9785
X4.7323Y-2.5906
X4.7638Y-2.6988
X4.7835Y-2.6457
X4.7835Y-4.8819
X4.8012Y-2.9785
X4.8543Y-2.7441
X4.8543Y-2.8622
X4.878Y-2.8268
X4.8976Y-2.7874
X4.9114Y-3.0492
X4.929Y-2.9913
X4.9567Y-2.9764
X4.9843Y-2.6969
X4.9921Y-4.3937
X4.9921Y-4.685
X5.0226Y-4.751
X5.0354Y-4.626
X5.0551Y-2.5906
X5.0906Y-4.5965
X5.0965Y-4.628
X5.1575Y-3.0797
X5.1654Y-3.0207
X5.1873Y-4.7131
X5.189Y-2.7894
X5.2008Y-4.7589
X5.2087Y-3.1555
X5.2618Y-3.8622
X5.2717Y-4.628
X5.2795Y-4.2244
X5.2854Y-4.3455
X5.3051Y-3.4114
X5.315Y-4.9961
X5.3228Y-2.9616
X5.3268Y-2.5906
X5.3307Y-3.0266
X5.3327Y-4.5098
X5.3445Y-2.6969
X5.3484Y-5.2205
X5.3524Y-4.5295
X5.3543Y-4.7589
X5.3543Y-4.7844
X5.3547Y-4.3701
X5.3547Y-4.8114
X5.3622Y-4.3012
X5.372Y-4.8602
X5.374Y-2.6457
X5.3799Y-4.19
X5.3838Y-4.3701
X5.3937Y-4.9055
X5.4055Y-4.1457
X5.4055Y-4.5118
X5.4094Y-4.7303
X5.4114Y-4.5689
X5.4209Y-4.2812
X5.4216Y-4.9528
X5.4252Y-3.
X5.4291Y-4.9232
X5.4409Y-2.8642
X5.4449Y-2.7421
X5.4449Y-4.1713
X5.4449Y-4.3612
X5.4469Y-4.6063
X5.4472Y-4.3133
X5.4488Y-5.0453
X5.4508Y-3.0197
X5.4583Y-4.1458
X5.4626Y-3.1516
X5.4679Y-2.8291
X5.4734Y-4.935
X5.4803Y-2.7874
X5.4823Y-4.4213
X5.4997Y-4.9519
X5.5041Y-5.0708
X5.5059Y-2.999
X5.5126Y-4.9894
X5.5136Y-4.5807
X5.5217Y-4.1791
X5.5412Y-4.5803
X5.5481Y-5.0856
X5.5512Y-2.9764
X5.5551Y-4.2244
X5.5581Y-5.0354
X5.5589Y-4.9796
X5.5591Y-4.5157
X5.5653Y-5.1072
X5.5689Y-4.5984
X5.5748Y-2.6969
X5.5768Y-4.5689
X5.6043Y-4.4193
X5.6072Y-4.3903
X5.6152Y-5.001
X5.6161Y-4.9705
X5.6291Y-4.597
X5.6299Y-4.3533
X5.6366Y-4.5456
X5.6457Y-2.5906
X5.6476Y-4.998
X5.6575Y-4.3602
X5.6669Y-4.5605
X5.6752Y-5.2205
X5.6772Y-5.
X5.6772Y-5.1831
X5.6781Y-5.1102
X5.6811Y-4.5118
X5.6867Y-4.965
X5.6977Y-4.5596
X5.7047Y-4.2854
X5.7047Y-4.9441
X5.7135Y-4.5822
X5.719Y-5.0554
X5.7197Y-4.9695
X5.7209Y-5.0279
X5.7323Y-4.5236
X5.7461Y-4.2894
X5.748Y-5.1673
X5.752Y-3.1594
X5.7579Y-4.5906
X5.7795Y-4.4055
X5.7799Y-4.3104
X5.7913Y-4.7707
X5.8002Y-5.0157
X5.8031Y-4.8287
X5.811Y-4.315
X5.811Y-4.4075
X5.8228Y-4.7736
X5.8307Y-4.2244
X5.8307Y-4.5256
X5.8356Y-4.7087
X5.8366Y-5.1929
X5.8387Y-4.4175
X5.8416Y-4.3273
X5.8552Y-4.7349
X5.8607Y-4.2972
X5.8642Y-4.8445
X5.8799Y-4.1717
X5.8799Y-4.5118
X5.8957Y-5.0384
X5.9055Y-4.3346
X5.9075Y-4.5276
X5.9134Y-2.9843
X5.9134Y-2.5866
X5.9145Y-3.0336
X5.9153Y-4.646
X5.9272Y-5.
X5.9321Y-4.4173
X5.9331Y-4.3602
X5.9378Y-4.624
X5.9409Y-4.5925
X5.9567Y-4.5118
X5.9606Y-4.1142
X5.9646Y-2.6437
X5.9843Y-4.3839
X5.9862Y-4.9606
X5.9862Y-5.1161
X5.9891Y-4.638
X6.0079Y-4.5236
X6.0157Y-2.9961
X6.0276Y-2.8642
X6.0305Y-4.7224
X6.0335Y-3.0197
X6.0374Y-2.7421
X6.0394Y-4.5768
X6.061Y-2.8268
X6.061Y-4.813
X6.0728Y-4.9764
X6.0886Y-2.7874
X6.0886Y-4.3071
X6.0886Y-4.3809
X6.1063Y-3.1201
X6.1063Y-4.5236
X6.1102Y-4.2244
X6.1142Y-4.8307
X6.1142Y-4.8622
X6.1181Y-4.3091
X6.1181Y-4.3819
X6.1339Y-3.0915
X6.1467Y-2.9764
X6.1535Y-4.6713
X6.1575Y-4.5118
X6.1614Y-4.3957
X6.1654Y-2.6969
X6.1811Y-4.1579
X6.1811Y-4.3346
X6.1831Y-4.5177
X6.2067Y-4.185
X6.2067Y-4.3602
X6.2343Y-4.5118
X6.2362Y-2.5866
X6.2539Y-4.4163
X6.2631Y-4.3103
X6.2815Y-4.5236
X6.2972Y-2.9685
X6.3051Y-4.1146
X6.3307Y-4.8622
X6.3543Y-3.1535
X6.3691Y-4.6959
X6.3819Y-4.2244
X6.3858Y-4.5236
X6.3858Y-4.9764
X6.4094Y-4.748
X6.4232Y-4.5118
X6.4528Y-4.1579
X6.4547Y-4.5197
X6.4567Y-4.3346
X6.4567Y-5.1181
X6.4606Y-4.1142
X6.4803Y-4.3602
X6.502Y-2.9921
X6.5039Y-2.5906
X6.5079Y-4.5118
X6.5098Y-3.0246
X6.5118Y-4.3957
X6.5551Y-2.6457
X6.5571Y-4.5236
X6.5787Y-3.4783
X6.5787Y-3.5098
X6.6043Y-2.9961
X6.622Y-3.0197
X6.624Y-2.8642
X6.628Y-2.7441
X6.6476Y-2.8268
X6.6555Y-3.2087
X6.6575Y-4.5217
X6.6639Y-4.3175
X6.6752Y-2.7874
X6.6854Y-2.999
X6.687Y-3.5453
X6.6949Y-3.0945
X6.6969Y-4.2815
X6.7244Y-3.3957
X6.7362Y-4.2795
X6.7362Y-4.4685
X6.7402Y-2.9764
X6.7461Y-3.0945
X6.7559Y-2.6969
X6.7756Y-3.3957
X6.7756Y-4.2815
X6.7972Y-3.0945
X6.8209Y-3.3957
X6.8268Y-2.5906
X6.8346Y-2.939
X6.8622Y-2.9744
X6.8701Y-3.3957
X6.9094Y-4.4154
X6.9173Y-4.1909
X6.9193Y-2.9744
X6.9213Y-4.1299
X6.9232Y-4.2539
X6.9331Y-4.5276
X6.9764Y-2.9744
X7.0039Y-2.939
X7.0276Y-4.3642
X7.0276Y-4.4134
X7.1732Y-3.626
X7.2106Y-4.0945
T2
X6.9528Y-5.0827
X6.9804Y-5.0159
X6.9804Y-5.1495
X7.0472Y-4.9882
X7.0472Y-5.1772
X7.1141Y-5.0159
X7.1141Y-5.1495
X7.1417Y-5.0827
X5.1496Y-4.7047
X5.2244Y-4.7047
X4.3937Y-5.0827
X4.4214Y-5.0159
X4.4214Y-5.1495
X4.4882Y-4.9882
X4.4882Y-5.1772
X4.555Y-5.0159
X4.555Y-5.1495
X4.5827Y-5.0827
T3
X5.7047Y-3.3331
X5.7047Y-3.9331
X5.8047Y-3.3331
X5.8047Y-3.9331
X5.9047Y-3.3331
X5.9047Y-3.9331
X6.0047Y-3.3331
X6.0047Y-3.9331
X6.1047Y-3.3331
X6.1047Y-3.9331
X6.2047Y-3.3331
X6.2047Y-3.9331
X6.3047Y-3.3331
X6.3047Y-3.9331
X6.4047Y-3.3331
X6.4047Y-3.9331
X6.5047Y-3.3331
X6.5047Y-3.9331
X4.8787Y-5.0787
X4.8787Y-5.1787
X4.9787Y-5.0787
X4.9787Y-5.1787
X5.0787Y-5.0787
X5.0787Y-5.1787
X4.7106Y-3.3331
X4.7106Y-3.9331
X4.8106Y-3.3331
X4.8106Y-3.9331
X4.9106Y-3.3331
X4.9106Y-3.9331
X5.0106Y-3.3331
X5.0106Y-3.9331
X5.1106Y-3.3331
X5.1106Y-3.9331
X5.2106Y-3.3331
X5.2106Y-3.9331
X5.3106Y-3.3331
X5.3106Y-3.9331
X5.4106Y-3.3331
X5.4106Y-3.9331
X5.5106Y-3.3331
X5.5106Y-3.9331
T4
X6.5974Y-2.1762
X6.0069Y-2.1762
X6.1447Y-2.1762
X5.4163Y-2.1742
X5.5541Y-2.1742
X4.8258Y-2.1762
X4.9636Y-2.1762
X6.7352Y-2.1762
T5
X7.0472Y-5.0827
X4.4882Y-5.0827
T0
M30
