G04 #@! TF.GenerationSoftware,KiCad,Pcbnew,(5.0-dev-4115-gdd04bcb)*
G04 #@! TF.CreationDate,2018-03-07T01:21:42-08:00*
G04 #@! TF.ProjectId,Thermocouple Data Logger,546865726D6F636F75706C6520446174,1*
G04 #@! TF.SameCoordinates,Original*
G04 #@! TF.FileFunction,Copper,L2,Inr,Plane*
G04 #@! TF.FilePolarity,Positive*
%FSLAX46Y46*%
G04 Gerber Fmt 4.6, Leading zero omitted, Abs format (unit mm)*
G04 Created by KiCad (PCBNEW (5.0-dev-4115-gdd04bcb)) date Wednesday, March 07, 2018 at 01:21:42 AM*
%MOMM*%
%LPD*%
G01*
G04 APERTURE LIST*
%ADD10R,1.500000X1.500000*%
%ADD11C,1.500000*%
%ADD12C,2.250000*%
%ADD13R,2.250000X2.250000*%
%ADD14O,1.700000X1.700000*%
%ADD15R,1.700000X1.700000*%
%ADD16C,1.000000*%
%ADD17C,0.800000*%
%ADD18C,6.400000*%
%ADD19C,0.600000*%
%ADD20C,0.250000*%
%ADD21C,0.254000*%
G04 APERTURE END LIST*
D10*
X119650000Y-99900000D03*
D11*
X122190000Y-99900000D03*
X124730000Y-99900000D03*
X127270000Y-99900000D03*
X129810000Y-99900000D03*
X132350000Y-99900000D03*
X134890000Y-99900000D03*
X137430000Y-99900000D03*
X139970000Y-99900000D03*
X139970000Y-84660000D03*
X137430000Y-84660000D03*
X134890000Y-84660000D03*
X132350000Y-84660000D03*
X129810000Y-84660000D03*
X127270000Y-84660000D03*
X124730000Y-84660000D03*
X122190000Y-84660000D03*
X119650000Y-84660000D03*
D12*
X122575000Y-55275000D03*
D13*
X126075000Y-55275000D03*
X141075000Y-55225000D03*
D12*
X137575000Y-55225000D03*
D13*
X156075000Y-55275000D03*
D12*
X152575000Y-55275000D03*
X167575000Y-55275000D03*
D13*
X171075000Y-55275000D03*
D14*
X123920000Y-131540000D03*
X123920000Y-129000000D03*
X126460000Y-131540000D03*
X126460000Y-129000000D03*
X129000000Y-131540000D03*
D15*
X129000000Y-129000000D03*
D10*
X144900000Y-99900000D03*
D11*
X147440000Y-99900000D03*
X149980000Y-99900000D03*
X152520000Y-99900000D03*
X155060000Y-99900000D03*
X157600000Y-99900000D03*
X160140000Y-99900000D03*
X162680000Y-99900000D03*
X165220000Y-99900000D03*
X165220000Y-84660000D03*
X162680000Y-84660000D03*
X160140000Y-84660000D03*
X157600000Y-84660000D03*
X155060000Y-84660000D03*
X152520000Y-84660000D03*
X149980000Y-84660000D03*
X147440000Y-84660000D03*
X144900000Y-84660000D03*
D16*
X130800000Y-119500000D03*
X132700000Y-119500000D03*
D17*
X115697056Y-127402944D03*
X114000000Y-126700000D03*
X112302944Y-127402944D03*
X111600000Y-129100000D03*
X112302944Y-130797056D03*
X114000000Y-131500000D03*
X115697056Y-130797056D03*
X116400000Y-129100000D03*
D18*
X114000000Y-129100000D03*
X179000000Y-129100000D03*
D17*
X181400000Y-129100000D03*
X180697056Y-130797056D03*
X179000000Y-131500000D03*
X177302944Y-130797056D03*
X176600000Y-129100000D03*
X177302944Y-127402944D03*
X179000000Y-126700000D03*
X180697056Y-127402944D03*
D19*
X141449992Y-116800000D03*
X165150000Y-76000000D03*
X165350000Y-76825000D03*
X143168778Y-115459043D03*
X152123866Y-117804635D03*
X151300000Y-114600000D03*
X150249019Y-118009522D03*
X135400000Y-76874990D03*
X135200000Y-75224990D03*
X120149891Y-75654269D03*
X141650002Y-116050000D03*
X141200000Y-114700000D03*
X144224998Y-129800032D03*
X144200000Y-131650000D03*
X142625000Y-127025000D03*
X136000000Y-121525000D03*
X136000000Y-120875010D03*
X129300000Y-116750000D03*
X129450000Y-117550000D03*
X133900000Y-117550000D03*
X164000000Y-130000000D03*
X175800000Y-104900000D03*
X175699998Y-106450000D03*
X175850000Y-108050000D03*
X165200000Y-65800000D03*
X166500000Y-67200000D03*
X171600000Y-68500000D03*
X171200000Y-75600000D03*
X173400000Y-65800000D03*
X156600000Y-68500000D03*
X141600000Y-68500000D03*
X126600000Y-68500000D03*
X158400000Y-65700000D03*
X150200000Y-65700000D03*
X151500000Y-67150000D03*
X156125000Y-75600000D03*
X150228867Y-77053837D03*
X150199992Y-75800000D03*
X136500000Y-67200000D03*
X135300000Y-65800000D03*
X143400000Y-65800000D03*
X141000000Y-75600000D03*
X120200000Y-65800000D03*
X121500000Y-67200000D03*
X128400000Y-65800000D03*
X125900000Y-75600000D03*
X121500000Y-124000000D03*
X126800000Y-119000000D03*
X126800000Y-111600000D03*
X162100000Y-107300000D03*
X155200000Y-107300000D03*
X148100000Y-107300000D03*
X141100000Y-107300000D03*
X134100000Y-107300000D03*
X162800000Y-120600000D03*
X156300000Y-118650000D03*
X136010000Y-122210000D03*
X148950000Y-123050000D03*
X147900000Y-121250000D03*
X147100000Y-121174998D03*
X142650000Y-126250000D03*
X135850000Y-132600000D03*
X144150000Y-132600000D03*
X171100000Y-113500000D03*
X175500000Y-112150000D03*
X178500000Y-110850000D03*
X178500000Y-112100000D03*
X111050000Y-108550000D03*
X111600000Y-124000000D03*
X135000000Y-126900000D03*
X148250000Y-131900000D03*
X150550000Y-127000000D03*
X162200000Y-126400000D03*
X154250000Y-126400000D03*
X155300000Y-122700000D03*
X153950000Y-122250000D03*
X169100000Y-114850000D03*
X165300000Y-114600000D03*
X162200000Y-114900000D03*
X155100000Y-114900004D03*
X158350000Y-114600000D03*
X148100000Y-114950000D03*
X144300000Y-114600000D03*
X137450000Y-116050000D03*
X137300000Y-114600000D03*
X177200000Y-75550000D03*
X173600000Y-74650000D03*
X174300000Y-75550000D03*
X175750000Y-75550000D03*
X177900000Y-74650000D03*
X153175000Y-119950000D03*
X148721995Y-120266698D03*
X142978128Y-116762979D03*
X137400000Y-120150000D03*
X121950355Y-75654269D03*
X127900000Y-117500000D03*
X147400000Y-122650000D03*
X141196037Y-126480773D03*
X112550000Y-92450000D03*
X112550000Y-90450000D03*
X112450000Y-91500000D03*
X146000000Y-131250000D03*
X152050000Y-129950000D03*
X152050000Y-126000000D03*
X172100000Y-108750000D03*
X170100000Y-108750000D03*
X171100000Y-108700000D03*
X176100000Y-115000000D03*
X170800000Y-86250000D03*
X172100000Y-86250000D03*
X173250000Y-86250000D03*
X174500000Y-86250000D03*
X123300000Y-69700000D03*
X141359023Y-129721919D03*
X149750000Y-127975000D03*
X135950000Y-115050000D03*
X135450000Y-114550000D03*
X117574990Y-94650000D03*
X117574990Y-93350000D03*
X117574990Y-94000000D03*
X157050000Y-114750000D03*
X144900000Y-125581288D03*
X139250000Y-112300000D03*
X142350000Y-112250000D03*
X145600000Y-114900000D03*
X149350000Y-114600000D03*
X156400000Y-114600000D03*
X152600000Y-114900000D03*
X159550000Y-114900000D03*
X166550000Y-114900000D03*
X163150000Y-114600000D03*
X163950000Y-114800000D03*
X167100000Y-89150000D03*
X167100000Y-88350000D03*
X161774999Y-119275001D03*
X148224999Y-119600000D03*
X170050000Y-78600000D03*
X140020231Y-126729769D03*
X138300000Y-69650000D03*
X138450000Y-76700000D03*
X137800000Y-76200000D03*
X139691711Y-125777086D03*
X153350000Y-69650000D03*
X171350000Y-78600000D03*
X153250000Y-76700000D03*
X152800004Y-76100000D03*
X139025000Y-125350000D03*
X168350000Y-69700000D03*
X172650000Y-78600000D03*
X168200000Y-76700000D03*
X167750000Y-76100000D03*
X141175000Y-127900004D03*
X138400000Y-128150000D03*
X160800000Y-123500000D03*
X182200000Y-92100000D03*
X183150001Y-103999999D03*
X145309741Y-127709739D03*
X155300000Y-123500001D03*
X127575000Y-120675000D03*
X145261447Y-128408083D03*
X139802954Y-128797292D03*
X140922092Y-129175012D03*
X147325000Y-127400000D03*
X145281250Y-126225000D03*
X137708083Y-125799999D03*
X132100000Y-120875000D03*
X131756173Y-119713710D03*
X133650000Y-98100000D03*
X138300000Y-110775010D03*
X132300000Y-80150000D03*
X138640731Y-105303186D03*
X138358732Y-109558732D03*
X137691268Y-108741268D03*
X136200000Y-109250000D03*
X134249718Y-110374990D03*
X134750000Y-86650000D03*
X136650000Y-106425000D03*
X138750000Y-80050000D03*
X145950001Y-108950000D03*
X137300000Y-105300000D03*
X144900000Y-108850000D03*
X140250011Y-106150000D03*
X138300000Y-105950000D03*
X148861728Y-109150011D03*
X146100000Y-80250000D03*
X151400000Y-104500000D03*
X149350000Y-105960011D03*
X161400000Y-80100000D03*
X157650000Y-106300000D03*
X160150000Y-104510000D03*
X157000000Y-105610017D03*
X164100000Y-104500000D03*
X163900000Y-105610001D03*
X169850000Y-90050000D03*
X169263713Y-109663713D03*
X150675000Y-112200000D03*
X144441283Y-126110048D03*
X136747992Y-111000031D03*
X164600000Y-110750000D03*
X143700000Y-110750000D03*
X150700000Y-110750000D03*
X157650000Y-110750000D03*
X150050000Y-115000005D03*
X144200000Y-127000000D03*
X136008465Y-111000031D03*
X143000000Y-110575021D03*
X150000000Y-110100000D03*
X164000000Y-110100000D03*
X157000000Y-110100000D03*
X146250000Y-116600000D03*
X143450000Y-126950000D03*
X121000000Y-68550000D03*
X137900000Y-125050000D03*
X124750000Y-77450000D03*
X136450000Y-123450000D03*
X131200000Y-76725000D03*
X140045731Y-116350063D03*
X139850000Y-76175000D03*
X140745666Y-116339711D03*
X135750000Y-68500000D03*
X131800000Y-70850000D03*
X131000000Y-78225000D03*
X155800000Y-78525000D03*
X146808425Y-109484340D03*
X146800000Y-111900000D03*
X147599998Y-109600000D03*
X147600004Y-111950000D03*
X155100000Y-79250000D03*
X144721655Y-115814118D03*
X148376109Y-109913056D03*
X148302356Y-112203865D03*
X159950000Y-75400000D03*
X145123606Y-116387213D03*
X159082725Y-109482737D03*
X158850000Y-112175000D03*
X153400000Y-116250000D03*
X150900002Y-116650000D03*
X169809089Y-76175000D03*
X154650000Y-109400000D03*
X154650000Y-111275000D03*
X155400000Y-111300000D03*
X150820536Y-117449711D03*
X155400000Y-109450000D03*
X169050000Y-81500000D03*
X138883404Y-71859074D03*
X125195622Y-75979280D03*
X137000000Y-124600000D03*
X138350000Y-117000000D03*
X143938354Y-115836077D03*
X168250000Y-72750000D03*
X153100000Y-72750000D03*
X138200000Y-72750000D03*
X123300000Y-72700000D03*
X169550000Y-70800000D03*
X154650000Y-70800000D03*
X139200000Y-70800000D03*
X124400000Y-70800000D03*
X168850000Y-71800000D03*
X153950000Y-71800000D03*
X123900000Y-71800000D03*
X142423111Y-111512434D03*
X152000000Y-111350000D03*
X165400000Y-111650000D03*
X156500000Y-111650000D03*
D20*
X136485000Y-122010000D02*
X136000000Y-121525000D01*
X136760000Y-122010000D02*
X136485000Y-122010000D01*
X156125000Y-75600000D02*
X156125000Y-68650000D01*
X135300000Y-65800000D02*
X136700000Y-67200000D01*
X179600000Y-111950000D02*
X178500000Y-110850000D01*
X179600000Y-112000000D02*
X179600000Y-111950000D01*
X166700000Y-117250000D02*
X152650000Y-117250000D01*
X169100000Y-114850000D02*
X166700000Y-117250000D01*
D21*
G36*
X183290001Y-54504732D02*
X183007357Y-53822370D01*
X181677630Y-52492643D01*
X179940259Y-51773000D01*
X178059741Y-51773000D01*
X176322370Y-52492643D01*
X174992643Y-53822370D01*
X174273000Y-55559741D01*
X174273000Y-57440259D01*
X174992643Y-59177630D01*
X176322370Y-60507357D01*
X178059741Y-61227000D01*
X179940259Y-61227000D01*
X181677630Y-60507357D01*
X183007357Y-59177630D01*
X183290001Y-58495268D01*
X183290000Y-103064999D01*
X182964018Y-103064999D01*
X182620366Y-103207344D01*
X182357346Y-103470364D01*
X182215001Y-103814016D01*
X182215001Y-104185982D01*
X182357346Y-104529634D01*
X182620366Y-104792654D01*
X182964018Y-104934999D01*
X183290000Y-104934999D01*
X183290000Y-133290000D01*
X109710000Y-133290000D01*
X109710000Y-132003233D01*
X111624268Y-132003233D01*
X112013927Y-132468182D01*
X113454055Y-132971832D01*
X114977299Y-132886030D01*
X115986073Y-132468182D01*
X116266752Y-132133270D01*
X122558626Y-132133270D01*
X122889289Y-132609085D01*
X123326735Y-132901345D01*
X123547000Y-132812718D01*
X123547000Y-131913000D01*
X122641329Y-131913000D01*
X122558626Y-132133270D01*
X116266752Y-132133270D01*
X116375732Y-132003233D01*
X116130914Y-131758415D01*
X116144287Y-131752876D01*
X116173599Y-131556442D01*
X115697056Y-131079899D01*
X115574727Y-131202228D01*
X115291884Y-130919385D01*
X115414213Y-130797056D01*
X114937670Y-130320513D01*
X114741236Y-130349825D01*
X114737501Y-130365003D01*
X114000000Y-129627502D01*
X113264303Y-130363198D01*
X113258764Y-130349825D01*
X113062330Y-130320513D01*
X112585787Y-130797056D01*
X112708116Y-130919385D01*
X112425273Y-131202228D01*
X112302944Y-131079899D01*
X111826401Y-131556442D01*
X111855713Y-131752876D01*
X111870890Y-131756611D01*
X111624268Y-132003233D01*
X109710000Y-132003233D01*
X109710000Y-128554055D01*
X110128168Y-128554055D01*
X110213970Y-130077299D01*
X110631818Y-131086073D01*
X111096767Y-131475732D01*
X111341585Y-131230914D01*
X111347124Y-131244287D01*
X111543558Y-131273599D01*
X112020101Y-130797056D01*
X111897772Y-130674727D01*
X112180615Y-130391884D01*
X112302944Y-130514213D01*
X112779487Y-130037670D01*
X112750175Y-129841236D01*
X112734997Y-129837501D01*
X113472498Y-129100000D01*
X114527502Y-129100000D01*
X115263198Y-129835697D01*
X115249825Y-129841236D01*
X115220513Y-130037670D01*
X115697056Y-130514213D01*
X115819385Y-130391884D01*
X116102228Y-130674727D01*
X115979899Y-130797056D01*
X116456442Y-131273599D01*
X116652876Y-131244287D01*
X116656611Y-131229110D01*
X116903233Y-131475732D01*
X117368182Y-131086073D01*
X117871832Y-129645945D01*
X117835447Y-129000000D01*
X122405908Y-129000000D01*
X122521161Y-129579418D01*
X122849375Y-130070625D01*
X123168886Y-130284115D01*
X122889289Y-130470915D01*
X122558626Y-130946730D01*
X122641329Y-131167000D01*
X123547000Y-131167000D01*
X123547000Y-131147000D01*
X124293000Y-131147000D01*
X124293000Y-131167000D01*
X124313000Y-131167000D01*
X124313000Y-131913000D01*
X124293000Y-131913000D01*
X124293000Y-132812718D01*
X124513265Y-132901345D01*
X124950711Y-132609085D01*
X125173824Y-132288031D01*
X125389375Y-132610625D01*
X125880582Y-132938839D01*
X126313744Y-133025000D01*
X126606256Y-133025000D01*
X127039418Y-132938839D01*
X127530625Y-132610625D01*
X127730000Y-132312239D01*
X127929375Y-132610625D01*
X128420582Y-132938839D01*
X128853744Y-133025000D01*
X129146256Y-133025000D01*
X129579418Y-132938839D01*
X130070625Y-132610625D01*
X130398839Y-132119418D01*
X130514092Y-131540000D01*
X130419414Y-131064017D01*
X145065000Y-131064017D01*
X145065000Y-131435983D01*
X145207345Y-131779635D01*
X145470365Y-132042655D01*
X145814017Y-132185000D01*
X146185983Y-132185000D01*
X146529635Y-132042655D01*
X146569057Y-132003233D01*
X176624268Y-132003233D01*
X177013927Y-132468182D01*
X178454055Y-132971832D01*
X179977299Y-132886030D01*
X180986073Y-132468182D01*
X181375732Y-132003233D01*
X181130914Y-131758415D01*
X181144287Y-131752876D01*
X181173599Y-131556442D01*
X180697056Y-131079899D01*
X180574727Y-131202228D01*
X180291884Y-130919385D01*
X180414213Y-130797056D01*
X179937670Y-130320513D01*
X179741236Y-130349825D01*
X179737501Y-130365003D01*
X179000000Y-129627502D01*
X178264303Y-130363198D01*
X178258764Y-130349825D01*
X178062330Y-130320513D01*
X177585787Y-130797056D01*
X177708116Y-130919385D01*
X177425273Y-131202228D01*
X177302944Y-131079899D01*
X176826401Y-131556442D01*
X176855713Y-131752876D01*
X176870890Y-131756611D01*
X176624268Y-132003233D01*
X146569057Y-132003233D01*
X146792655Y-131779635D01*
X146935000Y-131435983D01*
X146935000Y-131064017D01*
X146792655Y-130720365D01*
X146529635Y-130457345D01*
X146185983Y-130315000D01*
X145814017Y-130315000D01*
X145470365Y-130457345D01*
X145207345Y-130720365D01*
X145065000Y-131064017D01*
X130419414Y-131064017D01*
X130398839Y-130960582D01*
X130070625Y-130469375D01*
X130052381Y-130457184D01*
X130097765Y-130448157D01*
X130307809Y-130307809D01*
X130448157Y-130097765D01*
X130497440Y-129850000D01*
X130497440Y-128150000D01*
X130448157Y-127902235D01*
X130307809Y-127692191D01*
X130097765Y-127551843D01*
X129850000Y-127502560D01*
X128150000Y-127502560D01*
X127902235Y-127551843D01*
X127692191Y-127692191D01*
X127551843Y-127902235D01*
X127542816Y-127947619D01*
X127530625Y-127929375D01*
X127039418Y-127601161D01*
X126606256Y-127515000D01*
X126313744Y-127515000D01*
X125880582Y-127601161D01*
X125389375Y-127929375D01*
X125190000Y-128227761D01*
X124990625Y-127929375D01*
X124499418Y-127601161D01*
X124066256Y-127515000D01*
X123773744Y-127515000D01*
X123340582Y-127601161D01*
X122849375Y-127929375D01*
X122521161Y-128420582D01*
X122405908Y-129000000D01*
X117835447Y-129000000D01*
X117786030Y-128122701D01*
X117368182Y-127113927D01*
X116903233Y-126724268D01*
X116658415Y-126969086D01*
X116652876Y-126955713D01*
X116456442Y-126926401D01*
X115979899Y-127402944D01*
X116102228Y-127525273D01*
X115819385Y-127808116D01*
X115697056Y-127685787D01*
X115220513Y-128162330D01*
X115249825Y-128358764D01*
X115265003Y-128362499D01*
X114527502Y-129100000D01*
X113472498Y-129100000D01*
X112736802Y-128364303D01*
X112750175Y-128358764D01*
X112779487Y-128162330D01*
X112302944Y-127685787D01*
X112180615Y-127808116D01*
X111897772Y-127525273D01*
X112020101Y-127402944D01*
X111543558Y-126926401D01*
X111347124Y-126955713D01*
X111343389Y-126970890D01*
X111096767Y-126724268D01*
X110631818Y-127113927D01*
X110128168Y-128554055D01*
X109710000Y-128554055D01*
X109710000Y-126196767D01*
X111624268Y-126196767D01*
X111869086Y-126441585D01*
X111855713Y-126447124D01*
X111826401Y-126643558D01*
X112302944Y-127120101D01*
X112425273Y-126997772D01*
X112708116Y-127280615D01*
X112585787Y-127402944D01*
X113062330Y-127879487D01*
X113258764Y-127850175D01*
X113262499Y-127834997D01*
X114000000Y-128572498D01*
X114735697Y-127836802D01*
X114741236Y-127850175D01*
X114937670Y-127879487D01*
X115414213Y-127402944D01*
X115291884Y-127280615D01*
X115574727Y-126997772D01*
X115697056Y-127120101D01*
X116173599Y-126643558D01*
X116144287Y-126447124D01*
X116129110Y-126443389D01*
X116375732Y-126196767D01*
X115986073Y-125731818D01*
X114545945Y-125228168D01*
X113022701Y-125313970D01*
X112013927Y-125731818D01*
X111624268Y-126196767D01*
X109710000Y-126196767D01*
X109710000Y-123264017D01*
X135515000Y-123264017D01*
X135515000Y-123635983D01*
X135657345Y-123979635D01*
X135920365Y-124242655D01*
X136104404Y-124318886D01*
X136065000Y-124414017D01*
X136065000Y-124785983D01*
X136207345Y-125129635D01*
X136470365Y-125392655D01*
X136807014Y-125532099D01*
X136773083Y-125614016D01*
X136773083Y-125985982D01*
X136915428Y-126329634D01*
X137178448Y-126592654D01*
X137522100Y-126734999D01*
X137894066Y-126734999D01*
X138237718Y-126592654D01*
X138500738Y-126329634D01*
X138566058Y-126171937D01*
X138839017Y-126285000D01*
X138890059Y-126285000D01*
X138899056Y-126306721D01*
X139100136Y-126507801D01*
X139085231Y-126543786D01*
X139085231Y-126915752D01*
X139227576Y-127259404D01*
X139490596Y-127522424D01*
X139834248Y-127664769D01*
X140206214Y-127664769D01*
X140271623Y-127637676D01*
X140240000Y-127714021D01*
X140240000Y-127966285D01*
X139988937Y-127862292D01*
X139616971Y-127862292D01*
X139335000Y-127979088D01*
X139335000Y-127964017D01*
X139192655Y-127620365D01*
X138929635Y-127357345D01*
X138585983Y-127215000D01*
X138214017Y-127215000D01*
X137870365Y-127357345D01*
X137607345Y-127620365D01*
X137465000Y-127964017D01*
X137465000Y-128335983D01*
X137607345Y-128679635D01*
X137870365Y-128942655D01*
X138214017Y-129085000D01*
X138585983Y-129085000D01*
X138867954Y-128968204D01*
X138867954Y-128983275D01*
X139010299Y-129326927D01*
X139273319Y-129589947D01*
X139616971Y-129732292D01*
X139988937Y-129732292D01*
X140118635Y-129678569D01*
X140129437Y-129704647D01*
X140392457Y-129967667D01*
X140460443Y-129995828D01*
X140566368Y-130251554D01*
X140829388Y-130514574D01*
X141173040Y-130656919D01*
X141545006Y-130656919D01*
X141888658Y-130514574D01*
X142151678Y-130251554D01*
X142294023Y-129907902D01*
X142294023Y-129764017D01*
X151115000Y-129764017D01*
X151115000Y-130135983D01*
X151257345Y-130479635D01*
X151520365Y-130742655D01*
X151864017Y-130885000D01*
X152235983Y-130885000D01*
X152579635Y-130742655D01*
X152842655Y-130479635D01*
X152985000Y-130135983D01*
X152985000Y-129764017D01*
X152842655Y-129420365D01*
X152579635Y-129157345D01*
X152235983Y-129015000D01*
X151864017Y-129015000D01*
X151520365Y-129157345D01*
X151257345Y-129420365D01*
X151115000Y-129764017D01*
X142294023Y-129764017D01*
X142294023Y-129535936D01*
X142151678Y-129192284D01*
X141888658Y-128929264D01*
X141820672Y-128901103D01*
X141725634Y-128671660D01*
X141967655Y-128429639D01*
X142110000Y-128085987D01*
X142110000Y-127714021D01*
X141967655Y-127370369D01*
X141798193Y-127200907D01*
X141988692Y-127010408D01*
X142090750Y-126764017D01*
X142515000Y-126764017D01*
X142515000Y-127135983D01*
X142657345Y-127479635D01*
X142920365Y-127742655D01*
X143264017Y-127885000D01*
X143635983Y-127885000D01*
X143764645Y-127831707D01*
X144014017Y-127935000D01*
X144385983Y-127935000D01*
X144390274Y-127933223D01*
X144418189Y-128000615D01*
X144326447Y-128222100D01*
X144326447Y-128594066D01*
X144468792Y-128937718D01*
X144731812Y-129200738D01*
X145075464Y-129343083D01*
X145447430Y-129343083D01*
X145791082Y-129200738D01*
X146054102Y-128937718D01*
X146196447Y-128594066D01*
X146196447Y-128222100D01*
X146152999Y-128117207D01*
X146244741Y-127895722D01*
X146244741Y-127523756D01*
X146116444Y-127214017D01*
X146390000Y-127214017D01*
X146390000Y-127585983D01*
X146532345Y-127929635D01*
X146795365Y-128192655D01*
X147139017Y-128335000D01*
X147510983Y-128335000D01*
X147854635Y-128192655D01*
X148117655Y-127929635D01*
X148175900Y-127789017D01*
X148815000Y-127789017D01*
X148815000Y-128160983D01*
X148957345Y-128504635D01*
X149220365Y-128767655D01*
X149564017Y-128910000D01*
X149935983Y-128910000D01*
X150279635Y-128767655D01*
X150493235Y-128554055D01*
X175128168Y-128554055D01*
X175213970Y-130077299D01*
X175631818Y-131086073D01*
X176096767Y-131475732D01*
X176341585Y-131230914D01*
X176347124Y-131244287D01*
X176543558Y-131273599D01*
X177020101Y-130797056D01*
X176897772Y-130674727D01*
X177180615Y-130391884D01*
X177302944Y-130514213D01*
X177779487Y-130037670D01*
X177750175Y-129841236D01*
X177734997Y-129837501D01*
X178472498Y-129100000D01*
X179527502Y-129100000D01*
X180263198Y-129835697D01*
X180249825Y-129841236D01*
X180220513Y-130037670D01*
X180697056Y-130514213D01*
X180819385Y-130391884D01*
X181102228Y-130674727D01*
X180979899Y-130797056D01*
X181456442Y-131273599D01*
X181652876Y-131244287D01*
X181656611Y-131229110D01*
X181903233Y-131475732D01*
X182368182Y-131086073D01*
X182871832Y-129645945D01*
X182786030Y-128122701D01*
X182368182Y-127113927D01*
X181903233Y-126724268D01*
X181658415Y-126969086D01*
X181652876Y-126955713D01*
X181456442Y-126926401D01*
X180979899Y-127402944D01*
X181102228Y-127525273D01*
X180819385Y-127808116D01*
X180697056Y-127685787D01*
X180220513Y-128162330D01*
X180249825Y-128358764D01*
X180265003Y-128362499D01*
X179527502Y-129100000D01*
X178472498Y-129100000D01*
X177736802Y-128364303D01*
X177750175Y-128358764D01*
X177779487Y-128162330D01*
X177302944Y-127685787D01*
X177180615Y-127808116D01*
X176897772Y-127525273D01*
X177020101Y-127402944D01*
X176543558Y-126926401D01*
X176347124Y-126955713D01*
X176343389Y-126970890D01*
X176096767Y-126724268D01*
X175631818Y-127113927D01*
X175128168Y-128554055D01*
X150493235Y-128554055D01*
X150542655Y-128504635D01*
X150685000Y-128160983D01*
X150685000Y-127789017D01*
X150542655Y-127445365D01*
X150279635Y-127182345D01*
X149935983Y-127040000D01*
X149564017Y-127040000D01*
X149220365Y-127182345D01*
X148957345Y-127445365D01*
X148815000Y-127789017D01*
X148175900Y-127789017D01*
X148260000Y-127585983D01*
X148260000Y-127214017D01*
X148117655Y-126870365D01*
X147854635Y-126607345D01*
X147510983Y-126465000D01*
X147139017Y-126465000D01*
X146795365Y-126607345D01*
X146532345Y-126870365D01*
X146390000Y-127214017D01*
X146116444Y-127214017D01*
X146102396Y-127180104D01*
X145875416Y-126953124D01*
X146073905Y-126754635D01*
X146216250Y-126410983D01*
X146216250Y-126039017D01*
X146123053Y-125814017D01*
X151115000Y-125814017D01*
X151115000Y-126185983D01*
X151257345Y-126529635D01*
X151520365Y-126792655D01*
X151864017Y-126935000D01*
X152235983Y-126935000D01*
X152579635Y-126792655D01*
X152842655Y-126529635D01*
X152980533Y-126196767D01*
X176624268Y-126196767D01*
X176869086Y-126441585D01*
X176855713Y-126447124D01*
X176826401Y-126643558D01*
X177302944Y-127120101D01*
X177425273Y-126997772D01*
X177708116Y-127280615D01*
X177585787Y-127402944D01*
X178062330Y-127879487D01*
X178258764Y-127850175D01*
X178262499Y-127834997D01*
X179000000Y-128572498D01*
X179735697Y-127836802D01*
X179741236Y-127850175D01*
X179937670Y-127879487D01*
X180414213Y-127402944D01*
X180291884Y-127280615D01*
X180574727Y-126997772D01*
X180697056Y-127120101D01*
X181173599Y-126643558D01*
X181144287Y-126447124D01*
X181129110Y-126443389D01*
X181375732Y-126196767D01*
X180986073Y-125731818D01*
X179545945Y-125228168D01*
X178022701Y-125313970D01*
X177013927Y-125731818D01*
X176624268Y-126196767D01*
X152980533Y-126196767D01*
X152985000Y-126185983D01*
X152985000Y-125814017D01*
X152842655Y-125470365D01*
X152579635Y-125207345D01*
X152235983Y-125065000D01*
X151864017Y-125065000D01*
X151520365Y-125207345D01*
X151257345Y-125470365D01*
X151115000Y-125814017D01*
X146123053Y-125814017D01*
X146073905Y-125695365D01*
X145835000Y-125456460D01*
X145835000Y-125395305D01*
X145692655Y-125051653D01*
X145429635Y-124788633D01*
X145085983Y-124646288D01*
X144714017Y-124646288D01*
X144370365Y-124788633D01*
X144107345Y-125051653D01*
X144015005Y-125274581D01*
X143911648Y-125317393D01*
X143648628Y-125580413D01*
X143506283Y-125924065D01*
X143506283Y-126015000D01*
X143264017Y-126015000D01*
X142920365Y-126157345D01*
X142657345Y-126420365D01*
X142515000Y-126764017D01*
X142090750Y-126764017D01*
X142131037Y-126666756D01*
X142131037Y-126294790D01*
X141988692Y-125951138D01*
X141725672Y-125688118D01*
X141382020Y-125545773D01*
X141010054Y-125545773D01*
X140666402Y-125688118D01*
X140626711Y-125727809D01*
X140626711Y-125591103D01*
X140484366Y-125247451D01*
X140221346Y-124984431D01*
X139877694Y-124842086D01*
X139826652Y-124842086D01*
X139817655Y-124820365D01*
X139554635Y-124557345D01*
X139210983Y-124415000D01*
X138839017Y-124415000D01*
X138661019Y-124488729D01*
X138429635Y-124257345D01*
X138085983Y-124115000D01*
X137811143Y-124115000D01*
X137792655Y-124070365D01*
X137529635Y-123807345D01*
X137345596Y-123731114D01*
X137385000Y-123635983D01*
X137385000Y-123264017D01*
X137242655Y-122920365D01*
X136979635Y-122657345D01*
X136635983Y-122515000D01*
X136264017Y-122515000D01*
X135920365Y-122657345D01*
X135657345Y-122920365D01*
X135515000Y-123264017D01*
X109710000Y-123264017D01*
X109710000Y-122464017D01*
X146465000Y-122464017D01*
X146465000Y-122835983D01*
X146607345Y-123179635D01*
X146870365Y-123442655D01*
X147214017Y-123585000D01*
X147585983Y-123585000D01*
X147929635Y-123442655D01*
X148058272Y-123314018D01*
X154365000Y-123314018D01*
X154365000Y-123685984D01*
X154507345Y-124029636D01*
X154770365Y-124292656D01*
X155114017Y-124435001D01*
X155485983Y-124435001D01*
X155829635Y-124292656D01*
X156092655Y-124029636D01*
X156235000Y-123685984D01*
X156235000Y-123314018D01*
X156235000Y-123314017D01*
X159865000Y-123314017D01*
X159865000Y-123685983D01*
X160007345Y-124029635D01*
X160270365Y-124292655D01*
X160614017Y-124435000D01*
X160985983Y-124435000D01*
X161329635Y-124292655D01*
X161592655Y-124029635D01*
X161735000Y-123685983D01*
X161735000Y-123314017D01*
X161592655Y-122970365D01*
X161329635Y-122707345D01*
X160985983Y-122565000D01*
X160614017Y-122565000D01*
X160270365Y-122707345D01*
X160007345Y-122970365D01*
X159865000Y-123314017D01*
X156235000Y-123314017D01*
X156092655Y-122970366D01*
X155829635Y-122707346D01*
X155485983Y-122565001D01*
X155114017Y-122565001D01*
X154770365Y-122707346D01*
X154507345Y-122970366D01*
X154365000Y-123314018D01*
X148058272Y-123314018D01*
X148192655Y-123179635D01*
X148335000Y-122835983D01*
X148335000Y-122464017D01*
X148192655Y-122120365D01*
X147929635Y-121857345D01*
X147585983Y-121715000D01*
X147214017Y-121715000D01*
X146870365Y-121857345D01*
X146607345Y-122120365D01*
X146465000Y-122464017D01*
X109710000Y-122464017D01*
X109710000Y-120489017D01*
X126640000Y-120489017D01*
X126640000Y-120860983D01*
X126782345Y-121204635D01*
X127045365Y-121467655D01*
X127389017Y-121610000D01*
X127760983Y-121610000D01*
X128104635Y-121467655D01*
X128367655Y-121204635D01*
X128510000Y-120860983D01*
X128510000Y-120489017D01*
X128367655Y-120145365D01*
X128104635Y-119882345D01*
X127760983Y-119740000D01*
X127389017Y-119740000D01*
X127045365Y-119882345D01*
X126782345Y-120145365D01*
X126640000Y-120489017D01*
X109710000Y-120489017D01*
X109710000Y-119274234D01*
X129665000Y-119274234D01*
X129665000Y-119725766D01*
X129837793Y-120142926D01*
X130157074Y-120462207D01*
X130574234Y-120635000D01*
X131025766Y-120635000D01*
X131220845Y-120554196D01*
X131165000Y-120689017D01*
X131165000Y-121060983D01*
X131307345Y-121404635D01*
X131570365Y-121667655D01*
X131914017Y-121810000D01*
X132285983Y-121810000D01*
X132629635Y-121667655D01*
X132892655Y-121404635D01*
X133035000Y-121060983D01*
X133035000Y-120689017D01*
X132999905Y-120604291D01*
X133342926Y-120462207D01*
X133662207Y-120142926D01*
X133736313Y-119964017D01*
X136465000Y-119964017D01*
X136465000Y-120335983D01*
X136607345Y-120679635D01*
X136870365Y-120942655D01*
X137214017Y-121085000D01*
X137585983Y-121085000D01*
X137929635Y-120942655D01*
X138192655Y-120679635D01*
X138335000Y-120335983D01*
X138335000Y-119964017D01*
X138192655Y-119620365D01*
X137986307Y-119414017D01*
X147289999Y-119414017D01*
X147289999Y-119785983D01*
X147432344Y-120129635D01*
X147695364Y-120392655D01*
X147786995Y-120430610D01*
X147786995Y-120452681D01*
X147929340Y-120796333D01*
X148192360Y-121059353D01*
X148536012Y-121201698D01*
X148907978Y-121201698D01*
X149251630Y-121059353D01*
X149514650Y-120796333D01*
X149656995Y-120452681D01*
X149656995Y-120080715D01*
X149525815Y-119764017D01*
X152240000Y-119764017D01*
X152240000Y-120135983D01*
X152382345Y-120479635D01*
X152645365Y-120742655D01*
X152989017Y-120885000D01*
X153360983Y-120885000D01*
X153704635Y-120742655D01*
X153967655Y-120479635D01*
X154110000Y-120135983D01*
X154110000Y-119764017D01*
X153967655Y-119420365D01*
X153704635Y-119157345D01*
X153539679Y-119089018D01*
X160839999Y-119089018D01*
X160839999Y-119460984D01*
X160982344Y-119804636D01*
X161245364Y-120067656D01*
X161589016Y-120210001D01*
X161960982Y-120210001D01*
X162304634Y-120067656D01*
X162567654Y-119804636D01*
X162709999Y-119460984D01*
X162709999Y-119089018D01*
X162567654Y-118745366D01*
X162304634Y-118482346D01*
X161960982Y-118340001D01*
X161589016Y-118340001D01*
X161245364Y-118482346D01*
X160982344Y-118745366D01*
X160839999Y-119089018D01*
X153539679Y-119089018D01*
X153360983Y-119015000D01*
X152989017Y-119015000D01*
X152645365Y-119157345D01*
X152382345Y-119420365D01*
X152240000Y-119764017D01*
X149525815Y-119764017D01*
X149514650Y-119737063D01*
X149251630Y-119474043D01*
X149159999Y-119436088D01*
X149159999Y-119414017D01*
X149017654Y-119070365D01*
X148754634Y-118807345D01*
X148410982Y-118665000D01*
X148039016Y-118665000D01*
X147695364Y-118807345D01*
X147432344Y-119070365D01*
X147289999Y-119414017D01*
X137986307Y-119414017D01*
X137929635Y-119357345D01*
X137585983Y-119215000D01*
X137214017Y-119215000D01*
X136870365Y-119357345D01*
X136607345Y-119620365D01*
X136465000Y-119964017D01*
X133736313Y-119964017D01*
X133835000Y-119725766D01*
X133835000Y-119274234D01*
X133662207Y-118857074D01*
X133342926Y-118537793D01*
X132925766Y-118365000D01*
X132474234Y-118365000D01*
X132057074Y-118537793D01*
X131816157Y-118778710D01*
X131683843Y-118778710D01*
X131442926Y-118537793D01*
X131025766Y-118365000D01*
X130574234Y-118365000D01*
X130157074Y-118537793D01*
X129837793Y-118857074D01*
X129665000Y-119274234D01*
X109710000Y-119274234D01*
X109710000Y-117314017D01*
X126965000Y-117314017D01*
X126965000Y-117685983D01*
X127107345Y-118029635D01*
X127370365Y-118292655D01*
X127714017Y-118435000D01*
X128085983Y-118435000D01*
X128429635Y-118292655D01*
X128692655Y-118029635D01*
X128835000Y-117685983D01*
X128835000Y-117314017D01*
X128692655Y-116970365D01*
X128536307Y-116814017D01*
X137415000Y-116814017D01*
X137415000Y-117185983D01*
X137557345Y-117529635D01*
X137820365Y-117792655D01*
X138164017Y-117935000D01*
X138535983Y-117935000D01*
X138879635Y-117792655D01*
X139142655Y-117529635D01*
X139285000Y-117185983D01*
X139285000Y-116911622D01*
X139516096Y-117142718D01*
X139859748Y-117285063D01*
X140231714Y-117285063D01*
X140408194Y-117211963D01*
X140559683Y-117274711D01*
X140931649Y-117274711D01*
X141275301Y-117132366D01*
X141538321Y-116869346D01*
X141659416Y-116576996D01*
X142043128Y-116576996D01*
X142043128Y-116948962D01*
X142185473Y-117292614D01*
X142448493Y-117555634D01*
X142792145Y-117697979D01*
X143164111Y-117697979D01*
X143507763Y-117555634D01*
X143770783Y-117292614D01*
X143913128Y-116948962D01*
X143913128Y-116771077D01*
X144124337Y-116771077D01*
X144249155Y-116719376D01*
X144330951Y-116916848D01*
X144593971Y-117179868D01*
X144937623Y-117322213D01*
X145309589Y-117322213D01*
X145550242Y-117222532D01*
X145720365Y-117392655D01*
X146064017Y-117535000D01*
X146435983Y-117535000D01*
X146779635Y-117392655D01*
X147042655Y-117129635D01*
X147185000Y-116785983D01*
X147185000Y-116414017D01*
X147042655Y-116070365D01*
X146779635Y-115807345D01*
X146435983Y-115665000D01*
X146157290Y-115665000D01*
X146392655Y-115429635D01*
X146535000Y-115085983D01*
X146535000Y-114714017D01*
X146410737Y-114414017D01*
X148415000Y-114414017D01*
X148415000Y-114785983D01*
X148557345Y-115129635D01*
X148820365Y-115392655D01*
X149164017Y-115535000D01*
X149262705Y-115535000D01*
X149520365Y-115792660D01*
X149864017Y-115935005D01*
X150235983Y-115935005D01*
X150332817Y-115894895D01*
X150107347Y-116120365D01*
X149965002Y-116464017D01*
X149965002Y-116835983D01*
X150013858Y-116953931D01*
X149885536Y-117263728D01*
X149885536Y-117635694D01*
X150027881Y-117979346D01*
X150290901Y-118242366D01*
X150634553Y-118384711D01*
X151006519Y-118384711D01*
X151350171Y-118242366D01*
X151613191Y-117979346D01*
X151755536Y-117635694D01*
X151755536Y-117263728D01*
X151706680Y-117145780D01*
X151835002Y-116835983D01*
X151835002Y-116464017D01*
X151692657Y-116120365D01*
X151429637Y-115857345D01*
X151085985Y-115715000D01*
X150714019Y-115715000D01*
X150617185Y-115755110D01*
X150842655Y-115529640D01*
X150985000Y-115185988D01*
X150985000Y-114814022D01*
X150943577Y-114714017D01*
X151665000Y-114714017D01*
X151665000Y-115085983D01*
X151807345Y-115429635D01*
X152070365Y-115692655D01*
X152414017Y-115835000D01*
X152559862Y-115835000D01*
X152465000Y-116064017D01*
X152465000Y-116435983D01*
X152607345Y-116779635D01*
X152870365Y-117042655D01*
X153214017Y-117185000D01*
X153585983Y-117185000D01*
X153929635Y-117042655D01*
X154192655Y-116779635D01*
X154335000Y-116435983D01*
X154335000Y-116064017D01*
X154192655Y-115720365D01*
X153929635Y-115457345D01*
X153585983Y-115315000D01*
X153440138Y-115315000D01*
X153535000Y-115085983D01*
X153535000Y-114714017D01*
X153410737Y-114414017D01*
X155465000Y-114414017D01*
X155465000Y-114785983D01*
X155607345Y-115129635D01*
X155870365Y-115392655D01*
X156214017Y-115535000D01*
X156512710Y-115535000D01*
X156520365Y-115542655D01*
X156864017Y-115685000D01*
X157235983Y-115685000D01*
X157579635Y-115542655D01*
X157842655Y-115279635D01*
X157985000Y-114935983D01*
X157985000Y-114714017D01*
X158615000Y-114714017D01*
X158615000Y-115085983D01*
X158757345Y-115429635D01*
X159020365Y-115692655D01*
X159364017Y-115835000D01*
X159735983Y-115835000D01*
X160079635Y-115692655D01*
X160342655Y-115429635D01*
X160485000Y-115085983D01*
X160485000Y-114714017D01*
X160360737Y-114414017D01*
X162215000Y-114414017D01*
X162215000Y-114785983D01*
X162357345Y-115129635D01*
X162620365Y-115392655D01*
X162964017Y-115535000D01*
X163335983Y-115535000D01*
X163354882Y-115527172D01*
X163420365Y-115592655D01*
X163764017Y-115735000D01*
X164135983Y-115735000D01*
X164479635Y-115592655D01*
X164742655Y-115329635D01*
X164885000Y-114985983D01*
X164885000Y-114714017D01*
X165615000Y-114714017D01*
X165615000Y-115085983D01*
X165757345Y-115429635D01*
X166020365Y-115692655D01*
X166364017Y-115835000D01*
X166735983Y-115835000D01*
X167079635Y-115692655D01*
X167342655Y-115429635D01*
X167485000Y-115085983D01*
X167485000Y-114814017D01*
X175165000Y-114814017D01*
X175165000Y-115185983D01*
X175307345Y-115529635D01*
X175570365Y-115792655D01*
X175914017Y-115935000D01*
X176285983Y-115935000D01*
X176629635Y-115792655D01*
X176892655Y-115529635D01*
X177035000Y-115185983D01*
X177035000Y-114814017D01*
X176892655Y-114470365D01*
X176629635Y-114207345D01*
X176285983Y-114065000D01*
X175914017Y-114065000D01*
X175570365Y-114207345D01*
X175307345Y-114470365D01*
X175165000Y-114814017D01*
X167485000Y-114814017D01*
X167485000Y-114714017D01*
X167342655Y-114370365D01*
X167079635Y-114107345D01*
X166735983Y-113965000D01*
X166364017Y-113965000D01*
X166020365Y-114107345D01*
X165757345Y-114370365D01*
X165615000Y-114714017D01*
X164885000Y-114714017D01*
X164885000Y-114614017D01*
X164742655Y-114270365D01*
X164479635Y-114007345D01*
X164135983Y-113865000D01*
X163764017Y-113865000D01*
X163745118Y-113872828D01*
X163679635Y-113807345D01*
X163335983Y-113665000D01*
X162964017Y-113665000D01*
X162620365Y-113807345D01*
X162357345Y-114070365D01*
X162215000Y-114414017D01*
X160360737Y-114414017D01*
X160342655Y-114370365D01*
X160079635Y-114107345D01*
X159735983Y-113965000D01*
X159364017Y-113965000D01*
X159020365Y-114107345D01*
X158757345Y-114370365D01*
X158615000Y-114714017D01*
X157985000Y-114714017D01*
X157985000Y-114564017D01*
X157842655Y-114220365D01*
X157579635Y-113957345D01*
X157235983Y-113815000D01*
X156937290Y-113815000D01*
X156929635Y-113807345D01*
X156585983Y-113665000D01*
X156214017Y-113665000D01*
X155870365Y-113807345D01*
X155607345Y-114070365D01*
X155465000Y-114414017D01*
X153410737Y-114414017D01*
X153392655Y-114370365D01*
X153129635Y-114107345D01*
X152785983Y-113965000D01*
X152414017Y-113965000D01*
X152070365Y-114107345D01*
X151807345Y-114370365D01*
X151665000Y-114714017D01*
X150943577Y-114714017D01*
X150842655Y-114470370D01*
X150579635Y-114207350D01*
X150235983Y-114065005D01*
X150137295Y-114065005D01*
X149879635Y-113807345D01*
X149535983Y-113665000D01*
X149164017Y-113665000D01*
X148820365Y-113807345D01*
X148557345Y-114070365D01*
X148415000Y-114414017D01*
X146410737Y-114414017D01*
X146392655Y-114370365D01*
X146129635Y-114107345D01*
X145785983Y-113965000D01*
X145414017Y-113965000D01*
X145070365Y-114107345D01*
X144807345Y-114370365D01*
X144665000Y-114714017D01*
X144665000Y-114879118D01*
X144535672Y-114879118D01*
X144303498Y-114975288D01*
X144124337Y-114901077D01*
X143752371Y-114901077D01*
X143408719Y-115043422D01*
X143145699Y-115306442D01*
X143003354Y-115650094D01*
X143003354Y-115827979D01*
X142792145Y-115827979D01*
X142448493Y-115970324D01*
X142185473Y-116233344D01*
X142043128Y-116576996D01*
X141659416Y-116576996D01*
X141680666Y-116525694D01*
X141680666Y-116153728D01*
X141538321Y-115810076D01*
X141275301Y-115547056D01*
X140931649Y-115404711D01*
X140559683Y-115404711D01*
X140383203Y-115477811D01*
X140231714Y-115415063D01*
X139859748Y-115415063D01*
X139516096Y-115557408D01*
X139253076Y-115820428D01*
X139110731Y-116164080D01*
X139110731Y-116438441D01*
X138879635Y-116207345D01*
X138535983Y-116065000D01*
X138164017Y-116065000D01*
X137820365Y-116207345D01*
X137557345Y-116470365D01*
X137415000Y-116814017D01*
X128536307Y-116814017D01*
X128429635Y-116707345D01*
X128085983Y-116565000D01*
X127714017Y-116565000D01*
X127370365Y-116707345D01*
X127107345Y-116970365D01*
X126965000Y-117314017D01*
X109710000Y-117314017D01*
X109710000Y-114364017D01*
X134515000Y-114364017D01*
X134515000Y-114735983D01*
X134657345Y-115079635D01*
X134920365Y-115342655D01*
X135087935Y-115412065D01*
X135157345Y-115579635D01*
X135420365Y-115842655D01*
X135764017Y-115985000D01*
X136135983Y-115985000D01*
X136479635Y-115842655D01*
X136742655Y-115579635D01*
X136885000Y-115235983D01*
X136885000Y-114864017D01*
X136742655Y-114520365D01*
X136479635Y-114257345D01*
X136312065Y-114187935D01*
X136242655Y-114020365D01*
X135979635Y-113757345D01*
X135635983Y-113615000D01*
X135264017Y-113615000D01*
X134920365Y-113757345D01*
X134657345Y-114020365D01*
X134515000Y-114364017D01*
X109710000Y-114364017D01*
X109710000Y-110189007D01*
X133314718Y-110189007D01*
X133314718Y-110560973D01*
X133457063Y-110904625D01*
X133720083Y-111167645D01*
X134063735Y-111309990D01*
X134435701Y-111309990D01*
X134779353Y-111167645D01*
X135042373Y-110904625D01*
X135073465Y-110829562D01*
X135073465Y-111186014D01*
X135215810Y-111529666D01*
X135478830Y-111792686D01*
X135822482Y-111935031D01*
X136194448Y-111935031D01*
X136378229Y-111858907D01*
X136562009Y-111935031D01*
X136933975Y-111935031D01*
X137277627Y-111792686D01*
X137540647Y-111529666D01*
X137596800Y-111394100D01*
X137770365Y-111567665D01*
X138114017Y-111710010D01*
X138485983Y-111710010D01*
X138540127Y-111687583D01*
X138457345Y-111770365D01*
X138315000Y-112114017D01*
X138315000Y-112485983D01*
X138457345Y-112829635D01*
X138720365Y-113092655D01*
X139064017Y-113235000D01*
X139435983Y-113235000D01*
X139779635Y-113092655D01*
X140042655Y-112829635D01*
X140185000Y-112485983D01*
X140185000Y-112114017D01*
X140164290Y-112064017D01*
X141415000Y-112064017D01*
X141415000Y-112435983D01*
X141557345Y-112779635D01*
X141820365Y-113042655D01*
X142164017Y-113185000D01*
X142535983Y-113185000D01*
X142879635Y-113042655D01*
X143142655Y-112779635D01*
X143285000Y-112435983D01*
X143285000Y-112064017D01*
X143245837Y-111969470D01*
X143351649Y-111714017D01*
X145865000Y-111714017D01*
X145865000Y-112085983D01*
X146007345Y-112429635D01*
X146270365Y-112692655D01*
X146614017Y-112835000D01*
X146985983Y-112835000D01*
X147139647Y-112771351D01*
X147414021Y-112885000D01*
X147661201Y-112885000D01*
X147772721Y-112996520D01*
X148116373Y-113138865D01*
X148488339Y-113138865D01*
X148831991Y-112996520D01*
X149095011Y-112733500D01*
X149237356Y-112389848D01*
X149237356Y-112017882D01*
X149095011Y-111674230D01*
X148831991Y-111411210D01*
X148488339Y-111268865D01*
X148241159Y-111268865D01*
X148129639Y-111157345D01*
X147785987Y-111015000D01*
X147414021Y-111015000D01*
X147260357Y-111078649D01*
X146985983Y-110965000D01*
X146614017Y-110965000D01*
X146270365Y-111107345D01*
X146007345Y-111370365D01*
X145865000Y-111714017D01*
X143351649Y-111714017D01*
X143358111Y-111698417D01*
X143358111Y-111620422D01*
X143514017Y-111685000D01*
X143885983Y-111685000D01*
X144229635Y-111542655D01*
X144492655Y-111279635D01*
X144635000Y-110935983D01*
X144635000Y-110564017D01*
X144492655Y-110220365D01*
X144229635Y-109957345D01*
X143885983Y-109815000D01*
X143562269Y-109815000D01*
X143529635Y-109782366D01*
X143185983Y-109640021D01*
X142814017Y-109640021D01*
X142470365Y-109782366D01*
X142207345Y-110045386D01*
X142065000Y-110389038D01*
X142065000Y-110648732D01*
X141893476Y-110719779D01*
X141630456Y-110982799D01*
X141488111Y-111326451D01*
X141488111Y-111698417D01*
X141527274Y-111792964D01*
X141415000Y-112064017D01*
X140164290Y-112064017D01*
X140042655Y-111770365D01*
X139779635Y-111507345D01*
X139435983Y-111365000D01*
X139064017Y-111365000D01*
X139009873Y-111387427D01*
X139092655Y-111304645D01*
X139235000Y-110960993D01*
X139235000Y-110589027D01*
X139092655Y-110245375D01*
X139043517Y-110196237D01*
X139151387Y-110088367D01*
X139293732Y-109744715D01*
X139293732Y-109372749D01*
X139151387Y-109029097D01*
X138888367Y-108766077D01*
X138641973Y-108664017D01*
X143965000Y-108664017D01*
X143965000Y-109035983D01*
X144107345Y-109379635D01*
X144370365Y-109642655D01*
X144714017Y-109785000D01*
X145085983Y-109785000D01*
X145352370Y-109674659D01*
X145420366Y-109742655D01*
X145764018Y-109885000D01*
X145962347Y-109885000D01*
X146015770Y-110013975D01*
X146278790Y-110276995D01*
X146622442Y-110419340D01*
X146994408Y-110419340D01*
X147066985Y-110389277D01*
X147070363Y-110392655D01*
X147414015Y-110535000D01*
X147675763Y-110535000D01*
X147846474Y-110705711D01*
X148190126Y-110848056D01*
X148562092Y-110848056D01*
X148905744Y-110705711D01*
X149141290Y-110470165D01*
X149207345Y-110629635D01*
X149470365Y-110892655D01*
X149804357Y-111030999D01*
X149907345Y-111279635D01*
X150090210Y-111462500D01*
X149882345Y-111670365D01*
X149740000Y-112014017D01*
X149740000Y-112385983D01*
X149882345Y-112729635D01*
X150145365Y-112992655D01*
X150489017Y-113135000D01*
X150860983Y-113135000D01*
X151204635Y-112992655D01*
X151467655Y-112729635D01*
X151610000Y-112385983D01*
X151610000Y-112200494D01*
X151814017Y-112285000D01*
X152185983Y-112285000D01*
X152529635Y-112142655D01*
X152792655Y-111879635D01*
X152935000Y-111535983D01*
X152935000Y-111164017D01*
X152792655Y-110820365D01*
X152529635Y-110557345D01*
X152185983Y-110415000D01*
X151814017Y-110415000D01*
X151608531Y-110500115D01*
X151492655Y-110220365D01*
X151229635Y-109957345D01*
X150895643Y-109819001D01*
X150792655Y-109570365D01*
X150529635Y-109307345D01*
X150304321Y-109214017D01*
X153715000Y-109214017D01*
X153715000Y-109585983D01*
X153857345Y-109929635D01*
X154120365Y-110192655D01*
X154464017Y-110335000D01*
X154835983Y-110335000D01*
X154964645Y-110281707D01*
X155189875Y-110375000D01*
X155055178Y-110430793D01*
X154835983Y-110340000D01*
X154464017Y-110340000D01*
X154120365Y-110482345D01*
X153857345Y-110745365D01*
X153715000Y-111089017D01*
X153715000Y-111460983D01*
X153857345Y-111804635D01*
X154120365Y-112067655D01*
X154464017Y-112210000D01*
X154835983Y-112210000D01*
X154994822Y-112144207D01*
X155214017Y-112235000D01*
X155585983Y-112235000D01*
X155710948Y-112183238D01*
X155970365Y-112442655D01*
X156314017Y-112585000D01*
X156685983Y-112585000D01*
X157029635Y-112442655D01*
X157292655Y-112179635D01*
X157435000Y-111835983D01*
X157435000Y-111672981D01*
X157464017Y-111685000D01*
X157835983Y-111685000D01*
X158146210Y-111556500D01*
X158057345Y-111645365D01*
X157915000Y-111989017D01*
X157915000Y-112360983D01*
X158057345Y-112704635D01*
X158320365Y-112967655D01*
X158664017Y-113110000D01*
X159035983Y-113110000D01*
X159379635Y-112967655D01*
X159642655Y-112704635D01*
X159785000Y-112360983D01*
X159785000Y-111989017D01*
X159642655Y-111645365D01*
X159379635Y-111382345D01*
X159035983Y-111240000D01*
X158664017Y-111240000D01*
X158353790Y-111368500D01*
X158442655Y-111279635D01*
X158585000Y-110935983D01*
X158585000Y-110564017D01*
X158442655Y-110220365D01*
X158179635Y-109957345D01*
X157905999Y-109844001D01*
X157792655Y-109570365D01*
X157529635Y-109307345D01*
X157504067Y-109296754D01*
X158147725Y-109296754D01*
X158147725Y-109668720D01*
X158290070Y-110012372D01*
X158553090Y-110275392D01*
X158896742Y-110417737D01*
X159268708Y-110417737D01*
X159612360Y-110275392D01*
X159875380Y-110012372D01*
X159916119Y-109914017D01*
X163065000Y-109914017D01*
X163065000Y-110285983D01*
X163207345Y-110629635D01*
X163470365Y-110892655D01*
X163683646Y-110980999D01*
X163807345Y-111279635D01*
X164070365Y-111542655D01*
X164414017Y-111685000D01*
X164465000Y-111685000D01*
X164465000Y-111835983D01*
X164607345Y-112179635D01*
X164870365Y-112442655D01*
X165214017Y-112585000D01*
X165585983Y-112585000D01*
X165929635Y-112442655D01*
X166192655Y-112179635D01*
X166335000Y-111835983D01*
X166335000Y-111464017D01*
X166192655Y-111120365D01*
X165929635Y-110857345D01*
X165585983Y-110715000D01*
X165535000Y-110715000D01*
X165535000Y-110564017D01*
X165392655Y-110220365D01*
X165129635Y-109957345D01*
X164916354Y-109869001D01*
X164792655Y-109570365D01*
X164700020Y-109477730D01*
X168328713Y-109477730D01*
X168328713Y-109849696D01*
X168471058Y-110193348D01*
X168734078Y-110456368D01*
X169077730Y-110598713D01*
X169449696Y-110598713D01*
X169793348Y-110456368D01*
X170056368Y-110193348D01*
X170198713Y-109849696D01*
X170198713Y-109685000D01*
X170285983Y-109685000D01*
X170629635Y-109542655D01*
X170647631Y-109524659D01*
X170914017Y-109635000D01*
X171285983Y-109635000D01*
X171552369Y-109524659D01*
X171570365Y-109542655D01*
X171914017Y-109685000D01*
X172285983Y-109685000D01*
X172629635Y-109542655D01*
X172892655Y-109279635D01*
X173035000Y-108935983D01*
X173035000Y-108564017D01*
X172892655Y-108220365D01*
X172629635Y-107957345D01*
X172285983Y-107815000D01*
X171914017Y-107815000D01*
X171647631Y-107925341D01*
X171629635Y-107907345D01*
X171285983Y-107765000D01*
X170914017Y-107765000D01*
X170570365Y-107907345D01*
X170552369Y-107925341D01*
X170285983Y-107815000D01*
X169914017Y-107815000D01*
X169570365Y-107957345D01*
X169307345Y-108220365D01*
X169165000Y-108564017D01*
X169165000Y-108728713D01*
X169077730Y-108728713D01*
X168734078Y-108871058D01*
X168471058Y-109134078D01*
X168328713Y-109477730D01*
X164700020Y-109477730D01*
X164529635Y-109307345D01*
X164185983Y-109165000D01*
X163814017Y-109165000D01*
X163470365Y-109307345D01*
X163207345Y-109570365D01*
X163065000Y-109914017D01*
X159916119Y-109914017D01*
X160017725Y-109668720D01*
X160017725Y-109296754D01*
X159875380Y-108953102D01*
X159612360Y-108690082D01*
X159268708Y-108547737D01*
X158896742Y-108547737D01*
X158553090Y-108690082D01*
X158290070Y-108953102D01*
X158147725Y-109296754D01*
X157504067Y-109296754D01*
X157185983Y-109165000D01*
X156814017Y-109165000D01*
X156470365Y-109307345D01*
X156335000Y-109442710D01*
X156335000Y-109264017D01*
X156192655Y-108920365D01*
X155929635Y-108657345D01*
X155585983Y-108515000D01*
X155214017Y-108515000D01*
X155085355Y-108568293D01*
X154835983Y-108465000D01*
X154464017Y-108465000D01*
X154120365Y-108607345D01*
X153857345Y-108870365D01*
X153715000Y-109214017D01*
X150304321Y-109214017D01*
X150185983Y-109165000D01*
X149814017Y-109165000D01*
X149796728Y-109172161D01*
X149796728Y-108964028D01*
X149654383Y-108620376D01*
X149391363Y-108357356D01*
X149047711Y-108215011D01*
X148675745Y-108215011D01*
X148332093Y-108357356D01*
X148069073Y-108620376D01*
X148011838Y-108758553D01*
X147785981Y-108665000D01*
X147414015Y-108665000D01*
X147341438Y-108695063D01*
X147338060Y-108691685D01*
X146994408Y-108549340D01*
X146796079Y-108549340D01*
X146742656Y-108420365D01*
X146479636Y-108157345D01*
X146135984Y-108015000D01*
X145764018Y-108015000D01*
X145497631Y-108125341D01*
X145429635Y-108057345D01*
X145085983Y-107915000D01*
X144714017Y-107915000D01*
X144370365Y-108057345D01*
X144107345Y-108320365D01*
X143965000Y-108664017D01*
X138641973Y-108664017D01*
X138626268Y-108657512D01*
X138626268Y-108555285D01*
X138483923Y-108211633D01*
X138220903Y-107948613D01*
X137877251Y-107806268D01*
X137505285Y-107806268D01*
X137161633Y-107948613D01*
X136898613Y-108211633D01*
X136777153Y-108504863D01*
X136729635Y-108457345D01*
X136385983Y-108315000D01*
X136014017Y-108315000D01*
X135670365Y-108457345D01*
X135407345Y-108720365D01*
X135265000Y-109064017D01*
X135265000Y-109435983D01*
X135407345Y-109779635D01*
X135670365Y-110042655D01*
X135773434Y-110085347D01*
X135478830Y-110207376D01*
X135215810Y-110470396D01*
X135184718Y-110545459D01*
X135184718Y-110189007D01*
X135042373Y-109845355D01*
X134779353Y-109582335D01*
X134435701Y-109439990D01*
X134063735Y-109439990D01*
X133720083Y-109582335D01*
X133457063Y-109845355D01*
X133314718Y-110189007D01*
X109710000Y-110189007D01*
X109710000Y-106239017D01*
X135715000Y-106239017D01*
X135715000Y-106610983D01*
X135857345Y-106954635D01*
X136120365Y-107217655D01*
X136464017Y-107360000D01*
X136835983Y-107360000D01*
X137179635Y-107217655D01*
X137442655Y-106954635D01*
X137585000Y-106610983D01*
X137585000Y-106557290D01*
X137770365Y-106742655D01*
X138114017Y-106885000D01*
X138485983Y-106885000D01*
X138829635Y-106742655D01*
X139092655Y-106479635D01*
X139235000Y-106135983D01*
X139235000Y-106031207D01*
X139324077Y-105942130D01*
X139315011Y-105964017D01*
X139315011Y-106335983D01*
X139457356Y-106679635D01*
X139720376Y-106942655D01*
X140064028Y-107085000D01*
X140435994Y-107085000D01*
X140779646Y-106942655D01*
X141042666Y-106679635D01*
X141185011Y-106335983D01*
X141185011Y-105964017D01*
X141106316Y-105774028D01*
X148415000Y-105774028D01*
X148415000Y-106145994D01*
X148557345Y-106489646D01*
X148820365Y-106752666D01*
X149164017Y-106895011D01*
X149535983Y-106895011D01*
X149879635Y-106752666D01*
X150142655Y-106489646D01*
X150285000Y-106145994D01*
X150285000Y-105774028D01*
X150142655Y-105430376D01*
X149879635Y-105167356D01*
X149535983Y-105025011D01*
X149164017Y-105025011D01*
X148820365Y-105167356D01*
X148557345Y-105430376D01*
X148415000Y-105774028D01*
X141106316Y-105774028D01*
X141042666Y-105620365D01*
X140779646Y-105357345D01*
X140435994Y-105215000D01*
X140064028Y-105215000D01*
X139720376Y-105357345D01*
X139566665Y-105511056D01*
X139575731Y-105489169D01*
X139575731Y-105117203D01*
X139433386Y-104773551D01*
X139170366Y-104510531D01*
X138826714Y-104368186D01*
X138454748Y-104368186D01*
X138111096Y-104510531D01*
X137971959Y-104649669D01*
X137829635Y-104507345D01*
X137485983Y-104365000D01*
X137114017Y-104365000D01*
X136770365Y-104507345D01*
X136507345Y-104770365D01*
X136365000Y-105114017D01*
X136365000Y-105485983D01*
X136380921Y-105524419D01*
X136120365Y-105632345D01*
X135857345Y-105895365D01*
X135715000Y-106239017D01*
X109710000Y-106239017D01*
X109710000Y-104314017D01*
X150465000Y-104314017D01*
X150465000Y-104685983D01*
X150607345Y-105029635D01*
X150870365Y-105292655D01*
X151214017Y-105435000D01*
X151585983Y-105435000D01*
X151612457Y-105424034D01*
X156065000Y-105424034D01*
X156065000Y-105796000D01*
X156207345Y-106139652D01*
X156470365Y-106402672D01*
X156724010Y-106507735D01*
X156857345Y-106829635D01*
X157120365Y-107092655D01*
X157464017Y-107235000D01*
X157835983Y-107235000D01*
X158179635Y-107092655D01*
X158442655Y-106829635D01*
X158585000Y-106485983D01*
X158585000Y-106114017D01*
X158442655Y-105770365D01*
X158179635Y-105507345D01*
X157925990Y-105402282D01*
X157792655Y-105080382D01*
X157529635Y-104817362D01*
X157185983Y-104675017D01*
X156814017Y-104675017D01*
X156470365Y-104817362D01*
X156207345Y-105080382D01*
X156065000Y-105424034D01*
X151612457Y-105424034D01*
X151929635Y-105292655D01*
X152192655Y-105029635D01*
X152335000Y-104685983D01*
X152335000Y-104324017D01*
X159215000Y-104324017D01*
X159215000Y-104695983D01*
X159357345Y-105039635D01*
X159620365Y-105302655D01*
X159964017Y-105445000D01*
X160335983Y-105445000D01*
X160386638Y-105424018D01*
X162965000Y-105424018D01*
X162965000Y-105795984D01*
X163107345Y-106139636D01*
X163370365Y-106402656D01*
X163714017Y-106545001D01*
X164085983Y-106545001D01*
X164429635Y-106402656D01*
X164692655Y-106139636D01*
X164835000Y-105795984D01*
X164835000Y-105424018D01*
X164736375Y-105185915D01*
X164892655Y-105029635D01*
X165035000Y-104685983D01*
X165035000Y-104314017D01*
X164892655Y-103970365D01*
X164629635Y-103707345D01*
X164285983Y-103565000D01*
X163914017Y-103565000D01*
X163570365Y-103707345D01*
X163307345Y-103970365D01*
X163165000Y-104314017D01*
X163165000Y-104685983D01*
X163263625Y-104924086D01*
X163107345Y-105080366D01*
X162965000Y-105424018D01*
X160386638Y-105424018D01*
X160679635Y-105302655D01*
X160942655Y-105039635D01*
X161085000Y-104695983D01*
X161085000Y-104324017D01*
X160942655Y-103980365D01*
X160679635Y-103717345D01*
X160335983Y-103575000D01*
X159964017Y-103575000D01*
X159620365Y-103717345D01*
X159357345Y-103980365D01*
X159215000Y-104324017D01*
X152335000Y-104324017D01*
X152335000Y-104314017D01*
X152192655Y-103970365D01*
X151929635Y-103707345D01*
X151585983Y-103565000D01*
X151214017Y-103565000D01*
X150870365Y-103707345D01*
X150607345Y-103970365D01*
X150465000Y-104314017D01*
X109710000Y-104314017D01*
X109710000Y-99150000D01*
X118252560Y-99150000D01*
X118252560Y-100650000D01*
X118301843Y-100897765D01*
X118442191Y-101107809D01*
X118652235Y-101248157D01*
X118900000Y-101297440D01*
X120400000Y-101297440D01*
X120647765Y-101248157D01*
X120857809Y-101107809D01*
X120998157Y-100897765D01*
X121036469Y-100705156D01*
X121405460Y-101074147D01*
X121914506Y-101285000D01*
X122465494Y-101285000D01*
X122974540Y-101074147D01*
X123364147Y-100684540D01*
X123460000Y-100453130D01*
X123555853Y-100684540D01*
X123945460Y-101074147D01*
X124454506Y-101285000D01*
X125005494Y-101285000D01*
X125514540Y-101074147D01*
X125904147Y-100684540D01*
X126000000Y-100453130D01*
X126095853Y-100684540D01*
X126485460Y-101074147D01*
X126994506Y-101285000D01*
X127545494Y-101285000D01*
X128054540Y-101074147D01*
X128444147Y-100684540D01*
X128540000Y-100453130D01*
X128635853Y-100684540D01*
X129025460Y-101074147D01*
X129534506Y-101285000D01*
X130085494Y-101285000D01*
X130594540Y-101074147D01*
X130984147Y-100684540D01*
X131080000Y-100453130D01*
X131175853Y-100684540D01*
X131565460Y-101074147D01*
X132074506Y-101285000D01*
X132625494Y-101285000D01*
X133134540Y-101074147D01*
X133524147Y-100684540D01*
X133620000Y-100453130D01*
X133715853Y-100684540D01*
X134105460Y-101074147D01*
X134614506Y-101285000D01*
X135165494Y-101285000D01*
X135674540Y-101074147D01*
X136064147Y-100684540D01*
X136160000Y-100453130D01*
X136255853Y-100684540D01*
X136645460Y-101074147D01*
X137154506Y-101285000D01*
X137705494Y-101285000D01*
X138214540Y-101074147D01*
X138604147Y-100684540D01*
X138700000Y-100453130D01*
X138795853Y-100684540D01*
X139185460Y-101074147D01*
X139694506Y-101285000D01*
X140245494Y-101285000D01*
X140754540Y-101074147D01*
X141144147Y-100684540D01*
X141355000Y-100175494D01*
X141355000Y-99624506D01*
X141158454Y-99150000D01*
X143502560Y-99150000D01*
X143502560Y-100650000D01*
X143551843Y-100897765D01*
X143692191Y-101107809D01*
X143902235Y-101248157D01*
X144150000Y-101297440D01*
X145650000Y-101297440D01*
X145897765Y-101248157D01*
X146107809Y-101107809D01*
X146248157Y-100897765D01*
X146286469Y-100705156D01*
X146655460Y-101074147D01*
X147164506Y-101285000D01*
X147715494Y-101285000D01*
X148224540Y-101074147D01*
X148614147Y-100684540D01*
X148710000Y-100453130D01*
X148805853Y-100684540D01*
X149195460Y-101074147D01*
X149704506Y-101285000D01*
X150255494Y-101285000D01*
X150764540Y-101074147D01*
X151154147Y-100684540D01*
X151250000Y-100453130D01*
X151345853Y-100684540D01*
X151735460Y-101074147D01*
X152244506Y-101285000D01*
X152795494Y-101285000D01*
X153304540Y-101074147D01*
X153694147Y-100684540D01*
X153790000Y-100453130D01*
X153885853Y-100684540D01*
X154275460Y-101074147D01*
X154784506Y-101285000D01*
X155335494Y-101285000D01*
X155844540Y-101074147D01*
X156234147Y-100684540D01*
X156330000Y-100453130D01*
X156425853Y-100684540D01*
X156815460Y-101074147D01*
X157324506Y-101285000D01*
X157875494Y-101285000D01*
X158384540Y-101074147D01*
X158774147Y-100684540D01*
X158870000Y-100453130D01*
X158965853Y-100684540D01*
X159355460Y-101074147D01*
X159864506Y-101285000D01*
X160415494Y-101285000D01*
X160924540Y-101074147D01*
X161314147Y-100684540D01*
X161410000Y-100453130D01*
X161505853Y-100684540D01*
X161895460Y-101074147D01*
X162404506Y-101285000D01*
X162955494Y-101285000D01*
X163464540Y-101074147D01*
X163854147Y-100684540D01*
X163950000Y-100453130D01*
X164045853Y-100684540D01*
X164435460Y-101074147D01*
X164944506Y-101285000D01*
X165495494Y-101285000D01*
X166004540Y-101074147D01*
X166394147Y-100684540D01*
X166605000Y-100175494D01*
X166605000Y-99624506D01*
X166394147Y-99115460D01*
X166004540Y-98725853D01*
X165495494Y-98515000D01*
X164944506Y-98515000D01*
X164435460Y-98725853D01*
X164045853Y-99115460D01*
X163950000Y-99346870D01*
X163854147Y-99115460D01*
X163464540Y-98725853D01*
X162955494Y-98515000D01*
X162404506Y-98515000D01*
X161895460Y-98725853D01*
X161505853Y-99115460D01*
X161410000Y-99346870D01*
X161314147Y-99115460D01*
X160924540Y-98725853D01*
X160415494Y-98515000D01*
X159864506Y-98515000D01*
X159355460Y-98725853D01*
X158965853Y-99115460D01*
X158870000Y-99346870D01*
X158774147Y-99115460D01*
X158384540Y-98725853D01*
X157875494Y-98515000D01*
X157324506Y-98515000D01*
X156815460Y-98725853D01*
X156425853Y-99115460D01*
X156330000Y-99346870D01*
X156234147Y-99115460D01*
X155844540Y-98725853D01*
X155335494Y-98515000D01*
X154784506Y-98515000D01*
X154275460Y-98725853D01*
X153885853Y-99115460D01*
X153790000Y-99346870D01*
X153694147Y-99115460D01*
X153304540Y-98725853D01*
X152795494Y-98515000D01*
X152244506Y-98515000D01*
X151735460Y-98725853D01*
X151345853Y-99115460D01*
X151250000Y-99346870D01*
X151154147Y-99115460D01*
X150764540Y-98725853D01*
X150255494Y-98515000D01*
X149704506Y-98515000D01*
X149195460Y-98725853D01*
X148805853Y-99115460D01*
X148710000Y-99346870D01*
X148614147Y-99115460D01*
X148224540Y-98725853D01*
X147715494Y-98515000D01*
X147164506Y-98515000D01*
X146655460Y-98725853D01*
X146286469Y-99094844D01*
X146248157Y-98902235D01*
X146107809Y-98692191D01*
X145897765Y-98551843D01*
X145650000Y-98502560D01*
X144150000Y-98502560D01*
X143902235Y-98551843D01*
X143692191Y-98692191D01*
X143551843Y-98902235D01*
X143502560Y-99150000D01*
X141158454Y-99150000D01*
X141144147Y-99115460D01*
X140754540Y-98725853D01*
X140245494Y-98515000D01*
X139694506Y-98515000D01*
X139185460Y-98725853D01*
X138795853Y-99115460D01*
X138700000Y-99346870D01*
X138604147Y-99115460D01*
X138214540Y-98725853D01*
X137705494Y-98515000D01*
X137154506Y-98515000D01*
X136645460Y-98725853D01*
X136255853Y-99115460D01*
X136160000Y-99346870D01*
X136064147Y-99115460D01*
X135674540Y-98725853D01*
X135165494Y-98515000D01*
X134614506Y-98515000D01*
X134464381Y-98577184D01*
X134585000Y-98285983D01*
X134585000Y-97914017D01*
X134442655Y-97570365D01*
X134179635Y-97307345D01*
X133835983Y-97165000D01*
X133464017Y-97165000D01*
X133120365Y-97307345D01*
X132857345Y-97570365D01*
X132715000Y-97914017D01*
X132715000Y-98285983D01*
X132848045Y-98607183D01*
X132625494Y-98515000D01*
X132074506Y-98515000D01*
X131565460Y-98725853D01*
X131175853Y-99115460D01*
X131080000Y-99346870D01*
X130984147Y-99115460D01*
X130594540Y-98725853D01*
X130085494Y-98515000D01*
X129534506Y-98515000D01*
X129025460Y-98725853D01*
X128635853Y-99115460D01*
X128540000Y-99346870D01*
X128444147Y-99115460D01*
X128054540Y-98725853D01*
X127545494Y-98515000D01*
X126994506Y-98515000D01*
X126485460Y-98725853D01*
X126095853Y-99115460D01*
X126000000Y-99346870D01*
X125904147Y-99115460D01*
X125514540Y-98725853D01*
X125005494Y-98515000D01*
X124454506Y-98515000D01*
X123945460Y-98725853D01*
X123555853Y-99115460D01*
X123460000Y-99346870D01*
X123364147Y-99115460D01*
X122974540Y-98725853D01*
X122465494Y-98515000D01*
X121914506Y-98515000D01*
X121405460Y-98725853D01*
X121036469Y-99094844D01*
X120998157Y-98902235D01*
X120857809Y-98692191D01*
X120647765Y-98551843D01*
X120400000Y-98502560D01*
X118900000Y-98502560D01*
X118652235Y-98551843D01*
X118442191Y-98692191D01*
X118301843Y-98902235D01*
X118252560Y-99150000D01*
X109710000Y-99150000D01*
X109710000Y-94684180D01*
X110415000Y-94684180D01*
X110415000Y-95115820D01*
X110580182Y-95514603D01*
X110885397Y-95819818D01*
X111284180Y-95985000D01*
X111715820Y-95985000D01*
X112114603Y-95819818D01*
X112419818Y-95514603D01*
X112585000Y-95115820D01*
X112585000Y-94684180D01*
X112419818Y-94285397D01*
X112114603Y-93980182D01*
X111715820Y-93815000D01*
X111284180Y-93815000D01*
X110885397Y-93980182D01*
X110580182Y-94285397D01*
X110415000Y-94684180D01*
X109710000Y-94684180D01*
X109710000Y-91314017D01*
X111515000Y-91314017D01*
X111515000Y-91685983D01*
X111657345Y-92029635D01*
X111696051Y-92068341D01*
X111615000Y-92264017D01*
X111615000Y-92635983D01*
X111757345Y-92979635D01*
X112020365Y-93242655D01*
X112364017Y-93385000D01*
X112735983Y-93385000D01*
X113079635Y-93242655D01*
X113158273Y-93164017D01*
X116639990Y-93164017D01*
X116639990Y-93535983D01*
X116697573Y-93675000D01*
X116639990Y-93814017D01*
X116639990Y-94185983D01*
X116697573Y-94325000D01*
X116639990Y-94464017D01*
X116639990Y-94835983D01*
X116782335Y-95179635D01*
X117045355Y-95442655D01*
X117389007Y-95585000D01*
X117760973Y-95585000D01*
X118104625Y-95442655D01*
X118367645Y-95179635D01*
X118509990Y-94835983D01*
X118509990Y-94464017D01*
X118452407Y-94325000D01*
X118509990Y-94185983D01*
X118509990Y-93814017D01*
X118452407Y-93675000D01*
X118509990Y-93535983D01*
X118509990Y-93164017D01*
X118367645Y-92820365D01*
X118104625Y-92557345D01*
X117760973Y-92415000D01*
X117389007Y-92415000D01*
X117045355Y-92557345D01*
X116782335Y-92820365D01*
X116639990Y-93164017D01*
X113158273Y-93164017D01*
X113342655Y-92979635D01*
X113485000Y-92635983D01*
X113485000Y-92264017D01*
X113342655Y-91920365D01*
X113336307Y-91914017D01*
X181265000Y-91914017D01*
X181265000Y-92285983D01*
X181407345Y-92629635D01*
X181670365Y-92892655D01*
X182014017Y-93035000D01*
X182385983Y-93035000D01*
X182729635Y-92892655D01*
X182992655Y-92629635D01*
X183135000Y-92285983D01*
X183135000Y-91914017D01*
X182992655Y-91570365D01*
X182729635Y-91307345D01*
X182385983Y-91165000D01*
X182014017Y-91165000D01*
X181670365Y-91307345D01*
X181407345Y-91570365D01*
X181265000Y-91914017D01*
X113336307Y-91914017D01*
X113303949Y-91881659D01*
X113385000Y-91685983D01*
X113385000Y-91314017D01*
X113274659Y-91047631D01*
X113342655Y-90979635D01*
X113485000Y-90635983D01*
X113485000Y-90264017D01*
X113342655Y-89920365D01*
X113079635Y-89657345D01*
X112735983Y-89515000D01*
X112364017Y-89515000D01*
X112020365Y-89657345D01*
X111757345Y-89920365D01*
X111615000Y-90264017D01*
X111615000Y-90635983D01*
X111725341Y-90902369D01*
X111657345Y-90970365D01*
X111515000Y-91314017D01*
X109710000Y-91314017D01*
X109710000Y-87884180D01*
X110415000Y-87884180D01*
X110415000Y-88315820D01*
X110580182Y-88714603D01*
X110885397Y-89019818D01*
X111284180Y-89185000D01*
X111715820Y-89185000D01*
X112114603Y-89019818D01*
X112419818Y-88714603D01*
X112585000Y-88315820D01*
X112585000Y-88164017D01*
X166165000Y-88164017D01*
X166165000Y-88535983D01*
X166253649Y-88750000D01*
X166165000Y-88964017D01*
X166165000Y-89335983D01*
X166307345Y-89679635D01*
X166570365Y-89942655D01*
X166914017Y-90085000D01*
X167285983Y-90085000D01*
X167629635Y-89942655D01*
X167708273Y-89864017D01*
X168915000Y-89864017D01*
X168915000Y-90235983D01*
X169057345Y-90579635D01*
X169320365Y-90842655D01*
X169664017Y-90985000D01*
X170035983Y-90985000D01*
X170379635Y-90842655D01*
X170642655Y-90579635D01*
X170785000Y-90235983D01*
X170785000Y-89864017D01*
X170642655Y-89520365D01*
X170379635Y-89257345D01*
X170035983Y-89115000D01*
X169664017Y-89115000D01*
X169320365Y-89257345D01*
X169057345Y-89520365D01*
X168915000Y-89864017D01*
X167708273Y-89864017D01*
X167892655Y-89679635D01*
X168035000Y-89335983D01*
X168035000Y-88964017D01*
X167946351Y-88750000D01*
X168035000Y-88535983D01*
X168035000Y-88164017D01*
X167892655Y-87820365D01*
X167756470Y-87684180D01*
X180415000Y-87684180D01*
X180415000Y-88115820D01*
X180580182Y-88514603D01*
X180885397Y-88819818D01*
X181284180Y-88985000D01*
X181715820Y-88985000D01*
X182114603Y-88819818D01*
X182419818Y-88514603D01*
X182585000Y-88115820D01*
X182585000Y-87684180D01*
X182419818Y-87285397D01*
X182114603Y-86980182D01*
X181715820Y-86815000D01*
X181284180Y-86815000D01*
X180885397Y-86980182D01*
X180580182Y-87285397D01*
X180415000Y-87684180D01*
X167756470Y-87684180D01*
X167629635Y-87557345D01*
X167285983Y-87415000D01*
X166914017Y-87415000D01*
X166570365Y-87557345D01*
X166307345Y-87820365D01*
X166165000Y-88164017D01*
X112585000Y-88164017D01*
X112585000Y-87884180D01*
X112419818Y-87485397D01*
X112114603Y-87180182D01*
X111715820Y-87015000D01*
X111284180Y-87015000D01*
X110885397Y-87180182D01*
X110580182Y-87485397D01*
X110415000Y-87884180D01*
X109710000Y-87884180D01*
X109710000Y-84384506D01*
X118265000Y-84384506D01*
X118265000Y-84935494D01*
X118475853Y-85444540D01*
X118865460Y-85834147D01*
X119374506Y-86045000D01*
X119925494Y-86045000D01*
X120434540Y-85834147D01*
X120824147Y-85444540D01*
X120920000Y-85213130D01*
X121015853Y-85444540D01*
X121405460Y-85834147D01*
X121914506Y-86045000D01*
X122465494Y-86045000D01*
X122974540Y-85834147D01*
X123364147Y-85444540D01*
X123460000Y-85213130D01*
X123555853Y-85444540D01*
X123945460Y-85834147D01*
X124454506Y-86045000D01*
X125005494Y-86045000D01*
X125514540Y-85834147D01*
X125904147Y-85444540D01*
X126000000Y-85213130D01*
X126095853Y-85444540D01*
X126485460Y-85834147D01*
X126994506Y-86045000D01*
X127545494Y-86045000D01*
X128054540Y-85834147D01*
X128444147Y-85444540D01*
X128540000Y-85213130D01*
X128635853Y-85444540D01*
X129025460Y-85834147D01*
X129534506Y-86045000D01*
X130085494Y-86045000D01*
X130594540Y-85834147D01*
X130984147Y-85444540D01*
X131080000Y-85213130D01*
X131175853Y-85444540D01*
X131565460Y-85834147D01*
X132074506Y-86045000D01*
X132625494Y-86045000D01*
X133134540Y-85834147D01*
X133524147Y-85444540D01*
X133620000Y-85213130D01*
X133715853Y-85444540D01*
X134105460Y-85834147D01*
X134203114Y-85874596D01*
X133957345Y-86120365D01*
X133815000Y-86464017D01*
X133815000Y-86835983D01*
X133957345Y-87179635D01*
X134220365Y-87442655D01*
X134564017Y-87585000D01*
X134935983Y-87585000D01*
X135279635Y-87442655D01*
X135542655Y-87179635D01*
X135685000Y-86835983D01*
X135685000Y-86464017D01*
X135542655Y-86120365D01*
X135486307Y-86064017D01*
X169865000Y-86064017D01*
X169865000Y-86435983D01*
X170007345Y-86779635D01*
X170270365Y-87042655D01*
X170614017Y-87185000D01*
X170985983Y-87185000D01*
X171329635Y-87042655D01*
X171450000Y-86922290D01*
X171570365Y-87042655D01*
X171914017Y-87185000D01*
X172285983Y-87185000D01*
X172629635Y-87042655D01*
X172675000Y-86997290D01*
X172720365Y-87042655D01*
X173064017Y-87185000D01*
X173435983Y-87185000D01*
X173779635Y-87042655D01*
X173875000Y-86947290D01*
X173970365Y-87042655D01*
X174314017Y-87185000D01*
X174685983Y-87185000D01*
X175029635Y-87042655D01*
X175292655Y-86779635D01*
X175435000Y-86435983D01*
X175435000Y-86064017D01*
X175292655Y-85720365D01*
X175029635Y-85457345D01*
X174685983Y-85315000D01*
X174314017Y-85315000D01*
X173970365Y-85457345D01*
X173875000Y-85552710D01*
X173779635Y-85457345D01*
X173435983Y-85315000D01*
X173064017Y-85315000D01*
X172720365Y-85457345D01*
X172675000Y-85502710D01*
X172629635Y-85457345D01*
X172285983Y-85315000D01*
X171914017Y-85315000D01*
X171570365Y-85457345D01*
X171450000Y-85577710D01*
X171329635Y-85457345D01*
X170985983Y-85315000D01*
X170614017Y-85315000D01*
X170270365Y-85457345D01*
X170007345Y-85720365D01*
X169865000Y-86064017D01*
X135486307Y-86064017D01*
X135378896Y-85956606D01*
X135674540Y-85834147D01*
X136064147Y-85444540D01*
X136160000Y-85213130D01*
X136255853Y-85444540D01*
X136645460Y-85834147D01*
X137154506Y-86045000D01*
X137705494Y-86045000D01*
X138214540Y-85834147D01*
X138604147Y-85444540D01*
X138700000Y-85213130D01*
X138795853Y-85444540D01*
X139185460Y-85834147D01*
X139694506Y-86045000D01*
X140245494Y-86045000D01*
X140754540Y-85834147D01*
X141144147Y-85444540D01*
X141355000Y-84935494D01*
X141355000Y-84384506D01*
X143515000Y-84384506D01*
X143515000Y-84935494D01*
X143725853Y-85444540D01*
X144115460Y-85834147D01*
X144624506Y-86045000D01*
X145175494Y-86045000D01*
X145684540Y-85834147D01*
X146074147Y-85444540D01*
X146170000Y-85213130D01*
X146265853Y-85444540D01*
X146655460Y-85834147D01*
X147164506Y-86045000D01*
X147715494Y-86045000D01*
X148224540Y-85834147D01*
X148614147Y-85444540D01*
X148710000Y-85213130D01*
X148805853Y-85444540D01*
X149195460Y-85834147D01*
X149704506Y-86045000D01*
X150255494Y-86045000D01*
X150764540Y-85834147D01*
X151154147Y-85444540D01*
X151250000Y-85213130D01*
X151345853Y-85444540D01*
X151735460Y-85834147D01*
X152244506Y-86045000D01*
X152795494Y-86045000D01*
X153304540Y-85834147D01*
X153694147Y-85444540D01*
X153790000Y-85213130D01*
X153885853Y-85444540D01*
X154275460Y-85834147D01*
X154784506Y-86045000D01*
X155335494Y-86045000D01*
X155844540Y-85834147D01*
X156234147Y-85444540D01*
X156330000Y-85213130D01*
X156425853Y-85444540D01*
X156815460Y-85834147D01*
X157324506Y-86045000D01*
X157875494Y-86045000D01*
X158384540Y-85834147D01*
X158774147Y-85444540D01*
X158870000Y-85213130D01*
X158965853Y-85444540D01*
X159355460Y-85834147D01*
X159864506Y-86045000D01*
X160415494Y-86045000D01*
X160924540Y-85834147D01*
X161314147Y-85444540D01*
X161410000Y-85213130D01*
X161505853Y-85444540D01*
X161895460Y-85834147D01*
X162404506Y-86045000D01*
X162955494Y-86045000D01*
X163464540Y-85834147D01*
X163854147Y-85444540D01*
X163950000Y-85213130D01*
X164045853Y-85444540D01*
X164435460Y-85834147D01*
X164944506Y-86045000D01*
X165495494Y-86045000D01*
X166004540Y-85834147D01*
X166394147Y-85444540D01*
X166605000Y-84935494D01*
X166605000Y-84384506D01*
X166394147Y-83875460D01*
X166004540Y-83485853D01*
X165495494Y-83275000D01*
X164944506Y-83275000D01*
X164435460Y-83485853D01*
X164045853Y-83875460D01*
X163950000Y-84106870D01*
X163854147Y-83875460D01*
X163464540Y-83485853D01*
X162955494Y-83275000D01*
X162404506Y-83275000D01*
X161895460Y-83485853D01*
X161505853Y-83875460D01*
X161410000Y-84106870D01*
X161314147Y-83875460D01*
X160924540Y-83485853D01*
X160415494Y-83275000D01*
X159864506Y-83275000D01*
X159355460Y-83485853D01*
X158965853Y-83875460D01*
X158870000Y-84106870D01*
X158774147Y-83875460D01*
X158384540Y-83485853D01*
X157875494Y-83275000D01*
X157324506Y-83275000D01*
X156815460Y-83485853D01*
X156425853Y-83875460D01*
X156330000Y-84106870D01*
X156234147Y-83875460D01*
X155844540Y-83485853D01*
X155335494Y-83275000D01*
X154784506Y-83275000D01*
X154275460Y-83485853D01*
X153885853Y-83875460D01*
X153790000Y-84106870D01*
X153694147Y-83875460D01*
X153304540Y-83485853D01*
X152795494Y-83275000D01*
X152244506Y-83275000D01*
X151735460Y-83485853D01*
X151345853Y-83875460D01*
X151250000Y-84106870D01*
X151154147Y-83875460D01*
X150764540Y-83485853D01*
X150255494Y-83275000D01*
X149704506Y-83275000D01*
X149195460Y-83485853D01*
X148805853Y-83875460D01*
X148710000Y-84106870D01*
X148614147Y-83875460D01*
X148224540Y-83485853D01*
X147715494Y-83275000D01*
X147164506Y-83275000D01*
X146655460Y-83485853D01*
X146265853Y-83875460D01*
X146170000Y-84106870D01*
X146074147Y-83875460D01*
X145684540Y-83485853D01*
X145175494Y-83275000D01*
X144624506Y-83275000D01*
X144115460Y-83485853D01*
X143725853Y-83875460D01*
X143515000Y-84384506D01*
X141355000Y-84384506D01*
X141144147Y-83875460D01*
X140754540Y-83485853D01*
X140245494Y-83275000D01*
X139694506Y-83275000D01*
X139185460Y-83485853D01*
X138795853Y-83875460D01*
X138700000Y-84106870D01*
X138604147Y-83875460D01*
X138214540Y-83485853D01*
X137705494Y-83275000D01*
X137154506Y-83275000D01*
X136645460Y-83485853D01*
X136255853Y-83875460D01*
X136160000Y-84106870D01*
X136064147Y-83875460D01*
X135674540Y-83485853D01*
X135165494Y-83275000D01*
X134614506Y-83275000D01*
X134105460Y-83485853D01*
X133715853Y-83875460D01*
X133620000Y-84106870D01*
X133524147Y-83875460D01*
X133134540Y-83485853D01*
X132625494Y-83275000D01*
X132074506Y-83275000D01*
X131565460Y-83485853D01*
X131175853Y-83875460D01*
X131080000Y-84106870D01*
X130984147Y-83875460D01*
X130594540Y-83485853D01*
X130085494Y-83275000D01*
X129534506Y-83275000D01*
X129025460Y-83485853D01*
X128635853Y-83875460D01*
X128540000Y-84106870D01*
X128444147Y-83875460D01*
X128054540Y-83485853D01*
X127545494Y-83275000D01*
X126994506Y-83275000D01*
X126485460Y-83485853D01*
X126095853Y-83875460D01*
X126000000Y-84106870D01*
X125904147Y-83875460D01*
X125514540Y-83485853D01*
X125005494Y-83275000D01*
X124454506Y-83275000D01*
X123945460Y-83485853D01*
X123555853Y-83875460D01*
X123460000Y-84106870D01*
X123364147Y-83875460D01*
X122974540Y-83485853D01*
X122465494Y-83275000D01*
X121914506Y-83275000D01*
X121405460Y-83485853D01*
X121015853Y-83875460D01*
X120920000Y-84106870D01*
X120824147Y-83875460D01*
X120434540Y-83485853D01*
X119925494Y-83275000D01*
X119374506Y-83275000D01*
X118865460Y-83485853D01*
X118475853Y-83875460D01*
X118265000Y-84384506D01*
X109710000Y-84384506D01*
X109710000Y-81314017D01*
X168115000Y-81314017D01*
X168115000Y-81685983D01*
X168257345Y-82029635D01*
X168520365Y-82292655D01*
X168864017Y-82435000D01*
X169235983Y-82435000D01*
X169579635Y-82292655D01*
X169842655Y-82029635D01*
X169985000Y-81685983D01*
X169985000Y-81314017D01*
X169842655Y-80970365D01*
X169756470Y-80884180D01*
X180415000Y-80884180D01*
X180415000Y-81315820D01*
X180580182Y-81714603D01*
X180885397Y-82019818D01*
X181284180Y-82185000D01*
X181715820Y-82185000D01*
X182114603Y-82019818D01*
X182419818Y-81714603D01*
X182585000Y-81315820D01*
X182585000Y-80884180D01*
X182419818Y-80485397D01*
X182114603Y-80180182D01*
X181715820Y-80015000D01*
X181284180Y-80015000D01*
X180885397Y-80180182D01*
X180580182Y-80485397D01*
X180415000Y-80884180D01*
X169756470Y-80884180D01*
X169579635Y-80707345D01*
X169235983Y-80565000D01*
X168864017Y-80565000D01*
X168520365Y-80707345D01*
X168257345Y-80970365D01*
X168115000Y-81314017D01*
X109710000Y-81314017D01*
X109710000Y-79964017D01*
X131365000Y-79964017D01*
X131365000Y-80335983D01*
X131507345Y-80679635D01*
X131770365Y-80942655D01*
X132114017Y-81085000D01*
X132485983Y-81085000D01*
X132829635Y-80942655D01*
X133092655Y-80679635D01*
X133235000Y-80335983D01*
X133235000Y-79964017D01*
X133193579Y-79864017D01*
X137815000Y-79864017D01*
X137815000Y-80235983D01*
X137957345Y-80579635D01*
X138220365Y-80842655D01*
X138564017Y-80985000D01*
X138935983Y-80985000D01*
X139279635Y-80842655D01*
X139542655Y-80579635D01*
X139685000Y-80235983D01*
X139685000Y-80064017D01*
X145165000Y-80064017D01*
X145165000Y-80435983D01*
X145307345Y-80779635D01*
X145570365Y-81042655D01*
X145914017Y-81185000D01*
X146285983Y-81185000D01*
X146629635Y-81042655D01*
X146892655Y-80779635D01*
X147035000Y-80435983D01*
X147035000Y-80064017D01*
X146892655Y-79720365D01*
X146629635Y-79457345D01*
X146285983Y-79315000D01*
X145914017Y-79315000D01*
X145570365Y-79457345D01*
X145307345Y-79720365D01*
X145165000Y-80064017D01*
X139685000Y-80064017D01*
X139685000Y-79864017D01*
X139542655Y-79520365D01*
X139279635Y-79257345D01*
X138935983Y-79115000D01*
X138564017Y-79115000D01*
X138220365Y-79257345D01*
X137957345Y-79520365D01*
X137815000Y-79864017D01*
X133193579Y-79864017D01*
X133092655Y-79620365D01*
X132829635Y-79357345D01*
X132485983Y-79215000D01*
X132114017Y-79215000D01*
X131770365Y-79357345D01*
X131507345Y-79620365D01*
X131365000Y-79964017D01*
X109710000Y-79964017D01*
X109710000Y-77264017D01*
X123815000Y-77264017D01*
X123815000Y-77635983D01*
X123957345Y-77979635D01*
X124220365Y-78242655D01*
X124564017Y-78385000D01*
X124935983Y-78385000D01*
X125279635Y-78242655D01*
X125483273Y-78039017D01*
X130065000Y-78039017D01*
X130065000Y-78410983D01*
X130207345Y-78754635D01*
X130470365Y-79017655D01*
X130814017Y-79160000D01*
X131185983Y-79160000D01*
X131417706Y-79064017D01*
X154165000Y-79064017D01*
X154165000Y-79435983D01*
X154307345Y-79779635D01*
X154570365Y-80042655D01*
X154914017Y-80185000D01*
X155285983Y-80185000D01*
X155629635Y-80042655D01*
X155758273Y-79914017D01*
X160465000Y-79914017D01*
X160465000Y-80285983D01*
X160607345Y-80629635D01*
X160870365Y-80892655D01*
X161214017Y-81035000D01*
X161585983Y-81035000D01*
X161929635Y-80892655D01*
X162192655Y-80629635D01*
X162335000Y-80285983D01*
X162335000Y-79914017D01*
X162192655Y-79570365D01*
X161929635Y-79307345D01*
X161585983Y-79165000D01*
X161214017Y-79165000D01*
X160870365Y-79307345D01*
X160607345Y-79570365D01*
X160465000Y-79914017D01*
X155758273Y-79914017D01*
X155892655Y-79779635D01*
X156033143Y-79440466D01*
X156329635Y-79317655D01*
X156592655Y-79054635D01*
X156735000Y-78710983D01*
X156735000Y-78414017D01*
X169115000Y-78414017D01*
X169115000Y-78785983D01*
X169257345Y-79129635D01*
X169520365Y-79392655D01*
X169864017Y-79535000D01*
X170235983Y-79535000D01*
X170579635Y-79392655D01*
X170700000Y-79272290D01*
X170820365Y-79392655D01*
X171164017Y-79535000D01*
X171535983Y-79535000D01*
X171879635Y-79392655D01*
X172000000Y-79272290D01*
X172120365Y-79392655D01*
X172464017Y-79535000D01*
X172835983Y-79535000D01*
X173179635Y-79392655D01*
X173442655Y-79129635D01*
X173585000Y-78785983D01*
X173585000Y-78414017D01*
X173442655Y-78070365D01*
X173179635Y-77807345D01*
X172835983Y-77665000D01*
X172464017Y-77665000D01*
X172120365Y-77807345D01*
X172000000Y-77927710D01*
X171879635Y-77807345D01*
X171535983Y-77665000D01*
X171164017Y-77665000D01*
X170820365Y-77807345D01*
X170700000Y-77927710D01*
X170579635Y-77807345D01*
X170235983Y-77665000D01*
X169864017Y-77665000D01*
X169520365Y-77807345D01*
X169257345Y-78070365D01*
X169115000Y-78414017D01*
X156735000Y-78414017D01*
X156735000Y-78339017D01*
X156592655Y-77995365D01*
X156329635Y-77732345D01*
X155985983Y-77590000D01*
X155614017Y-77590000D01*
X155270365Y-77732345D01*
X155007345Y-77995365D01*
X154866857Y-78334534D01*
X154570365Y-78457345D01*
X154307345Y-78720365D01*
X154165000Y-79064017D01*
X131417706Y-79064017D01*
X131529635Y-79017655D01*
X131792655Y-78754635D01*
X131935000Y-78410983D01*
X131935000Y-78039017D01*
X131792655Y-77695365D01*
X131648537Y-77551247D01*
X131729635Y-77517655D01*
X131992655Y-77254635D01*
X132135000Y-76910983D01*
X132135000Y-76539017D01*
X131992655Y-76195365D01*
X131811307Y-76014017D01*
X136865000Y-76014017D01*
X136865000Y-76385983D01*
X137007345Y-76729635D01*
X137270365Y-76992655D01*
X137614017Y-77135000D01*
X137618146Y-77135000D01*
X137657345Y-77229635D01*
X137920365Y-77492655D01*
X138264017Y-77635000D01*
X138635983Y-77635000D01*
X138979635Y-77492655D01*
X139242655Y-77229635D01*
X139346659Y-76978546D01*
X139664017Y-77110000D01*
X140035983Y-77110000D01*
X140379635Y-76967655D01*
X140642655Y-76704635D01*
X140785000Y-76360983D01*
X140785000Y-75989017D01*
X140753935Y-75914017D01*
X151865004Y-75914017D01*
X151865004Y-76285983D01*
X152007349Y-76629635D01*
X152270369Y-76892655D01*
X152327579Y-76916352D01*
X152457345Y-77229635D01*
X152720365Y-77492655D01*
X153064017Y-77635000D01*
X153435983Y-77635000D01*
X153779635Y-77492655D01*
X154042655Y-77229635D01*
X154185000Y-76885983D01*
X154185000Y-76514017D01*
X154042655Y-76170365D01*
X153779635Y-75907345D01*
X153722425Y-75883648D01*
X153592659Y-75570365D01*
X153329639Y-75307345D01*
X153104325Y-75214017D01*
X159015000Y-75214017D01*
X159015000Y-75585983D01*
X159157345Y-75929635D01*
X159420365Y-76192655D01*
X159764017Y-76335000D01*
X160135983Y-76335000D01*
X160479635Y-76192655D01*
X160742655Y-75929635D01*
X160749124Y-75914017D01*
X166815000Y-75914017D01*
X166815000Y-76285983D01*
X166957345Y-76629635D01*
X167220365Y-76892655D01*
X167277580Y-76916354D01*
X167407345Y-77229635D01*
X167670365Y-77492655D01*
X168014017Y-77635000D01*
X168385983Y-77635000D01*
X168729635Y-77492655D01*
X168992655Y-77229635D01*
X169135000Y-76885983D01*
X169135000Y-76823201D01*
X169279454Y-76967655D01*
X169623106Y-77110000D01*
X169995072Y-77110000D01*
X170338724Y-76967655D01*
X170601744Y-76704635D01*
X170744089Y-76360983D01*
X170744089Y-75989017D01*
X170601744Y-75645365D01*
X170338724Y-75382345D01*
X169995072Y-75240000D01*
X169623106Y-75240000D01*
X169279454Y-75382345D01*
X169016434Y-75645365D01*
X168874089Y-75989017D01*
X168874089Y-76051799D01*
X168729635Y-75907345D01*
X168672420Y-75883646D01*
X168542655Y-75570365D01*
X168279635Y-75307345D01*
X167935983Y-75165000D01*
X167564017Y-75165000D01*
X167220365Y-75307345D01*
X166957345Y-75570365D01*
X166815000Y-75914017D01*
X160749124Y-75914017D01*
X160885000Y-75585983D01*
X160885000Y-75214017D01*
X160742655Y-74870365D01*
X160479635Y-74607345D01*
X160135983Y-74465000D01*
X159764017Y-74465000D01*
X159420365Y-74607345D01*
X159157345Y-74870365D01*
X159015000Y-75214017D01*
X153104325Y-75214017D01*
X152985987Y-75165000D01*
X152614021Y-75165000D01*
X152270369Y-75307345D01*
X152007349Y-75570365D01*
X151865004Y-75914017D01*
X140753935Y-75914017D01*
X140642655Y-75645365D01*
X140379635Y-75382345D01*
X140035983Y-75240000D01*
X139664017Y-75240000D01*
X139320365Y-75382345D01*
X139057345Y-75645365D01*
X138953341Y-75896454D01*
X138635983Y-75765000D01*
X138631854Y-75765000D01*
X138592655Y-75670365D01*
X138329635Y-75407345D01*
X137985983Y-75265000D01*
X137614017Y-75265000D01*
X137270365Y-75407345D01*
X137007345Y-75670365D01*
X136865000Y-76014017D01*
X131811307Y-76014017D01*
X131729635Y-75932345D01*
X131385983Y-75790000D01*
X131014017Y-75790000D01*
X130670365Y-75932345D01*
X130407345Y-76195365D01*
X130265000Y-76539017D01*
X130265000Y-76910983D01*
X130407345Y-77254635D01*
X130551463Y-77398753D01*
X130470365Y-77432345D01*
X130207345Y-77695365D01*
X130065000Y-78039017D01*
X125483273Y-78039017D01*
X125542655Y-77979635D01*
X125685000Y-77635983D01*
X125685000Y-77264017D01*
X125542655Y-76920365D01*
X125491182Y-76868892D01*
X125725257Y-76771935D01*
X125988277Y-76508915D01*
X126130622Y-76165263D01*
X126130622Y-75793297D01*
X125988277Y-75449645D01*
X125725257Y-75186625D01*
X125381605Y-75044280D01*
X125009639Y-75044280D01*
X124665987Y-75186625D01*
X124402967Y-75449645D01*
X124260622Y-75793297D01*
X124260622Y-76165263D01*
X124402967Y-76508915D01*
X124454440Y-76560388D01*
X124220365Y-76657345D01*
X123957345Y-76920365D01*
X123815000Y-77264017D01*
X109710000Y-77264017D01*
X109710000Y-75468286D01*
X121015355Y-75468286D01*
X121015355Y-75840252D01*
X121157700Y-76183904D01*
X121420720Y-76446924D01*
X121764372Y-76589269D01*
X122136338Y-76589269D01*
X122479990Y-76446924D01*
X122743010Y-76183904D01*
X122885355Y-75840252D01*
X122885355Y-75468286D01*
X122743010Y-75124634D01*
X122479990Y-74861614D01*
X122136338Y-74719269D01*
X121764372Y-74719269D01*
X121420720Y-74861614D01*
X121157700Y-75124634D01*
X121015355Y-75468286D01*
X109710000Y-75468286D01*
X109710000Y-69514017D01*
X122365000Y-69514017D01*
X122365000Y-69885983D01*
X122507345Y-70229635D01*
X122770365Y-70492655D01*
X123114017Y-70635000D01*
X123465000Y-70635000D01*
X123465000Y-70968146D01*
X123370365Y-71007345D01*
X123107345Y-71270365D01*
X122965000Y-71614017D01*
X122965000Y-71826725D01*
X122770365Y-71907345D01*
X122507345Y-72170365D01*
X122365000Y-72514017D01*
X122365000Y-72885983D01*
X122507345Y-73229635D01*
X122770365Y-73492655D01*
X123114017Y-73635000D01*
X123485983Y-73635000D01*
X123829635Y-73492655D01*
X124092655Y-73229635D01*
X124235000Y-72885983D01*
X124235000Y-72673275D01*
X124429635Y-72592655D01*
X124458273Y-72564017D01*
X137265000Y-72564017D01*
X137265000Y-72935983D01*
X137407345Y-73279635D01*
X137670365Y-73542655D01*
X138014017Y-73685000D01*
X138385983Y-73685000D01*
X138729635Y-73542655D01*
X138992655Y-73279635D01*
X139135000Y-72935983D01*
X139135000Y-72766896D01*
X139413039Y-72651729D01*
X139500751Y-72564017D01*
X152165000Y-72564017D01*
X152165000Y-72935983D01*
X152307345Y-73279635D01*
X152570365Y-73542655D01*
X152914017Y-73685000D01*
X153285983Y-73685000D01*
X153629635Y-73542655D01*
X153892655Y-73279635D01*
X154035000Y-72935983D01*
X154035000Y-72735000D01*
X154135983Y-72735000D01*
X154479635Y-72592655D01*
X154508273Y-72564017D01*
X167315000Y-72564017D01*
X167315000Y-72935983D01*
X167457345Y-73279635D01*
X167720365Y-73542655D01*
X168064017Y-73685000D01*
X168435983Y-73685000D01*
X168779635Y-73542655D01*
X169042655Y-73279635D01*
X169185000Y-72935983D01*
X169185000Y-72673275D01*
X169379635Y-72592655D01*
X169642655Y-72329635D01*
X169785000Y-71985983D01*
X169785000Y-71714697D01*
X170079635Y-71592655D01*
X170342655Y-71329635D01*
X170485000Y-70985983D01*
X170485000Y-70614017D01*
X170342655Y-70270365D01*
X170079635Y-70007345D01*
X169735983Y-69865000D01*
X169364017Y-69865000D01*
X169279127Y-69900163D01*
X169285000Y-69885983D01*
X169285000Y-69514017D01*
X169142655Y-69170365D01*
X168879635Y-68907345D01*
X168535983Y-68765000D01*
X168164017Y-68765000D01*
X167820365Y-68907345D01*
X167557345Y-69170365D01*
X167415000Y-69514017D01*
X167415000Y-69885983D01*
X167557345Y-70229635D01*
X167820365Y-70492655D01*
X168164017Y-70635000D01*
X168535983Y-70635000D01*
X168620873Y-70599837D01*
X168615000Y-70614017D01*
X168615000Y-70885303D01*
X168320365Y-71007345D01*
X168057345Y-71270365D01*
X167915000Y-71614017D01*
X167915000Y-71876725D01*
X167720365Y-71957345D01*
X167457345Y-72220365D01*
X167315000Y-72564017D01*
X154508273Y-72564017D01*
X154742655Y-72329635D01*
X154885000Y-71985983D01*
X154885000Y-71714697D01*
X155179635Y-71592655D01*
X155442655Y-71329635D01*
X155585000Y-70985983D01*
X155585000Y-70614017D01*
X155442655Y-70270365D01*
X155179635Y-70007345D01*
X154835983Y-69865000D01*
X154464017Y-69865000D01*
X154233416Y-69960518D01*
X154285000Y-69835983D01*
X154285000Y-69464017D01*
X154142655Y-69120365D01*
X153879635Y-68857345D01*
X153535983Y-68715000D01*
X153164017Y-68715000D01*
X152820365Y-68857345D01*
X152557345Y-69120365D01*
X152415000Y-69464017D01*
X152415000Y-69835983D01*
X152557345Y-70179635D01*
X152820365Y-70442655D01*
X153164017Y-70585000D01*
X153535983Y-70585000D01*
X153766584Y-70489482D01*
X153715000Y-70614017D01*
X153715000Y-70885303D01*
X153420365Y-71007345D01*
X153157345Y-71270365D01*
X153015000Y-71614017D01*
X153015000Y-71815000D01*
X152914017Y-71815000D01*
X152570365Y-71957345D01*
X152307345Y-72220365D01*
X152165000Y-72564017D01*
X139500751Y-72564017D01*
X139676059Y-72388709D01*
X139818404Y-72045057D01*
X139818404Y-71673091D01*
X139768845Y-71553445D01*
X139992655Y-71329635D01*
X140135000Y-70985983D01*
X140135000Y-70614017D01*
X139992655Y-70270365D01*
X139729635Y-70007345D01*
X139385983Y-69865000D01*
X139222981Y-69865000D01*
X139235000Y-69835983D01*
X139235000Y-69464017D01*
X139092655Y-69120365D01*
X138829635Y-68857345D01*
X138485983Y-68715000D01*
X138114017Y-68715000D01*
X137770365Y-68857345D01*
X137507345Y-69120365D01*
X137365000Y-69464017D01*
X137365000Y-69835983D01*
X137507345Y-70179635D01*
X137770365Y-70442655D01*
X138114017Y-70585000D01*
X138277019Y-70585000D01*
X138265000Y-70614017D01*
X138265000Y-70985983D01*
X138314559Y-71105629D01*
X138090749Y-71329439D01*
X137948404Y-71673091D01*
X137948404Y-71842178D01*
X137670365Y-71957345D01*
X137407345Y-72220365D01*
X137265000Y-72564017D01*
X124458273Y-72564017D01*
X124692655Y-72329635D01*
X124835000Y-71985983D01*
X124835000Y-71631854D01*
X124929635Y-71592655D01*
X125192655Y-71329635D01*
X125335000Y-70985983D01*
X125335000Y-70664017D01*
X130865000Y-70664017D01*
X130865000Y-71035983D01*
X131007345Y-71379635D01*
X131270365Y-71642655D01*
X131614017Y-71785000D01*
X131985983Y-71785000D01*
X132329635Y-71642655D01*
X132592655Y-71379635D01*
X132735000Y-71035983D01*
X132735000Y-70664017D01*
X132592655Y-70320365D01*
X132329635Y-70057345D01*
X131985983Y-69915000D01*
X131614017Y-69915000D01*
X131270365Y-70057345D01*
X131007345Y-70320365D01*
X130865000Y-70664017D01*
X125335000Y-70664017D01*
X125335000Y-70614017D01*
X125192655Y-70270365D01*
X124929635Y-70007345D01*
X124585983Y-69865000D01*
X124235000Y-69865000D01*
X124235000Y-69514017D01*
X124092655Y-69170365D01*
X123829635Y-68907345D01*
X123485983Y-68765000D01*
X123114017Y-68765000D01*
X122770365Y-68907345D01*
X122507345Y-69170365D01*
X122365000Y-69514017D01*
X109710000Y-69514017D01*
X109710000Y-68364017D01*
X120065000Y-68364017D01*
X120065000Y-68735983D01*
X120207345Y-69079635D01*
X120470365Y-69342655D01*
X120814017Y-69485000D01*
X121185983Y-69485000D01*
X121529635Y-69342655D01*
X121792655Y-69079635D01*
X121935000Y-68735983D01*
X121935000Y-68364017D01*
X121914290Y-68314017D01*
X134815000Y-68314017D01*
X134815000Y-68685983D01*
X134957345Y-69029635D01*
X135220365Y-69292655D01*
X135564017Y-69435000D01*
X135935983Y-69435000D01*
X136279635Y-69292655D01*
X136542655Y-69029635D01*
X136685000Y-68685983D01*
X136685000Y-68314017D01*
X136542655Y-67970365D01*
X136279635Y-67707345D01*
X135935983Y-67565000D01*
X135564017Y-67565000D01*
X135220365Y-67707345D01*
X134957345Y-67970365D01*
X134815000Y-68314017D01*
X121914290Y-68314017D01*
X121792655Y-68020365D01*
X121529635Y-67757345D01*
X121185983Y-67615000D01*
X120814017Y-67615000D01*
X120470365Y-67757345D01*
X120207345Y-68020365D01*
X120065000Y-68364017D01*
X109710000Y-68364017D01*
X109710000Y-58495270D01*
X109992643Y-59177630D01*
X111322370Y-60507357D01*
X113059741Y-61227000D01*
X114940259Y-61227000D01*
X116677630Y-60507357D01*
X118007357Y-59177630D01*
X118727000Y-57440259D01*
X118727000Y-55559741D01*
X118464046Y-54924914D01*
X120815000Y-54924914D01*
X120815000Y-55625086D01*
X121082944Y-56271960D01*
X121578040Y-56767056D01*
X122224914Y-57035000D01*
X122925086Y-57035000D01*
X123571960Y-56767056D01*
X124067056Y-56271960D01*
X124302560Y-55703403D01*
X124302560Y-56400000D01*
X124351843Y-56647765D01*
X124492191Y-56857809D01*
X124702235Y-56998157D01*
X124950000Y-57047440D01*
X127200000Y-57047440D01*
X127447765Y-56998157D01*
X127657809Y-56857809D01*
X127798157Y-56647765D01*
X127847440Y-56400000D01*
X127847440Y-54874914D01*
X135815000Y-54874914D01*
X135815000Y-55575086D01*
X136082944Y-56221960D01*
X136578040Y-56717056D01*
X137224914Y-56985000D01*
X137925086Y-56985000D01*
X138571960Y-56717056D01*
X139067056Y-56221960D01*
X139302560Y-55653403D01*
X139302560Y-56350000D01*
X139351843Y-56597765D01*
X139492191Y-56807809D01*
X139702235Y-56948157D01*
X139950000Y-56997440D01*
X142200000Y-56997440D01*
X142447765Y-56948157D01*
X142657809Y-56807809D01*
X142798157Y-56597765D01*
X142847440Y-56350000D01*
X142847440Y-54924914D01*
X150815000Y-54924914D01*
X150815000Y-55625086D01*
X151082944Y-56271960D01*
X151578040Y-56767056D01*
X152224914Y-57035000D01*
X152925086Y-57035000D01*
X153571960Y-56767056D01*
X154067056Y-56271960D01*
X154302560Y-55703403D01*
X154302560Y-56400000D01*
X154351843Y-56647765D01*
X154492191Y-56857809D01*
X154702235Y-56998157D01*
X154950000Y-57047440D01*
X157200000Y-57047440D01*
X157447765Y-56998157D01*
X157657809Y-56857809D01*
X157798157Y-56647765D01*
X157847440Y-56400000D01*
X157847440Y-54924914D01*
X165815000Y-54924914D01*
X165815000Y-55625086D01*
X166082944Y-56271960D01*
X166578040Y-56767056D01*
X167224914Y-57035000D01*
X167925086Y-57035000D01*
X168571960Y-56767056D01*
X169067056Y-56271960D01*
X169302560Y-55703403D01*
X169302560Y-56400000D01*
X169351843Y-56647765D01*
X169492191Y-56857809D01*
X169702235Y-56998157D01*
X169950000Y-57047440D01*
X172200000Y-57047440D01*
X172447765Y-56998157D01*
X172657809Y-56857809D01*
X172798157Y-56647765D01*
X172847440Y-56400000D01*
X172847440Y-54150000D01*
X172798157Y-53902235D01*
X172657809Y-53692191D01*
X172447765Y-53551843D01*
X172200000Y-53502560D01*
X169950000Y-53502560D01*
X169702235Y-53551843D01*
X169492191Y-53692191D01*
X169351843Y-53902235D01*
X169302560Y-54150000D01*
X169302560Y-54846597D01*
X169067056Y-54278040D01*
X168571960Y-53782944D01*
X167925086Y-53515000D01*
X167224914Y-53515000D01*
X166578040Y-53782944D01*
X166082944Y-54278040D01*
X165815000Y-54924914D01*
X157847440Y-54924914D01*
X157847440Y-54150000D01*
X157798157Y-53902235D01*
X157657809Y-53692191D01*
X157447765Y-53551843D01*
X157200000Y-53502560D01*
X154950000Y-53502560D01*
X154702235Y-53551843D01*
X154492191Y-53692191D01*
X154351843Y-53902235D01*
X154302560Y-54150000D01*
X154302560Y-54846597D01*
X154067056Y-54278040D01*
X153571960Y-53782944D01*
X152925086Y-53515000D01*
X152224914Y-53515000D01*
X151578040Y-53782944D01*
X151082944Y-54278040D01*
X150815000Y-54924914D01*
X142847440Y-54924914D01*
X142847440Y-54100000D01*
X142798157Y-53852235D01*
X142657809Y-53642191D01*
X142447765Y-53501843D01*
X142200000Y-53452560D01*
X139950000Y-53452560D01*
X139702235Y-53501843D01*
X139492191Y-53642191D01*
X139351843Y-53852235D01*
X139302560Y-54100000D01*
X139302560Y-54796597D01*
X139067056Y-54228040D01*
X138571960Y-53732944D01*
X137925086Y-53465000D01*
X137224914Y-53465000D01*
X136578040Y-53732944D01*
X136082944Y-54228040D01*
X135815000Y-54874914D01*
X127847440Y-54874914D01*
X127847440Y-54150000D01*
X127798157Y-53902235D01*
X127657809Y-53692191D01*
X127447765Y-53551843D01*
X127200000Y-53502560D01*
X124950000Y-53502560D01*
X124702235Y-53551843D01*
X124492191Y-53692191D01*
X124351843Y-53902235D01*
X124302560Y-54150000D01*
X124302560Y-54846597D01*
X124067056Y-54278040D01*
X123571960Y-53782944D01*
X122925086Y-53515000D01*
X122224914Y-53515000D01*
X121578040Y-53782944D01*
X121082944Y-54278040D01*
X120815000Y-54924914D01*
X118464046Y-54924914D01*
X118007357Y-53822370D01*
X116677630Y-52492643D01*
X114940259Y-51773000D01*
X113059741Y-51773000D01*
X111322370Y-52492643D01*
X109992643Y-53822370D01*
X109710000Y-54504730D01*
X109710000Y-49710000D01*
X183290001Y-49710000D01*
X183290001Y-54504732D01*
X183290001Y-54504732D01*
G37*
X183290001Y-54504732D02*
X183007357Y-53822370D01*
X181677630Y-52492643D01*
X179940259Y-51773000D01*
X178059741Y-51773000D01*
X176322370Y-52492643D01*
X174992643Y-53822370D01*
X174273000Y-55559741D01*
X174273000Y-57440259D01*
X174992643Y-59177630D01*
X176322370Y-60507357D01*
X178059741Y-61227000D01*
X179940259Y-61227000D01*
X181677630Y-60507357D01*
X183007357Y-59177630D01*
X183290001Y-58495268D01*
X183290000Y-103064999D01*
X182964018Y-103064999D01*
X182620366Y-103207344D01*
X182357346Y-103470364D01*
X182215001Y-103814016D01*
X182215001Y-104185982D01*
X182357346Y-104529634D01*
X182620366Y-104792654D01*
X182964018Y-104934999D01*
X183290000Y-104934999D01*
X183290000Y-133290000D01*
X109710000Y-133290000D01*
X109710000Y-132003233D01*
X111624268Y-132003233D01*
X112013927Y-132468182D01*
X113454055Y-132971832D01*
X114977299Y-132886030D01*
X115986073Y-132468182D01*
X116266752Y-132133270D01*
X122558626Y-132133270D01*
X122889289Y-132609085D01*
X123326735Y-132901345D01*
X123547000Y-132812718D01*
X123547000Y-131913000D01*
X122641329Y-131913000D01*
X122558626Y-132133270D01*
X116266752Y-132133270D01*
X116375732Y-132003233D01*
X116130914Y-131758415D01*
X116144287Y-131752876D01*
X116173599Y-131556442D01*
X115697056Y-131079899D01*
X115574727Y-131202228D01*
X115291884Y-130919385D01*
X115414213Y-130797056D01*
X114937670Y-130320513D01*
X114741236Y-130349825D01*
X114737501Y-130365003D01*
X114000000Y-129627502D01*
X113264303Y-130363198D01*
X113258764Y-130349825D01*
X113062330Y-130320513D01*
X112585787Y-130797056D01*
X112708116Y-130919385D01*
X112425273Y-131202228D01*
X112302944Y-131079899D01*
X111826401Y-131556442D01*
X111855713Y-131752876D01*
X111870890Y-131756611D01*
X111624268Y-132003233D01*
X109710000Y-132003233D01*
X109710000Y-128554055D01*
X110128168Y-128554055D01*
X110213970Y-130077299D01*
X110631818Y-131086073D01*
X111096767Y-131475732D01*
X111341585Y-131230914D01*
X111347124Y-131244287D01*
X111543558Y-131273599D01*
X112020101Y-130797056D01*
X111897772Y-130674727D01*
X112180615Y-130391884D01*
X112302944Y-130514213D01*
X112779487Y-130037670D01*
X112750175Y-129841236D01*
X112734997Y-129837501D01*
X113472498Y-129100000D01*
X114527502Y-129100000D01*
X115263198Y-129835697D01*
X115249825Y-129841236D01*
X115220513Y-130037670D01*
X115697056Y-130514213D01*
X115819385Y-130391884D01*
X116102228Y-130674727D01*
X115979899Y-130797056D01*
X116456442Y-131273599D01*
X116652876Y-131244287D01*
X116656611Y-131229110D01*
X116903233Y-131475732D01*
X117368182Y-131086073D01*
X117871832Y-129645945D01*
X117835447Y-129000000D01*
X122405908Y-129000000D01*
X122521161Y-129579418D01*
X122849375Y-130070625D01*
X123168886Y-130284115D01*
X122889289Y-130470915D01*
X122558626Y-130946730D01*
X122641329Y-131167000D01*
X123547000Y-131167000D01*
X123547000Y-131147000D01*
X124293000Y-131147000D01*
X124293000Y-131167000D01*
X124313000Y-131167000D01*
X124313000Y-131913000D01*
X124293000Y-131913000D01*
X124293000Y-132812718D01*
X124513265Y-132901345D01*
X124950711Y-132609085D01*
X125173824Y-132288031D01*
X125389375Y-132610625D01*
X125880582Y-132938839D01*
X126313744Y-133025000D01*
X126606256Y-133025000D01*
X127039418Y-132938839D01*
X127530625Y-132610625D01*
X127730000Y-132312239D01*
X127929375Y-132610625D01*
X128420582Y-132938839D01*
X128853744Y-133025000D01*
X129146256Y-133025000D01*
X129579418Y-132938839D01*
X130070625Y-132610625D01*
X130398839Y-132119418D01*
X130514092Y-131540000D01*
X130419414Y-131064017D01*
X145065000Y-131064017D01*
X145065000Y-131435983D01*
X145207345Y-131779635D01*
X145470365Y-132042655D01*
X145814017Y-132185000D01*
X146185983Y-132185000D01*
X146529635Y-132042655D01*
X146569057Y-132003233D01*
X176624268Y-132003233D01*
X177013927Y-132468182D01*
X178454055Y-132971832D01*
X179977299Y-132886030D01*
X180986073Y-132468182D01*
X181375732Y-132003233D01*
X181130914Y-131758415D01*
X181144287Y-131752876D01*
X181173599Y-131556442D01*
X180697056Y-131079899D01*
X180574727Y-131202228D01*
X180291884Y-130919385D01*
X180414213Y-130797056D01*
X179937670Y-130320513D01*
X179741236Y-130349825D01*
X179737501Y-130365003D01*
X179000000Y-129627502D01*
X178264303Y-130363198D01*
X178258764Y-130349825D01*
X178062330Y-130320513D01*
X177585787Y-130797056D01*
X177708116Y-130919385D01*
X177425273Y-131202228D01*
X177302944Y-131079899D01*
X176826401Y-131556442D01*
X176855713Y-131752876D01*
X176870890Y-131756611D01*
X176624268Y-132003233D01*
X146569057Y-132003233D01*
X146792655Y-131779635D01*
X146935000Y-131435983D01*
X146935000Y-131064017D01*
X146792655Y-130720365D01*
X146529635Y-130457345D01*
X146185983Y-130315000D01*
X145814017Y-130315000D01*
X145470365Y-130457345D01*
X145207345Y-130720365D01*
X145065000Y-131064017D01*
X130419414Y-131064017D01*
X130398839Y-130960582D01*
X130070625Y-130469375D01*
X130052381Y-130457184D01*
X130097765Y-130448157D01*
X130307809Y-130307809D01*
X130448157Y-130097765D01*
X130497440Y-129850000D01*
X130497440Y-128150000D01*
X130448157Y-127902235D01*
X130307809Y-127692191D01*
X130097765Y-127551843D01*
X129850000Y-127502560D01*
X128150000Y-127502560D01*
X127902235Y-127551843D01*
X127692191Y-127692191D01*
X127551843Y-127902235D01*
X127542816Y-127947619D01*
X127530625Y-127929375D01*
X127039418Y-127601161D01*
X126606256Y-127515000D01*
X126313744Y-127515000D01*
X125880582Y-127601161D01*
X125389375Y-127929375D01*
X125190000Y-128227761D01*
X124990625Y-127929375D01*
X124499418Y-127601161D01*
X124066256Y-127515000D01*
X123773744Y-127515000D01*
X123340582Y-127601161D01*
X122849375Y-127929375D01*
X122521161Y-128420582D01*
X122405908Y-129000000D01*
X117835447Y-129000000D01*
X117786030Y-128122701D01*
X117368182Y-127113927D01*
X116903233Y-126724268D01*
X116658415Y-126969086D01*
X116652876Y-126955713D01*
X116456442Y-126926401D01*
X115979899Y-127402944D01*
X116102228Y-127525273D01*
X115819385Y-127808116D01*
X115697056Y-127685787D01*
X115220513Y-128162330D01*
X115249825Y-128358764D01*
X115265003Y-128362499D01*
X114527502Y-129100000D01*
X113472498Y-129100000D01*
X112736802Y-128364303D01*
X112750175Y-128358764D01*
X112779487Y-128162330D01*
X112302944Y-127685787D01*
X112180615Y-127808116D01*
X111897772Y-127525273D01*
X112020101Y-127402944D01*
X111543558Y-126926401D01*
X111347124Y-126955713D01*
X111343389Y-126970890D01*
X111096767Y-126724268D01*
X110631818Y-127113927D01*
X110128168Y-128554055D01*
X109710000Y-128554055D01*
X109710000Y-126196767D01*
X111624268Y-126196767D01*
X111869086Y-126441585D01*
X111855713Y-126447124D01*
X111826401Y-126643558D01*
X112302944Y-127120101D01*
X112425273Y-126997772D01*
X112708116Y-127280615D01*
X112585787Y-127402944D01*
X113062330Y-127879487D01*
X113258764Y-127850175D01*
X113262499Y-127834997D01*
X114000000Y-128572498D01*
X114735697Y-127836802D01*
X114741236Y-127850175D01*
X114937670Y-127879487D01*
X115414213Y-127402944D01*
X115291884Y-127280615D01*
X115574727Y-126997772D01*
X115697056Y-127120101D01*
X116173599Y-126643558D01*
X116144287Y-126447124D01*
X116129110Y-126443389D01*
X116375732Y-126196767D01*
X115986073Y-125731818D01*
X114545945Y-125228168D01*
X113022701Y-125313970D01*
X112013927Y-125731818D01*
X111624268Y-126196767D01*
X109710000Y-126196767D01*
X109710000Y-123264017D01*
X135515000Y-123264017D01*
X135515000Y-123635983D01*
X135657345Y-123979635D01*
X135920365Y-124242655D01*
X136104404Y-124318886D01*
X136065000Y-124414017D01*
X136065000Y-124785983D01*
X136207345Y-125129635D01*
X136470365Y-125392655D01*
X136807014Y-125532099D01*
X136773083Y-125614016D01*
X136773083Y-125985982D01*
X136915428Y-126329634D01*
X137178448Y-126592654D01*
X137522100Y-126734999D01*
X137894066Y-126734999D01*
X138237718Y-126592654D01*
X138500738Y-126329634D01*
X138566058Y-126171937D01*
X138839017Y-126285000D01*
X138890059Y-126285000D01*
X138899056Y-126306721D01*
X139100136Y-126507801D01*
X139085231Y-126543786D01*
X139085231Y-126915752D01*
X139227576Y-127259404D01*
X139490596Y-127522424D01*
X139834248Y-127664769D01*
X140206214Y-127664769D01*
X140271623Y-127637676D01*
X140240000Y-127714021D01*
X140240000Y-127966285D01*
X139988937Y-127862292D01*
X139616971Y-127862292D01*
X139335000Y-127979088D01*
X139335000Y-127964017D01*
X139192655Y-127620365D01*
X138929635Y-127357345D01*
X138585983Y-127215000D01*
X138214017Y-127215000D01*
X137870365Y-127357345D01*
X137607345Y-127620365D01*
X137465000Y-127964017D01*
X137465000Y-128335983D01*
X137607345Y-128679635D01*
X137870365Y-128942655D01*
X138214017Y-129085000D01*
X138585983Y-129085000D01*
X138867954Y-128968204D01*
X138867954Y-128983275D01*
X139010299Y-129326927D01*
X139273319Y-129589947D01*
X139616971Y-129732292D01*
X139988937Y-129732292D01*
X140118635Y-129678569D01*
X140129437Y-129704647D01*
X140392457Y-129967667D01*
X140460443Y-129995828D01*
X140566368Y-130251554D01*
X140829388Y-130514574D01*
X141173040Y-130656919D01*
X141545006Y-130656919D01*
X141888658Y-130514574D01*
X142151678Y-130251554D01*
X142294023Y-129907902D01*
X142294023Y-129764017D01*
X151115000Y-129764017D01*
X151115000Y-130135983D01*
X151257345Y-130479635D01*
X151520365Y-130742655D01*
X151864017Y-130885000D01*
X152235983Y-130885000D01*
X152579635Y-130742655D01*
X152842655Y-130479635D01*
X152985000Y-130135983D01*
X152985000Y-129764017D01*
X152842655Y-129420365D01*
X152579635Y-129157345D01*
X152235983Y-129015000D01*
X151864017Y-129015000D01*
X151520365Y-129157345D01*
X151257345Y-129420365D01*
X151115000Y-129764017D01*
X142294023Y-129764017D01*
X142294023Y-129535936D01*
X142151678Y-129192284D01*
X141888658Y-128929264D01*
X141820672Y-128901103D01*
X141725634Y-128671660D01*
X141967655Y-128429639D01*
X142110000Y-128085987D01*
X142110000Y-127714021D01*
X141967655Y-127370369D01*
X141798193Y-127200907D01*
X141988692Y-127010408D01*
X142090750Y-126764017D01*
X142515000Y-126764017D01*
X142515000Y-127135983D01*
X142657345Y-127479635D01*
X142920365Y-127742655D01*
X143264017Y-127885000D01*
X143635983Y-127885000D01*
X143764645Y-127831707D01*
X144014017Y-127935000D01*
X144385983Y-127935000D01*
X144390274Y-127933223D01*
X144418189Y-128000615D01*
X144326447Y-128222100D01*
X144326447Y-128594066D01*
X144468792Y-128937718D01*
X144731812Y-129200738D01*
X145075464Y-129343083D01*
X145447430Y-129343083D01*
X145791082Y-129200738D01*
X146054102Y-128937718D01*
X146196447Y-128594066D01*
X146196447Y-128222100D01*
X146152999Y-128117207D01*
X146244741Y-127895722D01*
X146244741Y-127523756D01*
X146116444Y-127214017D01*
X146390000Y-127214017D01*
X146390000Y-127585983D01*
X146532345Y-127929635D01*
X146795365Y-128192655D01*
X147139017Y-128335000D01*
X147510983Y-128335000D01*
X147854635Y-128192655D01*
X148117655Y-127929635D01*
X148175900Y-127789017D01*
X148815000Y-127789017D01*
X148815000Y-128160983D01*
X148957345Y-128504635D01*
X149220365Y-128767655D01*
X149564017Y-128910000D01*
X149935983Y-128910000D01*
X150279635Y-128767655D01*
X150493235Y-128554055D01*
X175128168Y-128554055D01*
X175213970Y-130077299D01*
X175631818Y-131086073D01*
X176096767Y-131475732D01*
X176341585Y-131230914D01*
X176347124Y-131244287D01*
X176543558Y-131273599D01*
X177020101Y-130797056D01*
X176897772Y-130674727D01*
X177180615Y-130391884D01*
X177302944Y-130514213D01*
X177779487Y-130037670D01*
X177750175Y-129841236D01*
X177734997Y-129837501D01*
X178472498Y-129100000D01*
X179527502Y-129100000D01*
X180263198Y-129835697D01*
X180249825Y-129841236D01*
X180220513Y-130037670D01*
X180697056Y-130514213D01*
X180819385Y-130391884D01*
X181102228Y-130674727D01*
X180979899Y-130797056D01*
X181456442Y-131273599D01*
X181652876Y-131244287D01*
X181656611Y-131229110D01*
X181903233Y-131475732D01*
X182368182Y-131086073D01*
X182871832Y-129645945D01*
X182786030Y-128122701D01*
X182368182Y-127113927D01*
X181903233Y-126724268D01*
X181658415Y-126969086D01*
X181652876Y-126955713D01*
X181456442Y-126926401D01*
X180979899Y-127402944D01*
X181102228Y-127525273D01*
X180819385Y-127808116D01*
X180697056Y-127685787D01*
X180220513Y-128162330D01*
X180249825Y-128358764D01*
X180265003Y-128362499D01*
X179527502Y-129100000D01*
X178472498Y-129100000D01*
X177736802Y-128364303D01*
X177750175Y-128358764D01*
X177779487Y-128162330D01*
X177302944Y-127685787D01*
X177180615Y-127808116D01*
X176897772Y-127525273D01*
X177020101Y-127402944D01*
X176543558Y-126926401D01*
X176347124Y-126955713D01*
X176343389Y-126970890D01*
X176096767Y-126724268D01*
X175631818Y-127113927D01*
X175128168Y-128554055D01*
X150493235Y-128554055D01*
X150542655Y-128504635D01*
X150685000Y-128160983D01*
X150685000Y-127789017D01*
X150542655Y-127445365D01*
X150279635Y-127182345D01*
X149935983Y-127040000D01*
X149564017Y-127040000D01*
X149220365Y-127182345D01*
X148957345Y-127445365D01*
X148815000Y-127789017D01*
X148175900Y-127789017D01*
X148260000Y-127585983D01*
X148260000Y-127214017D01*
X148117655Y-126870365D01*
X147854635Y-126607345D01*
X147510983Y-126465000D01*
X147139017Y-126465000D01*
X146795365Y-126607345D01*
X146532345Y-126870365D01*
X146390000Y-127214017D01*
X146116444Y-127214017D01*
X146102396Y-127180104D01*
X145875416Y-126953124D01*
X146073905Y-126754635D01*
X146216250Y-126410983D01*
X146216250Y-126039017D01*
X146123053Y-125814017D01*
X151115000Y-125814017D01*
X151115000Y-126185983D01*
X151257345Y-126529635D01*
X151520365Y-126792655D01*
X151864017Y-126935000D01*
X152235983Y-126935000D01*
X152579635Y-126792655D01*
X152842655Y-126529635D01*
X152980533Y-126196767D01*
X176624268Y-126196767D01*
X176869086Y-126441585D01*
X176855713Y-126447124D01*
X176826401Y-126643558D01*
X177302944Y-127120101D01*
X177425273Y-126997772D01*
X177708116Y-127280615D01*
X177585787Y-127402944D01*
X178062330Y-127879487D01*
X178258764Y-127850175D01*
X178262499Y-127834997D01*
X179000000Y-128572498D01*
X179735697Y-127836802D01*
X179741236Y-127850175D01*
X179937670Y-127879487D01*
X180414213Y-127402944D01*
X180291884Y-127280615D01*
X180574727Y-126997772D01*
X180697056Y-127120101D01*
X181173599Y-126643558D01*
X181144287Y-126447124D01*
X181129110Y-126443389D01*
X181375732Y-126196767D01*
X180986073Y-125731818D01*
X179545945Y-125228168D01*
X178022701Y-125313970D01*
X177013927Y-125731818D01*
X176624268Y-126196767D01*
X152980533Y-126196767D01*
X152985000Y-126185983D01*
X152985000Y-125814017D01*
X152842655Y-125470365D01*
X152579635Y-125207345D01*
X152235983Y-125065000D01*
X151864017Y-125065000D01*
X151520365Y-125207345D01*
X151257345Y-125470365D01*
X151115000Y-125814017D01*
X146123053Y-125814017D01*
X146073905Y-125695365D01*
X145835000Y-125456460D01*
X145835000Y-125395305D01*
X145692655Y-125051653D01*
X145429635Y-124788633D01*
X145085983Y-124646288D01*
X144714017Y-124646288D01*
X144370365Y-124788633D01*
X144107345Y-125051653D01*
X144015005Y-125274581D01*
X143911648Y-125317393D01*
X143648628Y-125580413D01*
X143506283Y-125924065D01*
X143506283Y-126015000D01*
X143264017Y-126015000D01*
X142920365Y-126157345D01*
X142657345Y-126420365D01*
X142515000Y-126764017D01*
X142090750Y-126764017D01*
X142131037Y-126666756D01*
X142131037Y-126294790D01*
X141988692Y-125951138D01*
X141725672Y-125688118D01*
X141382020Y-125545773D01*
X141010054Y-125545773D01*
X140666402Y-125688118D01*
X140626711Y-125727809D01*
X140626711Y-125591103D01*
X140484366Y-125247451D01*
X140221346Y-124984431D01*
X139877694Y-124842086D01*
X139826652Y-124842086D01*
X139817655Y-124820365D01*
X139554635Y-124557345D01*
X139210983Y-124415000D01*
X138839017Y-124415000D01*
X138661019Y-124488729D01*
X138429635Y-124257345D01*
X138085983Y-124115000D01*
X137811143Y-124115000D01*
X137792655Y-124070365D01*
X137529635Y-123807345D01*
X137345596Y-123731114D01*
X137385000Y-123635983D01*
X137385000Y-123264017D01*
X137242655Y-122920365D01*
X136979635Y-122657345D01*
X136635983Y-122515000D01*
X136264017Y-122515000D01*
X135920365Y-122657345D01*
X135657345Y-122920365D01*
X135515000Y-123264017D01*
X109710000Y-123264017D01*
X109710000Y-122464017D01*
X146465000Y-122464017D01*
X146465000Y-122835983D01*
X146607345Y-123179635D01*
X146870365Y-123442655D01*
X147214017Y-123585000D01*
X147585983Y-123585000D01*
X147929635Y-123442655D01*
X148058272Y-123314018D01*
X154365000Y-123314018D01*
X154365000Y-123685984D01*
X154507345Y-124029636D01*
X154770365Y-124292656D01*
X155114017Y-124435001D01*
X155485983Y-124435001D01*
X155829635Y-124292656D01*
X156092655Y-124029636D01*
X156235000Y-123685984D01*
X156235000Y-123314018D01*
X156235000Y-123314017D01*
X159865000Y-123314017D01*
X159865000Y-123685983D01*
X160007345Y-124029635D01*
X160270365Y-124292655D01*
X160614017Y-124435000D01*
X160985983Y-124435000D01*
X161329635Y-124292655D01*
X161592655Y-124029635D01*
X161735000Y-123685983D01*
X161735000Y-123314017D01*
X161592655Y-122970365D01*
X161329635Y-122707345D01*
X160985983Y-122565000D01*
X160614017Y-122565000D01*
X160270365Y-122707345D01*
X160007345Y-122970365D01*
X159865000Y-123314017D01*
X156235000Y-123314017D01*
X156092655Y-122970366D01*
X155829635Y-122707346D01*
X155485983Y-122565001D01*
X155114017Y-122565001D01*
X154770365Y-122707346D01*
X154507345Y-122970366D01*
X154365000Y-123314018D01*
X148058272Y-123314018D01*
X148192655Y-123179635D01*
X148335000Y-122835983D01*
X148335000Y-122464017D01*
X148192655Y-122120365D01*
X147929635Y-121857345D01*
X147585983Y-121715000D01*
X147214017Y-121715000D01*
X146870365Y-121857345D01*
X146607345Y-122120365D01*
X146465000Y-122464017D01*
X109710000Y-122464017D01*
X109710000Y-120489017D01*
X126640000Y-120489017D01*
X126640000Y-120860983D01*
X126782345Y-121204635D01*
X127045365Y-121467655D01*
X127389017Y-121610000D01*
X127760983Y-121610000D01*
X128104635Y-121467655D01*
X128367655Y-121204635D01*
X128510000Y-120860983D01*
X128510000Y-120489017D01*
X128367655Y-120145365D01*
X128104635Y-119882345D01*
X127760983Y-119740000D01*
X127389017Y-119740000D01*
X127045365Y-119882345D01*
X126782345Y-120145365D01*
X126640000Y-120489017D01*
X109710000Y-120489017D01*
X109710000Y-119274234D01*
X129665000Y-119274234D01*
X129665000Y-119725766D01*
X129837793Y-120142926D01*
X130157074Y-120462207D01*
X130574234Y-120635000D01*
X131025766Y-120635000D01*
X131220845Y-120554196D01*
X131165000Y-120689017D01*
X131165000Y-121060983D01*
X131307345Y-121404635D01*
X131570365Y-121667655D01*
X131914017Y-121810000D01*
X132285983Y-121810000D01*
X132629635Y-121667655D01*
X132892655Y-121404635D01*
X133035000Y-121060983D01*
X133035000Y-120689017D01*
X132999905Y-120604291D01*
X133342926Y-120462207D01*
X133662207Y-120142926D01*
X133736313Y-119964017D01*
X136465000Y-119964017D01*
X136465000Y-120335983D01*
X136607345Y-120679635D01*
X136870365Y-120942655D01*
X137214017Y-121085000D01*
X137585983Y-121085000D01*
X137929635Y-120942655D01*
X138192655Y-120679635D01*
X138335000Y-120335983D01*
X138335000Y-119964017D01*
X138192655Y-119620365D01*
X137986307Y-119414017D01*
X147289999Y-119414017D01*
X147289999Y-119785983D01*
X147432344Y-120129635D01*
X147695364Y-120392655D01*
X147786995Y-120430610D01*
X147786995Y-120452681D01*
X147929340Y-120796333D01*
X148192360Y-121059353D01*
X148536012Y-121201698D01*
X148907978Y-121201698D01*
X149251630Y-121059353D01*
X149514650Y-120796333D01*
X149656995Y-120452681D01*
X149656995Y-120080715D01*
X149525815Y-119764017D01*
X152240000Y-119764017D01*
X152240000Y-120135983D01*
X152382345Y-120479635D01*
X152645365Y-120742655D01*
X152989017Y-120885000D01*
X153360983Y-120885000D01*
X153704635Y-120742655D01*
X153967655Y-120479635D01*
X154110000Y-120135983D01*
X154110000Y-119764017D01*
X153967655Y-119420365D01*
X153704635Y-119157345D01*
X153539679Y-119089018D01*
X160839999Y-119089018D01*
X160839999Y-119460984D01*
X160982344Y-119804636D01*
X161245364Y-120067656D01*
X161589016Y-120210001D01*
X161960982Y-120210001D01*
X162304634Y-120067656D01*
X162567654Y-119804636D01*
X162709999Y-119460984D01*
X162709999Y-119089018D01*
X162567654Y-118745366D01*
X162304634Y-118482346D01*
X161960982Y-118340001D01*
X161589016Y-118340001D01*
X161245364Y-118482346D01*
X160982344Y-118745366D01*
X160839999Y-119089018D01*
X153539679Y-119089018D01*
X153360983Y-119015000D01*
X152989017Y-119015000D01*
X152645365Y-119157345D01*
X152382345Y-119420365D01*
X152240000Y-119764017D01*
X149525815Y-119764017D01*
X149514650Y-119737063D01*
X149251630Y-119474043D01*
X149159999Y-119436088D01*
X149159999Y-119414017D01*
X149017654Y-119070365D01*
X148754634Y-118807345D01*
X148410982Y-118665000D01*
X148039016Y-118665000D01*
X147695364Y-118807345D01*
X147432344Y-119070365D01*
X147289999Y-119414017D01*
X137986307Y-119414017D01*
X137929635Y-119357345D01*
X137585983Y-119215000D01*
X137214017Y-119215000D01*
X136870365Y-119357345D01*
X136607345Y-119620365D01*
X136465000Y-119964017D01*
X133736313Y-119964017D01*
X133835000Y-119725766D01*
X133835000Y-119274234D01*
X133662207Y-118857074D01*
X133342926Y-118537793D01*
X132925766Y-118365000D01*
X132474234Y-118365000D01*
X132057074Y-118537793D01*
X131816157Y-118778710D01*
X131683843Y-118778710D01*
X131442926Y-118537793D01*
X131025766Y-118365000D01*
X130574234Y-118365000D01*
X130157074Y-118537793D01*
X129837793Y-118857074D01*
X129665000Y-119274234D01*
X109710000Y-119274234D01*
X109710000Y-117314017D01*
X126965000Y-117314017D01*
X126965000Y-117685983D01*
X127107345Y-118029635D01*
X127370365Y-118292655D01*
X127714017Y-118435000D01*
X128085983Y-118435000D01*
X128429635Y-118292655D01*
X128692655Y-118029635D01*
X128835000Y-117685983D01*
X128835000Y-117314017D01*
X128692655Y-116970365D01*
X128536307Y-116814017D01*
X137415000Y-116814017D01*
X137415000Y-117185983D01*
X137557345Y-117529635D01*
X137820365Y-117792655D01*
X138164017Y-117935000D01*
X138535983Y-117935000D01*
X138879635Y-117792655D01*
X139142655Y-117529635D01*
X139285000Y-117185983D01*
X139285000Y-116911622D01*
X139516096Y-117142718D01*
X139859748Y-117285063D01*
X140231714Y-117285063D01*
X140408194Y-117211963D01*
X140559683Y-117274711D01*
X140931649Y-117274711D01*
X141275301Y-117132366D01*
X141538321Y-116869346D01*
X141659416Y-116576996D01*
X142043128Y-116576996D01*
X142043128Y-116948962D01*
X142185473Y-117292614D01*
X142448493Y-117555634D01*
X142792145Y-117697979D01*
X143164111Y-117697979D01*
X143507763Y-117555634D01*
X143770783Y-117292614D01*
X143913128Y-116948962D01*
X143913128Y-116771077D01*
X144124337Y-116771077D01*
X144249155Y-116719376D01*
X144330951Y-116916848D01*
X144593971Y-117179868D01*
X144937623Y-117322213D01*
X145309589Y-117322213D01*
X145550242Y-117222532D01*
X145720365Y-117392655D01*
X146064017Y-117535000D01*
X146435983Y-117535000D01*
X146779635Y-117392655D01*
X147042655Y-117129635D01*
X147185000Y-116785983D01*
X147185000Y-116414017D01*
X147042655Y-116070365D01*
X146779635Y-115807345D01*
X146435983Y-115665000D01*
X146157290Y-115665000D01*
X146392655Y-115429635D01*
X146535000Y-115085983D01*
X146535000Y-114714017D01*
X146410737Y-114414017D01*
X148415000Y-114414017D01*
X148415000Y-114785983D01*
X148557345Y-115129635D01*
X148820365Y-115392655D01*
X149164017Y-115535000D01*
X149262705Y-115535000D01*
X149520365Y-115792660D01*
X149864017Y-115935005D01*
X150235983Y-115935005D01*
X150332817Y-115894895D01*
X150107347Y-116120365D01*
X149965002Y-116464017D01*
X149965002Y-116835983D01*
X150013858Y-116953931D01*
X149885536Y-117263728D01*
X149885536Y-117635694D01*
X150027881Y-117979346D01*
X150290901Y-118242366D01*
X150634553Y-118384711D01*
X151006519Y-118384711D01*
X151350171Y-118242366D01*
X151613191Y-117979346D01*
X151755536Y-117635694D01*
X151755536Y-117263728D01*
X151706680Y-117145780D01*
X151835002Y-116835983D01*
X151835002Y-116464017D01*
X151692657Y-116120365D01*
X151429637Y-115857345D01*
X151085985Y-115715000D01*
X150714019Y-115715000D01*
X150617185Y-115755110D01*
X150842655Y-115529640D01*
X150985000Y-115185988D01*
X150985000Y-114814022D01*
X150943577Y-114714017D01*
X151665000Y-114714017D01*
X151665000Y-115085983D01*
X151807345Y-115429635D01*
X152070365Y-115692655D01*
X152414017Y-115835000D01*
X152559862Y-115835000D01*
X152465000Y-116064017D01*
X152465000Y-116435983D01*
X152607345Y-116779635D01*
X152870365Y-117042655D01*
X153214017Y-117185000D01*
X153585983Y-117185000D01*
X153929635Y-117042655D01*
X154192655Y-116779635D01*
X154335000Y-116435983D01*
X154335000Y-116064017D01*
X154192655Y-115720365D01*
X153929635Y-115457345D01*
X153585983Y-115315000D01*
X153440138Y-115315000D01*
X153535000Y-115085983D01*
X153535000Y-114714017D01*
X153410737Y-114414017D01*
X155465000Y-114414017D01*
X155465000Y-114785983D01*
X155607345Y-115129635D01*
X155870365Y-115392655D01*
X156214017Y-115535000D01*
X156512710Y-115535000D01*
X156520365Y-115542655D01*
X156864017Y-115685000D01*
X157235983Y-115685000D01*
X157579635Y-115542655D01*
X157842655Y-115279635D01*
X157985000Y-114935983D01*
X157985000Y-114714017D01*
X158615000Y-114714017D01*
X158615000Y-115085983D01*
X158757345Y-115429635D01*
X159020365Y-115692655D01*
X159364017Y-115835000D01*
X159735983Y-115835000D01*
X160079635Y-115692655D01*
X160342655Y-115429635D01*
X160485000Y-115085983D01*
X160485000Y-114714017D01*
X160360737Y-114414017D01*
X162215000Y-114414017D01*
X162215000Y-114785983D01*
X162357345Y-115129635D01*
X162620365Y-115392655D01*
X162964017Y-115535000D01*
X163335983Y-115535000D01*
X163354882Y-115527172D01*
X163420365Y-115592655D01*
X163764017Y-115735000D01*
X164135983Y-115735000D01*
X164479635Y-115592655D01*
X164742655Y-115329635D01*
X164885000Y-114985983D01*
X164885000Y-114714017D01*
X165615000Y-114714017D01*
X165615000Y-115085983D01*
X165757345Y-115429635D01*
X166020365Y-115692655D01*
X166364017Y-115835000D01*
X166735983Y-115835000D01*
X167079635Y-115692655D01*
X167342655Y-115429635D01*
X167485000Y-115085983D01*
X167485000Y-114814017D01*
X175165000Y-114814017D01*
X175165000Y-115185983D01*
X175307345Y-115529635D01*
X175570365Y-115792655D01*
X175914017Y-115935000D01*
X176285983Y-115935000D01*
X176629635Y-115792655D01*
X176892655Y-115529635D01*
X177035000Y-115185983D01*
X177035000Y-114814017D01*
X176892655Y-114470365D01*
X176629635Y-114207345D01*
X176285983Y-114065000D01*
X175914017Y-114065000D01*
X175570365Y-114207345D01*
X175307345Y-114470365D01*
X175165000Y-114814017D01*
X167485000Y-114814017D01*
X167485000Y-114714017D01*
X167342655Y-114370365D01*
X167079635Y-114107345D01*
X166735983Y-113965000D01*
X166364017Y-113965000D01*
X166020365Y-114107345D01*
X165757345Y-114370365D01*
X165615000Y-114714017D01*
X164885000Y-114714017D01*
X164885000Y-114614017D01*
X164742655Y-114270365D01*
X164479635Y-114007345D01*
X164135983Y-113865000D01*
X163764017Y-113865000D01*
X163745118Y-113872828D01*
X163679635Y-113807345D01*
X163335983Y-113665000D01*
X162964017Y-113665000D01*
X162620365Y-113807345D01*
X162357345Y-114070365D01*
X162215000Y-114414017D01*
X160360737Y-114414017D01*
X160342655Y-114370365D01*
X160079635Y-114107345D01*
X159735983Y-113965000D01*
X159364017Y-113965000D01*
X159020365Y-114107345D01*
X158757345Y-114370365D01*
X158615000Y-114714017D01*
X157985000Y-114714017D01*
X157985000Y-114564017D01*
X157842655Y-114220365D01*
X157579635Y-113957345D01*
X157235983Y-113815000D01*
X156937290Y-113815000D01*
X156929635Y-113807345D01*
X156585983Y-113665000D01*
X156214017Y-113665000D01*
X155870365Y-113807345D01*
X155607345Y-114070365D01*
X155465000Y-114414017D01*
X153410737Y-114414017D01*
X153392655Y-114370365D01*
X153129635Y-114107345D01*
X152785983Y-113965000D01*
X152414017Y-113965000D01*
X152070365Y-114107345D01*
X151807345Y-114370365D01*
X151665000Y-114714017D01*
X150943577Y-114714017D01*
X150842655Y-114470370D01*
X150579635Y-114207350D01*
X150235983Y-114065005D01*
X150137295Y-114065005D01*
X149879635Y-113807345D01*
X149535983Y-113665000D01*
X149164017Y-113665000D01*
X148820365Y-113807345D01*
X148557345Y-114070365D01*
X148415000Y-114414017D01*
X146410737Y-114414017D01*
X146392655Y-114370365D01*
X146129635Y-114107345D01*
X145785983Y-113965000D01*
X145414017Y-113965000D01*
X145070365Y-114107345D01*
X144807345Y-114370365D01*
X144665000Y-114714017D01*
X144665000Y-114879118D01*
X144535672Y-114879118D01*
X144303498Y-114975288D01*
X144124337Y-114901077D01*
X143752371Y-114901077D01*
X143408719Y-115043422D01*
X143145699Y-115306442D01*
X143003354Y-115650094D01*
X143003354Y-115827979D01*
X142792145Y-115827979D01*
X142448493Y-115970324D01*
X142185473Y-116233344D01*
X142043128Y-116576996D01*
X141659416Y-116576996D01*
X141680666Y-116525694D01*
X141680666Y-116153728D01*
X141538321Y-115810076D01*
X141275301Y-115547056D01*
X140931649Y-115404711D01*
X140559683Y-115404711D01*
X140383203Y-115477811D01*
X140231714Y-115415063D01*
X139859748Y-115415063D01*
X139516096Y-115557408D01*
X139253076Y-115820428D01*
X139110731Y-116164080D01*
X139110731Y-116438441D01*
X138879635Y-116207345D01*
X138535983Y-116065000D01*
X138164017Y-116065000D01*
X137820365Y-116207345D01*
X137557345Y-116470365D01*
X137415000Y-116814017D01*
X128536307Y-116814017D01*
X128429635Y-116707345D01*
X128085983Y-116565000D01*
X127714017Y-116565000D01*
X127370365Y-116707345D01*
X127107345Y-116970365D01*
X126965000Y-117314017D01*
X109710000Y-117314017D01*
X109710000Y-114364017D01*
X134515000Y-114364017D01*
X134515000Y-114735983D01*
X134657345Y-115079635D01*
X134920365Y-115342655D01*
X135087935Y-115412065D01*
X135157345Y-115579635D01*
X135420365Y-115842655D01*
X135764017Y-115985000D01*
X136135983Y-115985000D01*
X136479635Y-115842655D01*
X136742655Y-115579635D01*
X136885000Y-115235983D01*
X136885000Y-114864017D01*
X136742655Y-114520365D01*
X136479635Y-114257345D01*
X136312065Y-114187935D01*
X136242655Y-114020365D01*
X135979635Y-113757345D01*
X135635983Y-113615000D01*
X135264017Y-113615000D01*
X134920365Y-113757345D01*
X134657345Y-114020365D01*
X134515000Y-114364017D01*
X109710000Y-114364017D01*
X109710000Y-110189007D01*
X133314718Y-110189007D01*
X133314718Y-110560973D01*
X133457063Y-110904625D01*
X133720083Y-111167645D01*
X134063735Y-111309990D01*
X134435701Y-111309990D01*
X134779353Y-111167645D01*
X135042373Y-110904625D01*
X135073465Y-110829562D01*
X135073465Y-111186014D01*
X135215810Y-111529666D01*
X135478830Y-111792686D01*
X135822482Y-111935031D01*
X136194448Y-111935031D01*
X136378229Y-111858907D01*
X136562009Y-111935031D01*
X136933975Y-111935031D01*
X137277627Y-111792686D01*
X137540647Y-111529666D01*
X137596800Y-111394100D01*
X137770365Y-111567665D01*
X138114017Y-111710010D01*
X138485983Y-111710010D01*
X138540127Y-111687583D01*
X138457345Y-111770365D01*
X138315000Y-112114017D01*
X138315000Y-112485983D01*
X138457345Y-112829635D01*
X138720365Y-113092655D01*
X139064017Y-113235000D01*
X139435983Y-113235000D01*
X139779635Y-113092655D01*
X140042655Y-112829635D01*
X140185000Y-112485983D01*
X140185000Y-112114017D01*
X140164290Y-112064017D01*
X141415000Y-112064017D01*
X141415000Y-112435983D01*
X141557345Y-112779635D01*
X141820365Y-113042655D01*
X142164017Y-113185000D01*
X142535983Y-113185000D01*
X142879635Y-113042655D01*
X143142655Y-112779635D01*
X143285000Y-112435983D01*
X143285000Y-112064017D01*
X143245837Y-111969470D01*
X143351649Y-111714017D01*
X145865000Y-111714017D01*
X145865000Y-112085983D01*
X146007345Y-112429635D01*
X146270365Y-112692655D01*
X146614017Y-112835000D01*
X146985983Y-112835000D01*
X147139647Y-112771351D01*
X147414021Y-112885000D01*
X147661201Y-112885000D01*
X147772721Y-112996520D01*
X148116373Y-113138865D01*
X148488339Y-113138865D01*
X148831991Y-112996520D01*
X149095011Y-112733500D01*
X149237356Y-112389848D01*
X149237356Y-112017882D01*
X149095011Y-111674230D01*
X148831991Y-111411210D01*
X148488339Y-111268865D01*
X148241159Y-111268865D01*
X148129639Y-111157345D01*
X147785987Y-111015000D01*
X147414021Y-111015000D01*
X147260357Y-111078649D01*
X146985983Y-110965000D01*
X146614017Y-110965000D01*
X146270365Y-111107345D01*
X146007345Y-111370365D01*
X145865000Y-111714017D01*
X143351649Y-111714017D01*
X143358111Y-111698417D01*
X143358111Y-111620422D01*
X143514017Y-111685000D01*
X143885983Y-111685000D01*
X144229635Y-111542655D01*
X144492655Y-111279635D01*
X144635000Y-110935983D01*
X144635000Y-110564017D01*
X144492655Y-110220365D01*
X144229635Y-109957345D01*
X143885983Y-109815000D01*
X143562269Y-109815000D01*
X143529635Y-109782366D01*
X143185983Y-109640021D01*
X142814017Y-109640021D01*
X142470365Y-109782366D01*
X142207345Y-110045386D01*
X142065000Y-110389038D01*
X142065000Y-110648732D01*
X141893476Y-110719779D01*
X141630456Y-110982799D01*
X141488111Y-111326451D01*
X141488111Y-111698417D01*
X141527274Y-111792964D01*
X141415000Y-112064017D01*
X140164290Y-112064017D01*
X140042655Y-111770365D01*
X139779635Y-111507345D01*
X139435983Y-111365000D01*
X139064017Y-111365000D01*
X139009873Y-111387427D01*
X139092655Y-111304645D01*
X139235000Y-110960993D01*
X139235000Y-110589027D01*
X139092655Y-110245375D01*
X139043517Y-110196237D01*
X139151387Y-110088367D01*
X139293732Y-109744715D01*
X139293732Y-109372749D01*
X139151387Y-109029097D01*
X138888367Y-108766077D01*
X138641973Y-108664017D01*
X143965000Y-108664017D01*
X143965000Y-109035983D01*
X144107345Y-109379635D01*
X144370365Y-109642655D01*
X144714017Y-109785000D01*
X145085983Y-109785000D01*
X145352370Y-109674659D01*
X145420366Y-109742655D01*
X145764018Y-109885000D01*
X145962347Y-109885000D01*
X146015770Y-110013975D01*
X146278790Y-110276995D01*
X146622442Y-110419340D01*
X146994408Y-110419340D01*
X147066985Y-110389277D01*
X147070363Y-110392655D01*
X147414015Y-110535000D01*
X147675763Y-110535000D01*
X147846474Y-110705711D01*
X148190126Y-110848056D01*
X148562092Y-110848056D01*
X148905744Y-110705711D01*
X149141290Y-110470165D01*
X149207345Y-110629635D01*
X149470365Y-110892655D01*
X149804357Y-111030999D01*
X149907345Y-111279635D01*
X150090210Y-111462500D01*
X149882345Y-111670365D01*
X149740000Y-112014017D01*
X149740000Y-112385983D01*
X149882345Y-112729635D01*
X150145365Y-112992655D01*
X150489017Y-113135000D01*
X150860983Y-113135000D01*
X151204635Y-112992655D01*
X151467655Y-112729635D01*
X151610000Y-112385983D01*
X151610000Y-112200494D01*
X151814017Y-112285000D01*
X152185983Y-112285000D01*
X152529635Y-112142655D01*
X152792655Y-111879635D01*
X152935000Y-111535983D01*
X152935000Y-111164017D01*
X152792655Y-110820365D01*
X152529635Y-110557345D01*
X152185983Y-110415000D01*
X151814017Y-110415000D01*
X151608531Y-110500115D01*
X151492655Y-110220365D01*
X151229635Y-109957345D01*
X150895643Y-109819001D01*
X150792655Y-109570365D01*
X150529635Y-109307345D01*
X150304321Y-109214017D01*
X153715000Y-109214017D01*
X153715000Y-109585983D01*
X153857345Y-109929635D01*
X154120365Y-110192655D01*
X154464017Y-110335000D01*
X154835983Y-110335000D01*
X154964645Y-110281707D01*
X155189875Y-110375000D01*
X155055178Y-110430793D01*
X154835983Y-110340000D01*
X154464017Y-110340000D01*
X154120365Y-110482345D01*
X153857345Y-110745365D01*
X153715000Y-111089017D01*
X153715000Y-111460983D01*
X153857345Y-111804635D01*
X154120365Y-112067655D01*
X154464017Y-112210000D01*
X154835983Y-112210000D01*
X154994822Y-112144207D01*
X155214017Y-112235000D01*
X155585983Y-112235000D01*
X155710948Y-112183238D01*
X155970365Y-112442655D01*
X156314017Y-112585000D01*
X156685983Y-112585000D01*
X157029635Y-112442655D01*
X157292655Y-112179635D01*
X157435000Y-111835983D01*
X157435000Y-111672981D01*
X157464017Y-111685000D01*
X157835983Y-111685000D01*
X158146210Y-111556500D01*
X158057345Y-111645365D01*
X157915000Y-111989017D01*
X157915000Y-112360983D01*
X158057345Y-112704635D01*
X158320365Y-112967655D01*
X158664017Y-113110000D01*
X159035983Y-113110000D01*
X159379635Y-112967655D01*
X159642655Y-112704635D01*
X159785000Y-112360983D01*
X159785000Y-111989017D01*
X159642655Y-111645365D01*
X159379635Y-111382345D01*
X159035983Y-111240000D01*
X158664017Y-111240000D01*
X158353790Y-111368500D01*
X158442655Y-111279635D01*
X158585000Y-110935983D01*
X158585000Y-110564017D01*
X158442655Y-110220365D01*
X158179635Y-109957345D01*
X157905999Y-109844001D01*
X157792655Y-109570365D01*
X157529635Y-109307345D01*
X157504067Y-109296754D01*
X158147725Y-109296754D01*
X158147725Y-109668720D01*
X158290070Y-110012372D01*
X158553090Y-110275392D01*
X158896742Y-110417737D01*
X159268708Y-110417737D01*
X159612360Y-110275392D01*
X159875380Y-110012372D01*
X159916119Y-109914017D01*
X163065000Y-109914017D01*
X163065000Y-110285983D01*
X163207345Y-110629635D01*
X163470365Y-110892655D01*
X163683646Y-110980999D01*
X163807345Y-111279635D01*
X164070365Y-111542655D01*
X164414017Y-111685000D01*
X164465000Y-111685000D01*
X164465000Y-111835983D01*
X164607345Y-112179635D01*
X164870365Y-112442655D01*
X165214017Y-112585000D01*
X165585983Y-112585000D01*
X165929635Y-112442655D01*
X166192655Y-112179635D01*
X166335000Y-111835983D01*
X166335000Y-111464017D01*
X166192655Y-111120365D01*
X165929635Y-110857345D01*
X165585983Y-110715000D01*
X165535000Y-110715000D01*
X165535000Y-110564017D01*
X165392655Y-110220365D01*
X165129635Y-109957345D01*
X164916354Y-109869001D01*
X164792655Y-109570365D01*
X164700020Y-109477730D01*
X168328713Y-109477730D01*
X168328713Y-109849696D01*
X168471058Y-110193348D01*
X168734078Y-110456368D01*
X169077730Y-110598713D01*
X169449696Y-110598713D01*
X169793348Y-110456368D01*
X170056368Y-110193348D01*
X170198713Y-109849696D01*
X170198713Y-109685000D01*
X170285983Y-109685000D01*
X170629635Y-109542655D01*
X170647631Y-109524659D01*
X170914017Y-109635000D01*
X171285983Y-109635000D01*
X171552369Y-109524659D01*
X171570365Y-109542655D01*
X171914017Y-109685000D01*
X172285983Y-109685000D01*
X172629635Y-109542655D01*
X172892655Y-109279635D01*
X173035000Y-108935983D01*
X173035000Y-108564017D01*
X172892655Y-108220365D01*
X172629635Y-107957345D01*
X172285983Y-107815000D01*
X171914017Y-107815000D01*
X171647631Y-107925341D01*
X171629635Y-107907345D01*
X171285983Y-107765000D01*
X170914017Y-107765000D01*
X170570365Y-107907345D01*
X170552369Y-107925341D01*
X170285983Y-107815000D01*
X169914017Y-107815000D01*
X169570365Y-107957345D01*
X169307345Y-108220365D01*
X169165000Y-108564017D01*
X169165000Y-108728713D01*
X169077730Y-108728713D01*
X168734078Y-108871058D01*
X168471058Y-109134078D01*
X168328713Y-109477730D01*
X164700020Y-109477730D01*
X164529635Y-109307345D01*
X164185983Y-109165000D01*
X163814017Y-109165000D01*
X163470365Y-109307345D01*
X163207345Y-109570365D01*
X163065000Y-109914017D01*
X159916119Y-109914017D01*
X160017725Y-109668720D01*
X160017725Y-109296754D01*
X159875380Y-108953102D01*
X159612360Y-108690082D01*
X159268708Y-108547737D01*
X158896742Y-108547737D01*
X158553090Y-108690082D01*
X158290070Y-108953102D01*
X158147725Y-109296754D01*
X157504067Y-109296754D01*
X157185983Y-109165000D01*
X156814017Y-109165000D01*
X156470365Y-109307345D01*
X156335000Y-109442710D01*
X156335000Y-109264017D01*
X156192655Y-108920365D01*
X155929635Y-108657345D01*
X155585983Y-108515000D01*
X155214017Y-108515000D01*
X155085355Y-108568293D01*
X154835983Y-108465000D01*
X154464017Y-108465000D01*
X154120365Y-108607345D01*
X153857345Y-108870365D01*
X153715000Y-109214017D01*
X150304321Y-109214017D01*
X150185983Y-109165000D01*
X149814017Y-109165000D01*
X149796728Y-109172161D01*
X149796728Y-108964028D01*
X149654383Y-108620376D01*
X149391363Y-108357356D01*
X149047711Y-108215011D01*
X148675745Y-108215011D01*
X148332093Y-108357356D01*
X148069073Y-108620376D01*
X148011838Y-108758553D01*
X147785981Y-108665000D01*
X147414015Y-108665000D01*
X147341438Y-108695063D01*
X147338060Y-108691685D01*
X146994408Y-108549340D01*
X146796079Y-108549340D01*
X146742656Y-108420365D01*
X146479636Y-108157345D01*
X146135984Y-108015000D01*
X145764018Y-108015000D01*
X145497631Y-108125341D01*
X145429635Y-108057345D01*
X145085983Y-107915000D01*
X144714017Y-107915000D01*
X144370365Y-108057345D01*
X144107345Y-108320365D01*
X143965000Y-108664017D01*
X138641973Y-108664017D01*
X138626268Y-108657512D01*
X138626268Y-108555285D01*
X138483923Y-108211633D01*
X138220903Y-107948613D01*
X137877251Y-107806268D01*
X137505285Y-107806268D01*
X137161633Y-107948613D01*
X136898613Y-108211633D01*
X136777153Y-108504863D01*
X136729635Y-108457345D01*
X136385983Y-108315000D01*
X136014017Y-108315000D01*
X135670365Y-108457345D01*
X135407345Y-108720365D01*
X135265000Y-109064017D01*
X135265000Y-109435983D01*
X135407345Y-109779635D01*
X135670365Y-110042655D01*
X135773434Y-110085347D01*
X135478830Y-110207376D01*
X135215810Y-110470396D01*
X135184718Y-110545459D01*
X135184718Y-110189007D01*
X135042373Y-109845355D01*
X134779353Y-109582335D01*
X134435701Y-109439990D01*
X134063735Y-109439990D01*
X133720083Y-109582335D01*
X133457063Y-109845355D01*
X133314718Y-110189007D01*
X109710000Y-110189007D01*
X109710000Y-106239017D01*
X135715000Y-106239017D01*
X135715000Y-106610983D01*
X135857345Y-106954635D01*
X136120365Y-107217655D01*
X136464017Y-107360000D01*
X136835983Y-107360000D01*
X137179635Y-107217655D01*
X137442655Y-106954635D01*
X137585000Y-106610983D01*
X137585000Y-106557290D01*
X137770365Y-106742655D01*
X138114017Y-106885000D01*
X138485983Y-106885000D01*
X138829635Y-106742655D01*
X139092655Y-106479635D01*
X139235000Y-106135983D01*
X139235000Y-106031207D01*
X139324077Y-105942130D01*
X139315011Y-105964017D01*
X139315011Y-106335983D01*
X139457356Y-106679635D01*
X139720376Y-106942655D01*
X140064028Y-107085000D01*
X140435994Y-107085000D01*
X140779646Y-106942655D01*
X141042666Y-106679635D01*
X141185011Y-106335983D01*
X141185011Y-105964017D01*
X141106316Y-105774028D01*
X148415000Y-105774028D01*
X148415000Y-106145994D01*
X148557345Y-106489646D01*
X148820365Y-106752666D01*
X149164017Y-106895011D01*
X149535983Y-106895011D01*
X149879635Y-106752666D01*
X150142655Y-106489646D01*
X150285000Y-106145994D01*
X150285000Y-105774028D01*
X150142655Y-105430376D01*
X149879635Y-105167356D01*
X149535983Y-105025011D01*
X149164017Y-105025011D01*
X148820365Y-105167356D01*
X148557345Y-105430376D01*
X148415000Y-105774028D01*
X141106316Y-105774028D01*
X141042666Y-105620365D01*
X140779646Y-105357345D01*
X140435994Y-105215000D01*
X140064028Y-105215000D01*
X139720376Y-105357345D01*
X139566665Y-105511056D01*
X139575731Y-105489169D01*
X139575731Y-105117203D01*
X139433386Y-104773551D01*
X139170366Y-104510531D01*
X138826714Y-104368186D01*
X138454748Y-104368186D01*
X138111096Y-104510531D01*
X137971959Y-104649669D01*
X137829635Y-104507345D01*
X137485983Y-104365000D01*
X137114017Y-104365000D01*
X136770365Y-104507345D01*
X136507345Y-104770365D01*
X136365000Y-105114017D01*
X136365000Y-105485983D01*
X136380921Y-105524419D01*
X136120365Y-105632345D01*
X135857345Y-105895365D01*
X135715000Y-106239017D01*
X109710000Y-106239017D01*
X109710000Y-104314017D01*
X150465000Y-104314017D01*
X150465000Y-104685983D01*
X150607345Y-105029635D01*
X150870365Y-105292655D01*
X151214017Y-105435000D01*
X151585983Y-105435000D01*
X151612457Y-105424034D01*
X156065000Y-105424034D01*
X156065000Y-105796000D01*
X156207345Y-106139652D01*
X156470365Y-106402672D01*
X156724010Y-106507735D01*
X156857345Y-106829635D01*
X157120365Y-107092655D01*
X157464017Y-107235000D01*
X157835983Y-107235000D01*
X158179635Y-107092655D01*
X158442655Y-106829635D01*
X158585000Y-106485983D01*
X158585000Y-106114017D01*
X158442655Y-105770365D01*
X158179635Y-105507345D01*
X157925990Y-105402282D01*
X157792655Y-105080382D01*
X157529635Y-104817362D01*
X157185983Y-104675017D01*
X156814017Y-104675017D01*
X156470365Y-104817362D01*
X156207345Y-105080382D01*
X156065000Y-105424034D01*
X151612457Y-105424034D01*
X151929635Y-105292655D01*
X152192655Y-105029635D01*
X152335000Y-104685983D01*
X152335000Y-104324017D01*
X159215000Y-104324017D01*
X159215000Y-104695983D01*
X159357345Y-105039635D01*
X159620365Y-105302655D01*
X159964017Y-105445000D01*
X160335983Y-105445000D01*
X160386638Y-105424018D01*
X162965000Y-105424018D01*
X162965000Y-105795984D01*
X163107345Y-106139636D01*
X163370365Y-106402656D01*
X163714017Y-106545001D01*
X164085983Y-106545001D01*
X164429635Y-106402656D01*
X164692655Y-106139636D01*
X164835000Y-105795984D01*
X164835000Y-105424018D01*
X164736375Y-105185915D01*
X164892655Y-105029635D01*
X165035000Y-104685983D01*
X165035000Y-104314017D01*
X164892655Y-103970365D01*
X164629635Y-103707345D01*
X164285983Y-103565000D01*
X163914017Y-103565000D01*
X163570365Y-103707345D01*
X163307345Y-103970365D01*
X163165000Y-104314017D01*
X163165000Y-104685983D01*
X163263625Y-104924086D01*
X163107345Y-105080366D01*
X162965000Y-105424018D01*
X160386638Y-105424018D01*
X160679635Y-105302655D01*
X160942655Y-105039635D01*
X161085000Y-104695983D01*
X161085000Y-104324017D01*
X160942655Y-103980365D01*
X160679635Y-103717345D01*
X160335983Y-103575000D01*
X159964017Y-103575000D01*
X159620365Y-103717345D01*
X159357345Y-103980365D01*
X159215000Y-104324017D01*
X152335000Y-104324017D01*
X152335000Y-104314017D01*
X152192655Y-103970365D01*
X151929635Y-103707345D01*
X151585983Y-103565000D01*
X151214017Y-103565000D01*
X150870365Y-103707345D01*
X150607345Y-103970365D01*
X150465000Y-104314017D01*
X109710000Y-104314017D01*
X109710000Y-99150000D01*
X118252560Y-99150000D01*
X118252560Y-100650000D01*
X118301843Y-100897765D01*
X118442191Y-101107809D01*
X118652235Y-101248157D01*
X118900000Y-101297440D01*
X120400000Y-101297440D01*
X120647765Y-101248157D01*
X120857809Y-101107809D01*
X120998157Y-100897765D01*
X121036469Y-100705156D01*
X121405460Y-101074147D01*
X121914506Y-101285000D01*
X122465494Y-101285000D01*
X122974540Y-101074147D01*
X123364147Y-100684540D01*
X123460000Y-100453130D01*
X123555853Y-100684540D01*
X123945460Y-101074147D01*
X124454506Y-101285000D01*
X125005494Y-101285000D01*
X125514540Y-101074147D01*
X125904147Y-100684540D01*
X126000000Y-100453130D01*
X126095853Y-100684540D01*
X126485460Y-101074147D01*
X126994506Y-101285000D01*
X127545494Y-101285000D01*
X128054540Y-101074147D01*
X128444147Y-100684540D01*
X128540000Y-100453130D01*
X128635853Y-100684540D01*
X129025460Y-101074147D01*
X129534506Y-101285000D01*
X130085494Y-101285000D01*
X130594540Y-101074147D01*
X130984147Y-100684540D01*
X131080000Y-100453130D01*
X131175853Y-100684540D01*
X131565460Y-101074147D01*
X132074506Y-101285000D01*
X132625494Y-101285000D01*
X133134540Y-101074147D01*
X133524147Y-100684540D01*
X133620000Y-100453130D01*
X133715853Y-100684540D01*
X134105460Y-101074147D01*
X134614506Y-101285000D01*
X135165494Y-101285000D01*
X135674540Y-101074147D01*
X136064147Y-100684540D01*
X136160000Y-100453130D01*
X136255853Y-100684540D01*
X136645460Y-101074147D01*
X137154506Y-101285000D01*
X137705494Y-101285000D01*
X138214540Y-101074147D01*
X138604147Y-100684540D01*
X138700000Y-100453130D01*
X138795853Y-100684540D01*
X139185460Y-101074147D01*
X139694506Y-101285000D01*
X140245494Y-101285000D01*
X140754540Y-101074147D01*
X141144147Y-100684540D01*
X141355000Y-100175494D01*
X141355000Y-99624506D01*
X141158454Y-99150000D01*
X143502560Y-99150000D01*
X143502560Y-100650000D01*
X143551843Y-100897765D01*
X143692191Y-101107809D01*
X143902235Y-101248157D01*
X144150000Y-101297440D01*
X145650000Y-101297440D01*
X145897765Y-101248157D01*
X146107809Y-101107809D01*
X146248157Y-100897765D01*
X146286469Y-100705156D01*
X146655460Y-101074147D01*
X147164506Y-101285000D01*
X147715494Y-101285000D01*
X148224540Y-101074147D01*
X148614147Y-100684540D01*
X148710000Y-100453130D01*
X148805853Y-100684540D01*
X149195460Y-101074147D01*
X149704506Y-101285000D01*
X150255494Y-101285000D01*
X150764540Y-101074147D01*
X151154147Y-100684540D01*
X151250000Y-100453130D01*
X151345853Y-100684540D01*
X151735460Y-101074147D01*
X152244506Y-101285000D01*
X152795494Y-101285000D01*
X153304540Y-101074147D01*
X153694147Y-100684540D01*
X153790000Y-100453130D01*
X153885853Y-100684540D01*
X154275460Y-101074147D01*
X154784506Y-101285000D01*
X155335494Y-101285000D01*
X155844540Y-101074147D01*
X156234147Y-100684540D01*
X156330000Y-100453130D01*
X156425853Y-100684540D01*
X156815460Y-101074147D01*
X157324506Y-101285000D01*
X157875494Y-101285000D01*
X158384540Y-101074147D01*
X158774147Y-100684540D01*
X158870000Y-100453130D01*
X158965853Y-100684540D01*
X159355460Y-101074147D01*
X159864506Y-101285000D01*
X160415494Y-101285000D01*
X160924540Y-101074147D01*
X161314147Y-100684540D01*
X161410000Y-100453130D01*
X161505853Y-100684540D01*
X161895460Y-101074147D01*
X162404506Y-101285000D01*
X162955494Y-101285000D01*
X163464540Y-101074147D01*
X163854147Y-100684540D01*
X163950000Y-100453130D01*
X164045853Y-100684540D01*
X164435460Y-101074147D01*
X164944506Y-101285000D01*
X165495494Y-101285000D01*
X166004540Y-101074147D01*
X166394147Y-100684540D01*
X166605000Y-100175494D01*
X166605000Y-99624506D01*
X166394147Y-99115460D01*
X166004540Y-98725853D01*
X165495494Y-98515000D01*
X164944506Y-98515000D01*
X164435460Y-98725853D01*
X164045853Y-99115460D01*
X163950000Y-99346870D01*
X163854147Y-99115460D01*
X163464540Y-98725853D01*
X162955494Y-98515000D01*
X162404506Y-98515000D01*
X161895460Y-98725853D01*
X161505853Y-99115460D01*
X161410000Y-99346870D01*
X161314147Y-99115460D01*
X160924540Y-98725853D01*
X160415494Y-98515000D01*
X159864506Y-98515000D01*
X159355460Y-98725853D01*
X158965853Y-99115460D01*
X158870000Y-99346870D01*
X158774147Y-99115460D01*
X158384540Y-98725853D01*
X157875494Y-98515000D01*
X157324506Y-98515000D01*
X156815460Y-98725853D01*
X156425853Y-99115460D01*
X156330000Y-99346870D01*
X156234147Y-99115460D01*
X155844540Y-98725853D01*
X155335494Y-98515000D01*
X154784506Y-98515000D01*
X154275460Y-98725853D01*
X153885853Y-99115460D01*
X153790000Y-99346870D01*
X153694147Y-99115460D01*
X153304540Y-98725853D01*
X152795494Y-98515000D01*
X152244506Y-98515000D01*
X151735460Y-98725853D01*
X151345853Y-99115460D01*
X151250000Y-99346870D01*
X151154147Y-99115460D01*
X150764540Y-98725853D01*
X150255494Y-98515000D01*
X149704506Y-98515000D01*
X149195460Y-98725853D01*
X148805853Y-99115460D01*
X148710000Y-99346870D01*
X148614147Y-99115460D01*
X148224540Y-98725853D01*
X147715494Y-98515000D01*
X147164506Y-98515000D01*
X146655460Y-98725853D01*
X146286469Y-99094844D01*
X146248157Y-98902235D01*
X146107809Y-98692191D01*
X145897765Y-98551843D01*
X145650000Y-98502560D01*
X144150000Y-98502560D01*
X143902235Y-98551843D01*
X143692191Y-98692191D01*
X143551843Y-98902235D01*
X143502560Y-99150000D01*
X141158454Y-99150000D01*
X141144147Y-99115460D01*
X140754540Y-98725853D01*
X140245494Y-98515000D01*
X139694506Y-98515000D01*
X139185460Y-98725853D01*
X138795853Y-99115460D01*
X138700000Y-99346870D01*
X138604147Y-99115460D01*
X138214540Y-98725853D01*
X137705494Y-98515000D01*
X137154506Y-98515000D01*
X136645460Y-98725853D01*
X136255853Y-99115460D01*
X136160000Y-99346870D01*
X136064147Y-99115460D01*
X135674540Y-98725853D01*
X135165494Y-98515000D01*
X134614506Y-98515000D01*
X134464381Y-98577184D01*
X134585000Y-98285983D01*
X134585000Y-97914017D01*
X134442655Y-97570365D01*
X134179635Y-97307345D01*
X133835983Y-97165000D01*
X133464017Y-97165000D01*
X133120365Y-97307345D01*
X132857345Y-97570365D01*
X132715000Y-97914017D01*
X132715000Y-98285983D01*
X132848045Y-98607183D01*
X132625494Y-98515000D01*
X132074506Y-98515000D01*
X131565460Y-98725853D01*
X131175853Y-99115460D01*
X131080000Y-99346870D01*
X130984147Y-99115460D01*
X130594540Y-98725853D01*
X130085494Y-98515000D01*
X129534506Y-98515000D01*
X129025460Y-98725853D01*
X128635853Y-99115460D01*
X128540000Y-99346870D01*
X128444147Y-99115460D01*
X128054540Y-98725853D01*
X127545494Y-98515000D01*
X126994506Y-98515000D01*
X126485460Y-98725853D01*
X126095853Y-99115460D01*
X126000000Y-99346870D01*
X125904147Y-99115460D01*
X125514540Y-98725853D01*
X125005494Y-98515000D01*
X124454506Y-98515000D01*
X123945460Y-98725853D01*
X123555853Y-99115460D01*
X123460000Y-99346870D01*
X123364147Y-99115460D01*
X122974540Y-98725853D01*
X122465494Y-98515000D01*
X121914506Y-98515000D01*
X121405460Y-98725853D01*
X121036469Y-99094844D01*
X120998157Y-98902235D01*
X120857809Y-98692191D01*
X120647765Y-98551843D01*
X120400000Y-98502560D01*
X118900000Y-98502560D01*
X118652235Y-98551843D01*
X118442191Y-98692191D01*
X118301843Y-98902235D01*
X118252560Y-99150000D01*
X109710000Y-99150000D01*
X109710000Y-94684180D01*
X110415000Y-94684180D01*
X110415000Y-95115820D01*
X110580182Y-95514603D01*
X110885397Y-95819818D01*
X111284180Y-95985000D01*
X111715820Y-95985000D01*
X112114603Y-95819818D01*
X112419818Y-95514603D01*
X112585000Y-95115820D01*
X112585000Y-94684180D01*
X112419818Y-94285397D01*
X112114603Y-93980182D01*
X111715820Y-93815000D01*
X111284180Y-93815000D01*
X110885397Y-93980182D01*
X110580182Y-94285397D01*
X110415000Y-94684180D01*
X109710000Y-94684180D01*
X109710000Y-91314017D01*
X111515000Y-91314017D01*
X111515000Y-91685983D01*
X111657345Y-92029635D01*
X111696051Y-92068341D01*
X111615000Y-92264017D01*
X111615000Y-92635983D01*
X111757345Y-92979635D01*
X112020365Y-93242655D01*
X112364017Y-93385000D01*
X112735983Y-93385000D01*
X113079635Y-93242655D01*
X113158273Y-93164017D01*
X116639990Y-93164017D01*
X116639990Y-93535983D01*
X116697573Y-93675000D01*
X116639990Y-93814017D01*
X116639990Y-94185983D01*
X116697573Y-94325000D01*
X116639990Y-94464017D01*
X116639990Y-94835983D01*
X116782335Y-95179635D01*
X117045355Y-95442655D01*
X117389007Y-95585000D01*
X117760973Y-95585000D01*
X118104625Y-95442655D01*
X118367645Y-95179635D01*
X118509990Y-94835983D01*
X118509990Y-94464017D01*
X118452407Y-94325000D01*
X118509990Y-94185983D01*
X118509990Y-93814017D01*
X118452407Y-93675000D01*
X118509990Y-93535983D01*
X118509990Y-93164017D01*
X118367645Y-92820365D01*
X118104625Y-92557345D01*
X117760973Y-92415000D01*
X117389007Y-92415000D01*
X117045355Y-92557345D01*
X116782335Y-92820365D01*
X116639990Y-93164017D01*
X113158273Y-93164017D01*
X113342655Y-92979635D01*
X113485000Y-92635983D01*
X113485000Y-92264017D01*
X113342655Y-91920365D01*
X113336307Y-91914017D01*
X181265000Y-91914017D01*
X181265000Y-92285983D01*
X181407345Y-92629635D01*
X181670365Y-92892655D01*
X182014017Y-93035000D01*
X182385983Y-93035000D01*
X182729635Y-92892655D01*
X182992655Y-92629635D01*
X183135000Y-92285983D01*
X183135000Y-91914017D01*
X182992655Y-91570365D01*
X182729635Y-91307345D01*
X182385983Y-91165000D01*
X182014017Y-91165000D01*
X181670365Y-91307345D01*
X181407345Y-91570365D01*
X181265000Y-91914017D01*
X113336307Y-91914017D01*
X113303949Y-91881659D01*
X113385000Y-91685983D01*
X113385000Y-91314017D01*
X113274659Y-91047631D01*
X113342655Y-90979635D01*
X113485000Y-90635983D01*
X113485000Y-90264017D01*
X113342655Y-89920365D01*
X113079635Y-89657345D01*
X112735983Y-89515000D01*
X112364017Y-89515000D01*
X112020365Y-89657345D01*
X111757345Y-89920365D01*
X111615000Y-90264017D01*
X111615000Y-90635983D01*
X111725341Y-90902369D01*
X111657345Y-90970365D01*
X111515000Y-91314017D01*
X109710000Y-91314017D01*
X109710000Y-87884180D01*
X110415000Y-87884180D01*
X110415000Y-88315820D01*
X110580182Y-88714603D01*
X110885397Y-89019818D01*
X111284180Y-89185000D01*
X111715820Y-89185000D01*
X112114603Y-89019818D01*
X112419818Y-88714603D01*
X112585000Y-88315820D01*
X112585000Y-88164017D01*
X166165000Y-88164017D01*
X166165000Y-88535983D01*
X166253649Y-88750000D01*
X166165000Y-88964017D01*
X166165000Y-89335983D01*
X166307345Y-89679635D01*
X166570365Y-89942655D01*
X166914017Y-90085000D01*
X167285983Y-90085000D01*
X167629635Y-89942655D01*
X167708273Y-89864017D01*
X168915000Y-89864017D01*
X168915000Y-90235983D01*
X169057345Y-90579635D01*
X169320365Y-90842655D01*
X169664017Y-90985000D01*
X170035983Y-90985000D01*
X170379635Y-90842655D01*
X170642655Y-90579635D01*
X170785000Y-90235983D01*
X170785000Y-89864017D01*
X170642655Y-89520365D01*
X170379635Y-89257345D01*
X170035983Y-89115000D01*
X169664017Y-89115000D01*
X169320365Y-89257345D01*
X169057345Y-89520365D01*
X168915000Y-89864017D01*
X167708273Y-89864017D01*
X167892655Y-89679635D01*
X168035000Y-89335983D01*
X168035000Y-88964017D01*
X167946351Y-88750000D01*
X168035000Y-88535983D01*
X168035000Y-88164017D01*
X167892655Y-87820365D01*
X167756470Y-87684180D01*
X180415000Y-87684180D01*
X180415000Y-88115820D01*
X180580182Y-88514603D01*
X180885397Y-88819818D01*
X181284180Y-88985000D01*
X181715820Y-88985000D01*
X182114603Y-88819818D01*
X182419818Y-88514603D01*
X182585000Y-88115820D01*
X182585000Y-87684180D01*
X182419818Y-87285397D01*
X182114603Y-86980182D01*
X181715820Y-86815000D01*
X181284180Y-86815000D01*
X180885397Y-86980182D01*
X180580182Y-87285397D01*
X180415000Y-87684180D01*
X167756470Y-87684180D01*
X167629635Y-87557345D01*
X167285983Y-87415000D01*
X166914017Y-87415000D01*
X166570365Y-87557345D01*
X166307345Y-87820365D01*
X166165000Y-88164017D01*
X112585000Y-88164017D01*
X112585000Y-87884180D01*
X112419818Y-87485397D01*
X112114603Y-87180182D01*
X111715820Y-87015000D01*
X111284180Y-87015000D01*
X110885397Y-87180182D01*
X110580182Y-87485397D01*
X110415000Y-87884180D01*
X109710000Y-87884180D01*
X109710000Y-84384506D01*
X118265000Y-84384506D01*
X118265000Y-84935494D01*
X118475853Y-85444540D01*
X118865460Y-85834147D01*
X119374506Y-86045000D01*
X119925494Y-86045000D01*
X120434540Y-85834147D01*
X120824147Y-85444540D01*
X120920000Y-85213130D01*
X121015853Y-85444540D01*
X121405460Y-85834147D01*
X121914506Y-86045000D01*
X122465494Y-86045000D01*
X122974540Y-85834147D01*
X123364147Y-85444540D01*
X123460000Y-85213130D01*
X123555853Y-85444540D01*
X123945460Y-85834147D01*
X124454506Y-86045000D01*
X125005494Y-86045000D01*
X125514540Y-85834147D01*
X125904147Y-85444540D01*
X126000000Y-85213130D01*
X126095853Y-85444540D01*
X126485460Y-85834147D01*
X126994506Y-86045000D01*
X127545494Y-86045000D01*
X128054540Y-85834147D01*
X128444147Y-85444540D01*
X128540000Y-85213130D01*
X128635853Y-85444540D01*
X129025460Y-85834147D01*
X129534506Y-86045000D01*
X130085494Y-86045000D01*
X130594540Y-85834147D01*
X130984147Y-85444540D01*
X131080000Y-85213130D01*
X131175853Y-85444540D01*
X131565460Y-85834147D01*
X132074506Y-86045000D01*
X132625494Y-86045000D01*
X133134540Y-85834147D01*
X133524147Y-85444540D01*
X133620000Y-85213130D01*
X133715853Y-85444540D01*
X134105460Y-85834147D01*
X134203114Y-85874596D01*
X133957345Y-86120365D01*
X133815000Y-86464017D01*
X133815000Y-86835983D01*
X133957345Y-87179635D01*
X134220365Y-87442655D01*
X134564017Y-87585000D01*
X134935983Y-87585000D01*
X135279635Y-87442655D01*
X135542655Y-87179635D01*
X135685000Y-86835983D01*
X135685000Y-86464017D01*
X135542655Y-86120365D01*
X135486307Y-86064017D01*
X169865000Y-86064017D01*
X169865000Y-86435983D01*
X170007345Y-86779635D01*
X170270365Y-87042655D01*
X170614017Y-87185000D01*
X170985983Y-87185000D01*
X171329635Y-87042655D01*
X171450000Y-86922290D01*
X171570365Y-87042655D01*
X171914017Y-87185000D01*
X172285983Y-87185000D01*
X172629635Y-87042655D01*
X172675000Y-86997290D01*
X172720365Y-87042655D01*
X173064017Y-87185000D01*
X173435983Y-87185000D01*
X173779635Y-87042655D01*
X173875000Y-86947290D01*
X173970365Y-87042655D01*
X174314017Y-87185000D01*
X174685983Y-87185000D01*
X175029635Y-87042655D01*
X175292655Y-86779635D01*
X175435000Y-86435983D01*
X175435000Y-86064017D01*
X175292655Y-85720365D01*
X175029635Y-85457345D01*
X174685983Y-85315000D01*
X174314017Y-85315000D01*
X173970365Y-85457345D01*
X173875000Y-85552710D01*
X173779635Y-85457345D01*
X173435983Y-85315000D01*
X173064017Y-85315000D01*
X172720365Y-85457345D01*
X172675000Y-85502710D01*
X172629635Y-85457345D01*
X172285983Y-85315000D01*
X171914017Y-85315000D01*
X171570365Y-85457345D01*
X171450000Y-85577710D01*
X171329635Y-85457345D01*
X170985983Y-85315000D01*
X170614017Y-85315000D01*
X170270365Y-85457345D01*
X170007345Y-85720365D01*
X169865000Y-86064017D01*
X135486307Y-86064017D01*
X135378896Y-85956606D01*
X135674540Y-85834147D01*
X136064147Y-85444540D01*
X136160000Y-85213130D01*
X136255853Y-85444540D01*
X136645460Y-85834147D01*
X137154506Y-86045000D01*
X137705494Y-86045000D01*
X138214540Y-85834147D01*
X138604147Y-85444540D01*
X138700000Y-85213130D01*
X138795853Y-85444540D01*
X139185460Y-85834147D01*
X139694506Y-86045000D01*
X140245494Y-86045000D01*
X140754540Y-85834147D01*
X141144147Y-85444540D01*
X141355000Y-84935494D01*
X141355000Y-84384506D01*
X143515000Y-84384506D01*
X143515000Y-84935494D01*
X143725853Y-85444540D01*
X144115460Y-85834147D01*
X144624506Y-86045000D01*
X145175494Y-86045000D01*
X145684540Y-85834147D01*
X146074147Y-85444540D01*
X146170000Y-85213130D01*
X146265853Y-85444540D01*
X146655460Y-85834147D01*
X147164506Y-86045000D01*
X147715494Y-86045000D01*
X148224540Y-85834147D01*
X148614147Y-85444540D01*
X148710000Y-85213130D01*
X148805853Y-85444540D01*
X149195460Y-85834147D01*
X149704506Y-86045000D01*
X150255494Y-86045000D01*
X150764540Y-85834147D01*
X151154147Y-85444540D01*
X151250000Y-85213130D01*
X151345853Y-85444540D01*
X151735460Y-85834147D01*
X152244506Y-86045000D01*
X152795494Y-86045000D01*
X153304540Y-85834147D01*
X153694147Y-85444540D01*
X153790000Y-85213130D01*
X153885853Y-85444540D01*
X154275460Y-85834147D01*
X154784506Y-86045000D01*
X155335494Y-86045000D01*
X155844540Y-85834147D01*
X156234147Y-85444540D01*
X156330000Y-85213130D01*
X156425853Y-85444540D01*
X156815460Y-85834147D01*
X157324506Y-86045000D01*
X157875494Y-86045000D01*
X158384540Y-85834147D01*
X158774147Y-85444540D01*
X158870000Y-85213130D01*
X158965853Y-85444540D01*
X159355460Y-85834147D01*
X159864506Y-86045000D01*
X160415494Y-86045000D01*
X160924540Y-85834147D01*
X161314147Y-85444540D01*
X161410000Y-85213130D01*
X161505853Y-85444540D01*
X161895460Y-85834147D01*
X162404506Y-86045000D01*
X162955494Y-86045000D01*
X163464540Y-85834147D01*
X163854147Y-85444540D01*
X163950000Y-85213130D01*
X164045853Y-85444540D01*
X164435460Y-85834147D01*
X164944506Y-86045000D01*
X165495494Y-86045000D01*
X166004540Y-85834147D01*
X166394147Y-85444540D01*
X166605000Y-84935494D01*
X166605000Y-84384506D01*
X166394147Y-83875460D01*
X166004540Y-83485853D01*
X165495494Y-83275000D01*
X164944506Y-83275000D01*
X164435460Y-83485853D01*
X164045853Y-83875460D01*
X163950000Y-84106870D01*
X163854147Y-83875460D01*
X163464540Y-83485853D01*
X162955494Y-83275000D01*
X162404506Y-83275000D01*
X161895460Y-83485853D01*
X161505853Y-83875460D01*
X161410000Y-84106870D01*
X161314147Y-83875460D01*
X160924540Y-83485853D01*
X160415494Y-83275000D01*
X159864506Y-83275000D01*
X159355460Y-83485853D01*
X158965853Y-83875460D01*
X158870000Y-84106870D01*
X158774147Y-83875460D01*
X158384540Y-83485853D01*
X157875494Y-83275000D01*
X157324506Y-83275000D01*
X156815460Y-83485853D01*
X156425853Y-83875460D01*
X156330000Y-84106870D01*
X156234147Y-83875460D01*
X155844540Y-83485853D01*
X155335494Y-83275000D01*
X154784506Y-83275000D01*
X154275460Y-83485853D01*
X153885853Y-83875460D01*
X153790000Y-84106870D01*
X153694147Y-83875460D01*
X153304540Y-83485853D01*
X152795494Y-83275000D01*
X152244506Y-83275000D01*
X151735460Y-83485853D01*
X151345853Y-83875460D01*
X151250000Y-84106870D01*
X151154147Y-83875460D01*
X150764540Y-83485853D01*
X150255494Y-83275000D01*
X149704506Y-83275000D01*
X149195460Y-83485853D01*
X148805853Y-83875460D01*
X148710000Y-84106870D01*
X148614147Y-83875460D01*
X148224540Y-83485853D01*
X147715494Y-83275000D01*
X147164506Y-83275000D01*
X146655460Y-83485853D01*
X146265853Y-83875460D01*
X146170000Y-84106870D01*
X146074147Y-83875460D01*
X145684540Y-83485853D01*
X145175494Y-83275000D01*
X144624506Y-83275000D01*
X144115460Y-83485853D01*
X143725853Y-83875460D01*
X143515000Y-84384506D01*
X141355000Y-84384506D01*
X141144147Y-83875460D01*
X140754540Y-83485853D01*
X140245494Y-83275000D01*
X139694506Y-83275000D01*
X139185460Y-83485853D01*
X138795853Y-83875460D01*
X138700000Y-84106870D01*
X138604147Y-83875460D01*
X138214540Y-83485853D01*
X137705494Y-83275000D01*
X137154506Y-83275000D01*
X136645460Y-83485853D01*
X136255853Y-83875460D01*
X136160000Y-84106870D01*
X136064147Y-83875460D01*
X135674540Y-83485853D01*
X135165494Y-83275000D01*
X134614506Y-83275000D01*
X134105460Y-83485853D01*
X133715853Y-83875460D01*
X133620000Y-84106870D01*
X133524147Y-83875460D01*
X133134540Y-83485853D01*
X132625494Y-83275000D01*
X132074506Y-83275000D01*
X131565460Y-83485853D01*
X131175853Y-83875460D01*
X131080000Y-84106870D01*
X130984147Y-83875460D01*
X130594540Y-83485853D01*
X130085494Y-83275000D01*
X129534506Y-83275000D01*
X129025460Y-83485853D01*
X128635853Y-83875460D01*
X128540000Y-84106870D01*
X128444147Y-83875460D01*
X128054540Y-83485853D01*
X127545494Y-83275000D01*
X126994506Y-83275000D01*
X126485460Y-83485853D01*
X126095853Y-83875460D01*
X126000000Y-84106870D01*
X125904147Y-83875460D01*
X125514540Y-83485853D01*
X125005494Y-83275000D01*
X124454506Y-83275000D01*
X123945460Y-83485853D01*
X123555853Y-83875460D01*
X123460000Y-84106870D01*
X123364147Y-83875460D01*
X122974540Y-83485853D01*
X122465494Y-83275000D01*
X121914506Y-83275000D01*
X121405460Y-83485853D01*
X121015853Y-83875460D01*
X120920000Y-84106870D01*
X120824147Y-83875460D01*
X120434540Y-83485853D01*
X119925494Y-83275000D01*
X119374506Y-83275000D01*
X118865460Y-83485853D01*
X118475853Y-83875460D01*
X118265000Y-84384506D01*
X109710000Y-84384506D01*
X109710000Y-81314017D01*
X168115000Y-81314017D01*
X168115000Y-81685983D01*
X168257345Y-82029635D01*
X168520365Y-82292655D01*
X168864017Y-82435000D01*
X169235983Y-82435000D01*
X169579635Y-82292655D01*
X169842655Y-82029635D01*
X169985000Y-81685983D01*
X169985000Y-81314017D01*
X169842655Y-80970365D01*
X169756470Y-80884180D01*
X180415000Y-80884180D01*
X180415000Y-81315820D01*
X180580182Y-81714603D01*
X180885397Y-82019818D01*
X181284180Y-82185000D01*
X181715820Y-82185000D01*
X182114603Y-82019818D01*
X182419818Y-81714603D01*
X182585000Y-81315820D01*
X182585000Y-80884180D01*
X182419818Y-80485397D01*
X182114603Y-80180182D01*
X181715820Y-80015000D01*
X181284180Y-80015000D01*
X180885397Y-80180182D01*
X180580182Y-80485397D01*
X180415000Y-80884180D01*
X169756470Y-80884180D01*
X169579635Y-80707345D01*
X169235983Y-80565000D01*
X168864017Y-80565000D01*
X168520365Y-80707345D01*
X168257345Y-80970365D01*
X168115000Y-81314017D01*
X109710000Y-81314017D01*
X109710000Y-79964017D01*
X131365000Y-79964017D01*
X131365000Y-80335983D01*
X131507345Y-80679635D01*
X131770365Y-80942655D01*
X132114017Y-81085000D01*
X132485983Y-81085000D01*
X132829635Y-80942655D01*
X133092655Y-80679635D01*
X133235000Y-80335983D01*
X133235000Y-79964017D01*
X133193579Y-79864017D01*
X137815000Y-79864017D01*
X137815000Y-80235983D01*
X137957345Y-80579635D01*
X138220365Y-80842655D01*
X138564017Y-80985000D01*
X138935983Y-80985000D01*
X139279635Y-80842655D01*
X139542655Y-80579635D01*
X139685000Y-80235983D01*
X139685000Y-80064017D01*
X145165000Y-80064017D01*
X145165000Y-80435983D01*
X145307345Y-80779635D01*
X145570365Y-81042655D01*
X145914017Y-81185000D01*
X146285983Y-81185000D01*
X146629635Y-81042655D01*
X146892655Y-80779635D01*
X147035000Y-80435983D01*
X147035000Y-80064017D01*
X146892655Y-79720365D01*
X146629635Y-79457345D01*
X146285983Y-79315000D01*
X145914017Y-79315000D01*
X145570365Y-79457345D01*
X145307345Y-79720365D01*
X145165000Y-80064017D01*
X139685000Y-80064017D01*
X139685000Y-79864017D01*
X139542655Y-79520365D01*
X139279635Y-79257345D01*
X138935983Y-79115000D01*
X138564017Y-79115000D01*
X138220365Y-79257345D01*
X137957345Y-79520365D01*
X137815000Y-79864017D01*
X133193579Y-79864017D01*
X133092655Y-79620365D01*
X132829635Y-79357345D01*
X132485983Y-79215000D01*
X132114017Y-79215000D01*
X131770365Y-79357345D01*
X131507345Y-79620365D01*
X131365000Y-79964017D01*
X109710000Y-79964017D01*
X109710000Y-77264017D01*
X123815000Y-77264017D01*
X123815000Y-77635983D01*
X123957345Y-77979635D01*
X124220365Y-78242655D01*
X124564017Y-78385000D01*
X124935983Y-78385000D01*
X125279635Y-78242655D01*
X125483273Y-78039017D01*
X130065000Y-78039017D01*
X130065000Y-78410983D01*
X130207345Y-78754635D01*
X130470365Y-79017655D01*
X130814017Y-79160000D01*
X131185983Y-79160000D01*
X131417706Y-79064017D01*
X154165000Y-79064017D01*
X154165000Y-79435983D01*
X154307345Y-79779635D01*
X154570365Y-80042655D01*
X154914017Y-80185000D01*
X155285983Y-80185000D01*
X155629635Y-80042655D01*
X155758273Y-79914017D01*
X160465000Y-79914017D01*
X160465000Y-80285983D01*
X160607345Y-80629635D01*
X160870365Y-80892655D01*
X161214017Y-81035000D01*
X161585983Y-81035000D01*
X161929635Y-80892655D01*
X162192655Y-80629635D01*
X162335000Y-80285983D01*
X162335000Y-79914017D01*
X162192655Y-79570365D01*
X161929635Y-79307345D01*
X161585983Y-79165000D01*
X161214017Y-79165000D01*
X160870365Y-79307345D01*
X160607345Y-79570365D01*
X160465000Y-79914017D01*
X155758273Y-79914017D01*
X155892655Y-79779635D01*
X156033143Y-79440466D01*
X156329635Y-79317655D01*
X156592655Y-79054635D01*
X156735000Y-78710983D01*
X156735000Y-78414017D01*
X169115000Y-78414017D01*
X169115000Y-78785983D01*
X169257345Y-79129635D01*
X169520365Y-79392655D01*
X169864017Y-79535000D01*
X170235983Y-79535000D01*
X170579635Y-79392655D01*
X170700000Y-79272290D01*
X170820365Y-79392655D01*
X171164017Y-79535000D01*
X171535983Y-79535000D01*
X171879635Y-79392655D01*
X172000000Y-79272290D01*
X172120365Y-79392655D01*
X172464017Y-79535000D01*
X172835983Y-79535000D01*
X173179635Y-79392655D01*
X173442655Y-79129635D01*
X173585000Y-78785983D01*
X173585000Y-78414017D01*
X173442655Y-78070365D01*
X173179635Y-77807345D01*
X172835983Y-77665000D01*
X172464017Y-77665000D01*
X172120365Y-77807345D01*
X172000000Y-77927710D01*
X171879635Y-77807345D01*
X171535983Y-77665000D01*
X171164017Y-77665000D01*
X170820365Y-77807345D01*
X170700000Y-77927710D01*
X170579635Y-77807345D01*
X170235983Y-77665000D01*
X169864017Y-77665000D01*
X169520365Y-77807345D01*
X169257345Y-78070365D01*
X169115000Y-78414017D01*
X156735000Y-78414017D01*
X156735000Y-78339017D01*
X156592655Y-77995365D01*
X156329635Y-77732345D01*
X155985983Y-77590000D01*
X155614017Y-77590000D01*
X155270365Y-77732345D01*
X155007345Y-77995365D01*
X154866857Y-78334534D01*
X154570365Y-78457345D01*
X154307345Y-78720365D01*
X154165000Y-79064017D01*
X131417706Y-79064017D01*
X131529635Y-79017655D01*
X131792655Y-78754635D01*
X131935000Y-78410983D01*
X131935000Y-78039017D01*
X131792655Y-77695365D01*
X131648537Y-77551247D01*
X131729635Y-77517655D01*
X131992655Y-77254635D01*
X132135000Y-76910983D01*
X132135000Y-76539017D01*
X131992655Y-76195365D01*
X131811307Y-76014017D01*
X136865000Y-76014017D01*
X136865000Y-76385983D01*
X137007345Y-76729635D01*
X137270365Y-76992655D01*
X137614017Y-77135000D01*
X137618146Y-77135000D01*
X137657345Y-77229635D01*
X137920365Y-77492655D01*
X138264017Y-77635000D01*
X138635983Y-77635000D01*
X138979635Y-77492655D01*
X139242655Y-77229635D01*
X139346659Y-76978546D01*
X139664017Y-77110000D01*
X140035983Y-77110000D01*
X140379635Y-76967655D01*
X140642655Y-76704635D01*
X140785000Y-76360983D01*
X140785000Y-75989017D01*
X140753935Y-75914017D01*
X151865004Y-75914017D01*
X151865004Y-76285983D01*
X152007349Y-76629635D01*
X152270369Y-76892655D01*
X152327579Y-76916352D01*
X152457345Y-77229635D01*
X152720365Y-77492655D01*
X153064017Y-77635000D01*
X153435983Y-77635000D01*
X153779635Y-77492655D01*
X154042655Y-77229635D01*
X154185000Y-76885983D01*
X154185000Y-76514017D01*
X154042655Y-76170365D01*
X153779635Y-75907345D01*
X153722425Y-75883648D01*
X153592659Y-75570365D01*
X153329639Y-75307345D01*
X153104325Y-75214017D01*
X159015000Y-75214017D01*
X159015000Y-75585983D01*
X159157345Y-75929635D01*
X159420365Y-76192655D01*
X159764017Y-76335000D01*
X160135983Y-76335000D01*
X160479635Y-76192655D01*
X160742655Y-75929635D01*
X160749124Y-75914017D01*
X166815000Y-75914017D01*
X166815000Y-76285983D01*
X166957345Y-76629635D01*
X167220365Y-76892655D01*
X167277580Y-76916354D01*
X167407345Y-77229635D01*
X167670365Y-77492655D01*
X168014017Y-77635000D01*
X168385983Y-77635000D01*
X168729635Y-77492655D01*
X168992655Y-77229635D01*
X169135000Y-76885983D01*
X169135000Y-76823201D01*
X169279454Y-76967655D01*
X169623106Y-77110000D01*
X169995072Y-77110000D01*
X170338724Y-76967655D01*
X170601744Y-76704635D01*
X170744089Y-76360983D01*
X170744089Y-75989017D01*
X170601744Y-75645365D01*
X170338724Y-75382345D01*
X169995072Y-75240000D01*
X169623106Y-75240000D01*
X169279454Y-75382345D01*
X169016434Y-75645365D01*
X168874089Y-75989017D01*
X168874089Y-76051799D01*
X168729635Y-75907345D01*
X168672420Y-75883646D01*
X168542655Y-75570365D01*
X168279635Y-75307345D01*
X167935983Y-75165000D01*
X167564017Y-75165000D01*
X167220365Y-75307345D01*
X166957345Y-75570365D01*
X166815000Y-75914017D01*
X160749124Y-75914017D01*
X160885000Y-75585983D01*
X160885000Y-75214017D01*
X160742655Y-74870365D01*
X160479635Y-74607345D01*
X160135983Y-74465000D01*
X159764017Y-74465000D01*
X159420365Y-74607345D01*
X159157345Y-74870365D01*
X159015000Y-75214017D01*
X153104325Y-75214017D01*
X152985987Y-75165000D01*
X152614021Y-75165000D01*
X152270369Y-75307345D01*
X152007349Y-75570365D01*
X151865004Y-75914017D01*
X140753935Y-75914017D01*
X140642655Y-75645365D01*
X140379635Y-75382345D01*
X140035983Y-75240000D01*
X139664017Y-75240000D01*
X139320365Y-75382345D01*
X139057345Y-75645365D01*
X138953341Y-75896454D01*
X138635983Y-75765000D01*
X138631854Y-75765000D01*
X138592655Y-75670365D01*
X138329635Y-75407345D01*
X137985983Y-75265000D01*
X137614017Y-75265000D01*
X137270365Y-75407345D01*
X137007345Y-75670365D01*
X136865000Y-76014017D01*
X131811307Y-76014017D01*
X131729635Y-75932345D01*
X131385983Y-75790000D01*
X131014017Y-75790000D01*
X130670365Y-75932345D01*
X130407345Y-76195365D01*
X130265000Y-76539017D01*
X130265000Y-76910983D01*
X130407345Y-77254635D01*
X130551463Y-77398753D01*
X130470365Y-77432345D01*
X130207345Y-77695365D01*
X130065000Y-78039017D01*
X125483273Y-78039017D01*
X125542655Y-77979635D01*
X125685000Y-77635983D01*
X125685000Y-77264017D01*
X125542655Y-76920365D01*
X125491182Y-76868892D01*
X125725257Y-76771935D01*
X125988277Y-76508915D01*
X126130622Y-76165263D01*
X126130622Y-75793297D01*
X125988277Y-75449645D01*
X125725257Y-75186625D01*
X125381605Y-75044280D01*
X125009639Y-75044280D01*
X124665987Y-75186625D01*
X124402967Y-75449645D01*
X124260622Y-75793297D01*
X124260622Y-76165263D01*
X124402967Y-76508915D01*
X124454440Y-76560388D01*
X124220365Y-76657345D01*
X123957345Y-76920365D01*
X123815000Y-77264017D01*
X109710000Y-77264017D01*
X109710000Y-75468286D01*
X121015355Y-75468286D01*
X121015355Y-75840252D01*
X121157700Y-76183904D01*
X121420720Y-76446924D01*
X121764372Y-76589269D01*
X122136338Y-76589269D01*
X122479990Y-76446924D01*
X122743010Y-76183904D01*
X122885355Y-75840252D01*
X122885355Y-75468286D01*
X122743010Y-75124634D01*
X122479990Y-74861614D01*
X122136338Y-74719269D01*
X121764372Y-74719269D01*
X121420720Y-74861614D01*
X121157700Y-75124634D01*
X121015355Y-75468286D01*
X109710000Y-75468286D01*
X109710000Y-69514017D01*
X122365000Y-69514017D01*
X122365000Y-69885983D01*
X122507345Y-70229635D01*
X122770365Y-70492655D01*
X123114017Y-70635000D01*
X123465000Y-70635000D01*
X123465000Y-70968146D01*
X123370365Y-71007345D01*
X123107345Y-71270365D01*
X122965000Y-71614017D01*
X122965000Y-71826725D01*
X122770365Y-71907345D01*
X122507345Y-72170365D01*
X122365000Y-72514017D01*
X122365000Y-72885983D01*
X122507345Y-73229635D01*
X122770365Y-73492655D01*
X123114017Y-73635000D01*
X123485983Y-73635000D01*
X123829635Y-73492655D01*
X124092655Y-73229635D01*
X124235000Y-72885983D01*
X124235000Y-72673275D01*
X124429635Y-72592655D01*
X124458273Y-72564017D01*
X137265000Y-72564017D01*
X137265000Y-72935983D01*
X137407345Y-73279635D01*
X137670365Y-73542655D01*
X138014017Y-73685000D01*
X138385983Y-73685000D01*
X138729635Y-73542655D01*
X138992655Y-73279635D01*
X139135000Y-72935983D01*
X139135000Y-72766896D01*
X139413039Y-72651729D01*
X139500751Y-72564017D01*
X152165000Y-72564017D01*
X152165000Y-72935983D01*
X152307345Y-73279635D01*
X152570365Y-73542655D01*
X152914017Y-73685000D01*
X153285983Y-73685000D01*
X153629635Y-73542655D01*
X153892655Y-73279635D01*
X154035000Y-72935983D01*
X154035000Y-72735000D01*
X154135983Y-72735000D01*
X154479635Y-72592655D01*
X154508273Y-72564017D01*
X167315000Y-72564017D01*
X167315000Y-72935983D01*
X167457345Y-73279635D01*
X167720365Y-73542655D01*
X168064017Y-73685000D01*
X168435983Y-73685000D01*
X168779635Y-73542655D01*
X169042655Y-73279635D01*
X169185000Y-72935983D01*
X169185000Y-72673275D01*
X169379635Y-72592655D01*
X169642655Y-72329635D01*
X169785000Y-71985983D01*
X169785000Y-71714697D01*
X170079635Y-71592655D01*
X170342655Y-71329635D01*
X170485000Y-70985983D01*
X170485000Y-70614017D01*
X170342655Y-70270365D01*
X170079635Y-70007345D01*
X169735983Y-69865000D01*
X169364017Y-69865000D01*
X169279127Y-69900163D01*
X169285000Y-69885983D01*
X169285000Y-69514017D01*
X169142655Y-69170365D01*
X168879635Y-68907345D01*
X168535983Y-68765000D01*
X168164017Y-68765000D01*
X167820365Y-68907345D01*
X167557345Y-69170365D01*
X167415000Y-69514017D01*
X167415000Y-69885983D01*
X167557345Y-70229635D01*
X167820365Y-70492655D01*
X168164017Y-70635000D01*
X168535983Y-70635000D01*
X168620873Y-70599837D01*
X168615000Y-70614017D01*
X168615000Y-70885303D01*
X168320365Y-71007345D01*
X168057345Y-71270365D01*
X167915000Y-71614017D01*
X167915000Y-71876725D01*
X167720365Y-71957345D01*
X167457345Y-72220365D01*
X167315000Y-72564017D01*
X154508273Y-72564017D01*
X154742655Y-72329635D01*
X154885000Y-71985983D01*
X154885000Y-71714697D01*
X155179635Y-71592655D01*
X155442655Y-71329635D01*
X155585000Y-70985983D01*
X155585000Y-70614017D01*
X155442655Y-70270365D01*
X155179635Y-70007345D01*
X154835983Y-69865000D01*
X154464017Y-69865000D01*
X154233416Y-69960518D01*
X154285000Y-69835983D01*
X154285000Y-69464017D01*
X154142655Y-69120365D01*
X153879635Y-68857345D01*
X153535983Y-68715000D01*
X153164017Y-68715000D01*
X152820365Y-68857345D01*
X152557345Y-69120365D01*
X152415000Y-69464017D01*
X152415000Y-69835983D01*
X152557345Y-70179635D01*
X152820365Y-70442655D01*
X153164017Y-70585000D01*
X153535983Y-70585000D01*
X153766584Y-70489482D01*
X153715000Y-70614017D01*
X153715000Y-70885303D01*
X153420365Y-71007345D01*
X153157345Y-71270365D01*
X153015000Y-71614017D01*
X153015000Y-71815000D01*
X152914017Y-71815000D01*
X152570365Y-71957345D01*
X152307345Y-72220365D01*
X152165000Y-72564017D01*
X139500751Y-72564017D01*
X139676059Y-72388709D01*
X139818404Y-72045057D01*
X139818404Y-71673091D01*
X139768845Y-71553445D01*
X139992655Y-71329635D01*
X140135000Y-70985983D01*
X140135000Y-70614017D01*
X139992655Y-70270365D01*
X139729635Y-70007345D01*
X139385983Y-69865000D01*
X139222981Y-69865000D01*
X139235000Y-69835983D01*
X139235000Y-69464017D01*
X139092655Y-69120365D01*
X138829635Y-68857345D01*
X138485983Y-68715000D01*
X138114017Y-68715000D01*
X137770365Y-68857345D01*
X137507345Y-69120365D01*
X137365000Y-69464017D01*
X137365000Y-69835983D01*
X137507345Y-70179635D01*
X137770365Y-70442655D01*
X138114017Y-70585000D01*
X138277019Y-70585000D01*
X138265000Y-70614017D01*
X138265000Y-70985983D01*
X138314559Y-71105629D01*
X138090749Y-71329439D01*
X137948404Y-71673091D01*
X137948404Y-71842178D01*
X137670365Y-71957345D01*
X137407345Y-72220365D01*
X137265000Y-72564017D01*
X124458273Y-72564017D01*
X124692655Y-72329635D01*
X124835000Y-71985983D01*
X124835000Y-71631854D01*
X124929635Y-71592655D01*
X125192655Y-71329635D01*
X125335000Y-70985983D01*
X125335000Y-70664017D01*
X130865000Y-70664017D01*
X130865000Y-71035983D01*
X131007345Y-71379635D01*
X131270365Y-71642655D01*
X131614017Y-71785000D01*
X131985983Y-71785000D01*
X132329635Y-71642655D01*
X132592655Y-71379635D01*
X132735000Y-71035983D01*
X132735000Y-70664017D01*
X132592655Y-70320365D01*
X132329635Y-70057345D01*
X131985983Y-69915000D01*
X131614017Y-69915000D01*
X131270365Y-70057345D01*
X131007345Y-70320365D01*
X130865000Y-70664017D01*
X125335000Y-70664017D01*
X125335000Y-70614017D01*
X125192655Y-70270365D01*
X124929635Y-70007345D01*
X124585983Y-69865000D01*
X124235000Y-69865000D01*
X124235000Y-69514017D01*
X124092655Y-69170365D01*
X123829635Y-68907345D01*
X123485983Y-68765000D01*
X123114017Y-68765000D01*
X122770365Y-68907345D01*
X122507345Y-69170365D01*
X122365000Y-69514017D01*
X109710000Y-69514017D01*
X109710000Y-68364017D01*
X120065000Y-68364017D01*
X120065000Y-68735983D01*
X120207345Y-69079635D01*
X120470365Y-69342655D01*
X120814017Y-69485000D01*
X121185983Y-69485000D01*
X121529635Y-69342655D01*
X121792655Y-69079635D01*
X121935000Y-68735983D01*
X121935000Y-68364017D01*
X121914290Y-68314017D01*
X134815000Y-68314017D01*
X134815000Y-68685983D01*
X134957345Y-69029635D01*
X135220365Y-69292655D01*
X135564017Y-69435000D01*
X135935983Y-69435000D01*
X136279635Y-69292655D01*
X136542655Y-69029635D01*
X136685000Y-68685983D01*
X136685000Y-68314017D01*
X136542655Y-67970365D01*
X136279635Y-67707345D01*
X135935983Y-67565000D01*
X135564017Y-67565000D01*
X135220365Y-67707345D01*
X134957345Y-67970365D01*
X134815000Y-68314017D01*
X121914290Y-68314017D01*
X121792655Y-68020365D01*
X121529635Y-67757345D01*
X121185983Y-67615000D01*
X120814017Y-67615000D01*
X120470365Y-67757345D01*
X120207345Y-68020365D01*
X120065000Y-68364017D01*
X109710000Y-68364017D01*
X109710000Y-58495270D01*
X109992643Y-59177630D01*
X111322370Y-60507357D01*
X113059741Y-61227000D01*
X114940259Y-61227000D01*
X116677630Y-60507357D01*
X118007357Y-59177630D01*
X118727000Y-57440259D01*
X118727000Y-55559741D01*
X118464046Y-54924914D01*
X120815000Y-54924914D01*
X120815000Y-55625086D01*
X121082944Y-56271960D01*
X121578040Y-56767056D01*
X122224914Y-57035000D01*
X122925086Y-57035000D01*
X123571960Y-56767056D01*
X124067056Y-56271960D01*
X124302560Y-55703403D01*
X124302560Y-56400000D01*
X124351843Y-56647765D01*
X124492191Y-56857809D01*
X124702235Y-56998157D01*
X124950000Y-57047440D01*
X127200000Y-57047440D01*
X127447765Y-56998157D01*
X127657809Y-56857809D01*
X127798157Y-56647765D01*
X127847440Y-56400000D01*
X127847440Y-54874914D01*
X135815000Y-54874914D01*
X135815000Y-55575086D01*
X136082944Y-56221960D01*
X136578040Y-56717056D01*
X137224914Y-56985000D01*
X137925086Y-56985000D01*
X138571960Y-56717056D01*
X139067056Y-56221960D01*
X139302560Y-55653403D01*
X139302560Y-56350000D01*
X139351843Y-56597765D01*
X139492191Y-56807809D01*
X139702235Y-56948157D01*
X139950000Y-56997440D01*
X142200000Y-56997440D01*
X142447765Y-56948157D01*
X142657809Y-56807809D01*
X142798157Y-56597765D01*
X142847440Y-56350000D01*
X142847440Y-54924914D01*
X150815000Y-54924914D01*
X150815000Y-55625086D01*
X151082944Y-56271960D01*
X151578040Y-56767056D01*
X152224914Y-57035000D01*
X152925086Y-57035000D01*
X153571960Y-56767056D01*
X154067056Y-56271960D01*
X154302560Y-55703403D01*
X154302560Y-56400000D01*
X154351843Y-56647765D01*
X154492191Y-56857809D01*
X154702235Y-56998157D01*
X154950000Y-57047440D01*
X157200000Y-57047440D01*
X157447765Y-56998157D01*
X157657809Y-56857809D01*
X157798157Y-56647765D01*
X157847440Y-56400000D01*
X157847440Y-54924914D01*
X165815000Y-54924914D01*
X165815000Y-55625086D01*
X166082944Y-56271960D01*
X166578040Y-56767056D01*
X167224914Y-57035000D01*
X167925086Y-57035000D01*
X168571960Y-56767056D01*
X169067056Y-56271960D01*
X169302560Y-55703403D01*
X169302560Y-56400000D01*
X169351843Y-56647765D01*
X169492191Y-56857809D01*
X169702235Y-56998157D01*
X169950000Y-57047440D01*
X172200000Y-57047440D01*
X172447765Y-56998157D01*
X172657809Y-56857809D01*
X172798157Y-56647765D01*
X172847440Y-56400000D01*
X172847440Y-54150000D01*
X172798157Y-53902235D01*
X172657809Y-53692191D01*
X172447765Y-53551843D01*
X172200000Y-53502560D01*
X169950000Y-53502560D01*
X169702235Y-53551843D01*
X169492191Y-53692191D01*
X169351843Y-53902235D01*
X169302560Y-54150000D01*
X169302560Y-54846597D01*
X169067056Y-54278040D01*
X168571960Y-53782944D01*
X167925086Y-53515000D01*
X167224914Y-53515000D01*
X166578040Y-53782944D01*
X166082944Y-54278040D01*
X165815000Y-54924914D01*
X157847440Y-54924914D01*
X157847440Y-54150000D01*
X157798157Y-53902235D01*
X157657809Y-53692191D01*
X157447765Y-53551843D01*
X157200000Y-53502560D01*
X154950000Y-53502560D01*
X154702235Y-53551843D01*
X154492191Y-53692191D01*
X154351843Y-53902235D01*
X154302560Y-54150000D01*
X154302560Y-54846597D01*
X154067056Y-54278040D01*
X153571960Y-53782944D01*
X152925086Y-53515000D01*
X152224914Y-53515000D01*
X151578040Y-53782944D01*
X151082944Y-54278040D01*
X150815000Y-54924914D01*
X142847440Y-54924914D01*
X142847440Y-54100000D01*
X142798157Y-53852235D01*
X142657809Y-53642191D01*
X142447765Y-53501843D01*
X142200000Y-53452560D01*
X139950000Y-53452560D01*
X139702235Y-53501843D01*
X139492191Y-53642191D01*
X139351843Y-53852235D01*
X139302560Y-54100000D01*
X139302560Y-54796597D01*
X139067056Y-54228040D01*
X138571960Y-53732944D01*
X137925086Y-53465000D01*
X137224914Y-53465000D01*
X136578040Y-53732944D01*
X136082944Y-54228040D01*
X135815000Y-54874914D01*
X127847440Y-54874914D01*
X127847440Y-54150000D01*
X127798157Y-53902235D01*
X127657809Y-53692191D01*
X127447765Y-53551843D01*
X127200000Y-53502560D01*
X124950000Y-53502560D01*
X124702235Y-53551843D01*
X124492191Y-53692191D01*
X124351843Y-53902235D01*
X124302560Y-54150000D01*
X124302560Y-54846597D01*
X124067056Y-54278040D01*
X123571960Y-53782944D01*
X122925086Y-53515000D01*
X122224914Y-53515000D01*
X121578040Y-53782944D01*
X121082944Y-54278040D01*
X120815000Y-54924914D01*
X118464046Y-54924914D01*
X118007357Y-53822370D01*
X116677630Y-52492643D01*
X114940259Y-51773000D01*
X113059741Y-51773000D01*
X111322370Y-52492643D01*
X109992643Y-53822370D01*
X109710000Y-54504730D01*
X109710000Y-49710000D01*
X183290001Y-49710000D01*
X183290001Y-54504732D01*
M02*
